<?xml version="1.0" encoding="iso-8859-1"?>
<!-- Generator: Adobe Illustrator 27.9.1, SVG Export Plug-In . SVG Version: 6.00 Build 0)  -->
<svg version="1.1" xmlns="http://www.w3.org/2000/svg" xmlns:xlink="http://www.w3.org/1999/xlink" x="0px" y="0px"
	 viewBox="0 0 82.854 84.55" style="enable-background:new 0 0 82.854 84.55;" xml:space="preserve">
<g id="Layer_2">
</g>
<g id="Layer_1">
	<path style="fill:#FFFFFF;" d="M6.325,40.372V0.1c0,0,11.404-0.261,13.973,0.061C23.715,0.588,28.474,2.906,30,6.69
		c1.75,4.34,0.301,8.417-0.976,10.129c-2.685,3.6-5.654,4.864-5.787,5.251c-0.125,0.361,1.802,2.391,2.131,2.753
		c0.41,0.452,12.168,13.001,12.168,13.001l-2.41,1.816l-1.388,1.067c0,0-17.233-19.168-17.101-19.434
		c0.119-0.24,2.016-0.741,3.204-1.404c1.698-0.947,6.59-4.119,5.827-9.306c-0.474-3.22-2.044-5.125-4.76-6.132
		C18.538,3.553,11.42,3.73,11.42,3.73l-0.031,36.337L6.325,40.372z"/>
	<path style="fill:#FFFFFF;" d="M54.583,19.376c-0.146,0.214-0.637,0.881-0.637,0.973c0,0.092,0.096,0.985-0.241,1.26
		c-0.373,0.306-1.525,0.672-2.379,0.305c-1.739-0.745-2.864-2.608-3.234-3.844c-0.367-1.221-0.672-3.447-0.519-3.6
		c0.247-0.246,1.224-0.437,2.109-0.26c1.479,0.296,2.831,2.766,3.413,2.792c1.312,0.061,16.505-7.078,17.085-6.956
		c0.486,0.102,1.465,3.539,1.312,3.753c-0.152,0.214-0.577,0.135-0.732,0.061c-0.579-0.275-0.703-2.508-0.885-2.471
		c-0.457,0.091-1.209,1.312-1.342,1.525c-0.153,0.244-0.184,0.702-0.092,0.977c0.092,0.275,0.477,2.106,1.008,2.471
		c0.488,0.336,2.502-0.519,3.021-0.793c0.518-0.275,1.361-1.435,1.403-2.227c0.031-0.58-1.434-3.844-1.983-5.553
		c-0.091-0.286-0.29-0.412-0.778-0.229c-0.233,0.087-4.962,2.277-9.26,4.119c-3.474,1.489-6.674,2.701-6.925,2.776
		c-0.458,0.137-0.52,0.107-0.687-0.168c-0.473-0.778-1.892-2.532-3.371-2.654c-1.354-0.111-1.902,0.448-2.257,0.762
		c-0.794,0.702-2.593,3.112-2.41,6.072c0.194,3.145,2.028,5.584,4.103,5.949c1.891,0.334,2.748-0.928,3.095-1.312
		c1.679-1.846,2.196-4.746,2.105-4.746C55.321,18.358,54.737,19.151,54.583,19.376z"/>
	<path style="fill:#FFFFFF;" d="M42.356,31.096c3.082-1.464,6.284-2.025,8.787-2.318c5.98-0.702,11.348,1.332,11.745,1.068
		c0.367-0.244,1.569-4.291,5.737-7.383c1.892-1.404,5.828-4.424,14.126-5.461c0.092,0.641,0.122,1.099,0.092,2.136
		c-2.869,0.213-6.378,1.922-8.817,3.722c-5.379,3.965-5.987,8.083-6.389,8.807c-0.602,1.085-2.229,1.627-4.577,0.904
		c-1.103-0.339-3.545-1.899-8.875-1.139c-1.207,0.172-4.901,0.398-12.026,5.57C41.942,37.157,42.356,31.096,42.356,31.096z"/>
	<path style="fill:#FFFFFF;" d="M34.15,62.521h-5.003v17.085c0,0-6.575,0-10.831-1.555C9.207,74.721,6.579,69.584,6.63,63.009
		c0.061-7.932,6.107-11.98,9.9-13.745c6.59-3.066,15.727-2.059,15.788-2.425c0.061-0.366-0.366-4.393-0.366-4.393
		s-8.68,0.427-10.937,0.916c-2.258,0.488-8.558,2.105-13.317,6.177c-2.961,2.534-6.118,6.438-6.269,14.325
		c-0.09,4.658,2.897,11.143,6.956,14.278c4.286,3.31,8.374,4.119,11.623,4.896c3.021,0.724,14.142,1.919,14.142,1.373
		C34.15,83.542,34.15,62.521,34.15,62.521z"/>
	<path style="fill:#FFFFFF;" d="M49.158,83.344V43.072c0,0,11.405-0.26,13.973,0.061c3.418,0.427,8.176,2.745,9.702,6.529
		c1.75,4.34,0.301,8.417-0.977,10.129c-2.685,3.6-5.653,4.864-5.787,5.251c-0.124,0.36,1.802,2.391,2.131,2.753
		c0.41,0.452,12.168,13.001,12.168,13.001l-2.41,1.816l-1.388,1.067c0,0-17.231-19.168-17.1-19.434
		c0.119-0.239,2.016-0.742,3.204-1.403c1.698-0.947,6.59-4.119,5.828-9.306c-0.474-3.22-2.044-5.125-4.759-6.132
		c-2.372-0.879-9.489-0.702-9.489-0.702l-0.029,36.336L49.158,83.344z"/>
</g>
<g id="Layer_3">
	<rect x="39.378" y="0.175" style="fill:#FFFFFF;" width="3.455" height="82.532"/>
	<rect y="39.735" style="fill:#FFFFFF;" width="82.212" height="3.413"/>
</g>
</svg>
