<?xml version="1.0" encoding="utf-8"?>
<!-- Generator: Adobe Illustrator 24.1.1, SVG Export Plug-In . SVG Version: 6.00 Build 0)  -->
<svg version="1.1" id="Layer_1" xmlns="http://www.w3.org/2000/svg" xmlns:xlink="http://www.w3.org/1999/xlink" x="0px" y="0px"
	 viewBox="0 0 576 576.52" style="enable-background:new 0 0 576 576.52;" xml:space="preserve">
<style type="text/css">
	.st0{fill:#383838;}
</style>
<path class="st0" d="M569.35,263.64C512.97,167.96,407.81,104.01,288,104.01C168.14,104.01,63,168,6.65,263.64
	c-8.86,15.04-8.86,33.7,0,48.74C63.03,408.06,168.19,472.01,288,472.01c119.86,0,225-63.99,281.35-159.63
	C578.22,297.34,578.22,278.68,569.35,263.64L569.35,263.64z M288,424.01c-102.56,0-192.09-54.7-240-136
	C92.16,213.08,171.68,160.74,264.16,153c9.8,10.09,15.84,23.84,15.84,39.01c0,30.93-25.07,56-56,56s-56-25.07-56-56l0-0.04
	c-10.21,19.09-16,40.89-16,64.04c0,75.11,60.89,136,136,136s136-60.89,136-136c0-31.03-10.4-59.63-27.89-82.51
	c55.6,23.15,101.9,63.62,131.89,114.51C480.09,369.31,390.56,424.01,288,424.01z"/>
</svg>
