<?xml version="1.0" encoding="UTF-8"?>
<svg id="Layer_1" xmlns="http://www.w3.org/2000/svg" version="1.1" viewBox="0 0 279.7 283.8">
  <!-- Generator: Adobe Illustrator 29.2.1, SVG Export Plug-In . SVG Version: 2.1.0 Build 116)  -->
  <defs>
    <style>
      .st0 {
        fill: #9b4e95;
      }
    </style>
  </defs>
  <path class="st0" d="M236.8,199.1c-9-2.6-11-5.9-7.9-14,2.6-6.6,6.4-13.8,8.7-20.7,7.8-21.7,9-45.9,3.7-68.3C226.1,28.2,152.4-12.2,86.9,10.2,36.6,26.3,2,76.8,5.2,129.6c3,81.4,88.3,135.8,163.4,105.8,7.6-2.6,16.7-8.3,22.4-6,2.6,1.2,4,4.6,5.3,9.7,1.2,4.6,2.5,10.4,5,15.7,5.7,12.4,18.7,20.6,32.2,21.2,30.3,1.4,49.3-31.1,34.3-57-7-12.3-18.8-16.6-30.9-19.7h0,0Z"/>
  <circle class="st0" cx="122" cy="123" r="120"/>
</svg>