<?xml version="1.0" encoding="UTF-8"?>
<svg id="unmuted" xmlns="http://www.w3.org/2000/svg" viewBox="0 0 321.38 321.38">
  <defs>
    <style>
      .cls-1 {
        fill: none;
        stroke: #fff;
        stroke-linecap: round;
        stroke-linejoin: round;
        stroke-width: 20px;
      }

      .cls-2 {
        fill: #fff;
        stroke-width: 0px;
      }
    </style>
  </defs>
  <path class="cls-1" d="m232.15,91.72c21.06,16.8,34.26,41.48,34.26,68.83s-13.4,52.22-34.67,69.11"/>
  <path class="cls-1" d="m210.08,118.89c13.3,9.91,21.67,24.87,21.67,41.67s-8.67,32.12-22.17,42.03"/>
  <path class="cls-2" d="m169.66,248.37h0c-2.03,0-3.99-.71-5.55-2l-54.89-45.5v-80.42l54.89-45.43c1.56-1.29,3.52-2,5.55-2h0c4.81,0,8.7,3.9,8.7,8.7v157.95c0,4.81-3.9,8.7-8.7,8.7h0Z"/>
  <path class="cls-2" d="m94.38,120.49h-26.11c-10.53,0-19.06,8.54-19.06,19.06v42.29c0,10.53,8.53,19.06,19.06,19.06h26.12v-80.41h-.01Z"/>
</svg>