<svg width="66" height="65" viewBox="0 0 66 65" fill="none" xmlns="http://www.w3.org/2000/svg">
<g filter="url(#filter0_d_2685_6944)">
<path d="M4 6.45869C4 2.89166 5.944 0 8.34205 0H57.658C60.056 0 62 2.89166 62 6.45869V50.5413C62 54.1083 60.056 57 57.658 57H8.34205C5.944 57 4 54.1083 4 50.5413V6.45869Z" fill="white"/>
<path fill-rule="evenodd" clip-rule="evenodd" d="M57.658 1.93761H8.34205C6.66342 1.93761 5.30261 3.96177 5.30261 6.45869V50.5413C5.30261 53.0382 6.66342 55.0624 8.34205 55.0624H57.658C59.3366 55.0624 60.6974 53.0382 60.6974 50.5413V6.45869C60.6974 3.96177 59.3366 1.93761 57.658 1.93761ZM8.34205 0C5.944 0 4 2.89166 4 6.45869V50.5413C4 54.1083 5.944 57 8.34205 57H57.658C60.056 57 62 54.1083 62 50.5413V6.45869C62 2.89166 60.056 0 57.658 0H8.34205Z" fill="#776C76" fill-opacity="0.52"/>
</g>
<path d="M33.0025 9C32.0541 9 31.2885 9.9155 31.2885 11.0496V31.7508L25.6436 25.0007C24.9751 24.2013 23.8896 24.2013 23.2211 25.0007C22.5526 25.8 22.5526 27.0981 23.2211 27.8975L31.7913 38.1456C32.1284 38.5487 32.5626 38.7468 33.0025 38.7468C33.4425 38.7468 33.8824 38.5487 34.2138 38.1456L42.784 27.8975C43.4525 27.0981 43.4525 25.8 42.784 25.0007C42.1155 24.2013 41.03 24.2013 40.3615 25.0007L34.7166 31.7508V11.0496C34.7166 9.9155 33.9453 9 33.0025 9Z" fill="#9D3F97"/>
<path d="M51.286 33.0129C50.3375 33.0129 49.5719 33.9284 49.5719 35.0626V42.4344C49.5719 43.7939 48.6463 44.9007 47.5094 44.9007H18.4906C17.3537 44.9007 16.4281 43.7939 16.4281 42.4344V35.0626C16.4281 33.9284 15.6625 33.0129 14.714 33.0129C13.7656 33.0129 13 33.9284 13 35.0626V42.4344C13 46.0553 15.4625 49 18.4906 49H47.5094C50.5375 49 53 46.0553 53 42.4344V35.0626C53 33.9353 52.2287 33.0129 51.286 33.0129Z" fill="#9D3F97"/>
<defs>
<filter id="filter0_d_2685_6944" x="0" y="0" width="66" height="65" filterUnits="userSpaceOnUse" color-interpolation-filters="sRGB">
<feFlood flood-opacity="0" result="BackgroundImageFix"/>
<feColorMatrix in="SourceAlpha" type="matrix" values="0 0 0 0 0 0 0 0 0 0 0 0 0 0 0 0 0 0 127 0" result="hardAlpha"/>
<feOffset dy="4"/>
<feGaussianBlur stdDeviation="2"/>
<feComposite in2="hardAlpha" operator="out"/>
<feColorMatrix type="matrix" values="0 0 0 0 0 0 0 0 0 0 0 0 0 0 0 0 0 0 0.27 0"/>
<feBlend mode="normal" in2="BackgroundImageFix" result="effect1_dropShadow_2685_6944"/>
<feBlend mode="normal" in="SourceGraphic" in2="effect1_dropShadow_2685_6944" result="shape"/>
</filter>
</defs>
</svg>
