<svg width="66" height="65" viewBox="0 0 66 65" fill="none" xmlns="http://www.w3.org/2000/svg">
<g filter="url(#filter0_d_3029_2947)">
<path d="M4 6.45869C4 2.89166 5.944 0 8.34205 0H57.658C60.056 0 62 2.89166 62 6.45869V50.5413C62 54.1083 60.056 57 57.658 57H8.34205C5.944 57 4 54.1083 4 50.5413V6.45869Z" fill="white"/>
<path fill-rule="evenodd" clip-rule="evenodd" d="M57.658 1.93761H8.34205C6.66342 1.93761 5.30261 3.96177 5.30261 6.45869V50.5413C5.30261 53.0382 6.66342 55.0624 8.34205 55.0624H57.658C59.3366 55.0624 60.6974 53.0382 60.6974 50.5413V6.45869C60.6974 3.96177 59.3366 1.93761 57.658 1.93761ZM8.34205 0C5.944 0 4 2.89166 4 6.45869V50.5413C4 54.1083 5.944 57 8.34205 57H57.658C60.056 57 62 54.1083 62 50.5413V6.45869C62 2.89166 60.056 0 57.658 0H8.34205Z" fill="#776C76" fill-opacity="0.52"/>
</g>
<path d="M27.3 29.95H29.2V26.15H31.1C31.6383 26.15 32.0896 25.9679 32.4537 25.6037C32.8179 25.2396 33 24.7883 33 24.25V22.35C33 21.8117 32.8179 21.3604 32.4537 20.9962C32.0896 20.6321 31.6383 20.45 31.1 20.45H27.3V29.95ZM29.2 24.25V22.35H31.1V24.25H29.2ZM34.9 29.95H38.7C39.2383 29.95 39.6896 29.7679 40.0537 29.4037C40.4179 29.0396 40.6 28.5883 40.6 28.05V22.35C40.6 21.8117 40.4179 21.3604 40.0537 20.9962C39.6896 20.6321 39.2383 20.45 38.7 20.45H34.9V29.95ZM36.8 28.05V22.35H38.7V28.05H36.8ZM42.5 29.95H44.4V26.15H46.3V24.25H44.4V22.35H46.3V20.45H42.5V29.95ZM25.4 40.4C24.355 40.4 23.4604 40.0279 22.7162 39.2837C21.9721 38.5396 21.6 37.645 21.6 36.6V13.8C21.6 12.755 21.9721 11.8604 22.7162 11.1162C23.4604 10.3721 24.355 10 25.4 10H48.2C49.245 10 50.1396 10.3721 50.8837 11.1162C51.6279 11.8604 52 12.755 52 13.8V36.6C52 37.645 51.6279 38.5396 50.8837 39.2837C50.1396 40.0279 49.245 40.4 48.2 40.4H25.4ZM25.4 36.6H48.2V13.8H25.4V36.6ZM17.8 48C16.755 48 15.8604 47.6279 15.1162 46.8837C14.3721 46.1396 14 45.245 14 44.2V17.6H17.8V44.2H44.4V48H17.8Z" fill="#9C3D96"/>
<defs>
<filter id="filter0_d_3029_2947" x="0" y="0" width="66" height="65" filterUnits="userSpaceOnUse" color-interpolation-filters="sRGB">
<feFlood flood-opacity="0" result="BackgroundImageFix"/>
<feColorMatrix in="SourceAlpha" type="matrix" values="0 0 0 0 0 0 0 0 0 0 0 0 0 0 0 0 0 0 127 0" result="hardAlpha"/>
<feOffset dy="4"/>
<feGaussianBlur stdDeviation="2"/>
<feComposite in2="hardAlpha" operator="out"/>
<feColorMatrix type="matrix" values="0 0 0 0 0 0 0 0 0 0 0 0 0 0 0 0 0 0 0.27 0"/>
<feBlend mode="normal" in2="BackgroundImageFix" result="effect1_dropShadow_3029_2947"/>
<feBlend mode="normal" in="SourceGraphic" in2="effect1_dropShadow_3029_2947" result="shape"/>
</filter>
</defs>
</svg>
