<svg width="66" height="65" viewBox="0 0 66 65" fill="none" xmlns="http://www.w3.org/2000/svg">
<g filter="url(#filter0_d_2835_1476)">
<path d="M4 6.45869C4 2.89166 5.944 0 8.34205 0H57.658C60.056 0 62 2.89166 62 6.45869V50.5413C62 54.1083 60.056 57 57.658 57H8.34205C5.944 57 4 54.1083 4 50.5413V6.45869Z" fill="white"/>
<path fill-rule="evenodd" clip-rule="evenodd" d="M57.658 1.93761H8.34205C6.66342 1.93761 5.30261 3.96177 5.30261 6.45869V50.5413C5.30261 53.0382 6.66342 55.0624 8.34205 55.0624H57.658C59.3366 55.0624 60.6974 53.0382 60.6974 50.5413V6.45869C60.6974 3.96177 59.3366 1.93761 57.658 1.93761ZM8.34205 0C5.944 0 4 2.89166 4 6.45869V50.5413C4 54.1083 5.944 57 8.34205 57H57.658C60.056 57 62 54.1083 62 50.5413V6.45869C62 2.89166 60.056 0 57.658 0H8.34205Z" fill="#776C76" fill-opacity="0.52"/>
</g>
<path d="M33 9C21.9722 9 13 17.9722 13 29C13 40.0278 21.9722 49 33 49C44.0278 49 53 40.0278 53 29C53 17.9722 44.0278 9 33 9ZM33 46.7778C23.2 46.7778 15.2222 38.8 15.2222 29C15.2222 19.2 23.2 11.2222 33 11.2222C42.8 11.2222 50.7778 19.2 50.7778 29C50.7778 38.8 42.8 46.7778 33 46.7778Z" fill="#9C3D96"/>
<path d="M40.1915 27.0151L31.6301 21.1809C30.8946 20.6798 29.9571 20.6291 29.1711 21.0458C28.3851 21.4625 27.9023 22.2735 27.9023 23.1632V34.8372C27.9023 35.727 28.3908 36.5379 29.1711 36.9546C29.5248 37.1405 29.9066 37.2362 30.2883 37.2362C30.7599 37.2362 31.2259 37.0954 31.6301 36.8195L40.1915 30.9797C40.8483 30.5348 41.2357 29.7914 41.2357 28.9974C41.2357 28.2034 40.8483 27.46 40.1915 27.0151ZM38.9283 29.1157L30.3669 34.9555C30.3501 34.9667 30.2995 35.0062 30.2209 34.9611C30.148 34.9217 30.148 34.8597 30.148 34.8372V23.1576C30.148 23.1351 30.148 23.0731 30.2209 23.0337C30.249 23.0224 30.2715 23.0168 30.2883 23.0168C30.3276 23.0168 30.3557 23.0337 30.3669 23.045L38.9283 28.8848C38.9452 28.896 38.9901 28.9298 38.9901 29.003C38.9901 29.0762 38.9452 29.1044 38.9283 29.1157Z" fill="#9C3D96"/>
<defs>
<filter id="filter0_d_2835_1476" x="0" y="0" width="66" height="65" filterUnits="userSpaceOnUse" color-interpolation-filters="sRGB">
<feFlood flood-opacity="0" result="BackgroundImageFix"/>
<feColorMatrix in="SourceAlpha" type="matrix" values="0 0 0 0 0 0 0 0 0 0 0 0 0 0 0 0 0 0 127 0" result="hardAlpha"/>
<feOffset dy="4"/>
<feGaussianBlur stdDeviation="2"/>
<feComposite in2="hardAlpha" operator="out"/>
<feColorMatrix type="matrix" values="0 0 0 0 0 0 0 0 0 0 0 0 0 0 0 0 0 0 0.27 0"/>
<feBlend mode="normal" in2="BackgroundImageFix" result="effect1_dropShadow_2835_1476"/>
<feBlend mode="normal" in="SourceGraphic" in2="effect1_dropShadow_2835_1476" result="shape"/>
</filter>
</defs>
</svg>
