<svg width="18" height="17" viewBox="0 0 18 17" fill="none" xmlns="http://www.w3.org/2000/svg">
<path d="M0 6.46102V10.461C0 11.011 0.45 11.461 1 11.461H4L7.29 14.751C7.92 15.381 9 14.931 9 14.041V2.87102C9 1.98102 7.92 1.53102 7.29 2.16102L4 5.46102H1C0.45 5.46102 0 5.91102 0 6.46102ZM13.5 8.46102C13.5 6.69102 12.48 5.17102 11 4.43102V12.481C12.48 11.751 13.5 10.231 13.5 8.46102ZM11 0.911022V1.11102C11 1.49102 11.25 1.82102 11.6 1.96102C14.18 2.99102 16 5.52102 16 8.46102C16 11.401 14.18 13.931 11.6 14.961C11.24 15.101 11 15.431 11 15.811V16.011C11 16.641 11.63 17.081 12.21 16.861C15.6 15.571 18 12.301 18 8.46102C18 4.62102 15.6 1.35102 12.21 0.0610225C11.63 -0.168978 11 0.281022 11 0.911022Z" fill="white"/>
</svg>
