<?xml version="1.0" encoding="UTF-8"?>
<svg id="Layer_6" data-name="Layer 6" xmlns="http://www.w3.org/2000/svg" viewBox="0 0 185.45 186.67">
  <defs>
    <style>
      .cls-1 {
        fill: #fff;
        fill-rule: evenodd;
        stroke-width: 0px;
      }
    </style>
  </defs>
  <path class="cls-1" d="m117.58,161.83h25.55v7.5h-25.55v-7.5h0Zm-91.39-14.71v39.54h132.62v-39.54l-34.45-17.53-19.36,24.17-4.84-14.46,3.91-4.76-4.3-5.53h-9.83l-4.31,5.53,3.91,4.76-5.19,15.53-20.26-25.5-37.91,17.8Z"/>
  <path class="cls-1" d="m98.3,76.3l2.72,2.04c5.87-1.28,15.75-5.44,18.57-11.7,1.7-.34,3.39-.61,5.07-.81-1.04,16.54-5.22,32.6-16.79,45.28-4.55.55-9.08.84-13.65.84s-9.08-.29-13.63-.84c-9.92-10.98-13.82-26.94-14.91-41.26,13.05,6.75,25.75,4.16,38.42.75-1.8,2.04-3.67,3.98-5.79,5.7h0Zm-47.8-40.37l-.17,28.47c1.46-.04,3.4-.07,5.69-.1l.45,6.13c1.31,17.14,6.11,35.39,18.54,48.09l1.11,1.12,1.58.22c5.61.76,11.09,1.15,16.52,1.15s10.93-.39,16.52-1.15l1.59-.22,1.11-1.12c15.23-15.57,18.84-34.34,20.27-54.25,2.27.04,4.15.08,5.53.13.06-13.32.11-15.15.17-28.47H50.49Zm-17.53-17.66v11.9h115.68v23.04c-1.93.95-3.26,2.9-3.26,5.15,0,1.63.7,3.11,1.81,4.15l-2.94,19.43h2.23l2.27-7.2,1.41,7.2h8.34l-3.22-19.38c1.13-1.05,1.85-2.54,1.85-4.19,0-2.28-1.36-4.25-3.32-5.18V18.28L93.44,0l-60.48,18.28Z"/>
</svg>