<?xml version="1.0" encoding="utf-8"?>
<!-- Generator: Adobe Illustrator 26.5.1, SVG Export Plug-In . SVG Version: 6.00 Build 0)  -->
<svg version="1.1" xmlns="http://www.w3.org/2000/svg" xmlns:xlink="http://www.w3.org/1999/xlink" x="0px" y="0px"
	 viewBox="0 0 185.34 185.34" style="enable-background:new 0 0 185.34 185.34;" xml:space="preserve">
<style type="text/css">
	.st0{display:none;}
	.st1{display:inline;}
	.st2{fill:#FFFFFF;}
	.st3{display:none;fill:#FFFFFF;}
</style>
<g id="Layer_2" class="st0">
	<rect x="0.45" y="0.34" class="st1" width="185" height="185"/>
</g>
<g id="Layer_3">
	<g>
		<g>
			<path class="st2" d="M74.58,73.27c1.47-0.82,5.69-3.56,5.03-8.03c-0.41-2.78-1.76-4.42-4.11-5.29c-2.05-0.76-8.19-0.61-8.19-0.61
				l-0.03,31.09h18.54c-3.01-3.36-14.11-15.74-14.01-15.94C71.92,74.28,73.55,73.84,74.58,73.27z M57.45,90.42h5.46V56.27h-5.46
				V90.42z M75.05,56.27c2.94,0.39,6.99,2.39,8.3,5.62c1.51,3.75,0.26,7.27-0.84,8.74c-2.32,3.11-4.88,4.2-5,4.53
				c-0.11,0.31,1.56,2.06,1.84,2.38c0.35,0.39,10.51,11.22,10.51,11.22l-2.08,1.57l-0.11,0.08h3.78V56.27H75.05z"/>
		</g>
	</g>
	<g>
		<g>
			<path class="st2" d="M94.43,56.27v26.52c2.53-1.12,5.12-1.58,7.17-1.82c5.16-0.61,9.8,1.15,10.14,0.92
				c0.32-0.21,1.35-3.7,4.95-6.37c1.6-1.18,4.89-3.7,11.73-4.65V56.27H94.43z M120.02,69.56c-0.45,0.24-2.19,0.97-2.61,0.68
				c-0.46-0.31-0.79-1.9-0.87-2.13c-0.08-0.24-0.05-0.63,0.08-0.84c0.11-0.18,0.76-1.24,1.16-1.32c0.16-0.03,0.26,1.9,0.76,2.13
				c0.13,0.06,0.5,0.13,0.63-0.05c0.13-0.18-0.71-3.15-1.13-3.24c-0.5-0.11-13.62,6.06-14.75,6.01c-0.5-0.02-1.67-2.16-2.95-2.41
				c-0.76-0.15-1.61,0.01-1.82,0.22c-0.13,0.13,0.13,2.05,0.45,3.11c0.32,1.07,1.29,2.68,2.79,3.32c0.74,0.32,1.73,0,2.05-0.26
				c0.29-0.24,0.21-1.01,0.21-1.09c0-0.08,0.42-0.65,0.55-0.84c0.13-0.19,0.64-0.88,0.8-0.88c0.08,0-0.37,2.5-1.82,4.1
				c-0.3,0.33-1.04,1.42-2.67,1.13c-1.79-0.32-3.37-2.42-3.54-5.14c-0.16-2.56,1.4-4.64,2.08-5.24c0.31-0.27,0.78-0.75,1.95-0.66
				c1.28,0.11,2.5,1.62,2.91,2.29c0.14,0.24,0.2,0.26,0.59,0.14c0.22-0.07,2.98-1.11,5.98-2.4c3.71-1.59,7.79-3.48,7.99-3.56
				c0.42-0.16,0.59-0.05,0.67,0.2c0.47,1.48,1.74,4.29,1.71,4.79C121.19,68.32,120.47,69.32,120.02,69.56z M115.84,83.46
				c-0.52,0.94-1.92,1.4-3.95,0.78c-0.95-0.29-3.06-1.64-7.66-0.98c-1.01,0.14-4.03,0.34-9.8,4.4v2.77h34V72.71
				c-2.37,0.34-5.11,1.7-7.07,3.14C116.72,79.28,116.19,82.83,115.84,83.46z"/>
		</g>
	</g>
	<g>
		<g>
			<path class="st2" d="M58.68,111.26c0.13-6.81,2.86-10.18,5.41-12.37c4.11-3.52,9.55-4.91,11.5-5.33
				c0.28-0.06,0.67-0.12,1.14-0.18H57.45v34.16h16.11c-2.59-0.62-5.67-1.47-8.87-3.95C61.18,120.88,58.6,115.28,58.68,111.26z
				 M85.1,93.38c0.1,1.01,0.29,2.95,0.25,3.18c-0.05,0.32-7.94-0.55-13.63,2.09c-3.27,1.52-8.5,5.02-8.55,11.87
				c-0.04,5.68,2.22,10.11,10.09,12.99c3.67,1.34,9.35,1.34,9.35,1.34V110.1h4.32c0,0,0,12.98,0,17.44h4.51V93.38H85.1z"/>
		</g>
	</g>
	<g>
		<g>
			<path class="st2" d="M94.43,127.52h5.46V93.37h-5.46V127.52z M111.56,110.37c1.47-0.82,5.69-3.56,5.03-8.03
				c-0.41-2.78-1.76-4.43-4.11-5.29c-2.05-0.76-8.19-0.61-8.19-0.61l-0.03,31.09h18.54c-3.01-3.36-14.11-15.74-14.01-15.94
				C108.9,111.38,110.53,110.94,111.56,110.37z M112.03,93.37c2.94,0.39,6.99,2.39,8.3,5.62c1.51,3.75,0.26,7.27-0.84,8.75
				c-2.32,3.11-4.88,4.2-5,4.53c-0.11,0.31,1.56,2.06,1.84,2.38c0.35,0.39,10.51,11.22,10.51,11.22l-2.08,1.57l-0.11,0.08h3.78
				V93.37H112.03z"/>
		</g>
	</g>
</g>
<g id="Layer_1">
	<g>
		<path class="st2" d="M183.76,75.76c-0.7-3.71-3.94-6.26-7.57-6.26h-13.9c-1.12-3.32-2.43-6.53-4.02-9.65l9.85-9.88
			c0.04,0,0.04,0,0.04-0.04c2.55-2.59,3.01-6.68,0.85-9.81c-6.45-9.34-14.44-17.34-23.79-23.79c-3.13-2.16-7.22-1.7-9.81,0.85
			c-0.04,0-0.04,0-0.04,0.04l-9.88,9.85c-3.13-1.58-6.33-2.9-9.65-4.02V9.15c0-3.78-2.7-6.91-6.29-7.57C104.14,0.54,98.42,0,92.67,0
			C86.92,0,81.2,0.54,75.8,1.58c-3.59,0.66-6.29,3.78-6.29,7.57v13.9c-3.32,1.12-6.53,2.43-9.65,4.02l-9.88-9.85
			c0-0.04,0-0.04-0.04-0.04c-2.59-2.55-6.68-3.01-9.81-0.85c-9.34,6.45-17.34,14.44-23.79,23.79c-2.16,3.13-1.7,7.22,0.85,9.81
			c0,0.04,0,0.04,0.04,0.04l9.85,9.88c-1.58,3.13-2.9,6.33-4.02,9.65H9.15c-3.63,0-6.87,2.55-7.57,6.26C0.54,81.16,0,86.88,0,92.67
			c0,5.79,0.54,11.51,1.58,16.91c0.69,3.67,3.94,6.26,7.57,6.26h13.9c1.12,3.32,2.43,6.53,4.02,9.65l-9.85,9.88
			c-1.47,1.47-2.28,3.44-2.28,5.48c0,1.51,0.46,3.01,1.39,4.36c6.45,9.34,14.44,17.34,23.79,23.79c1.35,0.93,2.9,1.39,4.4,1.39
			c2.01,0,3.94-0.81,5.44-2.32c0,0.04,0,0.04,0,0.04l9.88-9.85c3.13,1.58,6.33,2.9,9.65,4.02v13.9c0,3.63,2.55,6.87,6.26,7.57
			c5.41,1.04,11.12,1.58,16.91,1.58c5.79,0,11.51-0.54,16.91-1.58c3.71-0.7,6.26-3.94,6.26-7.57v-13.9
			c3.32-1.12,6.53-2.43,9.65-4.02l9.88,9.85c0,0,0,0,0-0.04c1.51,1.51,3.44,2.32,5.44,2.32c1.51,0,3.05-0.46,4.4-1.39
			c9.34-6.45,17.34-14.44,23.79-23.79c0.93-1.35,1.39-2.86,1.39-4.36c0-2.05-0.81-4.02-2.28-5.48l-9.85-9.88
			c1.58-3.13,2.9-6.33,4.02-9.65h13.9c3.63,0,6.87-2.59,7.57-6.26c1.04-5.41,1.58-11.12,1.58-16.91
			C185.34,86.88,184.8,81.16,183.76,75.76z M169.47,100.39H156.5c-3.63,0-6.68,2.51-7.49,5.91c-1.43,5.83-3.75,11.35-6.87,16.49
			c-1.81,3.01-1.47,6.95,1.12,9.5l9.19,9.23c-3.28,4.02-6.91,7.65-10.93,10.93l-9.23-9.19c-1.51-1.51-3.44-2.24-5.41-2.24
			c-1.43,0-2.86,0.35-4.09,1.12c-5.14,3.13-10.7,5.44-16.49,6.87c-3.4,0.81-5.91,3.86-5.91,7.49v12.97
			c-2.55,0.27-5.14,0.39-7.72,0.39c-2.59,0-5.17-0.12-7.72-0.39V156.5c0-3.63-2.51-6.68-5.91-7.49c-5.79-1.43-11.35-3.75-16.49-6.87
			c-1.24-0.77-2.66-1.12-4.09-1.12c-1.97,0-3.9,0.73-5.41,2.24l-9.23,9.19c-4.02-3.28-7.65-6.91-10.93-10.93l9.19-9.23
			c2.59-2.55,2.93-6.49,1.12-9.5c-3.13-5.14-5.44-10.66-6.87-16.49c-0.81-3.4-3.86-5.91-7.49-5.91H15.87
			c-0.27-2.51-0.42-5.1-0.42-7.72c0-2.63,0.15-5.21,0.42-7.72h12.97c3.63,0,6.68-2.51,7.49-5.91c1.43-5.83,3.75-11.35,6.87-16.49
			c0.77-1.24,1.12-2.66,1.12-4.09c0-1.97-0.73-3.9-2.24-5.41l-9.19-9.23c3.28-4.02,6.91-7.65,10.93-10.93l9.23,9.19
			c1.51,1.51,3.48,2.28,5.44,2.28c1.39,0,2.82-0.39,4.05-1.16c5.14-3.13,10.7-5.44,16.49-6.87c3.4-0.81,5.91-3.86,5.91-7.49V15.87
			c2.55-0.27,5.14-0.39,7.72-0.39c2.59,0,5.17,0.12,7.72,0.39v12.97c0,3.63,2.51,6.68,5.91,7.49c5.79,1.43,11.35,3.75,16.49,6.87
			c1.24,0.77,2.66,1.16,4.05,1.16c1.97,0,3.94-0.77,5.44-2.28l9.23-9.19c4.02,3.28,7.65,6.91,10.93,10.93l-9.19,9.23
			c-1.51,1.51-2.24,3.44-2.24,5.41c0,1.43,0.35,2.86,1.12,4.09c3.13,5.14,5.44,10.66,6.87,16.49c0.81,3.4,3.86,5.91,7.49,5.91h12.97
			c0.27,2.51,0.42,5.1,0.42,7.72C169.9,95.3,169.74,97.88,169.47,100.39z"/>
		<path class="st3" d="M92.67,54.06c-21.28,0-38.61,17.34-38.61,38.61c0,21.28,17.34,38.61,38.61,38.61
			c21.28,0,38.61-17.34,38.61-38.61C131.28,71.4,113.95,54.06,92.67,54.06z M92.67,115.84c-12.78,0-23.17-10.39-23.17-23.17
			c0-12.78,10.39-23.17,23.17-23.17c12.78,0,23.17,10.39,23.17,23.17C115.84,105.45,105.45,115.84,92.67,115.84z"/>
	</g>
</g>
</svg>
