<?xml version="1.0" encoding="UTF-8"?>
<svg id="Layer_5" data-name="Layer 5" xmlns="http://www.w3.org/2000/svg" viewBox="0 0 185.45 186.67">
  <defs>
    <style>
      .cls-1 {
        fill: #fff;
        fill-rule: evenodd;
        stroke-width: 0px;
      }
    </style>
  </defs>
  <path class="cls-1" d="m90.33,156.51l7.37-26h-62.99v-9.7h65.72l1.74-6.15h6.01c2.54-9.57,2.28-19.44-.61-28.08-1.41-4.19-3.44-8.1-6.08-11.51-2.26.79-4.7,1.22-7.23,1.22-1.51,0-2.98-.15-4.4-.44l-7.08,14.97-7.63-3.61-4.29,9.08,8.07,3.81-3.82,8.07-29.96-14.17,3.82-8.07,7.2,3.41,4.29-9.08-7.63-3.61L89.06,0l29.97,14.17-10.93,23.11c.58.47,1.15.98,1.68,1.52,3.97,3.97,6.43,9.46,6.43,15.53,0,3.21-.69,6.26-1.93,9.01,4.28,5.23,7.52,11.25,9.69,17.76,3.5,10.44,4.19,22.12,1.94,33.57h20.69v41.85h-56.28Zm11.27-109.53c-1.88-1.88-4.48-3.04-7.34-3.04s-5.47,1.16-7.35,3.04c-1.89,1.88-3.05,4.48-3.05,7.35s1.16,5.47,3.05,7.35c1.88,1.88,4.48,3.04,7.35,3.04s5.46-1.16,7.34-3.04c1.88-1.88,3.05-4.48,3.05-7.35s-1.17-5.47-3.05-7.35Z"/>
  <polygon class="cls-1" points="39.83 163.69 96.05 163.69 157.46 163.69 157.46 175.18 157.46 186.66 27.54 186.66 39.83 163.69"/>
  <path class="cls-1" d="m94.02,31.52c6.3,0,12.02,2.56,16.15,6.69,4.13,4.13,6.69,9.85,6.69,16.15s-2.55,12.02-6.69,16.15c-4.13,4.13-9.85,6.69-16.15,6.69s-12.02-2.56-16.15-6.69c-4.13-4.13-6.69-9.85-6.69-16.15s2.55-12.02,6.69-16.15c4.13-4.13,9.85-6.69,16.15-6.69h0Zm6.84,16.01c-1.76-1.75-4.17-2.83-6.84-2.83s-5.09,1.08-6.84,2.83c-1.74,1.75-2.83,4.16-2.83,6.84s1.09,5.09,2.83,6.84c1.76,1.74,4.17,2.83,6.84,2.83s5.08-1.09,6.84-2.83c1.74-1.75,2.83-4.17,2.83-6.84s-1.08-5.09-2.83-6.84Z"/>
</svg>