<?xml version="1.0" encoding="UTF-8"?>
<svg id="Layer_4" data-name="Layer 4" xmlns="http://www.w3.org/2000/svg" viewBox="0 0 185.45 186.67">
  <defs>
    <style>
      .cls-1 {
        fill: #fff;
        fill-rule: evenodd;
        stroke-width: 0px;
      }
    </style>
  </defs>
  <path class="cls-1" d="m33.42,69.79l12.83-7.41,4.13,7.15-12.83,7.41-4.12-7.15h0Zm17.21-9.94l12.83-7.41,4.12,7.15-12.83,7.41-4.13-7.15h0Zm16.74-9.66l4.13,7.14,12.83-7.41-4.12-7.14-12.83,7.41h0Zm-26.68,32.21l4.12,7.14,12.83-7.41-4.13-7.14-12.83,7.41h0Zm17.21-9.94l4.12,7.14,12.83-7.4-4.12-7.15-12.83,7.41h0Zm16.74-9.67l12.83-7.41,4.12,7.15-12.83,7.41-4.13-7.15h0Zm-26.27,32.91l12.83-7.41,4.12,7.15-12.83,7.41-4.12-7.15h0Zm17.21-9.94l12.83-7.41,4.12,7.15-12.83,7.41-4.13-7.15h0Zm16.74-9.67l4.13,7.15,12.83-7.41-4.13-7.14-12.83,7.4h0Zm-59.78-27.23l17.75-10.25,5.71,9.89-17.75,10.25-5.7-9.88h0Zm1.7-26.85c.05-.3.12-.6.18-.9,1.02-4.36,3.73-7.7,7.2-9.64,3.46-1.94,7.69-2.48,11.74-1.27.22.06.5.16.85.29l-.99,4.24c-.13-.04-.34-.11-.61-.19-2.98-.9-6.12-.48-8.7.97-2.58,1.44-4.59,3.9-5.33,7.09-.05.21-.09.44-.13.67l-4.2-1.26h0Zm-8.54-3.18l4.2,1.25c.06-.38.14-.75.23-1.11,1.25-5.37,4.63-9.51,8.95-11.93,4.33-2.43,9.6-3.13,14.61-1.63.41.13.76.24,1.03.34l1-4.25c-.49-.17-.91-.32-1.27-.43-6.08-1.82-12.44-.99-17.65,1.93-5.21,2.92-9.3,7.94-10.82,14.47-.11.45-.2.91-.28,1.36h0Zm-3.91,28.25c21.78,37.72,43.56,75.44,65.34,113.16l14.55-8.4-30.55-43.95,21.45-17.65,29.81,20.44,5.94-4.1-.49-12.21L70.88,12.98c-22.8,2.51-42.98,12.5-59.07,34.1Z"/>
  <polygon class="cls-1" points="72.11 109.42 103.86 155.09 125.11 164.88 137.69 186.66 173.19 166.17 160.59 140.63 143.51 92.4 110.01 62.79 125.85 90.22 126.66 110.73 112.43 120.56 83.05 100.41 72.11 109.42"/>
</svg>