<?xml version="1.0" encoding="utf-8"?>
<!-- Generator: Adobe Illustrator 24.1.1, SVG Export Plug-In . SVG Version: 6.00 Build 0)  -->
<svg version="1.1" id="Layer_1" xmlns="http://www.w3.org/2000/svg" xmlns:xlink="http://www.w3.org/1999/xlink" x="0px" y="0px"
	 viewBox="0 0 321.37 321.37" style="enable-background:new 0 0 321.37 321.37;" xml:space="preserve">
<style type="text/css">
	.st0{fill:none;stroke:#444444;stroke-width:25;stroke-linejoin:round;stroke-miterlimit:10;}
	.st1{fill:#444444;}
</style>
<g id="Last">
	<g>
		<circle class="st0" cx="160.69" cy="160.69" r="148.19"/>
		<path class="st1" d="M256.38,172.15L155.8,231.48c-8.75,5.16-19.68-1.29-19.68-11.61V101.21c0-10.32,10.94-16.77,19.68-11.61
			l100.59,59.33C265.13,154.09,265.13,166.99,256.38,172.15z"/>
		<path class="st1" d="M98.81,87.79H83.78c-6.68,0-12.1,5.42-12.1,12.1v121.6c0,6.68,5.42,12.1,12.1,12.1h15.03
			c6.68,0,12.1-5.42,12.1-12.1V99.89C110.91,93.2,105.49,87.79,98.81,87.79z"/>
	</g>
</g>
</svg>
