<?xml version="1.0" encoding="utf-8"?>
<!-- Generator: Adobe Illustrator 24.1.1, SVG Export Plug-In . SVG Version: 6.00 Build 0)  -->
<svg version="1.1" id="Layer_1" xmlns="http://www.w3.org/2000/svg" xmlns:xlink="http://www.w3.org/1999/xlink" x="0px" y="0px"
	 viewBox="0 0 321.37 321.37" style="enable-background:new 0 0 321.37 321.37;" xml:space="preserve">
<style type="text/css">
	.st0{fill:none;stroke:#444444;stroke-width:25;stroke-linejoin:round;stroke-miterlimit:10;}
	.st1{fill:#444444;}
</style>
<g id="Pause">
	<g>
		<circle class="st0" cx="160.69" cy="160.69" r="148.19"/>
		<g>
			<path class="st1" d="M129.05,87.79h-26.86c-7.95,0-14.4,6.45-14.4,14.4V219.2c0,7.95,6.45,14.4,14.4,14.4h26.86
				c7.95,0,14.4-6.44,14.4-14.4V102.18C143.44,94.23,137,87.79,129.05,87.79z"/>
			<path class="st1" d="M219.19,87.79h-26.86c-7.95,0-14.4,6.45-14.4,14.4V219.2c0,7.95,6.45,14.4,14.4,14.4h26.86
				c7.95,0,14.4-6.44,14.4-14.4V102.18C233.59,94.23,227.14,87.79,219.19,87.79z"/>
		</g>
	</g>
</g>
</svg>
