<?xml version="1.0" encoding="UTF-8"?>
<svg id="Layer_1" xmlns="http://www.w3.org/2000/svg" version="1.1" viewBox="0 0 21 21">
  <!-- Generator: Adobe Illustrator 29.2.1, SVG Export Plug-In . SVG Version: 2.1.0 Build 116)  -->
  <defs>
    <style>
      .st0 {
        fill: #9b4e95;
      }
    </style>
  </defs>
  <path class="st0" d="M15.1,15.8h4.2v1.8h-5.9l1.8-1.8ZM4.2,17.5l-1.9-1.9c-.3-.3-.5-.8-.5-1.2,0-.5.2-.9.5-1.3L11.9,3.2c.3-.4.7-.5,1.2-.5s.9.2,1.2.5l4.4,4.4c.3.3.5.8.5,1.2s-.2.9-.5,1.2l-7.3,7.5h-7.2ZM10.6,15.8l6.9-7-4.3-4.3L3.5,14.4l1.4,1.4h5.7Z"/>
</svg>