<?xml version="1.0" encoding="UTF-8"?>
<svg id="Layer_1" xmlns="http://www.w3.org/2000/svg" version="1.1" viewBox="0 0 20 28">
  <!-- Generator: Adobe Illustrator 29.2.1, SVG Export Plug-In . SVG Version: 2.1.0 Build 116)  -->
  <defs>
    <style>
      .st0 {
        fill: #f31b1b;
      }

      .st1 {
        fill: #9b4e95;
      }
    </style>
  </defs>
  <path class="st1" d="M1.4,19c-.5-.8-.8-1.6-1-2.5-.2-.8-.3-1.7-.3-2.6,0-2.8,1-5.2,2.9-7.2s4.3-3,7.1-3h.2l-2-2,1.8-1.8,5,5.1-5,5.1-1.8-1.8,2-2h-.2c-2.1,0-3.9.7-5.3,2.2-1.5,1.5-2.2,3.3-2.2,5.4s0,1.1.2,1.6c.1.5.3,1,.6,1.5l-1.9,1.9ZM10,27.8l-5-5.1,5-5.1,1.8,1.8-2,2h.2c2.1,0,3.9-.7,5.3-2.2,1.5-1.5,2.2-3.3,2.2-5.4s0-1.1-.2-1.6-.3-1-.6-1.5l1.9-1.9c.5.8.8,1.6,1,2.5.2.8.3,1.7.3,2.6,0,2.8-1,5.2-2.9,7.2s-4.3,3-7.1,3h-.2l2,2-1.8,1.8Z"/>
  <path d="M5.3,16.5h-1.9l2.8-8.3h2.2l2.8,8.3h-1.9l-2.1-6.4h0l-2.1,6.4ZM5.2,13.2h4.4v1.4h-4.4v-1.4Z"/>
  <path class="st0" d="M13,20.4h-.6l1.7-4.5h.6l1.7,4.5h-.6l-1.3-3.8h0l-1.3,3.8ZM13.2,18.7h2.3v.5h-2.3v-.5Z"/>
</svg>