<?xml version="1.0" encoding="UTF-8"?>
<svg id="Layer_1" xmlns="http://www.w3.org/2000/svg" version="1.1" viewBox="0 0 20 28">
  <!-- Generator: Adobe Illustrator 29.2.1, SVG Export Plug-In . SVG Version: 2.1.0 Build 116)  -->
  <defs>
    <style>
      .st0 {
        fill: #f31b1b;
      }

      .st1 {
        fill: #ae63a8;
      }
    </style>
  </defs>
  <path class="st1" d="M1.4,19.2c-.5-.8-.8-1.6-1-2.5-.2-.8-.3-1.7-.3-2.6,0-2.8,1-5.2,2.9-7.2,1.9-2,4.3-3,7.1-3h.2l-2-2,1.8-1.8,5,5.1-5,5.1-1.8-1.8,2-2h-.2c-2.1,0-3.9.7-5.3,2.2-1.5,1.5-2.2,3.3-2.2,5.4s0,1.1.2,1.6.3,1,.6,1.5l-1.9,1.9ZM10,28l-5-5.1,5-5.1,1.8,1.8-2,2h.2c2.1,0,3.9-.7,5.3-2.2,1.5-1.5,2.2-3.3,2.2-5.4s0-1.1-.2-1.6c-.1-.5-.3-1-.6-1.5l1.9-1.9c.5.8.8,1.6,1,2.5.2.8.3,1.7.3,2.6,0,2.8-1,5.2-2.9,7.2s-4.3,3-7.1,3h-.2l2,2-1.8,1.8Z"/>
  <path class="st0" d="M5.1,15.7h-1.7l2.6-7.5h2l2.6,7.5h-1.7l-1.9-5.8h0l-1.9,5.8ZM5,12.7h4v1.2h-4v-1.2Z"/>
  <path d="M12.9,20.7h-.5l1.5-4.1h.5l1.5,4.1h-.5l-1.2-3.5h0l-1.2,3.5ZM13.1,19.1h2.1v.4h-2.1v-.4Z"/>
</svg>