<?xml version="1.0" encoding="UTF-8"?>
<svg id="Layer_1" xmlns="http://www.w3.org/2000/svg" version="1.1" viewBox="0 0 52 68.4">
  <!-- Generator: Adobe Illustrator 29.7.1, SVG Export Plug-In . SVG Version: 2.1.1 Build 8)  -->
  <defs>
    <style>
      .st0 {
        fill: #f58020;
      }

      .st1 {
        display: none;
      }

      .st2 {
        fill: #010101;
      }

      .st3 {
        fill: #005a53;
      }
    </style>
  </defs>
  <g class="st1">
    <g>
      <g>
        <path class="st2" d="M2.7,68.4V17.9h46.5v50.5H2.7ZM3.2,18.4v49.5h45.5V18.4H3.2Z"/>
        <rect class="st2" x="11.9" y="18.1" width=".5" height="50"/>
        <rect class="st2" x="21.2" y="18.1" width=".5" height="50"/>
        <rect class="st2" x="30.4" y="18.1" width=".5" height="50"/>
        <rect class="st2" x="39.5" y="18.1" width=".5" height="50"/>
        <rect class="st2" x="3" y="30.4" width="46" height=".5"/>
        <rect class="st2" x="3" y="17.9" width="46" height=".5"/>
        <rect class="st2" x="3" y="42.9" width="46" height=".5"/>
        <rect class="st2" x="3" y="55.4" width="46" height=".5"/>
        <rect class="st2" x="3" y="67.9" width="46" height=".5"/>
      </g>
      <g>
        <circle class="st0" cx="3" cy="24.4" r="3"/>
        <circle class="st0" cx="12.2" cy="49.4" r="3"/>
        <circle class="st0" cx="21.4" cy="49.4" r="3"/>
        <circle class="st0" cx="30.6" cy="36.9" r="3"/>
        <circle class="st0" cx="39.8" cy="24.4" r="3"/>
        <circle class="st0" cx="49" cy="24.4" r="3"/>
      </g>
    </g>
    <g>
      <g>
        <path class="st3" d="M12.6,8.2v-3.5c0-.9.8-1.7,1.7-1.7h1.9c.9,0,1.7.8,1.7,1.7v3.5c0,.9-.8,1.7-1.7,1.7h-1.9c-.9,0-1.7-.8-1.7-1.7ZM16.8,4.7c0-.4-.3-.7-.7-.7h-1.9c-.4,0-.7.3-.7.7v3.5c0,.4.3.7.7.7h1.9c.4,0,.7-.3.7-.7v-3.5Z"/>
        <path class="st3" d="M12.6,9.4V.5C12.6.2,12.8,0,13.1,0s.5.2.5.5v8.9c0,.3-.2.5-.5.5s-.5-.2-.5-.5Z"/>
      </g>
      <g>
        <path class="st3" d="M2.5,9.4c0,0,0-.1,0-.2L5.9.3C6,.1,6.1,0,6.4,0s.4.1.5.3l3.4,8.9c.1.3,0,.5-.3.6-.3,0-.5,0-.6-.3L6.4,1.9l-2.9,7.6c0,.3-.4.4-.6.3-.2,0-.3-.3-.3-.5Z"/>
        <path class="st3" d="M3.6,6.5c0-.3.2-.5.5-.5h4.6c.3,0,.5.2.5.5s-.2.5-.5.5h-4.6c-.3,0-.5-.2-.5-.5Z"/>
      </g>
    </g>
  </g>
  <g class="st1">
    <g>
      <g>
        <path class="st2" d="M1.5,68.4V17.9h46.5v50.5H1.5ZM2,18.4v49.5h45.5V18.4H2Z"/>
        <rect class="st2" x="10.7" y="18.1" width=".5" height="50"/>
        <rect class="st2" x="19.9" y="18.1" width=".5" height="50"/>
        <rect class="st2" x="29.1" y="18.1" width=".5" height="50"/>
        <rect class="st2" x="38.3" y="18.1" width=".5" height="50"/>
        <rect class="st2" x="1.8" y="30.4" width="46" height=".5"/>
        <rect class="st2" x="1.8" y="17.9" width="46" height=".5"/>
        <rect class="st2" x="1.8" y="42.9" width="46" height=".5"/>
        <rect class="st2" x="1.8" y="55.4" width="46" height=".5"/>
        <rect class="st2" x="1.8" y="67.9" width="46" height=".5"/>
      </g>
      <g>
        <circle class="st0" cx="20.2" cy="49.4" r="3"/>
        <circle class="st0" cx="11" cy="24.4" r="3"/>
        <circle class="st0" cx="29.4" cy="49.4" r="3"/>
        <circle class="st0" cx="38.6" cy="49.4" r="3"/>
        <circle class="st0" cx="47.8" cy="24.4" r="3"/>
      </g>
    </g>
    <g>
      <g>
        <path class="st3" d="M1.2,9.4c0-.3.2-.5.5-.5h4.7c.4,0,.7-.3.7-.7v-2.1c0-.4-.3-.7-.7-.7H1.7c-.3,0-.5-.2-.5-.5s.2-.5.5-.5h4.7c.9,0,1.7.8,1.7,1.7v2.1c0,.9-.8,1.7-1.7,1.7H1.7c-.3,0-.5-.2-.5-.5Z"/>
        <path class="st3" d="M1.2,4.9c0-.3.2-.5.5-.5h4.7c.4,0,.7-.3.7-.7V1.7c0-.4-.3-.7-.7-.7H1.7c-.3,0-.5-.2-.5-.5S1.5,0,1.7,0h4.7C7.4,0,8.1.8,8.1,1.7v2.1c0,.9-.8,1.7-1.7,1.7H1.7c-.3,0-.5-.2-.5-.5Z"/>
        <path class="st3" d="M1.2,9.4V.5C1.2.2,1.5,0,1.7,0s.5.2.5.5v8.9c0,.3-.2.5-.5.5s-.5-.2-.5-.5Z"/>
      </g>
      <g>
        <path class="st3" d="M10.9,8.2v-3.5c0-.9.8-1.7,1.7-1.7h1.9c.9,0,1.7.8,1.7,1.7v3.5c0,.9-.8,1.7-1.7,1.7h-1.9c-.9,0-1.7-.8-1.7-1.7ZM15.1,4.7c0-.4-.3-.7-.7-.7h-1.9c-.4,0-.7.3-.7.7v3.5c0,.4.3.7.7.7h1.9c.4,0,.7-.3.7-.7v-3.5Z"/>
        <path class="st3" d="M10.9,9.4V.5C10.9.2,11.1,0,11.4,0s.5.2.5.5v8.9c0,.3-.2.5-.5.5s-.5-.2-.5-.5Z"/>
      </g>
    </g>
  </g>
  <g class="st1">
    <g>
      <g>
        <path class="st2" d="M1.5,68.4V17.9h46.5v50.5H1.5ZM2,18.4v49.5h45.5V18.4H2Z"/>
        <rect class="st2" x="10.7" y="18.1" width=".5" height="50"/>
        <rect class="st2" x="19.9" y="18.1" width=".5" height="50"/>
        <rect class="st2" x="29.1" y="18.1" width=".5" height="50"/>
        <rect class="st2" x="38.3" y="18.1" width=".5" height="50"/>
        <rect class="st2" x="1.8" y="30.4" width="46" height=".5"/>
        <rect class="st2" x="1.8" y="17.9" width="46" height=".5"/>
        <rect class="st2" x="1.8" y="42.9" width="46" height=".5"/>
        <rect class="st2" x="1.8" y="55.4" width="46" height=".5"/>
        <rect class="st2" x="1.8" y="67.9" width="46" height=".5"/>
      </g>
      <g>
        <circle class="st0" cx="20.2" cy="49.4" r="3"/>
        <circle class="st0" cx="47.8" cy="24.4" r="3"/>
        <circle class="st0" cx="29.4" cy="24.4" r="3"/>
        <circle class="st0" cx="38.6" cy="36.9" r="3"/>
      </g>
    </g>
    <g>
      <path class="st3" d="M1.2,9.4V.5C1.2.2,1.5,0,1.7,0h3.5C6.8,0,8.1,1.3,8.1,2.9v4.2c0,1.6-1.3,2.9-2.9,2.9H1.7c-.3,0-.5-.2-.5-.5ZM2.2,1v7.9h3c1,0,1.9-.8,1.9-1.9V2.9c0-1-.8-1.9-1.9-1.9h-3Z"/>
      <g>
        <path class="st3" d="M11.3,8.2v-3.5c0-.9.8-1.7,1.7-1.7h1.9c.9,0,1.7.8,1.7,1.7v3.5c0,.9-.8,1.7-1.7,1.7h-1.9c-.9,0-1.7-.8-1.7-1.7ZM15.6,4.7c0-.4-.3-.7-.7-.7h-1.9c-.4,0-.7.3-.7.7v3.5c0,.4.3.7.7.7h1.9c.4,0,.7-.3.7-.7v-3.5Z"/>
        <path class="st3" d="M11.3,9.4V.5C11.3.2,11.5,0,11.8,0s.5.2.5.5v8.9c0,.3-.2.5-.5.5s-.5-.2-.5-.5Z"/>
      </g>
    </g>
  </g>
  <g class="st1">
    <g>
      <g>
        <path class="st2" d="M2.9,68.4V17.9h46.5v50.5H2.9ZM3.4,18.4v49.5h45.5V18.4H3.4Z"/>
        <rect class="st2" x="12.1" y="18.1" width=".5" height="50"/>
        <rect class="st2" x="21.3" y="18.1" width=".5" height="50"/>
        <rect class="st2" x="30.5" y="18.1" width=".5" height="50"/>
        <rect class="st2" x="39.7" y="18.1" width=".5" height="50"/>
        <rect class="st2" x="3.1" y="30.4" width="46" height=".5"/>
        <rect class="st2" x="3.1" y="17.9" width="46" height=".5"/>
        <rect class="st2" x="3.1" y="42.9" width="46" height=".5"/>
        <rect class="st2" x="3.1" y="55.4" width="46" height=".5"/>
        <rect class="st2" x="3.1" y="67.9" width="46" height=".5"/>
      </g>
      <g>
        <circle class="st0" cx="21.5" cy="36.9" r="3"/>
        <circle class="st0" cx="30.7" cy="36.9" r="3"/>
        <circle class="st0" cx="39.9" cy="36.9" r="3"/>
      </g>
    </g>
    <g>
      <path class="st3" d="M2.6,9.4c0,0,0-.1,0-.2L6,.3C6.1.1,6.3,0,6.5,0s.4.1.5.3l3.4,8.9c.1.3,0,.5-.3.6-.3,0-.5,0-.6-.3L6.5,1.9l-2.9,7.6c0,.3-.4.4-.6.3-.2,0-.3-.3-.3-.5Z"/>
      <path class="st3" d="M3.7,6.5c0-.3.2-.5.5-.5h4.6c.3,0,.5.2.5.5s-.2.5-.5.5h-4.6c-.3,0-.5-.2-.5-.5Z"/>
    </g>
  </g>
  <g class="st1">
    <g>
      <g>
        <path class="st2" d="M1.5,68.4V17.9h46.5v50.5H1.5ZM2,18.4v49.5h45.5V18.4H2Z"/>
        <rect class="st2" x="10.7" y="18.1" width=".5" height="50"/>
        <rect class="st2" x="19.9" y="18.1" width=".5" height="50"/>
        <rect class="st2" x="29.1" y="18.1" width=".5" height="50"/>
        <rect class="st2" x="38.3" y="18.1" width=".5" height="50"/>
        <rect class="st2" x="1.8" y="30.4" width="46" height=".5"/>
        <rect class="st2" x="1.8" y="17.9" width="46" height=".5"/>
        <rect class="st2" x="1.8" y="42.9" width="46" height=".5"/>
        <rect class="st2" x="1.8" y="55.4" width="46" height=".5"/>
        <rect class="st2" x="1.8" y="67.9" width="46" height=".5"/>
      </g>
      <g>
        <path class="st0" d="M17.2,61.9c0,1.7,1.3,3,3,3s3-1.3,3-3-1.3-3-3-3-3,1.3-3,3Z"/>
        <circle class="st0" cx="11" cy="36.9" r="3"/>
        <path class="st0" d="M26.4,61.9c0,1.7,1.3,3,3,3s3-1.3,3-3-1.3-3-3-3-3,1.3-3,3Z"/>
        <path class="st0" d="M35.6,61.9c0,1.7,1.3,3,3,3s3-1.3,3-3-1.3-3-3-3-3,1.3-3,3Z"/>
        <circle class="st0" cx="47.8" cy="36.9" r="3"/>
      </g>
    </g>
    <g>
      <path class="st3" d="M1.2,9.4c0-.3.2-.5.5-.5h4.7c.4,0,.7-.3.7-.7v-2.1c0-.4-.3-.7-.7-.7H1.7c-.3,0-.5-.2-.5-.5s.2-.5.5-.5h4.7c.9,0,1.7.8,1.7,1.7v2.1c0,.9-.8,1.7-1.7,1.7H1.7c-.3,0-.5-.2-.5-.5Z"/>
      <path class="st3" d="M1.2,4.9c0-.3.2-.5.5-.5h4.7c.4,0,.7-.3.7-.7V1.7c0-.4-.3-.7-.7-.7H1.7c-.3,0-.5-.2-.5-.5S1.5,0,1.7,0h4.7C7.4,0,8.1.8,8.1,1.7v2.1c0,.9-.8,1.7-1.7,1.7H1.7c-.3,0-.5-.2-.5-.5Z"/>
      <path class="st3" d="M1.2,9.4V.5C1.2.2,1.5,0,1.7,0s.5.2.5.5v8.9c0,.3-.2.5-.5.5s-.5-.2-.5-.5Z"/>
    </g>
  </g>
  <g class="st1">
    <g>
      <g>
        <path class="st2" d="M1.5,68.4V17.9h46.5v50.5H1.5ZM2,18.4v49.5h45.5V18.4H2Z"/>
        <rect class="st2" x="10.7" y="18.1" width=".5" height="50"/>
        <rect class="st2" x="19.9" y="18.1" width=".5" height="50"/>
        <rect class="st2" x="29.1" y="18.1" width=".5" height="50"/>
        <rect class="st2" x="38.3" y="18.1" width=".5" height="50"/>
        <rect class="st2" x="1.8" y="30.4" width="46" height=".5"/>
        <rect class="st2" x="1.8" y="17.9" width="46" height=".5"/>
        <rect class="st2" x="1.8" y="42.9" width="46" height=".5"/>
        <rect class="st2" x="1.8" y="55.4" width="46" height=".5"/>
        <rect class="st2" x="1.8" y="67.9" width="46" height=".5"/>
      </g>
      <g>
        <circle class="st0" cx="47.8" cy="36.9" r="3"/>
        <circle class="st0" cx="29.4" cy="36.9" r="3"/>
        <circle class="st0" cx="38.6" cy="49.4" r="3"/>
      </g>
    </g>
    <path class="st3" d="M1.2,9.4V.5C1.2.2,1.5,0,1.7,0h3.5C6.8,0,8.1,1.3,8.1,2.9v4.2c0,1.6-1.3,2.9-2.9,2.9H1.7c-.3,0-.5-.2-.5-.5ZM2.2,1v7.9h3c1,0,1.9-.8,1.9-1.9V2.9c0-1-.8-1.9-1.9-1.9h-3Z"/>
  </g>
  <g class="st1">
    <g>
      <g>
        <path class="st2" d="M4.1,68.4V17.9h46.5v50.5H4.1ZM4.6,18.4v49.5h45.5V18.4H4.6Z"/>
        <rect class="st2" x="13.3" y="18.1" width=".5" height="50"/>
        <rect class="st2" x="22.5" y="18.1" width=".5" height="50"/>
        <rect class="st2" x="31.7" y="18.1" width=".5" height="50"/>
        <rect class="st2" x="40.9" y="18.1" width=".5" height="50"/>
        <rect class="st2" x="4.4" y="30.4" width="46" height=".5"/>
        <rect class="st2" x="4.4" y="17.9" width="46" height=".5"/>
        <rect class="st2" x="4.4" y="42.9" width="46" height=".5"/>
        <rect class="st2" x="4.4" y="55.4" width="46" height=".5"/>
        <rect class="st2" x="4.4" y="67.9" width="46" height=".5"/>
      </g>
      <g>
        <circle class="st0" cx="22.8" cy="36.9" r="3"/>
        <circle class="st0" cx="13.6" cy="49.4" r="3"/>
        <circle class="st0" cx="4.4" cy="49.4" r="3"/>
        <circle class="st0" cx="41.2" cy="24.4" r="3"/>
      </g>
    </g>
    <path class="st3" d="M3.9,8.2V1.7C3.9.8,4.6,0,5.5,0h3.5C10,0,10.7.8,10.7,1.7s-.2.5-.5.5-.5-.2-.5-.5-.3-.7-.7-.7h-3.5c-.4,0-.7.3-.7.7v6.5c0,.4.3.7.7.7h3.5c.4,0,.7-.3.7-.7s.2-.5.5-.5.5.2.5.5c0,.9-.8,1.7-1.7,1.7h-3.5c-.9,0-1.7-.8-1.7-1.7Z"/>
  </g>
  <g class="st1">
    <g>
      <g>
        <path class="st2" d="M1.5,68.4V17.9h46.5v50.5H1.5ZM2,18.4v49.5h45.5V18.4H2Z"/>
        <rect class="st2" x="10.7" y="18.1" width=".5" height="50"/>
        <rect class="st2" x="19.9" y="18.1" width=".5" height="50"/>
        <rect class="st2" x="29.1" y="18.1" width=".5" height="50"/>
        <rect class="st2" x="38.3" y="18.1" width=".5" height="50"/>
        <rect class="st2" x="1.8" y="30.4" width="46" height=".5"/>
        <rect class="st2" x="1.8" y="17.9" width="46" height=".5"/>
        <rect class="st2" x="1.8" y="42.9" width="46" height=".5"/>
        <rect class="st2" x="1.8" y="55.4" width="46" height=".5"/>
        <rect class="st2" x="1.8" y="67.9" width="46" height=".5"/>
      </g>
      <g>
        <circle class="st0" cx="47.8" cy="24.4" r="3"/>
        <circle class="st0" cx="29.4" cy="24.4" r="3"/>
        <circle class="st0" cx="20.2" cy="49.4" r="3"/>
        <circle class="st0" cx="38.6" cy="36.9" r="3"/>
      </g>
    </g>
    <g>
      <g>
        <path class="st3" d="M1.2,8.2V1.7c0-.9.8-1.7,1.7-1.7h3.5c.9,0,1.7.8,1.7,1.7s-.2.5-.5.5-.5-.2-.5-.5-.3-.7-.7-.7h-3.5c-.4,0-.7.3-.7.7v6.5c0,.4.3.7.7.7h3.5c.4,0,.7-.3.7-.7s.2-.5.5-.5.5.2.5.5c0,.9-.8,1.7-1.7,1.7h-3.5c-.9,0-1.7-.8-1.7-1.7Z"/>
        <path class="st3" d="M1.2,4.9c0-.3.2-.5.5-.5h4.6c.3,0,.5.2.5.5s-.2.5-.5.5H1.7c-.3,0-.5-.2-.5-.5Z"/>
      </g>
      <g>
        <path class="st3" d="M10.3,8.2v-3.5c0-.9.8-1.7,1.7-1.7h1.9c.9,0,1.7.8,1.7,1.7v3.5c0,.9-.8,1.7-1.7,1.7h-1.9c-.9,0-1.7-.8-1.7-1.7ZM14.5,4.7c0-.4-.3-.7-.7-.7h-1.9c-.4,0-.7.3-.7.7v3.5c0,.4.3.7.7.7h1.9c.4,0,.7-.3.7-.7v-3.5Z"/>
        <path class="st3" d="M10.3,9.4V.5c0-.3.2-.5.5-.5s.5.2.5.5v8.9c0,.3-.2.5-.5.5s-.5-.2-.5-.5Z"/>
      </g>
    </g>
  </g>
  <g class="st1">
    <g>
      <g>
        <path class="st2" d="M2.7,68.4V17.9h46.5v50.5H2.7ZM3.2,18.4v49.5h45.5V18.4H3.2Z"/>
        <rect class="st2" x="11.9" y="18.1" width=".5" height="50"/>
        <rect class="st2" x="21.2" y="18.1" width=".5" height="50"/>
        <rect class="st2" x="30.4" y="18.1" width=".5" height="50"/>
        <rect class="st2" x="39.5" y="18.1" width=".5" height="50"/>
        <rect class="st2" x="3" y="30.4" width="46" height=".5"/>
        <rect class="st2" x="3" y="17.9" width="46" height=".5"/>
        <rect class="st2" x="3" y="42.9" width="46" height=".5"/>
        <rect class="st2" x="3" y="55.4" width="46" height=".5"/>
        <rect class="st2" x="3" y="67.9" width="46" height=".5"/>
      </g>
      <g>
        <circle class="st0" cx="12.2" cy="36.9" r="3"/>
        <circle class="st0" cx="3" cy="49.4" r="3"/>
        <circle class="st0" cx="49" cy="49.4" r="3"/>
      </g>
    </g>
    <path class="st3" d="M2.5,8.2V1.7C2.5.8,3.2,0,4.2,0h3.5c.9,0,1.7.8,1.7,1.7s-.2.5-.5.5-.5-.2-.5-.5-.3-.7-.7-.7h-3.5c-.4,0-.7.3-.7.7v6.5c0,.4.3.7.7.7h3.5c.4,0,.7-.3.7-.7v-2.1c0-.4-.3-.7-.7-.7h-2.5c-.3,0-.5-.2-.5-.5s.2-.5.5-.5h2.5c.9,0,1.7.8,1.7,1.7v2.1c0,.9-.8,1.7-1.7,1.7h-3.5c-.9,0-1.7-.8-1.7-1.7Z"/>
  </g>
  <g class="st1">
    <g>
      <g>
        <path class="st2" d="M2.9,68.4V17.9h46.5v50.5H2.9ZM3.4,18.4v49.5h45.5V18.4H3.4Z"/>
        <rect class="st2" x="12.1" y="18.1" width=".5" height="50"/>
        <rect class="st2" x="21.3" y="18.1" width=".5" height="50"/>
        <rect class="st2" x="30.5" y="18.1" width=".5" height="50"/>
        <rect class="st2" x="39.7" y="18.1" width=".5" height="50"/>
        <rect class="st2" x="3.1" y="30.4" width="46" height=".5"/>
        <rect class="st2" x="3.1" y="17.9" width="46" height=".5"/>
        <rect class="st2" x="3.1" y="42.9" width="46" height=".5"/>
        <rect class="st2" x="3.1" y="55.4" width="46" height=".5"/>
        <rect class="st2" x="3.1" y="67.9" width="46" height=".5"/>
      </g>
      <g>
        <circle class="st0" cx="12.3" cy="36.9" r="3"/>
        <circle class="st0" cx="21.5" cy="36.9" r="3"/>
        <circle class="st0" cx="30.7" cy="24.4" r="3"/>
      </g>
    </g>
    <g>
      <path class="st3" d="M2.6,8.2V1.7c0-.9.8-1.7,1.7-1.7h3.5c.9,0,1.7.8,1.7,1.7s-.2.5-.5.5-.5-.2-.5-.5-.3-.7-.7-.7h-3.5c-.4,0-.7.3-.7.7v6.5c0,.4.3.7.7.7h3.5c.4,0,.7-.3.7-.7s.2-.5.5-.5.5.2.5.5c0,.9-.8,1.7-1.7,1.7h-3.5c-.9,0-1.7-.8-1.7-1.7Z"/>
      <path class="st3" d="M2.6,4.9c0-.3.2-.5.5-.5h4.6c.3,0,.5.2.5.5s-.2.5-.5.5H3.1c-.3,0-.5-.2-.5-.5Z"/>
    </g>
  </g>
  <g class="st1">
    <g>
      <g>
        <path class="st2" d="M2.7,68.4V17.9h46.5v50.5H2.7ZM3.2,18.4v49.5h45.5V18.4H3.2Z"/>
        <rect class="st2" x="11.9" y="18.1" width=".5" height="50"/>
        <rect class="st2" x="21.2" y="18.1" width=".5" height="50"/>
        <rect class="st2" x="30.4" y="18.1" width=".5" height="50"/>
        <rect class="st2" x="39.5" y="18.1" width=".5" height="50"/>
        <rect class="st2" x="3" y="30.4" width="46" height=".5"/>
        <rect class="st2" x="3" y="17.9" width="46" height=".5"/>
        <rect class="st2" x="3" y="42.9" width="46" height=".5"/>
        <rect class="st2" x="3" y="55.4" width="46" height=".5"/>
        <rect class="st2" x="3" y="67.9" width="46" height=".5"/>
      </g>
      <g>
        <circle class="st0" cx="12.2" cy="61.9" r="3"/>
        <circle class="st0" cx="21.4" cy="61.9" r="3"/>
        <circle class="st0" cx="30.6" cy="49.4" r="3"/>
        <circle class="st0" cx="39.8" cy="36.9" r="3"/>
        <circle class="st0" cx="3" cy="36.9" r="3"/>
        <circle class="st0" cx="49" cy="36.9" r="3"/>
      </g>
    </g>
    <g>
      <g>
        <g>
          <path class="st3" d="M10.9,9.4s0,0,0,0L12.8.6c0-.1.2-.2.3-.2.1,0,.2.2.2.3l-1.9,8.7c0,.1-.2.2-.3.2-.1,0-.2-.1-.2-.2Z"/>
          <path class="st3" d="M13.9,9.4s0,0,0,0L15.7.6c0-.1.2-.2.3-.2.1,0,.2.2.2.3l-1.9,8.7c0,.1-.2.2-.3.2-.1,0-.2-.1-.2-.2Z"/>
        </g>
        <g>
          <path class="st3" d="M9.7,6.4c0-.1.1-.2.2-.2h6.6c.1,0,.2.1.2.2s-.1.2-.2.2h-6.6c-.1,0-.2-.1-.2-.2Z"/>
          <path class="st3" d="M10.3,3.6c0-.1.1-.2.2-.2h6.6c.1,0,.2.1.2.2s-.1.2-.2.2h-6.6c-.1,0-.2-.1-.2-.2Z"/>
        </g>
      </g>
      <g>
        <path class="st3" d="M2.5,9.4V1.7C2.5.8,3.2,0,4.2,0h3.5c.9,0,1.7.8,1.7,1.7s-.2.5-.5.5-.5-.2-.5-.5-.3-.7-.7-.7h-3.5c-.4,0-.7.3-.7.7v7.7c0,.3-.2.5-.5.5s-.5-.2-.5-.5Z"/>
        <path class="st3" d="M2.5,4.9c0-.3.2-.5.5-.5h4.6c.3,0,.5.2.5.5s-.2.5-.5.5H3c-.3,0-.5-.2-.5-.5Z"/>
      </g>
    </g>
  </g>
  <g class="st1">
    <g>
      <g>
        <path class="st2" d="M2.7,68.4V17.9h46.5v50.5H2.7ZM3.2,18.4v49.5h45.5V18.4H3.2Z"/>
        <rect class="st2" x="11.9" y="18.1" width=".5" height="50"/>
        <rect class="st2" x="21.2" y="18.1" width=".5" height="50"/>
        <rect class="st2" x="30.4" y="18.1" width=".5" height="50"/>
        <rect class="st2" x="39.5" y="18.1" width=".5" height="50"/>
        <rect class="st2" x="3" y="30.4" width="46" height=".5"/>
        <rect class="st2" x="3" y="17.9" width="46" height=".5"/>
        <rect class="st2" x="3" y="42.9" width="46" height=".5"/>
        <rect class="st2" x="3" y="55.4" width="46" height=".5"/>
        <rect class="st2" x="3" y="67.9" width="46" height=".5"/>
      </g>
      <g>
        <circle class="st0" cx="12.2" cy="49.4" r="3"/>
        <circle class="st0" cx="21.4" cy="49.4" r="3"/>
        <circle class="st0" cx="30.6" cy="36.9" r="3"/>
        <circle class="st0" cx="39.8" cy="24.4" r="3"/>
        <circle class="st0" cx="3" cy="24.4" r="3"/>
        <circle class="st0" cx="49" cy="24.4" r="3"/>
      </g>
    </g>
    <g>
      <path class="st3" d="M2.5,9.4V1.7C2.5.8,3.2,0,4.2,0h3.5c.9,0,1.7.8,1.7,1.7s-.2.5-.5.5-.5-.2-.5-.5-.3-.7-.7-.7h-3.5c-.4,0-.7.3-.7.7v7.7c0,.3-.2.5-.5.5s-.5-.2-.5-.5Z"/>
      <path class="st3" d="M2.5,4.9c0-.3.2-.5.5-.5h4.6c.3,0,.5.2.5.5s-.2.5-.5.5H3c-.3,0-.5-.2-.5-.5Z"/>
    </g>
  </g>
  <g class="st1">
    <g>
      <g>
        <path class="st2" d="M2.8,68.4V17.9h46.5v50.5H2.8ZM3.3,18.4v49.5h45.5V18.4H3.3Z"/>
        <rect class="st2" x="12" y="18.1" width=".5" height="50"/>
        <rect class="st2" x="21.1" y="18.1" width=".5" height="50"/>
        <rect class="st2" x="30.3" y="18.1" width=".5" height="50"/>
        <rect class="st2" x="39.6" y="18.1" width=".5" height="50"/>
        <rect class="st2" x="3" y="30.4" width="46" height=".5"/>
        <rect class="st2" x="3" y="17.9" width="46" height=".5"/>
        <rect class="st2" x="3" y="42.9" width="46" height=".5"/>
        <rect class="st2" x="3" y="55.4" width="46" height=".5"/>
        <rect class="st2" x="3" y="67.9" width="46" height=".5"/>
      </g>
      <g>
        <circle class="st0" cx="3" cy="24.4" r="3"/>
        <circle class="st0" cx="12.2" cy="49.4" r="3"/>
        <circle class="st0" cx="21.4" cy="49.4" r="3"/>
        <circle class="st0" cx="30.6" cy="24.4" r="3"/>
        <circle class="st0" cx="39.8" cy="24.4" r="3"/>
        <circle class="st0" cx="49" cy="24.4" r="3"/>
      </g>
    </g>
    <g>
      <g>
        <path class="st3" d="M23.5,9.4v-4.7c0-.9.8-1.7,1.7-1.7h.9c.9,0,1.7.8,1.7,1.7v4.7c0,.3-.2.5-.5.5s-.5-.2-.5-.5v-4.7c0-.4-.3-.7-.7-.7h-.9c-.4,0-.7.3-.7.7v4.7c0,.3-.2.5-.5.5s-.5-.2-.5-.5Z"/>
        <path class="st3" d="M20.2,9.4v-4.7c0-.9.8-1.7,1.7-1.7h.9c.9,0,1.7.8,1.7,1.7s-.2.5-.5.5-.5-.2-.5-.5-.3-.7-.7-.7h-.9c-.4,0-.7.3-.7.7v4.7c0,.3-.2.5-.5.5s-.5-.2-.5-.5Z"/>
      </g>
      <path class="st3" d="M2.5,8.2V1.7C2.5.8,3.2,0,4.2,0h3.5C8.6,0,9.4.8,9.4,1.7s-.2.5-.5.5-.5-.2-.5-.5-.3-.7-.7-.7h-3.5c-.4,0-.7.3-.7.7v6.5c0,.4.3.7.7.7h3.5c.4,0,.7-.3.7-.7v-2.1c0-.4-.3-.7-.7-.7h-2.5c-.3,0-.5-.2-.5-.5s.2-.5.5-.5h2.5c.9,0,1.7.8,1.7,1.7v2.1c0,.9-.8,1.7-1.7,1.7h-3.5c-.9,0-1.7-.8-1.7-1.7Z"/>
      <g>
        <g>
          <path class="st3" d="M11.8,9.4s0,0,0,0L13.6.6c0-.1.2-.2.3-.2.1,0,.2.2.2.3l-1.9,8.7c0,.1-.2.2-.3.2-.1,0-.2-.1-.2-.2Z"/>
          <path class="st3" d="M14.7,9.4s0,0,0,0l1.9-8.7c0-.1.2-.2.3-.2.1,0,.2.2.2.3l-1.9,8.7c0,.1-.2.2-.3.2-.1,0-.2-.1-.2-.2Z"/>
        </g>
        <g>
          <path class="st3" d="M10.6,6.4c0-.1.1-.2.2-.2h6.6c.1,0,.2.1.2.2s-.1.2-.2.2h-6.6c-.1,0-.2-.1-.2-.2Z"/>
          <path class="st3" d="M11.1,3.6c0-.1.1-.2.2-.2h6.6c.1,0,.2.1.2.2s-.1.2-.2.2h-6.6c-.1,0-.2-.1-.2-.2Z"/>
        </g>
      </g>
    </g>
  </g>
  <g class="st1">
    <g>
      <g>
        <path class="st2" d="M1.5,68.4V17.9h46.5v50.5H1.5ZM2,18.4v49.5h45.5V18.4H2Z"/>
        <rect class="st2" x="10.7" y="18.1" width=".5" height="50"/>
        <rect class="st2" x="19.9" y="18.1" width=".5" height="50"/>
        <rect class="st2" x="29.1" y="18.1" width=".5" height="50"/>
        <rect class="st2" x="38.3" y="18.1" width=".5" height="50"/>
        <rect class="st2" x="1.8" y="30.4" width="46" height=".5"/>
        <rect class="st2" x="1.8" y="17.9" width="46" height=".5"/>
        <rect class="st2" x="1.8" y="42.9" width="46" height=".5"/>
        <rect class="st2" x="1.8" y="55.4" width="46" height=".5"/>
        <rect class="st2" x="1.8" y="67.9" width="46" height=".5"/>
      </g>
      <g>
        <circle class="st0" cx="20.2" cy="49.4" r="3"/>
        <circle class="st0" cx="29.4" cy="49.4" r="3"/>
        <circle class="st0" cx="38.6" cy="36.9" r="3"/>
        <circle class="st0" cx="11" cy="24.4" r="3"/>
        <circle class="st0" cx="47.8" cy="24.4" r="3"/>
      </g>
    </g>
    <g>
      <g>
        <path class="st3" d="M1.2,9.4c0-.3.2-.5.5-.5h4.7c.4,0,.7-.3.7-.7v-2.1c0-.4-.3-.7-.7-.7H1.7c-.3,0-.5-.2-.5-.5s.2-.5.5-.5h4.7c.9,0,1.7.8,1.7,1.7v2.1c0,.9-.8,1.7-1.7,1.7H1.7c-.3,0-.5-.2-.5-.5Z"/>
        <path class="st3" d="M1.2,4.9c0-.3.2-.5.5-.5h4.7c.4,0,.7-.3.7-.7V1.7c0-.4-.3-.7-.7-.7H1.7c-.3,0-.5-.2-.5-.5S1.5,0,1.7,0h4.7C7.4,0,8.1.8,8.1,1.7v2.1c0,.9-.8,1.7-1.7,1.7H1.7c-.3,0-.5-.2-.5-.5Z"/>
        <path class="st3" d="M1.2,9.4V.5C1.2.2,1.5,0,1.7,0s.5.2.5.5v8.9c0,.3-.2.5-.5.5s-.5-.2-.5-.5Z"/>
      </g>
      <g>
        <path class="st3" d="M22.2,9.4v-4.7c0-.9.8-1.7,1.7-1.7h.9c.9,0,1.7.8,1.7,1.7v4.7c0,.3-.2.5-.5.5s-.5-.2-.5-.5v-4.7c0-.4-.3-.7-.7-.7h-.9c-.4,0-.7.3-.7.7v4.7c0,.3-.2.5-.5.5s-.5-.2-.5-.5Z"/>
        <path class="st3" d="M18.9,9.4v-4.7c0-.9.8-1.7,1.7-1.7h.9c.9,0,1.7.8,1.7,1.7s-.2.5-.5.5-.5-.2-.5-.5-.3-.7-.7-.7h-.9c-.4,0-.7.3-.7.7v4.7c0,.3-.2.5-.5.5s-.5-.2-.5-.5Z"/>
      </g>
      <g>
        <g>
          <path class="st3" d="M10.5,9.4s0,0,0,0L12.3.6c0-.1.2-.2.3-.2.1,0,.2.2.2.3l-1.8,8.7c0,.1-.2.2-.3.2-.1,0-.2-.1-.2-.2Z"/>
          <path class="st3" d="M13.4,9.4s0,0,0,0L15.2.6c0-.1.2-.2.3-.2.1,0,.2.2.2.3l-1.9,8.7c0,.1-.2.2-.3.2-.1,0-.2-.1-.2-.2Z"/>
        </g>
        <g>
          <path class="st3" d="M9.3,6.4c0-.1.1-.2.2-.2h6.6c.1,0,.2.1.2.2s-.1.2-.2.2h-6.6c-.1,0-.2-.1-.2-.2Z"/>
          <path class="st3" d="M9.8,3.6c0-.1.1-.2.2-.2h6.6c.1,0,.2.1.2.2s-.1.2-.2.2h-6.6c-.1,0-.2-.1-.2-.2Z"/>
        </g>
      </g>
    </g>
  </g>
  <g class="st1">
    <g>
      <g>
        <path class="st2" d="M2.9,68.4V17.9h46.5v50.5H2.9ZM3.4,18.4v49.5h45.5V18.4H3.4Z"/>
        <rect class="st2" x="12.1" y="18.1" width=".5" height="50"/>
        <rect class="st2" x="21.3" y="18.1" width=".5" height="50"/>
        <rect class="st2" x="30.5" y="18.1" width=".5" height="50"/>
        <rect class="st2" x="39.7" y="18.1" width=".5" height="50"/>
        <rect class="st2" x="3.1" y="30.4" width="46" height=".5"/>
        <rect class="st2" x="3.1" y="17.9" width="46" height=".5"/>
        <rect class="st2" x="3.1" y="42.9" width="46" height=".5"/>
        <rect class="st2" x="3.1" y="55.4" width="46" height=".5"/>
        <rect class="st2" x="3.1" y="67.9" width="46" height=".5"/>
      </g>
      <g>
        <circle class="st0" cx="21.5" cy="36.9" r="3"/>
        <circle class="st0" cx="30.7" cy="24.4" r="3"/>
        <circle class="st0" cx="39.9" cy="36.9" r="3"/>
      </g>
    </g>
    <g>
      <path class="st3" d="M2.6,8.2V1.7C2.6.8,3.4,0,4.3,0h3.5c.9,0,1.7.8,1.7,1.7s-.2.5-.5.5-.5-.2-.5-.5-.3-.7-.7-.7h-3.5c-.4,0-.7.3-.7.7v6.5c0,.4.3.7.7.7h3.5c.4,0,.7-.3.7-.7s.2-.5.5-.5.5.2.5.5c0,.9-.8,1.7-1.7,1.7h-3.5c-.9,0-1.7-.8-1.7-1.7Z"/>
      <g>
        <path class="st3" d="M23.7,9.4v-4.7c0-.9.8-1.7,1.7-1.7h.9c.9,0,1.7.8,1.7,1.7v4.7c0,.3-.2.5-.5.5s-.5-.2-.5-.5v-4.7c0-.4-.3-.7-.7-.7h-.9c-.4,0-.7.3-.7.7v4.7c0,.3-.2.5-.5.5s-.5-.2-.5-.5Z"/>
        <path class="st3" d="M20.3,9.4v-4.7c0-.9.8-1.7,1.7-1.7h.9c.9,0,1.7.8,1.7,1.7s-.2.5-.5.5-.5-.2-.5-.5-.3-.7-.7-.7h-.9c-.4,0-.7.3-.7.7v4.7c0,.3-.2.5-.5.5s-.5-.2-.5-.5Z"/>
      </g>
      <g>
        <g>
          <path class="st3" d="M11.9,9.4s0,0,0,0L13.8.6c0-.1.2-.2.3-.2.1,0,.2.2.2.3l-1.9,8.7c0,.1-.2.2-.3.2-.1,0-.2-.1-.2-.2Z"/>
          <path class="st3" d="M14.8,9.4s0,0,0,0l1.9-8.7c0-.1.2-.2.3-.2.1,0,.2.2.2.3l-1.9,8.7c0,.1-.2.2-.3.2-.1,0-.2-.1-.2-.2Z"/>
        </g>
        <g>
          <path class="st3" d="M10.7,6.4c0-.1.1-.2.2-.2h6.6c.1,0,.2.1.2.2s-.1.2-.2.2h-6.6c-.1,0-.2-.1-.2-.2Z"/>
          <path class="st3" d="M11.2,3.6c0-.1.1-.2.2-.2h6.6c.1,0,.2.1.2.2s-.1.2-.2.2h-6.6c-.1,0-.2-.1-.2-.2Z"/>
        </g>
      </g>
    </g>
  </g>
  <g class="st1">
    <g>
      <g>
        <path class="st2" d="M2.9,68.4V17.9h46.5v50.5H2.9ZM3.4,18.4v49.5h45.5V18.4H3.4Z"/>
        <rect class="st2" x="12.1" y="18.1" width=".5" height="50"/>
        <rect class="st2" x="21.3" y="18.1" width=".5" height="50"/>
        <rect class="st2" x="30.5" y="18.1" width=".5" height="50"/>
        <rect class="st2" x="39.7" y="18.1" width=".5" height="50"/>
        <rect class="st2" x="3.1" y="30.4" width="46" height=".5"/>
        <rect class="st2" x="3.1" y="17.9" width="46" height=".5"/>
        <rect class="st2" x="3.1" y="42.9" width="46" height=".5"/>
        <rect class="st2" x="3.1" y="55.4" width="46" height=".5"/>
        <rect class="st2" x="3.1" y="67.9" width="46" height=".5"/>
      </g>
      <g>
        <circle class="st0" cx="21.5" cy="36.9" r="3"/>
        <circle class="st0" cx="30.7" cy="36.9" r="3"/>
        <circle class="st0" cx="39.9" cy="24.4" r="3"/>
      </g>
    </g>
    <g>
      <g>
        <path class="st3" d="M15.1,9.4v-4.7c0-.9.8-1.7,1.7-1.7h.9c.9,0,1.7.8,1.7,1.7v4.7c0,.3-.2.5-.5.5s-.5-.2-.5-.5v-4.7c0-.4-.3-.7-.7-.7h-.9c-.4,0-.7.3-.7.7v4.7c0,.3-.2.5-.5.5s-.5-.2-.5-.5Z"/>
        <path class="st3" d="M11.8,9.4v-4.7c0-.9.8-1.7,1.7-1.7h.9c.9,0,1.7.8,1.7,1.7s-.2.5-.5.5-.5-.2-.5-.5-.3-.7-.7-.7h-.9c-.4,0-.7.3-.7.7v4.7c0,.3-.2.5-.5.5s-.5-.2-.5-.5Z"/>
      </g>
      <path class="st3" d="M2.6,8.2V1.7C2.6.8,3.4,0,4.3,0h3.5C8.7,0,9.5.8,9.5,1.7s-.2.5-.5.5-.5-.2-.5-.5-.3-.7-.7-.7h-3.5c-.4,0-.7.3-.7.7v6.5c0,.4.3.7.7.7h3.5c.4,0,.7-.3.7-.7v-2.1c0-.4-.3-.7-.7-.7h-2.5c-.3,0-.5-.2-.5-.5s.2-.5.5-.5h2.5c.9,0,1.7.8,1.7,1.7v2.1c0,.9-.8,1.7-1.7,1.7h-3.5c-.9,0-1.7-.8-1.7-1.7Z"/>
    </g>
  </g>
  <g class="st1">
    <g>
      <g>
        <path class="st2" d="M1.5,68.4V17.9h46.5v50.5H1.5ZM2,18.4v49.5h45.5V18.4H2Z"/>
        <rect class="st2" x="10.7" y="18.1" width=".5" height="50"/>
        <rect class="st2" x="19.9" y="18.1" width=".5" height="50"/>
        <rect class="st2" x="29.1" y="18.1" width=".5" height="50"/>
        <rect class="st2" x="38.3" y="18.1" width=".5" height="50"/>
        <rect class="st2" x="1.8" y="30.4" width="46" height=".5"/>
        <rect class="st2" x="1.8" y="17.9" width="46" height=".5"/>
        <rect class="st2" x="1.8" y="42.9" width="46" height=".5"/>
        <rect class="st2" x="1.8" y="55.4" width="46" height=".5"/>
        <rect class="st2" x="1.8" y="67.9" width="46" height=".5"/>
      </g>
      <g>
        <path class="st0" d="M17.2,61.9c0,1.7,1.3,3,3,3s3-1.3,3-3-1.3-3-3-3-3,1.3-3,3Z"/>
        <path class="st0" d="M26.4,61.9c0,1.7,1.3,3,3,3s3-1.3,3-3-1.3-3-3-3-3,1.3-3,3Z"/>
        <circle class="st0" cx="38.6" cy="49.4" r="3"/>
        <circle class="st0" cx="11" cy="36.9" r="3"/>
        <circle class="st0" cx="47.8" cy="36.9" r="3"/>
      </g>
    </g>
    <g>
      <g>
        <path class="st3" d="M1.2,9.4c0-.3.2-.5.5-.5h4.7c.4,0,.7-.3.7-.7v-2.1c0-.4-.3-.7-.7-.7H1.7c-.3,0-.5-.2-.5-.5s.2-.5.5-.5h4.7c.9,0,1.7.8,1.7,1.7v2.1c0,.9-.8,1.7-1.7,1.7H1.7c-.3,0-.5-.2-.5-.5Z"/>
        <path class="st3" d="M1.2,4.9c0-.3.2-.5.5-.5h4.7c.4,0,.7-.3.7-.7V1.7c0-.4-.3-.7-.7-.7H1.7c-.3,0-.5-.2-.5-.5S1.5,0,1.7,0h4.7C7.4,0,8.1.8,8.1,1.7v2.1c0,.9-.8,1.7-1.7,1.7H1.7c-.3,0-.5-.2-.5-.5Z"/>
        <path class="st3" d="M1.2,9.4V.5C1.2.2,1.5,0,1.7,0s.5.2.5.5v8.9c0,.3-.2.5-.5.5s-.5-.2-.5-.5Z"/>
      </g>
      <g>
        <path class="st3" d="M13.7,9.4v-4.7c0-.9.8-1.7,1.7-1.7h.9c.9,0,1.7.8,1.7,1.7v4.7c0,.3-.2.5-.5.5s-.5-.2-.5-.5v-4.7c0-.4-.3-.7-.7-.7h-.9c-.4,0-.7.3-.7.7v4.7c0,.3-.2.5-.5.5s-.5-.2-.5-.5Z"/>
        <path class="st3" d="M10.4,9.4v-4.7c0-.9.8-1.7,1.7-1.7h.9c.9,0,1.7.8,1.7,1.7s-.2.5-.5.5-.5-.2-.5-.5-.3-.7-.7-.7h-.9c-.4,0-.7.3-.7.7v4.7c0,.3-.2.5-.5.5s-.5-.2-.5-.5Z"/>
      </g>
    </g>
  </g>
  <g class="st1">
    <g>
      <g>
        <path class="st2" d="M1.5,68.4V17.9h46.5v50.5H1.5ZM2,18.4v49.5h45.5V18.4H2Z"/>
        <rect class="st2" x="10.7" y="18.1" width=".5" height="50"/>
        <rect class="st2" x="19.9" y="18.1" width=".5" height="50"/>
        <rect class="st2" x="29.1" y="18.1" width=".5" height="50"/>
        <rect class="st2" x="38.3" y="18.1" width=".5" height="50"/>
        <rect class="st2" x="1.8" y="30.4" width="46" height=".5"/>
        <rect class="st2" x="1.8" y="17.9" width="46" height=".5"/>
        <rect class="st2" x="1.8" y="42.9" width="46" height=".5"/>
        <rect class="st2" x="1.8" y="55.4" width="46" height=".5"/>
        <rect class="st2" x="1.8" y="67.9" width="46" height=".5"/>
      </g>
      <g>
        <circle class="st0" cx="47.8" cy="24.4" r="3"/>
        <circle class="st0" cx="29.4" cy="36.9" r="3"/>
        <circle class="st0" cx="38.6" cy="49.4" r="3"/>
      </g>
    </g>
    <g>
      <path class="st3" d="M1.2,8.2V1.7C1.2.8,2,0,2.9,0h3.5C7.4,0,8.1.8,8.1,1.7s-.2.5-.5.5-.5-.2-.5-.5-.3-.7-.7-.7h-3.5c-.4,0-.7.3-.7.7v6.5c0,.4.3.7.7.7h3.5c.4,0,.7-.3.7-.7s.2-.5.5-.5.5.2.5.5c0,.9-.8,1.7-1.7,1.7h-3.5c-.9,0-1.7-.8-1.7-1.7Z"/>
      <g>
        <path class="st3" d="M13.7,9.4v-4.7c0-.9.8-1.7,1.7-1.7h.9c.9,0,1.7.8,1.7,1.7v4.7c0,.3-.2.5-.5.5s-.5-.2-.5-.5v-4.7c0-.4-.3-.7-.7-.7h-.9c-.4,0-.7.3-.7.7v4.7c0,.3-.2.5-.5.5s-.5-.2-.5-.5Z"/>
        <path class="st3" d="M10.4,9.4v-4.7c0-.9.8-1.7,1.7-1.7h.9c.9,0,1.7.8,1.7,1.7s-.2.5-.5.5-.5-.2-.5-.5-.3-.7-.7-.7h-.9c-.4,0-.7.3-.7.7v4.7c0,.3-.2.5-.5.5s-.5-.2-.5-.5Z"/>
      </g>
    </g>
  </g>
  <g class="st1">
    <g>
      <g>
        <path class="st2" d="M1.5,68.4V17.9h46.5v50.5H1.5ZM2,18.4v49.5h45.5V18.4H2Z"/>
        <rect class="st2" x="10.7" y="18.1" width=".5" height="50"/>
        <rect class="st2" x="19.9" y="18.1" width=".5" height="50"/>
        <rect class="st2" x="29.1" y="18.1" width=".5" height="50"/>
        <rect class="st2" x="38.3" y="18.1" width=".5" height="50"/>
        <rect class="st2" x="1.8" y="30.4" width="46" height=".5"/>
        <rect class="st2" x="1.8" y="17.9" width="46" height=".5"/>
        <rect class="st2" x="1.8" y="42.9" width="46" height=".5"/>
        <rect class="st2" x="1.8" y="55.4" width="46" height=".5"/>
        <rect class="st2" x="1.8" y="67.9" width="46" height=".5"/>
      </g>
      <g>
        <circle class="st0" cx="20.2" cy="49.4" r="3"/>
        <circle class="st0" cx="29.4" cy="49.4" r="3"/>
        <circle class="st0" cx="38.6" cy="36.9" r="3"/>
        <circle class="st0" cx="11" cy="24.4" r="3"/>
        <circle class="st0" cx="47.8" cy="24.4" r="3"/>
      </g>
    </g>
    <g>
      <path class="st3" d="M1.2,8.2V1.7C1.2.8,2,0,2.9,0h3.5C7.4,0,8.1.8,8.1,1.7s-.2.5-.5.5-.5-.2-.5-.5-.3-.7-.7-.7h-3.5c-.4,0-.7.3-.7.7v6.5c0,.4.3.7.7.7h3.5c.4,0,.7-.3.7-.7s.2-.5.5-.5.5.2.5.5c0,.9-.8,1.7-1.7,1.7h-3.5c-.9,0-1.7-.8-1.7-1.7Z"/>
      <g>
        <path class="st3" d="M13.3,9.4v-4.7c0-.9.8-1.7,1.7-1.7h.9c.9,0,1.7.8,1.7,1.7v4.7c0,.3-.2.5-.5.5s-.5-.2-.5-.5v-4.7c0-.4-.3-.7-.7-.7h-.9c-.4,0-.7.3-.7.7v4.7c0,.3-.2.5-.5.5s-.5-.2-.5-.5Z"/>
        <path class="st3" d="M10,9.4v-4.7c0-.9.8-1.7,1.7-1.7h.9c.9,0,1.7.8,1.7,1.7s-.2.5-.5.5-.5-.2-.5-.5-.3-.7-.7-.7h-.9c-.4,0-.7.3-.7.7v4.7c0,.3-.2.5-.5.5s-.5-.2-.5-.5Z"/>
      </g>
    </g>
  </g>
  <g class="st1">
    <g>
      <g>
        <path class="st2" d="M1.5,68.4V17.9h46.5v50.5H1.5ZM2,18.4v49.5h45.5V18.4H2Z"/>
        <rect class="st2" x="10.7" y="18.1" width=".5" height="50"/>
        <rect class="st2" x="19.9" y="18.1" width=".5" height="50"/>
        <rect class="st2" x="29.1" y="18.1" width=".5" height="50"/>
        <rect class="st2" x="38.3" y="18.1" width=".5" height="50"/>
        <rect class="st2" x="1.8" y="30.4" width="46" height=".5"/>
        <rect class="st2" x="1.8" y="17.9" width="46" height=".5"/>
        <rect class="st2" x="1.8" y="42.9" width="46" height=".5"/>
        <rect class="st2" x="1.8" y="55.4" width="46" height=".5"/>
        <rect class="st2" x="1.8" y="67.9" width="46" height=".5"/>
      </g>
      <g>
        <circle class="st0" cx="47.8" cy="36.9" r="3"/>
        <circle class="st0" cx="29.4" cy="49.4" r="3"/>
        <circle class="st0" cx="20.2" cy="61.9" r="3"/>
        <circle class="st0" cx="38.6" cy="61.9" r="3"/>
      </g>
    </g>
    <g>
      <g>
        <path class="st3" d="M1.2,8.2V1.7c0-.9.8-1.7,1.7-1.7h3.5c.9,0,1.7.8,1.7,1.7s-.2.5-.5.5-.5-.2-.5-.5-.3-.7-.7-.7h-3.5c-.4,0-.7.3-.7.7v6.5c0,.4.3.7.7.7h3.5c.4,0,.7-.3.7-.7s.2-.5.5-.5.5.2.5.5c0,.9-.8,1.7-1.7,1.7h-3.5c-.9,0-1.7-.8-1.7-1.7Z"/>
        <path class="st3" d="M1.2,4.9c0-.3.2-.5.5-.5h4.6c.3,0,.5.2.5.5s-.2.5-.5.5H1.7c-.3,0-.5-.2-.5-.5Z"/>
      </g>
      <g>
        <path class="st3" d="M22.3,9.4v-4.7c0-.9.8-1.7,1.7-1.7h.9c.9,0,1.7.8,1.7,1.7v4.7c0,.3-.2.5-.5.5s-.5-.2-.5-.5v-4.7c0-.4-.3-.7-.7-.7h-.9c-.4,0-.7.3-.7.7v4.7c0,.3-.2.5-.5.5s-.5-.2-.5-.5Z"/>
        <path class="st3" d="M19,9.4v-4.7c0-.9.8-1.7,1.7-1.7h.9c.9,0,1.7.8,1.7,1.7s-.2.5-.5.5-.5-.2-.5-.5-.3-.7-.7-.7h-.9c-.4,0-.7.3-.7.7v4.7c0,.3-.2.5-.5.5s-.5-.2-.5-.5Z"/>
      </g>
      <g>
        <path class="st3" d="M10.1,9.4c0-.3.2-.5.5-.5h4.7c.4,0,.7-.3.7-.7v-2.1c0-.4-.3-.7-.7-.7h-4.7c-.3,0-.5-.2-.5-.5s.2-.5.5-.5h4.7c.9,0,1.7.8,1.7,1.7v2.1c0,.9-.8,1.7-1.7,1.7h-4.7c-.3,0-.5-.2-.5-.5Z"/>
        <path class="st3" d="M10.1,4.9c0-.3.2-.5.5-.5h4.7c.4,0,.7-.3.7-.7V1.7c0-.4-.3-.7-.7-.7h-4.7c-.3,0-.5-.2-.5-.5s.2-.5.5-.5h4.7c.9,0,1.7.8,1.7,1.7v2.1c0,.9-.8,1.7-1.7,1.7h-4.7c-.3,0-.5-.2-.5-.5Z"/>
        <path class="st3" d="M10.1,9.4V.5c0-.3.2-.5.5-.5s.5.2.5.5v8.9c0,.3-.2.5-.5.5s-.5-.2-.5-.5Z"/>
      </g>
    </g>
  </g>
  <g class="st1">
    <g>
      <g>
        <path class="st2" d="M2.8,68.4V17.9h46.5v50.5H2.8ZM3.3,18.4v49.5h45.5V18.4H3.3Z"/>
        <rect class="st2" x="12" y="18.1" width=".5" height="50"/>
        <rect class="st2" x="21.1" y="18.1" width=".5" height="50"/>
        <rect class="st2" x="30.3" y="18.1" width=".5" height="50"/>
        <rect class="st2" x="39.6" y="18.1" width=".5" height="50"/>
        <rect class="st2" x="3" y="30.4" width="46" height=".5"/>
        <rect class="st2" x="3" y="17.9" width="46" height=".5"/>
        <rect class="st2" x="3" y="42.9" width="46" height=".5"/>
        <rect class="st2" x="3" y="55.4" width="46" height=".5"/>
        <rect class="st2" x="3" y="67.9" width="46" height=".5"/>
      </g>
      <g>
        <circle class="st0" cx="21.4" cy="49.4" r="3"/>
        <circle class="st0" cx="12.2" cy="49.4" r="3"/>
        <circle class="st0" cx="30.6" cy="24.4" r="3"/>
        <circle class="st0" cx="39.8" cy="24.4" r="3"/>
        <circle class="st0" cx="49" cy="24.4" r="3"/>
        <circle class="st0" cx="3" cy="24.4" r="3"/>
      </g>
    </g>
    <g>
      <g>
        <path class="st3" d="M15,9.4v-4.7c0-.9.8-1.7,1.7-1.7h.9c.9,0,1.7.8,1.7,1.7v4.7c0,.3-.2.5-.5.5s-.5-.2-.5-.5v-4.7c0-.4-.3-.7-.7-.7h-.9c-.4,0-.7.3-.7.7v4.7c0,.3-.2.5-.5.5s-.5-.2-.5-.5Z"/>
        <path class="st3" d="M11.7,9.4v-4.7c0-.9.8-1.7,1.7-1.7h.9c.9,0,1.7.8,1.7,1.7s-.2.5-.5.5-.5-.2-.5-.5-.3-.7-.7-.7h-.9c-.4,0-.7.3-.7.7v4.7c0,.3-.2.5-.5.5s-.5-.2-.5-.5Z"/>
      </g>
      <path class="st3" d="M2.5,8.2V1.7C2.5.8,3.2,0,4.2,0h3.5c.9,0,1.7.8,1.7,1.7s-.2.5-.5.5-.5-.2-.5-.5-.3-.7-.7-.7h-3.5c-.4,0-.7.3-.7.7v6.5c0,.4.3.7.7.7h3.5c.4,0,.7-.3.7-.7v-2.1c0-.4-.3-.7-.7-.7h-2.5c-.3,0-.5-.2-.5-.5s.2-.5.5-.5h2.5c.9,0,1.7.8,1.7,1.7v2.1c0,.9-.8,1.7-1.7,1.7h-3.5c-.9,0-1.7-.8-1.7-1.7Z"/>
    </g>
  </g>
  <g class="st1">
    <g>
      <g>
        <path class="st2" d="M2.9,68.4V17.9h46.5v50.5H2.9ZM3.4,18.4v49.5h45.5V18.4H3.4Z"/>
        <rect class="st2" x="12.1" y="18.1" width=".5" height="50"/>
        <rect class="st2" x="21.3" y="18.1" width=".5" height="50"/>
        <rect class="st2" x="30.5" y="18.1" width=".5" height="50"/>
        <rect class="st2" x="39.7" y="18.1" width=".5" height="50"/>
        <rect class="st2" x="3.1" y="30.4" width="46" height=".5"/>
        <rect class="st2" x="3.1" y="17.9" width="46" height=".5"/>
        <rect class="st2" x="3.1" y="42.9" width="46" height=".5"/>
        <rect class="st2" x="3.1" y="55.4" width="46" height=".5"/>
        <rect class="st2" x="3.1" y="67.9" width="46" height=".5"/>
      </g>
      <g>
        <circle class="st0" cx="21.5" cy="36.9" r="3"/>
        <circle class="st0" cx="12.3" cy="36.9" r="3"/>
      </g>
    </g>
    <g>
      <g>
        <path class="st3" d="M15.1,9.4v-4.7c0-.9.8-1.7,1.7-1.7h.9c.9,0,1.7.8,1.7,1.7v4.7c0,.3-.2.5-.5.5s-.5-.2-.5-.5v-4.7c0-.4-.3-.7-.7-.7h-.9c-.4,0-.7.3-.7.7v4.7c0,.3-.2.5-.5.5s-.5-.2-.5-.5Z"/>
        <path class="st3" d="M11.8,9.4v-4.7c0-.9.8-1.7,1.7-1.7h.9c.9,0,1.7.8,1.7,1.7s-.2.5-.5.5-.5-.2-.5-.5-.3-.7-.7-.7h-.9c-.4,0-.7.3-.7.7v4.7c0,.3-.2.5-.5.5s-.5-.2-.5-.5Z"/>
      </g>
      <g>
        <path class="st3" d="M2.6,8.2V1.7c0-.9.8-1.7,1.7-1.7h3.5c.9,0,1.7.8,1.7,1.7s-.2.5-.5.5-.5-.2-.5-.5-.3-.7-.7-.7h-3.5c-.4,0-.7.3-.7.7v6.5c0,.4.3.7.7.7h3.5c.4,0,.7-.3.7-.7s.2-.5.5-.5.5.2.5.5c0,.9-.8,1.7-1.7,1.7h-3.5c-.9,0-1.7-.8-1.7-1.7Z"/>
        <path class="st3" d="M2.6,4.9c0-.3.2-.5.5-.5h4.6c.3,0,.5.2.5.5s-.2.5-.5.5H3.1c-.3,0-.5-.2-.5-.5Z"/>
      </g>
    </g>
  </g>
  <g class="st1">
    <g>
      <g>
        <path class="st2" d="M2.8,68.4V17.9h46.5v50.5H2.8ZM3.3,18.4v49.5h45.5V18.4H3.3Z"/>
        <rect class="st2" x="12" y="18.1" width=".5" height="50"/>
        <rect class="st2" x="21.1" y="18.1" width=".5" height="50"/>
        <rect class="st2" x="30.3" y="18.1" width=".5" height="50"/>
        <rect class="st2" x="39.6" y="18.1" width=".5" height="50"/>
        <rect class="st2" x="3" y="30.4" width="46" height=".5"/>
        <rect class="st2" x="3" y="17.9" width="46" height=".5"/>
        <rect class="st2" x="3" y="42.9" width="46" height=".5"/>
        <rect class="st2" x="3" y="55.4" width="46" height=".5"/>
        <rect class="st2" x="3" y="67.9" width="46" height=".5"/>
      </g>
      <g>
        <circle class="st0" cx="21.4" cy="61.9" r="3"/>
        <circle class="st0" cx="12.2" cy="61.9" r="3"/>
        <circle class="st0" cx="30.6" cy="36.9" r="3"/>
        <circle class="st0" cx="39.8" cy="36.9" r="3"/>
        <circle class="st0" cx="49" cy="36.9" r="3"/>
        <circle class="st0" cx="3" cy="36.9" r="3"/>
      </g>
    </g>
    <g>
      <g>
        <path class="st3" d="M23.5,9.4v-4.7c0-.9.8-1.7,1.7-1.7h.9c.9,0,1.7.8,1.7,1.7v4.7c0,.3-.2.5-.5.5s-.5-.2-.5-.5v-4.7c0-.4-.3-.7-.7-.7h-.9c-.4,0-.7.3-.7.7v4.7c0,.3-.2.5-.5.5s-.5-.2-.5-.5Z"/>
        <path class="st3" d="M20.2,9.4v-4.7c0-.9.8-1.7,1.7-1.7h.9c.9,0,1.7.8,1.7,1.7s-.2.5-.5.5-.5-.2-.5-.5-.3-.7-.7-.7h-.9c-.4,0-.7.3-.7.7v4.7c0,.3-.2.5-.5.5s-.5-.2-.5-.5Z"/>
      </g>
      <g>
        <g>
          <path class="st3" d="M11.8,9.4s0,0,0,0L13.6.6c0-.1.2-.2.3-.2.1,0,.2.2.2.3l-1.9,8.7c0,.1-.2.2-.3.2-.1,0-.2-.1-.2-.2Z"/>
          <path class="st3" d="M14.7,9.4s0,0,0,0l1.9-8.7c0-.1.2-.2.3-.2.1,0,.2.2.2.3l-1.9,8.7c0,.1-.2.2-.3.2-.1,0-.2-.1-.2-.2Z"/>
        </g>
        <g>
          <path class="st3" d="M10.6,6.4c0-.1.1-.2.2-.2h6.6c.1,0,.2.1.2.2s-.1.2-.2.2h-6.6c-.1,0-.2-.1-.2-.2Z"/>
          <path class="st3" d="M11.1,3.6c0-.1.1-.2.2-.2h6.6c.1,0,.2.1.2.2s-.1.2-.2.2h-6.6c-.1,0-.2-.1-.2-.2Z"/>
        </g>
      </g>
      <g>
        <path class="st3" d="M2.5,9.4V1.7C2.5.8,3.2,0,4.2,0h3.5c.9,0,1.7.8,1.7,1.7s-.2.5-.5.5-.5-.2-.5-.5-.3-.7-.7-.7h-3.5c-.4,0-.7.3-.7.7v7.7c0,.3-.2.5-.5.5s-.5-.2-.5-.5Z"/>
        <path class="st3" d="M2.5,4.9c0-.3.2-.5.5-.5h4.6c.3,0,.5.2.5.5s-.2.5-.5.5H3c-.3,0-.5-.2-.5-.5Z"/>
      </g>
    </g>
  </g>
  <g class="st1">
    <g>
      <g>
        <path class="st2" d="M2.8,68.4V17.9h46.5v50.5H2.8ZM3.3,18.4v49.5h45.5V18.4H3.3Z"/>
        <rect class="st2" x="12" y="18.1" width=".5" height="50"/>
        <rect class="st2" x="21.1" y="18.1" width=".5" height="50"/>
        <rect class="st2" x="30.3" y="18.1" width=".5" height="50"/>
        <rect class="st2" x="39.6" y="18.1" width=".5" height="50"/>
        <rect class="st2" x="3" y="30.4" width="46" height=".5"/>
        <rect class="st2" x="3" y="17.9" width="46" height=".5"/>
        <rect class="st2" x="3" y="42.9" width="46" height=".5"/>
        <rect class="st2" x="3" y="55.4" width="46" height=".5"/>
        <rect class="st2" x="3" y="67.9" width="46" height=".5"/>
      </g>
      <g>
        <circle class="st0" cx="21.4" cy="49.4" r="3"/>
        <circle class="st0" cx="12.2" cy="49.4" r="3"/>
        <circle class="st0" cx="30.6" cy="24.4" r="3"/>
        <circle class="st0" cx="39.8" cy="24.4" r="3"/>
        <circle class="st0" cx="49" cy="24.4" r="3"/>
        <circle class="st0" cx="3" cy="24.4" r="3"/>
      </g>
    </g>
    <g>
      <g>
        <path class="st3" d="M15,9.4v-4.7c0-.9.8-1.7,1.7-1.7h.9c.9,0,1.7.8,1.7,1.7v4.7c0,.3-.2.5-.5.5s-.5-.2-.5-.5v-4.7c0-.4-.3-.7-.7-.7h-.9c-.4,0-.7.3-.7.7v4.7c0,.3-.2.5-.5.5s-.5-.2-.5-.5Z"/>
        <path class="st3" d="M11.7,9.4v-4.7c0-.9.8-1.7,1.7-1.7h.9c.9,0,1.7.8,1.7,1.7s-.2.5-.5.5-.5-.2-.5-.5-.3-.7-.7-.7h-.9c-.4,0-.7.3-.7.7v4.7c0,.3-.2.5-.5.5s-.5-.2-.5-.5Z"/>
      </g>
      <g>
        <path class="st3" d="M2.5,9.4V1.7C2.5.8,3.2,0,4.2,0h3.5c.9,0,1.7.8,1.7,1.7s-.2.5-.5.5-.5-.2-.5-.5-.3-.7-.7-.7h-3.5c-.4,0-.7.3-.7.7v7.7c0,.3-.2.5-.5.5s-.5-.2-.5-.5Z"/>
        <path class="st3" d="M2.5,4.9c0-.3.2-.5.5-.5h4.6c.3,0,.5.2.5.5s-.2.5-.5.5H3c-.3,0-.5-.2-.5-.5Z"/>
      </g>
    </g>
  </g>
  <g class="st1">
    <g>
      <g>
        <path class="st2" d="M1.4,68.4V17.9h46.5v50.5H1.4ZM1.9,18.4v49.5h45.5V18.4H1.9Z"/>
        <rect class="st2" x="10.6" y="18.1" width=".5" height="50"/>
        <rect class="st2" x="19.8" y="18.1" width=".5" height="50"/>
        <rect class="st2" x="29" y="18.1" width=".5" height="50"/>
        <rect class="st2" x="38.2" y="18.1" width=".5" height="50"/>
        <rect class="st2" x="1.6" y="30.4" width="46" height=".5"/>
        <rect class="st2" x="1.6" y="17.9" width="46" height=".5"/>
        <rect class="st2" x="1.6" y="42.9" width="46" height=".5"/>
        <rect class="st2" x="1.6" y="55.4" width="46" height=".5"/>
        <rect class="st2" x="1.6" y="67.9" width="46" height=".5"/>
      </g>
      <g>
        <circle class="st0" cx="20" cy="24.4" r="3"/>
        <circle class="st0" cx="29.2" cy="24.4" r="3"/>
        <circle class="st0" cx="38.4" cy="24.4" r="3"/>
        <circle class="st0" cx="47.6" cy="36.9" r="3"/>
      </g>
    </g>
    <g>
      <g>
        <path class="st3" d="M14.2,8.2v-3.5c0-.9.8-1.7,1.7-1.7h1.9c.9,0,1.7.8,1.7,1.7v3.5c0,.9-.8,1.7-1.7,1.7h-1.9c-.9,0-1.7-.8-1.7-1.7ZM18.4,4.7c0-.4-.3-.7-.7-.7h-1.9c-.4,0-.7.3-.7.7v3.5c0,.4.3.7.7.7h1.9c.4,0,.7-.3.7-.7v-3.5Z"/>
        <path class="st3" d="M14.2,9.4V.5C14.2.2,14.4,0,14.7,0s.5.2.5.5v8.9c0,.3-.2.5-.5.5s-.5-.2-.5-.5Z"/>
      </g>
      <g>
        <path class="st3" d="M4.1,9.4c0,0,0-.1,0-.2L7.5.3C7.6.1,7.8,0,8,0s.4.1.5.3l3.4,8.9c0,.3,0,.5-.3.6-.3,0-.5,0-.6-.3L8,1.9l-2.9,7.6c0,.3-.4.4-.6.3-.2,0-.3-.3-.3-.5Z"/>
        <path class="st3" d="M5.2,6.5c0-.3.2-.5.5-.5h4.6c.3,0,.5.2.5.5s-.2.5-.5.5h-4.6c-.3,0-.5-.2-.5-.5Z"/>
      </g>
      <path class="st3" d="M21.2,1.7C21.2.8,21.9,0,22.9,0h4.7c.2,0,.3,0,.4.2,0,.1.1.3,0,.4l-2.9,8.9c0,.3-.4.4-.6.3-.3,0-.4-.4-.3-.6l2.7-8.2h-4c-.4,0-.7.3-.7.7s-.2.5-.5.5-.5-.2-.5-.5Z"/>
    </g>
  </g>
  <g class="st1">
    <g>
      <g>
        <path class="st2" d="M1.4,68.4V17.9h46.5v50.5H1.4ZM1.9,18.4v49.5h45.5V18.4H1.9Z"/>
        <rect class="st2" x="10.6" y="18.1" width=".5" height="50"/>
        <rect class="st2" x="19.8" y="18.1" width=".5" height="50"/>
        <rect class="st2" x="29" y="18.1" width=".5" height="50"/>
        <rect class="st2" x="38.2" y="18.1" width=".5" height="50"/>
        <rect class="st2" x="1.6" y="30.4" width="46" height=".5"/>
        <rect class="st2" x="1.6" y="17.9" width="46" height=".5"/>
        <rect class="st2" x="1.6" y="42.9" width="46" height=".5"/>
        <rect class="st2" x="1.6" y="55.4" width="46" height=".5"/>
        <rect class="st2" x="1.6" y="67.9" width="46" height=".5"/>
      </g>
      <g>
        <circle class="st0" cx="20" cy="24.4" r="3"/>
        <circle class="st0" cx="29.2" cy="24.4" r="3"/>
        <circle class="st0" cx="38.4" cy="24.4" r="3"/>
        <circle class="st0" cx="47.6" cy="36.9" r="3"/>
      </g>
    </g>
    <g>
      <g>
        <path class="st3" d="M4.1,9.4c0-.3.2-.5.5-.5h4.7c.4,0,.7-.3.7-.7v-2.1c0-.4-.3-.7-.7-.7h-4.7c-.3,0-.5-.2-.5-.5s.2-.5.5-.5h4.7c.9,0,1.7.8,1.7,1.7v2.1c0,.9-.8,1.7-1.7,1.7h-4.7c-.3,0-.5-.2-.5-.5Z"/>
        <path class="st3" d="M4.1,4.9c0-.3.2-.5.5-.5h4.7c.4,0,.7-.3.7-.7V1.7c0-.4-.3-.7-.7-.7h-4.7c-.3,0-.5-.2-.5-.5S4.3,0,4.6,0h4.7C10.2,0,11,.8,11,1.7v2.1c0,.9-.8,1.7-1.7,1.7h-4.7c-.3,0-.5-.2-.5-.5Z"/>
        <path class="st3" d="M4.1,9.4V.5C4.1.2,4.3,0,4.6,0s.5.2.5.5v8.9c0,.3-.2.5-.5.5s-.5-.2-.5-.5Z"/>
      </g>
      <g>
        <path class="st3" d="M13.7,8.2v-3.5c0-.9.8-1.7,1.7-1.7h1.9c.9,0,1.7.8,1.7,1.7v3.5c0,.9-.8,1.7-1.7,1.7h-1.9c-.9,0-1.7-.8-1.7-1.7ZM18,4.7c0-.4-.3-.7-.7-.7h-1.9c-.4,0-.7.3-.7.7v3.5c0,.4.3.7.7.7h1.9c.4,0,.7-.3.7-.7v-3.5Z"/>
        <path class="st3" d="M13.7,9.4V.5C13.7.2,14,0,14.2,0s.5.2.5.5v8.9c0,.3-.2.5-.5.5s-.5-.2-.5-.5Z"/>
      </g>
      <path class="st3" d="M20.7,1.7C20.7.8,21.5,0,22.4,0h4.7c.2,0,.3,0,.4.2,0,.1.1.3,0,.4l-2.9,8.9c0,.3-.4.4-.6.3-.3,0-.4-.4-.3-.6l2.7-8.2h-4c-.4,0-.7.3-.7.7s-.2.5-.5.5-.5-.2-.5-.5Z"/>
    </g>
  </g>
  <g class="st1">
    <g>
      <g>
        <path class="st2" d="M1.4,68.4V17.9h46.5v50.5H1.4ZM1.9,18.4v49.5h45.5V18.4H1.9Z"/>
        <rect class="st2" x="10.6" y="18.1" width=".5" height="50"/>
        <rect class="st2" x="19.8" y="18.1" width=".5" height="50"/>
        <rect class="st2" x="29" y="18.1" width=".5" height="50"/>
        <rect class="st2" x="38.2" y="18.1" width=".5" height="50"/>
        <rect class="st2" x="1.6" y="30.4" width="46" height=".5"/>
        <rect class="st2" x="1.6" y="17.9" width="46" height=".5"/>
        <rect class="st2" x="1.6" y="42.9" width="46" height=".5"/>
        <rect class="st2" x="1.6" y="55.4" width="46" height=".5"/>
        <rect class="st2" x="1.6" y="67.9" width="46" height=".5"/>
      </g>
      <g>
        <circle class="st0" cx="20" cy="49.4" r="3"/>
        <circle class="st0" cx="29.2" cy="61.9" r="3"/>
        <circle class="st0" cx="47.6" cy="61.9" r="3"/>
        <circle class="st0" cx="38.4" cy="36.9" r="3"/>
      </g>
    </g>
    <g>
      <path class="st3" d="M4.1,9.4V.5C4.1.2,4.3,0,4.6,0h3.5C9.7,0,11,1.3,11,2.9v4.2c0,1.6-1.3,2.9-2.9,2.9h-3.5c-.3,0-.5-.2-.5-.5ZM5.1,1v7.9h3c1,0,1.9-.8,1.9-1.9V2.9c0-1-.8-1.9-1.9-1.9h-3Z"/>
      <g>
        <path class="st3" d="M14.2,8.2v-3.5c0-.9.8-1.7,1.7-1.7h1.9c.9,0,1.7.8,1.7,1.7v3.5c0,.9-.8,1.7-1.7,1.7h-1.9c-.9,0-1.7-.8-1.7-1.7ZM18.4,4.7c0-.4-.3-.7-.7-.7h-1.9c-.4,0-.7.3-.7.7v3.5c0,.4.3.7.7.7h1.9c.4,0,.7-.3.7-.7v-3.5Z"/>
        <path class="st3" d="M14.2,9.4V.5C14.2.2,14.4,0,14.7,0s.5.2.5.5v8.9c0,.3-.2.5-.5.5s-.5-.2-.5-.5Z"/>
      </g>
      <path class="st3" d="M21.2,1.7C21.2.8,21.9,0,22.9,0h4.7c.2,0,.3,0,.4.2,0,.1.1.3,0,.4l-2.9,8.9c0,.3-.4.4-.6.3-.3,0-.4-.4-.3-.6l2.7-8.2h-4c-.4,0-.7.3-.7.7s-.2.5-.5.5-.5-.2-.5-.5Z"/>
    </g>
  </g>
  <g class="st1">
    <g>
      <g>
        <path class="st2" d="M1.4,68.4V17.9h46.5v50.5H1.4ZM1.9,18.4v49.5h45.5V18.4H1.9Z"/>
        <rect class="st2" x="10.6" y="18.1" width=".5" height="50"/>
        <rect class="st2" x="19.8" y="18.1" width=".5" height="50"/>
        <rect class="st2" x="29" y="18.1" width=".5" height="50"/>
        <rect class="st2" x="38.2" y="18.1" width=".5" height="50"/>
        <rect class="st2" x="1.6" y="30.4" width="46" height=".5"/>
        <rect class="st2" x="1.6" y="17.9" width="46" height=".5"/>
        <rect class="st2" x="1.6" y="42.9" width="46" height=".5"/>
        <rect class="st2" x="1.6" y="55.4" width="46" height=".5"/>
        <rect class="st2" x="1.6" y="67.9" width="46" height=".5"/>
      </g>
      <g>
        <circle class="st0" cx="20" cy="36.9" r="3"/>
        <circle class="st0" cx="29.2" cy="36.9" r="3"/>
        <circle class="st0" cx="38.4" cy="36.9" r="3"/>
        <circle class="st0" cx="47.6" cy="49.4" r="3"/>
      </g>
    </g>
    <g>
      <g>
        <path class="st3" d="M4.1,9.4c0,0,0-.1,0-.2L7.5.3C7.6.1,7.8,0,8,0s.4.1.5.3l3.4,8.9c0,.3,0,.5-.3.6-.3,0-.5,0-.6-.3L8,1.9l-2.9,7.6c0,.3-.4.4-.6.3-.2,0-.3-.3-.3-.5Z"/>
        <path class="st3" d="M5.2,6.5c0-.3.2-.5.5-.5h4.6c.3,0,.5.2.5.5s-.2.5-.5.5h-4.6c-.3,0-.5-.2-.5-.5Z"/>
      </g>
      <path class="st3" d="M13.2,1.7C13.2.8,14,0,14.9,0h4.7c.2,0,.3,0,.4.2,0,.1.1.3,0,.4l-2.9,8.9c0,.3-.4.4-.6.3-.3,0-.4-.4-.3-.6l2.7-8.2h-4c-.4,0-.7.3-.7.7s-.2.5-.5.5-.5-.2-.5-.5Z"/>
    </g>
  </g>
  <g class="st1">
    <g>
      <g>
        <path class="st2" d="M1.4,68.4V17.9h46.5v50.5H1.4ZM1.9,18.4v49.5h45.5V18.4H1.9Z"/>
        <rect class="st2" x="10.6" y="18.1" width=".5" height="50"/>
        <rect class="st2" x="19.8" y="18.1" width=".5" height="50"/>
        <rect class="st2" x="29" y="18.1" width=".5" height="50"/>
        <rect class="st2" x="38.2" y="18.1" width=".5" height="50"/>
        <rect class="st2" x="1.6" y="30.4" width="46" height=".5"/>
        <rect class="st2" x="1.6" y="17.9" width="46" height=".5"/>
        <rect class="st2" x="1.6" y="42.9" width="46" height=".5"/>
        <rect class="st2" x="1.6" y="55.4" width="46" height=".5"/>
        <rect class="st2" x="1.6" y="67.9" width="46" height=".5"/>
      </g>
      <g>
        <circle class="st0" cx="20" cy="24.4" r="3"/>
        <circle class="st0" cx="29.2" cy="36.9" r="3"/>
        <circle class="st0" cx="10.8" cy="36.9" r="3"/>
        <circle class="st0" cx="47.6" cy="36.9" r="3"/>
      </g>
    </g>
    <g>
      <g>
        <path class="st3" d="M4.1,9.4c0-.3.2-.5.5-.5h4.7c.4,0,.7-.3.7-.7v-2.1c0-.4-.3-.7-.7-.7h-4.7c-.3,0-.5-.2-.5-.5s.2-.5.5-.5h4.7c.9,0,1.7.8,1.7,1.7v2.1c0,.9-.8,1.7-1.7,1.7h-4.7c-.3,0-.5-.2-.5-.5Z"/>
        <path class="st3" d="M4.1,4.9c0-.3.2-.5.5-.5h4.7c.4,0,.7-.3.7-.7V1.7c0-.4-.3-.7-.7-.7h-4.7c-.3,0-.5-.2-.5-.5S4.3,0,4.6,0h4.7C10.2,0,11,.8,11,1.7v2.1c0,.9-.8,1.7-1.7,1.7h-4.7c-.3,0-.5-.2-.5-.5Z"/>
        <path class="st3" d="M4.1,9.4V.5C4.1.2,4.3,0,4.6,0s.5.2.5.5v8.9c0,.3-.2.5-.5.5s-.5-.2-.5-.5Z"/>
      </g>
      <path class="st3" d="M12.8,1.7C12.8.8,13.5,0,14.5,0h4.7c.2,0,.3,0,.4.2,0,.1.1.3,0,.4l-2.9,8.9c0,.3-.4.4-.6.3-.3,0-.4-.4-.3-.6l2.7-8.2h-4c-.4,0-.7.3-.7.7s-.2.5-.5.5-.5-.2-.5-.5Z"/>
    </g>
  </g>
  <g class="st1">
    <g>
      <g>
        <path class="st2" d="M1.4,68.4V17.9h46.5v50.5H1.4ZM1.9,18.4v49.5h45.5V18.4H1.9Z"/>
        <rect class="st2" x="10.6" y="18.1" width=".5" height="50"/>
        <rect class="st2" x="19.8" y="18.1" width=".5" height="50"/>
        <rect class="st2" x="29" y="18.1" width=".5" height="50"/>
        <rect class="st2" x="38.2" y="18.1" width=".5" height="50"/>
        <rect class="st2" x="1.6" y="30.4" width="46" height=".5"/>
        <rect class="st2" x="1.6" y="17.9" width="46" height=".5"/>
        <rect class="st2" x="1.6" y="42.9" width="46" height=".5"/>
        <rect class="st2" x="1.6" y="55.4" width="46" height=".5"/>
        <rect class="st2" x="1.6" y="67.9" width="46" height=".5"/>
      </g>
      <g>
        <circle class="st0" cx="29.2" cy="36.9" r="3"/>
        <circle class="st0" cx="47.6" cy="36.9" r="3"/>
        <circle class="st0" cx="38.4" cy="24.4" r="3"/>
      </g>
    </g>
    <g>
      <path class="st3" d="M4.1,9.4V.5C4.1.2,4.3,0,4.6,0h3.5C9.7,0,11,1.3,11,2.9v4.2c0,1.6-1.3,2.9-2.9,2.9h-3.5c-.3,0-.5-.2-.5-.5ZM5.1,1v7.9h3c1,0,1.9-.8,1.9-1.9V2.9c0-1-.8-1.9-1.9-1.9h-3Z"/>
      <path class="st3" d="M12.8,1.7C12.8.8,13.5,0,14.5,0h4.7c.2,0,.3,0,.4.2,0,.1.1.3,0,.5l-2.9,8.9c0,.3-.4.4-.6.3s-.4-.4-.3-.6l2.7-8.2h-4c-.4,0-.7.3-.7.7s-.2.5-.5.5-.5-.2-.5-.5Z"/>
    </g>
  </g>
  <g class="st1">
    <g>
      <g>
        <path class="st2" d="M2.7,68.4V17.9h46.5v50.5H2.7ZM3.2,18.4v49.5h45.5V18.4H3.2Z"/>
        <rect class="st2" x="12" y="18.1" width=".5" height="50"/>
        <rect class="st2" x="21.2" y="18.1" width=".5" height="50"/>
        <rect class="st2" x="30.3" y="18.1" width=".5" height="50"/>
        <rect class="st2" x="39.5" y="18.1" width=".5" height="50"/>
        <rect class="st2" x="3" y="30.4" width="46" height=".5"/>
        <rect class="st2" x="3" y="17.9" width="46" height=".5"/>
        <rect class="st2" x="3" y="42.9" width="46" height=".5"/>
        <rect class="st2" x="3" y="55.4" width="46" height=".5"/>
        <rect class="st2" x="3" y="67.9" width="46" height=".5"/>
      </g>
      <g>
        <circle class="st0" cx="21.4" cy="36.9" r="3"/>
        <circle class="st0" cx="30.6" cy="49.4" r="3"/>
        <circle class="st0" cx="12.2" cy="49.4" r="3"/>
        <circle class="st0" cx="39.8" cy="24.4" r="3"/>
      </g>
    </g>
    <g>
      <path class="st3" d="M5.5,8.2V1.7C5.5.8,6.2,0,7.2,0h3.5C11.6,0,12.4.8,12.4,1.7s-.2.5-.5.5-.5-.2-.5-.5-.3-.7-.7-.7h-3.5c-.4,0-.7.3-.7.7v6.5c0,.4.3.7.7.7h3.5c.4,0,.7-.3.7-.7s.2-.5.5-.5.5.2.5.5c0,.9-.8,1.7-1.7,1.7h-3.5c-.9,0-1.7-.8-1.7-1.7Z"/>
      <path class="st3" d="M16,1.7C16,.8,16.8,0,17.7,0h4.7c.2,0,.3,0,.4.2,0,.1.1.3,0,.4l-2.9,8.9c0,.3-.4.4-.6.3-.3,0-.4-.4-.3-.6l2.7-8.2h-4c-.4,0-.7.3-.7.7s-.2.5-.5.5-.5-.2-.5-.5Z"/>
    </g>
  </g>
  <g class="st1">
    <g>
      <g>
        <path class="st2" d="M1.4,68.4V17.9h46.5v50.5H1.4ZM1.9,18.4v49.5h45.5V18.4H1.9Z"/>
        <rect class="st2" x="10.6" y="18.1" width=".5" height="50"/>
        <rect class="st2" x="19.8" y="18.1" width=".5" height="50"/>
        <rect class="st2" x="29" y="18.1" width=".5" height="50"/>
        <rect class="st2" x="38.2" y="18.1" width=".5" height="50"/>
        <rect class="st2" x="1.6" y="30.4" width="46" height=".5"/>
        <rect class="st2" x="1.6" y="17.9" width="46" height=".5"/>
        <rect class="st2" x="1.6" y="42.9" width="46" height=".5"/>
        <rect class="st2" x="1.6" y="55.4" width="46" height=".5"/>
        <rect class="st2" x="1.6" y="67.9" width="46" height=".5"/>
      </g>
      <g>
        <circle class="st0" cx="29.2" cy="49.4" r="3"/>
        <circle class="st0" cx="20" cy="24.4" r="3"/>
        <circle class="st0" cx="47.6" cy="49.4" r="3"/>
        <circle class="st0" cx="38.4" cy="36.9" r="3"/>
      </g>
    </g>
    <g>
      <g>
        <path class="st3" d="M4.1,8.2V1.7c0-.9.8-1.7,1.7-1.7h3.5c.9,0,1.7.8,1.7,1.7s-.2.5-.5.5-.5-.2-.5-.5-.3-.7-.7-.7h-3.5c-.4,0-.7.3-.7.7v6.5c0,.4.3.7.7.7h3.5c.4,0,.7-.3.7-.7s.2-.5.5-.5.5.2.5.5c0,.9-.8,1.7-1.7,1.7h-3.5c-.9,0-1.7-.8-1.7-1.7Z"/>
        <path class="st3" d="M4.1,4.9c0-.3.2-.5.5-.5h4.6c.3,0,.5.2.5.5s-.2.5-.5.5h-4.6c-.3,0-.5-.2-.5-.5Z"/>
      </g>
      <g>
        <path class="st3" d="M14.2,8.2v-3.5c0-.9.8-1.7,1.7-1.7h1.9c.9,0,1.7.8,1.7,1.7v3.5c0,.9-.8,1.7-1.7,1.7h-1.9c-.9,0-1.7-.8-1.7-1.7ZM18.4,4.7c0-.4-.3-.7-.7-.7h-1.9c-.4,0-.7.3-.7.7v3.5c0,.4.3.7.7.7h1.9c.4,0,.7-.3.7-.7v-3.5Z"/>
        <path class="st3" d="M14.2,9.4V.5c0-.3.2-.5.5-.5s.5.2.5.5v8.9c0,.3-.2.5-.5.5s-.5-.2-.5-.5Z"/>
      </g>
      <path class="st3" d="M21.2,1.7c0-.9.8-1.7,1.7-1.7h4.7c.2,0,.3,0,.4.2,0,.1.1.3,0,.5l-2.9,8.9c0,.3-.4.4-.6.3-.3,0-.4-.4-.3-.6l2.7-8.2h-4c-.4,0-.7.3-.7.7s-.2.5-.5.5-.5-.2-.5-.5Z"/>
    </g>
  </g>
  <g class="st1">
    <g>
      <g>
        <path class="st2" d="M2.7,68.4V17.9h46.5v50.5H2.7ZM3.2,18.4v49.5h45.5V18.4H3.2Z"/>
        <rect class="st2" x="12" y="18.1" width=".5" height="50"/>
        <rect class="st2" x="21.2" y="18.1" width=".5" height="50"/>
        <rect class="st2" x="30.3" y="18.1" width=".5" height="50"/>
        <rect class="st2" x="39.5" y="18.1" width=".5" height="50"/>
        <rect class="st2" x="3" y="30.4" width="46" height=".5"/>
        <rect class="st2" x="3" y="17.9" width="46" height=".5"/>
        <rect class="st2" x="3" y="42.9" width="46" height=".5"/>
        <rect class="st2" x="3" y="55.4" width="46" height=".5"/>
        <rect class="st2" x="3" y="67.9" width="46" height=".5"/>
      </g>
      <g>
        <circle class="st0" cx="3" cy="49.4" r="3"/>
        <circle class="st0" cx="12.2" cy="36.9" r="3"/>
        <circle class="st0" cx="49" cy="24.4" r="3"/>
      </g>
    </g>
    <g>
      <path class="st3" d="M14.6,1.7C14.6.8,15.4,0,16.3,0h4.7c.2,0,.3,0,.4.2,0,.1.1.3,0,.5l-2.9,8.9c0,.3-.4.4-.6.3s-.4-.4-.3-.6l2.7-8.2h-4c-.4,0-.7.3-.7.7s-.2.5-.5.5-.5-.2-.5-.5Z"/>
      <path class="st3" d="M5.5,8.2V1.7C5.5.8,6.2,0,7.2,0h3.5c.9,0,1.7.8,1.7,1.7s-.2.5-.5.5-.5-.2-.5-.5-.3-.7-.7-.7h-3.5c-.4,0-.7.3-.7.7v6.5c0,.4.3.7.7.7h3.5c.4,0,.7-.3.7-.7v-2.1c0-.4-.3-.7-.7-.7h-2.5c-.3,0-.5-.2-.5-.5s.2-.5.5-.5h2.5c.9,0,1.7.8,1.7,1.7v2.1c0,.9-.8,1.7-1.7,1.7h-3.5c-.9,0-1.7-.8-1.7-1.7Z"/>
    </g>
  </g>
  <g class="st1">
    <g>
      <g>
        <path class="st2" d="M2.7,68.4V17.9h46.5v50.5H2.7ZM3.2,18.4v49.5h45.5V18.4H3.2Z"/>
        <rect class="st2" x="12" y="18.1" width=".5" height="50"/>
        <rect class="st2" x="21.2" y="18.1" width=".5" height="50"/>
        <rect class="st2" x="30.3" y="18.1" width=".5" height="50"/>
        <rect class="st2" x="39.5" y="18.1" width=".5" height="50"/>
        <rect class="st2" x="3" y="30.4" width="46" height=".5"/>
        <rect class="st2" x="3" y="17.9" width="46" height=".5"/>
        <rect class="st2" x="3" y="42.9" width="46" height=".5"/>
        <rect class="st2" x="3" y="55.4" width="46" height=".5"/>
        <rect class="st2" x="3" y="67.9" width="46" height=".5"/>
      </g>
      <g>
        <circle class="st0" cx="30.6" cy="24.4" r="3"/>
        <circle class="st0" cx="21.4" cy="36.9" r="3"/>
        <circle class="st0" cx="12.2" cy="36.9" r="3"/>
        <circle class="st0" cx="39.8" cy="49.4" r="3"/>
      </g>
    </g>
    <g>
      <path class="st3" d="M14.6,1.7c0-.9.8-1.7,1.7-1.7h4.7c.2,0,.3,0,.4.2,0,.1.1.3,0,.5l-2.9,8.9c0,.3-.4.4-.6.3-.3,0-.4-.4-.3-.6l2.7-8.2h-4c-.4,0-.7.3-.7.7s-.2.5-.5.5-.5-.2-.5-.5Z"/>
      <g>
        <path class="st3" d="M5.5,8.2V1.7c0-.9.8-1.7,1.7-1.7h3.5c.9,0,1.7.8,1.7,1.7s-.2.5-.5.5-.5-.2-.5-.5-.3-.7-.7-.7h-3.5c-.4,0-.7.3-.7.7v6.5c0,.4.3.7.7.7h3.5c.4,0,.7-.3.7-.7s.2-.5.5-.5.5.2.5.5c0,.9-.8,1.7-1.7,1.7h-3.5c-.9,0-1.7-.8-1.7-1.7Z"/>
        <path class="st3" d="M5.5,4.9c0-.3.2-.5.5-.5h4.6c.3,0,.5.2.5.5s-.2.5-.5.5h-4.6c-.3,0-.5-.2-.5-.5Z"/>
      </g>
    </g>
  </g>
  <g class="st1">
    <g>
      <g>
        <path class="st2" d="M2.7,68.4V17.9h46.5v50.5H2.7ZM3.2,18.4v49.5h45.5V18.4H3.2Z"/>
        <rect class="st2" x="12" y="18.1" width=".5" height="50"/>
        <rect class="st2" x="21.2" y="18.1" width=".5" height="50"/>
        <rect class="st2" x="30.3" y="18.1" width=".5" height="50"/>
        <rect class="st2" x="39.5" y="18.1" width=".5" height="50"/>
        <rect class="st2" x="3" y="30.4" width="46" height=".5"/>
        <rect class="st2" x="3" y="17.9" width="46" height=".5"/>
        <rect class="st2" x="3" y="42.9" width="46" height=".5"/>
        <rect class="st2" x="3" y="55.4" width="46" height=".5"/>
        <rect class="st2" x="3" y="67.9" width="46" height=".5"/>
      </g>
      <g>
        <circle class="st0" cx="30.6" cy="49.4" r="3"/>
        <circle class="st0" cx="21.4" cy="61.9" r="3"/>
        <circle class="st0" cx="39.8" cy="36.9" r="3"/>
      </g>
    </g>
    <g>
      <path class="st3" d="M22.6,1.7C22.6.8,23.3,0,24.2,0h4.7c.2,0,.3,0,.4.2,0,.1.1.3,0,.5l-2.9,8.9c0,.3-.4.4-.6.3-.3,0-.4-.4-.3-.6l2.7-8.2h-4c-.4,0-.7.3-.7.7s-.2.5-.5.5-.5-.2-.5-.5Z"/>
      <g>
        <g>
          <path class="st3" d="M14.2,9.4s0,0,0,0l1.8-8.7c0-.1.2-.2.3-.2.1,0,.2.2.2.3l-1.8,8.7c0,.1-.2.2-.3.2-.1,0-.2-.1-.2-.2Z"/>
          <path class="st3" d="M17.2,9.4s0,0,0,0l1.8-8.7c0-.1.2-.2.3-.2.1,0,.2.2.2.3l-1.8,8.7c0,.1-.2.2-.3.2-.1,0-.2-.1-.2-.2Z"/>
        </g>
        <g>
          <path class="st3" d="M13,6.4c0-.1.1-.2.2-.2h6.6c.1,0,.2.1.2.2s-.1.2-.2.2h-6.6c-.1,0-.2-.1-.2-.2Z"/>
          <path class="st3" d="M13.6,3.6c0-.1.1-.2.2-.2h6.6c.1,0,.2.1.2.2s-.1.2-.2.2h-6.6c-.1,0-.2-.1-.2-.2Z"/>
        </g>
      </g>
      <g>
        <path class="st3" d="M5.5,9.4V1.7C5.5.8,6.2,0,7.2,0h3.5c.9,0,1.7.8,1.7,1.7s-.2.5-.5.5-.5-.2-.5-.5-.3-.7-.7-.7h-3.5c-.4,0-.7.3-.7.7v7.7c0,.3-.2.5-.5.5s-.5-.2-.5-.5Z"/>
        <path class="st3" d="M5.5,4.9c0-.3.2-.5.5-.5h4.6c.3,0,.5.2.5.5s-.2.5-.5.5h-4.6c-.3,0-.5-.2-.5-.5Z"/>
      </g>
    </g>
  </g>
  <g>
    <g>
      <g>
        <path class="st2" d="M2.7,68.4V17.9h46.5v50.5H2.7ZM3.2,18.4v49.5h45.5V18.4H3.2Z"/>
        <rect class="st2" x="12" y="18.1" width=".5" height="50"/>
        <rect class="st2" x="21.2" y="18.1" width=".5" height="50"/>
        <rect class="st2" x="30.3" y="18.1" width=".5" height="50"/>
        <rect class="st2" x="39.5" y="18.1" width=".5" height="50"/>
        <rect class="st2" x="3" y="30.4" width="46" height=".5"/>
        <rect class="st2" x="3" y="17.9" width="46" height=".5"/>
        <rect class="st2" x="3" y="42.9" width="46" height=".5"/>
        <rect class="st2" x="3" y="55.4" width="46" height=".5"/>
        <rect class="st2" x="3" y="67.9" width="46" height=".5"/>
      </g>
      <g>
        <circle class="st0" cx="30.6" cy="36.9" r="3"/>
        <circle class="st0" cx="21.4" cy="24.4" r="3"/>
        <circle class="st0" cx="3" cy="24.4" r="3"/>
        <circle class="st0" cx="12.2" cy="49.4" r="3"/>
        <circle class="st0" cx="39.8" cy="24.4" r="3"/>
        <circle class="st0" cx="49" cy="24.4" r="3"/>
      </g>
    </g>
    <g>
      <path class="st3" d="M14.6,1.7C14.6.8,15.4,0,16.3,0h4.7c.2,0,.3,0,.4.2,0,.1.1.3,0,.5l-2.9,8.9c0,.3-.4.4-.6.3s-.4-.4-.3-.6l2.7-8.2h-4c-.4,0-.7.3-.7.7s-.2.5-.5.5-.5-.2-.5-.5Z"/>
      <g>
        <path class="st3" d="M5.5,9.4V1.7C5.5.8,6.2,0,7.2,0h3.5c.9,0,1.7.8,1.7,1.7s-.2.5-.5.5-.5-.2-.5-.5-.3-.7-.7-.7h-3.5c-.4,0-.7.3-.7.7v7.7c0,.3-.2.5-.5.5s-.5-.2-.5-.5Z"/>
        <path class="st3" d="M5.5,4.9c0-.3.2-.5.5-.5h4.6c.3,0,.5.2.5.5s-.2.5-.5.5h-4.6c-.3,0-.5-.2-.5-.5Z"/>
      </g>
    </g>
  </g>
</svg>