<?xml version="1.0" encoding="UTF-8"?>
<svg xmlns="http://www.w3.org/2000/svg" version="1.1" viewBox="0 0 800 800">
  <!-- Generator: Adobe Illustrator 29.7.1, SVG Export Plug-In . SVG Version: 2.1.1 Build 8)  -->
  <defs>
    <style>
      .st0, .st1 {
        fill: #ec284f;
      }

      .st0, .st1, .st2, .st3, .st4, .st5, .st6, .st7, .st8 {
        stroke-miterlimit: 10;
      }

      .st0, .st3, .st4 {
        stroke: #240c0c;
      }

      .st1, .st2, .st5, .st6, .st7 {
        stroke: #231f20;
      }

      .st9, .st8 {
        fill: #231f20;
      }

      .st2 {
        fill: #52b848;
      }

      .st10 {
        fill: #414141;
      }

      .st11, .st7 {
        fill: #fff;
      }

      .st3, .st5 {
        fill: none;
      }

      .st4, .st6 {
        fill: #54b948;
      }

      .st12 {
        display: none;
      }

      .st7, .st8 {
        stroke-width: .5px;
      }

      .st8 {
        stroke: #fff;
      }
    </style>
  </defs>
  <g id="circleset" class="st12">
    <g id="Layer_7" class="st12">
      <g>
        <line class="st10" x1="400" y1="122.9" x2="400" y2="677.1"/>
        <line class="st10" x1="261.5" y1="160" x2="538.5" y2="640"/>
        <line class="st10" x1="160" y1="261.5" x2="640" y2="538.5"/>
        <line class="st10" x1="122.9" y1="400" x2="677.1" y2="400"/>
        <line class="st10" x1="160" y1="538.5" x2="640" y2="261.5"/>
        <line class="st10" x1="261.5" y1="640" x2="538.5" y2="160"/>
      </g>
    </g>
    <g id="Layer_8">
      <g>
        <line class="st10" x1="317.1" y1="90.7" x2="482.9" y2="709.3"/>
        <line class="st10" x1="173.6" y1="173.6" x2="626.4" y2="626.4"/>
        <line class="st10" x1="90.7" y1="317.1" x2="709.3" y2="482.9"/>
        <line class="st10" x1="90.7" y1="482.9" x2="709.3" y2="317.1"/>
        <line class="st10" x1="173.6" y1="626.4" x2="626.4" y2="173.6"/>
        <line class="st10" x1="317.1" y1="709.3" x2="482.9" y2="90.7"/>
      </g>
    </g>
    <g id="Layer_1_copy_2">
      <circle class="st3" cx="400" cy="400" r="153.6"/>
    </g>
    <g id="Layer_1">
      <circle class="st3" cx="400" cy="400" r="217.5"/>
    </g>
    <g id="Layer_27">
      <circle class="st5" cx="400" cy="400" r="293.3"/>
    </g>
  </g>
  <g id="circleset_copy">
    <g id="Layer_7_copy" class="st12">
      <g>
        <line class="st10" x1="400" y1="122.9" x2="400" y2="677.1"/>
        <line class="st10" x1="261.5" y1="160" x2="538.5" y2="640"/>
        <line class="st10" x1="160" y1="261.5" x2="640" y2="538.5"/>
        <line class="st10" x1="122.9" y1="400" x2="677.1" y2="400"/>
        <line class="st10" x1="160" y1="538.5" x2="640" y2="261.5"/>
        <line class="st10" x1="261.5" y1="640" x2="538.5" y2="160"/>
      </g>
    </g>
    <g id="Layer_27_copy">
      <path class="st1" d="M246.2,246.2l-53.6-53.6c-35.9,35.9-62.5,81-76,131.5l73.2,19.6c10-37.4,29.7-70.9,56.3-97.5Z"/>
      <path class="st6" d="M343.7,189.9l-19.6-73.2c-50.5,13.5-95.6,40.1-131.5,76l53.6,53.6c26.6-26.6,60.1-46.3,97.5-56.3Z"/>
      <path class="st6" d="M553.8,246.2l53.6-53.6c-35.9-35.9-81-62.5-131.5-76l-19.6,73.2c37.4,10,70.9,29.7,97.5,56.3Z"/>
      <path class="st1" d="M400,182.5c19.5,0,38.3,2.6,56.3,7.4l19.6-73.2c-24.2-6.5-49.7-9.9-75.9-9.9s-51.7,3.5-75.9,9.9l19.6,73.2c18-4.8,36.8-7.4,56.3-7.4Z"/>
      <path class="st1" d="M610.1,343.7l73.2-19.6c-13.5-50.5-40.1-95.6-76-131.5l-53.6,53.6c26.6,26.6,46.3,60.1,56.3,97.5Z"/>
      <path class="st2" d="M617.5,400c0,19.5-2.6,38.3-7.4,56.3l73.2,19.6c6.5-24.2,9.9-49.7,9.9-75.9s-3.5-51.7-9.9-75.9l-73.2,19.6c4.8,18,7.4,36.8,7.4,56.3Z"/>
      <path class="st1" d="M610.1,456.3c-10,37.4-29.7,70.9-56.3,97.5l53.6,53.6c35.9-35.9,62.5-81,76-131.5l-73.2-19.6Z"/>
      <path class="st6" d="M182.5,400c0-19.5,2.6-38.3,7.4-56.3l-73.2-19.6c-6.5,24.2-9.9,49.7-9.9,75.9s3.5,51.7,9.9,75.9l73.2-19.6c-4.8-18-7.4-36.8-7.4-56.3Z"/>
      <path class="st2" d="M456.3,610.1l19.6,73.2c50.5-13.5,95.6-40.1,131.5-76l-53.6-53.6c-26.6,26.6-60.1,46.3-97.5,56.3Z"/>
      <path class="st1" d="M400,617.5c-19.5,0-38.3-2.6-56.3-7.4l-19.6,73.2c24.2,6.5,49.7,9.9,75.9,9.9s51.7-3.5,75.9-9.9l-19.6-73.2c-18,4.8-36.8,7.4-56.3,7.4Z"/>
      <path class="st1" d="M189.9,456.3l-73.2,19.6c13.5,50.5,40.1,95.6,76,131.5l53.6-53.6c-26.6-26.6-46.3-60.1-56.3-97.5Z"/>
      <path class="st6" d="M246.2,553.8l-53.6,53.6c35.9,35.9,81,62.5,131.5,76l19.6-73.2c-37.4-10-70.9-29.7-97.5-56.3Z"/>
      <path class="st4" d="M400,246.4c13.8,0,27.1,1.8,39.8,5.2l16.5-61.7c-18-4.8-36.8-7.4-56.3-7.4s-38.3,2.6-56.3,7.4l16.5,61.7c12.7-3.4,26-5.2,39.8-5.2Z"/>
      <path class="st0" d="M360.2,251.6l-16.5-61.7c-37.4,10-70.9,29.7-97.5,56.3l45.2,45.2c18.8-18.8,42.4-32.7,68.9-39.8Z"/>
      <path class="st3" d="M291.4,291.4l-45.2-45.2c-26.6,26.6-46.3,60.1-56.3,97.5l61.7,16.5c7.1-26.4,21-50.1,39.8-68.9Z"/>
      <path class="st0" d="M246.4,400c0-13.8,1.8-27.1,5.2-39.8l-61.7-16.5c-4.8,18-7.4,36.8-7.4,56.3s2.6,38.3,7.4,56.3l61.7-16.5c-3.4-12.7-5.2-26-5.2-39.8Z"/>
      <path class="st3" d="M508.6,291.4l45.2-45.2c-26.6-26.6-60.1-46.3-97.5-56.3l-16.5,61.7c26.4,7.1,50.1,21,68.9,39.8Z"/>
      <path class="st4" d="M548.4,360.2l61.7-16.5c-10-37.4-29.7-70.9-56.3-97.5l-45.2,45.2c18.8,18.8,32.7,42.4,39.8,68.9Z"/>
      <path class="st3" d="M610.1,343.7l-61.7,16.5c3.4,12.7,5.2,26,5.2,39.8s-1.8,27.1-5.2,39.8l61.7,16.5c4.8-18,7.4-36.8,7.4-56.3s-2.6-38.3-7.4-56.3Z"/>
      <path class="st3" d="M251.6,439.8l-61.7,16.5c10,37.4,29.7,70.9,56.3,97.5l45.2-45.2c-18.8-18.8-32.7-42.4-39.8-68.9Z"/>
      <path class="st0" d="M439.8,548.4l16.5,61.7c37.4-10,70.9-29.7,97.5-56.3l-45.2-45.2c-18.8,18.8-42.4,32.7-68.9,39.8Z"/>
      <path class="st4" d="M508.6,508.6l45.2,45.2c26.6-26.6,46.3-60.1,56.3-97.5l-61.7-16.5c-7.1,26.4-21,50.1-39.8,68.9Z"/>
      <path class="st3" d="M400,553.6c-13.8,0-27.1-1.8-39.8-5.2l-16.5,61.7c18,4.8,36.8,7.4,56.3,7.4s38.3-2.6,56.3-7.4l-16.5-61.7c-12.7,3.4-26,5.2-39.8,5.2Z"/>
      <path class="st0" d="M291.4,508.6l-45.2,45.2c26.6,26.6,60.1,46.3,97.5,56.3l16.5-61.7c-26.4-7.1-50.1-21-68.9-39.8Z"/>
      <polygon class="st3" points="400 400 400 400 400 400 400 400"/>
      <polygon class="st3" points="400 400 400 400 400 400 400 400"/>
      <polygon class="st3" points="400 400 400 400 400 400 400 400"/>
      <rect class="st3" x="400" y="400" width="0" height="0"/>
      <polygon class="st3" points="400 400 400 400 400 400 400 400"/>
      <polygon class="st3" points="400 400 400 400 400 400 400 400"/>
      <polygon class="st3" points="400 400 400 400 400 400 400 400"/>
    </g>
  </g>
  <g id="Layer_26">
    <g id="Emblem">
      <g id="White">
        <path class="st11" d="M407,546.8h-13.8c-.7-.3-1.5-.2-2.3-.2-3.6-.3-7.1-.6-10.7-1.1-4.3-.6-8.5-1.4-12.7-2.3-4-.9-8-2-11.9-3.3-4.3-1.4-8.5-2.9-12.6-4.6-3.7-1.6-7.4-3.3-11-5.2-3-1.6-6-3.2-8.8-5-5.3-3.3-10.5-6.9-15.4-10.9-4.3-3.5-8.4-7.2-12.2-11.2-2.4-2.5-4.8-5-7.1-7.7-3.3-3.9-6.4-7.9-9.3-12.2-2.1-3-4.1-6.1-5.9-9.3-1.8-3.1-3.5-6.3-5.1-9.6-1.9-4-3.7-8.2-5.3-12.3-1.6-4.3-3-8.6-4.3-13-1.2-4.3-2.2-8.7-3-13.1-.7-3.6-1.2-7.3-1.5-10.9-.2-1.8-.4-3.6-.5-5.4,0-1.5-.4-2.9-.3-4.4,0-4.3-.2-8.5.2-12.8.3-3.7.6-7.3,1-11,.4-2.9.8-5.8,1.4-8.7.9-4.7,2.1-9.4,3.4-14,1.5-5,3.3-9.9,5.3-14.8,1.6-3.9,3.4-7.8,5.4-11.6,3.1-6,6.7-11.8,10.6-17.3,2.9-4.1,6-8,9.3-11.7,2.6-2.9,5.3-5.7,8-8.4,3.4-3.3,6.9-6.5,10.6-9.4,6.5-5.1,13.2-9.7,20.4-13.6,3-1.6,6-3.2,9.1-4.6,3.8-1.7,7.6-3.3,11.6-4.8,4.9-1.8,9.8-3.3,14.9-4.6,5.4-1.4,10.8-2.4,16.4-3.1,4.2-.5,8.5-1,12.8-1.1,6.1-.2,12.2-.2,18.4.4,3.1.3,6.3.6,9.4,1.1,3.6.5,7.3,1.2,10.8,2.1,4.3,1,8.6,2.2,12.8,3.5,4,1.3,8,2.8,11.9,4.4,3.7,1.6,7.5,3.3,11.1,5.2,3.5,1.9,6.9,3.8,10.2,5.9,5.3,3.4,10.5,7.1,15.3,11.1,2.4,2,4.7,4.1,7,6.2,2.2,2,4.2,4.2,6.2,6.3,1.3,1.4,2.6,2.7,3.8,4.1,1.8,2.2,3.7,4.4,5.4,6.7,3.6,4.6,6.8,9.5,9.8,14.4,1.6,2.7,3.1,5.4,4.5,8.2,2.4,4.6,4.4,9.3,6.2,14,1.8,4.5,3.3,9.1,4.6,13.8,1.7,6.1,3,12.3,3.9,18.5.6,4.1,1.1,8.3,1.1,12.5,0,.4,0,.7.2,1v14c-.2.4-.2.9-.2,1.4,0,3-.4,5.9-.7,8.8-.4,3.7-1,7.3-1.7,10.9-.9,4.5-2,9-3.3,13.5-1.2,4.1-2.6,8.2-4.2,12.2-1.9,4.9-4,9.6-6.5,14.3-1.6,3-3.2,5.9-5,8.8-2.1,3.3-4.3,6.6-6.6,9.8-3.1,4.3-6.4,8.4-10,12.2-3,3.2-6,6.3-9.3,9.3-2.6,2.3-5.1,4.6-7.9,6.7-6.4,5-13.1,9.6-20.2,13.5-3,1.6-6,3.2-9.1,4.7-4.2,1.9-8.4,3.7-12.7,5.2-3.8,1.3-7.7,2.5-11.6,3.6-4.8,1.3-9.7,2.4-14.6,3.1-5,.8-10.1,1.4-15.2,1.6-.3,0-.7,0-1,.2ZM400.7,530.8c23.3-.3,45.6-6.2,66.1-18.4,20.6-12.2,36.6-28.8,48-49.8,11.4-20.9,16.8-43.4,15.9-67.2-.8-21.9-6.8-42.5-18-61.4-11.6-19.7-27.4-35.4-47.2-46.8-21.7-12.5-45.2-18.2-70.2-17.5-33.8,1.8-62.9,14.4-87.2,38-25.2,25.7-37.9,56.6-38.5,92.5.5,72.6,58.1,130.1,131.1,130.6Z"/>
        <path class="st11" d="M527.9,406.4c-.3,25.5-10.8,53.4-31.3,77.6-26.5,29.3-59.5,44-99.1,43.8-32.6-1-60.9-12.6-84.9-34.8-27-26.2-40.4-58.1-40-95.7.2-19.6,5.1-38.2,14-55.6,10.9-21.1,26.5-38,46.7-50.4,21.3-13.1,44.6-19.4,69.6-18.9,68.4,1.4,130,59.1,124.9,133.9ZM324.3,473.7c.3-.4.5-.7.7-.9,2.2-2.2,4.3-4.4,6.5-6.6,2.9-3,5.8-5.9,8.8-8.9,6.7-6.8,13.5-13.6,20.2-20.4.6-.6,1.2-1.2,1.8-1.8.3-.3.7-.5,1-.1.8.8,1.6,1.6,2.4,2.4.3.3.3.6,0,1-.1.1-.2.2-.3.4-6.3,6.4-12.6,12.7-18.8,19.1-5.5,5.5-10.9,11-16.4,16.6-.8.9-1.8,1.7-2.5,2.6.5.5,1,1,1.5,1.5,1,.9,2,1.8,3,2.7.6.5.6.7.2,1.4,0,.2-.2.3-.3.5-1.3,2.7-1.7,5.4-1,8.3.6,2.3,1.8,4.2,3.5,5.8,2.8,2.5,6.1,3.4,9.7,2.7,2.9-.5,5.2-2.1,7-4.4.6-.7.7-.8,1.6-.4,1.3.6,2.6,1.2,3.8,1.8,1,.5,1,.5,1.5-.6.8-2,1.6-4,2.5-6,3.3-8,6.5-16,9.8-24,1.8-4.4,3.6-8.9,5.4-13.3.8-1.9,1.5-3.7,2.3-5.6.5-1.2.7-1.2,1.9-.8.5.2,1.1.5,1.6.7,1.2.5,1.3.6.8,1.9-6.7,16.3-13.4,32.7-20.1,49-.4.9-.4.9.6,1.3,1.6.6,3.2,1.1,4.8,1.7.9.3,1,.4.8,1.4-.3,1.6-.2,3.2.3,4.8,1.2,3.9,3.8,6.6,7.7,7.9,3,1,5.8.7,8.6-.8,3.1-1.6,5-4.2,5.9-7.5.2-.9.4-.9,1.2-.9,1.3,0,2.7.2,4,.2,1.6,0,1.3.1,1.3-1.3,0-17.5,0-35,0-52.5,0-.3,0-.6,0-.9,0-.7.2-.9.9-.9.8,0,1.6,0,2.4,0,1.1,0,1.2,0,1.2,1.2,0,.2,0,.5,0,.7,0,16.5,0,33.1,0,49.6,0,1.1,0,2.1,0,3.2,0,.8,0,.9.9.8,1.4,0,2.8-.1,4.1-.2.9,0,1,0,1.2.9.1.5.3,1,.5,1.5,2.3,6.1,9.6,9.5,16,6.1,4.4-2.3,6.8-7.2,6.1-12.2,0-.6,0-.8.6-1.1.1,0,.3,0,.4-.1,1.7-.6,3.4-1.2,5.1-1.8.9-.3.9-.3.5-1.2-.3-.7-.6-1.4-.9-2.1-6.1-15-12.3-30-18.4-44.9-.3-.8-.7-1.6-1-2.4-.3-.8-.2-1,.6-1.4.7-.3,1.5-.6,2.2-.9.9-.4,1.2-.3,1.6.6.8,2,1.6,3.9,2.4,5.9,2.3,5.6,4.6,11.1,6.8,16.7,1.6,4,3.2,7.9,4.9,11.9,2,5,4.1,9.9,6.1,14.9.3.7.3.7,1,.4,1.4-.7,2.9-1.4,4.3-2.1,1.1-.5,1.1-.5,2,.4,3.1,3.6,6.9,5.2,11.6,4.1,4.7-1.2,7.6-4.3,8.7-9,.7-2.9,0-5.6-1.4-8.2-.5-.8-.5-.9.3-1.6.5-.4,1-.8,1.4-1.2.9-.9,1.9-1.7,2.9-2.8-.3-.2-.7-.5-1-.7-4.4-4.4-8.8-8.9-13.2-13.3-5.7-5.8-11.5-11.6-17.2-17.4-2.2-2.2-4.4-4.4-6.5-6.6-.6-.6-.6-.7,0-1.3.6-.7,1.3-1.3,1.9-2,.6-.6.8-.5,1.4,0,.1.1.3.3.4.4,3.6,3.7,7.2,7.3,10.8,11,5.7,5.7,11.3,11.5,17,17.2,3,3,5.9,6,8.9,9,.2.2.4.5.7.5.3-.1.4-.4.6-.6,1.2-1.3,2.3-2.6,3.5-3.9.5-.6.7-.6,1.4-.3.2,0,.3.2.5.3,4.5,2.5,10.5,1.4,14-2.6,4.4-5.1,3.6-12.8-1.6-16.9-.9-.7-.9-.8-.4-1.8,0-.1.1-.2.2-.4.6-1.3,1.2-2.6,1.8-3.8.2-.4.1-.7-.3-.8-.1,0-.2-.1-.4-.2-2.8-1.2-5.5-2.3-8.3-3.5-11.6-4.8-23.1-9.7-34.7-14.5-1.8-.7-3.5-1.5-5.3-2.2-.8-.3-.8-.5-.5-1.3.2-.5.4-1,.6-1.5.8-2,.8-1.9,2.7-1.1,4.9,2.1,9.8,4.1,14.7,6.2,5.6,2.3,11.2,4.7,16.8,7,5.3,2.2,10.6,4.4,15.9,6.7.2,0,.4.2.7.2.1-.4.3-.8.5-1.2.5-1.5,1-3,1.5-4.5.3-.9.5-1,1.4-.9,6.9,1,13.2-4.6,13.1-11.7-.1-5.6-4-9.9-8.7-11.1-.9-.2-1-.3-.9-1.2,0-1.4.2-2.9.2-4.3,0-1.4.1-1.2-1.2-1.2-17,0-34.1,0-51.1,0-.3,0-.6,0-.9,0-.7,0-.8-.2-.8-.8,0-.7,0-1.3,0-2q0-1.6,1.6-1.6c17,0,33.9,0,50.9,0,.3,0,.5,0,.8,0,.8,0,.8,0,.8-.8,0-1.4-.1-2.8-.2-4.2,0-1.5,0-1.5,1.4-1.9,0,0,.2,0,.3-.1,7-2.3,10.1-10.7,6.2-17-2.3-3.7-5.6-5.6-10-5.7-.5,0-1.1,0-1.6,0-.8,0-.9,0-1.2-.8,0-.2,0-.3-.1-.5-.6-1.6-1.1-3.2-1.7-4.8-.1-.4-.3-.6-.8-.4-.1,0-.2,0-.4.2-5.7,2.4-11.4,4.8-17.1,7.2-8.9,3.7-17.8,7.5-26.7,11.2-1.4.6-2.8,1.2-4.2,1.7-.9.4-1.2.3-1.6-.7-.3-.8-.7-1.6-1-2.5-.2-.5,0-.8.3-1,.2-.1.4-.2.6-.3,4.2-1.7,8.3-3.5,12.5-5.2,6.7-2.8,13.3-5.6,20-8.4,5.2-2.2,10.3-4.3,15.5-6.5.8-.3.8-.4.5-1.1-.6-1.4-1.3-2.7-1.9-4.1-.4-.9-.4-1,.3-1.6,4.3-3.2,5.9-9.4,3.5-14.4-2.7-5.5-9.6-8.4-15.5-5.3-.3.2-.6.3-.9.5-.5.2-.9.2-1.2-.3-.3-.4-.7-.9-1.1-1.3-1-1.1-2-2.2-3-3.4-.9.9-1.8,1.7-2.7,2.6-5.6,5.7-11.2,11.4-16.9,17.1-4.6,4.6-9.1,9.2-13.7,13.8-1.5,1.5-3,3.1-4.5,4.6-.6.7-.9.6-1.6,0-.6-.6-1.1-1.1-1.7-1.7-.8-.8-.8-1,0-1.8,2.4-2.4,4.8-4.9,7.2-7.3,8-8.1,16.1-16.3,24.1-24.4,1.9-1.9,3.8-3.9,5.8-5.8.4-.4.4-.6,0-.9-.5-.4-1-.9-1.4-1.4-.8-.8-1.7-1.5-2.5-2.2-.5-.5-.6-.6-.2-1.3,0-.1.1-.2.2-.3,3.2-5.7,1.1-13-4.7-16.1-4.9-2.6-10.9-1.2-14.3,3.2-.7.9-.8.9-1.8.4-.1,0-.3-.2-.4-.2-1.3-.6-2.6-1.3-4-1.9-.7-.3-.7-.3-.9.4,0,.2-.2.4-.3.6-2,4.9-4,9.7-6,14.6-2.9,7.1-5.9,14.3-8.8,21.4-1.7,4.2-3.4,8.4-5.2,12.6-.4,1-.6,1-1.6.7-.7-.3-1.3-.5-2-.8-1-.4-1.1-.6-.7-1.6,1.5-3.6,3-7.2,4.5-10.9,5.2-12.8,10.5-25.6,15.7-38.4.3-.7.3-.7-.4-1-.2,0-.4-.2-.6-.3-1.6-.5-3.2-1.1-4.8-1.6-.8-.3-.9-.5-.8-1.4.2-1.4.2-2.8-.2-4.1-1.2-4.7-4.1-7.8-8.8-8.9-4.7-1.1-9.6,1.1-12.1,5.2-.7,1.1-1.2,2.3-1.5,3.5-.2.8-.4,1-1,.9-1.3-.2-2.6-.1-3.9-.2-1.5-.1-1.3,0-1.3,1.2,0,17.5,0,35,0,52.5,0,.3,0,.6,0,.9,0,.6-.2.8-.8.8-.7,0-1.4,0-2.1,0q-1.6,0-1.6-1.6c0-17.5,0-35,0-52.5,0-.3,0-.5,0-.8,0-.5-.2-.6-.6-.6-1.5,0-3,.1-4.5.3-1,0-1.3,0-1.5-1.1-.7-2.7-2.2-4.9-4.5-6.5-3.4-2.4-7.1-2.8-11-1.2-4.8,2-7.8,7.2-7,12.3.2,1,0,1.1-.9,1.4-1.6.6-3.3,1.1-4.9,1.7-.8.3-.7.3-.4,1.1,6.1,14.9,12.2,29.9,18.4,44.8.6,1.6,1.3,3.1,1.9,4.7.3.8.2,1-.5,1.3-.8.3-1.6.7-2.4,1-.8.3-1.1.1-1.4-.7-1.5-3.6-2.9-7.1-4.4-10.7-2.8-6.8-5.5-13.5-8.3-20.3-2-4.9-4-9.8-6-14.7-.6-1.5-1.2-2.9-1.8-4.3-.3,0-.4,0-.6,0-1.4.7-2.8,1.3-4.2,2-1,.5-1.1.5-1.8-.4-1.2-1.6-2.7-2.7-4.5-3.6-5.1-2.3-11.6-.5-14.6,5.1-2,3.8-1.9,7.6.1,11.3.5.9.5,1-.3,1.7-1.2,1.1-2.5,2.2-3.7,3.4-.8.8-.7.6,0,1.3.9,1,1.9,1.9,2.8,2.9,10.6,10.7,21.1,21.4,31.7,32,.9.9,1.9,1.9,2.8,2.8.5.5.5.8,0,1.3-.6.7-1.3,1.4-2,2-.5.5-.8.4-1.3,0-.2-.2-.3-.3-.5-.5-4.8-4.8-9.5-9.7-14.3-14.5-4.8-4.8-9.5-9.6-14.3-14.5-2.7-2.7-5.4-5.5-8.1-8.2-.8-.8-.8-.8-1.5,0-1,1.2-2.1,2.4-3.1,3.5-.6.6-.8.7-1.5.3-3.7-2.1-7.5-2.3-11.3-.2-3.5,1.9-5.6,5-6,9-.4,4.2,1.1,7.7,4.4,10.4.9.7.9.7.4,1.7-.7,1.5-1.4,3-2.1,4.5-.3.7-.3.7.4,1.1,2.9,1.2,5.8,2.4,8.7,3.6,11.4,4.8,22.9,9.6,34.3,14.4,1.8.8,3.6,1.5,5.5,2.3.9.4,1,.5.6,1.4-.3.7-.6,1.5-.9,2.2-.4,1.1-.5,1.1-1.6.6-7.4-3.1-14.9-6.2-22.3-9.3-7.5-3.1-15-6.3-22.5-9.4-1.4-.6-2.9-1.2-4.4-1.8-.2.6-.4,1.1-.6,1.5-.5,1.6-1.1,3.1-1.6,4.7-.3.7-.5.9-1.1.8-3.9-.6-7.3.5-10,3.4-4.5,4.7-4.2,11.7,0,16.1,1.6,1.7,3.5,2.8,5.7,3.3.8.2.9.3.8,1.2,0,1.3-.1,2.6-.2,3.8,0,1.5-.2,1.3,1.3,1.3,17.1,0,34.3,0,51.4,0,.3,0,.6,0,.9,0,.6,0,.8.2.8.8,0,.7,0,1.4,0,2.1,0,1.7.1,1.8-1.7,1.8-17,0-34,0-51,0-.3,0-.6,0-.9,0-.8,0-.8,0-.8.8,0,1.4.1,2.8.2,4.2,0,1.1,0,1.1-1,1.4-5,1.3-8.5,5.6-8.7,11-.2,7.3,6.3,12.9,13.1,11.8,1-.2,1.1,0,1.4.9.6,1.7,1.1,3.4,1.7,5,.1.3.2.7.4.9.2,0,.3,0,.5-.1,5.6-2.4,11.3-4.7,16.9-7.1,9.2-3.9,18.5-7.8,27.7-11.6,1.4-.6,2.8-1.2,4.2-1.7.7-.3,1-.2,1.3.5.3.8.7,1.6,1,2.4.4.9.3,1.1-.6,1.5-1.3.6-2.7,1.1-4,1.7-14.5,6.1-29.1,12.2-43.6,18.3-.6.2-1.2.4-1.7.8,0,.2,0,.3.2.5.7,1.6,1.5,3.2,2.2,4.7.4.9.4,1-.4,1.6-4.2,3.3-5.7,9-3.6,13.9,2.6,6.1,10.1,9.2,16.4,5.4.7-.4,1-.4,1.5.2.2.2.4.5.6.7,1.1,1.2,2.1,2.4,3.4,3.8Z"/>
        <path class="st11" d="M350.8,400c0-27.2,22.1-49.3,49.5-49.2,27.3,0,49.2,22.3,49.1,49.4,0,27.3-22.2,49.3-49.5,49.2-27.3-.1-49.2-22.4-49.1-49.4ZM406.7,369.4c.1,1.3.3,2.5.4,3.7.4,3.7.9,7.4,1.3,11.2.3,2.1.5,4.2.8,6.4,0,.5.3.8.8.8.1,0,.3,0,.4,0,6.7,1.3,13.3,2.6,20,3.9.2,0,.3,0,.5,0,.3,0,.3-.1.3-.4,0-.2,0-.3,0-.5-2.2-10.7-8.2-18.5-18.1-23.2-2-.9-4-1.6-6.3-2.1ZM431.5,397.7c-.4,0-.6.1-.8.2-6.2,2.8-12.4,5.7-18.7,8.5-.8.4-.8.4-.7,1.3.2,1.5.4,2.9.5,4.4.6,4.7,1.1,9.3,1.7,14,0,.5.1,1,.2,1.6,0,.5.1.5.6.3.1,0,.2-.1.4-.2,3.6-1.9,6.7-4.3,9.3-7.4,4.1-4.8,6.6-10.4,7.4-16.6.3-2.1.3-4.1.1-6.2ZM373.2,383.9c.3,0,.4.2.6.2,6.4,1.3,12.8,2.5,19.1,3.8.6.1.9,0,1.1-.5,3.3-6,6.7-12,10-17.9,0-.2.3-.3.1-.5-11.7-1.8-24.6,3.9-31,15ZM411.1,429.1c-.2-.2,0,0-.2-.2-2.7-2.9-5.3-5.8-8-8.6-1.9-2.1-3.8-4.2-5.7-6.2-.3-.4-.6-.5-1.1-.2-1.1.5-2.1,1-3.2,1.5-4.8,2.2-9.6,4.5-14.4,6.7-.2,0-.5,0-.5.4,9.6,9.7,23.5,10.8,33.1,6.7ZM371.8,386.6c-5.7,11.6-2.8,25.7,4.1,33.2.2-.2.3-.4.4-.6,1.3-2.2,2.5-4.5,3.8-6.7,1.9-3.3,3.7-6.6,5.6-9.9.3-.5.3-.8-.1-1.2-.5-.4-.9-.9-1.3-1.4-3.6-3.9-7.2-7.8-10.8-11.7-.5-.6-1-1.2-1.7-1.7ZM391.8,395.5c0,0,0,.1,0,.2,1.2,1.3,2.4,2.6,3.6,3.9.6.7.7.9.2,1.7-.6,1.1-1.3,2.2-1.9,3.3-.2.4-.4.8-.7,1.4.4-.2.6-.2.7-.3,1.4-.6,2.8-1.3,4.2-2,.9-.4,1.1-.4,1.7.3.5.6,1,1.2,1.6,1.7.7.7,1.2,1.5,2.2,2.2,0-.5,0-.8-.1-1.1-.2-1.5-.4-3-.5-4.5,0-.8,0-.9.8-1.3.9-.4,1.7-.8,2.6-1.2.7-.4,1.5-.6,2.2-1.1-.2-.2-.5-.2-.7-.3-1.5-.3-3-.6-4.5-.9-1-.2-1.1-.3-1.2-1.4-.2-1.7-.4-3.4-.6-5.2-.3.2-.4.4-.5.7-.7,1.3-1.5,2.6-2.2,4-.5.9-.5.9-1.5.7-1.7-.3-3.5-.7-5.2-1Z"/>
      </g>
      <g id="Black">
        <path d="M554.2,406.9c0,4.1-.5,8.2-1,12.3-.7,5.7-1.7,11.3-3,16.9-2.4,10.1-5.8,19.8-10.2,29.2-6,12.8-13.6,24.6-22.8,35.3-3,3.5-6.2,6.9-9.5,10.1-9.9,9.6-20.9,17.8-33,24.4-11.8,6.5-24.3,11.4-37.4,14.6-5.9,1.5-11.9,2.6-18,3.3-4,.5-8,.9-12,1-.2,0-5.1.1-7.4.1s-6.7-.1-6.9-.1c-3.8,0-7.5-.4-11.2-.9-12-1.4-23.6-4.2-34.9-8.3-12.3-4.5-23.8-10.5-34.5-17.9-5.6-3.8-10.8-8-15.8-12.6-10.7-9.6-19.8-20.6-27.4-32.7-7.9-12.5-13.8-26-17.7-40.2-1.8-6.3-3.1-12.7-4-19.2-.5-3.8-1-7.6-1.2-11.5-.1-2.1-.3-4.2-.4-6.3,0-.2-.1-3.4-.1-4.8s.1-3.8.1-4c.2-3.4.4-6.8.7-10.1.6-6.4,1.6-12.7,3-19,1.7-7.7,4-15.3,6.9-22.6,5.9-15.1,14-28.9,24.3-41.4,3.7-4.6,7.7-8.9,11.9-13,8.1-7.9,17-14.8,26.6-20.7,12.6-7.8,26-13.6,40.3-17.5,5.8-1.6,11.7-2.8,17.7-3.7,3.9-.6,7.8-1,11.7-1.3,2.1-.2,4.3-.2,6.4-.3.3,0,3.5-.1,4.8-.1s6.1.1,7.1.2c2.9.1,5.8.3,8.8.6,5.2.5,10.4,1.3,15.5,2.4,11.7,2.4,23.1,6.2,33.9,11.2,13.2,6.1,25.2,14,36.2,23.5,4,3.5,7.8,7.1,11.4,11,9,9.6,16.6,20.2,22.9,31.8,6.5,12,11.4,24.7,14.5,38,1.1,4.8,2,9.7,2.7,14.6.5,3.4.8,6.9,1,10.3.1,1.9,0,3.9.2,5.8,0,.4.1,3.6.1,4.8s-.2,5.6-.2,6.7Z"/>
        <path class="st7" d="M254.2,407.2c.1,19.7,6.9,44.6,20.5,67.5,13.6,22.9,32.1,40.9,55.5,53.7,23.4,12.8,48.5,18.7,75.2,18,42-2.1,77.1-18.8,105.3-50,24.7-29.1,36.8-62.8,36-101.1-1.9-39.8-17-73.8-45.8-101.4-25-24-61.9-41.2-104.9-39.8-78,1.8-142.7,65.7-141.6,153.1Z"/>
        <path d="M252.4,419.4s0,0-.1,0c-.6,0-1.2.2-1.7.3-.5,0-.6,0-1.1.3-.1.4,0,.8,0,1.3.5,3.6,1.1,7.3,1.9,10.9.4,1.9.9,3.8,1.4,5.8,0,.4.3.5.7.4.7-.2,1.5-.4,2.3-.7.8-.2.8-.2.6-1.1-1-3.9-1.8-7.9-2.5-11.9-.3-1.5-.4-3-.7-4.5,0-.4-.1-.8-.7-.7Z"/>
        <path d="M253.9,358c1.1.3,2.1.6,3.2.9.4.1.5,0,.6-.3.2-.7.4-1.4.6-2.1,1.1-3.6,2.3-7.2,3.7-10.7.5-1.2.9-2.3,1.4-3.5.1-.3.2-.5-.2-.6-.9-.4-1.7-.8-2.6-1.2-.3-.1-.4,0-.6.2,0,.2-.2.4-.3.6-1.4,3.2-2.6,6.5-3.8,9.9-.8,2.2-1.5,4.5-2.2,6.8Z"/>
        <path d="M248.1,394.4c-.1,1,0,2.1-.1,3.2,0,.3,0,.5.5.5.7,0,1.5,0,2.2,0,.9,0,.9,0,.9-.8,0-1.3,0-2.6,0-3.9.2-2.3.4-4.6.6-6.9.2-1.7.3-3.4.5-5.1.2-1.4.2-1.4-1.2-1.7-.3,0-.5-.1-.8-.2-1.6-.2-1.6-.2-1.7,1.3-.5,4.5-1,9-1.1,13.6Z"/>
        <path d="M283.5,308.2c-.7-.7-1.4-1.2-2.1-1.8-.6-.5-.6-.5-1.1.1-2.4,3-4.7,6.1-6.8,9.3-1,1.5-2,3.1-3,4.7-.4.6-.4.6.2,1,.8.5,1.6.9,2.5,1.5,3.2-5.1,6.5-10,10.3-14.8Z"/>
        <path d="M271.1,473.6c0-.2-.2-.4-.3-.6-1.9-3.5-3.8-7-5.4-10.6-.7-1.5-1.3-2.9-2-4.4-.2-.4-.4-.5-.7-.3-.7.3-1.4.6-2.1.8-.7.3-.7.3-.4,1.1,1.9,4.5,4,8.9,6.4,13.1.4.8.9,1.6,1.3,2.4.2.4.4.4.8.2.7-.5,1.5-.9,2.2-1.3.1,0,.3-.2.2-.4Z"/>
        <path d="M249.8,376.6c0,.3.1.5.4.5.8.1,1.6.3,2.4.4q.8.1.9-.7c.6-3.3,1.2-6.6,2-9.9.4-1.6.8-3.3,1.2-4.9.2-.8.2-.8-.6-1-.7-.2-1.4-.4-2.1-.6-.7-.2-.7-.2-.9.6-1.1,3.7-1.8,7.4-2.5,11.1-.3,1.5-.5,3-.8,4.5Z"/>
        <path d="M297.7,292.6c.2-.1.3-.2.4-.3,3.3-3.1,6.7-6.1,10.3-8.9.8-.6,1.7-1.3,2.5-1.9.2-.2.4-.3.2-.6-.6-.8-1.2-1.8-1.9-2.5-.2.1-.3.2-.5.4-3.6,2.7-7,5.5-10.3,8.5-.9.8-1.8,1.7-2.8,2.5-.2.2-.4.4,0,.7.7.7,1.4,1.4,2.2,2.1Z"/>
        <path d="M248,402.9c.1,3.6.3,7.2.6,10.9.1,1.1.2,2.2.3,3.3,0,.3,0,.5.5.5.9-.1,1.9-.2,2.8-.3.3,0,.4-.2.4-.5-.1-1.3-.2-2.6-.4-3.9-.3-2.3-.4-4.7-.5-7.1,0-1.5,0-3.1,0-4.6,0-.5-.2-.7-.7-.7-.8,0-1.6,0-2.5,0-.4,0-.5.2-.5.5,0,.6,0,1.2,0,1.9Z"/>
        <path d="M294.8,504.9c-1.3-1.4-2.6-2.8-3.9-4.2-1.7-1.8-3.4-3.7-5-5.7-.8-1-1.7-2-2.5-3.1-.3-.4-.6-.4-1-.1-.6.5-1.2.9-1.7,1.3-.5.4-.5.4-.1.9,1.3,1.6,2.6,3.2,3.9,4.8,2.3,2.8,4.8,5.4,7.4,8,.5.5.6.5,1,0,.6-.6,1.2-1.3,1.9-2Z"/>
        <path d="M257,439.5c-1,.3-1.9.5-2.7.8-.8.2-.9.2-.6,1.1,1.2,4.2,2.6,8.4,4.2,12.5.3.8.6,1.5.9,2.3.2.5.4.5.8.3.7-.3,1.3-.5,2-.8.8-.3.8-.4.5-1.2-1.3-3.2-2.4-6.4-3.4-9.8-.5-1.7-1-3.5-1.6-5.3Z"/>
        <path d="M343.4,259c-2.5,1-4.9,2-7.2,3.1-2.9,1.3-5.7,2.8-8.5,4.2-.7.4-.7.4-.3,1,.3.6.7,1.1,1,1.7.4.7.4.7,1.1.3,2.9-1.6,5.8-3.1,8.8-4.4,1.9-.9,3.9-1.7,5.8-2.5.4-.2.6-.4.4-.9-.4-.8-.7-1.7-1.1-2.6Z"/>
        <path d="M380.9,249.3c-.3,0-.5,0-.7,0-2.9.4-5.8.8-8.7,1.4-2.4.5-4.8,1-7.2,1.5-.7.2-.8.2-.6.8.2.7.4,1.5.6,2.2.1.4.3.6.8.5,1.4-.3,2.8-.6,4.1-.9,2.8-.6,5.5-1.1,8.3-1.6,1.2-.2,2.4-.4,3.6-.5.4,0,.5-.3.5-.6-.1-.8-.2-1.6-.2-2.4,0-.3-.2-.5-.5-.5Z"/>
        <path d="M261.2,338.2c1,.4,1.8.8,2.6,1.2.7.3.7.3,1.1-.4,1.6-3.4,3.2-6.7,5-10,.7-1.2,1.3-2.4,2-3.6.1-.3.4-.5,0-.7-.9-.5-1.8-1.1-2.9-1.6-2.9,4.9-5.5,9.9-7.8,15.1Z"/>
        <path d="M550.8,379.6c0-.2,0-.4,0-.6-.5-3.7-1.2-7.5-2-11.2-.4-1.8-.8-3.6-1.3-5.4-.2-.7-.2-.7-.9-.5-.6.2-1.1.3-1.7.5-.8.2-.8.2-.6,1,.9,3.3,1.6,6.6,2.2,9.9.4,2.2.7,4.4,1.1,6.6.1.7.2.7.8.6.6,0,1.2-.2,1.8-.2.6,0,.7-.1.6-.8Z"/>
        <path d="M310.7,518.8c-.1,0-.2,0-.3.1-.6.7-1.2,1.5-1.8,2.3-.1.2,0,.3.1.4.2.1.4.3.6.4,3.4,2.5,6.9,4.9,10.5,7.1,1.1.7,2.3,1.4,3.4,2,.3.2.5.2.7-.2.4-.7.8-1.4,1.2-2.1.2-.3.1-.5-.2-.7-.8-.5-1.7-.9-2.5-1.5-3.9-2.5-7.7-5-11.3-7.7-.1,0-.3-.2-.4-.3Z"/>
        <path d="M441.1,253.7c-.3-.1-.4,0-.5.4-.2.7-.4,1.4-.5,2.1-.2.7-.2.7.5.9,1.5.5,3,.9,4.5,1.3,3.7,1.2,7.3,2.5,10.9,3.9.4.1.5,0,.7-.3.3-.7.6-1.5.9-2.2.2-.3,0-.5-.3-.6-.2,0-.4-.2-.5-.2-4.4-1.8-8.9-3.3-13.4-4.7-.8-.2-1.5-.4-2.3-.7Z"/>
        <path d="M293.6,291.7c-.2.2-.3.3-.5.4-2.2,2.2-4.3,4.4-6.3,6.6-1.4,1.5-2.7,3.1-4,4.7-.5.6-.5.6.1,1.1.4.4.9.7,1.3,1.1.9.7.9.7,1.6-.2,2.1-2.6,4.3-5,6.5-7.4,1.2-1.3,2.5-2.6,3.7-3.9-.7-.9-1.6-1.6-2.4-2.5Z"/>
        <path d="M272.2,475.9c0,0-.2,0-.3.2-.7.4-1.5.9-2.2,1.3-.3.2-.4.4-.2.6.3.4.5.8.8,1.3,2.5,4,5.1,8,8,11.7.5.7.5.7,1.2.2.5-.3.9-.7,1.4-1.1q.7-.5.2-1.2c-1.7-2.3-3.3-4.6-4.8-6.9-1.2-1.8-2.4-3.7-3.5-5.6-.1-.2-.2-.4-.5-.5Z"/>
        <path d="M404.8,248.2c-.6,0-1.2,0-1.8,0-.7,0-.8,0-.8.8,0,.6,0,1.3,0,1.9,0,.5.2.7.7.7,2.7,0,5.3.2,8,.4,2.7.2,5.4.4,8.1.8.4,0,.6,0,.7-.4.1-.8.3-1.6.4-2.3,0-.4-.1-.5-.5-.6-.4,0-.8-.1-1.3-.2-4.5-.5-9-.9-13.6-1Z"/>
        <path d="M550.8,420.6c0-.4.1-.8.2-1.2.5-3.8.8-7.6,1-11.5,0-1.8.1-3.6.2-5.3,0-.5-.1-.7-.6-.6-.7,0-1.3,0-2,0-.4,0-.6.2-.6.6,0,2.1-.2,4.3-.3,6.4-.1,2.3-.4,4.5-.6,6.8-.1,1.3-.2,2.6-.5,3.9,0,.5,0,.7.5.7.8,0,1.6.3,2.6.3Z"/>
        <path d="M532,324.7c0,0-.1,0-.2,0-.7.4-1.4.8-2.1,1.3-.2.1-.3.3-.2.6.1.2.2.3.3.5,2.3,4,4.4,8.2,6.3,12.4.4.8.7,1.7,1.1,2.5.1.3.3.4.7.3.6-.3,1.2-.5,1.7-.7.8-.3.8-.3.5-1.1-1.5-3.5-3.1-7-4.9-10.3-.9-1.7-1.8-3.4-2.7-5-.1-.2-.2-.4-.4-.5Z"/>
        <path d="M344.2,537.8c-.2,0-.3.2-.3.4-.3.6-.5,1.3-.8,1.9-.3.7-.3.8.4,1,2.6,1,5.2,2,7.8,2.9,2.6.9,5.3,1.7,7.9,2.5.7.2.7.2.9-.5.2-.7.3-1.4.6-2.1,0-.3,0-.5-.3-.6-1.1-.3-2.1-.7-3.2-1-4.2-1.2-8.3-2.7-12.4-4.3-.2,0-.4-.1-.5-.2Z"/>
        <path d="M540.1,459.5c.1-.2.2-.5.3-.7,1.4-3.2,2.6-6.5,3.7-9.8.7-2.1,1.4-4.3,2.1-6.5.2-.7.2-.7-.5-.9-.6-.2-1.2-.3-1.8-.5-.6-.2-.6-.1-.8.5-.2.8-.5,1.5-.7,2.3-1.1,3.6-2.3,7.2-3.7,10.7-.4,1-.8,2.1-1.2,3.1-.1.4-.1.6.3.8.8.3,1.6.7,2.4,1Z"/>
        <path d="M517.6,308.7c.8-.6,1.5-1.1,2.2-1.7.2-.2.3-.3,0-.6-.1-.1-.2-.3-.4-.5-2.6-3.4-5.4-6.6-8.4-9.7-.9-1-1.9-1.9-2.8-2.9-.3-.3-.5-.4-.8,0-.5.5-1,1.1-1.5,1.6-.3.3-.2.5,0,.7.5.5,1,1,1.4,1.5,2.6,2.7,5.2,5.5,7.5,8.5.8,1,1.7,2,2.5,3.1Z"/>
        <path d="M477,269c-.3,0-.4.2-.5.3-.3.6-.6,1.1-1,1.7-.3.6-.3.7.3,1,2.5,1.5,5,3.1,7.5,4.7,2,1.4,4,2.7,6,4.2.3.3.6.5,1,0,.4-.6.8-1.1,1.3-1.6.3-.3.3-.6,0-.9-.8-.6-1.6-1.2-2.5-1.8-3.7-2.6-7.4-5.1-11.3-7.4-.2-.1-.5-.3-.7-.4Z"/>
        <path d="M313.2,279.7c.1,0,.2-.1.4-.2.4-.3.8-.5,1.1-.8,3.8-2.7,7.6-5.1,11.6-7.4.4-.2.4-.4.2-.8-.4-.6-.8-1.2-1.1-1.9-.4-.7-.3-.7-1.1-.3-3.2,1.8-6.3,3.7-9.3,5.8-1.2.8-2.4,1.7-3.6,2.5-.3.2-.5.4-.2.7.5.7,1,1.4,1.5,2.1,0,.1.2.3.4.3Z"/>
        <path d="M362.2,256.1c-.2-.7-.4-1.5-.7-2.3-.2-.7-.2-.7-.9-.5-2.4.6-4.7,1.3-7.1,2.1-2.5.8-4.9,1.7-7.3,2.6-.4.2-.6.3-.4.8.3.7.6,1.5.9,2.3.1.3.3.4.6.3.7-.3,1.4-.5,2.1-.8,3.1-1.2,6.3-2.2,9.5-3.1.9-.3,1.9-.5,2.8-.8.2,0,.5-.1.5-.6Z"/>
        <path d="M517.3,492c.6.5,1.3,1,1.9,1.6.4.3.6.3.9-.1,0-.1.2-.2.2-.3,3.3-4.2,6.4-8.6,9.2-13.2.8-1.2,1.1-1.1-.4-1.9-.5-.3-1-.9-1.4-.7-.5.2-.7.9-1,1.4-1.7,2.7-3.5,5.4-5.4,8-1.3,1.8-2.6,3.5-3.9,5.3Z"/>
        <path d="M419.1,548.3c0,.3,0,.8.1,1.3,0,1.1,0,1.2,1.2,1,4-.5,8-1.2,12-2.1,1.3-.3,2.7-.6,4-.9.5-.1.6-.4.5-.8-.1-.5-.3-.9-.4-1.4q-.3-1-1.3-.8c-.2,0-.4,0-.7.2-2.5.6-5,1.1-7.5,1.6-2.5.5-4.9.9-7.4,1.2-.4,0-.7.1-.6.8Z"/>
        <path d="M308.7,517.4c0-.4-.3-.5-.6-.7-2.1-1.7-4.2-3.4-6.2-5.2-1.7-1.5-3.4-3-5-4.6-.4-.4-.6-.4-1,0-.4.5-.9.9-1.3,1.4-.6.7-.6.7,0,1.3,2.4,2.4,5,4.7,7.6,6.9,1.3,1.1,2.6,2.1,3.8,3.1.3.3.6.3.9,0,.4-.6.9-1.2,1.4-1.8,0-.1.1-.2.2-.3Z"/>
        <path d="M394.7,552c1,0,2,0,3,0,.7,0,.7,0,.8-.7,0-.4,0-.8,0-1.2,0-1.2,0-1.2-1.2-1.2-2.7-.1-5.4-.2-8.1-.4-2.5-.3-5.1-.4-7.6-.8-.4,0-.6,0-.6.4,0,.7-.2,1.5-.3,2.2,0,.4.1.5.5.6.9,0,1.8.2,2.6.3,3.7.4,7.3.7,11,.9Z"/>
        <path d="M505.2,509.8c-.5-.7-1.1-1.2-1.7-1.8-.3-.4-.5-.3-.9,0-3.6,3.5-7.4,6.7-11.3,9.8-.6.5-1.3.8-1.7,1.4.4.6.9,1.2,1.3,1.8.4.6.4.6,1,.1,2.8-2.1,5.5-4.3,8.2-6.7,1.7-1.5,3.4-3,5.1-4.7Z"/>
        <path d="M421.9,252.5c0,.4,0,.6.5.7,1.7.3,3.4.6,5,.9,3.3.6,6.5,1.3,9.7,2.2.4.1.5,0,.6-.3.2-.8.4-1.6.7-2.5,0-.2,0-.4-.2-.5-.3,0-.5-.1-.8-.2-2.6-.7-5.2-1.2-7.8-1.7-2.2-.4-4.5-.8-6.7-1.2-.5,0-.7,0-.8.5,0,.7-.2,1.4-.3,2.1Z"/>
        <path d="M473.3,532.9c0,0,0-.2-.2-.3-.3-.5-.6-1-.8-1.4-.4-.7-.4-.7-1.2-.3-2.9,1.6-5.7,3-8.7,4.4-1.9.9-3.9,1.7-5.9,2.5-.5.2-.6.4-.4.9.2.5.4,1,.6,1.6.3.7.3.7,1,.4,4.7-1.9,9.3-4.1,13.7-6.4.5-.3,1-.5,1.5-.8.2,0,.4-.2.3-.5Z"/>
        <path d="M547.6,422.5c-.2,0-.4.1-.4.5,0,.3-.1.5-.1.8-.6,3.7-1.3,7.3-2.2,10.9-.3,1.1-.6,2.3-.9,3.4-.2.8-.4.7.6,1,.6.2,1.2.3,1.8.5.5.2.7,0,.7-.5,0-.2,0-.3.1-.5,1.1-4.1,2-8.3,2.7-12.5.2-.9.3-1.8.4-2.6,0-.4,0-.6-.5-.6-.7,0-1.4-.2-2.3-.4Z"/>
        <path d="M541.2,343.4c-.8.3-1.4.6-2.1.8q-.9.4-.6,1.3c0,0,0,.1,0,.2,1.5,3.6,2.7,7.3,3.9,11.1.4,1.2.6,2.5,1.2,3.7.8-.2,1.6-.5,2.4-.7.7-.2.7-.2.5-.9-.6-2-1.2-4-1.8-6-1-3.1-2.1-6.2-3.4-9.4Z"/>
        <path d="M400,249c0-.8,0-.8-.8-.8-2.3,0-4.5,0-6.8.2-2.8.1-5.5.4-8.2.6-.5,0-.6.3-.6.7,0,.6.1,1.2.2,1.9,0,.8.1.9,1,.8,0,0,.2,0,.3,0,3.9-.4,7.8-.7,11.8-.8.9,0,1.8,0,2.7,0,.4,0,.6-.2.6-.6,0-.4,0-1.7,0-2Z"/>
        <path d="M327.3,529.7c-.4.8-.9,1.5-1.2,2.2-.4.7-.4.7.3,1.1,2.3,1.3,4.7,2.5,7.1,3.7,2.1,1,4.3,2,6.5,3,.7.3.7.3.9-.3.3-.6.5-1.1.8-1.7.3-.7.3-.7-.4-1-3.1-1.4-6.2-2.8-9.2-4.4-1.5-.8-3.1-1.6-4.7-2.5Z"/>
        <path d="M552.2,397.1c-.1-2.6-.2-5.3-.4-8.1-.2-2-.3-3.9-.5-5.9,0-.4-.2-.6-.6-.5-.7,0-1.4.2-2.1.2-.4,0-.6.2-.5.6,0,.8.1,1.6.2,2.4.3,3.2.5,6.3.6,9.5,0,1.2,0,2.3.1,3.5,0,.8,0,.8.8.8.6,0,1.2,0,1.8,0,.4,0,.6-.1.6-.6,0-.6,0-1.2,0-2Z"/>
        <path d="M519,310.6c.1.2.3.4.4.6,2.9,3.9,5.6,7.9,8.1,12q.7,1.1,1.8.5c.3-.2.6-.3.9-.5.7-.5.7-.5.3-1.2-2.6-4.3-5.4-8.6-8.5-12.6,0-.1-.2-.3-.3-.4-.1-.2-.3-.3-.5,0-.7.6-1.6,1-2.2,1.8Z"/>
        <path d="M377.7,550.3c.4.1.6,0,.6-.4,0-.7.2-1.4.3-2,.1-.5,0-.7-.6-.8-2.4-.3-4.9-.8-7.3-1.3-2.5-.5-4.9-1-7.4-1.7-.4-.1-.6,0-.7.4-.2.7-.3,1.5-.6,2.2-.2.5,0,.6.4.7,1.4.3,2.9.7,4.3,1,3.6.8,7.2,1.5,10.8,2Z"/>
        <path d="M474.7,267.8c0-.1,0-.2-.2-.3-.2-.1-.4-.2-.6-.3-3.8-2.1-7.6-4-11.6-5.8-.7-.3-1.3-.6-2-.9-.3-.2-.5-.1-.7.3-.3.7-.6,1.5-.9,2.2-.2.3,0,.5.3.6.1,0,.2,0,.4.1,3.2,1.4,6.3,2.8,9.3,4.5,1.3.7,2.6,1.4,3.9,2.1.3.2.6.4.8,0,.4-.7.8-1.4,1.2-2.2,0,0,0-.1,0-.2Z"/>
        <path d="M504,293.6c.7-.5,1.2-1.2,1.7-1.7.5-.5.6-.5,0-1.1-2.6-2.5-5.3-5-8.1-7.3-1.1-1-2.3-1.9-3.4-2.8-.3-.3-.6-.3-.8,0-.5.7-1.1,1.4-1.6,2.2,4.3,3.4,8.4,6.9,12.3,10.8Z"/>
        <path d="M531.3,476.7c.3-.3.4-.6.6-.9.8-1.4,1.6-2.9,2.4-4.3,1.6-3,3.1-6.1,4.6-9.3.2-.4.2-.7-.3-.8-.6-.3-1.3-.5-1.9-.8-.3-.2-.6,0-.7.2,0,.2-.2.4-.3.6-1.1,2.4-2.3,4.9-3.5,7.3-1.1,2-2.2,4-3.3,6-.2.4-.2.6.2.8.7.4,1.4.8,2.1,1.2Z"/>
        <path d="M454.9,541.6c-.3-.7-.5-1.5-.8-2.2-.2-.6-.3-.6-.9-.4-4,1.5-8,2.9-12.1,4-.6.2-1.3.4-1.9.5-.8.2-.8.3-.6,1,.1.5.3,1.1.5,1.6.2.7.2.7,1,.5,3.1-.9,6.3-1.8,9.3-2.9,1.7-.6,3.3-1.2,5-1.8.2,0,.5,0,.5-.4Z"/>
        <path d="M404.7,551.8c3.1,0,6-.3,8.9-.5,1,0,2.1-.2,3.1-.3.3,0,.5,0,.4-.4,0-.7-.2-1.4-.2-2.1,0-.5-.3-.6-.8-.6-.5,0-1,.1-1.5.2-2.9.3-5.7.5-8.6.6-1.6,0-3.2.2-4.7.1-.5,0-.7.1-.6.6,0,.6,0,1.2,0,1.8,0,.7,0,.7.7.7,1.2,0,2.3,0,3.3-.1Z"/>
        <path d="M487.6,520.5c-4.4,3.2-9,6.1-13.6,8.8.4.7.7,1.4,1.1,2,.5.8.5.6,1.1.3,3.1-1.8,6.2-3.7,9.2-5.8,1.2-.8,2.4-1.7,3.6-2.5.4-.2.4-.5.1-.8-.5-.6-.9-1.4-1.6-2Z"/>
        <path d="M506.8,508.1c.3,0,.4-.3.6-.4,3.2-3.2,6.3-6.6,9.3-10.1.5-.6,1.1-1.1,1.4-1.9-.5-.6-1.2-1.1-1.9-1.6,0,0,0,0,0,0-.2-.2-.4-.2-.6,0,0,.1-.2.2-.3.4-2.5,3.2-5.3,6.1-8.1,9-.8.8-1.7,1.6-2.3,2.5.7.7,1.4,1.4,2,2.1Z"/>
        <path class="st9" d="M269.2,398.2c.6-30.8,11.2-59.7,32.5-84.5,25.1-27.8,56.3-42.7,93.7-44.7,36.5-.8,68.2,11,95,35.7,26.9,26.1,40.5,58,41.1,95.4-.4,72.8-58.6,131-131.4,130.9-72.5-.1-130.5-58.2-131-133Z"/>
        <path class="st9" d="M527.5,394.5c-.6-30.5-13.7-61.4-39.8-86.7-23.9-22.2-52.2-33.7-84.8-34.8-39.3-.1-72.1,14.4-98.5,43.6-19.9,23.4-30.4,50.4-31.3,81.1-.1,37.2,13.1,68.8,39.8,94.8,24,22.2,52.2,34,84.9,34.8,24.8.6,47.9-5.8,69.1-18.8,20.2-12.4,35.7-29.2,46.6-50.2,9.4-18.2,14-37.6,14.1-63.8Z"/>
        <path class="st9" d="M326.9,477c.2-.4.5-.6.7-.8,10.2-10.3,20.3-20.6,30.5-30.8,2.2-2.2,4.4-4.5,6.6-6.7,1-1,.8-.8,0-1.6-.5-.5-1-1-1.5-1.5,0,0-.1,0-.2-.1-.3.1-.5.4-.8.7-12.3,12.5-24.7,25-37,37.5-1,1-.8,1-1.7,0-1.1-1.2-2.2-2.4-3.2-3.6-.4-.5-.4-.7-1.2-.2-7.4,4.2-16.2-.3-17.7-8-.9-4.9.6-8.9,4.3-12.1.6-.5.6-.5.3-1.3-.8-1.6-1.6-3.2-2.3-4.8-.3-.8-.3-.8.5-1.1,5.5-2.3,11-4.6,16.6-6.9,10.7-4.5,21.4-9,32-13.4,1-.4,1-.4.6-1.4-.2-.5-.5-1.1-.7-1.6-.3-.7-.3-.7-1-.4-2.8,1.2-5.6,2.3-8.4,3.5-13.5,5.7-27,11.3-40.5,17-.2,0-.4.2-.7.3-.6-1-.9-2.2-1.3-3.2-.3-.8-.5-1.6-.8-2.4-.2-.5-.1-1.2-.6-1.4-.4-.2-1,0-1.4,0-2.8.2-5.4-.5-7.7-2.2-3.9-2.9-5.6-6.8-4.9-11.6.7-5,3.6-8.4,8.4-10,.2,0,.3,0,.5-.1.7-.2.7-.2.7-1,0-1.4-.1-2.8-.2-4.2,0-1.2-.2-1.2,1.1-1.2,17.3,0,34.6,0,51.9,0,1.5,0,1.3.2,1.3-1.3,0-.5,0-1.1,0-1.6,0-.5-.2-.7-.7-.7-.3,0-.6,0-.9,0-17.2,0-34.3,0-51.5,0-1.5,0-1.3.1-1.3-1.3,0-1.4.1-2.8.2-4.1,0-.8,0-.8-.7-1-4.5-1.3-7.4-4.3-8.6-8.8-2.1-7.9,4.2-15.5,12.3-15.1.3,0,.5,0,.8,0,.8.1.8.1,1.1-.7.6-1.9,1.3-3.8,2-5.7.3-.8.3-.8,1.1-.4,10.8,4.5,21.6,9.1,32.4,13.6,5.5,2.3,10.9,4.6,16.4,6.9.7.3.7.3,1-.4.3-.6.5-1.3.8-1.9.3-.6.3-.7-.4-.9-2-.8-3.9-1.7-5.9-2.5-9.6-4-19.3-8.1-28.9-12.1-4.7-2-9.3-3.9-14-5.9-.2-.1-.5-.2-.7-.4.3-.9.7-1.7,1.1-2.5.5-1,1-2,1.5-3,.4-.9.4-.7-.2-1.3-2.6-2.1-4.2-4.9-4.5-8.3-.7-6.5,3.6-11.9,9.2-13.2,3.1-.7,5.9-.3,8.7,1.3.7.4.7.4,1.2-.2,1.3-1.5,2.6-3,4.1-4.6,12.9,13,25.7,26,38.5,39,.9-.9,1.7-1.7,2.5-2.5-12.8-12.9-25.6-25.9-38.4-38.9,0-.4.4-.5.6-.8,1.3-1.2,2.5-2.4,3.9-3.5q.8-.7.3-1.6c-2.7-5.1-1.5-11.3,2.8-15,5.1-4.4,12.8-3.7,17.1,1.5,0,0,.1.2.2.2.6.8.5.6,1.3.2,1.5-.7,2.9-1.4,4.4-2.1.7-.3.8-.3,1,.4,1.4,3.5,2.9,7.1,4.3,10.6,3.4,8.3,6.8,16.6,10.2,24.8,1.9,4.7,3.9,9.4,5.8,14.2,0,.2.1.3.2.5,0,.3.2.4.5.3.9-.4,1.8-.7,2.6-1.1.4-.2.1-.4,0-.7-.8-1.9-1.5-3.8-2.3-5.7-4.4-10.7-8.7-21.4-13.1-32.1-1.6-3.9-3.2-7.8-4.8-11.8,0-.2-.1-.3-.2-.5-.3-.7-.3-.7.5-1,1.8-.7,3.6-1.3,5.4-1.9.7-.2.7-.2.6-1-.7-6.2,3.1-11.7,8.9-13.3,5.7-1.5,11.7,1.4,14,6.8.3.6.5,1.3.7,2,0,.5.3.6.8.5,1.4,0,2.9-.2,4.3-.2.3,0,.5,0,.8,0,.7,0,.8,0,.8.8,0,1.3,0,2.6,0,3.9,0,16.4,0,32.7,0,49.1,0,.3,0,.5,0,.8,0,.9,0,.9.9.9.7,0,1.4,0,2.1,0,.3,0,.5-.1.5-.5,0-.3,0-.7,0-1,0-17.6,0-35.1,0-52.7,0-1.4-.2-1.3,1.4-1.3,1.3,0,2.6.1,3.9.2.8,0,.8,0,1-.8.9-3.4,2.9-6,6-7.6,7-3.8,15.5.1,17.4,7.9.3,1.5.4,2.9.2,4.4,0,.6-.2.7.6,1,1.8.6,3.7,1.3,5.5,1.9,1,.4,1,.4.6,1.3-1.8,4.3-3.5,8.6-5.3,12.9-4.9,12.1-9.9,24.1-14.8,36.2-.5,1.1-.5,1.1.6,1.6.5.2.9.4,1.4.6.7.3.8.5,1.2-.5.8-2,1.7-4.1,2.5-6.1,4.7-11.5,9.4-23,14.1-34.5,1.2-2.9,2.3-5.7,3.5-8.6,0-.1.1-.2.2-.4.1-.5.4-.6.9-.4,1.5.7,3,1.4,4.5,2.1.2,0,.4.2.6.3.5.3.7.2,1-.3,1.4-1.8,3.2-3.2,5.4-4,6.9-2.5,14.3,1.6,15.9,8.9.6,3,.2,5.9-1.3,8.6-.4.7-.3.7.2,1.2,1.5,1.3,3,2.7,4.4,4.1-.1.4-.5.7-.8.9-12.3,12.4-24.5,24.8-36.8,37.2,0,0-.1.1-.2.2-.6.6-.6.6,0,1.2.6.6,1.2,1.3,1.9,1.8,1.7-1.6,3.3-3.2,5-4.9,8.8-8.8,17.5-17.7,26.3-26.6,2.2-2.3,4.5-4.5,6.7-6.8.5-.5.6-.5,1,0,1.3,1.4,2.6,2.9,3.9,4.4.3.4.6.5,1.1.2,7-4,15.7,0,17.6,7.5,1.2,5-.3,9.2-4.1,12.6-.7.6-.7.6-.3,1.4.7,1.4,1.4,2.9,2,4.3.4.8.4.8-.4,1.1-8,3.4-16.1,6.7-24.1,10.1-8,3.4-16.1,6.7-24.1,10.1-.3.1-.7.2-1,.6.4,1,.9,2.1,1.3,3.2,16.7-7,33.3-14,49.9-20.9.3.4.4.8.6,1.2.6,1.7,1.2,3.3,1.7,5,.1.4.3.6.8.6,6.8-.8,12,3.7,13.3,9.2,1.5,6.2-2.3,12.8-8.5,14.5-.9.2-.9.2-.8,1.1.1,1.6.2,3.3.2,4.9,0,.8,0,.8-.8.8-.3,0-.6,0-.9,0-17,0-34.1,0-51.1,0-1.5,0-1.3-.2-1.3,1.3,0,.6-.3,1.5.2,1.9.4.4,1.2.1,1.8.1,16.9,0,33.9,0,50.8,0,1.3,0,1.3-.2,1.2,1.3,0,1.5,0,3-.2,4.4,0,.9,0,.9.8,1.1,4.2,1.2,7,3.9,8.2,8.1,2.2,7-2,14.1-9.2,15.6-1.2.2-2.4.3-3.6.1-.9,0-.9,0-1.1.8-.6,1.6-1.1,3.3-1.7,4.9-.5,1.3-.4,1.1-1.4.7-5.3-2.2-10.5-4.4-15.7-6.6-10.9-4.6-21.7-9.1-32.6-13.7-.7-.3-.7-.3-1.1.4-.3.7-.5,1.3-.9,2-.2.5,0,.6.4.8,2.5,1,5,2.1,7.5,3.1,11.7,4.9,23.4,9.8,35,14.7,2.1.9,4.2,1.8,6.3,2.6.7.3.7.3.4,1.1-.7,1.5-1.4,3.1-2.1,4.6-.2.4-.2.7.2,1.1,2.5,2,4,4.6,4.6,7.7.9,5-1.7,10.4-6.2,12.7-3.9,2-7.7,1.9-11.5-.1-.6-.3-.6-.3-1.1.2-1.2,1.4-2.5,2.8-3.7,4.2-.7.7-.6.7-1.3,0-6.3-6.4-12.6-12.8-19-19.2-6-6.1-12-12.2-18.1-18.3-1-1-.7-1-1.7,0-.5.5-1.1,1.1-1.6,1.6.1.4.4.6.7.8,11.9,12,23.8,24.1,35.7,36.1.5.5,1.1,1.1,1.6,1.6.5.5.5.5,0,1-1.3,1.2-2.6,2.4-3.9,3.6-.6.6-.7.5-.3,1.3,3.8,6.8.4,15.2-6.9,17.6-4.6,1.5-9.8,0-12.9-4-.7-.9-.6-.7-1.4-.3-1.8.9-3.5,1.8-5.4,2.5-.6-1-.9-2.1-1.3-3.1-5.4-13.1-10.7-26.1-16-39.2-1.1-2.7-2.2-5.4-3.3-8.1-.3-.7-.3-.7-1-.4-.7.3-1.3.6-2,.8-.5.2-.5.3-.3.8,1.1,2.6,2.1,5.2,3.2,7.8,4.8,11.8,9.7,23.6,14.5,35.4.9,2.1,1.7,4.2,2.6,6.3,0,.2.2.4.3.6.2.4,0,.6-.4.7-1,.4-2,.8-3,1.1-1,.3-1.9.7-2.9,1-.5.2-.6.4-.6.9.4,2.9-.1,5.7-1.7,8.1-2.7,4.1-6.5,6-11.3,5.6-4.7-.4-8-3-9.9-7.3-.3-.6-.5-1.2-.6-1.9,0-.5-.3-.6-.8-.6-1.4.1-2.8.2-4.2.2-1.4,0-1.3.2-1.3-1.2,0-5.4,0-10.7,0-16.1,0-12.4,0-24.7,0-37.1,0-1.3.1-1.2-1.1-1.2-.6,0-1.1,0-1.7,0-.4,0-.6.1-.6.6,0,.3,0,.6,0,.9,0,17.6,0,35.2,0,52.8,0,1.5.2,1.3-1.3,1.3-1.4,0-2.9-.1-4.3-.2-.8,0-.8,0-1.1.7-1.1,3.9-3.5,6.6-7.2,8.1-6.4,2.6-13.7-.9-15.8-7.4-.6-1.8-.7-3.6-.5-5.5,0-.6,0-.7-.6-.9-1.7-.6-3.5-1.2-5.2-1.9-1-.4-1-.4-.6-1.3,2.2-5.4,4.4-10.8,6.6-16.2,4.6-11.1,9.1-22.3,13.7-33.4.3-.8.3-.8-.5-1.1-.6-.2-1.2-.5-1.8-.7-.6-.2-.7-.2-.9.4-1,2.3-1.9,4.6-2.8,6.9-4.2,10.2-8.4,20.5-12.6,30.7-1.6,4-3.3,8-4.9,12,0,.2-.1.3-.2.5-.1.5-.4.5-.8.3-1.4-.7-2.8-1.3-4.2-2,0,0-.1,0-.2,0-1-.5-.8-.6-1.6.3-3.2,3.8-7.2,5.3-12,4.2-4.8-1.1-7.8-4.3-9-9.1-.7-3-.3-6,1.2-8.7.5-.8.4-.7-.2-1.2-1.5-1.3-3-2.6-4.4-4-.1-.1-.2-.2-.3-.4Z"/>
        <path class="st7" d="M435.5,497.9c0-.2-.1-.3-.2-.4-1-2.4-2-4.7-2.9-7.1-1.5-3.7-3-7.5-4.6-11.2-1.3-3.2-2.6-6.3-3.9-9.5-2.7-6.6-5.4-13.2-8.1-19.8-.4-.9-.5-.8-1.1-.6-3,.8-6.1,1.5-9.2,1.8-1.2.1-1.2.2-1.2,1.4,0,16.8,0,33.7,0,50.5,0,.2,0,.3,0,.5,0,.8.1.9.9.8.8,0,1.6-.2,2.3-.3,1.4,0,2.7.7,2.9,2,0,.7.3,1.3.6,2,1.5,3.9,5.8,6.4,9.5,6,2.1-.2,3.9-1,5.5-2.5,1.1-1,1.9-2.1,2.5-3.4.8-1.6.9-3.4.7-5.2-.2-2,.6-3,2-3.4.2,0,.3,0,.5-.1,1.2-.4,2.5-.8,3.7-1.4Z"/>
        <path class="st7" d="M435.6,302.3c-1.3-.5-2.5-1-3.7-1.4-.2,0-.4-.1-.6-.2-1.5-.4-2.2-1.7-2-3.4.2-1.8,0-3.6-.7-5.2-.6-1.3-1.5-2.4-2.5-3.4-1.2-1.2-2.6-1.8-4.1-2.2-1.8-.5-3.6-.3-5.4.4-3.3,1.3-5.3,3.7-6.1,7.1-.4,1.6-1.3,2.3-3,2.2-.9,0-1.8-.1-2.8-.2-.3,0-.5,0-.5.4,0,.4,0,.9,0,1.3,0,16.7,0,33.4,0,50.1,0,.2,0,.4,0,.6,0,.4.2.6.6.6,3.4.3,6.8,1,10,2,.6.2.7,0,.9-.5,1.7-4.2,3.4-8.4,5.1-12.6,1.4-3.4,2.8-6.9,4.2-10.3,1.2-3,2.4-6,3.7-8.9,1.3-3.1,2.6-6.3,3.8-9.4.9-2.3,1.9-4.6,2.8-7Z"/>
        <path class="st7" d="M364.8,498c1.4.7,2.8,1.1,4.1,1.6,1.3.5,1.8,1.3,1.9,2.6,0,.3,0,.6,0,.9-.4,1.7,0,3.4.7,4.9,2.3,5.5,9.2,7.9,14.6,3.9,1.8-1.4,3-3.3,3.4-5.6.3-1.6,1.3-2.4,2.7-2.3.9.1,1.9,0,2.8.3,1,.2,1.1,0,1.1-1,0,0,0,0,0,0,0-16.9,0-33.7,0-50.6,0-.3,0-.5,0-.8,0-.5-.2-.7-.7-.7-3.3-.3-6.6-1-9.8-1.9-.7-.2-.7-.2-1,.5-1.2,3-2.4,5.9-3.6,8.9-1.8,4.4-3.6,8.7-5.4,13.1-2,4.9-4,9.7-5.9,14.6-1.6,3.9-3.2,7.8-4.8,11.7Z"/>
        <path class="st7" d="M323.3,404.4c-8.2,0-16.5,0-24.7,0-.3,0-.5,0-.8,0-.4,0-.6.2-.6.6,0,1,.1,1.9.2,2.9,0,1.3-.4,2.4-2,2.8-1.5.4-3.1.9-4.3,2-2.5,2.3-3.7,5-3.4,8.4,0,.8.4,1.5.5,2.2.5,2.1,2,3.6,3.7,4.9,1.1.9,2.5,1.3,3.9,1.5,1,.2,2,.1,2.9,0,1.6-.2,2.6.3,3.2,1.8,0,.2.2.5.2.7.4,1.1.7,2.1,1.1,3.2.1.4.3.6.8.4,1.5-.7,3-1.3,4.5-1.9,3.9-1.7,7.8-3.2,11.7-4.9,3.7-1.6,7.5-3.1,11.3-4.7,3.6-1.5,7.3-3.1,10.9-4.6,2.8-1.2,5.6-2.4,8.5-3.5.5-.2.6-.4.4-.9-.6-1.8-1-3.7-1.4-5.6-.3-1.5-.5-3.1-.7-4.7,0-.5-.3-.7-.7-.6-.2,0-.5,0-.7,0-8.2,0-16.3,0-24.5,0Z"/>
        <path class="st7" d="M396.1,322.6c0-8.3,0-16.5,0-24.8,0-.4,0-.8,0-1.2,0-.5-.2-.6-.6-.5-1.1,0-2.2.1-3.2.2-1.6,0-2.5-.6-2.8-2.1-.1-.8-.5-1.5-.8-2.2-.5-1.3-1.3-2.4-2.4-3.2-3-2.4-6.4-3-10-1.4-2.8,1.2-4.5,3.3-5.3,6.2-.3,1.3-.6,2.6-.3,4,0,.3,0,.7,0,1-.1,1.1-.7,1.8-1.7,2.2-.2,0-.5.2-.7.3-1,.4-2,.8-3.1,1.1-.4.1-.4.3-.3.6,1.4,3.4,2.8,6.9,4.2,10.3,1.6,3.9,3.2,7.8,4.8,11.8,1.7,4.1,3.4,8.3,5.1,12.4,1.8,4.4,3.6,8.9,5.5,13.3.3.7.3.7,1,.5,3.1-.9,6.2-1.6,9.5-1.9,1.1,0,1.1-.1,1.1-1.3,0-8.4,0-16.9,0-25.3Z"/>
        <path class="st7" d="M324.4,470.7c.2-.2.3-.3.5-.4,1.6-1.6,3.2-3.3,4.8-4.9,2.9-3,5.8-5.9,8.7-8.8,3-3.1,6.1-6.1,9.1-9.2,2.2-2.3,4.5-4.5,6.7-6.8,2-2.1,4-4.1,6.1-6.2.9-.9,1-.9.2-1.9-2-2.5-3.8-5.1-5.3-7.9-.4-.8-.4-.8-1.3-.4-1.7.7-3.3,1.4-5,2.1-3.9,1.7-7.9,3.3-11.8,5-4.2,1.8-8.4,3.4-12.6,5.2-3,1.3-6.1,2.5-9.1,3.8-2.7,1.2-5.5,2.3-8.3,3.5-.4.2-.5.4-.3.8.5,1,1.1,2.1,1.6,3.2.7,1.4.4,2.5-.8,3.5-.8.6-1.5,1.3-2.1,2.1-2.9,4-2.4,8.9.7,12.5,1.3,1.6,3.1,2.4,5.1,2.8,2.3.5,4.6,0,6.6-1.2,1.7-1,2.8-.8,4.1.7.8.9,1.4,1.9,2.4,2.6Z"/>
        <path class="st7" d="M469.9,476.8c-.2-.5-.6-.7-1-1-2.9-2.9-5.7-5.8-8.6-8.7-2.1-2.1-4.3-4.3-6.4-6.4-2.5-2.5-4.9-5-7.4-7.6-1.5-1.6-3.1-3.1-4.7-4.7-2.8-2.8-5.6-5.6-8.3-8.4-.3-.3-.5-.5-1-.1-2.7,2.2-5.6,4.1-8.6,5.7-.5.2-.5.4-.3.9.8,1.9,1.6,3.7,2.4,5.6,2,5,4,9.9,6,14.9,1.5,3.6,3,7.2,4.4,10.7,2.2,5.4,4.4,10.8,6.6,16.2.3.7.3.8,1,.4.9-.4,1.8-.9,2.7-1.3,1.6-.8,3-.3,3.8.9.6.9,1.5,1.7,2.4,2.3,3.6,2.3,8,2.1,11.3-.7,1.3-1,2.1-2.3,2.7-3.9.5-1.3.7-2.5.7-3.8,0-1.7-.6-3.4-1.5-4.9-.7-1.3-.4-2.6.7-3.5,1-.8,1.9-1.7,2.8-2.6Z"/>
        <path class="st7" d="M306.7,356.3c1.3.6,2.5,1.1,3.7,1.6,4.7,2,9.4,3.9,14.1,5.9,4,1.7,8.1,3.4,12.1,5,3.4,1.4,6.7,2.8,10.1,4.3,2.2.9,4.5,1.8,6.7,2.8.3.1.6.2.9.4.3.2.6,0,.7-.3,0-.2.2-.3.2-.4,1.6-2.9,3.5-5.7,5.6-8.3q.5-.6,0-1.1c-2.8-2.8-5.6-5.7-8.4-8.5-4.1-4.1-8.2-8.3-12.3-12.4-2.8-2.9-5.7-5.8-8.5-8.6-2.2-2.2-4.3-4.4-6.4-6.5-.7-.8-.7-.7-1.4.1-.6.7-1.2,1.5-1.9,2.2-.8.9-2.3,1.4-3.6.5-.6-.4-1.2-.6-1.9-.9-1.6-.7-3.2-.7-4.8-.4-3.2.6-5.5,2.5-6.9,5.4-1,2-1.2,4.2-.7,6.4.5,2.4,1.9,4.2,3.8,5.7.5.4.9.9,1,1.5.2.8,0,1.4-.3,2.1-.5,1.2-1.1,2.3-1.7,3.6Z"/>
        <path class="st7" d="M467.9,312.6c0-2.2-.4-3.8-1.2-5.2-1.1-2.3-3.1-3.7-5.4-4.5-2.4-.9-4.8-.6-7.1.4-1.5.7-2.6,1.7-3.6,3-.4.6-1,1-1.8,1.2-.8.2-1.4,0-2.1-.4-.9-.4-1.7-.9-2.6-1.3-.8-.4-.8-.4-1.1.4-1.1,2.6-2.2,5.3-3.2,7.9-1.9,4.7-3.9,9.5-5.8,14.2-1.3,3.3-2.7,6.6-4.1,9.8-2.1,5.1-4.2,10.2-6.3,15.3-.3.7-.3.7.4,1,3,1.5,5.8,3.4,8.5,5.6.4.3.7.3,1.1,0,1.6-1.6,3.2-3.2,4.7-4.8,3.4-3.5,6.8-7,10.2-10.4,2.8-2.9,5.6-5.7,8.5-8.6,3.4-3.4,6.8-6.9,10.2-10.3.8-.8,1.5-1.6,2.3-2.3.3-.3.3-.5,0-.8-.8-.7-1.5-1.4-2.3-2-1.4-1.1-1.6-2.7-.8-4,1-1.5,1.3-3.3,1.4-4.5Z"/>
        <path class="st7" d="M323.2,395.9c8.2,0,16.5,0,24.7,0,.3,0,.5,0,.8,0,.4,0,.5-.2.6-.5,0-.2,0-.3,0-.5,0-1.8.5-3.6.8-5.3.3-1.5.7-3.1,1.2-4.6.1-.4,0-.6-.3-.8-.6-.2-1.2-.5-1.7-.7-3.3-1.4-6.5-2.8-9.8-4.1-6-2.5-12.1-5-18.1-7.6-4.6-1.9-9.3-3.9-13.9-5.8-1.1-.5-2.3-.9-3.4-1.4-.6-.3-.7-.3-1,.4,0,.2-.1.3-.2.5-.4,1.2-.8,2.4-1.2,3.5-.5,1.3-1.4,1.8-2.9,1.6-1.5-.1-3-.1-4.6.3-2.2.7-3.7,2.1-5,3.8-.6.8-.9,1.7-1.2,2.7-.8,2.1-.6,4.2.1,6.2,1.3,3.3,3.6,5.4,7.1,6.1,1.3.3,2.2,1.3,2.1,2.9,0,.7-.2,1.4-.2,2.2,0,1.1,0,1.1,1.2,1.1,8.3,0,16.5,0,24.8,0Z"/>
        <path class="st7" d="M477.1,396c8.2,0,16.4,0,24.6,0,.3,0,.5,0,.8,0,.4,0,.5-.1.5-.5,0-1,0-1.9-.1-2.9-.2-1.9.5-2.8,2.3-3.3,1.2-.3,2.4-.9,3.4-1.6,1.9-1.3,2.9-3.2,3.6-5.4.7-2.5.3-4.9-.9-7-1.6-3-4.2-4.6-7.6-4.9-.8,0-1.5,0-2.2,0-1.8.1-2.7-.5-3.2-2.2-.4-1.1-.8-2.2-1.1-3.3-.1-.4-.3-.5-.7-.3-1.5.8-3,1.3-4.5,1.9-3.8,1.6-7.6,3.2-11.4,4.8-2.9,1.2-5.9,2.4-8.8,3.7-4.2,1.8-8.5,3.6-12.7,5.4-3,1.2-6,2.6-9.1,3.8-.5.2-.6.4-.4.9.9,3.2,1.7,6.5,2,9.8,0,1.1.2,1.1,1.3,1.1,8.2,0,16.3,0,24.5,0Z"/>
        <path class="st7" d="M367.5,439.5c-.1.1-.2.2-.3.3-2.3,2.3-4.6,4.6-6.9,6.9-3.1,3.1-6.2,6.2-9.2,9.3-3.7,3.7-7.3,7.5-11,11.2-3,3-6,6.1-9,9.1-.5.5-.5.5,0,1,.9.8,1.7,1.6,2.6,2.4,1.2,1.1,1.4,2.8.5,4.1-.3.5-.6.9-.7,1.5-.4,1.5-.6,2.9-.4,4.5.4,3.5,2.5,5.7,5.3,7.4.6.3,1.1.4,1.5.6,1.7.4,2.9.4,4.4.1,1.2-.2,2.2-.7,3.2-1.4,1-.6,1.8-1.2,2.4-2.3.3-.6.8-1,1.4-1.2.9-.3,1.8-.3,2.7.2.8.4,1.7.8,2.6,1.2.3.2.5.1.7-.3.2-.6.5-1.2.7-1.7,1.3-3.1,2.6-6.3,3.9-9.4,1.5-3.7,3-7.5,4.6-11.2,1.8-4.4,3.6-8.7,5.4-13.1,1.7-4.1,3.3-8.2,5-12.2.3-.8.4-.8-.5-1.3-2.2-1.2-4.3-2.5-6.3-4-.8-.6-1.6-1.2-2.4-1.8Z"/>
        <path class="st7" d="M330.5,323.4c.1.2.2.3.3.4,1.6,1.6,3.1,3.2,4.7,4.8,3.8,3.9,7.7,7.8,11.5,11.6,1.8,1.8,3.5,3.6,5.3,5.3,1.4,1.4,2.8,2.8,4.2,4.2,1.7,1.7,3.4,3.4,5.1,5.1,1.8,1.8,3.6,3.6,5.4,5.4.4.4.6.4,1,0,.8-.7,1.7-1.3,2.5-1.9,1.9-1.4,3.9-2.6,6-3.7.5-.2.6-.4.3-.9-.2-.5-.4-1-.6-1.4-1.5-3.8-3.1-7.5-4.6-11.3-1-2.4-2-4.8-3-7.2-1.5-3.7-3-7.4-4.5-11.1-1.5-3.7-3-7.4-4.5-11.1-.7-1.8-1.4-3.5-2.2-5.3-.3-.8-.3-.8-1.1-.4-.8.4-1.5.8-2.3,1.1-1.7.8-3.2.3-4.1-1.3,0-.2-.2-.3-.3-.5-1.3-1.3-2.8-2.3-4.6-2.8-2.3-.6-4.5-.2-6.6.6-.3.1-.7.3-1,.5s-.6.5-1,.7c-.8.5-1.3,1.3-1.8,2.2-1.4,2.2-1.9,4.6-1.4,7.2.2.9.4,1.9,1,2.7,1.1,1.5.9,3.1-.5,4.3-1,.9-2,1.7-3,2.8Z"/>
        <path class="st7" d="M487.3,468.3c4.2-.3,7.1-2,8.8-5.8.6-1.2.9-2.6.9-3.9,0-1.6-.3-3.1-1.1-4.6-.7-1.3-1.6-2.4-2.8-3.2-.4-.3-.7-.7-.9-1.1-.4-.9-.4-1.8,0-2.8.4-.9.8-1.7,1.2-2.6.2-.4.2-.6-.3-.8-1-.4-2-.8-3-1.3-4.8-2-9.5-4-14.3-6-4.6-1.9-9.2-3.9-13.8-5.8-3.6-1.5-7.3-3-10.9-4.6-1.6-.7-3.2-1.3-4.7-2-.5-.2-.7-.1-.9.3-.2.4-.4.8-.6,1.1-1.5,2.6-3.2,5-5,7.3q-.6.7,0,1.3c2.1,2.1,4.1,4.2,6.2,6.2,2.5,2.5,4.9,5,7.4,7.4,2.6,2.6,5.2,5.3,7.7,7.9,2.3,2.3,4.6,4.6,6.8,6.9,2.5,2.5,4.9,5,7.4,7.5.6.6.7.6,1.2,0,.7-.8,1.4-1.5,2-2.3,1-1.3,2.7-1.6,4.1-.7,1.4.9,3,1.2,4.6,1.3Z"/>
        <path class="st7" d="M503,404.3h-1.2c-16.4,0-32.9,0-49.3,0-.2,0-.5,0-.7,0-.4,0-.5.2-.5.5,0,.7-.1,1.4-.3,2.1-.5,2.8-.9,5.6-1.9,8.3-.2.6-.2.6.5.9,1.2.5,2.4,1,3.6,1.5,2.5,1.1,5.2,2.1,7.7,3.2,4.7,2,9.4,3.9,14.1,5.9,4.7,2,9.5,3.9,14.2,6,2.3,1,4.7,1.8,6.9,2.9.6.3.6.2.8-.4.4-1.1.8-2.2,1.1-3.3.6-1.7,1.6-2.4,3.5-2.1,1.3.2,2.6.1,3.9-.3,4.2-1.3,6.9-5,6.9-9.6,0-.8-.2-1.6-.4-2.4-.9-3.3-3.1-5.4-6.3-6.4-.5-.2-1-.3-1.5-.6-1.1-.5-1.5-1.4-1.4-2.6,0-1.2,0-2.4.2-3.8Z"/>
        <path class="st7" d="M497,341.5c0-1.3-.4-2.6-1-3.8-.9-1.8-2.1-3.3-3.8-4.4-1.4-.8-2.9-1.2-4.4-1.2-1.1,0-2.2,0-3.2.4-.7.2-1.4.6-2,.9-1.8.7-2.8.5-4-.9-.7-.8-1.3-1.6-2-2.3-.4-.5-.5-.5-1,0-.6.6-1.1,1.2-1.7,1.8-2.8,2.9-5.7,5.8-8.5,8.6-3.3,3.3-6.5,6.6-9.8,9.9-2.5,2.5-5,5.1-7.6,7.7-1.2,1.2-2.4,2.5-3.6,3.7-1.6,1.5-3,3.2-4.7,4.7-.3.3-.3.5,0,.8.6.7,1.2,1.5,1.8,2.3,1.4,1.9,2.7,3.9,3.9,6.1.5.9.5.9,1.4.5,2.1-.9,4.1-1.7,6.2-2.6,3.5-1.5,7-3,10.4-4.4,3.3-1.4,6.7-2.7,10-4.2,3.8-1.6,7.6-3.2,11.4-4.8,2.7-1.2,5.5-2.3,8.3-3.4.4-.2.6-.4.3-.8-.4-.8-.8-1.7-1.2-2.6-.8-1.7-.4-3.2,1.2-4.1.2-.1.4-.3.5-.4.8-.8,1.4-1.6,1.9-2.6.9-1.5,1.1-3,1.1-4.6Z"/>
        <path class="st8" d="M449,400.1c.1-26.7-21.7-48.7-48.6-48.8-26.9,0-48.9,21.8-48.9,48.7,0,26.8,21.9,48.8,48.8,48.8,26.8,0,48.8-21.9,48.7-48.8Z"/>
        <path class="st7" d="M432,396.2c-4.6-.9-9-1.8-13.4-2.6-2.9-.6-5.8-1.1-8.7-1.7-.9-.2-.9-.2-1-1.1-.5-4.4-1-8.9-1.6-13.3-.3-2.5-.9-8.3-1-8.6,3-.3,11.2,3.7,15.4,7.5,5.8,5.3,9.2,11.9,10.4,19.9Z"/>
        <path class="st7" d="M432.2,397.1c.4,6.5-.9,12.4-4,17.9-3.6,6.4-8.8,11-15.6,13.9-.3-1-1.1-10.4-1.4-14-.2-2.7-.5-5.4-.7-8.1,0-.5.2-.6.6-.8,1.6-.7,3.2-1.4,4.8-2,5.1-2.2,10.3-4.3,15.4-6.5.2,0,.4-.2.8-.3Z"/>
        <path class="st7" d="M372.5,384.3c3.6-6.1,8.5-10.6,15-13.5,5.7-2.5,11.7-3.2,17.8-2.3,0,.4-7.2,13.2-10.6,19.4-.5.8-.5.8-1.4.6-6.7-1.3-20.4-4.1-20.7-4.2Z"/>
        <path class="st7" d="M411.8,429c-9.9,4.6-25.3,3.2-35.1-7.3,0-.3,12.8-6.1,18.9-9,.9-.4.9-.4,1.5.3,4.2,4.5,8.3,9,12.5,13.6.7.8,1.5,1.6,2.2,2.4Z"/>
        <path class="st7" d="M376.1,420.8c-8.2-8.7-10.3-23.8-4.3-35,.9.7,13.7,14.7,14.5,15.5.6.6.6.6.2,1.3-1.2,2.2-2.4,4.3-3.6,6.4-2.1,3.7-6.4,11.6-6.7,11.8Z"/>
        <path class="st7" d="M391.8,407.1c.9-1.5,1.7-3.1,2.6-4.6.2-.3.4-.6.5-.9.6-1.1.6-1.1-.3-2.1-1.4-1.5-2.8-3-4.3-4.6.3-.1.5-.1.7,0,2,.4,4.1.8,6.1,1.2.8.2.8.2,1.2-.6,1-1.8,2-3.5,2.9-5.3.1-.2.2-.5.5-.7.3.9.3,1.8.4,2.7.2,1.4.3,2.7.5,4.1,0,.8.1.8.9,1,2,.4,4.1.8,6.1,1.2.2,0,.5,0,.7.3-1.2.6-2.4,1.1-3.6,1.7-.9.4-1.8.8-2.7,1.2-.5.2-.7.5-.6,1.1.3,1.9.5,3.8.7,5.8,0,.4,0,.7,0,1.2-.8-.5-1.3-1.3-1.9-1.9-1-1-2-2.1-2.9-3.2-.3-.4-.6-.4-1.1-.2-1.7.8-3.5,1.6-5.2,2.4-.4.2-.8.3-1.1.5,0,0,0,0-.1-.1Z"/>
      </g>
    </g>
  </g>
  <g id="Layer_16">
    <g id="C">
      <path class="st9" d="M402.1,165.2c-6.9,0-12.5-2.1-16.9-6.4-4.4-4.3-6.6-9.6-6.6-16.2s2.2-12.1,6.6-16.3c4.4-4.2,10-6.3,16.9-6.3s5.5.5,7.7,1.5l6.4,3.6c1.2,0,2-.4,2.4-1.2.4-.8.7-2,.8-3.5h1.2v19h-1c-1.8-4.9-3-8.2-3.8-9.9-.7-1.7-2-3.4-3.7-5-1.7-1.6-3.9-2.4-6.6-2.4s-6.1,2-7.7,5.9c-1.7,3.9-2.5,8.5-2.5,13.7s1,10.5,3,14.7c2,4.1,5,6.2,8.9,6.2s6.6-1.3,8.8-4c2.2-2.6,3.7-6.1,4.4-10.3l1,.2c-.6,4.8-2.4,8.8-5.5,11.9-3.1,3.2-7.7,4.7-13.7,4.7Z"/>
    </g>
    <g id="C_x23_">
      <g>
        <g>
          <path class="st9" d="M511.1,202.6l.3-.5c.3.1.6.3.9.5s.8.3,1.2.5c.5.2.9.2,1.2.1.4-.1.8-.5,1.2-1.1l.8-1.3,8.1-14,.7-1.4c.3-.7.4-1.2.3-1.6,0-.4-.3-.7-.7-1-.4-.3-.8-.6-1.1-.8-.3-.2-.6-.4-.9-.6l.3-.5,11.1,6.3c2.3,1.3,4.4,2.8,6.1,4.4,1.8,1.6,3,3.8,3.7,6.6.7,2.8.1,5.8-1.7,9-1.8,3.1-3.9,4.9-6.3,5.5-2.4.6-4.6.5-6.5,0-1.9-.6-4-1.6-6.3-2.9l-12.4-7.2ZM537,190c-.2-.3-.6-.6-1.1-1-.6-.4-1-.7-1.5-.9l-.4-.2-11.8,20.4c.1,0,.3.2.4.2s.3.2.4.3c.7.4,1.5.8,2.1,1s1.4.3,2.2.3c.8,0,1.9-.9,3.4-2.3,1.5-1.5,2.8-3.1,3.9-4.9,1.5-2.6,2.5-5,3-7.4.5-2.4.3-4.2-.7-5.5Z"/>
          <path class="st9" d="M551.2,220.1c-.8,1.3-1.8,2.1-3.2,2.4s-2.7,0-4.1-.8c-.9-.5-1.5-1.1-1.8-1.8-.3-.7-.5-1.3-.6-1.9h-.1c-.3,0-.6.1-.9.3-.4.2-.7.4-1,.6h-.2c.3-.6.6-1,.8-1.4s.5-.9.9-1.5l4.7-8.2.4-.7c.2-.3.3-.6.2-.8,0-.2-.2-.4-.5-.6l-.7-.4.2-.3,4.9,2.8-2.3,4-.8,1.4c.3-.2.6-.3,1-.3s1,.1,1.8.6c1.1.6,1.8,1.6,2.1,2.8s0,2.5-.7,3.8ZM547.7,218.1c0-.2.3-.5.5-1,.2-.5.4-.8.5-.9.4-.6.6-1.2.6-1.7,0-.5-.2-.9-.6-1.1-.4-.2-.7-.3-1-.1-.3.1-.5.3-.7.5s-.5.6-.8,1.1c-.3.5-.6,1-.9,1.5l-.7,1.2c-.2.3-.4.7-.5,1-.4.6-.6,1.2-.6,1.7,0,.5.1.9.5,1.1.4.2.8.2,1.2-.1s.8-.8,1.2-1.4c.1-.2.3-.5.5-.8s.4-.7.7-1Z"/>
        </g>
        <g>
          <path class="st9" d="M498.9,175.3c-3.4-2-5.6-4.6-6.5-8-1-3.4-.5-6.6,1.3-9.8,1.9-3.3,4.5-5.3,7.9-6.2,3.3-.8,6.7-.2,10.1,1.7,1.5.8,2.6,1.8,3.4,2.9l2.1,3.6c.6.3,1.1.4,1.5,0,.4-.3.9-.8,1.4-1.5l.6.3-5.4,9.3-.5-.3c.5-2.9.8-4.9,1-5.9.1-1.1,0-2.2-.4-3.5-.4-1.3-1.2-2.3-2.6-3.1-1.7-1-3.5-.8-5.5.7-1.9,1.5-3.7,3.5-5.1,6.1-1.6,2.8-2.5,5.5-2.7,8.1-.2,2.6.7,4.5,2.6,5.6,1.8,1,3.6,1.2,5.4.5,1.8-.7,3.5-2,5.1-3.8l.5.4c-1.6,2.2-3.7,3.6-6.1,4.3-2.4.7-5.1.2-8.1-1.6Z"/>
          <path class="st9" d="M528.8,159.2l.4.4-3.1,2.7,2.9,1.6,3.2-2.8.4.4-3.1,2.7,2.9,1.7-2,1.6-2.9-1.7-1.8,1.5,3,1.7-2,1.6-2.9-1.7-3.3,2.8-.4-.4,3.2-2.7-2.9-1.6-3.3,2.8-.4-.4,3.2-2.7-2.9-1.7,2-1.6,2.9,1.7,1.8-1.5-3-1.7,2-1.7,2.9,1.7,3.2-2.8ZM524,163.9l-1.8,1.5,3,1.7,1.8-1.5-3-1.7Z"/>
        </g>
        <path class="st9" d="M501.9,193.9l34.1-25.7,1.4,1.6-34.1,25.7-1.4-1.6Z"/>
      </g>
    </g>
    <g id="D">
      <path class="st9" d="M591.8,259.1l.8-.5c.3.5.6,1,1,1.5.4.6.8,1.2,1.4,1.9.5.7,1.1,1.1,1.8,1.3.7.1,1.6,0,2.7-.6l2.5-1.3,24.6-14.2,2.3-1.5c1-.7,1.7-1.5,1.9-2.1.2-.7.2-1.4-.2-2.2-.3-.8-.7-1.5-1-2.1-.3-.6-.6-1.2-.9-1.7l.8-.5,11.3,19.3c2.3,4.1,4.2,8.1,5.5,12.1,1.3,4,1.3,8.5,0,13.3-1.4,4.8-4.9,8.9-10.6,12.2-5.4,3.1-10.2,4.1-14.4,2.9-4.2-1.2-7.4-3.2-9.8-5.8s-4.7-6-7.1-10l-12.6-21.9ZM642.3,262.5c0-.6-.4-1.4-.9-2.5-.5-1.1-1-2-1.4-2.7l-.4-.6-35.9,20.7c.1.2.3.5.4.7.1.2.2.5.4.8.8,1.3,1.5,2.5,2.3,3.5.8,1,1.8,1.8,3.1,2.3,1.3.5,3.7.4,7.3-.5,3.6-.9,7-2.3,10.2-4.1,4.5-2.6,8.2-5.5,11.1-8.6,2.9-3.1,4.2-6.1,3.8-8.9Z"/>
    </g>
    <g id="D_x23_">
      <g>
        <g>
          <path class="st9" d="M628.9,412.7c0,1,0,1.9,0,2.9,0,1,0,2.1.2,3.2.1,1.1,1.3,2.5,3.4,4.1s4.3,2.8,6.5,3.6v.5h-10.8v-26.8h.5c0,.3,0,.6,0,1,0,.4,0,.8.1,1.3,0,.5.2.9.5,1.1s.8.4,1.5.5h1.6c0,0,16.2,0,16.2,0h1.6c.7-.1,1.2-.3,1.5-.6.3-.3.5-.7.5-1.1,0-.5.1-.9.1-1.3,0-.4,0-.8,0-1.1h.5v26.2h-10.1v-.5c2.5-1.2,4.7-2.6,6.4-4.2s2.7-3.1,2.8-4.2c.1-1.1.2-2.1.2-2.8,0-.8,0-1.3,0-1.5v-.3h-11.2c0,0,0,1.4,0,1.4.1,1.3.8,2.3,1.9,3s2.4,1,3.9,1v.6h-12.4v-.6c1.5,0,2.9-.3,4-1,1.1-.7,1.8-1.7,1.9-3v-1.4c0,0-11.7,0-11.7,0Z"/>
          <path class="st9" d="M633.1,441.3c-1.5,0-2.8-.5-3.7-1.6s-1.4-2.4-1.4-4,.2-1.9.7-2.5.9-1.1,1.3-1.5h0c-.2-.3-.5-.5-.8-.7-.3-.2-.7-.4-1-.6v-.2c.5,0,1.1,0,1.5,0s1.1,0,1.8,0h10.3c.4,0,.6,0,.8-.2.1-.1.2-.4.3-.7v-.8h.4v5.7h-6.2c.3.1.5.3.8.7.3.3.4,1,.4,1.9s-.5,2.4-1.4,3.2-2.1,1.2-3.6,1.2ZM633,437.1c.2,0,.6,0,1.1,0,.5,0,.9,0,1,0,.7,0,1.3-.1,1.8-.3.4-.2.7-.6.7-1.1s-.1-.7-.4-.9c-.2-.2-.5-.3-.8-.4-.3,0-.8,0-1.3-.1-.6,0-1.2,0-1.7,0h-1.4c-.4,0-.8,0-1.1,0-.7,0-1.3.1-1.8.3s-.7.6-.7,1,.2.8.7,1c.5.2,1.1.3,1.8.3s.6,0,1,0c.4,0,.8,0,1.2,0Z"/>
        </g>
        <g>
          <path class="st9" d="M646.2,358.8h.5c0,.3,0,.6,0,1,0,.4,0,.8.1,1.3,0,.5.2.9.5,1.1.3.3.8.4,1.5.5h1.6c0,0,16.2,0,16.2,0h1.6c.7-.1,1.2-.3,1.5-.6.3-.3.5-.7.5-1.1,0-.5.1-.9.1-1.3,0-.4,0-.8,0-1.1h.5v12.7c0,2.7-.2,5.2-.7,7.5-.5,2.4-1.8,4.5-3.8,6.5-2,2-4.9,3-8.7,3s-6.2-.9-7.9-2.7c-1.7-1.8-2.8-3.7-3.2-5.7-.4-2-.6-4.3-.6-6.9v-14.4ZM670.1,374.9c.1-.3.2-.8.3-1.5,0-.7,0-1.2,0-1.7v-.4h-23.6c0,.2,0,.3,0,.4,0,.1,0,.3,0,.5,0,.9,0,1.7.2,2.4.1.7.4,1.4.9,2,.5.6,1.7,1.2,3.7,1.8,2,.6,4.1.9,6.2.9s5.6-.4,7.9-1.1c2.3-.7,3.8-1.8,4.4-3.3Z"/>
          <path class="st9" d="M674.6,395.8v.5c-.1,0-4-1.4-4-1.4v3.3l4,1.4v.5c-.1,0-4-1.4-4-1.4v3.4l-2.4-.9v-3.3l-2.2-.8v3.4l-2.4-.9v-3.4l-4-1.4v-.5c.1,0,4,1.4,4,1.4v-3.3l-4-1.4v-.5c.1,0,4,1.4,4,1.4v-3.4l2.4.9v3.3l2.2.8v-3.4l2.4.9v3.4l4,1.4ZM668.2,394.1l-2.2-.8v3.4l2.2.8v-3.4Z"/>
        </g>
        <path class="st9" d="M631.2,387.9l39.3,16.7-.7,2-39.3-16.7.7-2Z"/>
      </g>
    </g>
    <g id="E">
      <path class="st9" d="M606.9,516.7c-.8,1.5-1.6,3-2.5,4.5-.9,1.5-1.7,3.2-2.4,5-.8,1.8-.2,4.9,1.5,9.3,1.8,4.3,4,8.1,6.7,11.2l-.5.8-16.5-9.5,23.6-40.8.8.5c-.3.4-.5,1-.8,1.6-.3.6-.6,1.3-.9,2.1-.3.8-.4,1.5-.2,2.2.2.6.8,1.3,1.9,2.1l2.3,1.5,24.6,14.2,2.5,1.3c1.2.5,2.1.7,2.8.6.7-.2,1.3-.6,1.8-1.3.5-.7,1-1.3,1.4-1.9.4-.6.7-1.1,1-1.6l.8.5-23.1,40-15.4-8.9.5-.8c4.9.5,9.4.2,13.5-.8,4.1-1,6.7-2.3,7.9-3.9,1.2-1.6,2.1-3,2.8-4.2.7-1.2,1.2-1.9,1.4-2.3l.3-.5-17-9.9-1.2,2.2c-1,2.1-.9,4.2.2,6.2,1.1,2,2.8,3.6,5.1,5l-.6,1-18.9-10.9.6-1c2.3,1.3,4.6,2,7,2s4.2-1,5.5-2.9l1.4-2.1-17.9-10.3Z"/>
    </g>
    <g id="F">
      <path class="st9" d="M519.2,652.5l-9.7-16.8.8-.5c3.3,2.3,6.2,4.2,8.6,5.6s5.1,2.4,7.8,2.8c2.7.5,5.3,0,7.7-1.4l4-2.1-9.6-16.7-2.3,1.5c-1.9,1.4-2.9,3.2-2.9,5.5,0,2.3.6,4.6,1.9,6.8l-1,.6-10.9-18.9,1-.6c1.3,2.3,3,4.1,5,5.2,2,1.2,4.1,1.2,6.3.3l2.5-1.3-7.2-12.5-1.5-2.3c-.7-1-1.5-1.7-2.2-1.9-.7-.2-1.5-.2-2.3.2-.8.3-1.5.7-2.1,1-.6.3-1.2.6-1.7.9l-.5-.8,25.3-14.6.5.8c-.5.3-1,.6-1.5,1-.6.4-1.2.8-1.9,1.4-.7.5-1.1,1.1-1.3,1.8-.1.7,0,1.6.6,2.7l1.3,2.5,14.2,24.6,1.5,2.3c.7,1,1.5,1.7,2.1,1.9.7.2,1.4.2,2.2-.2.8-.3,1.5-.7,2.1-1,.6-.3,1.2-.6,1.7-.9l.5.8-38.9,22.5Z"/>
    </g>
    <g id="F_x23_">
      <g>
        <g>
          <path class="st9" d="M390.2,641.4c0-3.6-.4-6.6-1.1-9-.7-2.4-1.9-3.6-3.7-3.6s-1.5.2-2,.5c-.5.3-.7.7-.9,1.1-.1.4-.2.9-.2,1.5,0,.6,0,1.3,0,2.1v1.3c0,1,0,1.6.1,2,0,.8.2,1.3.5,1.5.2.3.6.4,1.1.5.5,0,1,.1,1.4.1.4,0,.8,0,1.1,0v.5h-16v-.5h1.6c.7-.2,1.2-.3,1.4-.6.2-.3.4-.8.5-1.6v-1.6c0,0,0-4.5,0-4.5v-3.1c0,0,.4,0,.4,0,.3.7.8,1.3,1.6,1.8s1.6.8,2.4.8,1.9-.5,3.4-1.5,3.4-1.5,5.9-1.5,6.2,1.2,8.5,3.7c2.3,2.4,3.4,5.5,3.4,9.2s-1.3,7-3.8,9.3-5.7,3.5-9.7,3.5-4.2-.5-6.1-1.4c-1.9-1-3-1.5-3.2-1.5-.7,0-1.1.2-1.3.7-.2.5-.4,1.2-.6,2.1h-.7v-11h.6c.7,2.8,1.8,5.2,3.4,7.2s3.6,2.9,6.1,2.9,3.4-1.1,4.4-3.4,1.4-4.9,1.4-7.9Z"/>
          <path class="st9" d="M358,633.4c0-1.5.5-2.8,1.6-3.7s2.4-1.4,4-1.4,1.9.2,2.5.7,1.1.9,1.5,1.3h.1c.2-.2.4-.5.6-.8.2-.3.4-.7.6-1h.2c0,.5,0,1.1,0,1.5s0,1.1,0,1.8v10.3c0,.4,0,.6.2.8.1.1.4.2.7.3h.8v.4h-5.7v-6.2c-.1.3-.3.5-.7.8-.3.3-1,.4-1.9.4s-2.4-.5-3.2-1.4-1.2-2.1-1.2-3.6ZM362.2,633.4c0,.2,0,.6,0,1.1,0,.5,0,.9,0,1,0,.7.1,1.3.3,1.8.2.4.6.7,1.1.7s.7-.1.9-.4c.2-.2.3-.5.4-.8,0-.3,0-.8.1-1.3,0-.6,0-1.2,0-1.7v-1.4c0-.4,0-.8,0-1.1,0-.7-.1-1.3-.3-1.8s-.6-.7-1-.7-.8.2-1,.7c-.2.5-.3,1.1-.3,1.8s0,.6,0,1c0,.4,0,.8,0,1.2Z"/>
        </g>
        <g>
          <path class="st9" d="M413.4,671.4v-11.1h.5c1,2.1,1.8,3.8,2.7,5.2s1.8,2.6,3,3.6c1.2,1,2.6,1.5,4.2,1.5h2.6c0,.1,0-10.8,0-10.8h-1.6c-1.3.2-2.3.8-3,1.9-.7,1.1-1,2.4-1,3.9h-.6v-12.4h.6c0,1.5.3,2.9,1,4,.7,1.1,1.7,1.8,3,1.9h1.6c0,0,0-8.2,0-8.2v-1.6c-.1-.7-.3-1.3-.6-1.6-.3-.3-.7-.5-1.2-.6-.5,0-.9-.1-1.3-.1s-.8,0-1.1,0v-.5h16.6v.5c-.3,0-.6,0-1,0-.4,0-.8,0-1.3.1-.5,0-.9.2-1.1.5-.3.3-.4.8-.5,1.5v1.6c0,0,0,16.2,0,16.2v1.6c.1.7.3,1.2.6,1.5.3.3.7.5,1.1.5s.9.1,1.3.1c.4,0,.8,0,1.1,0v.5h-25.6Z"/>
          <path class="st9" d="M407.2,675h-.5c0-.1,1.4-4,1.4-4h-3.3l-1.4,4h-.5c0-.1,1.4-4,1.4-4h-3.4l.9-2.4h3.3l.8-2.2h-3.4l.9-2.4h3.4l1.4-4h.5c0,.1-1.4,4-1.4,4h3.3l1.4-4h.5c0,.1-1.4,4-1.4,4h3.4l-.9,2.4h-3.3l-.8,2.2h3.4l-.9,2.4h-3.4l-1.4,4ZM409,668.5l.8-2.2h-3.4l-.8,2.2h3.4Z"/>
        </g>
        <path class="st9" d="M412.8,631.5l-16.7,39.3-2-.7,16.7-39.3,2,.7Z"/>
      </g>
    </g>
    <g id="G">
      <path class="st9" d="M277.4,628.2c3.2-5.5,5.2-10.3,6.3-14.6,1-4.2.2-7.1-2.5-8.7-1.3-.8-2.5-1.1-3.5-1-1,.1-1.8.4-2.3,1-.5.5-1.1,1.2-1.6,2.1-.5.8-1.2,1.9-1.9,3.2l-1.2,2c-.9,1.5-1.4,2.5-1.6,3.1-.6,1.2-.8,2.1-.6,2.7.1.6.5,1.2,1.2,1.8.7.5,1.4,1,2,1.4.6.4,1.2.7,1.7,1.1l-.5.8-24.3-14,.5-.8,2.5,1.2c1.1.5,2,.7,2.6.5.6-.2,1.3-.8,2.1-2l1.5-2.4,3.9-6.8,2.6-4.7.8.5c-.1,1.3.1,2.6.8,4.1.6,1.5,1.6,2.6,3,3.4,1.2.7,3.4,1,6.5.8,3.1-.2,6.5.8,10.2,2.9,5.1,3,8.4,7.3,9.7,13,1.4,5.7.4,11.4-2.8,17-3.4,5.9-8.1,9.5-14,10.9-5.9,1.3-11.8.3-17.8-3.1-3.3-1.9-5.9-4.4-8-7.5-2.1-3.1-3.3-4.8-3.6-5.1-1-.6-1.9-.6-2.7,0-.8.5-1.7,1.4-2.8,2.6l-1-.6,9.7-16.8.9.5c-1.4,4.9-1.8,9.5-1.1,13.9.7,4.4,2.9,7.6,6.6,9.8,3,1.7,6.2,1.3,9.6-1.3,3.4-2.6,6.5-6.2,9.1-10.8Z"/>
    </g>
    <g id="G_x23_">
      <g>
        <g>
          <path class="st9" d="M191.8,511.8l3.6-.9c.8-.2,1.4-.4,1.9-.7.5-.3.7-.6.7-.9s0-.7-.1-1.1c-.1-.4-.3-.8-.5-1.1-.2-.3-.3-.7-.5-1l.5-.3,4.8,8.4-.5.3-1.1-1.7c-.5-.6-.9-1-1.3-1.2-.4-.2-.9-.3-1.4-.2-.5,0-1,.1-1.7.2-.6,0-1.2.2-1.7.3l-20.2,4.1-1.9-3.2,13.3-16,1.8-2.2c.5-.6.7-1.2.8-1.6s0-.9-.2-1.5l-.6-1.3.5-.3,8.1,14-.5.3c-.1-.2-.3-.4-.4-.6-.1-.2-.4-.5-.7-.9-.4-.4-.7-.7-.9-.9-.3-.1-.6,0-1,.1-.4.2-1,.7-1.6,1.5l-2.5,2.9,3.2,5.6ZM188.1,506.9l-5.8,6.8,8.7-1.7-3-5.1Z"/>
          <path class="st9" d="M178.1,482.4c1.3-.8,2.7-.9,4-.5,1.3.4,2.4,1.3,3.2,2.7.5.9.7,1.7.7,2.5s-.2,1.4-.4,1.9h0c.3.2.6.2,1,.2.4,0,.8,0,1.2,0v.2c-.4.3-.8.5-1.2.7-.4.2-.9.5-1.5.8l-8.2,4.7-.7.4c-.3.2-.5.4-.6.5s0,.4.1.8l.4.7-.3.2-2.8-4.9,4-2.3,1.4-.8c-.3,0-.7,0-1.1-.2-.4-.2-.8-.6-1.3-1.4-.6-1.1-.8-2.3-.4-3.4.4-1.2,1.2-2.1,2.5-2.9ZM180.2,486c-.2,0-.5.3-.9.6-.5.3-.7.5-.8.5-.6.4-1.1.7-1.4,1.2-.3.4-.3.8,0,1.2.2.4.5.6.8.6.3,0,.6,0,.9,0,.3-.1.7-.3,1.2-.6.5-.3,1-.6,1.5-.8l1.2-.7c.3-.2.6-.4,1-.6.6-.4,1.1-.8,1.4-1.2.3-.4.3-.8,0-1.2-.2-.4-.6-.6-1.1-.5s-1.1.2-1.7.6c-.2.1-.5.3-.9.5s-.7.4-1.1.6Z"/>
        </g>
        <g>
          <path class="st9" d="M189.6,554.4c3.1-1.8,5.5-3.6,7.2-5.4,1.7-1.8,2.1-3.5,1.2-5-.4-.8-.9-1.2-1.4-1.5s-1-.3-1.4-.2c-.4.1-.9.3-1.4.6-.5.3-1.1.6-1.8,1l-1.2.7c-.8.5-1.4.8-1.7,1.1-.6.4-1,.8-1.1,1.2s0,.8.1,1.2.4.9.6,1.2c.2.4.4.7.5,1l-.5.3-8-13.8.5-.3.9,1.3c.4.6.8.9,1.1,1,.3,0,.9,0,1.6-.4l1.4-.7,3.9-2.2,2.6-1.6.3.4c-.4.6-.7,1.3-.8,2.2-.1.9,0,1.8.5,2.5.4.7,1.4,1.4,3,2.2,1.6.8,3,2.2,4.2,4.3,1.7,2.9,2,6,1.1,9.2-1,3.2-3,5.7-6.2,7.6-3.3,1.9-6.7,2.4-10,1.4-3.3-1-5.9-3.2-7.9-6.6-1.1-1.9-1.7-3.8-1.8-6-.1-2.1-.2-3.3-.3-3.5-.3-.6-.8-.8-1.3-.8-.5,0-1.3.2-2.1.5l-.3-.6,9.5-5.5.3.5c-2.1,2-3.6,4.2-4.5,6.5-.9,2.3-.7,4.6.5,6.7,1,1.7,2.7,2.4,5.1,2.1,2.4-.3,5-1.2,7.6-2.7Z"/>
          <path class="st9" d="M163.3,539.9v-.5c-.1,0,3.9-.8,3.9-.8l-1.6-2.9-4.2.8v-.5c-.1,0,3.9-.8,3.9-.8l-1.7-2.9,2.6-.4,1.7,2.9,2.3-.4-1.7-3,2.6-.4,1.7,2.9,4.2-.8v.5c.1,0-3.9.7-3.9.7l1.6,2.9,4.2-.8v.5c.1,0-3.9.7-3.9.7l1.7,2.9-2.6.4-1.7-2.9-2.3.4,1.7,3-2.6.4-1.7-2.9-4.2.8ZM169.8,538.2l2.3-.4-1.7-3-2.3.4,1.7,3Z"/>
        </g>
        <path class="st9" d="M204.4,524.1l-42.4,5.2-.4-2.1,42.3-5.2.4,2.1Z"/>
      </g>
    </g>
    <g id="A">
      <path class="st9" d="M150.9,410.6l6.2,1.9c1.4.4,2.6.6,3.4.6s1.6-.2,1.9-.7c.4-.5.6-1,.8-1.8.1-.7.2-1.4.3-2.1,0-.7,0-1.3.1-2h1v17h-1l-.2-3.6c-.2-1.3-.5-2.3-1-3-.5-.7-1.1-1.2-1.9-1.5-.8-.3-1.7-.7-2.7-1.1-1-.4-2-.8-2.8-1.1l-34.3-11.5v-6.6l34.3-12.7,4.7-1.9c1.2-.6,2.1-1.1,2.7-1.7.5-.6.9-1.4,1-2.4l.2-2.5h1v28.5h-1c0-.5,0-.9,0-1.3,0-.4-.1-1.1-.3-2.1-.2-1-.4-1.7-.6-2.2-.3-.4-.8-.7-1.6-.7s-2.1.3-3.8.8l-6.4,2.2v11.3ZM149.7,399.8l-14.8,5.3,14.8,5.1v-10.4Z"/>
    </g>
    <g id="A_x23_">
      <g>
        <g>
          <path class="st9" d="M211.5,271.4l-8.4,14.4-.5-.3.5-.9c.2-.4.4-.9.5-1.3.2-.4.2-.8,0-1.2-.1-.4-.5-.8-1.1-1.2l-1.3-.8-14-8.1-1.4-.7c-.7-.3-1.2-.4-1.6-.3-.4,0-.7.3-1,.7-.3.4-.6.8-.8,1.1-.2.3-.4.6-.6.9l-.5-.3,7.9-13.7c1.1-1.9,2-3.3,2.7-4.2s1.5-1.7,2.4-2.1,1.8-.6,2.7-.6c.9,0,1.9.3,2.8.9,1.4.8,2.2,1.8,2.4,3,.1,1.2,0,2.3-.2,3.2-.3,1-.8,2-1.5,3.3h.2c.8-1.3,1.5-2.3,2-3,.5-.7,1.1-1.3,1.8-1.8.7-.5,1.6-.9,2.8-.9,1.1,0,2.3.2,3.6,1,1.2.7,2.1,1.6,2.6,2.6.5,1,.7,2.1.6,3.2-.1,1.1-.5,2.3-1.2,3.7-.7,1.3-1.3,2.4-1.8,3.4ZM199.1,265.7c.3-.9.2-1.7-.5-2.5-.6-.7-1.6-1.5-2.8-2.2-1-.6-2.1-1-3.2-1.1-1.1-.2-1.9,0-2.4.4-.5.5-.8.9-1.1,1.4-.3.5-.5.8-.8,1.2l9.5,5.5c.2-.4.4-.8.6-1.1.2-.4.4-.9.6-1.5ZM210.6,270.8c.2-.7-.1-1.6-1-2.5-.9-.9-2-1.7-3.1-2.4-1.1-.6-2.2-1-3.5-1.1s-2.1,0-2.6.7c-.4.6-.8,1-1,1.4-.2.3-.4.6-.5.8l-.6,1,10.4,6,.2-.4c.4-.7.7-1.3,1-1.8.2-.5.5-1,.6-1.7Z"/>
          <path class="st9" d="M219.6,247.4c1.3.8,2.1,1.8,2.4,3.2.3,1.4,0,2.7-.8,4.1-.5.9-1.1,1.5-1.8,1.8-.7.3-1.3.5-1.9.6h0c0,.4.2.7.4,1,.2.4.4.7.6,1v.2c-.6-.3-1-.6-1.4-.8-.4-.2-.9-.5-1.5-.9l-8.2-4.7-.7-.4c-.3-.2-.6-.3-.8-.2-.2,0-.4.2-.6.5l-.4.7-.3-.2,2.8-4.9,4,2.3,1.4.8c-.2-.3-.3-.6-.3-1,0-.4.1-1,.6-1.8.6-1.1,1.6-1.8,2.8-2.1s2.5,0,3.8.7ZM217.6,251c-.2,0-.5-.3-1-.5-.5-.2-.8-.4-.9-.5-.6-.4-1.2-.6-1.7-.6-.5,0-.9.2-1.1.6-.2.4-.3.7-.1,1,.1.3.3.5.5.7.2.2.6.5,1.1.8.5.3,1,.6,1.5.9l1.2.7c.3.2.7.4,1,.5.6.4,1.2.6,1.7.6.5,0,.9-.1,1.1-.5.2-.4.2-.8-.1-1.2-.3-.4-.8-.8-1.4-1.2-.2-.1-.5-.3-.8-.5s-.7-.4-1-.7Z"/>
        </g>
        <g>
          <path class="st9" d="M163.9,302.2l2.5,2.7c.6.6,1.1,1,1.5,1.3.5.3.8.3,1.1.2.3-.1.6-.3.9-.7.3-.3.5-.6.7-1,.2-.3.4-.6.6-.9l.5.3-4.8,8.4-.5-.3.9-1.8c.3-.7.4-1.3.4-1.8s-.2-.9-.5-1.3c-.3-.4-.6-.8-1-1.3-.4-.5-.8-.9-1.1-1.3l-13.6-15.4,1.9-3.2,20.5,3.5,2.8.4c.8,0,1.4,0,1.8,0,.4-.1.8-.4,1.2-.9l.8-1.1.5.3-8.1,14-.5-.3c.1-.2.3-.5.4-.6,0-.2.2-.6.5-1.1.2-.5.3-1,.3-1.2,0-.3-.2-.6-.6-.8-.4-.2-1.1-.5-2.1-.7l-3.7-.7-3.2,5.6ZM166.3,296.5l-8.8-1.6,5.8,6.7,3-5.1Z"/>
          <path class="st9" d="M158.9,269.5l.4-.4,2.7,3.1,1.6-2.9-2.8-3.2.4-.4,2.7,3.1,1.7-2.9,1.6,2-1.7,2.9,1.5,1.8,1.7-3,1.6,2-1.7,2.9,2.8,3.3-.4.4-2.7-3.2-1.6,2.9,2.8,3.3-.4.4-2.7-3.2-1.7,2.9-1.6-2,1.7-2.9-1.5-1.8-1.7,3-1.7-2,1.7-2.9-2.8-3.2ZM163.6,274.2l1.5,1.8,1.7-3-1.5-1.8-1.7,3Z"/>
        </g>
        <path class="st9" d="M194.4,294.9l-25.7-34.1,1.6-1.4,25.7,34.1-1.6,1.4Z"/>
      </g>
    </g>
    <g id="B">
      <path class="st9" d="M285.4,193.7l-25.4,14.6-.5-.8,1.6-.9c.7-.5,1.3-1,2-1.5.6-.5,1-1.1,1.2-1.7.1-.7,0-1.6-.6-2.7l-1.3-2.4-14.2-24.6-1.5-2.3c-.7-1-1.5-1.7-2.1-1.9-.7-.2-1.4-.2-2.2.2-.8.3-1.5.7-2.1,1-.6.3-1.2.6-1.7.9l-.5-.8,24-13.9c3.3-1.9,5.9-3.2,7.8-4,2-.8,3.8-1.2,5.5-1,1.7.1,3.3.6,4.7,1.4,1.4.8,2.6,2.1,3.6,3.8,1.5,2.5,1.8,4.8.9,6.7-.8,2-1.9,3.5-3.1,4.8-1.3,1.2-3,2.4-5.1,3.7l.2.4c2.5-1.5,4.5-2.5,5.9-3,1.4-.5,2.8-.9,4.4-1.1,1.6-.2,3.2.1,5,1,1.8.9,3.3,2.4,4.6,4.7,1.3,2.2,1.8,4.3,1.6,6.3-.2,2-.8,3.9-2,5.5-1.2,1.6-2.8,3.1-5,4.5-2.2,1.4-4.1,2.6-5.8,3.5ZM271.7,174.2c1.3-1.1,1.8-2.5,1.4-4.2-.3-1.7-1.1-3.6-2.4-5.8-1-1.8-2.3-3.3-3.9-4.6-1.6-1.3-2.9-1.8-4-1.5-1.1.3-2.1.7-2.9,1.1-.8.4-1.6.8-2.2,1.1l9.7,16.8c.7-.4,1.3-.8,2-1.2.7-.4,1.4-1,2.3-1.8ZM284.6,192.1c1-.9,1.2-2.5.6-4.7s-1.5-4.3-2.7-6.4c-1.1-1.9-2.5-3.5-4.3-4.8-1.8-1.3-3.3-1.7-4.5-1.2-1.2.5-2.1.9-2.7,1.3-.6.3-1.1.6-1.4.8l-1.7,1,10.6,18.3.6-.4c1.2-.7,2.3-1.3,3.1-1.9.8-.5,1.6-1.2,2.4-2Z"/>
    </g>
  </g>
  <g id="Layer_16_copy">
    <g id="I">
      <path class="st9" d="M409.1,230.9h-20.5v-.7c.2,0,.5,0,.8,0,.3,0,.9,0,1.7-.2.8-.1,1.4-.3,1.7-.7.3-.4.5-1,.6-1.9v-2c0,0,0-20.7,0-20.7v-2c-.2-.9-.4-1.6-.7-1.9-.3-.4-.9-.6-1.8-.7l-2.4-.2v-.7h20.4v.7h-2.4c-.9.2-1.5.4-1.8.8-.3.3-.5,1-.6,2v2c0,0,0,20.9,0,20.9v2c.2,1,.4,1.6.7,1.9.3.3,1,.6,1.9.7h2.3v.8Z"/>
    </g>
    <g id="II">
      <g>
        <path class="st9" d="M544.8,315.6l-10.3-17.8.6-.3c.1.2.2.4.4.7.2.3.5.8,1,1.4.5.6,1,1,1.5,1.1.5.1,1.2,0,2-.4l1.8-.9,17.9-10.4,1.7-1.1c.8-.5,1.2-1,1.4-1.5.2-.4,0-1.1-.3-1.9l-1-2.1.6-.3,10.2,17.7-.6.3-1.3-2c-.5-.7-1-1.2-1.5-1.3-.4,0-1.1,0-2,.5l-1.8.9-18.1,10.4-1.7,1.1c-.8.6-1.2,1.1-1.4,1.5s0,1.1.3,1.9l1,2-.6.3Z"/>
        <path class="st9" d="M556.5,335.8l-10.3-17.8.6-.3c.1.2.2.4.4.7.2.3.5.8,1,1.4.5.6,1,1,1.5,1.1.5.1,1.2,0,2-.4l1.8-.9,17.9-10.4,1.7-1.1c.8-.5,1.2-1,1.4-1.5.2-.4,0-1.1-.3-1.9l-1-2.1.6-.3,10.2,17.7-.6.3-1.3-2c-.5-.7-1-1.2-1.5-1.3s-1.1,0-2,.5l-1.8.9-18.1,10.4-1.7,1.1c-.8.6-1.2,1.1-1.4,1.5-.1.5,0,1.1.3,1.9l1,2-.6.3Z"/>
      </g>
    </g>
    <g id="III">
      <g>
        <path class="st9" d="M551.8,471.8l10.3-17.8.6.3c-.1.2-.2.4-.4.7-.2.3-.4.8-.7,1.6-.3.7-.4,1.4-.2,1.8.2.5.6,1,1.3,1.5l1.7,1.1,17.9,10.4,1.8.9c.8.4,1.5.5,2,.5.5,0,1-.5,1.5-1.2l1.3-2,.6.3-10.2,17.7-.6-.3,1.1-2.1c.4-.8.5-1.5.4-1.9-.1-.4-.6-.9-1.4-1.5l-1.7-1.1-18.1-10.4-1.8-.9c-.9-.4-1.5-.5-2-.4-.5.1-1,.5-1.5,1.3l-1.2,1.9-.6-.3Z"/>
        <path class="st9" d="M540.1,492l10.3-17.8.6.3c-.1.2-.2.4-.4.7-.2.3-.4.8-.7,1.6-.3.7-.4,1.4-.2,1.8.2.5.6,1,1.3,1.5l1.7,1.1,17.9,10.4,1.8.9c.8.4,1.5.5,2,.5.5,0,1-.5,1.5-1.2l1.3-2,.6.3-10.2,17.7-.6-.3,1.1-2.1c.4-.8.5-1.5.4-1.9-.1-.4-.6-.9-1.4-1.5l-1.7-1.1-18.1-10.4-1.8-.9c-.9-.4-1.5-.5-2-.4s-1,.5-1.5,1.3l-1.2,1.9-.6-.3Z"/>
        <path class="st9" d="M528.4,512.3l10.3-17.8.6.3c-.1.2-.2.4-.4.7-.2.3-.4.8-.7,1.6-.3.7-.4,1.4-.2,1.8s.6,1,1.3,1.5l1.7,1.1,17.9,10.4,1.8.9c.8.4,1.5.5,2,.5.5,0,1-.5,1.5-1.2l1.3-2,.6.3-10.2,17.7-.6-.3,1.1-2.1c.4-.8.5-1.5.4-1.9-.1-.4-.6-.9-1.4-1.5l-1.7-1.1-18.1-10.4-1.8-.9c-.9-.4-1.5-.5-2-.4-.5.1-1,.5-1.5,1.3l-1.2,1.9-.6-.3Z"/>
      </g>
    </g>
    <g id="IV">
      <g>
        <path class="st9" d="M489.5,541.9l17.8-10.3.3.6c-.2.1-.4.2-.7.4-.3.2-.8.5-1.4,1-.6.5-1,1-1.1,1.5s0,1.2.4,2l.9,1.8,10.4,17.9,1.1,1.7c.5.8,1,1.2,1.5,1.4.4.2,1.1,0,1.9-.3l2.1-1,.3.6-17.7,10.2-.3-.6,2-1.3c.7-.5,1.2-1,1.2-1.5,0-.4,0-1.1-.5-2l-.9-1.8-10.4-18.1-1.1-1.7c-.6-.8-1.1-1.2-1.5-1.4-.5-.1-1.1,0-1.9.3l-2,1-.3-.6Z"/>
        <path class="st9" d="M473.8,586.9c.2-.2.5-.3.8-.5.3-.2.7-.5,1.3-1,.6-.5,1-1,1.3-1.6.3-.6.3-1.4.2-2.4l-.5-3.6-4.8-26,3.9-2.2,20.2,17.2,2.9,2.3c.8.6,1.5.9,2.1,1.1.5.1,1.2,0,1.9-.2l1.6-.7.3.6-17.5,10.1-.3-.6,1.6-1.1c.5-.4.9-.8,1.1-1.1.3-.3.2-.8-.2-1.5-.3-.5-.9-1.1-1.9-2-1-.9-2.4-2.1-4.3-3.7-1.9-1.6-4.6-3.8-8.3-6.8.5,2.9,1,5.8,1.6,8.9.6,3.1,1,5.2,1.3,6.5.3,1.3.6,2.2,1,2.8.4.6.8,1,1.2,1.1.4,0,.9,0,1.4-.1.5-.1.9-.3,1.3-.5.4-.2.8-.4,1.1-.6l.3.6-10,5.8-.3-.6Z"/>
      </g>
    </g>
    <g id="V">
      <path class="st9" d="M286.1,563.3c.2.1.5.2.8.4.3.2.8.4,1.5.6s1.4.4,2,.3c.6,0,1.4-.4,2.2-1l2.8-2.3,20-17.2,3.9,2.2-4.8,26.1-.5,3.6c0,1,0,1.8.1,2.4.2.5.5,1,1.2,1.5l1.5,1-.3.6-17.5-10.1.3-.6,1.7.8c.6.2,1.1.4,1.5.4s.8-.2,1.2-.9c.3-.5.5-1.3.8-2.7.3-1.3.6-3.2,1-5.6s1-5.9,1.8-10.6c-2.2,1.9-4.6,3.8-6.9,5.8-2.4,2-4,3.5-5,4.4-1,.9-1.6,1.7-1.9,2.2-.4.6-.5,1.2-.3,1.6s.4.8.8,1.1c.4.3.7.6,1.1.8.4.2.7.5,1,.7l-.3.6-10-5.8.3-.6Z"/>
    </g>
    <g id="VI">
      <g>
        <path class="st9" d="M200.8,392.2c0,.3,0,.6,0,.9,0,.3,0,.9.2,1.6.1.7.4,1.4.7,1.9.4.5,1,1,2,1.4l3.4,1.3,24.9,8.8v4.5l-25,8.9-3.4,1.4c-.9.4-1.6.9-2,1.3-.4.4-.6,1-.7,1.7l-.2,1.8h-.7v-20.2h.7l.2,1.9c.1.6.2,1.2.4,1.5.1.4.6.6,1.4.6s1.4-.2,2.7-.6c1.3-.4,3.1-1.1,5.3-1.9,2.3-.8,5.6-2.1,10.1-3.8-2.7-1-5.6-2-8.5-3.1-2.9-1-5-1.8-6.3-2.1-1.3-.4-2.3-.6-2.9-.6s-1.2.2-1.5.5c-.3.3-.5.8-.6,1.2-.1.5-.2.9-.2,1.4,0,.5,0,.9,0,1.2h-.7v-11.6h.7Z"/>
        <path class="st9" d="M231.9,372.4v20.5h-.7c0-.2,0-.5,0-.8,0-.3,0-.9-.2-1.7-.1-.8-.3-1.4-.7-1.7-.4-.3-1-.5-1.9-.6h-2c0,0-20.7,0-20.7,0h-2c-.9.2-1.6.4-1.9.7-.4.3-.6.9-.7,1.8l-.2,2.4h-.7v-20.4h.7v2.4c.2.9.4,1.5.8,1.8.3.3,1,.5,2,.6h2c0,0,20.9,0,20.9,0h2c1-.2,1.6-.4,1.9-.7.3-.3.6-1,.7-1.9v-2.3h.8Z"/>
      </g>
    </g>
    <g id="VII">
      <g>
        <path class="st9" d="M296.7,230.1c-.2.2-.5.3-.8.5-.3.2-.7.5-1.3,1-.6.5-1,1-1.3,1.6-.3.6-.3,1.4-.2,2.4l.5,3.6,4.8,26-3.9,2.2-20.2-17.2-2.9-2.3c-.8-.6-1.5-.9-2.1-1.1-.5-.1-1.2,0-1.9.2l-1.6.7-.3-.6,17.5-10.1.3.6-1.6,1.1c-.5.4-.9.8-1.1,1.1-.3.3-.2.8.2,1.5.3.5.9,1.1,1.9,2,1,.9,2.4,2.1,4.3,3.7,1.9,1.6,4.6,3.8,8.3,6.8-.5-2.9-1-5.8-1.6-8.9-.6-3.1-1-5.2-1.3-6.5-.3-1.3-.6-2.2-1-2.8-.4-.6-.8-1-1.2-1.1-.4,0-.9,0-1.4.1-.5.1-.9.3-1.3.5-.4.2-.8.4-1.1.6l-.3-.6,10-5.8.3.6Z"/>
        <path class="st9" d="M329.4,247.1l-17.8,10.3-.3-.6c.2-.1.4-.2.7-.4.3-.2.8-.5,1.4-1,.6-.5,1-1,1.1-1.5.1-.5,0-1.2-.4-2l-.9-1.8-10.4-17.9-1.1-1.7c-.5-.8-1-1.2-1.5-1.4-.4-.2-1.1,0-1.9.3l-2.1,1-.3-.6,17.7-10.2.3.6-2,1.3c-.7.5-1.2,1-1.3,1.5,0,.4,0,1.1.5,2l.9,1.8,10.4,18.1,1.1,1.7c.6.8,1.1,1.2,1.5,1.4.5.1,1.1,0,1.9-.3l2-1,.3.6Z"/>
        <path class="st9" d="M349.6,235.4l-17.8,10.3-.3-.6c.2-.1.4-.2.7-.4.3-.2.8-.5,1.4-1,.6-.5,1-1,1.1-1.5.1-.5,0-1.2-.4-2l-.9-1.8-10.4-17.9-1.1-1.7c-.5-.8-1-1.2-1.5-1.4s-1.1,0-1.9.3l-2.1,1-.3-.6,17.7-10.2.3.6-2,1.3c-.7.5-1.2,1-1.3,1.5,0,.4,0,1.1.5,2l.9,1.8,10.4,18.1,1.1,1.7c.6.8,1.1,1.2,1.5,1.4.5.1,1.1,0,1.9-.3l2-1,.3.6Z"/>
      </g>
    </g>
  </g>
</svg>