<?xml version="1.0" encoding="utf-8"?>
<!-- Generator: Adobe Illustrator 27.1.1, SVG Export Plug-In . SVG Version: 6.00 Build 0)  -->
<svg version="1.1" id="Layer_1" xmlns="http://www.w3.org/2000/svg" xmlns:xlink="http://www.w3.org/1999/xlink" x="0px" y="0px"
	 viewBox="0 0 1457.3 929" style="enable-background:new 0 0 1457.3 929;" xml:space="preserve">
<style type="text/css">
	.st0{fill:#9DD4DC;}
	.st1{fill:#99CB4F;}
	.st2{fill:#C5E5E8;}
	.st3{fill:#0073BE;}
	.st4{fill:#7CB309;}
	.st5{fill:#79AC36;}
	.st6{fill:#A2529F;}
	.st7{fill:#F1F1F2;}
	.st8{fill:#DBDCDD;}
	.st9{fill:#FFFFFF;}
	.st10{fill:#BBBDBF;}
	.st11{fill:#883483;}
	.st12{fill:#B174B0;}
	.st13{fill:#9C9EA1;}
	.st14{fill:#ABE0F9;}
	.st15{fill:#D3EEFB;}
	.st16{fill:#808184;}
	.st17{fill:#FFD300;}
</style>
<g id="Sky">
	<rect x="147.6" class="st0" width="1237.4" height="801"/>
</g>
<g id="Grass">
	<rect x="147.8" y="672.3" class="st1" width="1237.3" height="252.7"/>
</g>
<g>
	<g id="Clouds">
		<path class="st2" d="M1097.7,132.7h-0.9c0.3-0.6,0.5-1.2,0.8-1.9C1097.7,131.5,1097.7,132.1,1097.7,132.7 M942.3,132.7h-0.9
			c0-0.6,0.1-1.2,0.1-1.9C941.7,131.5,942,132.1,942.3,132.7 M1200.3,130.4c0-28.4-23-51.3-51.4-51.3c-19,0-35.6,10.4-44.5,25.7
			c0.3-2.8,0.4-5.6,0.4-8.4c0-47.2-38.2-85.4-85.4-85.4s-85.4,38.2-85.4,85.4c0,2.8,0.2,5.7,0.4,8.4c-8.9-15.4-25.4-25.7-44.5-25.7
			c-28.4,0-51.4,23-51.4,51.3s23,51.3,51.4,51.3c0.6,0,1.2-0.1,1.8-0.1v0.1h259.1v-0.1C1178.4,180.6,1200.3,158.1,1200.3,130.4"/>
		<path class="st2" d="M736,213.8h-0.6c0.2-0.4,0.4-0.8,0.5-1.3C736,213,736,213.4,736,213.8 M630.7,213.8h-0.6
			c0-0.4,0.1-0.8,0.1-1.3C630.3,212.9,630.5,213.4,630.7,213.8 M805.6,212.2c0-19.2-15.6-34.8-34.8-34.8c-12.9,0-24.1,7-30.1,17.4
			c0.2-1.9,0.3-3.8,0.3-5.7c0-32-25.9-57.9-57.9-57.9s-57.9,25.9-57.9,57.9c0,1.9,0.1,3.8,0.3,5.7c-6-10.4-17.2-17.4-30.1-17.4
			c-19.2,0-34.8,15.6-34.8,34.8s15.6,34.8,34.8,34.8c0.4,0,0.8-0.1,1.2-0.1v0.1h175.6V247C790.7,246.2,805.6,231,805.6,212.2"/>
		<path class="st2" d="M394.9,130.2c0,0,0-0.4-0.1-1.1c0.1-0.9,0.1-1.7,0.1-2.6c0-18.5-15-33.5-33.5-33.5c-12.8,0-24,7.2-29.6,17.8
			c1.5-5,2.3-10.3,2.3-15.8c0-31.4-25.4-56.8-56.8-56.8c-17.9,0-33.8,8.2-44.2,21.1C219.7,30.8,190.6,11,156.9,11
			c-46.4,0-84.1,37.7-84.1,84.1c0,3.6,0.2,7.1,0.7,10.6C65.7,97.9,55,93,43.1,93C19.3,93.1,0,112.3,0,136.1s19.3,43.1,43.1,43.1
			c0.9,0,1.8-0.1,2.8-0.1c0.7,0.1,1.3,0.1,2,0.1h328.6c0,0,18.3,0,18.3-18.3L394.9,130.2L394.9,130.2L394.9,130.2z"/>
		<path class="st2" d="M1191.1,264.2c0,0,0-0.3,0.1-0.7c-0.1-0.6-0.1-1.2-0.1-1.8c0-12.5,10.1-22.6,22.6-22.6
			c8.7,0,16.2,4.9,19.9,12c-1-3.4-1.5-6.9-1.5-10.6c0-21.2,17.2-38.3,38.3-38.3c12,0,22.8,5.6,29.8,14.2
			c9.1-19.3,28.6-32.6,51.3-32.6c31.3,0,56.7,25.4,56.7,56.7c0,2.4-0.2,4.8-0.5,7.1c5.2-5.2,12.5-8.5,20.5-8.5c16,0,29,13,29,29
			s-13,29-29,29c-0.6,0-1.2,0-1.8-0.1c-0.4,0-0.9,0.1-1.4,0.1h-221.6c0,0-12.4,0-12.4-12.4L1191.1,264.2L1191.1,264.2L1191.1,264.2z
			"/>
	</g>
	<g id="Mountains">
		<polygon class="st3" points="396,395.4 252,322.1 147.8,386.7 147.8,527 1383.5,527 1383.5,322.5 1301.5,395.4 1135.9,264.4 
			974.8,395.4 842.5,322.1 716.1,395.4 569.2,258.5 		"/>
	</g>
</g>
<g id="Grass-2">
	<rect x="143.8" y="453.3" class="st4" width="1241.3" height="475.7"/>
</g>
<path class="st5" d="M459.1,621.9c39,0,70.6-3.8,70.6-8.4c0-4.6-31.6-8.4-70.6-8.4c-39,0-70.6,3.8-70.6,8.4
	C388.5,618.2,420.1,621.9,459.1,621.9"/>
<path class="st6" d="M426,307.9c5.7,3.3,15.4,7.2,29.9,7.9c16,0.9,29.8-6,36.4-11.6c-9.6-38.2-23.3-63.7-32.1-63.7
	C451.1,240.5,436.3,267.2,426,307.9"/>
<path class="st6" d="M426,307.9c5.7,3.3,15.4,7.2,29.9,7.9c16,0.9,29.8-6,36.4-11.6c-9.6-38.2-23.3-63.7-32.1-63.7
	C451.1,240.5,436.3,267.2,426,307.9"/>
<path class="st7" d="M480.7,354.9c7.9,11.5,4.9,27.2-6.7,35.1c-11.6,7.8-27.4,4.9-35.3-6.7c-7.9-11.5-4.9-27.2,6.7-35.1
	C457,340.3,472.8,343.3,480.7,354.9 M426,307.8c-7.8,32.6-13.5,73.1-13.7,115.7c-0.2,44.3,5.8,86.8,14,120.3
	c1.7,6.7,5.6,20.6,8.7,30.2c8.5,24.7,17.6,39.9,24.2,39.9c7.2,0,17.1-18.3,25.9-47.2c2.5-8.3,5.2-19.2,7.9-30.4
	c7.1-32.1,12.3-71.2,12.7-111.1c0.4-43.7-5.4-86.8-13.5-121c-6.6,5.2-19.1,12.5-36.6,11.6C441.1,315,431.7,311.2,426,307.8"/>
<path class="st8" d="M480.7,354.9c7.9,11.5,4.9,27.2-6.7,35.1c-11.6,7.8-27.4,4.9-35.3-6.7c-7.9-11.5-4.9-27.2,6.7-35.1
	C457,340.3,472.8,343.3,480.7,354.9 M426,307.8c-7.8,32.6-13.5,73.1-13.7,115.7c-0.2,44.3,5.8,86.8,14,120.3
	c1.7,6.7,5.6,20.6,8.7,30.2c8.5,24.7,17.6,39.9,24.2,39.9c7.2,0,17.1-18.3,25.9-47.2c2.5-8.3,5.2-19.2,7.9-30.4
	c7.1-32.1,12.3-71.2,12.7-111.1c0.4-43.7-5.4-86.8-13.5-121c-6.6,5.2-19.1,12.5-36.6,11.6C441.1,315,431.7,311.2,426,307.8"/>
<path class="st9" d="M426,307.8c-7.8,32.6-13.5,73.1-13.7,115.7c0,9.7,0.2,19.4,0.8,28.9c2.3-19.4,10-78.6,24.5-139.6
	C432.7,311.3,428.9,309.5,426,307.8"/>
<path class="st7" d="M426,307.8c-7.8,32.6-13.5,73.1-13.7,115.7c0,9.7,0.2,19.4,0.8,28.9c2.3-19.4,10-78.6,24.5-139.6
	C432.7,311.3,428.9,309.5,426,307.8"/>
<path class="st8" d="M493.2,536.3c7.1-32.1,12.3-71.2,12.7-111.1c0.4-43.7-5.4-86.8-13.5-121c-0.5,0.4-7.1,4.6-7.7,5.1
	c15.1,134.9-3.8,196.6-22,217c-15.7,17.6-32.8,14.3-37.3,13c0.4,1.5,0.7,3,1.1,4.5c1.7,6.7,5.6,20.6,8.7,30.2
	c8.5,24.7,17.6,39.9,24.3,39.9c7.2,0,17.1-18.3,25.9-47.2C487.7,558.4,490.5,547.5,493.2,536.3"/>
<path class="st10" d="M493.2,536.3c7.1-32.1,12.3-71.2,12.7-111.1c0.4-43.7-5.4-86.8-13.5-121c-0.5,0.4-7.1,4.6-7.7,5.1
	c15.1,134.9-3.8,196.6-22,217c-15.7,17.6-32.8,14.3-37.3,13c0.4,1.5,0.7,3,1.1,4.5c1.7,6.7,5.6,20.6,8.7,30.2
	c8.5,24.7,17.6,39.9,24.3,39.9c7.2,0,17.1-18.3,25.9-47.2C487.7,558.4,490.5,547.5,493.2,536.3"/>
<path class="st11" d="M490.4,546.7c22,5.2,40.7,17.7,33,49.9c-7.8,32.6-9.6,1.7-26.6-14.8c-3.5-3.4-10.4-4.5-14.6-4.9
	C480.8,566.7,484.8,552.7,490.4,546.7"/>
<path class="st11" d="M490.4,546.7c22,5.2,40.7,17.7,33,49.9c-7.8,32.6-9.6,1.7-26.6-14.8c-3.5-3.4-10.4-4.5-14.6-4.9
	C480.8,566.7,484.8,552.7,490.4,546.7"/>
<path class="st12" d="M427.3,546.7c-22,5.2-40.2,17.7-32.5,49.9c7.8,32.6,9.6,1.7,26.6-14.8c3.5-3.4,10.4-4.5,14.6-4.9
	C437.4,566.7,432.9,552.7,427.3,546.7"/>
<path class="st12" d="M427.3,546.7c-22,5.2-40.2,17.7-32.5,49.9c7.8,32.6,9.6,1.7,26.6-14.8c3.5-3.4,10.4-4.5,14.6-4.9
	C437.4,566.7,432.9,552.7,427.3,546.7"/>
<path class="st6" d="M459.1,547c2.5,0,9.7,3.1,9.7,18.2c0,15.1-3.5,57.2-9.6,57.2c-6.1,0-9.8-42.6-9.8-57.2
	C449.3,550.5,456.5,547,459.1,547"/>
<path class="st6" d="M459.1,547c2.5,0,9.7,3.1,9.7,18.2c0,15.1-3.5,57.2-9.6,57.2c-6.1,0-9.8-42.6-9.8-57.2
	C449.3,550.5,456.5,547,459.1,547"/>
<path class="st10" d="M430.5,319.1c1.5,0,2.7-1.2,2.7-2.7c0-1.5-1.2-2.7-2.7-2.7c-1.5,0-2.7,1.2-2.7,2.7
	C427.8,317.9,429,319.1,430.5,319.1"/>
<path class="st10" d="M430.5,319.1c1.5,0,2.7-1.2,2.7-2.7c0-1.5-1.2-2.7-2.7-2.7c-1.5,0-2.7,1.2-2.7,2.7
	C427.8,317.9,429,319.1,430.5,319.1"/>
<path class="st10" d="M441.7,322.3c1.5,0,2.7-1.2,2.7-2.7c0-1.5-1.2-2.7-2.7-2.7c-1.5,0-2.7,1.2-2.7,2.7
	C439,321.1,440.2,322.3,441.7,322.3"/>
<path class="st10" d="M441.7,322.3c1.5,0,2.7-1.2,2.7-2.7c0-1.5-1.2-2.7-2.7-2.7c-1.5,0-2.7,1.2-2.7,2.7
	C439,321.1,440.2,322.3,441.7,322.3"/>
<path class="st10" d="M454.9,323.8c1.5,0,2.7-1.2,2.7-2.7c0-1.5-1.2-2.7-2.7-2.7c-1.5,0-2.7,1.2-2.7,2.7
	C452.2,322.6,453.4,323.8,454.9,323.8"/>
<path class="st10" d="M454.9,323.8c1.5,0,2.7-1.2,2.7-2.7c0-1.5-1.2-2.7-2.7-2.7c-1.5,0-2.7,1.2-2.7,2.7
	C452.2,322.6,453.4,323.8,454.9,323.8"/>
<path class="st10" d="M467.6,323.8c1.5,0,2.7-1.2,2.7-2.7c0-1.5-1.2-2.7-2.7-2.7c-1.5,0-2.7,1.2-2.7,2.7
	C465,322.6,466.2,323.8,467.6,323.8"/>
<path class="st10" d="M467.6,323.8c1.5,0,2.7-1.2,2.7-2.7c0-1.5-1.2-2.7-2.7-2.7c-1.5,0-2.7,1.2-2.7,2.7
	C465,322.6,466.2,323.8,467.6,323.8"/>
<path class="st10" d="M479.6,320.6c1.5,0,2.7-1.2,2.7-2.7c0-1.5-1.2-2.7-2.7-2.7s-2.7,1.2-2.7,2.7
	C477,319.4,478.2,320.6,479.6,320.6"/>
<path class="st10" d="M479.6,320.6c1.5,0,2.7-1.2,2.7-2.7c0-1.5-1.2-2.7-2.7-2.7s-2.7,1.2-2.7,2.7
	C477,319.4,478.2,320.6,479.6,320.6"/>
<path class="st10" d="M490.5,315.9c1.5,0,2.7-1.2,2.7-2.7c0-1.5-1.2-2.7-2.7-2.7c-1.5,0-2.7,1.2-2.7,2.7
	C487.8,314.7,489,315.9,490.5,315.9"/>
<path class="st13" d="M490.5,315.9c1.5,0,2.7-1.2,2.7-2.7c0-1.5-1.2-2.7-2.7-2.7c-1.5,0-2.7,1.2-2.7,2.7
	C487.8,314.7,489,315.9,490.5,315.9"/>
<path class="st14" d="M459.4,391.6c12.2,0,22.1-9.9,22.1-22c0-12.1-9.9-22-22.1-22c-12.2,0-22.1,9.9-22.1,22
	C437.2,381.8,447.2,391.6,459.4,391.6"/>
<path class="st14" d="M459.7,388c10.5,0,19-8.5,19-18.9c0-10.4-8.5-18.9-19-18.9c-10.5,0-19,8.5-19,18.9
	C440.7,379.5,449.2,388,459.7,388"/>
<path class="st13" d="M459.7,394.3c-14,0-25.4-11.3-25.4-25.3c0-13.9,11.4-25.3,25.4-25.3c14,0,25.4,11.3,25.4,25.3
	C485.1,383,473.7,394.3,459.7,394.3z M459.7,350.1c-10.5,0-19,8.5-19,18.9c0,10.4,8.5,18.9,19,18.9c10.5,0,19-8.5,19-18.9
	C478.7,358.6,470.2,350.1,459.7,350.1z"/>
<g>
	<path class="st15" d="M449.7,371.3c-0.3,0-0.7-0.1-1-0.4c-0.5-0.5-0.5-1.4,0-1.9l9.7-9.7c0.5-0.5,1.4-0.5,1.9,0
		c0.5,0.5,0.5,1.4,0,1.9l-9.7,9.7C450.3,371.2,450,371.3,449.7,371.3z"/>
</g>
<g>
	<path class="st15" d="M451.3,377.2c-0.3,0-0.7-0.1-1-0.4c-0.5-0.5-0.5-1.4,0-1.9l14.2-14.2c0.5-0.5,1.4-0.5,1.9,0
		c0.5,0.5,0.5,1.4,0,1.9l-14.2,14.2C452,377,451.6,377.2,451.3,377.2z"/>
</g>
<g>
	<path class="st11" d="M485.1,309c2.9-1.6,5.4-3.3,7.2-4.8c-6.5-25.7-14.8-45.7-22.2-56C473.3,258.1,481.2,284.1,485.1,309"/>
	<path class="st11" d="M485.1,309c2.9-1.6,5.4-3.3,7.2-4.8c-6.5-25.7-14.8-45.7-22.2-56C473.3,258.1,481.2,284.1,485.1,309"/>
	<path class="st12" d="M460.4,240.5C460.4,240.5,460.3,240.5,460.4,240.5c-9.3,0-24.1,26.7-34.4,67.3c3,1.7,6.3,3.4,11.6,4.9
		C444.2,275.3,452.4,245.2,460.4,240.5"/>
	<path class="st12" d="M460.4,240.5C460.4,240.5,460.3,240.5,460.4,240.5c-9.3,0-24.1,26.7-34.4,67.3c3,1.7,6.3,3.4,11.6,4.9
		C444.2,275.3,452.4,245.2,460.4,240.5"/>
</g>
<path class="st5" d="M427.3,611h-42.2l-0.6-3.8c-0.2-1.8-1.7-3.2-3.6-3.2h-97.4c-1.9,0-3.4,1.4-3.6,3.2l0.7,10.5
	c-0.1,1,0.2,2,0.9,2.8c0.7,0.8,1.7,1.2,2.7,1.2c0,0,98.4,0,98.4,0c2,0,3.6-1.6,3.6-3.6c0-0.2,0-0.5-0.1-0.7l-0.2-1.3h41.4V611z"/>
<path class="st16" d="M412.7,465.3c-2,0.2-3.5,1.9-3.3,3.9l0.4,4.5h-51.7v-88.8h51.7l-0.4,5.1c-0.2,2,1.3,3.7,3.3,3.9
	c0.1,0,0.2,0,0.3,0c1.9,0,3.4-1.4,3.6-3.3l1.5-16.8c0.2-2-1.3-3.7-3.3-3.9c-2-0.2-3.7,1.3-3.9,3.3l-0.4,4.5h-52.4v-46.6
	c0-2-1.6-3.6-3.6-3.6h-49.6c-2,0-3.6,1.6-3.6,3.6v217h-17.7c-2,0-3.6,1.6-3.6,3.6v57.5c0,2,1.6,3.6,3.6,3.6h92.3
	c2,0,3.6-1.6,3.6-3.6v-57.5c0-2-1.6-3.6-3.6-3.6h-17.7v-67.1h52.3l0.5,5.1c0.2,1.9,1.7,3.3,3.6,3.3c0.1,0,0.2,0,0.3,0
	c2-0.2,3.5-1.9,3.3-3.9l-1.5-16.8C416.5,466.6,414.7,465.1,412.7,465.3z M344.9,384.9l-15.2,15.2l-15.2-15.2H344.9z M313,377.7
	l16.7-16.6l16.7,16.6H313z M348.8,429.3l-19.1,19l-19.1-19l19.1-19L348.8,429.3z M344.9,473.7h-30.4l15.2-15.1L344.9,473.7z
	 M345.5,480.9l-15.8,15.8l-15.8-15.8H345.5z M349.7,526.7l-19.9,19.8l-19.9-19.8l19.9-19.8L349.7,526.7z M334.8,501.7l16.1-16v32
	L334.8,501.7z M334.8,453.5l16.1-16v32L334.8,453.5z M334.8,405.2l16.1-16v32L334.8,405.2z M334.8,356l16.1-16v32L334.8,356z
	 M346,334.7l-16.3,16.2l-16.3-16.2H346z M308.5,340l16.1,16l-16.1,16V340z M308.5,389.2l16.1,16l-16.1,16V389.2z M308.5,437.5
	l16.1,16l-16.1,16V437.5z M308.5,485.7l16.1,16l-16.1,16V485.7z M308.5,535.6L321,548h-12.5V535.6z M338.5,548l12.5-12.4V548H338.5z
	"/>
<g>
	<path class="st17" d="M322.6,327.5h-9.3c-2,0-3.6-1.6-3.6-3.6c0-2,1.6-3.6,3.6-3.6h9.3c2,0,3.6,1.6,3.6,3.6
		C326.2,325.9,324.6,327.5,322.6,327.5z"/>
</g>
<g>
	<path class="st17" d="M346.1,327.5h-9.3c-2,0-3.6-1.6-3.6-3.6c0-2,1.6-3.6,3.6-3.6h9.3c2,0,3.6,1.6,3.6,3.6
		C349.8,325.9,348.1,327.5,346.1,327.5z"/>
</g>
</svg>
