<?xml version="1.0" encoding="UTF-8"?><svg id="Layer_1" xmlns="http://www.w3.org/2000/svg" viewBox="0 0 1457.28 929"><defs><style>.cls-1{fill:#7cb309;}.cls-2{fill:#0073be;}.cls-3{fill:#9dd4dc;}.cls-4{fill:#c5e5e8;}.cls-5{fill:#99cb4f;}</style></defs><g id="Sky"><rect class="cls-3" x="147.65" width="1237.44" height="801"/></g><g id="Grass"><rect class="cls-5" x="147.77" y="672.27" width="1237.32" height="252.73"/></g><g><g id="Clouds"><path class="cls-4" d="m1097.74,132.72h-.91c.29-.61.54-1.23.81-1.85.02.63.08,1.23.1,1.85m-155.48,0h-.91c.03-.62.09-1.23.09-1.85.28.62.53,1.24.82,1.85m258.08-2.3c0-28.36-22.99-51.35-51.36-51.35-19.02,0-35.59,10.37-44.47,25.74.27-2.78.44-5.59.44-8.43,0-47.17-38.24-85.4-85.4-85.4s-85.4,38.24-85.4,85.4c0,2.85.16,5.66.44,8.43-8.88-15.37-25.44-25.74-44.47-25.74-28.36,0-51.36,22.99-51.36,51.35s22.99,51.35,51.36,51.35c.61,0,1.19-.07,1.8-.09v.09h259.15v-.1c27.38-1.1,49.27-23.59,49.27-51.25"/><path class="cls-4" d="m736.05,213.79h-.61c.19-.41.36-.84.55-1.26,0,.43.04.84.06,1.26m-105.37,0h-.61c.02-.42.06-.83.06-1.26.19.42.36.85.55,1.26m174.89-1.56c0-19.22-15.58-34.8-34.8-34.8-12.89,0-24.12,7.03-30.13,17.44.19-1.88.3-3.78.3-5.72,0-31.96-25.91-57.87-57.88-57.87s-57.87,25.91-57.87,57.87c0,1.93.11,3.83.3,5.72-6.01-10.42-17.24-17.44-30.13-17.44-19.22,0-34.8,15.58-34.8,34.8s15.58,34.8,34.8,34.8c.41,0,.81-.05,1.22-.06v.06h175.62v-.07c18.54-.75,33.37-15.99,33.37-34.73"/><path class="cls-4" d="m394.88,130.22s-.01-.44-.13-1.08c.07-.87.13-1.74.13-2.62,0-18.48-14.98-33.47-33.47-33.47-12.82,0-23.95,7.22-29.57,17.81,1.45-5.01,2.26-10.29,2.26-15.77,0-31.38-25.44-56.82-56.82-56.82-17.85,0-33.76,8.25-44.17,21.12-13.42-28.59-42.47-48.41-76.16-48.41-46.45,0-84.11,37.66-84.11,84.11,0,3.58.25,7.1.68,10.56-7.79-7.79-18.55-12.6-30.44-12.6C19.29,93.05,0,112.34,0,136.13s19.29,43.08,43.08,43.08c.93,0,1.84-.07,2.75-.13.67.05,1.32.13,2.05.13h328.65s18.34,0,18.34-18.34v-30.65h.01Z"/><path class="cls-4" d="m1191.06,264.19s.01-.3.09-.72c-.05-.59-.09-1.17-.09-1.77,0-12.46,10.1-22.56,22.56-22.56,8.65,0,16.15,4.87,19.94,12.01-.98-3.38-1.53-6.94-1.53-10.63,0-21.16,17.15-38.31,38.31-38.31,12.04,0,22.76,5.56,29.78,14.24,9.05-19.28,28.64-32.64,51.35-32.64,31.32,0,56.71,25.39,56.71,56.71,0,2.41-.17,4.78-.46,7.12,5.25-5.25,12.51-8.49,20.52-8.49,16.04,0,29.04,13,29.04,29.04s-13,29.04-29.04,29.04c-.62,0-1.24-.05-1.85-.09-.45.04-.89.09-1.38.09h-221.58s-12.37,0-12.37-12.37v-20.67h0Z"/></g><g id="Mountains"><polygon class="cls-2" points="396.02 395.36 252.04 322.1 147.77 386.66 147.77 526.97 1383.53 526.97 1383.53 322.46 1301.49 395.36 1135.89 264.35 974.8 395.36 842.54 322.1 716.07 395.36 569.22 258.46 396.02 395.36"/></g></g><g id="Grass-2"><rect class="cls-1" x="143.75" y="453.3" width="1241.3" height="475.7"/></g></svg>