<?xml version="1.0" encoding="UTF-8"?>
<svg id="Layer_2" data-name="Layer 2" xmlns="http://www.w3.org/2000/svg" xmlns:xlink="http://www.w3.org/1999/xlink" viewBox="0 0 81.37 116.42">
  <defs>
    <style>
      .cls-1 {
        fill: #b3b3b3;
      }

      .cls-1, .cls-2, .cls-3, .cls-4, .cls-5, .cls-6 {
        stroke-width: 0px;
      }

      .cls-7 {
        clip-path: url(#clippath);
      }

      .cls-2 {
        fill: none;
      }

      .cls-3 {
        fill: #903992;
      }

      .cls-8 {
        clip-path: url(#clippath-1);
      }

      .cls-9 {
        clip-path: url(#clippath-2);
      }

      .cls-4 {
        fill: #88b238;
      }

      .cls-5 {
        fill: #4497a3;
      }

      .cls-6 {
        fill: #ccc;
      }
    </style>
    <clipPath id="clippath">
      <rect class="cls-2" x="1.08" y="0" width="26.75" height="27.31"/>
    </clipPath>
    <clipPath id="clippath-1">
      <rect class="cls-2" x="27.85" y="0" width="26.75" height="27.31"/>
    </clipPath>
    <clipPath id="clippath-2">
      <rect class="cls-2" x="54.62" y="0" width="26.75" height="27.31"/>
    </clipPath>
  </defs>
  <g id="Layer_1-2" data-name="Layer 1">
    <g>
      <g>
        <path class="cls-6" d="M81.37,31.47v10.63c0,.69-.37,1.32-.96,1.66l-28.94,16.62c-.59.34-.96.97-.96,1.66v35.14c0,.7-.38,1.34-.99,1.68l-16.21,8.92c-1.28.71-2.85-.23-2.84-1.69l.37-44.04c0-.69-.36-1.33-.96-1.68L.96,43.76c-.59-.34-.96-.97-.96-1.66v-10.63c0-1.06.86-1.91,1.91-1.91h77.55c1.06,0,1.91.86,1.91,1.91Z"/>
        <path class="cls-1" d="M81.37,39.87v10.63c0,.69-.37,1.32-.96,1.66l-28.94,16.62c-.59.34-.96.97-.96,1.66v35.14c0,.7-.38,1.34-.99,1.68l-16.21,8.92c-1.28.71-2.85-.23-2.84-1.69l.37-44.04c0-.69-.36-1.33-.96-1.68L.96,52.16c-.59-.34-.96-.97-.96-1.66v-10.63c0-1.06.86-1.91,1.91-1.91h77.55c1.06,0,1.91.86,1.91,1.91Z"/>
      </g>
      <g class="cls-7">
        <path class="cls-3" d="M27.75,14.15c.12-.12.12-.3,0-.42l-4.11-4.11c-.12-.12-.3-.12-.42,0l-5.05,5.05c-.19.19-.5.05-.5-.21V.3c0-.16-.13-.3-.3-.3h-5.82c-.16,0-.3.13-.3.3v14.16c0,.26-.32.39-.5.21l-5.05-5.05c-.12-.12-.3-.12-.42,0L1.17,13.73c-.12.12-.12.3,0,.42l13.08,13.08c.12.12.3.12.42,0l13.08-13.08"/>
      </g>
      <g class="cls-8">
        <path class="cls-5" d="M54.52,14.15c.12-.12.12-.3,0-.42l-4.11-4.11c-.12-.12-.3-.12-.42,0l-5.05,5.05c-.19.19-.5.05-.5-.21V.3c0-.16-.13-.3-.3-.3h-5.82c-.16,0-.3.13-.3.3v14.16c0,.26-.32.39-.5.21l-5.05-5.05c-.12-.12-.3-.12-.42,0l-4.11,4.11c-.12.12-.12.3,0,.42l13.08,13.08c.12.12.3.12.42,0l13.08-13.08"/>
      </g>
      <g class="cls-9">
        <path class="cls-4" d="M81.29,14.15c.12-.12.12-.3,0-.42l-4.11-4.11c-.12-.12-.3-.12-.42,0l-5.05,5.05c-.19.19-.5.05-.5-.21V.3c0-.16-.13-.3-.29-.3h-5.82c-.16,0-.3.13-.3.3v14.16c0,.26-.32.39-.5.21l-5.05-5.05c-.12-.12-.3-.12-.42,0l-4.11,4.11c-.12.12-.12.3,0,.42l13.08,13.08c.12.12.3.12.42,0l13.08-13.08"/>
      </g>
    </g>
  </g>
</svg>