<?xml version="1.0" encoding="UTF-8"?>
<svg id="Layer_2" data-name="Layer 2" xmlns="http://www.w3.org/2000/svg" xmlns:xlink="http://www.w3.org/1999/xlink" viewBox="0 0 126.72 84.26">
  <defs>
    <style>
      .cls-1 {
        fill: #c3996c;
      }

      .cls-1, .cls-2, .cls-3, .cls-4, .cls-5, .cls-6, .cls-7, .cls-8, .cls-9, .cls-10, .cls-11, .cls-12, .cls-13, .cls-14 {
        stroke-width: 0px;
      }

      .cls-2 {
        fill: #9d4098;
      }

      .cls-3 {
        fill: #8a6741;
      }

      .cls-4 {
        fill: #414142;
      }

      .cls-5 {
        fill: #a97d51;
      }

      .cls-6 {
        fill: #eceeef;
      }

      .cls-7 {
        fill: #3b2416;
      }

      .cls-15 {
        stroke: #babcbe;
      }

      .cls-15, .cls-16, .cls-17 {
        fill: none;
        stroke-linecap: round;
      }

      .cls-15, .cls-17 {
        stroke-linejoin: round;
        stroke-width: .65px;
      }

      .cls-8 {
        fill: #5a3e19;
      }

      .cls-9 {
        fill: #bbbec0;
      }

      .cls-10 {
        filter: url(#drop-shadow-2);
      }

      .cls-10, .cls-11 {
        fill: #fff;
      }

      .cls-11 {
        filter: url(#drop-shadow-1);
      }

      .cls-16 {
        stroke: #ffc316;
        stroke-miterlimit: 10;
        stroke-width: 2.1px;
      }

      .cls-12 {
        fill: #85c446;
      }

      .cls-13 {
        fill: #ffc316;
      }

      .cls-14 {
        fill: #b4d88e;
      }

      .cls-17 {
        stroke: #f59220;
      }
    </style>
    <filter id="drop-shadow-1" filterUnits="userSpaceOnUse">
      <feOffset dx="3" dy="3"/>
      <feGaussianBlur result="blur" stdDeviation="2"/>
      <feFlood flood-color="#231f20" flood-opacity=".1"/>
      <feComposite in2="blur" operator="in"/>
      <feComposite in="SourceGraphic"/>
    </filter>
    <filter id="drop-shadow-2" filterUnits="userSpaceOnUse">
      <feOffset dx="3" dy="3"/>
      <feGaussianBlur result="blur-2" stdDeviation="2"/>
      <feFlood flood-color="#231f20" flood-opacity=".1"/>
      <feComposite in2="blur-2" operator="in"/>
      <feComposite in="SourceGraphic"/>
    </filter>
  </defs>
  <g id="Layer_1-2" data-name="Layer 1">
    <g>
      <g>
        <polygon class="cls-4" points="60.35 29.09 60.35 29.09 60.6 29.11 60.85 29.12 61.09 29.16 61.31 29.2 61.53 29.27 61.74 29.33 61.93 29.41 62.11 29.49 62.26 29.6 62.41 29.71 62.53 29.83 62.64 29.95 62.72 30.07 62.78 30.2 62.82 30.34 62.83 30.48 62.83 30.48 62.82 30.62 62.78 30.76 62.72 30.89 62.64 31.02 62.53 31.14 62.41 31.25 62.26 31.37 62.11 31.46 61.93 31.56 61.74 31.64 61.53 31.7 61.31 31.76 61.09 31.81 60.85 31.84 60.6 31.86 60.35 31.86 60.35 31.86 60.11 31.86 59.86 31.84 59.61 31.81 59.39 31.76 59.18 31.7 58.97 31.64 58.78 31.56 58.6 31.46 58.45 31.37 58.3 31.25 58.18 31.14 58.07 31.02 57.98 30.89 57.93 30.76 57.89 30.62 57.87 30.48 57.87 30.48 57.89 30.34 57.93 30.2 57.98 30.07 58.07 29.95 58.18 29.83 58.3 29.71 58.45 29.6 58.6 29.49 58.78 29.41 58.97 29.33 59.18 29.27 59.39 29.2 59.61 29.16 59.86 29.12 60.11 29.11 60.35 29.09 60.35 29.09 60.35 29.09"/>
        <polygon class="cls-6" points="57.38 29.32 63.16 29.32 63.16 29.91 57.38 29.91 57.38 29.32 57.38 29.32"/>
        <polygon class="cls-9" points="57.38 30.23 57.38 30.23 57.39 30.36 57.42 30.48 63.12 30.48 63.12 30.48 63.15 30.36 63.16 30.23 63.16 29.89 57.38 29.89 57.38 30.23 57.38 30.23 57.38 30.23"/>
        <polygon class="cls-6" points="58.41 31.22 62.15 31.22 62.15 31.22 62.33 31.21 62.49 31.16 62.64 31.09 62.78 31.01 62.89 30.9 63 30.77 63.08 30.64 63.14 30.48 57.44 30.48 57.44 30.48 57.49 30.64 57.56 30.77 57.65 30.9 57.78 31.01 57.92 31.09 58.07 31.16 58.23 31.21 58.41 31.22 58.41 31.22 58.41 31.22"/>
        <polygon class="cls-9" points="57.38 28.73 63.16 28.73 63.16 29.32 57.38 29.32 57.38 28.73 57.38 28.73"/>
        <polygon class="cls-9" points="57.38 26.98 63.16 26.98 63.16 28.16 57.38 28.16 57.38 26.98 57.38 26.98"/>
        <polygon class="cls-6" points="57.38 28.16 63.16 28.16 63.16 28.75 57.38 28.75 57.38 28.16 57.38 28.16"/>
        <polygon class="cls-13" points="67.03 17.64 67.03 17.64 67.01 17.31 66.99 16.99 66.94 16.66 66.89 16.34 66.81 16.03 66.73 15.73 66.62 15.42 66.49 15.13 66.37 14.83 66.22 14.55 66.05 14.29 65.89 14.02 65.7 13.77 65.51 13.53 65.29 13.29 65.07 13.06 64.83 12.85 64.6 12.65 64.34 12.45 64.08 12.28 63.81 12.1 63.53 11.94 63.25 11.81 62.94 11.68 62.64 11.56 62.34 11.45 62.03 11.37 61.7 11.29 61.37 11.24 61.04 11.2 60.7 11.17 60.35 11.17 60.35 11.17 60.01 11.17 59.67 11.2 59.34 11.24 59.01 11.29 58.68 11.37 58.37 11.45 58.07 11.56 57.76 11.68 57.46 11.81 57.18 11.94 56.9 12.1 56.63 12.28 56.37 12.45 56.11 12.65 55.87 12.85 55.64 13.06 55.42 13.29 55.2 13.53 55.01 13.77 54.82 14.02 54.65 14.29 54.49 14.55 54.34 14.83 54.22 15.13 54.09 15.42 53.98 15.73 53.9 16.03 53.82 16.34 53.76 16.66 53.72 16.99 53.69 17.31 53.68 17.64 53.68 17.64 53.69 18.07 53.74 18.47 53.8 18.84 53.9 19.2 54.01 19.55 54.15 19.89 54.28 20.21 54.45 20.53 54.63 20.85 54.8 21.16 55.2 21.78 55.6 22.44 55.81 22.77 56.01 23.12 56.01 23.12 56.08 23.28 56.16 23.46 56.23 23.69 56.3 23.94 56.44 24.5 56.54 25.07 56.64 25.6 56.71 26.04 56.76 26.47 56.76 26.47 56.76 26.59 56.79 26.7 56.82 26.8 56.86 26.91 56.9 27 56.97 27.11 57.02 27.19 57.11 27.27 57.19 27.35 57.28 27.42 57.38 27.47 57.48 27.51 57.59 27.55 57.7 27.58 57.81 27.6 57.93 27.6 62.79 27.6 62.79 27.6 62.92 27.6 63.03 27.58 63.14 27.55 63.25 27.51 63.34 27.47 63.44 27.42 63.53 27.35 63.61 27.27 63.68 27.19 63.75 27.11 63.82 27 63.86 26.91 63.9 26.8 63.93 26.7 63.96 26.59 63.96 26.47 63.96 26.47 64.01 26.04 64.08 25.6 64.18 25.07 64.29 24.5 64.42 23.94 64.49 23.69 64.56 23.46 64.64 23.28 64.71 23.12 64.71 23.12 64.92 22.77 65.11 22.44 65.52 21.78 65.9 21.16 66.08 20.85 66.26 20.53 66.42 20.21 66.56 19.89 66.7 19.55 66.81 19.2 66.9 18.84 66.97 18.47 67.01 18.07 67.03 17.64 67.03 17.64 67.03 17.64"/>
        <path class="cls-15" d="M59.11,27.6c0-6.8-1.6-10.65-1.6-10.65"/>
        <path class="cls-15" d="M61.44,27.6c0-6.8,1.6-10.65,1.6-10.65"/>
        <path class="cls-17" d="M60.78,17.11c0,.71-.59,1.28-1.32,1.28s-1.32-.57-1.32-1.28c0-.22.07-.8.49-.8s.52.56.52.8c0,.81-.69,1.21-1.5,1.33"/>
        <path class="cls-17" d="M62.4,17.11c0,.71-.59,1.28-1.32,1.28s-1.32-.57-1.32-1.28c0-.22.07-.8.49-.8s.52.56.52.8"/>
        <path class="cls-17" d="M62.7,18.39c-.73,0-1.32-.57-1.32-1.28,0-.22.07-.8.49-.8s.52.56.52.8"/>
        <line class="cls-16" x1="60.27" y1="8.97" x2="60.27" y2="6.66"/>
        <line class="cls-16" x1="63.64" y1="9.6" x2="64.47" y2="7.43"/>
        <line class="cls-16" x1="66.38" y1="11.4" x2="68.23" y2="9.95"/>
        <line class="cls-16" x1="68.15" y1="13.89" x2="70.49" y2="13.5"/>
        <line class="cls-16" x1="52.92" y1="13.91" x2="50.57" y2="13.52"/>
        <line class="cls-16" x1="54.43" y1="11.4" x2="52.58" y2="9.95"/>
        <line class="cls-16" x1="56.86" y1="9.6" x2="56.03" y2="7.43"/>
      </g>
      <path class="cls-11" d="M111.48,3.03h-31.24c-3.37,0-6.09,2.97-6.09,6.64v14.5c0,3.67,2.73,6.64,6.09,6.64h2.32l-2.24,6.64c-.37,1.1.04,1.44.92.77l9.69-7.41h20.55c3.37,0,6.09-2.97,6.09-6.64v-14.5c0-3.67-2.73-6.64-6.09-6.64Z"/>
      <path class="cls-10" d="M9.11,3.03h31.24c3.37,0,6.09,2.97,6.09,6.64v14.5c0,3.67-2.73,6.64-6.09,6.64h-2.32s2.24,6.64,2.24,6.64c.37,1.1-.04,1.44-.92.77l-9.69-7.41H9.11c-3.37,0-6.09-2.97-6.09-6.64v-14.5c0-3.67,2.73-6.64,6.09-6.64Z"/>
      <path class="cls-1" d="M101.92,47.8c-.11-.47-.58-.77-1.05-.66l-4.58,1.04-.04-.24,5.08-2.45c.43-.21.62-.73.41-1.17-.21-.44-.73-.62-1.17-.41l-4.92,2.38-.16-.27,3.69-2.91c.38-.3.44-.85.15-1.23-.3-.38-.85-.44-1.23-.15l-3.98,3.14c-.79.55-1.04.52-1.31.46-.26-.06-.44-.34-.11-.9l1.44-1.76c.31-.37.25-.92-.12-1.23-.37-.31-.92-.25-1.23.12l-2.85,3.49s-.07.1-.1.15l-1.45,2.8-1.86,1.91-.02.02-.03.03-.15.15s-.03.03-.04.05l-15.52,16.54,3.11,7.56,17.28-20.91.77-.78,2.72-.51,4.92.15c.48.01.89-.36.9-.85s-.36-.89-.85-.9l-3.22-.1.02-.43,4.86-1.1c.47-.11.77-.57.66-1.05Z"/>
      <path class="cls-1" d="M17.16,47.8c.11-.47.58-.77,1.05-.66l4.58,1.04.04-.24-5.08-2.45c-.43-.21-.62-.73-.41-1.17.21-.44.73-.62,1.17-.41l4.92,2.38.16-.27-3.69-2.91c-.38-.3-.44-.85-.15-1.23.3-.38.85-.44,1.23-.15l3.98,3.14c.79.55,1.04.52,1.31.46.26-.06.44-.34.11-.9l-1.44-1.76c-.31-.37-.25-.92.12-1.23.37-.31.92-.25,1.23.12l2.85,3.49s.07.1.1.15l1.45,2.8,1.86,1.91.02.02.03.03.15.15s.03.03.04.05l15.52,16.54-3.11,7.56-17.28-20.91-.77-.78-2.72-.51-4.92.15c-.48.01-.89-.36-.9-.85-.01-.48.36-.89.85-.9l3.22-.1-.02-.43-4.86-1.1c-.47-.11-.77-.57-.66-1.05Z"/>
      <polygon class="cls-14" points="72.76 77.38 58.37 78.16 86.95 48.54 93.44 55.03 72.76 77.38"/>
      <polygon class="cls-14" points="32.44 48.69 26.1 55.03 46.25 77.33 60.7 78.16 32.44 48.69"/>
      <path class="cls-12" d="M62.03,66.53h-6.22c-2.21,0-3.09.69-4.8,1.85l-4.76,8.96v5.28c4.25,1.07,8.7,1.65,13.28,1.65s9-.57,13.24-1.64v-5.23l-4.66-8.96c-1.74-1.2-3.82-1.9-6.08-1.9Z"/>
      <path class="cls-14" d="M59.5,73.59h0c3.4,0,6.17-2.78,6.17-6.17v-.59c-.8-.19-1.62-.3-2.47-.3h-7.41c-.85,0-1.68.11-2.47.3v.59c0,3.4,2.78,6.17,6.17,6.17Z"/>
      <rect class="cls-5" x="54.77" y="58.6" width="9.46" height="13" rx="1.96" ry="1.96"/>
      <path class="cls-7" d="M45.75,57.5c-.17,1.73-1.59,4.46-.15,4.92,1.44.46,13.12,2.49,13.12,2.49l-1.7-10.22-11.26,2.81Z"/>
      <path class="cls-8" d="M73.34,57.5c.17,1.73,1.59,4.46.15,4.92-1.44.46-13.12,2.49-13.12,2.49l1.7-10.22,11.27,2.81Z"/>
      <path class="cls-1" d="M71.66,52.86v-1.74c0-2.39-1.94-6.07-4.34-6.07h-15.61c-2.39,0-4.34,3.68-4.34,6.07v1.74c-1.44,0-2.6,1.16-2.6,2.6s1.16,2.6,2.6,2.6v.87c0,2.1,1.26,4,3.2,4.8l5.6,2.34c1.06.44,2.19.67,3.34.67s2.28-.23,3.33-.67l5.61-2.34c1.94-.81,3.2-2.7,3.2-4.8v-.87c1.44,0,2.6-1.16,2.6-2.6s-1.16-2.6-2.6-2.6"/>
      <path class="cls-3" d="M53.44,56.33h0c-.48,0-.87-.39-.87-.87v-.87c0-.48.39-.87.87-.87s.87.39.87.87v.87c0,.48-.39.87-.87.87"/>
      <path class="cls-3" d="M65.58,56.33h0c-.48,0-.87-.39-.87-.87v-.87c0-.48.39-.87.87-.87s.87.39.87.87v.87c0,.48-.39.87-.87.87"/>
      <path class="cls-3" d="M59.51,62.42c-1.54,0-2.98-.38-3.96-1.04-.4-.27-.5-.81-.23-1.2.27-.4.81-.5,1.2-.23.68.46,1.8.74,2.98.74s2.3-.28,2.98-.74c.4-.27.94-.17,1.21.23.27.4.17.94-.23,1.2-.97.66-2.42,1.04-3.96,1.04"/>
      <path class="cls-5" d="M60.37,46.07l-1.08-1.45c-2.57,5.85-9.41,6.89-11.93,7.02v1.22c-1.44,0-2.6,1.16-2.6,2.6s1.16,2.6,2.6,2.6v.87c0,2.1,1.26,4,3.2,4.8l5.6,2.34c.27.11.55.21.84.3-2.48-1.81-4.13-3.39-5.09-4.43-.7-.75-1.08-1.75-1.08-2.78v-4.85c2.46-.86,9.3-3.65,9.53-8.24"/>
      <path class="cls-8" d="M63.84,35.51c-2.82,0-4.33.87-4.33.87,0,0-1.52-.87-4.34-.87s-13.52,5.43-9.54,18c0,0,13.88-2.46,13.88-8.46,0,6,13.87,8.46,13.87,8.46,3.98-12.58-6.72-18-9.54-18"/>
      <path class="cls-7" d="M59.51,36.38h0s-1.52-.87-4.34-.87-13.52,5.43-9.54,18c0,0,1.68-.3,3.87-.94-2.45-11.28,7.32-16.19,10.01-16.2"/>
      <g>
        <path class="cls-2" d="M11.18,12.93h3.61v.93h-2.68v1.58h2.67v.91h-2.67v2.12h2.67v.92h-3.6v-6.45Z"/>
        <path class="cls-2" d="M15.8,14.61h.91v.67c.52-.56,1.02-.8,1.61-.8.33,0,.63.08.9.25.13.08.25.18.36.3.25.27.4.66.42,1.25,0,.18,0,.36,0,.56v2.54h-.9v-2.18c0-.85-.04-1.14-.19-1.38-.16-.33-.46-.49-.85-.49-.64,0-1.13.5-1.29,1.1-.04.2-.07.58-.07,1.13v1.83h-.91v-4.77Z"/>
        <path class="cls-2" d="M25.07,14.61h.91v3.69c0,.75,0,1.56-.45,2.11s-1.12.84-2.01.84c-.43,0-.81-.06-1.14-.18-.65-.23-1.05-.63-1.32-1.33h.99c.3.46.76.67,1.44.67,1.29,0,1.63-.73,1.59-1.78-.45.5-1.02.75-1.68.75-.62,0-1.2-.22-1.64-.66-.49-.47-.73-1.09-.73-1.82s.31-1.38.83-1.84c.41-.37.93-.58,1.48-.58.67,0,1.2.22,1.74.8v-.67ZM21.92,16.93c0,.94.66,1.63,1.61,1.63s1.58-.69,1.58-1.64-.69-1.58-1.57-1.57c-.87-.03-1.62.72-1.62,1.58Z"/>
        <path class="cls-2" d="M27.14,12.77h.9v6.61h-.9v-6.61Z"/>
        <path class="cls-2" d="M30.2,13.29c0,.35-.29.64-.64.64s-.63-.29-.63-.65.27-.64.63-.64.64.29.64.65ZM29.12,14.61h.91v4.77h-.91v-4.77Z"/>
        <path class="cls-2" d="M33.29,15.78c-.31-.31-.61-.46-.89-.46-.25,0-.58.24-.58.48,0,.32.55.61.89.78.75.37,1.2.72,1.2,1.48,0,.4-.14.75-.44,1.03-.3.28-.67.41-1.14.41-.62,0-1.17-.26-1.55-.75l.57-.62c.3.34.67.54,1,.54.31,0,.71-.31.71-.58,0-.34-.4-.6-.84-.82-.45-.22-.77-.46-.98-.7-.17-.23-.26-.49-.26-.77,0-.35.14-.69.4-.93.28-.26.61-.39,1.03-.39.53,0,1.03.25,1.45.72l-.58.58Z"/>
        <path class="cls-2" d="M34.92,12.77h.9v2.51c.49-.52,1.02-.79,1.61-.79.33,0,.63.08.9.25.51.31.74.8.77,1.42.02.22.02.47.02.74v2.49h-.9v-2.18c0-.55-.03-.92-.07-1.11-.12-.47-.48-.76-.97-.76-.63,0-1.13.49-1.29,1.09-.04.19-.07.58-.07,1.14v1.83h-.9v-6.61Z"/>
      </g>
      <g>
        <path class="cls-2" d="M82.54,14.48c-.31-.39-.58-.71-1.05-.71-.67,0-.91.71-.45,1.16.09.11.37.34.84.72.39.31.65.53.8.68.5.49.67.92.67,1.41,0,1.02-.85,1.73-1.86,1.73-.83,0-1.45-.39-1.96-1.35l.77-.46c.35.63.74.93,1.19.93.8,0,1.17-.78.74-1.35-.12-.18-.37-.41-.71-.69-.45-.33-1.17-1-1.33-1.22-.44-.64-.43-1.48.15-2.02.31-.29.7-.45,1.17-.45.61,0,1.11.25,1.73,1.02l-.69.6Z"/>
        <path class="cls-2" d="M85.35,14.67v.68c.46-.53,1-.81,1.66-.81.63,0,1.17.24,1.61.71.46.46.67,1.04.67,1.73s-.23,1.27-.67,1.74c-.46.47-.99.71-1.62.71-.07,0-.13,0-.19-.02-.56-.04-1.04-.28-1.46-.74v2.34h-.88v-6.35h.88ZM85.3,17c0,.51.17.93.52,1.24.3.26.67.39,1.09.39s.76-.18,1.05-.47c.31-.31.46-.71.46-1.16s-.17-.85-.46-1.16c-.3-.32-.67-.46-1.1-.46-.91,0-1.56.71-1.56,1.62Z"/>
        <path class="cls-2" d="M94.09,14.67h.88v4.65h-.88v-.64c-.48.52-1.02.76-1.66.76s-1.17-.24-1.62-.71c-.46-.47-.68-1.05-.68-1.74s.23-1.27.67-1.73c.46-.47,1-.71,1.63-.71.67,0,1.22.27,1.66.81v-.68ZM91.01,17c0,.88.67,1.64,1.56,1.64s1.56-.74,1.56-1.64-.65-1.62-1.56-1.62-1.56.74-1.56,1.62Z"/>
        <path class="cls-2" d="M96.22,14.67h.88v.66c.51-.54.99-.78,1.57-.78.32,0,.61.08.88.25.13.08.25.18.35.29.25.26.39.64.41,1.22,0,.17,0,.35,0,.54v2.48h-.88v-2.13c0-.83-.04-1.11-.18-1.35-.16-.32-.45-.48-.83-.48-.62,0-1.1.49-1.25,1.07-.04.19-.07.56-.07,1.1v1.79h-.88v-4.65Z"/>
        <path class="cls-2" d="M102.48,13.38c0,.34-.28.62-.62.62s-.61-.28-.61-.63.26-.62.61-.62.62.28.62.63ZM101.42,14.67h.88v4.65h-.88v-4.65Z"/>
        <path class="cls-2" d="M105.49,15.81c-.3-.3-.6-.45-.87-.45-.25,0-.56.24-.56.46,0,.32.53.6.87.76.73.36,1.17.7,1.17,1.45,0,.39-.14.74-.43,1.01s-.66.4-1.11.4c-.6,0-1.14-.25-1.51-.73l.55-.6c.29.33.66.53.97.53.3,0,.69-.3.69-.57,0-.33-.39-.59-.81-.8-.44-.22-.75-.45-.95-.68-.17-.23-.25-.47-.25-.75,0-.34.14-.67.39-.91.27-.25.6-.38,1.01-.38.52,0,1.01.25,1.41.7l-.56.56Z"/>
        <path class="cls-2" d="M107.08,12.87h.88v2.44c.47-.51.99-.77,1.57-.77.32,0,.61.08.88.25.5.3.72.78.75,1.38.02.22.02.46.02.72v2.43h-.88v-2.13c0-.53-.03-.89-.07-1.09-.11-.46-.46-.74-.95-.74-.61,0-1.1.48-1.25,1.06-.04.18-.07.56-.07,1.11v1.79h-.88v-6.45Z"/>
      </g>
    </g>
  </g>
</svg>