<?xml version="1.0" encoding="UTF-8"?>
<svg id="Layer_2" data-name="Layer 2" xmlns="http://www.w3.org/2000/svg" viewBox="0 0 827.9 561">
  <defs>
    <style>
      .cls-1 {
        fill: #0089a0;
      }

      .cls-1, .cls-2 {
        stroke-width: 0px;
      }

      .cls-2 {
        fill: #fff;
      }
    </style>
  </defs>
  <g>
    <path class="cls-2" d="M392.853,226.206c-31.974-33.939-67.879-51.156-107.722-51.156-67.879,0-120.019,52.139-120.019,120.019,0,70.34,50.664,121.494,121.002,121.494,39.351,0,67.879-12.788,106.739-50.662l45.743,47.22c-46.729,45.743-87.553,67.879-153.466,67.879-109.689,0-187.406-75.75-187.406-185.931,0-35.414,7.871-66.894,24.103-93.949,33.939-57.55,98.376-90.997,164.287-90.997,58.533,0,115.1,25.578,153.959,70.829l-47.22,45.254Z"/>
    <path class="cls-2" d="M557.118,405.741v-220.362h-62.96v-66.402h195.275v66.402h-65.421v220.362h65.421v66.404h-195.275v-66.404h62.96Z"/>
  </g>
  <g>
    <path class="cls-1" d="M392.853,196.083c-31.974-33.939-67.879-51.156-107.722-51.156-67.879,0-120.019,52.139-120.019,120.019,0,70.34,50.664,121.494,121.002,121.494,39.351,0,67.879-12.788,106.739-50.662l45.743,47.22c-46.729,45.743-87.553,67.879-153.466,67.879-109.689,0-187.406-75.75-187.406-185.931,0-35.414,7.871-66.894,24.103-93.949,33.939-57.55,98.376-90.997,164.287-90.997,58.533,0,115.1,25.578,153.959,70.829l-47.22,45.254Z"/>
    <path class="cls-1" d="M557.118,375.618v-220.362h-62.96v-66.402h195.275v66.402h-65.421v220.362h65.421v66.404h-195.275v-66.404h62.96Z"/>
  </g>
</svg>