<svg width="199" height="137" viewBox="0 0 199 137" fill="none" xmlns="http://www.w3.org/2000/svg">
<path d="M68.1709 0.658171L0.0458984 3.91113L3.29886 72.0361L71.4238 68.7831L68.1709 0.658171Z" fill="#7DB40A"/>
<path d="M122.3 31.313H62.1997V91.413H122.3V31.313Z" fill="#A2499C"/>
<path d="M197.447 69.1104L139.688 55.6611L126.239 113.419L183.997 126.869L197.447 69.1104Z" fill="#0073BE"/>
<path d="M79.269 84.1052L33.729 90.582L40.2058 136.122L85.7458 129.645L79.269 84.1052Z" fill="#004CA8"/>
<path d="M191.858 14.1135L146.318 20.5903L152.795 66.1303L198.335 59.6535L191.858 14.1135Z" fill="#0099A8"/>
<path d="M71.3 68.7126L3.19995 72.0126L0 3.9126L71.3 68.7126Z" fill="#8ABB22"/>
<path d="M62.1997 91.413V31.313H122.3L62.1997 91.413Z" fill="#AB5BA6"/>
<path d="M184 126.713L126.2 113.313L139.7 55.5127L184 126.713Z" fill="#1981C4"/>
<path d="M85.7998 129.613L33.7998 90.5127L79.2998 84.0127L85.7998 129.613Z" fill="#3370B9"/>
<path d="M198.4 59.6128L146.4 20.6128L191.9 14.1128L198.4 59.6128Z" fill="#19A3B1"/>
<path d="M21.6581 14.8225L29.3208 14.4566L34.8401 21.4244L39.7699 13.9576L47.3829 13.5941L38.9233 26.5158L49.789 39.9609L42.0765 40.3291L35.3438 31.973L29.5375 40.9279L21.9246 41.2914L31.3104 26.8793L21.6581 14.8225Z" fill="white"/>
<path d="M86.7793 41.6814H91.786V44.6239C92.8839 42.2962 94.7724 41.0665 96.9244 41.0665C97.671 41.0665 98.4615 41.2861 99.296 41.6814L97.4953 46.6881C96.7926 46.3806 96.2217 46.205 95.7825 46.205C94.8602 46.205 94.1136 46.7759 93.4988 47.8739C92.8839 48.9718 92.5765 51.1677 92.5765 54.4177V55.5595V65.002H86.7793V41.6814Z" fill="white"/>
<path d="M168.251 63.2922C170.278 63.764 171.5 65.7844 171.028 67.8114C170.556 69.8384 168.578 71.0695 166.593 70.6075C164.608 70.1455 163.345 68.1153 163.826 66.0461C164.288 64.0613 166.266 62.8302 168.251 63.2922ZM163.269 71.8816L168.928 73.1988L163.531 96.3822C163.04 98.4936 162.465 100.007 161.797 100.964C160.451 102.921 158.328 103.629 155.752 103.029C154.611 102.764 153.287 102.144 151.768 101.212L152.8 96.7777C153.588 97.4064 154.299 97.7945 154.975 97.9518C156.368 98.2762 157.244 97.7676 157.784 95.4451L163.269 71.8816Z" fill="white"/>
<path d="M49.3153 89.5434L53.7716 88.9096L55.777 103.01L61.2594 94.8L66.8131 94.0102L60.4036 103.574L70.2557 111.537L64.7353 112.322L56.0939 105.238L57.2527 113.386L52.7964 114.02L49.3153 89.5434Z" fill="white"/>
<path d="M174.659 22.0115L179.082 21.3825L181.234 36.514C181.66 39.5071 181.374 41.7871 180.375 43.3541C179.015 45.4815 176.724 46.7912 173.465 47.2547C168.41 47.9736 165.233 46.3897 163.521 42.9351L168.409 42.2398C169.387 43.1525 170.85 43.4194 172.713 43.1546C173.91 42.9843 174.846 42.6476 175.492 42.1825C176.172 41.7126 176.604 41.1761 176.823 40.5681C177.042 39.9602 177.062 38.9056 176.859 37.4756C175.518 39.261 173.978 40.1246 171.816 40.432C169.455 40.7678 167.304 40.1917 165.433 38.7274C163.562 37.2631 162.423 35.2197 162.05 32.5924C161.648 29.7657 162.191 27.3813 163.712 25.4346C165.057 23.6825 166.811 22.6527 169.006 22.3406C171.001 22.0568 172.863 22.5045 174.934 23.9404L174.659 22.0115ZM170.595 26.3557C169.198 26.5543 168.1 27.1855 167.335 28.2443C166.569 29.3032 166.269 30.5334 166.473 31.9634C166.681 33.4267 167.317 34.5577 168.385 35.3897C169.449 36.1884 170.679 36.4884 172.076 36.2898C173.439 36.0959 174.504 35.4695 175.274 34.4439C176.039 33.385 176.335 32.1215 176.122 30.625C175.705 27.6985 173.422 25.9536 170.595 26.3557Z" fill="white"/>
</svg>
