<?xml version="1.0" encoding="UTF-8"?>
<svg id="Layer_1" data-name="Layer 1" xmlns="http://www.w3.org/2000/svg" version="1.1" xmlns:xlink="http://www.w3.org/1999/xlink" viewBox="0 0 757 757">
  <defs>
    <style>
      .cls-1 {
        mask: url(#mask-2);
      }

      .cls-2 {
        fill: #e9513d;
      }

      .cls-2, .cls-3, .cls-4, .cls-5, .cls-6 {
        stroke-width: 0px;
      }

      .cls-7 {
        mask: url(#mask-3);
      }

      .cls-3 {
        fill-opacity: .3;
      }

      .cls-3, .cls-6 {
        fill: #fff;
      }

      .cls-4 {
        fill: #0778ac;
      }

      .cls-5 {
        fill: #85c446;
      }

      .cls-8 {
        mask: url(#mask-1);
      }

      .cls-9 {
        mask: url(#mask);
      }

      .cls-10 {
        fill: none;
        stroke: #ef8267;
        stroke-linecap: round;
        stroke-linejoin: round;
        stroke-width: 22.9px;
      }
    </style>
    <mask id="mask" x="-125.4" y="-92.1" width="814.9" height="713.8" maskUnits="userSpaceOnUse">
      <g id="mask0_3030_2982" data-name="mask0 3030 2982">
        <path class="cls-6" d="M689.5-92.1H-125.4v713.8h814.9V-92.1Z"/>
      </g>
    </mask>
    <mask id="mask-1" x="31.6" y="64.1" width="628.1" height="524.7" maskUnits="userSpaceOnUse">
      <g id="mask1_3030_2982" data-name="mask1 3030 2982">
        <path class="cls-6" d="M31.6,64.1h628.1v524.7H31.6V64.1Z"/>
      </g>
    </mask>
    <mask id="mask-2" x="-98.8" y="-62.8" width="761.4" height="655" maskUnits="userSpaceOnUse">
      <g id="mask2_3030_2982" data-name="mask2 3030 2982">
        <path class="cls-6" d="M-98.8,307.3L463.6-62.8l199,284.9L100.2,592.2-98.8,307.3Z"/>
      </g>
    </mask>
    <mask id="mask-3" x="-98.8" y="-62.8" width="761.4" height="655" maskUnits="userSpaceOnUse">
      <g id="mask3_3030_2982" data-name="mask3 3030 2982">
        <path class="cls-6" d="M-98.8,307.3L463.6-62.8l199,284.9L100.2,592.2-98.8,307.3Z"/>
      </g>
    </mask>
  </defs>
  <path class="cls-4" d="M639.7,186.4c-41.6-80-111.2-140.1-196.9-167.3-33.6-10.4-68-16-103.2-16C192.3,3.1,62.7,97.6,17.8,237.6c-56.8,177.7,41.6,368.2,218.5,425,33.6,10.4,68,16,103.2,16,147.3,0,276.9-94.4,321.7-234.5,27.2-85.6,19.2-176.9-21.6-257.7Z"/>
  <path class="cls-5" d="M168.3,248.8c10.4,43.2,23.2,23.2,24.8-10.4,2.4-32.8,43.2-60,58.4-74.4,14.4-14.4,76.8-2.4,87.2-14.4,10.4-12-28.8-53.6-32.8-72.8-4-16.8,38.4-14.4,20.8-72.8C208.3,7.9,103.5,72.8,45.9,172c8,39.2,22.4,100,38.4,128.1,24.8,43.2,74.4,56,56.8,59.2-17.6,3.2-42.4,17.6-46.4,42.4-4,24.8,8,48,32.8,78.4,24,29.6,0,59.2-20,107.2,19.2,17.6,40,33.6,64,47.2,10.4-25.6,28.8-68,45.6-85.6,24.8-27.2,49.6-53.6,58.4-83.2,8-28.8,10.4-43.2-8-66.4-18.4-23.2-27.2-49.6-74.4-58.4-47.2-8.8-83.2-24.8-91.2-66.4-8.8-40,56-69.6,66.4-25.6Z"/>
  <path class="cls-5" d="M660.5,444.1c27.2-85.6,20-177.7-21.6-257.7-29.6-57.6-74.4-104.8-128.9-136.9l-11.2-4.8c-4,35.2-4,70.4-14.4,84.8-10.4,14.4-41.6,18.4-31.2,39.2,10.4,20.8,16.8,39.2,35.2,32.8,18.4-6.4,39.2-27.2,60-23.2,20.8,4,72.8,31.2,64,56-8,24.8,0,53.6-45.6,48-45.6-5.6-68.8-31.2-108.1-14.4-39.2,16.8-88.8,72.8-76.8,118.5,12.8,45.6,64,77.6,104,88.8,40,11.2,43.2,99.2,37.6,144.9v1.6c64-39.2,112.8-101.6,136.9-177.7Z"/>
  <g class="cls-9">
    <g class="cls-8">
      <g class="cls-1">
        <g class="cls-7">
          <path class="cls-3" d="M651.6,229.3L111.7,584.5c-.8.5-1.6,1-2.5,1.3-.9.4-1.8.6-2.7.8-.9.2-1.9.3-2.8.3-.9,0-1.9,0-2.8-.2-.9-.2-1.8-.4-2.7-.8-.9-.3-1.7-.8-2.5-1.3-.8-.5-1.5-1.1-2.2-1.7-.7-.6-1.3-1.3-1.8-2.1-3.1-4.5-6.1-9-9-13.6-2.9-4.6-5.7-9.3-8.3-14.1-2.7-4.8-5.2-9.6-7.6-14.4-2.4-4.9-4.7-9.8-6.9-14.8-2.2-5-4.2-10-6.1-15.1-1.9-5.1-3.7-10.2-5.3-15.4-1.7-5.2-3.2-10.4-4.6-15.6-1.4-5.2-2.6-10.5-3.8-15.8-1.1-5.3-2.1-10.6-3-16-.9-5.3-1.6-10.7-2.2-16.1-.6-5.4-1-10.8-1.3-16.2-.3-5.4-.5-10.8-.5-16.2,0-5.4,0-10.8.3-16.2.2-5.4.6-10.8,1.1-16.2.5-5.4,1.2-10.8,1.9-16.1.8-5.4,1.7-10.7,2.7-16,1-5.3,2.2-10.6,3.6-15.8,1.3-5.3,2.8-10.5,4.3-15.7,1.6-5.2,3.3-10.3,5.1-15.4,1.8-5.1,3.8-10.2,5.9-15.2,2.1-5,4.3-10,6.7-14.9,2.4-4.9,4.8-9.8,7.4-14.5,2.6-4.8,5.3-9.5,8.1-14.2,2.8-4.6,5.8-9.2,8.8-13.8,3.1-4.5,6.2-9,9.5-13.3,3.3-4.4,6.7-8.7,10.2-12.8,3.5-4.2,7.1-8.3,10.8-12.4,3.7-4,7.5-8,11.4-11.8,3.9-3.8,7.9-7.6,12-11.3,4.1-3.7,8.3-7.2,12.6-10.7,4.3-3.5,8.6-6.8,13.1-10.1,4.5-3.2,9-6.4,13.6-9.4,4.6-3,9.3-6,14.1-8.8,4.8-2.8,9.6-5.5,14.5-8.1,4.9-2.6,9.9-5,14.9-7.4,5-2.3,10.1-4.6,15.2-6.7,5.1-2.1,10.3-4.1,15.5-5.9,5.2-1.9,10.5-3.6,15.8-5.2,5.3-1.6,10.7-3.1,16.1-4.4,5.4-1.3,10.8-2.6,16.3-3.7,5.4-1.1,10.9-2.1,16.4-2.9,5.5-.8,11-1.5,16.6-2.1,5.5-.6,11.1-1,16.6-1.3,5.6-.3,11.1-.5,16.7-.5,5.6,0,11.1,0,16.7.3,5.6.2,11.1.6,16.7,1.1,5.6.5,11.1,1.1,16.6,1.9,5.5.8,11,1.6,16.5,2.7,5.5,1,10.9,2.2,16.3,3.4,5.4,1.3,10.8,2.7,16.1,4.2,5.3,1.5,10.6,3.2,15.9,5,5.3,1.8,10.5,3.7,15.6,5.7,5.2,2,10.3,4.2,15.3,6.5,5,2.3,10,4.7,15,7.2,4.9,2.5,9.8,5.1,14.6,7.9,4.8,2.7,9.5,5.6,14.2,8.6,4.6,3,9.2,6.1,13.7,9.2,4.5,3.2,8.9,6.5,13.2,9.9,4.3,3.4,8.6,6.9,12.7,10.5,4.2,3.6,8.2,7.3,12.2,11.1,4,3.8,7.8,7.7,11.6,11.7,3.8,4,7.4,8,11,12.2,3.6,4.2,7,8.4,10.4,12.7,3.3,4.3,6.6,8.7,9.7,13.2.5.8,1,1.5,1.4,2.4.4.8.7,1.7.8,2.6.2.9.3,1.8.3,2.7,0,.9,0,1.8-.3,2.7-.2.9-.4,1.8-.8,2.6-.4.8-.8,1.6-1.3,2.4-.5.8-1.1,1.5-1.8,2.1-.7.6-1.4,1.2-2.2,1.7Z"/>
        </g>
      </g>
    </g>
  </g>
  <path class="cls-2" d="M649.1,283.2c-41.7-4.4-110.8,34.9-122.8,101.8-12-66.9-81-106.2-122.7-101.8-51,5.4-118.4,41.7-101.3,146.2,17.1,104.5,224.9,283.5,224.9,283.5,0,0,206-179,223.1-283.5,17.1-104.5-50.2-140.8-101.2-146.2Z"/>
  <path class="cls-10" d="M592.2,358.1c34.6-58.5,115.6-21.5,115.2,37-.4,58.5-34.7,105.5-150,230.9"/>
</svg>