<svg width="174" height="129" viewBox="0 0 174 129" fill="none" xmlns="http://www.w3.org/2000/svg">
<path d="M161.8 128.2H12.1C5.39998 128.2 0 122.8 0 116.1V12.1C0 5.39998 5.39998 0 12.1 0H161.8C168.5 0 173.9 5.39998 173.9 12.1V116.2C173.9 122.8 168.5 128.2 161.8 128.2Z" fill="#2688C8"/>
<path d="M169.8 3L4.09961 125.2C6.19961 127.1 8.99961 128.2 12.0996 128.2H161.8C168.5 128.2 173.9 122.8 173.9 116.1V12.1C173.9 8.49998 172.3 5.3 169.8 3Z" fill="#0073BE"/>
<path d="M84.9999 101.3C105.545 101.3 122.2 84.6449 122.2 64.0999C122.2 43.5549 105.545 26.8999 84.9999 26.8999C64.4549 26.8999 47.7998 43.5549 47.7998 64.0999C47.7998 84.6449 64.4549 101.3 84.9999 101.3Z" fill="#FFD451"/>
<path d="M115 42.1001C127.2 58.7001 123.6 82.0002 107 94.1002C90.4 106.3 67.1 102.7 55 86.1001L115 42.1001Z" fill="#FFCD32"/>
<path d="M71.7998 84.4003V44.8003L108.1 64.6003L71.7998 84.4003Z" fill="#2688C8"/>
<path d="M71.7998 84.4001V73.9001L94.4999 57.2002L108.1 64.6002L71.7998 84.4001Z" fill="#0073BE"/>
</svg>
