<?xml version="1.0" encoding="UTF-8"?>
<svg id="Layer_2" data-name="Layer 2" xmlns="http://www.w3.org/2000/svg" xmlns:xlink="http://www.w3.org/1999/xlink" viewBox="0 0 117.29 90.19">
  <defs>
    <style>
      .cls-1 {
        fill: #00a7b8;
      }

      .cls-1, .cls-2, .cls-3 {
        stroke-width: 0px;
      }

      .cls-4 {
        filter: url(#drop-shadow-2);
      }

      .cls-5 {
        filter: url(#drop-shadow-3);
      }

      .cls-6 {
        filter: url(#drop-shadow-1);
      }

      .cls-2 {
        fill: #7db442;
      }

      .cls-3 {
        fill: #f47c25;
      }
    </style>
    <filter id="drop-shadow-1" filterUnits="userSpaceOnUse">
      <feOffset dx="3" dy="3"/>
      <feGaussianBlur result="blur" stdDeviation="2"/>
      <feFlood flood-color="#231f20" flood-opacity=".1"/>
      <feComposite in2="blur" operator="in"/>
      <feComposite in="SourceGraphic"/>
    </filter>
    <filter id="drop-shadow-2" filterUnits="userSpaceOnUse">
      <feOffset dx="3" dy="3"/>
      <feGaussianBlur result="blur-2" stdDeviation="2"/>
      <feFlood flood-color="#231f20" flood-opacity=".1"/>
      <feComposite in2="blur-2" operator="in"/>
      <feComposite in="SourceGraphic"/>
    </filter>
    <filter id="drop-shadow-3" filterUnits="userSpaceOnUse">
      <feOffset dx="3" dy="3"/>
      <feGaussianBlur result="blur-3" stdDeviation="2"/>
      <feFlood flood-color="#231f20" flood-opacity=".1"/>
      <feComposite in2="blur-3" operator="in"/>
      <feComposite in="SourceGraphic"/>
    </filter>
  </defs>
  <g id="Layer_1-2" data-name="Layer 1">
    <g>
      <g class="cls-6">
        <g>
          <path class="cls-1" d="M49.19.69l6.03-.69,3.81,33.35-6.03.69-.29-2.54c-2.1,2.49-4.31,3.71-7.07,4.02-3.13.36-5.94-.56-8.48-2.7-2.54-2.14-4.02-5.05-4.43-8.63s.32-6.88,2.22-9.48c1.95-2.66,4.49-4.14,7.61-4.5,2.9-.33,5.56.47,7.99,2.39l-1.36-11.92ZM44.47,15.64c-1.86.21-3.37,1.07-4.44,2.53-1.07,1.45-1.51,3.25-1.28,5.29s1.07,3.73,2.45,4.95c1.42,1.17,3.04,1.67,4.9,1.46s3.41-1.08,4.49-2.53c1.12-1.46,1.55-3.3,1.31-5.43-.48-4.17-3.61-6.7-7.42-6.27Z"/>
          <path class="cls-1" d="M79.79,6.6l6.03-.69,2.36,20.62c.47,4.08,0,7.16-1.42,9.25-1.93,2.84-5.08,4.53-9.52,5.04-6.89.79-11.14-1.48-13.34-6.23l6.66-.76c1.29,1.28,3.27,1.69,5.81,1.4,1.63-.19,2.91-.61,3.81-1.22.94-.61,1.55-1.32,1.87-2.14.32-.82.39-2.25.16-4.2-1.89,2.37-4.01,3.49-6.95,3.82-3.22.37-6.12-.49-8.6-2.55-2.48-2.06-3.95-4.87-4.36-8.45-.44-3.85.39-7.07,2.52-9.65,1.89-2.33,4.31-3.66,7.3-4,2.72-.31,5.23.37,7.99,2.39l-.3-2.63ZM74.11,12.35c-1.9.22-3.42,1.03-4.5,2.44-1.08,1.41-1.53,3.07-1.31,5.02s1.05,3.55,2.47,4.72c1.41,1.12,3.07,1.58,4.98,1.36s3.33-1.02,4.41-2.39c1.08-1.41,1.53-3.11,1.29-5.15-.46-3.99-3.49-6.44-7.34-6Z"/>
          <path class="cls-1" d="M117.29,16.28l-19.44,2.22c.98,3.38,3.76,5.22,7.57,4.78,2.22-.25,4.08-1.25,5.53-3.02l5.35,1.82c-2.12,3.92-5.38,5.99-10.23,6.54-3.76.43-6.98-.4-9.65-2.52-2.68-2.13-4.2-4.98-4.61-8.56s.41-6.84,2.49-9.51c2.12-2.72,4.93-4.28,8.51-4.69,3.81-.43,7.03.44,9.66,2.61,2.68,2.13,4.22,5.21,4.68,9.2l.13,1.13ZM110.68,12.21c-1.08-2.59-3.87-4.15-6.95-3.8-1.68.19-3.12.82-4.28,1.91-.7.68-1.35,1.81-1.86,3.38l13.1-1.5Z"/>
        </g>
      </g>
      <g class="cls-4">
        <g>
          <path class="cls-2" d="M66.86,51.91l-.47,2.84c2.74-1.96,5.67-2.69,8.81-2.17,3.38.56,6.06,2.3,7.98,5.29,1.98,2.94,2.61,6.41,1.95,10.43s-2.4,6.95-5.28,9.14c-2.88,2.19-5.98,3.04-9.36,2.48-2.99-.49-5.31-1.93-7.46-4.75l-2.02,12.24-6.51-1.07,5.85-35.49,6.51,1.07ZM72.83,58.38c-4.11-.68-7.66,1.91-8.4,6.41-.38,2.3,0,4.32,1.08,5.96,1.14,1.65,2.73,2.66,4.79,3s3.79-.13,5.35-1.33c1.61-1.24,2.6-2.99,2.98-5.24s-.02-4.18-1.1-5.81c-1.09-1.64-2.68-2.65-4.69-2.99Z"/>
          <path class="cls-2" d="M93.96,46.07l6.46,1.06-2.08,12.63c2.9-1.73,5.63-2.44,8.32-2s4.6,1.66,6.07,3.77c1.27,1.77,1.67,4.2,1.18,7.18l-2.83,17.18-6.46-1.06,1.88-11.41c.49-2.99.68-5.07.57-6.19-.18-2.24-1.48-3.51-3.49-3.84-2.69-.44-4.97,1.14-6.19,4.01-.32.75-.72,2.55-1.18,5.34l-1.72,10.43-6.46-1.06,5.94-36.03Z"/>
        </g>
      </g>
      <g class="cls-5">
        <path class="cls-3" d="M0,55.43l3.1-.29c-.36-4.62-.54-7.34-.49-8.21.1-3.94,2.66-6.57,7.74-7.04,1.78-.16,3.86.04,6.25.69l.62,6.73c-1.29-.28-2.3-.39-3.16-.31-1.98.18-2.71.91-2.53,2.89l.41,4.42,5.54-.51.69,7.46-5.54.51,2.54,27.58-8.84.82-2.54-27.58-3.1.29-.69-7.46Z"/>
        <path class="cls-3" d="M22.11,39.75l8.84-.82,4.48,48.57-8.84.82-4.48-48.57Z"/>
      </g>
    </g>
  </g>
</svg>