<svg width="198" height="154" viewBox="0 0 198 154" fill="none" xmlns="http://www.w3.org/2000/svg">
<g clip-path="url(#clip0_5865_6072)">
<mask id="mask0_5865_6072" style="mask-type:luminance" maskUnits="userSpaceOnUse" x="0" y="49" width="172" height="105">
<path d="M0 49.3203H171.261V153.717H0V49.3203Z" fill="white"/>
</mask>
<g mask="url(#mask0_5865_6072)">
<mask id="mask1_5865_6072" style="mask-type:luminance" maskUnits="userSpaceOnUse" x="-20" y="-16" width="238" height="186">
<path d="M217.483 -15.4141H-19.7715V169.386H217.483V-15.4141Z" fill="black" fill-opacity="0.52"/>
</mask>
<g mask="url(#mask1_5865_6072)">
<mask id="mask2_5865_6072" style="mask-type:luminance" maskUnits="userSpaceOnUse" x="-1" y="49" width="173" height="106">
<path d="M171.258 49.2891H-0.00292969V154.197H171.258V49.2891Z" fill="white"/>
</mask>
<g mask="url(#mask2_5865_6072)">
<mask id="mask3_5865_6072" style="mask-type:luminance" maskUnits="userSpaceOnUse" x="0" y="51" width="170" height="102">
<path d="M0.890625 51.1094H169.461V152.431H0.890625V51.1094Z" fill="white"/>
</mask>
<g mask="url(#mask3_5865_6072)">
<mask id="mask4_5865_6072" style="mask-type:luminance" maskUnits="userSpaceOnUse" x="-1" y="49" width="172" height="105">
<path d="M-0.00585938 90.8718L153.914 49.9375L170.495 112.283L16.5752 153.217L-0.00585938 90.8718Z" fill="white"/>
</mask>
<g mask="url(#mask4_5865_6072)">
<mask id="mask5_5865_6072" style="mask-type:luminance" maskUnits="userSpaceOnUse" x="1" y="51" width="169" height="101">
<path d="M5.82788 89.3654L148.028 51.5484C151.25 50.6903 154.557 52.6097 155.415 55.832L168.892 106.507C169.751 109.729 167.831 113.036 164.609 113.894L22.4089 151.711C19.1866 152.569 15.8802 150.649 15.0221 147.427L1.54427 96.7523C0.689647 93.5299 2.60554 90.22 5.82788 89.3654Z" fill="white"/>
</mask>
<g mask="url(#mask5_5865_6072)">
<path d="M-0.0078125 90.8796L153.912 49.9453L170.493 112.291L16.5732 153.225L-0.0078125 90.8796Z" fill="#9F9296"/>
</g>
</g>
</g>
</g>
</g>
</g>
<mask id="mask6_5865_6072" style="mask-type:luminance" maskUnits="userSpaceOnUse" x="-20" y="-16" width="238" height="186">
<path d="M217.483 -15.4219H-19.7715V169.378H217.483V-15.4219Z" fill="black" fill-opacity="0.52"/>
</mask>
<g mask="url(#mask6_5865_6072)">
<mask id="mask7_5865_6072" style="mask-type:luminance" maskUnits="userSpaceOnUse" x="10" y="25" width="162" height="66">
<path d="M171.268 25.0781H10.7676V90.5337H171.268V25.0781Z" fill="white"/>
</mask>
<g mask="url(#mask7_5865_6072)">
<mask id="mask8_5865_6072" style="mask-type:luminance" maskUnits="userSpaceOnUse" x="11" y="25" width="160" height="66">
<path d="M11.2363 25.6094H170.504V90.1228H11.2363V25.6094Z" fill="white"/>
</mask>
<g mask="url(#mask8_5865_6072)">
<mask id="mask9_5865_6072" style="mask-type:luminance" maskUnits="userSpaceOnUse" x="11" y="25" width="160" height="66">
<path d="M17.2737 25.5938H164.416C167.75 25.5938 170.454 28.2977 170.454 31.6321V84.0688C170.454 87.4067 167.75 90.1072 164.416 90.1072H17.2737C13.9393 90.1072 11.2354 87.4067 11.2354 84.0688V31.6321C11.2354 28.2977 13.9393 25.5938 17.2737 25.5938Z" fill="white"/>
</mask>
<g mask="url(#mask9_5865_6072)">
<path d="M11.2354 25.5938H170.503V90.1072H11.2354V25.5938Z" fill="#9F9296"/>
</g>
</g>
</g>
</g>
<mask id="mask10_5865_6072" style="mask-type:luminance" maskUnits="userSpaceOnUse" x="-20" y="-16" width="238" height="186">
<path d="M217.483 -15.4219H-19.7715V169.378H217.483V-15.4219Z" fill="black" fill-opacity="0.52"/>
</mask>
<g mask="url(#mask10_5865_6072)">
<mask id="mask11_5865_6072" style="mask-type:luminance" maskUnits="userSpaceOnUse" x="25" y="18" width="173" height="121">
<path d="M197.27 18.8203H25.1123V138.972H197.27V18.8203Z" fill="white"/>
</mask>
<g mask="url(#mask11_5865_6072)">
<mask id="mask12_5865_6072" style="mask-type:luminance" maskUnits="userSpaceOnUse" x="26" y="21" width="170" height="117">
<path d="M26.9082 21.5078H195.479V137.176H26.9082V21.5078Z" fill="white"/>
</mask>
<g mask="url(#mask12_5865_6072)">
<mask id="mask13_5865_6072" style="mask-type:luminance" maskUnits="userSpaceOnUse" x="25" y="19" width="173" height="120">
<path d="M49.4162 19.4766L197.185 78.9008L173.112 138.756L25.3467 79.3316L49.4162 19.4766Z" fill="white"/>
</mask>
<g mask="url(#mask13_5865_6072)">
<mask id="mask14_5865_6072" style="mask-type:luminance" maskUnits="userSpaceOnUse" x="27" y="21" width="168" height="116">
<path d="M56.2611 22.2378L190.286 76.135C194.069 77.6551 195.901 81.9527 194.381 85.7355L175.817 131.896C174.297 135.678 169.999 137.51 166.217 135.99L32.1916 82.0928C28.4089 80.5727 26.577 76.2716 28.0971 72.4923L46.6606 26.3322C48.1808 22.5495 52.4784 20.7177 56.2611 22.2378Z" fill="white"/>
</mask>
<g mask="url(#mask14_5865_6072)">
<path d="M49.4142 19.4766L197.183 78.9008L173.11 138.756L25.3447 79.3316L49.4142 19.4766Z" fill="#9F9296"/>
</g>
</g>
</g>
</g>
</g>
<mask id="mask15_5865_6072" style="mask-type:luminance" maskUnits="userSpaceOnUse" x="15" y="19" width="165" height="73">
<path d="M15.7227 19.9453H179.88V91.1731H15.7227V19.9453Z" fill="white"/>
</mask>
<g mask="url(#mask15_5865_6072)">
<mask id="mask16_5865_6072" style="mask-type:luminance" maskUnits="userSpaceOnUse" x="15" y="19" width="165" height="73">
<path d="M23.7666 19.9375H171.781C176.226 19.9375 179.83 23.5416 179.83 27.9899V83.1129C179.83 87.5612 176.226 91.1653 171.781 91.1653H23.7666C19.3219 91.1653 15.7178 87.5612 15.7178 83.1129V27.9899C15.7178 23.5416 19.3219 19.9375 23.7666 19.9375Z" fill="white"/>
</mask>
<g mask="url(#mask16_5865_6072)">
<path d="M15.7178 19.9375H179.875V91.1653H15.7178V19.9375Z" fill="white"/>
</g>
</g>
<mask id="mask17_5865_6072" style="mask-type:luminance" maskUnits="userSpaceOnUse" x="15" y="19" width="166" height="73">
<path d="M15.7227 19.9453H180.108V91.068H15.7227V19.9453Z" fill="white"/>
</mask>
<g mask="url(#mask17_5865_6072)">
<mask id="mask18_5865_6072" style="mask-type:luminance" maskUnits="userSpaceOnUse" x="15" y="19" width="165" height="73">
<path d="M23.7666 19.9375H171.777C176.226 19.9375 179.83 23.5416 179.83 27.9899V83.1129C179.83 87.5612 176.226 91.1653 171.777 91.1653H23.7666C19.3219 91.1653 15.7178 87.5612 15.7178 83.1129V27.9899C15.7178 23.5416 19.3219 19.9375 23.7666 19.9375Z" fill="white"/>
</mask>
<g mask="url(#mask18_5865_6072)">
<path d="M23.7666 19.9375H171.777C176.225 19.9375 179.83 23.5416 179.83 27.9899V83.1129C179.83 87.5612 176.225 91.1653 171.777 91.1653H23.7666C19.3219 91.1653 15.7178 87.5612 15.7178 83.1129V27.9899C15.7178 23.5416 19.3219 19.9375 23.7666 19.9375Z" stroke="black" stroke-width="5.36774"/>
</g>
</g>
<mask id="mask19_5865_6072" style="mask-type:luminance" maskUnits="userSpaceOnUse" x="20" y="1" width="176" height="129">
<path d="M20.626 1.79688H195.473V129.121H20.626V1.79688Z" fill="white"/>
</mask>
<g mask="url(#mask19_5865_6072)">
<mask id="mask20_5865_6072" style="mask-type:luminance" maskUnits="userSpaceOnUse" x="18" y="0" width="180" height="131">
<path d="M46.6227 0.125L197.173 65.5631L168.778 130.886L18.2275 65.4475L46.6227 0.125Z" fill="white"/>
</mask>
<g mask="url(#mask20_5865_6072)">
<mask id="mask21_5865_6072" style="mask-type:luminance" maskUnits="userSpaceOnUse" x="20" y="2" width="175" height="127">
<path d="M54.0078 3.34091L189.749 62.3448C193.829 64.1171 195.696 68.8596 193.924 72.9365L171.949 123.492C170.177 127.573 165.434 129.44 161.357 127.667L25.6126 68.6669C21.5357 66.8911 19.6653 62.1487 21.4376 58.0717L43.4126 7.51595C45.1849 3.43898 49.9308 1.56862 54.0078 3.34091Z" fill="white"/>
</mask>
<g mask="url(#mask21_5865_6072)">
<path d="M46.6246 0.140625L197.175 65.5787L168.78 130.901L18.2295 65.4631L46.6246 0.140625Z" fill="white"/>
</g>
</g>
</g>
<mask id="mask22_5865_6072" style="mask-type:luminance" maskUnits="userSpaceOnUse" x="20" y="1" width="176" height="129">
<path d="M20.626 1.79688H195.473V129.121H20.626V1.79688Z" fill="white"/>
</mask>
<g mask="url(#mask22_5865_6072)">
<mask id="mask23_5865_6072" style="mask-type:luminance" maskUnits="userSpaceOnUse" x="18" y="0" width="180" height="131">
<path d="M46.6285 0.125L197.389 65.6542L169.036 130.882L18.2754 65.3529L46.6285 0.125Z" fill="white"/>
</mask>
<g mask="url(#mask23_5865_6072)">
<mask id="mask24_5865_6072" style="mask-type:luminance" maskUnits="userSpaceOnUse" x="17" y="0" width="182" height="133">
<path d="M46.6277 0.140625L198.904 66.3283L170.18 132.411L17.9033 66.2232L46.6277 0.140625Z" fill="white"/>
</mask>
<g mask="url(#mask24_5865_6072)">
<mask id="mask25_5865_6072" style="mask-type:luminance" maskUnits="userSpaceOnUse" x="20" y="2" width="175" height="127">
<path d="M54.0073 3.37216L189.749 62.3761C193.829 64.1484 195.696 68.8908 193.924 72.9678L171.949 123.524C170.176 127.601 165.434 129.471 161.357 127.699L25.6122 68.6947C21.5352 66.9224 19.6648 62.1799 21.4406 58.103L43.4121 7.5472C45.1844 3.47023 49.9304 1.59987 54.0073 3.37216Z" fill="white"/>
</mask>
<g mask="url(#mask25_5865_6072)">
<path d="M54.0082 3.35849L189.75 62.3624C193.83 64.1346 195.697 68.8771 193.925 72.9541L171.95 123.51C170.177 127.587 165.435 129.457 161.358 127.685L25.6131 68.681C21.5361 66.9087 19.6658 62.1663 21.4416 58.0893L43.413 7.53354C45.1853 3.45657 49.9313 1.58621 54.0082 3.35849Z" stroke="black" stroke-width="5.36774"/>
</g>
</g>
</g>
</g>
<mask id="mask26_5865_6072" style="mask-type:luminance" maskUnits="userSpaceOnUse" x="1" y="37" width="174" height="108">
<path d="M1.79199 37.6797H174.846V144.381H1.79199V37.6797Z" fill="white"/>
</mask>
<g mask="url(#mask26_5865_6072)">
<mask id="mask27_5865_6072" style="mask-type:luminance" maskUnits="userSpaceOnUse" x="-1" y="36" width="178" height="110">
<path d="M-0.00195312 76.8025L159.119 36.4531L176.628 105.495L17.5073 145.845L-0.00195312 76.8025Z" fill="white"/>
</mask>
<g mask="url(#mask27_5865_6072)">
<mask id="mask28_5865_6072" style="mask-type:luminance" maskUnits="userSpaceOnUse" x="1" y="38" width="174" height="106">
<path d="M8.45781 74.6643L150.626 38.6126C152.871 38.0417 155.246 38.3885 157.236 39.5723C159.221 40.7562 160.658 42.6791 161.228 44.9242L174.447 97.0561C175.014 99.2977 174.671 101.676 173.487 103.662C172.303 105.651 170.377 107.087 168.135 107.655L25.9635 143.707C23.7219 144.274 21.3472 143.927 19.3577 142.743C17.3718 141.563 15.9357 139.637 15.3648 137.395L2.14622 85.263C1.57881 83.0179 1.92206 80.6432 3.10592 78.6537C4.28978 76.6678 6.21618 75.2317 8.45781 74.6643Z" fill="white"/>
</mask>
<g mask="url(#mask28_5865_6072)">
<path d="M0 76.8025L159.121 36.4531L176.63 105.495L17.5092 145.845L0 76.8025Z" fill="white"/>
</g>
</g>
</g>
<mask id="mask29_5865_6072" style="mask-type:luminance" maskUnits="userSpaceOnUse" x="1" y="37" width="174" height="108">
<path d="M1.79199 37.6797H174.846V144.381H1.79199V37.6797Z" fill="white"/>
</mask>
<g mask="url(#mask29_5865_6072)">
<mask id="mask30_5865_6072" style="mask-type:luminance" maskUnits="userSpaceOnUse" x="-1" y="36" width="178" height="110">
<path d="M-0.00195312 76.8194L159.343 36.4141L176.824 105.355L17.4793 145.76L-0.00195312 76.8194Z" fill="white"/>
</mask>
<g mask="url(#mask30_5865_6072)">
<mask id="mask31_5865_6072" style="mask-type:luminance" maskUnits="userSpaceOnUse" x="-1" y="35" width="180" height="112">
<path d="M-0.00195312 76.7918L160.947 35.9766L178.656 105.824L17.7104 146.636L-0.00195312 76.7918Z" fill="white"/>
</mask>
<g mask="url(#mask31_5865_6072)">
<mask id="mask32_5865_6072" style="mask-type:luminance" maskUnits="userSpaceOnUse" x="1" y="38" width="174" height="106">
<path d="M8.4571 74.6643L150.626 38.6126C152.867 38.0417 155.245 38.3885 157.231 39.5723C159.221 40.7562 160.657 42.6791 161.224 44.9242L174.446 97.0561C175.014 99.2977 174.667 101.672 173.483 103.662C172.299 105.648 170.376 107.084 168.135 107.655L25.9663 143.707C23.7212 144.274 21.3465 143.927 19.357 142.743C17.3711 141.559 15.935 139.637 15.3641 137.395L2.14551 85.263C1.57809 83.0179 1.92484 80.6432 3.1052 78.6537C4.28907 76.6678 6.21547 75.2317 8.4571 74.6643Z" fill="white"/>
</mask>
<g mask="url(#mask32_5865_6072)">
<path d="M8.45552 74.6616L150.624 38.6099C152.865 38.039 155.244 38.3858 157.23 39.5696C159.219 40.7535 160.655 42.6764 161.223 44.9215L174.445 97.0534C175.012 99.295 174.665 101.67 173.481 103.659C172.298 105.645 170.375 107.081 168.133 107.652L25.9647 143.704C23.7196 144.271 21.3449 143.924 19.3554 142.741C17.3695 141.557 15.9334 139.634 15.3625 137.392L2.14393 85.2603C1.57652 83.0152 1.92327 80.6404 3.10363 78.651C4.28749 76.6651 6.21389 75.229 8.45552 74.6616Z" stroke="black" stroke-width="5.36774"/>
</g>
</g>
</g>
</g>
</g>
<defs>
<clipPath id="clip0_5865_6072">
<rect width="197.712" height="154" fill="white"/>
</clipPath>
</defs>
</svg>
