<svg width="130" height="160" viewBox="0 0 130 160" fill="none" xmlns="http://www.w3.org/2000/svg">
<g clip-path="url(#clip0_2494_5190)">
<mask id="mask0_2494_5190" style="mask-type:luminance" maskUnits="userSpaceOnUse" x="0" y="0" width="99" height="147">
<path d="M0.347656 0.570312H98.4174V146.785H0.347656V0.570312Z" fill="white"/>
</mask>
<g mask="url(#mask0_2494_5190)">
<path d="M101.633 76.3679V0.570312H0.347656V147.112H124.421" fill="#2997BB"/>
</g>
<path d="M10.4746 10.6797H25.6687V25.8374H10.4746V10.6797Z" fill="#F4EFEC"/>
<path d="M76.3145 116.795H91.5056V131.956H76.3145V116.795Z" fill="#F4EFEC"/>
<path d="M66.1834 119.322H10.4747C10.1406 119.322 9.81848 119.257 9.50827 119.129C9.19807 119.001 8.92365 118.819 8.68503 118.581C8.4494 118.346 8.26447 118.072 8.13621 117.763C8.00795 117.453 7.94531 117.132 7.94531 116.795C7.94531 116.459 8.00795 116.138 8.13621 115.828C8.26447 115.519 8.4494 115.245 8.68503 115.01C8.92365 114.772 9.19807 114.59 9.50827 114.462C9.81848 114.334 10.1406 114.269 10.4747 114.269H66.1834C66.5205 114.269 66.8426 114.334 67.1528 114.462C67.463 114.59 67.7374 114.772 67.9731 115.01C68.2117 115.245 68.3937 115.519 68.5219 115.828C68.6502 116.138 68.7158 116.459 68.7158 116.795C68.7158 117.132 68.6502 117.453 68.5219 117.763C68.3937 118.072 68.2117 118.346 67.9731 118.581C67.7374 118.819 67.463 119.001 67.1528 119.129C66.8426 119.257 66.5205 119.322 66.1834 119.322Z" fill="#F4EFEC"/>
<path d="M91.504 58.6854H10.4747C10.1406 58.6854 9.81848 58.6199 9.50827 58.492C9.19807 58.364 8.92365 58.1824 8.68503 57.9443C8.4494 57.7062 8.26447 57.4354 8.13621 57.1259C8.00795 56.8164 7.94531 56.492 7.94531 56.1586C7.94531 55.8223 8.00795 55.5009 8.13621 55.1914C8.26447 54.8818 8.4494 54.608 8.68503 54.3699C8.92365 54.1348 9.19807 53.9503 9.50827 53.8223C9.81848 53.6943 10.1406 53.6318 10.4747 53.6318H91.504C91.841 53.6318 92.1631 53.6943 92.4734 53.8223C92.7836 53.9503 93.058 54.1348 93.2966 54.3699C93.5322 54.608 93.7172 54.8818 93.8454 55.1914C93.9737 55.5009 94.0363 55.8223 94.0363 56.1586C94.0363 56.492 93.9737 56.8164 93.8454 57.1259C93.7172 57.4354 93.5322 57.7062 93.2966 57.9443C93.058 58.1824 92.7836 58.364 92.4734 58.492C92.1631 58.6199 91.841 58.6854 91.504 58.6854Z" fill="#F4EFEC"/>
<path d="M91.504 89.0038H10.4747C10.1406 89.0038 9.81848 88.9383 9.50827 88.8103C9.19807 88.6823 8.92365 88.5008 8.68503 88.2627C8.4494 88.0276 8.26447 87.7538 8.13621 87.4442C8.00795 87.1347 7.94531 86.8103 7.94531 86.477C7.94531 86.1407 8.00795 85.8192 8.13621 85.5097C8.26447 85.2002 8.4494 84.9264 8.68503 84.6913C8.92365 84.4532 9.19807 84.2716 9.50827 84.1436C9.81848 84.0127 10.1406 83.9502 10.4747 83.9502H91.504C91.841 83.9502 92.1631 84.0127 92.4734 84.1436C92.7836 84.2716 93.058 84.4532 93.2966 84.6913C93.5322 84.9264 93.7172 85.2002 93.8454 85.5097C93.9737 85.8192 94.0363 86.1407 94.0363 86.477C94.0363 86.8103 93.9737 87.1347 93.8454 87.4442C93.7172 87.7538 93.5322 88.0276 93.2966 88.2627C93.058 88.5008 92.7836 88.6823 92.4734 88.8103C92.1631 88.9383 91.841 89.0038 91.504 89.0038Z" fill="#F4EFEC"/>
<path d="M45.9274 28.3631H35.798C35.4609 28.3631 35.1388 28.3006 34.8286 28.1726C34.5184 28.0446 34.244 27.8601 34.0083 27.625C33.7697 27.3869 33.5878 27.1131 33.4595 26.8036C33.3283 26.494 33.2656 26.1726 33.2656 25.8363C33.2656 25.503 33.3283 25.1815 33.4595 24.872C33.5878 24.5625 33.7697 24.2887 34.0083 24.0506C34.244 23.8155 34.5184 23.631 34.8286 23.503C35.1388 23.375 35.4609 23.3125 35.798 23.3125H45.9274C46.2615 23.3125 46.5836 23.375 46.8938 23.503C47.204 23.631 47.4784 23.8155 47.717 24.0506C47.9527 24.2887 48.1376 24.5625 48.2659 24.872C48.3941 25.1815 48.4568 25.503 48.4568 25.8363C48.4568 26.1726 48.3941 26.494 48.2659 26.8036C48.1376 27.1131 47.9527 27.3869 47.717 27.625C47.4784 27.8601 47.204 28.0446 46.8938 28.1726C46.5836 28.3006 46.2615 28.3631 45.9274 28.3631Z" fill="#F4EFEC"/>
<path d="M68.7145 28.3631H58.5851C58.251 28.3631 57.9259 28.3006 57.6157 28.1726C57.3055 28.0446 57.0341 27.8601 56.7954 27.625C56.5568 27.3869 56.3749 27.1131 56.2466 26.8036C56.1184 26.494 56.0527 26.1726 56.0527 25.8363C56.0527 25.503 56.1184 25.1815 56.2466 24.872C56.3749 24.5625 56.5568 24.2887 56.7954 24.0506C57.0341 23.8155 57.3055 23.631 57.6157 23.503C57.9259 23.375 58.251 23.3125 58.5851 23.3125H68.7145C69.0515 23.3125 69.3737 23.375 69.6839 23.503C69.9941 23.631 70.2685 23.8155 70.5041 24.0506C70.7428 24.2887 70.9247 24.5625 71.053 24.872C71.1812 25.1815 71.2468 25.503 71.2468 25.8363C71.2468 26.1726 71.1812 26.494 71.053 26.8036C70.9247 27.1131 70.7428 27.3869 70.5041 27.625C70.2685 27.8601 69.9941 28.0446 69.6839 28.1726C69.3737 28.3006 69.0515 28.3631 68.7145 28.3631Z" fill="#F4EFEC"/>
<path d="M91.5045 28.3631H81.3781C81.041 28.3631 80.7189 28.3006 80.4087 28.1726C80.0985 28.0446 79.824 27.8601 79.5854 27.625C79.3498 27.3869 79.1649 27.1131 79.0366 26.8036C78.9083 26.494 78.8457 26.1726 78.8457 25.8363C78.8457 25.503 78.9083 25.1815 79.0366 24.872C79.1649 24.5625 79.3498 24.2887 79.5854 24.0506C79.824 23.8155 80.0985 23.631 80.4087 23.503C80.7189 23.375 81.041 23.3125 81.3781 23.3125H91.5045C91.8415 23.3125 92.1637 23.375 92.4739 23.503C92.7841 23.631 93.0585 23.8155 93.2971 24.0506C93.5327 24.2887 93.7177 24.5625 93.8459 24.872C93.9742 25.1815 94.0368 25.503 94.0368 25.8363C94.0368 26.1726 93.9742 26.494 93.8459 26.8036C93.7177 27.1131 93.5327 27.3869 93.2971 27.625C93.0585 27.8601 92.7841 28.0446 92.4739 28.1726C92.1637 28.3006 91.8415 28.3631 91.5045 28.3631Z" fill="#F4EFEC"/>
<mask id="mask1_2494_5190" style="mask-type:luminance" maskUnits="userSpaceOnUse" x="30" y="13" width="99" height="147">
<path d="M30.7227 13.2021H128.792V159.416H30.7227V13.2021Z" fill="white"/>
</mask>
<g mask="url(#mask1_2494_5190)">
<path d="M132.008 88.9998V13.2021H30.7227V159.747H154.799" fill="#7DB40A"/>
</g>
<path d="M40.8516 23.3105H56.0427V38.4713H40.8516V23.3105Z" fill="#F4EFEC"/>
<path d="M106.688 129.426H121.879V144.586H106.688V129.426Z" fill="#F4EFEC"/>
<path d="M96.5584 131.952H40.8527C40.5156 131.952 40.1935 131.89 39.8833 131.762C39.5731 131.634 39.2987 131.449 39.06 131.214C38.8244 130.976 38.6395 130.702 38.5112 130.392C38.3829 130.083 38.3203 129.762 38.3203 129.425C38.3203 129.092 38.3829 128.767 38.5112 128.458C38.6395 128.148 38.8244 127.878 39.06 127.64C39.2987 127.401 39.5731 127.22 39.8833 127.092C40.1935 126.964 40.5156 126.898 40.8527 126.898H96.5584C96.8955 126.898 97.2176 126.964 97.5278 127.092C97.838 127.22 98.1124 127.401 98.3481 127.64C98.5867 127.878 98.7687 128.148 98.8969 128.458C99.0281 128.767 99.0908 129.092 99.0908 129.425C99.0908 129.762 99.0281 130.083 98.8969 130.392C98.7687 130.702 98.5867 130.976 98.3481 131.214C98.1124 131.449 97.838 131.634 97.5278 131.762C97.2176 131.89 96.8955 131.952 96.5584 131.952Z" fill="#F4EFEC"/>
<path d="M121.879 71.3143H40.8527C40.5156 71.3143 40.1935 71.2488 39.8833 71.1209C39.5731 70.9929 39.2987 70.8113 39.06 70.5732C38.8244 70.3381 38.6395 70.0643 38.5112 69.7548C38.3829 69.4453 38.3203 69.1238 38.3203 68.7875C38.3203 68.4512 38.3829 68.1298 38.5112 67.8203C38.6395 67.5107 38.8244 67.2369 39.06 67.0018C39.2987 66.7637 39.5731 66.5822 39.8833 66.4542C40.1935 66.3262 40.5156 66.2607 40.8527 66.2607H121.879C122.216 66.2607 122.538 66.3262 122.848 66.4542C123.159 66.5822 123.433 66.7637 123.672 67.0018C123.907 67.2369 124.092 67.5107 124.22 67.8203C124.349 68.1298 124.411 68.4512 124.411 68.7875C124.411 69.1238 124.349 69.4453 124.22 69.7548C124.092 70.0643 123.907 70.3381 123.672 70.5732C123.433 70.8113 123.159 70.9929 122.848 71.1209C122.538 71.2488 122.216 71.3143 121.879 71.3143Z" fill="#F4EFEC"/>
<path d="M121.879 101.633H40.8527C40.5156 101.633 40.1935 101.57 39.8833 101.439C39.5731 101.311 39.2987 101.13 39.06 100.892C38.8244 100.656 38.6395 100.383 38.5112 100.073C38.3829 99.7636 38.3203 99.4422 38.3203 99.1059C38.3203 98.7726 38.3829 98.4481 38.5112 98.1386C38.6395 97.8291 38.8244 97.5553 39.06 97.3202C39.2987 97.0821 39.5731 96.9005 39.8833 96.7726C40.1935 96.6446 40.5156 96.5791 40.8527 96.5791H121.879C122.216 96.5791 122.538 96.6446 122.848 96.7726C123.159 96.9005 123.433 97.0821 123.672 97.3202C123.907 97.5553 124.092 97.8291 124.22 98.1386C124.349 98.4481 124.411 98.7726 124.411 99.1059C124.411 99.4422 124.349 99.7636 124.22 100.073C124.092 100.383 123.907 100.656 123.672 100.892C123.433 101.13 123.159 101.311 122.848 101.439C122.538 101.57 122.216 101.633 121.879 101.633Z" fill="#F4EFEC"/>
<path d="M76.3024 40.9979H66.173C65.8359 40.9979 65.5138 40.9324 65.2036 40.8045C64.8934 40.6765 64.619 40.4949 64.3833 40.2568C64.1447 40.0187 63.9628 39.7479 63.8345 39.4384C63.7062 39.1289 63.6406 38.8045 63.6406 38.4711C63.6406 38.1348 63.7062 37.8134 63.8345 37.5039C63.9628 37.1943 64.1447 36.9205 64.3833 36.6824C64.619 36.4473 64.8934 36.2658 65.2036 36.1348C65.5138 36.0068 65.8359 35.9443 66.173 35.9443H76.3024C76.6364 35.9443 76.9616 36.0068 77.2718 36.1348C77.582 36.2658 77.8534 36.4473 78.092 36.6824C78.3306 36.9205 78.5126 37.1943 78.6409 37.5039C78.7691 37.8134 78.8347 38.1348 78.8347 38.4711C78.8347 38.8045 78.7691 39.1289 78.6409 39.4384C78.5126 39.7479 78.3306 40.0187 78.092 40.2568C77.8534 40.4949 77.582 40.6765 77.2718 40.8045C76.9616 40.9324 76.6364 40.9979 76.3024 40.9979Z" fill="#F4EFEC"/>
<path d="M99.0895 40.9979H88.9601C88.626 40.9979 88.3009 40.9324 87.9907 40.8045C87.6805 40.6765 87.4091 40.4949 87.1704 40.2568C86.9318 40.0187 86.7499 39.7479 86.6216 39.4384C86.4934 39.1289 86.4277 38.8045 86.4277 38.4711C86.4277 38.1348 86.4934 37.8134 86.6216 37.5039C86.7499 37.1943 86.9318 36.9205 87.1704 36.6824C87.4091 36.4473 87.6805 36.2658 87.9907 36.1348C88.3009 36.0068 88.626 35.9443 88.9601 35.9443H99.0895C99.4265 35.9443 99.7487 36.0068 100.059 36.1348C100.369 36.2658 100.644 36.4473 100.879 36.6824C101.118 36.9205 101.3 37.1943 101.428 37.5039C101.556 37.8134 101.622 38.1348 101.622 38.4711C101.622 38.8045 101.556 39.1289 101.428 39.4384C101.3 39.7479 101.118 40.0187 100.879 40.2568C100.644 40.4949 100.369 40.6765 100.059 40.8045C99.7487 40.9324 99.4265 40.9979 99.0895 40.9979Z" fill="#F4EFEC"/>
<path d="M121.878 40.9979H111.751C111.414 40.9979 111.092 40.9324 110.782 40.8045C110.472 40.6765 110.197 40.4949 109.958 40.2568C109.723 40.0187 109.541 39.7479 109.41 39.4384C109.281 39.1289 109.219 38.8045 109.219 38.4711C109.219 38.1348 109.281 37.8134 109.41 37.5039C109.541 37.1943 109.723 36.9205 109.958 36.6824C110.197 36.4473 110.472 36.2658 110.782 36.1348C111.092 36.0068 111.414 35.9443 111.751 35.9443H121.878C122.215 35.9443 122.537 36.0068 122.847 36.1348C123.157 36.2658 123.432 36.4473 123.67 36.6824C123.906 36.9205 124.091 37.1943 124.219 37.5039C124.347 37.8134 124.41 38.1348 124.41 38.4711C124.41 38.8045 124.347 39.1289 124.219 39.4384C124.091 39.7479 123.906 40.0187 123.67 40.2568C123.432 40.4949 123.157 40.6765 122.847 40.8045C122.537 40.9324 122.215 40.9979 121.878 40.9979Z" fill="#F4EFEC"/>
<mask id="mask2_2494_5190" style="mask-type:luminance" maskUnits="userSpaceOnUse" x="29" y="60" width="101" height="100">
<path d="M29.7793 60.9512H129.045V159.648H29.7793V60.9512Z" fill="white"/>
</mask>
<g mask="url(#mask2_2494_5190)">
<mask id="mask3_2494_5190" style="mask-type:luminance" maskUnits="userSpaceOnUse" x="-13" y="-17" width="156" height="193">
<path d="M143 -16.0029H-13V175.997H143V-16.0029Z" fill="black" fill-opacity="0.46"/>
</mask>
<g mask="url(#mask3_2494_5190)">
<mask id="mask4_2494_5190" style="mask-type:luminance" maskUnits="userSpaceOnUse" x="29" y="60" width="101" height="100">
<path d="M129.053 60.9512H29.7871V159.999H129.053V60.9512Z" fill="white"/>
</mask>
<g mask="url(#mask4_2494_5190)">
<mask id="mask5_2494_5190" style="mask-type:luminance" maskUnits="userSpaceOnUse" x="30" y="61" width="99" height="99">
<path d="M30.8262 61.6816H128.896V159.536H30.8262V61.6816Z" fill="white"/>
</mask>
<g mask="url(#mask5_2494_5190)">
<path d="M128.895 61.585V159.537H30.7266L128.895 61.585Z" fill="#60A244"/>
</g>
<mask id="mask6_2494_5190" style="mask-type:luminance" maskUnits="userSpaceOnUse" x="30" y="61" width="99" height="99">
<path d="M30.8262 61.6816H128.896V159.536H30.8262V61.6816Z" fill="white"/>
</mask>
<g mask="url(#mask6_2494_5190)">
<mask id="mask7_2494_5190" style="mask-type:luminance" maskUnits="userSpaceOnUse" x="30" y="61" width="99" height="99">
<path d="M32.3442 158.87L128.222 63.203V158.87H32.3442ZM30.7246 159.539H128.893V61.5869L30.7246 159.539Z" fill="white"/>
</mask>
<g mask="url(#mask7_2494_5190)">
<path d="M128.892 159.538V61.6836H30.8223V159.538H128.892Z" fill="url(#paint0_linear_2494_5190)"/>
</g>
</g>
</g>
</g>
</g>
<mask id="mask8_2494_5190" style="mask-type:luminance" maskUnits="userSpaceOnUse" x="0" y="0" width="32" height="148">
<path d="M0 0.351562H31.3069V147.81H0V0.351562Z" fill="white"/>
</mask>
<g mask="url(#mask8_2494_5190)">
<mask id="mask9_2494_5190" style="mask-type:luminance" maskUnits="userSpaceOnUse" x="-13" y="-17" width="156" height="193">
<path d="M143 -16.002H-13V175.998H143V-16.002Z" fill="black" fill-opacity="0.67"/>
</mask>
<g mask="url(#mask9_2494_5190)">
<mask id="mask10_2494_5190" style="mask-type:luminance" maskUnits="userSpaceOnUse" x="0" y="-1" width="32" height="149">
<path d="M31.3069 -0.000976562H0V147.809H31.3069V-0.000976562Z" fill="white"/>
</mask>
<g mask="url(#mask10_2494_5190)">
<mask id="mask11_2494_5190" style="mask-type:luminance" maskUnits="userSpaceOnUse" x="0" y="0" width="31" height="147">
<path d="M0.34375 0.570312H30.7171V146.913H0.34375V0.570312Z" fill="white"/>
</mask>
<g mask="url(#mask11_2494_5190)">
<path d="M0.34375 0.570312H30.7171V146.898H0.34375V0.570312Z" fill="#32849F"/>
</g>
</g>
</g>
</g>
</g>
<defs>
<linearGradient id="paint0_linear_2494_5190" x1="128.892" y1="110.563" x2="30.8215" y2="110.563" gradientUnits="userSpaceOnUse">
<stop stop-color="#386272"/>
<stop offset="0.00390625" stop-color="#396272"/>
<stop offset="0.0078125" stop-color="#396272"/>
<stop offset="0.0117187" stop-color="#3A6272"/>
<stop offset="0.015625" stop-color="#3A6272"/>
<stop offset="0.0195312" stop-color="#3B6372"/>
<stop offset="0.0234375" stop-color="#3B6372"/>
<stop offset="0.03125" stop-color="#3C6372"/>
<stop offset="0.0351562" stop-color="#3D6372"/>
<stop offset="0.0390625" stop-color="#3D6372"/>
<stop offset="0.0429688" stop-color="#3E6372"/>
<stop offset="0.046875" stop-color="#3E6372"/>
<stop offset="0.0507813" stop-color="#3F6472"/>
<stop offset="0.0546875" stop-color="#3F6472"/>
<stop offset="0.0585938" stop-color="#406472"/>
<stop offset="0.0625" stop-color="#406472"/>
<stop offset="0.0703125" stop-color="#416472"/>
<stop offset="0.0742188" stop-color="#426472"/>
<stop offset="0.078125" stop-color="#426572"/>
<stop offset="0.0820312" stop-color="#436572"/>
<stop offset="0.0859375" stop-color="#436572"/>
<stop offset="0.0898438" stop-color="#446572"/>
<stop offset="0.09375" stop-color="#446572"/>
<stop offset="0.101563" stop-color="#456572"/>
<stop offset="0.105469" stop-color="#466573"/>
<stop offset="0.109375" stop-color="#466673"/>
<stop offset="0.113281" stop-color="#476673"/>
<stop offset="0.117188" stop-color="#476673"/>
<stop offset="0.121094" stop-color="#486673"/>
<stop offset="0.125" stop-color="#486673"/>
<stop offset="0.132812" stop-color="#496673"/>
<stop offset="0.136719" stop-color="#4A6673"/>
<stop offset="0.140625" stop-color="#4A6773"/>
<stop offset="0.144531" stop-color="#4B6773"/>
<stop offset="0.148438" stop-color="#4B6773"/>
<stop offset="0.152344" stop-color="#4C6773"/>
<stop offset="0.15625" stop-color="#4C6773"/>
<stop offset="0.160156" stop-color="#4D6773"/>
<stop offset="0.164062" stop-color="#4D6773"/>
<stop offset="0.171875" stop-color="#4E6773"/>
<stop offset="0.175781" stop-color="#4F6873"/>
<stop offset="0.179687" stop-color="#4F6873"/>
<stop offset="0.183594" stop-color="#506873"/>
<stop offset="0.1875" stop-color="#506873"/>
<stop offset="0.191406" stop-color="#516873"/>
<stop offset="0.195312" stop-color="#516873"/>
<stop offset="0.203125" stop-color="#526973"/>
<stop offset="0.207031" stop-color="#536973"/>
<stop offset="0.210938" stop-color="#536973"/>
<stop offset="0.214844" stop-color="#546973"/>
<stop offset="0.21875" stop-color="#546973"/>
<stop offset="0.222656" stop-color="#556973"/>
<stop offset="0.226562" stop-color="#556973"/>
<stop offset="0.234375" stop-color="#566A73"/>
<stop offset="0.238281" stop-color="#576A73"/>
<stop offset="0.242188" stop-color="#576A73"/>
<stop offset="0.246094" stop-color="#586A73"/>
<stop offset="0.25" stop-color="#586A73"/>
<stop offset="0.253906" stop-color="#596A73"/>
<stop offset="0.257812" stop-color="#596A73"/>
<stop offset="0.261719" stop-color="#5A6B73"/>
<stop offset="0.265625" stop-color="#5A6B73"/>
<stop offset="0.273437" stop-color="#5B6B73"/>
<stop offset="0.277344" stop-color="#5C6B73"/>
<stop offset="0.28125" stop-color="#5C6B73"/>
<stop offset="0.285156" stop-color="#5D6B73"/>
<stop offset="0.289062" stop-color="#5D6B73"/>
<stop offset="0.292969" stop-color="#5E6C73"/>
<stop offset="0.296875" stop-color="#5E6C73"/>
<stop offset="0.304687" stop-color="#5F6C74"/>
<stop offset="0.308594" stop-color="#606C74"/>
<stop offset="0.3125" stop-color="#606C74"/>
<stop offset="0.316406" stop-color="#616C74"/>
<stop offset="0.320312" stop-color="#616D74"/>
<stop offset="0.324219" stop-color="#626D74"/>
<stop offset="0.328125" stop-color="#626D74"/>
<stop offset="0.335938" stop-color="#636D74"/>
<stop offset="0.339844" stop-color="#646D74"/>
<stop offset="0.34375" stop-color="#646D74"/>
<stop offset="0.347656" stop-color="#656D74"/>
<stop offset="0.351562" stop-color="#656E74"/>
<stop offset="0.355469" stop-color="#666E74"/>
<stop offset="0.359375" stop-color="#666E74"/>
<stop offset="0.367188" stop-color="#676E74"/>
<stop offset="0.371094" stop-color="#686E74"/>
<stop offset="0.375" stop-color="#686E74"/>
<stop offset="0.378906" stop-color="#696E74"/>
<stop offset="0.382812" stop-color="#696F74"/>
<stop offset="0.386719" stop-color="#6A6F74"/>
<stop offset="0.390625" stop-color="#6A6F74"/>
<stop offset="0.394531" stop-color="#6B6F74"/>
<stop offset="0.398438" stop-color="#6B6F74"/>
<stop offset="0.40625" stop-color="#6C6F74"/>
<stop offset="0.410156" stop-color="#6D7074"/>
<stop offset="0.414062" stop-color="#6D7074"/>
<stop offset="0.417969" stop-color="#6E7074"/>
<stop offset="0.421875" stop-color="#6E7074"/>
<stop offset="0.425781" stop-color="#6F7074"/>
<stop offset="0.429687" stop-color="#6F7074"/>
<stop offset="0.4375" stop-color="#707074"/>
<stop offset="0.441406" stop-color="#717174"/>
<stop offset="0.445312" stop-color="#717174"/>
<stop offset="0.449219" stop-color="#727174"/>
<stop offset="0.453125" stop-color="#727174"/>
<stop offset="0.457031" stop-color="#737174"/>
<stop offset="0.460937" stop-color="#737174"/>
<stop offset="0.46875" stop-color="#747174"/>
<stop offset="0.472656" stop-color="#757274"/>
<stop offset="0.476562" stop-color="#757274"/>
<stop offset="0.480469" stop-color="#767274"/>
<stop offset="0.484375" stop-color="#767274"/>
<stop offset="0.488281" stop-color="#777274"/>
<stop offset="0.492187" stop-color="#777274"/>
<stop offset="0.496094" stop-color="#787275"/>
<stop offset="0.5" stop-color="#787275"/>
<stop offset="0.507813" stop-color="#797375"/>
<stop offset="0.511719" stop-color="#7A7375"/>
<stop offset="0.515625" stop-color="#7A7375"/>
<stop offset="0.519531" stop-color="#7B7375"/>
<stop offset="0.523438" stop-color="#7B7375"/>
<stop offset="0.527344" stop-color="#7C7375"/>
<stop offset="0.53125" stop-color="#7C7475"/>
<stop offset="0.539062" stop-color="#7D7475"/>
<stop offset="0.542969" stop-color="#7E7475"/>
<stop offset="0.546875" stop-color="#7E7475"/>
<stop offset="0.550781" stop-color="#7F7475"/>
<stop offset="0.554688" stop-color="#7F7475"/>
<stop offset="0.558594" stop-color="#807475"/>
<stop offset="0.5625" stop-color="#807575"/>
<stop offset="0.570312" stop-color="#817575"/>
<stop offset="0.574219" stop-color="#827575"/>
<stop offset="0.578125" stop-color="#827575"/>
<stop offset="0.582031" stop-color="#837575"/>
<stop offset="0.585937" stop-color="#837575"/>
<stop offset="0.589844" stop-color="#847575"/>
<stop offset="0.59375" stop-color="#847675"/>
<stop offset="0.597656" stop-color="#857675"/>
<stop offset="0.601562" stop-color="#857675"/>
<stop offset="0.609375" stop-color="#867675"/>
<stop offset="0.613281" stop-color="#877675"/>
<stop offset="0.617188" stop-color="#877675"/>
<stop offset="0.621094" stop-color="#887675"/>
<stop offset="0.625" stop-color="#887775"/>
<stop offset="0.628906" stop-color="#897775"/>
<stop offset="0.632812" stop-color="#897775"/>
<stop offset="0.640625" stop-color="#8A7775"/>
<stop offset="0.644531" stop-color="#8B7775"/>
<stop offset="0.648437" stop-color="#8B7775"/>
<stop offset="0.652344" stop-color="#8C7875"/>
<stop offset="0.65625" stop-color="#8C7875"/>
<stop offset="0.660156" stop-color="#8D7875"/>
<stop offset="0.664063" stop-color="#8D7875"/>
<stop offset="0.671875" stop-color="#8E7875"/>
<stop offset="0.675781" stop-color="#8F7875"/>
<stop offset="0.679688" stop-color="#8F7875"/>
<stop offset="0.683594" stop-color="#907975"/>
<stop offset="0.6875" stop-color="#907975"/>
<stop offset="0.691406" stop-color="#917976"/>
<stop offset="0.695312" stop-color="#917976"/>
<stop offset="0.703125" stop-color="#927976"/>
<stop offset="0.707031" stop-color="#937976"/>
<stop offset="0.710938" stop-color="#937976"/>
<stop offset="0.714844" stop-color="#947A76"/>
<stop offset="0.71875" stop-color="#947A76"/>
<stop offset="0.722656" stop-color="#957A76"/>
<stop offset="0.726563" stop-color="#957A76"/>
<stop offset="0.730469" stop-color="#967A76"/>
<stop offset="0.734375" stop-color="#967A76"/>
<stop offset="0.742188" stop-color="#977A76"/>
<stop offset="0.746094" stop-color="#987B76"/>
<stop offset="0.75" stop-color="#987B76"/>
<stop offset="0.753906" stop-color="#997B76"/>
<stop offset="0.757812" stop-color="#997B76"/>
<stop offset="0.761719" stop-color="#9A7B76"/>
<stop offset="0.765625" stop-color="#9A7B76"/>
<stop offset="0.773438" stop-color="#9B7B76"/>
<stop offset="0.777344" stop-color="#9C7C76"/>
<stop offset="0.78125" stop-color="#9C7C76"/>
<stop offset="0.785156" stop-color="#9D7C76"/>
<stop offset="0.789063" stop-color="#9D7C76"/>
<stop offset="0.792969" stop-color="#9E7C76"/>
<stop offset="0.796875" stop-color="#9E7C76"/>
<stop offset="0.804688" stop-color="#9F7C76"/>
<stop offset="0.808594" stop-color="#9F7D76"/>
<stop offset="0.8125" stop-color="#A07D76"/>
<stop offset="0.816406" stop-color="#A07D76"/>
<stop offset="0.820313" stop-color="#A17D76"/>
<stop offset="0.824219" stop-color="#A17D76"/>
<stop offset="0.828125" stop-color="#A27D76"/>
<stop offset="0.832031" stop-color="#A27D76"/>
<stop offset="0.835938" stop-color="#A37E76"/>
<stop offset="0.84375" stop-color="#A37E76"/>
<stop offset="0.847656" stop-color="#A47E76"/>
<stop offset="0.851562" stop-color="#A57E76"/>
<stop offset="0.855469" stop-color="#A57E76"/>
<stop offset="0.859375" stop-color="#A67E76"/>
<stop offset="0.863281" stop-color="#A67F76"/>
<stop offset="0.867187" stop-color="#A77F76"/>
<stop offset="0.875" stop-color="#A77F76"/>
<stop offset="0.878906" stop-color="#A87F76"/>
<stop offset="0.882813" stop-color="#A97F76"/>
<stop offset="0.886719" stop-color="#A97F77"/>
<stop offset="0.890625" stop-color="#AA7F77"/>
<stop offset="0.894531" stop-color="#AA8077"/>
<stop offset="0.898438" stop-color="#AB8077"/>
<stop offset="0.90625" stop-color="#AB8077"/>
<stop offset="0.910156" stop-color="#AC8077"/>
<stop offset="0.914062" stop-color="#AD8077"/>
<stop offset="0.917969" stop-color="#AD8077"/>
<stop offset="0.921875" stop-color="#AE8077"/>
<stop offset="0.925781" stop-color="#AE8177"/>
<stop offset="0.929688" stop-color="#AF8177"/>
<stop offset="0.933594" stop-color="#AF8177"/>
<stop offset="0.9375" stop-color="#B08177"/>
<stop offset="0.945312" stop-color="#B08177"/>
<stop offset="0.949219" stop-color="#B18177"/>
<stop offset="0.953125" stop-color="#B28177"/>
<stop offset="0.957031" stop-color="#B28277"/>
<stop offset="0.960937" stop-color="#B38277"/>
<stop offset="0.964844" stop-color="#B38277"/>
<stop offset="0.96875" stop-color="#B48277"/>
<stop offset="0.976563" stop-color="#B48277"/>
<stop offset="0.980469" stop-color="#B58277"/>
<stop offset="0.984375" stop-color="#B68377"/>
<stop offset="0.988281" stop-color="#B68377"/>
<stop offset="0.992188" stop-color="#B78377"/>
<stop offset="0.996094" stop-color="#B78377"/>
<stop offset="1" stop-color="#B88377"/>
</linearGradient>
<clipPath id="clip0_2494_5190">
<rect width="130" height="160" fill="white"/>
</clipPath>
</defs>
</svg>
