<?xml version="1.0" encoding="UTF-8"?>
<svg id="Layer_2" data-name="Layer 2" xmlns="http://www.w3.org/2000/svg" xmlns:xlink="http://www.w3.org/1999/xlink" viewBox="0 0 331.07 229.83">
  <defs>
    <style>
      .cls-1 {
        fill: #c9e4e9;
        stroke: #fff;
        stroke-width: 1.92px;
      }

      .cls-1, .cls-2, .cls-3, .cls-4, .cls-5, .cls-6, .cls-7, .cls-8 {
        stroke-miterlimit: 10;
      }

      .cls-9 {
        fill: #b3b3b3;
      }

      .cls-9, .cls-10, .cls-11, .cls-12, .cls-13, .cls-14, .cls-15, .cls-16, .cls-17, .cls-18, .cls-19, .cls-20, .cls-21, .cls-22, .cls-23, .cls-24, .cls-25, .cls-26, .cls-27, .cls-28, .cls-29 {
        stroke-width: 0px;
      }

      .cls-2 {
        stroke: #aed6de;
      }

      .cls-2, .cls-12, .cls-30, .cls-3, .cls-5, .cls-6, .cls-7, .cls-31, .cls-8 {
        fill: none;
      }

      .cls-2, .cls-30, .cls-3, .cls-4, .cls-5, .cls-31 {
        stroke-linecap: round;
      }

      .cls-2, .cls-23, .cls-8 {
        fill-rule: evenodd;
      }

      .cls-2, .cls-8 {
        stroke-width: 1.04px;
      }

      .cls-10 {
        fill: #d75c47;
      }

      .cls-11 {
        fill: #825f40;
      }

      .cls-32 {
        clip-path: url(#clippath);
      }

      .cls-13 {
        fill: #4aa4b6;
      }

      .cls-14 {
        fill: #404041;
      }

      .cls-15 {
        fill: #903992;
      }

      .cls-30 {
        stroke: #b9bbbd;
      }

      .cls-30, .cls-31 {
        stroke-linejoin: round;
        stroke-width: 2.02px;
      }

      .cls-3 {
        stroke: #f5c345;
        stroke-width: 6.55px;
      }

      .cls-33 {
        clip-path: url(#clippath-1);
      }

      .cls-34 {
        clip-path: url(#clippath-3);
      }

      .cls-35 {
        clip-path: url(#clippath-2);
      }

      .cls-16 {
        fill: #ebedee;
      }

      .cls-4 {
        fill: #e7a690;
        stroke: #dd7c62;
        stroke-width: 3.27px;
      }

      .cls-5 {
        stroke-width: 2.23px;
      }

      .cls-5, .cls-8 {
        stroke: #4aa4b6;
      }

      .cls-17 {
        fill: #fcf3e5;
      }

      .cls-18 {
        fill: #88b238;
      }

      .cls-6 {
        stroke: #ccc;
        stroke-width: 5.42px;
      }

      .cls-19 {
        fill: #bc9b72;
      }

      .cls-20, .cls-23 {
        fill: #c7ab87;
      }

      .cls-21 {
        fill: #babcbf;
      }

      .cls-22 {
        fill: #97569b;
      }

      .cls-24 {
        fill: #f5c345;
      }

      .cls-7 {
        stroke: #404041;
        stroke-width: .47px;
      }

      .cls-25 {
        fill: #a78966;
      }

      .cls-26 {
        fill: #4497a3;
      }

      .cls-31 {
        stroke: #e6953e;
      }

      .cls-27 {
        fill: #ccc;
      }

      .cls-8 {
        stroke-dasharray: 0 0 0 0 0 0 2.76 2.07 2.76 2.07 2.76 2.07;
      }

      .cls-28 {
        fill: #fff;
      }

      .cls-29 {
        fill: #efeff0;
      }
    </style>
    <clipPath id="clippath">
      <rect class="cls-12" x="1.02" y="86.96" width="25.36" height="25.88"/>
    </clipPath>
    <clipPath id="clippath-1">
      <rect class="cls-12" x="26.4" y="86.96" width="25.36" height="25.88"/>
    </clipPath>
    <clipPath id="clippath-2">
      <rect class="cls-12" x="51.77" y="86.96" width="25.36" height="25.88"/>
    </clipPath>
    <clipPath id="clippath-3">
      <rect class="cls-12" x="97.19" y="72.32" width="63.88" height="157.52" transform="translate(258.27 302.15) rotate(180)"/>
    </clipPath>
  </defs>
  <g id="Layer_1-2" data-name="Layer 1">
    <g>
      <g>
        <path class="cls-1" d="M228.29,34.86c0,2.95-2.41,5.36-5.36,5.36h-9.01v14.37l-14.32-14.37h-26.93c-2.95,0-5.36-2.41-5.36-5.36V6.32c0-2.95,2.41-5.36,5.36-5.36h50.26c2.95,0,5.36,2.41,5.36,5.36v28.53Z"/>
        <g>
          <path class="cls-1" d="M111.53,54.27c0,2.95,2.41,5.36,5.36,5.36h9.01v14.37s14.32-14.37,14.32-14.37h26.93c2.95,0,5.36-2.41,5.36-5.36v-28.53c0-2.95-2.41-5.36-5.36-5.36h-50.26c-2.95,0-5.36,2.41-5.36,5.36v28.53Z"/>
          <path class="cls-22" d="M146.6,32.58h4.52v18.03h-4.52v-1.9c-1.77,1.66-3.5,2.38-5.57,2.38-2.34,0-4.35-.92-6.04-2.72-1.7-1.8-2.55-4.08-2.55-6.76s.82-5.06,2.45-6.83c1.66-1.8,3.67-2.68,6.01-2.68,2.17,0,4.08.81,5.71,2.44v-1.97ZM141.85,36.28c-1.39,0-2.58.51-3.5,1.49-.92.98-1.39,2.28-1.39,3.8s.48,2.85,1.39,3.87c.95.98,2.11,1.49,3.5,1.49s2.61-.51,3.53-1.49c.95-.98,1.43-2.31,1.43-3.91,0-3.12-2.11-5.26-4.96-5.26Z"/>
        </g>
        <g id="Layer_1-2" data-name="Layer 1-2">
          <g>
            <path class="cls-22" d="M191.92,12.96c-.9-.99-2.74-2.43-4.2-3.39-.43.4-.87.8-1.26,1.2,1.48,1.05,3.28,2.58,4.1,3.58.43-.44.9-.89,1.37-1.39ZM191.3,27.24c-.11-3.53-.27-7.05-.37-10.53-1.87.05-3.78.19-5.65.28.07.6.06,1.22.12,1.78,1.22-.06,2.48-.12,3.74-.18.13,2.96.26,5.87.39,8.78.05,1.17-.79,2.15-1.28,2.51.39.3.95,1.02,1.18,1.43.42-.53,1-1.17,5.31-4.61-.26-.36-.61-1.06-.8-1.57-.88.67-1.76,1.39-2.63,2.1h0ZM205.98,29.08c-2.85-.06-5.69-.07-8.53-.04-.02-1.66-.04-3.32-.06-4.93,2.88-.04,5.81-.03,8.7.06-.02,1.66-.09,3.29-.11,4.95h0v-.04ZM209.86,18.31c.01-.61.03-1.18.05-1.8-2.37-.11-4.74-.14-7.14-.16.03-1.62.05-3.24.04-4.86,2.14-.34,4.2-.67,5.86-1.09-.45-.51-.96-1.07-1.41-1.58-3.18.86-8.81,1.61-13.55,2.17.22.41.57,1.11.66,1.54l6.42-.76c0,1.53,0,3.01-.03,4.55-2.27,0-4.59.02-6.9.07.03.61.01,1.22.04,1.79,2.27-.05,4.53-.1,6.81-.06,0,1.4-.02,2.8-.03,4.2-1.79,0-3.58-.01-5.37.03.07,3.14.13,6.28.2,9.42.61-.03,1.27-.02,1.88,0-.04-.34,0-.66-.03-1,2.84-.03,5.64-.01,8.44.05,0,.31-.01.61-.02.92.66,0,1.31.02,1.98.07.11-3.12.18-6.18.3-9.3-1.8-.05-3.64-.09-5.44-.14,0-1.4.02-2.8.03-4.2,2.36.03,4.73.09,7.06.17l.17-.02Z"/>
            <path class="cls-22" d="M191.92,12.96c-.9-.99-2.74-2.43-4.2-3.39-.43.4-.87.8-1.26,1.2,1.48,1.05,3.28,2.58,4.1,3.58.43-.44.9-.89,1.37-1.39ZM191.3,27.24c-.11-3.53-.27-7.05-.37-10.53-1.87.05-3.78.19-5.65.28.07.6.06,1.22.12,1.78,1.22-.06,2.48-.12,3.74-.18.13,2.96.26,5.87.39,8.78.05,1.17-.79,2.15-1.28,2.51.39.3.95,1.02,1.18,1.43.42-.53,1-1.17,5.31-4.61-.26-.36-.61-1.06-.8-1.57-.88.67-1.76,1.39-2.63,2.1h0ZM205.98,29.08c-2.85-.06-5.69-.07-8.53-.04-.02-1.66-.04-3.32-.06-4.93,2.88-.04,5.81-.03,8.7.06-.02,1.66-.09,3.29-.11,4.95h0v-.04ZM209.86,18.31c.01-.61.03-1.18.05-1.8-2.37-.11-4.74-.14-7.14-.16.03-1.62.05-3.24.04-4.86,2.14-.34,4.2-.67,5.86-1.09-.45-.51-.96-1.07-1.41-1.58-3.18.81-8.81,1.61-13.55,2.17.22.41.57,1.11.66,1.54l6.42-.76c0,1.53,0,3.01-.03,4.55-2.27,0-4.59.02-6.9.07.03.61.01,1.22.04,1.79,2.27-.05,4.53-.1,6.81-.06,0,1.4-.02,2.8-.03,4.2-1.79,0-3.58.03-5.37.03.07,3.14.13,6.28.2,9.42.61-.03,1.27-.02,1.88,0-.04-.34,0-.66-.03-1,2.84-.03,5.64-.01,8.44.05,0,.31-.01.61-.02.92.66,0,1.31.02,1.98.07.11-3.12.18-6.18.3-9.3-1.8-.05-3.64-.09-5.44-.14,0-1.4.02-2.8.03-4.2,2.36.03,4.73.09,7.06.17h0l.17-.02Z"/>
          </g>
        </g>
      </g>
      <g>
        <g>
          <path class="cls-27" d="M77.13,116.79v10.07c0,.65-.35,1.25-.91,1.57l-27.43,15.75c-.56.32-.91.92-.91,1.57v33.31c0,.66-.36,1.27-.94,1.59l-15.36,8.46c-1.22.67-2.7-.22-2.69-1.61l.35-41.74c0-.66-.34-1.26-.91-1.59L.91,128.44c-.56-.32-.91-.92-.91-1.57v-10.07c0-1,.81-1.81,1.81-1.81h73.5c1,0,1.81.81,1.81,1.81Z"/>
          <path class="cls-9" d="M77.13,124.75v10.07c0,.65-.35,1.25-.91,1.57l-27.43,15.75c-.56.32-.91.92-.91,1.57v33.31c0,.66-.36,1.27-.94,1.59l-15.36,8.46c-1.22.67-2.7-.22-2.69-1.61l.35-41.74c0-.66-.34-1.26-.91-1.59L.91,136.4c-.56-.32-.91-.92-.91-1.57v-10.07c0-1,.81-1.81,1.81-1.81h73.5c1,0,1.81.81,1.81,1.81Z"/>
        </g>
        <g class="cls-32">
          <path class="cls-15" d="M26.3,100.37c.11-.11.11-.29,0-.4l-3.9-3.9c-.11-.11-.29-.11-.4,0l-4.79,4.79c-.18.18-.48.05-.48-.2v-13.42c0-.15-.13-.28-.28-.28h-5.51c-.16,0-.28.13-.28.28v13.42c0,.25-.3.37-.48.2l-4.79-4.79c-.11-.11-.29-.11-.4,0l-3.9,3.9c-.11.11-.11.29,0,.4l12.4,12.4c.11.11.29.11.4,0l12.4-12.4"/>
        </g>
        <g class="cls-33">
          <path class="cls-26" d="M51.67,100.37c.11-.11.11-.29,0-.4l-3.9-3.9c-.11-.11-.29-.11-.4,0l-4.79,4.79c-.18.18-.48.05-.48-.2v-13.42c0-.15-.13-.28-.28-.28h-5.52c-.15,0-.28.13-.28.28v13.42c0,.25-.3.37-.48.2l-4.79-4.79c-.11-.11-.29-.11-.4,0l-3.9,3.9c-.11.11-.11.29,0,.4l12.4,12.4c.11.11.29.11.4,0l12.4-12.4"/>
        </g>
        <g class="cls-35">
          <path class="cls-18" d="M77.05,100.37c.11-.11.11-.29,0-.4l-3.9-3.9c-.11-.11-.29-.11-.4,0l-4.79,4.79c-.18.18-.48.05-.48-.2v-13.42c0-.15-.12-.28-.28-.28h-5.52c-.15,0-.28.13-.28.28v13.42c0,.25-.3.37-.48.2l-4.79-4.79c-.11-.11-.29-.11-.4,0l-3.9,3.9c-.11.11-.11.29,0,.4l12.4,12.4c.11.11.29.11.4,0l12.4-12.4"/>
        </g>
      </g>
      <g>
        <g>
          <path class="cls-6" d="M277.81,186.29c-18.85,0-34.12-15.28-34.12-34.12,0-14.81,9.44-27.42,22.63-32.14"/>
          <polygon class="cls-27" points="265.64 128.74 277.81 118.04 262.46 112.85 265.64 128.74"/>
        </g>
        <g>
          <path class="cls-6" d="M283.22,118.04c18.85,0,34.12,15.28,34.12,34.12,0,14.81-9.44,27.42-22.63,32.14"/>
          <polygon class="cls-27" points="295.39 175.59 283.22 186.29 298.58 191.48 295.39 175.59"/>
        </g>
        <g>
          <g>
            <path class="cls-19" d="M314.69,116.87c0-.61-.05-1.21-.15-1.8,0,0,0,0,0-.01h0c-.86-5.2-5.33-9.17-10.73-9.17-6.01,0-10.88,4.92-10.88,10.99,0,.92.11,1.82.33,2.68,0,.15.05.3.13.46,0,0,0,0,0,0,.33,1.13.84,2.18,1.49,3.12,1.21,2.78,1.73,5.12.19,6.8-1.18,1.21-1.91,2.84-1.91,4.64,0,3.73,3.11,6.76,6.95,6.76,1.49,0,2.87-.46,4-1.24,10.29-5.56,11.03-16.24,10.57-23.24Z"/>
            <path class="cls-11" d="M301.56,127.28c-.82.09-1.41.82-1.33,1.64.09.82.82,1.41,1.64,1.33,2.45-.26,4.24-2.46,3.98-4.91-.2-1.93-1.61-3.45-3.4-3.88l-.49-4.7c-.14-1.36.85-2.58,2.21-2.73,1.36-.14,2.58.85,2.73,2.21.09.82.82,1.41,1.64,1.33.82-.09,1.41-.82,1.33-1.64-.31-3-3-5.18-6-4.86-3,.31-5.18,3-4.86,6l.62,5.93c.09.82.82,1.41,1.64,1.33.82-.09,1.55.51,1.64,1.33.09.82-.51,1.55-1.33,1.64Z"/>
          </g>
          <path class="cls-5" d="M318.77,118.6c3.19,3.19,3.19,8.37,0,11.56"/>
          <g>
            <path class="cls-19" d="M300.92,141.3c1.18-.13,2.27-.56,3.19-1.19.99-.54,1.9-1.12,2.72-1.75,0,0-1.32-1.14-2.98-.32-1.3.64-3.05,3.28-2.94,3.26Z"/>
            <path class="cls-11" d="M301.56,127.28c-.82.09-1.41.82-1.33,1.64.09.82.82,1.41,1.64,1.33,2.45-.26,4.24-2.46,3.98-4.91-.2-1.93-1.61-3.45-3.4-3.88l-.49-4.7c-.14-1.36.85-2.58,2.21-2.73,1.36-.14,2.58.85,2.73,2.21.09.82.82,1.41,1.64,1.33.82-.09,1.41-.82,1.33-1.64-.31-3-3-5.18-6-4.86-3,.31-5.18,3-4.86,6l.62,5.93c.09.82.82,1.41,1.64,1.33.82-.09,1.55.51,1.64,1.33.09.82-.51,1.55-1.33,1.64Z"/>
          </g>
          <path class="cls-5" d="M322.97,114.41c5.51,5.51,5.51,14.44,0,19.95"/>
        </g>
        <g>
          <path class="cls-28" d="M282.54,152.37c-5.07,0-9.03,3.59-13.88,9.42,4.18,4.98,7.68,9.43,13.88,9.43s10.75-5.63,13.88-9.32c-3.21-4.33-7.76-9.53-13.88-9.53Z"/>
          <path class="cls-29" d="M268.79,161.94c4.12,4.92,7.62,9.28,13.75,9.28s10.71-5.58,13.84-9.28h-27.59Z"/>
          <path class="cls-13" d="M282.54,156.3c-3.03,0-5.49,2.46-5.49,5.49s2.46,5.49,5.49,5.49,5.49-2.46,5.49-5.49-2.46-5.49-5.49-5.49Z"/>
          <path class="cls-14" d="M282.54,159.28c-1.39,0-2.52,1.13-2.52,2.52s1.12,2.52,2.52,2.52,2.52-1.13,2.52-2.52-1.13-2.52-2.52-2.52Z"/>
          <path class="cls-17" d="M280.76,159.27c-.41,0-.74.33-.74.74s.33.74.74.74.74-.33.74-.74-.33-.74-.74-.74Z"/>
          <path class="cls-28" d="M317.01,152.37c5.07,0,9.03,3.59,13.88,9.42-4.18,4.98-7.68,9.43-13.88,9.43-6.2,0-10.75-5.63-13.88-9.32,3.21-4.33,7.76-9.53,13.88-9.53Z"/>
          <path class="cls-29" d="M330.76,161.94c-4.12,4.92-7.62,9.28-13.75,9.28-6.17,0-10.71-5.58-13.84-9.28h27.59Z"/>
          <path class="cls-13" d="M317.15,156.3c-3.03,0-5.49,2.46-5.49,5.49s2.46,5.49,5.49,5.49,5.49-2.46,5.49-5.49-2.46-5.49-5.49-5.49Z"/>
          <path class="cls-14" d="M317.15,159.28c-1.39,0-2.52,1.13-2.52,2.52s1.12,2.52,2.52,2.52,2.52-1.13,2.52-2.52-1.13-2.52-2.52-2.52Z"/>
          <path class="cls-17" d="M315.37,159.27c-.41,0-.74.33-.74.74s.33.74.74.74.74-.33.74-.74-.33-.74-.74-.74Z"/>
          <path class="cls-7" d="M296.42,161.89c-3.21-4.33-7.76-9.53-13.88-9.53-5.07,0-9.03,3.59-13.88,9.42"/>
          <path class="cls-7" d="M303.13,161.89c3.21-4.33,7.76-9.53,13.88-9.53,5.07,0,9.03,3.59,13.88,9.42"/>
        </g>
        <g>
          <path class="cls-2" d="M220.11,158.17c-.76,4.23.71,7.21,4.43,9.4"/>
          <g>
            <path class="cls-8" d="M219.7,142.2c5.04-12.05,22.55-18.15,36.51-8.36"/>
            <path class="cls-2" d="M260.66,147.33c1.27,5.39-.46,9.25-5.17,12.17"/>
            <path class="cls-2" d="M256.95,162.04c4.11-1.25,6.09-3.92,6.35-8.22"/>
            <path class="cls-2" d="M229.47,167.19c-5.03-2.32-7.01-6.05-6.42-11.57"/>
            <path class="cls-13" d="M257.03,132.35s.06-.07.1-.07c.04,0,.08.03.09.07l.64,2.84s0,.06-.02.08c-.02.02-.05.04-.08.04l-3.07-.08s-.04,0-.06-.02c-.02-.01-.03-.03-.03-.05,0-.04.01-.08.05-.1l2.38-2.71Z"/>
            <path class="cls-13" d="M221.41,142.69s.08.03.09.07c.01.04,0,.08-.05.11l-2.7,1.45s-.06.02-.09,0c-.03-.01-.05-.03-.06-.06l-.72-2.82s0-.04,0-.06c0-.02.02-.03.04-.05.04-.02.09-.02.12.01l3.36,1.34Z"/>
            <path class="cls-23" d="M245.36,151.58l-4.92-1.85-5.33.07-2.15.59c.41,3.31-.04,3.88-.57,4.46-.53.58-1.62.54-2.52-1.7-.9-2.24.78,5.89.78,5.89l3.79,15.81,1.63,6.89c3.65.55,7.45.46,11.26-.39,1.4-.31,2.76-.72,4.07-1.21l-4.24-13.62,1.95-12.51-3.76-2.43Z"/>
            <path class="cls-10" d="M253.79,145.86c.4-.84,1.29-1.25,1.99-.92.7.34.94,1.29.55,2.13-.4.84-.99.61-1.69.28-.7-.34-1.25-.65-.85-1.49Z"/>
            <path class="cls-10" d="M247.98,138.51c.22-.91,1-1.49,1.76-1.31.75.18,1.19,1.07.97,1.97-.22.91-.84.8-1.59.62-.75-.19-1.35-.38-1.14-1.29Z"/>
            <path class="cls-10" d="M240.21,134.35c.22-.91,1-1.49,1.76-1.31.75.18,1.19,1.07.97,1.97-.22.9-.84.8-1.59.62-.75-.19-1.35-.38-1.14-1.29Z"/>
            <path class="cls-10" d="M231.96,137.1c-.1-.93.45-1.74,1.22-1.82.77-.08,1.48.61,1.57,1.54.1.93-.52,1.04-1.3,1.11-.77.08-1.4.09-1.5-.84Z"/>
            <path class="cls-20" d="M245.31,155.36c-.37.08-.77.07-1.16-.05-1.18-.37-1.84-1.64-1.47-2.82l4.17-13.24c.37-1.19,1.64-1.84,2.82-1.47,1.18.37,1.84,1.64,1.47,2.82l-4.17,13.24c-.25.8-.9,1.35-1.66,1.52Z"/>
            <path class="cls-20" d="M240.83,153.15c-.21.05-.44.06-.66.05-1.24-.1-2.16-1.18-2.07-2.42l1.18-15.03c.1-1.24,1.18-2.16,2.42-2.07,1.24.1,2.16,1.18,2.07,2.42l-1.18,15.03c-.08,1.01-.81,1.81-1.75,2.02Z"/>
            <path class="cls-20" d="M235.86,153.84c-.06.01-.12.02-.18.03-1.23.17-2.37-.68-2.54-1.91l-1.9-13.54c-.17-1.23.69-2.36,1.91-2.54,1.23-.17,2.37.68,2.54,1.91l1.9,13.54c.16,1.17-.6,2.26-1.74,2.51Z"/>
            <path class="cls-20" d="M242.38,178.29c-3.83.85-6.42-.88-7.35-2.04-.19-.24-.33-.51-.41-.8l-2.03-7.29-4.34-6.85c-.08-.13-.15-.27-.21-.41l-4.07-10.87c-.44-1.16.15-2.46,1.32-2.89,1.16-.43,2.46.15,2.89,1.32l3.99,10.65,4.39,6.93c.12.19.21.39.27.6l1.94,6.98c.41.26,1.29.6,2.68.28,1.54-.36,2.37-1.41,2.74-2.05l-1.39-5.12c-.12-.44-.1-.91.05-1.34l2.71-7.6c.05-.15.12-.3.21-.44l6.84-10.95c.66-1.05,2.05-1.37,3.1-.72,1.05.66,1.37,2.05.72,3.1l-6.71,10.74-2.39,6.7,1.42,5.23c.12.43.1.88-.04,1.3-.54,1.64-2.47,4.65-6.24,5.52-.03,0-.06.01-.1.02Z"/>
            <path class="cls-10" d="M223.46,148.36s.2.84.37,1.32l.37,1.01.66-.33c-.39-1.42-.96-2.12-1.4-1.99Z"/>
            <path class="cls-25" d="M241.72,163.52c-.11.03-.23-.03-.29-.14-.03-.06-3.11-6.23-7.83-6.85-.14-.02-.24-.15-.22-.29.02-.14.15-.24.29-.22,5,.66,8.1,6.87,8.23,7.13.06.13,0,.28-.12.34-.02,0-.04.02-.06.02Z"/>
            <path class="cls-25" d="M246.95,159.8s-.07,0-.1,0c-.35-.06-8.55-1.59-12.6-6-.1-.1-.09-.27.02-.36.1-.1.27-.09.36.01,3.94,4.28,12.23,5.82,12.32,5.84.14.03.23.16.21.3-.02.11-.1.18-.2.21Z"/>
          </g>
        </g>
      </g>
      <g>
        <g>
          <polygon class="cls-14" points="162.5 206.63 162.5 206.63 164.2 206.73 165.9 206.84 167.59 207.13 169.1 207.42 170.61 207.9 172.02 208.38 173.33 208.95 174.56 209.53 175.59 210.28 176.62 211.05 177.47 211.9 178.22 212.75 178.78 213.6 179.15 214.55 179.43 215.59 179.52 216.53 179.52 216.53 179.42 217.57 179.13 218.51 178.75 219.45 178.18 220.39 177.42 221.24 176.56 221.98 175.52 222.83 174.48 223.48 173.25 224.14 171.93 224.7 170.51 225.16 169 225.53 167.49 225.9 165.79 226.08 164.09 226.26 162.4 226.25 162.4 226.25 160.7 226.24 159 226.04 157.3 225.84 155.8 225.46 154.29 225.07 152.88 224.59 151.56 224.02 150.34 223.35 149.31 222.69 148.27 221.83 147.43 221.07 146.68 220.22 146.12 219.28 145.75 218.33 145.47 217.39 145.38 216.35 145.38 216.35 145.48 215.4 145.77 214.37 146.15 213.43 146.72 212.58 147.48 211.74 148.33 210.89 149.37 210.14 150.42 209.4 151.64 208.84 152.97 208.28 154.38 207.81 155.9 207.35 157.41 207.08 159.11 206.8 160.8 206.72 162.5 206.63 162.5 206.63 162.5 206.63"/>
          <polygon class="cls-16" points="142.03 208.12 181.83 208.34 181.8 212.49 142.01 212.27 142.03 208.12 142.03 208.12"/>
          <polygon class="cls-21" points="141.99 214.54 141.99 214.54 142.08 215.48 142.27 216.33 181.5 216.54 181.5 216.54 181.69 215.7 181.79 214.75 181.8 212.4 142.01 212.18 141.99 214.54 141.99 214.54 141.99 214.54"/>
          <polygon class="cls-16" points="149.03 221.65 174.77 221.79 174.77 221.79 176 221.7 177.13 221.33 178.17 220.86 179.12 220.3 179.88 219.55 180.64 218.61 181.21 217.67 181.59 216.54 142.36 216.33 142.36 216.33 142.73 217.46 143.2 218.41 143.85 219.36 144.7 220.11 145.64 220.69 146.67 221.16 147.8 221.55 149.03 221.65 149.03 221.65 149.03 221.65"/>
          <polygon class="cls-21" points="142.05 203.97 181.85 204.19 181.83 208.34 142.03 208.12 142.05 203.97 142.05 203.97"/>
          <polygon class="cls-21" points="181.91 191.74 181.9 195.72 181.87 200.13 162.88 200.03 142.07 199.92 142.11 195.02 142.12 191.52 153.99 191.58 162.88 191.64 170.06 191.68 181.91 191.74"/>
          <polygon class="cls-16" points="142.07 199.92 181.87 200.14 181.85 204.29 142.05 204.07 142.07 199.92 142.07 199.92"/>
          <path class="cls-24" d="M208.87,125.78l-.11,3.02-.3,2.83-.49,2.63-.67,2.55-.77,2.45-.95,2.44-.95,2.26-1.15,2.26-1.23,2.26-1.24,2.16-2.66,4.42-2.85,4.6-1.34,2.35-1.43,2.44-.48,1.14-.57,1.31-.48,1.6-.48,1.79-.96,3.96-.78,4.05-.68,3.77-.48,3.11-.39,3.02v.85s-.2.75-.2.75l-.19.75-.29.75-.29.66-.47.75-.47.57-.47.56-.57.56-.66.47-.67.38-.66.27-.57.21.02-3.98-11.86-.06c.57-28.65,4.95-49.39,8.11-60.8-1.75-.18-3.35-.87-4.66-1.9-1.55,1.2-3.48,1.9-5.59,1.89-1.16,0-2.27-.23-3.29-.63v-3.89c.79-1.34,1.24-2.89,1.25-4.55,0-1.09-.29-3.12-1.25-4.44-.44-.6-1.01-1.04-1.74-1.21v-36.46h2.67s2.35.21,2.35.21l2.27.3,2.26.39,2.27.58,2.16.58,2.07.76,2.07.87,2.07.95,1.97.95,1.88,1.14,1.88,1.23,1.79,1.24,1.79,1.42,1.59,1.43,1.59,1.51,1.51,1.62,1.5,1.71,1.31,1.7,1.31,1.8,1.12,1.89,1.12,1.89,1.03,1.99.83,2.08.84,2.08.74,2.17,1.1,4.34.37,2.27.27,2.36.17,2.27.08,2.35Z"/>
          <path class="cls-24" d="M165.87,121.8c0,1.66-.46,3.21-1.25,4.55v-8.99c.96,1.32,1.26,3.35,1.25,4.44Z"/>
          <path class="cls-24" d="M181.91,191.74l-.02,3.98-.19.07-.75.18-.75.18h-.85l-9.35-.05-7.12-.04-8.89-.05-8.12-.04h-.85l-.75-.2-.75-.19-.75-.28-.66-.29h0l-.66-.39-.66-.47-.56-.57-.57-.57-.37-.57-.47-.75-.28-.67-.28-.75-.18-.76-.18-.75v-.85s-.35-3.02-.35-3.02l-.23-1.58-.23-1.53-.46-2.75h0s-.17-1.02-.17-1.02l-.74-4.06-.92-3.96-.46-1.79-.46-1.61-.56-1.32-.46-1.14-1.4-2.46-1.4-2.36-2.71-4.64-2.71-4.45-1.22-2.18-1.21-2.27-.38-.76h0s-.74-1.51-.74-1.51l-.94-2.27-.93-2.46-.74-2.45-.07-.21v-.05l-.57-2.29-.46-2.64-.26-2.83-.08-3.02.07-1.55.04-.81.2-2.27.3-2.35.38-2.27.34-1.27s0,0,0,0l.24-.88.58-2.17.77-2.16.86-2.07.87-2.07,1.04-1.98,1.15-1.88,1.14-1.87,1.33-1.79,1.33-1.7,1.52-1.68,1.51-1.6,1.61-1.5,1.61-1.41,1.8-1.4,1.8-1.22,1.89-1.22,1.89-1.12,1.99-.94,2.08-.94,2.07-.83,1.22-.44.87-.31,2.17-.55,2.27-.56,2.27-.36,2.27-.27,2.35-.18,2.05.02v60.28c.37-.24.73-.49,1.08-.77l.67-.53v-8.44c1.02.4,2.13.62,3.29.63,2.11,0,4.04-.69,5.59-1.89,1.31,1.03,2.91,1.72,4.66,1.9-3.16,11.41-7.54,32.15-8.11,60.8l11.86.06Z"/>
          <path class="cls-30" d="M153.99,196.02c.26-48.15-10.62-75.5-10.62-75.5"/>
          <path class="cls-30" d="M181.44,120.73s-1.43,3.48-3.27,10.15"/>
          <path class="cls-30" d="M170.06,191.68c-.03,1.45-.04,2.93-.05,4.43"/>
          <path class="cls-31" d="M162.88,128.47c-.18.16-.35.31-.53.45-.38.3-.78.56-1.21.8-1.07.59-2.28.96-3.55,1.07-.28.03-.56.04-.84.04-.31,0-.6-.02-.9-.05-.6-.06-1.18-.18-1.74-.36-.11-.03-.21-.06-.31-.1-1.03-.36-1.99-.9-2.81-1.59-.02-.02-.04-.04-.06-.05-1.98-1.67-3.23-4.18-3.21-6.97,0-1.54.54-5.67,3.41-5.65,1.54,0,2.46,1.17,2.98,2.5.45,1.15.6,2.42.6,3.2,0,1.19-.22,2.25-.6,3.19-.11.28-.24.55-.38.81-.65,1.21-1.58,2.2-2.74,2.98-.05.04-.11.08-.17.11-1.23.82-2.7,1.43-4.3,1.83-.71.18-1.45.32-2.21.43"/>
          <path class="cls-31" d="M162.88,129.31c-.18-.12-.36-.25-.53-.39-.44-.34-.84-.73-1.21-1.15-1.41-1.61-2.26-3.72-2.25-6.03,0-.45.05-1.11.18-1.83.11-.55.26-1.13.49-1.67.24-.57.56-1.09.99-1.49.18-.16.37-.3.59-.4.33-.18.72-.26,1.16-.26.21,0,.4.03.59.06"/>
          <path class="cls-31" d="M177.04,121.84c-.02,2.91-1.4,5.49-3.54,7.14"/>
          <path class="cls-31" d="M173.5,128.98c-2.12-1.67-3.47-4.27-3.46-7.18,0-1.54.54-5.67,3.4-5.65,2.87.02,3.59,4.02,3.58,5.71"/>
          <path class="cls-31" d="M179.08,130.93c-.31,0-.61-.02-.91-.05"/>
          <line class="cls-3" x1="185.89" y1="68.65" x2="191.67" y2="53.31"/>
          <line class="cls-3" x1="204.65" y1="81.56" x2="217.46" y2="71.32"/>
          <line class="cls-3" x1="216.72" y1="99.27" x2="232.89" y2="96.53"/>
        </g>
        <g>
          <polygon class="cls-14" points="162.99 207.03 162.99 207.03 164.69 207.13 166.38 207.24 168.08 207.53 169.59 207.82 171.09 208.3 172.51 208.78 173.82 209.35 175.05 209.93 176.08 210.68 177.11 211.45 177.96 212.3 178.71 213.15 179.27 214 179.64 214.95 179.92 215.99 180.01 216.93 180.01 216.93 179.91 217.97 179.62 218.91 179.24 219.85 178.67 220.79 177.91 221.64 177.05 222.38 176.01 223.23 174.97 223.88 173.74 224.54 172.42 225.1 171 225.56 169.49 225.93 167.98 226.3 166.28 226.48 164.58 226.66 162.88 226.65 162.88 226.65 161.19 226.64 159.49 226.44 157.79 226.24 156.29 225.86 154.78 225.47 153.37 224.99 152.05 224.42 150.83 223.75 149.79 223.09 148.76 222.23 147.92 221.47 147.17 220.62 146.61 219.68 146.23 218.73 145.96 217.79 145.87 216.75 145.87 216.75 145.97 215.8 146.26 214.77 146.64 213.83 147.21 212.98 147.97 212.14 148.82 211.29 149.86 210.54 150.9 209.8 152.13 209.24 153.46 208.68 154.87 208.21 156.38 207.75 157.9 207.48 159.59 207.2 161.29 207.12 162.99 207.03 162.99 207.03 162.99 207.03"/>
          <polygon class="cls-16" points="142.52 208.52 182.31 208.74 182.29 212.89 142.49 212.67 142.52 208.52 142.52 208.52"/>
          <polygon class="cls-21" points="142.48 214.94 142.48 214.94 142.57 215.88 142.76 216.73 181.99 216.94 181.99 216.94 182.18 216.1 182.28 215.15 182.29 212.8 142.5 212.58 142.48 214.94 142.48 214.94 142.48 214.94"/>
          <polygon class="cls-16" points="149.52 222.05 175.26 222.19 175.26 222.19 176.49 222.1 177.62 221.73 178.66 221.26 179.61 220.7 180.37 219.95 181.13 219.01 181.7 218.07 182.08 216.94 142.85 216.73 142.85 216.73 143.22 217.86 143.69 218.81 144.34 219.76 145.19 220.51 146.13 221.09 147.16 221.56 148.29 221.95 149.52 222.05 149.52 222.05 149.52 222.05"/>
          <polygon class="cls-21" points="142.54 204.37 182.34 204.59 182.31 208.74 142.52 208.52 142.54 204.37 142.54 204.37"/>
          <polygon class="cls-21" points="142.61 191.92 182.41 192.14 182.36 200.54 142.56 200.32 142.61 191.92 142.61 191.92"/>
          <polygon class="cls-16" points="142.56 200.32 182.36 200.54 182.34 204.69 142.54 204.47 142.56 200.32 142.56 200.32"/>
          <polygon class="cls-24" points="209.36 126.18 209.36 126.18 209.28 123.82 209.1 121.55 208.83 119.19 208.47 116.93 207.91 114.76 207.36 112.59 206.62 110.41 205.78 108.33 204.94 106.25 203.91 104.27 202.79 102.38 201.67 100.49 200.36 98.68 199.05 96.98 197.55 95.28 196.05 93.66 194.45 92.15 192.86 90.72 191.08 89.3 189.29 88.06 187.41 86.82 185.53 85.68 183.56 84.73 181.49 83.78 179.42 82.92 177.34 82.15 175.18 81.57 172.92 80.99 170.66 80.6 168.39 80.31 166.04 80.11 163.68 80.09 163.68 80.09 161.32 80.08 158.96 80.26 156.7 80.53 154.43 80.89 152.17 81.45 150 82 147.92 82.75 145.84 83.58 143.76 84.51 141.77 85.45 139.88 86.57 137.99 87.78 136.19 89 134.39 90.4 132.78 91.81 131.17 93.31 129.65 94.91 128.13 96.59 126.8 98.28 125.47 100.07 124.33 101.95 123.19 103.83 122.14 105.8 121.28 107.87 120.42 109.95 119.65 112.11 119.08 114.27 118.5 116.44 118.11 118.7 117.81 121.06 117.61 123.32 117.5 125.68 117.5 125.68 117.58 128.7 117.85 131.53 118.31 134.17 118.95 136.72 119.69 139.18 120.62 141.63 121.56 143.9 122.67 146.17 123.89 148.44 125.1 150.62 127.81 155.06 130.52 159.7 131.92 162.07 133.33 164.53 133.33 164.53 133.79 165.66 134.35 166.98 134.81 168.59 135.27 170.38 136.2 174.35 136.93 178.41 137.57 182.18 138.02 185.3 138.38 188.32 138.38 188.32 138.38 189.17 138.56 189.92 138.75 190.68 139.03 191.43 139.31 192.1 139.77 192.85 140.15 193.42 140.71 193.99 141.27 194.56 141.93 195.03 142.59 195.42 143.25 195.7 144 195.99 144.75 196.18 145.51 196.37 146.36 196.38 179.83 196.56 179.83 196.56 180.68 196.57 181.44 196.38 182.19 196.2 182.95 195.92 183.61 195.64 184.27 195.26 184.94 194.8 185.51 194.23 185.98 193.67 186.46 193.11 186.93 192.35 187.22 191.69 187.5 190.94 187.7 190.19 187.89 189.44 187.89 188.59 187.89 188.59 188.29 185.57 188.78 182.46 189.46 178.69 190.23 174.64 191.2 170.69 191.68 168.9 192.16 167.3 192.73 165.98 193.21 164.85 193.21 164.85 194.64 162.41 195.97 160.06 198.83 155.45 201.49 151.03 202.73 148.87 203.97 146.61 205.11 144.36 206.07 142.1 207.02 139.65 207.79 137.2 208.46 134.66 208.95 132.02 209.25 129.19 209.36 126.18 209.36 126.18 209.36 126.18"/>
          <path class="cls-30" d="M154.48,196.42c.26-48.15-10.62-75.5-10.62-75.5"/>
          <path class="cls-24" d="M166.36,122.19c-.03,5.01-4.11,9.05-9.13,9.03-5.01-.03-9.05-4.11-9.03-9.13,0-1.54.54-5.67,3.41-5.66s3.58,4.01,3.57,5.71c-.03,5.75-4.8,8.58-10.38,9.35"/>
          <path class="cls-24" d="M177.53,122.24c-.03,5.01-4.11,9.05-9.12,9.03s-9.05-4.11-9.03-9.13c0-1.54.54-5.67,3.41-5.66,2.87.02,3.58,4.02,3.57,5.71"/>
          <path class="cls-24" d="M179.56,131.33c-5.01-.03-9.05-4.11-9.03-9.13,0-1.54.54-5.67,3.41-5.66,2.87.02,3.58,4.02,3.57,5.71"/>
          <path class="cls-30" d="M170.49,196.51c.26-48.15,11.44-75.38,11.44-75.38"/>
        </g>
        <g class="cls-34">
          <g>
            <path class="cls-4" d="M144.09,87.71c8.6-3.79,23.18-3.51,20.73,18.43-.73,6.51-.65,8.16-5.06,18.64-4.37,10.4,2.06,18.88,3.52,33.28,1.58,15.6-11.71,39.47-28.11,30.49-9.11-4.99-15.26-16.38-19.01-28.45-9.06-29.18,3.44-61.59,27.92-72.4Z"/>
            <path class="cls-4" d="M124.96,107.93c-3.72-4.74-4.88-11.87-2.46-18.14,3.19-8.27,11.4-11.89,18.33-8.09,6.94,3.8,9.98,13.58,6.79,21.85"/>
            <path class="cls-4" d="M158.9,98.84c6.94,3.8,9.98,13.58,6.79,21.85-3.19,8.27-11.4,11.89-18.33,8.09"/>
            <path class="cls-4" d="M138.13,136.66c3.19-8.27,11.4-11.89,18.33-8.09,6.94,3.8,9.98,13.58,6.79,21.85"/>
            <path class="cls-4" d="M158.72,147.94c6.94,3.8,9.98,13.58,6.79,21.85-3.19,8.27-11.4,11.89-18.33,8.09"/>
            <path class="cls-4" d="M151.43,164.84c2.3,1.09,4.38,2.93,5.97,5.47,4.56,7.3,3.29,17.62-2.83,23.05-6.12,5.43-14.78,3.92-19.34-3.38"/>
            <path class="cls-4" d="M114.44,132.01c-1.48,1.5-2.71,3.4-3.57,5.64-3.03,7.85-.44,17.08,5.78,21.24.64.43,1.15,1.07,1.4,1.88l.17.56c.25.82.21,1.7-.04,2.52-2.44,7.98.63,16.99,7.22,20.6,6.94,3.8,15.15.18,18.33-8.09"/>
            <path class="cls-4" d="M118.01,163.96c2.35-8.66,10.14-13.4,17.41-10.6"/>
            <path class="cls-4" d="M157,157.35c-7.5-1.72-12.4-10.36-10.96-19.3"/>
            <path class="cls-4" d="M116.84,138.27c-1.96-1.08-3.61-2.63-4.9-4.49-3.26-4.72-4.17-11.43-1.89-17.36,3.19-8.27,11.4-11.89,18.33-8.09"/>
            <path class="cls-4" d="M109.95,122.1c4.53,3.85,10.34,3.99,14.88.91"/>
            <path class="cls-4" d="M122.74,158.08c1.39,6.42,5.78,10.97,10.92,12.09"/>
            <path class="cls-4" d="M140.34,87.98c3.19-8.27,11.4-11.89,18.33-8.09s9.98,13.58,6.79,21.85c-3.19,8.27-11.4,11.89-18.33,8.09"/>
            <path class="cls-4" d="M165.97,92.84c-5.5-1.05-10.75,1.91-13.67,7.08"/>
            <path class="cls-4" d="M127.77,147.1c2.16-6.11.99-12.9-2.52-17.5"/>
            <path class="cls-4" d="M142.05,102.84c-4.69,3.56-6.97,9.94-6.27,16.11"/>
          </g>
        </g>
      </g>
    </g>
  </g>
</svg>