<?xml version="1.0" encoding="UTF-8"?>
<svg id="Layer_2" data-name="Layer 2" xmlns="http://www.w3.org/2000/svg" viewBox="0 0 115.57 87.86">
  <defs>
    <style>
      .cls-1 {
        fill: none;
        stroke: #603a17;
        stroke-linecap: round;
        stroke-linejoin: round;
        stroke-width: 1.58px;
      }

      .cls-2 {
        fill: #babcbe;
      }

      .cls-2, .cls-3, .cls-4, .cls-5, .cls-6, .cls-7, .cls-8, .cls-9, .cls-10, .cls-11, .cls-12 {
        stroke-width: 0px;
      }

      .cls-3 {
        fill: #414142;
      }

      .cls-4 {
        fill: #e57f91;
      }

      .cls-5 {
        fill: #f7acbc;
      }

      .cls-6 {
        fill: #0f78ad;
      }

      .cls-7 {
        fill: #c1dde4;
      }

      .cls-8 {
        fill: #754d29;
      }

      .cls-9 {
        fill: #8a5e3c;
      }

      .cls-10 {
        fill: #f1f0f1;
      }

      .cls-11 {
        fill: #85c446;
      }

      .cls-12 {
        fill: #fff;
      }
    </style>
  </defs>
  <g id="Layer_1-2" data-name="Layer 1">
    <g>
      <g>
        <circle class="cls-7" cx="43.93" cy="43.93" r="43.93" transform="translate(-17.08 55.68) rotate(-55.9)"/>
        <path class="cls-11" d="M29.85,60.17c-8.53,0-16.21,3.58-21.65,9.31,7.97,11.13,21,18.39,35.73,18.39s27.76-7.26,35.73-18.39c-5.44-5.73-13.13-9.31-21.65-9.31h-28.15Z"/>
        <path class="cls-6" d="M58.01,60.17h-28.15c-2.96,0-5.81.44-8.51,1.24v2c0,10.15,8.82,18.38,19.7,18.38h6.51c10.88,0,19.7-8.23,19.7-18.38v-1.78c-2.91-.95-6.02-1.47-9.25-1.47Z"/>
        <rect class="cls-9" x="25.19" y="9.33" width="38.23" height="68.35" rx="16.4" ry="16.4"/>
        <path class="cls-8" d="M47.02,8.07h-5.42c-9.06,0-16.4,7.34-16.4,16.4v34.29c0,.24,0,.47.02.71,4.87,4,11.48,7.26,18.73,7.26s14.11-3.06,19.48-7.65c0-.1,0-.21,0-.31V24.48c0-9.06-7.34-16.4-16.4-16.4Z"/>
        <path class="cls-9" d="M84.29,26.55C77.55,10.94,62.02,0,43.93,0S10.31,10.94,3.58,26.55c-.01.42-.03.85-.03,1.27,0,9.08,12.96,33.76,40.39,33.76s40.38-24.68,40.38-33.76c0-.42-.01-.85-.03-1.27Z"/>
        <path class="cls-3" d="M69.45,22.65c0,7.85-11.43,21.94-25.52,21.94s-25.52-14.09-25.52-21.94c0,0,11.43-6.48,25.52-6.48s25.52,6.48,25.52,6.48Z"/>
        <path class="cls-5" d="M43.93,30.56s-15.46-4.86-15.46,3.74c0,1.57.24,3.29.67,5.03,4.17,3.09,9.27,5.25,14.79,5.25s10.61-2.16,14.79-5.25c.44-1.75.67-3.46.67-5.03,0-8.89-15.46-3.74-15.46-3.74Z"/>
        <path class="cls-4" d="M43.93,30.56s-.22-.07-.59-.17c-.02.06-.03.11-.03.17v14.01c.21,0,.42.02.63.02s.42-.01.63-.02v-14.01c0-.07-.02-.12-.04-.18-.37.11-.59.18-.59.18Z"/>
        <path class="cls-10" d="M44.05,16.16c-9.18,0-19.7,2.96-24.46,5.93,2.93-.19,16.6-.67,24.27-.67,6.7,0,20.17.37,24.42.59-7-3.58-14.64-5.84-24.23-5.84Z"/>
        <path class="cls-2" d="M53.71,17.03v4.53c.25,0,.5.01.75.02v-4.4c-.25-.05-.5-.1-.75-.14Z"/>
        <path class="cls-2" d="M43.56,16.17v5.25h.18c.18,0,.37,0,.57,0v-5.25c-.13,0-.25,0-.37,0s-.25,0-.37,0Z"/>
        <path class="cls-2" d="M62.62,19.53v2.27c.25,0,.5.02.75.02v-2c-.25-.1-.5-.2-.75-.3Z"/>
        <path class="cls-2" d="M33.4,21.58c.25,0,.5-.01.75-.02v-4.44c-.25.05-.5.09-.75.14v4.32Z"/>
        <path class="cls-2" d="M24.5,21.86c.24,0,.49-.02.75-.03v-2.38c-.26.09-.5.18-.75.27v2.13Z"/>
        <path class="cls-10" d="M43.93,44.58c5.36,0,10.33-2.04,14.43-4.99-4.85.15-10.4.28-14.35.28-3.67,0-9.36-.11-14.47-.25,4.1,2.94,9.05,4.96,14.39,4.96Z"/>
        <path class="cls-2" d="M36.65,39.79c-.25,0-.5,0-.75-.01v3.29c.25.09.5.18.75.27v-3.55Z"/>
        <path class="cls-2" d="M31.51,40.92v-1.24c-.25,0-.5-.01-.75-.02v.79c.25.16.5.31.75.47Z"/>
        <path class="cls-2" d="M57.1,39.63c-.25,0-.5.02-.75.02v1.26c.25-.15.5-.31.75-.47v-.82Z"/>
        <path class="cls-2" d="M51.96,39.76c-.25,0-.5.01-.75.02v3.55c.25-.09.5-.18.75-.27v-3.3Z"/>
        <path class="cls-2" d="M44.3,44.58v-4.7c-.1,0-.2,0-.3,0-.15,0-.3,0-.45,0v4.71c.12,0,.25,0,.37,0s.25,0,.37,0Z"/>
        <line class="cls-1" x1="46.12" y1="4.23" x2="49.72" y2="3.97"/>
        <line class="cls-1" x1="41.79" y1="4.23" x2="38.19" y2="3.97"/>
      </g>
      <path class="cls-12" d="M107.79,84.94h-39.86c-4.29,0-7.78-3.48-7.78-7.78v-16.98c0-4.29,3.48-7.78,7.78-7.78h2.97s-2.86-7.77-2.86-7.77c-.47-1.28.06-1.69,1.18-.91l12.37,8.68h26.22c4.29,0,7.78,3.48,7.78,7.78v16.98c0,4.29-3.48,7.78-7.78,7.78Z"/>
    </g>
  </g>
</svg>