<svg width="222" height="142" viewBox="0 0 222 142" fill="none" xmlns="http://www.w3.org/2000/svg">
<g clip-path="url(#clip0_5865_6265)">
<mask id="mask0_5865_6265" style="mask-type:luminance" maskUnits="userSpaceOnUse" x="0" y="0" width="75" height="67">
<path d="M0.44043 0H74.2513V66.5176H0.44043V0Z" fill="white"/>
</mask>
<g mask="url(#mask0_5865_6265)">
<mask id="mask1_5865_6265" style="mask-type:luminance" maskUnits="userSpaceOnUse" x="0" y="0" width="75" height="67">
<path d="M8.62858 0H65.9557C68.1279 0 70.2108 1.00795 71.7465 2.80279C73.2822 4.59902 74.1447 7.03339 74.1447 9.57202V56.9456C74.1447 59.4842 73.2822 61.9186 71.7465 63.7134C70.2108 65.5082 68.1279 66.5176 65.9557 66.5176H8.62858C6.45645 66.5176 4.37353 65.5082 2.83781 63.7134C1.3021 61.9186 0.438477 59.4842 0.438477 56.9456V9.57202C0.438477 7.03339 1.3021 4.59902 2.83781 2.80279C4.37353 1.00795 6.45645 0 8.62858 0Z" fill="white"/>
</mask>
<g mask="url(#mask1_5865_6265)">
<path d="M0.438477 0H74.2493V66.5176H0.438477V0Z" fill="white"/>
</g>
</g>
<mask id="mask2_5865_6265" style="mask-type:luminance" maskUnits="userSpaceOnUse" x="0" y="0" width="75" height="67">
<path d="M0.445312 0H74.1479V66.4689H0.445312V0Z" fill="white"/>
</mask>
<g mask="url(#mask2_5865_6265)">
<mask id="mask3_5865_6265" style="mask-type:luminance" maskUnits="userSpaceOnUse" x="0" y="0" width="75" height="67">
<path d="M8.63423 0H65.959C68.1311 0 70.2141 1.00795 71.7498 2.80279C73.2855 4.59763 74.1479 7.032 74.1479 9.57064V56.9428C74.1479 59.4814 73.2855 61.9158 71.7498 63.7106C70.2141 65.5055 68.1311 66.5134 65.959 66.5134H8.63423C6.4621 66.5134 4.37918 65.5055 2.84346 63.7106C1.30774 61.9158 0.445312 59.4814 0.445312 56.9428V9.57064C0.445312 7.032 1.30774 4.59763 2.84346 2.80279C4.37918 1.00795 6.4621 0 8.63423 0Z" fill="white"/>
</mask>
<g mask="url(#mask3_5865_6265)">
<path d="M8.63423 0H65.959C68.1312 0 70.2141 1.00795 71.7498 2.80279C73.2855 4.59763 74.1479 7.032 74.1479 9.57064V56.9428C74.1479 59.4814 73.2855 61.9158 71.7498 63.7106C70.2141 65.5055 68.1312 66.5134 65.959 66.5134H8.63423C6.4621 66.5134 4.37918 65.5055 2.84346 63.7106C1.30774 61.9158 0.445312 59.4814 0.445312 56.9428V9.57064C0.445312 7.032 1.30774 4.59763 2.84346 2.80279C4.37918 1.00795 6.4621 0 8.63423 0Z" stroke="#0073BE" stroke-width="7.63941"/>
</g>
</g>
<mask id="mask4_5865_6265" style="mask-type:luminance" maskUnits="userSpaceOnUse" x="74" y="0" width="74" height="67">
<path d="M74.0498 0H147.861V66.5176H74.0498V0Z" fill="white"/>
</mask>
<g mask="url(#mask4_5865_6265)">
<mask id="mask5_5865_6265" style="mask-type:luminance" maskUnits="userSpaceOnUse" x="74" y="0" width="74" height="67">
<path d="M82.2389 0H139.566C141.738 0 143.821 1.00795 145.357 2.80279C146.893 4.59902 147.755 7.03339 147.755 9.57202V56.9456C147.755 59.4842 146.893 61.9186 145.357 63.7134C143.821 65.5082 141.738 66.5176 139.566 66.5176H82.2389C80.0668 66.5176 77.9839 65.5082 76.4482 63.7134C74.9124 61.9186 74.0488 59.4842 74.0488 56.9456V9.57202C74.0488 7.03339 74.9124 4.59902 76.4482 2.80279C77.9839 1.00795 80.0668 0 82.2389 0Z" fill="white"/>
</mask>
<g mask="url(#mask5_5865_6265)">
<path d="M74.0488 0H147.86V66.5176H74.0488V0Z" fill="white"/>
</g>
</g>
<mask id="mask6_5865_6265" style="mask-type:luminance" maskUnits="userSpaceOnUse" x="147" y="0" width="75" height="67">
<path d="M147.754 0H221.558V66.5176H147.754V0Z" fill="white"/>
</mask>
<g mask="url(#mask6_5865_6265)">
<mask id="mask7_5865_6265" style="mask-type:luminance" maskUnits="userSpaceOnUse" x="147" y="0" width="75" height="67">
<path d="M155.943 0H213.27C215.442 0 217.525 1.00795 219.061 2.80279C220.597 4.59902 221.459 7.03339 221.459 9.57202V56.9456C221.459 59.4842 220.597 61.9186 219.061 63.7134C217.525 65.5082 215.442 66.5176 213.27 66.5176H155.943C153.771 66.5176 151.688 65.5082 150.152 63.7134C148.617 61.9186 147.753 59.4842 147.753 56.9456V9.57202C147.753 7.03339 148.617 4.59902 150.152 2.80279C151.688 1.00795 153.771 0 155.943 0Z" fill="white"/>
</mask>
<g mask="url(#mask7_5865_6265)">
<path d="M147.753 0H221.564V66.5176H147.753V0Z" fill="white"/>
</g>
</g>
<mask id="mask8_5865_6265" style="mask-type:luminance" maskUnits="userSpaceOnUse" x="74" y="0" width="74" height="67">
<path d="M74.0508 0H147.753V66.4689H74.0508V0Z" fill="white"/>
</mask>
<g mask="url(#mask8_5865_6265)">
<mask id="mask9_5865_6265" style="mask-type:luminance" maskUnits="userSpaceOnUse" x="74" y="0" width="74" height="67">
<path d="M82.2387 0H139.564C141.736 0 143.819 1.00795 145.354 2.80279C146.89 4.59763 147.752 7.032 147.752 9.57064V56.9428C147.752 59.4814 146.89 61.9158 145.354 63.7106C143.819 65.5055 141.736 66.5134 139.564 66.5134H82.2387C80.0666 66.5134 77.9837 65.5055 76.448 63.7106C74.9122 61.9158 74.0498 59.4814 74.0498 56.9428V9.57064C74.0498 7.032 74.9122 4.59763 76.448 2.80279C77.9837 1.00795 80.0666 0 82.2387 0Z" fill="white"/>
</mask>
<g mask="url(#mask9_5865_6265)">
<path d="M82.2387 0H139.564C141.736 0 143.819 1.00795 145.354 2.80279C146.89 4.59763 147.752 7.032 147.752 9.57064V56.9428C147.752 59.4814 146.89 61.9158 145.354 63.7106C143.819 65.5055 141.736 66.5134 139.564 66.5134H82.2387C80.0666 66.5134 77.9837 65.5055 76.448 63.7106C74.9122 61.9158 74.0498 59.4814 74.0498 56.9428V9.57064C74.0498 7.032 74.9122 4.59763 76.448 2.80279C77.9837 1.00795 80.0666 0 82.2387 0Z" stroke="#0073BE" stroke-width="7.63941"/>
</g>
</g>
<mask id="mask10_5865_6265" style="mask-type:luminance" maskUnits="userSpaceOnUse" x="147" y="0" width="75" height="67">
<path d="M147.759 0H221.461V66.4689H147.759V0Z" fill="white"/>
</mask>
<g mask="url(#mask10_5865_6265)">
<mask id="mask11_5865_6265" style="mask-type:luminance" maskUnits="userSpaceOnUse" x="147" y="0" width="75" height="67">
<path d="M155.951 0H213.275C215.448 0 217.53 1.00795 219.066 2.80279C220.602 4.59763 221.464 7.032 221.464 9.57064V56.9428C221.464 59.4814 220.602 61.9158 219.066 63.7106C217.53 65.5055 215.448 66.5134 213.275 66.5134H155.951C153.779 66.5134 151.696 65.5055 150.16 63.7106C148.624 61.9158 147.762 59.4814 147.762 56.9428V9.57064C147.762 7.032 148.624 4.59763 150.16 2.80279C151.696 1.00795 153.779 0 155.951 0Z" fill="white"/>
</mask>
<g mask="url(#mask11_5865_6265)">
<path d="M155.951 0H213.275C215.448 0 217.53 1.00795 219.066 2.80279C220.602 4.59763 221.464 7.032 221.464 9.57064V56.9428C221.464 59.4814 220.602 61.9158 219.066 63.7106C217.53 65.5055 215.448 66.5134 213.275 66.5134H155.951C153.779 66.5134 151.696 65.5055 150.16 63.7106C148.624 61.9158 147.762 59.4814 147.762 56.9428V9.57064C147.762 7.032 148.624 4.59763 150.16 2.80279C151.696 1.00795 153.779 0 155.951 0Z" stroke="#0073BE" stroke-width="7.63941"/>
</g>
</g>
<mask id="mask12_5865_6265" style="mask-type:luminance" maskUnits="userSpaceOnUse" x="0" y="58" width="222" height="9">
<path d="M0.439453 58.6953H221.558V66.5253H0.439453V58.6953Z" fill="white"/>
</mask>
<g mask="url(#mask12_5865_6265)">
<path d="M0.439453 62.6484H221.461" stroke="#0073BE" stroke-width="8.52088"/>
</g>
<mask id="mask13_5865_6265" style="mask-type:luminance" maskUnits="userSpaceOnUse" x="5" y="7" width="12" height="14">
<path d="M5.73926 7.57812H16.8855V20.6051H5.73926V7.57812Z" fill="white"/>
</mask>
<g mask="url(#mask13_5865_6265)">
<mask id="mask14_5865_6265" style="mask-type:luminance" maskUnits="userSpaceOnUse" x="5" y="7" width="12" height="14">
<path d="M11.3243 7.58594C8.23973 7.58594 5.73926 10.5083 5.73926 14.1147C5.73926 17.7197 8.23973 20.6421 11.3243 20.6421C14.41 20.6421 16.9105 17.7197 16.9105 14.1147C16.9105 10.5083 14.41 7.58594 11.3243 7.58594Z" fill="white"/>
</mask>
<g mask="url(#mask14_5865_6265)">
<path d="M11.3243 7.58594C8.23973 7.58594 5.73926 10.5083 5.73926 14.1147C5.73926 17.7197 8.23973 20.6421 11.3243 20.6421C14.41 20.6421 16.9105 17.7197 16.9105 14.1147C16.9105 10.5083 14.41 7.58594 11.3243 7.58594Z" stroke="#0073BE" stroke-width="4.11353"/>
</g>
</g>
<mask id="mask15_5865_6265" style="mask-type:luminance" maskUnits="userSpaceOnUse" x="82" y="7" width="12" height="14">
<path d="M82.0957 7.57812H93.2431V20.6051H82.0957V7.57812Z" fill="white"/>
</mask>
<g mask="url(#mask15_5865_6265)">
<mask id="mask16_5865_6265" style="mask-type:luminance" maskUnits="userSpaceOnUse" x="82" y="7" width="12" height="14">
<path d="M87.6839 7.58594C84.5993 7.58594 82.0977 10.5083 82.0977 14.1147C82.0977 17.7197 84.5993 20.6421 87.6839 20.6421C90.7684 20.6421 93.2701 17.7197 93.2701 14.1147C93.2701 10.5083 90.7684 7.58594 87.6839 7.58594Z" fill="white"/>
</mask>
<g mask="url(#mask16_5865_6265)">
<path d="M87.6839 7.58594C84.5993 7.58594 82.0977 10.5083 82.0977 14.1147C82.0977 17.7197 84.5993 20.6421 87.6839 20.6421C90.7684 20.6421 93.2701 17.7197 93.2701 14.1147C93.2701 10.5083 90.7684 7.58594 87.6839 7.58594Z" stroke="#0073BE" stroke-width="4.11353"/>
</g>
</g>
<mask id="mask17_5865_6265" style="mask-type:luminance" maskUnits="userSpaceOnUse" x="155" y="7" width="12" height="14">
<path d="M155.718 7.57812H166.864V20.6051H155.718V7.57812Z" fill="white"/>
</mask>
<g mask="url(#mask17_5865_6265)">
<mask id="mask18_5865_6265" style="mask-type:luminance" maskUnits="userSpaceOnUse" x="155" y="7" width="12" height="14">
<path d="M161.301 7.58594C158.216 7.58594 155.716 10.5083 155.716 14.1147C155.716 17.7197 158.216 20.6421 161.301 20.6421C164.387 20.6421 166.887 17.7197 166.887 14.1147C166.887 10.5083 164.387 7.58594 161.301 7.58594Z" fill="white"/>
</mask>
<g mask="url(#mask18_5865_6265)">
<path d="M161.301 7.58594C158.216 7.58594 155.716 10.5083 155.716 14.1147C155.716 17.7197 158.216 20.6421 161.301 20.6421C164.387 20.6421 166.887 17.7197 166.887 14.1147C166.887 10.5083 164.387 7.58594 161.301 7.58594Z" stroke="#0073BE" stroke-width="4.11353"/>
</g>
</g>
</g>
<path d="M121.98 57.3047L190.188 117.339L173.997 134.153L105.789 74.1189L121.98 57.3047Z" fill="#CC9D0C"/>
<path d="M121.961 57.3516L190.199 117.355L185.168 122.583L116.93 62.5798L121.961 57.3516Z" fill="#FFE4AA"/>
<path d="M116.95 62.5625L185.123 122.634L179.649 128.312L111.478 68.2407L116.95 62.5625Z" fill="#FFC20E"/>
<path d="M105.814 74.1782L121.966 57.3973L93 47L105.814 74.1782Z" fill="#DDBDA1"/>
<path d="M111.414 68.2075L121.966 57.3973L93 47L111.414 68.2075Z" fill="#F1D7B7"/>
<path d="M116.904 62.546L121.966 57.3973L93 47L116.904 62.546Z" fill="#F9F6C4"/>
<path d="M102.584 50.3973L93 47L97.2002 55.9569L102.584 50.3973Z" fill="#39454F"/>
<path d="M173.975 134.195L181.943 141.195C183.343 142.432 185.711 142.224 187.22 140.68L197.987 129.459C199.495 127.915 199.495 125.651 198.095 124.416L190.127 117.414L173.975 134.195Z" fill="#F2987E"/>
<path d="M187.22 140.68L195.727 131.827L185.173 122.562L173.975 134.195L181.943 141.195C183.452 142.431 185.82 142.224 187.22 140.68Z" fill="#E9513D"/>
<defs>
<clipPath id="clip0_5865_6265">
<rect width="222" height="67" fill="white"/>
</clipPath>
</defs>
</svg>
