<?xml version="1.0" encoding="UTF-8"?>
<svg id="Layer_2" data-name="Layer 2" xmlns="http://www.w3.org/2000/svg" xmlns:xlink="http://www.w3.org/1999/xlink" viewBox="0 0 128.4 103.92">
  <defs>
    <style>
      .cls-1 {
        fill: #0c73bb;
      }

      .cls-1, .cls-2, .cls-3, .cls-4, .cls-5, .cls-6 {
        stroke-width: 0px;
      }

      .cls-2 {
        fill: #7db442;
      }

      .cls-3 {
        filter: url(#drop-shadow-2);
      }

      .cls-3, .cls-4, .cls-5 {
        fill: #fff;
      }

      .cls-4 {
        filter: url(#drop-shadow-1);
      }

      .cls-5 {
        filter: url(#drop-shadow-3);
      }

      .cls-6 {
        fill: #fed304;
      }
    </style>
    <filter id="drop-shadow-1" filterUnits="userSpaceOnUse">
      <feOffset dx="3" dy="3"/>
      <feGaussianBlur result="blur" stdDeviation="2"/>
      <feFlood flood-color="#231f20" flood-opacity=".1"/>
      <feComposite in2="blur" operator="in"/>
      <feComposite in="SourceGraphic"/>
    </filter>
    <filter id="drop-shadow-2" filterUnits="userSpaceOnUse">
      <feOffset dx="3" dy="3"/>
      <feGaussianBlur result="blur-2" stdDeviation="2"/>
      <feFlood flood-color="#231f20" flood-opacity=".1"/>
      <feComposite in2="blur-2" operator="in"/>
      <feComposite in="SourceGraphic"/>
    </filter>
    <filter id="drop-shadow-3" filterUnits="userSpaceOnUse">
      <feOffset dx="3" dy="3"/>
      <feGaussianBlur result="blur-3" stdDeviation="2"/>
      <feFlood flood-color="#231f20" flood-opacity=".1"/>
      <feComposite in2="blur-3" operator="in"/>
      <feComposite in="SourceGraphic"/>
    </filter>
  </defs>
  <g id="Layer_1-2" data-name="Layer 1">
    <g>
      <g>
        <rect class="cls-4" x="32.37" y="33.08" width="54.46" height="32.82" rx="8.17" ry="8.17" transform="translate(8.81 -9) rotate(9.32)"/>
        <g>
          <path class="cls-2" d="M62.55,56.57c-.08.48-.35.68-.8.61s-.65-.35-.57-.81l.11-.67c-1,.77-2.17,1.05-3.51.83s-2.5-.91-3.26-2.04c-.76-1.13-1.02-2.42-.79-3.85s.9-2.58,1.98-3.41c1.09-.84,2.33-1.14,3.74-.91,1.3.21,2.32.86,3.06,1.94l.12-.73c.07-.44.34-.63.79-.55s.65.33.58.77l-1.45,8.85ZM61.9,51.95c.17-1.04.02-1.97-.47-2.79-.48-.82-1.22-1.3-2.2-1.46s-1.92.05-2.7.66c-.77.61-1.24,1.44-1.42,2.48s.02,1.95.57,2.79c.55.84,1.32,1.34,2.33,1.5s1.83-.07,2.55-.69c.72-.62,1.16-1.45,1.33-2.49Z"/>
          <path class="cls-2" d="M50.75,46.16l-2.67-.44-1.33,8.11c-.08.48-.36.68-.83.6s-.64-.35-.56-.83l1.33-8.11-2.51-.41c-.48-.08-.68-.34-.61-.8s.36-.68.83-.6l2.51.41.56-3.42c.07-.46.34-.65.79-.57s.68.35.6.8l-.56,3.42,2.67.44c.48.08.68.36.6.83s-.35.64-.83.56Z"/>
          <path class="cls-2" d="M75.38,56.25c-.35,2.13-1.83,3-4.44,2.62-1.74-.26-2.92-1.46-3.53-3.59-.03-.12-.03-.22-.02-.3.08-.48.38-.67.9-.59.26.04.43.21.52.49.45,1.59,1.23,2.47,2.35,2.63,1.72.24,2.68-.25,2.88-1.47.09-.56-.16-1.02-.75-1.36-.1-.06-.66-.3-1.69-.71-1.02-.41-1.74-.82-2.14-1.22-.59-.59-.81-1.37-.65-2.35.12-.74.53-1.3,1.21-1.68.61-.35,1.35-.5,2.22-.47.75.03,1.46.23,2.11.6.65.36,1.03.81,1.12,1.34,0,0-.03.13-.06.39-.06.35-.26.49-.61.44-.33-.05-.6-.28-.81-.68-.21-.4-.82-.63-1.82-.68-1.2-.04-1.86.29-1.97.98-.09.56.07,1.03.48,1.38.26.2.73.43,1.42.7,2.41.93,3.5,2.11,3.27,3.55Z"/>
        </g>
      </g>
      <g>
        <rect class="cls-3" x="63.96" y="58.73" width="54.01" height="32.55" rx="8.17" ry="8.17" transform="translate(-12.97 19.34) rotate(-11.33)"/>
        <g>
          <path class="cls-6" d="M86.03,74.88l-2.63.53,1.6,7.99c.09.47-.09.75-.56.85s-.72-.1-.81-.57l-1.6-7.99-2.47.5c-.47.09-.75-.08-.84-.53s.09-.75.57-.85l2.47-.5-.67-3.37c-.09-.45.09-.72.54-.81s.75.08.84.53l.67,3.37,2.63-.53c.47-.09.75.09.85.56s-.1.72-.57.81Z"/>
          <path class="cls-6" d="M90.33,68.33c.15.73-.16,1.16-.91,1.31-.28.06-.55,0-.82-.15-.27-.16-.43-.4-.5-.72-.06-.3,0-.58.18-.84.18-.26.41-.42.69-.47.32-.06.61-.01.87.16.26.17.42.4.48.7ZM92.6,81.87c.09.47-.08.75-.53.84s-.75-.09-.85-.56l-1.74-8.7c-.09-.43.11-.69.58-.78s.71.08.8.51l1.74,8.7Z"/>
          <path class="cls-6" d="M103.97,78.59c-.51,1.26-1.46,2.03-2.86,2.31-1.25.25-2.37.02-3.37-.68-1-.7-1.63-1.69-1.89-2.98s-.06-2.42.59-3.46c.65-1.04,1.59-1.69,2.83-1.94,1.31-.26,2.46.02,3.47.84.11.09.18.21.21.36.09.43-.09.68-.51.77-.19.04-.36-.03-.51-.2-.66-.54-1.47-.71-2.41-.52-.88.18-1.55.64-2.01,1.39-.46.75-.6,1.59-.42,2.51s.64,1.65,1.36,2.17c.72.52,1.52.7,2.4.52.99-.2,1.65-.71,1.98-1.54.09-.22.23-.35.43-.39.41-.08.65.08.74.49.02.11.01.22-.03.34Z"/>
        </g>
      </g>
      <g>
        <rect class="cls-5" x="4.12" y="5.72" width="54.46" height="32.82" rx="8.17" ry="8.17" transform="translate(-2.82 4.66) rotate(-8.14)"/>
        <g>
          <path class="cls-1" d="M35.31,29.58c.07.48-.13.75-.58.82s-.72-.14-.79-.6l-.1-.67c-.72,1.04-1.75,1.65-3.1,1.84s-2.66-.12-3.72-.97c-1.07-.85-1.7-2-1.91-3.44s.08-2.73.87-3.85c.78-1.13,1.88-1.79,3.3-1.99,1.31-.19,2.47.12,3.5.93l-.1-.73c-.06-.44.13-.7.59-.76s.72.12.78.56l1.27,8.88ZM33.31,25.37c-.15-1.05-.58-1.88-1.28-2.52-.7-.63-1.55-.88-2.54-.74s-1.82.63-2.37,1.44c-.55.81-.76,1.74-.61,2.79s.61,1.85,1.38,2.49c.77.63,1.66.88,2.67.73s1.73-.61,2.23-1.42c.5-.8.67-1.73.52-2.78Z"/>
          <path class="cls-1" d="M25.47,17.95c.06.41-.13.65-.56.71s-.65-.12-.71-.53c-.07-.52-.43-1-1.08-1.45-.71-.48-1.49-.65-2.32-.54-.92.13-1.62.55-2.11,1.27-.49.71-.66,1.55-.53,2.51l.48,3.33,2.49-.36c.41-.06.65.13.71.56s-.12.65-.53.71l-2.49.36,1.05,7.33c.06.44-.12.69-.56.75s-.65-.13-.71-.57l-1.05-7.33-1.96.28c-.44.06-.68-.11-.74-.52-.06-.43.12-.68.56-.74l1.96-.28-.48-3.33c-.18-1.29.08-2.43.78-3.43.7-1,1.68-1.59,2.95-1.77,1.2-.17,2.31.13,3.33.89.89.65,1.4,1.37,1.51,2.15Z"/>
          <path class="cls-1" d="M48.95,27.63c.07.48-.14.75-.61.82s-.72-.14-.79-.62l-.63-4.41c-.15-1.05-.6-1.88-1.36-2.51-.76-.63-1.65-.87-2.67-.72s-1.75.61-2.24,1.4c-.49.79-.65,1.72-.5,2.79l.63,4.41c.07.48-.13.75-.58.82s-.72-.14-.79-.62l-1.27-8.88c-.06-.44.13-.69.59-.75s.72.12.78.57l.12.87c.66-1.14,1.68-1.81,3.05-2s2.66.13,3.73.98c1.07.86,1.7,2.01,1.91,3.44l.63,4.41Z"/>
        </g>
      </g>
    </g>
  </g>
</svg>