<svg width="130" height="160" viewBox="0 0 130 160" fill="none" xmlns="http://www.w3.org/2000/svg">
<mask id="mask0_2540_3202" style="mask-type:luminance" maskUnits="userSpaceOnUse" x="0" y="0" width="99" height="147">
<path d="M0.253906 0.320312H98.9014V146.746H0.253906V0.320312Z" fill="white"/>
</mask>
<g mask="url(#mask0_2540_3202)">
<path d="M102.137 76.2281V0.320312H0.253906V147.076H125.059" fill="#2997BB"/>
</g>
<path d="M10.4434 10.4414H25.7257V25.623H10.4434V10.4414Z" fill="#F4EFEC"/>
<path d="M76.666 116.711H91.9483V131.892H76.666V116.711Z" fill="#F4EFEC"/>
<path d="M66.4781 119.241H10.445C10.1064 119.241 9.78289 119.176 9.46831 119.048C9.15673 118.92 8.88111 118.738 8.64443 118.5C8.40475 118.262 8.219 117.988 8.09018 117.679C7.96135 117.369 7.89844 117.048 7.89844 116.711C7.89844 116.375 7.96135 116.054 8.09018 115.744C8.219 115.432 8.40475 115.158 8.64443 114.923C8.88111 114.685 9.15673 114.503 9.46831 114.372C9.78289 114.244 10.1064 114.182 10.445 114.182H66.4781C66.8167 114.182 67.1432 114.244 67.4548 114.372C67.7664 114.503 68.042 114.685 68.2817 114.923C68.5184 115.158 68.7041 115.432 68.8329 115.744C68.9618 116.054 69.0277 116.375 69.0277 116.711C69.0277 117.048 68.9618 117.369 68.8329 117.679C68.7041 117.988 68.5184 118.262 68.2817 118.5C68.042 118.738 67.7664 118.92 67.4548 119.048C67.1432 119.176 66.8167 119.241 66.4781 119.241Z" fill="#F4EFEC"/>
<path d="M91.9496 58.5146H10.445C10.1064 58.5146 9.78289 58.4521 9.46831 58.3211C9.15673 58.1932 8.88111 58.0116 8.64443 57.7735C8.40475 57.5354 8.219 57.2616 8.09018 56.9521C7.96135 56.6426 7.89844 56.3212 7.89844 55.9848C7.89844 55.6485 7.96135 55.3271 8.09018 55.0176C8.219 54.7051 8.40475 54.4313 8.64443 54.1961C8.88111 53.9581 9.15673 53.7765 9.46831 53.6456C9.78289 53.5176 10.1064 53.4551 10.445 53.4551H91.9496C92.2882 53.4551 92.6117 53.5176 92.9233 53.6456C93.2379 53.7765 93.5135 53.9581 93.7502 54.1961C93.9899 54.4313 94.1726 54.7051 94.3045 55.0176C94.4333 55.3271 94.4962 55.6485 94.4962 55.9848C94.4962 56.3212 94.4333 56.6426 94.3045 56.9521C94.1726 57.2616 93.9899 57.5354 93.7502 57.7735C93.5135 58.0116 93.2379 58.1932 92.9233 58.3211C92.6117 58.4521 92.2882 58.5146 91.9496 58.5146Z" fill="#F4EFEC"/>
<path d="M91.9496 88.8779H10.445C10.1064 88.8779 9.78289 88.8124 9.46831 88.6844C9.15673 88.5565 8.88111 88.3749 8.64443 88.1368C8.40475 87.8987 8.219 87.6249 8.09018 87.3154C7.96135 87.0059 7.89844 86.6844 7.89844 86.3481C7.89844 86.0118 7.96135 85.6904 8.09018 85.3809C8.219 85.0684 8.40475 84.7945 8.64443 84.5594C8.88111 84.3213 9.15673 84.1398 9.46831 84.0088C9.78289 83.8809 10.1064 83.8184 10.445 83.8184H91.9496C92.2882 83.8184 92.6117 83.8809 92.9233 84.0088C93.2379 84.1398 93.5135 84.3213 93.7502 84.5594C93.9899 84.7945 94.1726 85.0684 94.3045 85.3809C94.4333 85.6904 94.4962 86.0118 94.4962 86.3481C94.4962 86.6844 94.4333 87.0059 94.3045 87.3154C94.1726 87.6249 93.9899 87.8987 93.7502 88.1368C93.5135 88.3749 93.2379 88.5565 92.9233 88.6844C92.6117 88.8124 92.2882 88.8779 91.9496 88.8779Z" fill="#F4EFEC"/>
<path d="M46.101 28.1513H35.9118C35.5762 28.1513 35.2497 28.0888 34.9381 27.9579C34.6265 27.8299 34.3509 27.6483 34.1112 27.4102C33.8745 27.1722 33.6888 26.8983 33.56 26.5888C33.4311 26.2793 33.3652 25.9579 33.3652 25.6216C33.3652 25.2852 33.4311 24.9638 33.56 24.6543C33.6888 24.3418 33.8745 24.068 34.1112 23.8329C34.3509 23.5948 34.6265 23.4132 34.9381 23.2823C35.2497 23.1543 35.5762 23.0918 35.9118 23.0918H46.101C46.4395 23.0918 46.7631 23.1543 47.0747 23.2823C47.3892 23.4132 47.6649 23.5948 47.9016 23.8329C48.1412 24.068 48.324 24.3418 48.4558 24.6543C48.5846 24.9638 48.6475 25.2852 48.6475 25.6216C48.6475 25.9579 48.5846 26.2793 48.4558 26.5888C48.324 26.8983 48.1412 27.1722 47.9016 27.4102C47.6649 27.6483 47.3892 27.8299 47.0747 27.9579C46.7631 28.0888 46.4395 28.1513 46.101 28.1513Z" fill="#F4EFEC"/>
<path d="M69.0268 28.1513H58.8376C58.499 28.1513 58.1755 28.0888 57.8639 27.9579C57.5493 27.8299 57.2737 27.6483 57.037 27.4102C56.7973 27.1722 56.6146 26.8983 56.4828 26.5888C56.3539 26.2793 56.291 25.9579 56.291 25.6216C56.291 25.2852 56.3539 24.9638 56.4828 24.6543C56.6146 24.3418 56.7973 24.068 57.037 23.8329C57.2737 23.5948 57.5493 23.4132 57.8639 23.2823C58.1755 23.1543 58.499 23.0918 58.8376 23.0918H69.0268C69.3623 23.0918 69.6889 23.1543 70.0005 23.2823C70.312 23.4132 70.5877 23.5948 70.8273 23.8329C71.064 24.068 71.2498 24.3418 71.3786 24.6543C71.5074 24.9638 71.5733 25.2852 71.5733 25.6216C71.5733 25.9579 71.5074 26.2793 71.3786 26.5888C71.2498 26.8983 71.064 27.1722 70.8273 27.4102C70.5877 27.6483 70.312 27.8299 70.0005 27.9579C69.6889 28.0888 69.3623 28.1513 69.0268 28.1513Z" fill="#F4EFEC"/>
<path d="M91.9486 28.1513H81.7594C81.4239 28.1513 81.0973 28.0888 80.7858 27.9579C80.4742 27.8299 80.1986 27.6483 79.9589 27.4102C79.7222 27.1722 79.5365 26.8983 79.4076 26.5888C79.2788 26.2793 79.2129 25.9579 79.2129 25.6216C79.2129 25.2852 79.2788 24.9638 79.4076 24.6543C79.5365 24.3418 79.7222 24.068 79.9589 23.8329C80.1986 23.5948 80.4742 23.4132 80.7858 23.2823C81.0973 23.1543 81.4239 23.0918 81.7594 23.0918H91.9486C92.2872 23.0918 92.6108 23.1543 92.9223 23.2823C93.2369 23.4132 93.5125 23.5948 93.7492 23.8329C93.9889 24.068 94.1716 24.3418 94.3035 24.6543C94.4323 24.9638 94.4952 25.2852 94.4952 25.6216C94.4952 25.9579 94.4323 26.2793 94.3035 26.5888C94.1716 26.8983 93.9889 27.1722 93.7492 27.4102C93.5125 27.6483 93.2369 27.8299 92.9223 27.9579C92.6108 28.0888 92.2872 28.1513 91.9486 28.1513Z" fill="#F4EFEC"/>
<mask id="mask1_2540_3202" style="mask-type:luminance" maskUnits="userSpaceOnUse" x="30" y="12" width="100" height="148">
<path d="M30.8086 12.9707H129.456V159.396H30.8086V12.9707Z" fill="white"/>
</mask>
<g mask="url(#mask1_2540_3202)">
<path d="M132.692 88.8784V12.9707H30.8086V159.724H155.614" fill="#244DAE"/>
</g>
<path d="M40.9961 23.0898H56.2784V38.2714H40.9961V23.0898Z" fill="#FFCD32"/>
<path d="M107.219 129.361H122.501V144.543H107.219V129.361Z" fill="#FFCD32"/>
<path d="M97.0289 131.89H40.9958C40.6572 131.89 40.3337 131.827 40.0191 131.699C39.7075 131.571 39.4319 131.387 39.1952 131.149C38.9555 130.913 38.7698 130.64 38.641 130.33C38.5121 130.021 38.4492 129.696 38.4492 129.36C38.4492 129.027 38.5121 128.702 38.641 128.393C38.7698 128.083 38.9555 127.809 39.1952 127.571C39.4319 127.333 39.7075 127.152 40.0191 127.024C40.3337 126.896 40.6572 126.83 40.9958 126.83H97.0289C97.3675 126.83 97.694 126.896 98.0056 127.024C98.3172 127.152 98.5928 127.333 98.8295 127.571C99.0691 127.809 99.2549 128.083 99.3837 128.393C99.5125 128.702 99.5755 129.027 99.5785 129.36C99.5755 129.696 99.5125 130.021 99.3837 130.33C99.2549 130.64 99.0691 130.913 98.8295 131.149C98.5928 131.387 98.3172 131.571 98.0056 131.699C97.694 131.827 97.3675 131.89 97.0289 131.89Z" fill="#FFCD32"/>
<path d="M122.5 71.166H40.9958C40.6572 71.166 40.3337 71.1005 40.0191 70.9726C39.7075 70.8446 39.4319 70.6601 39.1952 70.4249C38.9555 70.1868 38.7698 69.913 38.641 69.6035C38.5121 69.294 38.4492 68.9696 38.4492 68.6333C38.4492 68.2999 38.5121 67.9755 38.641 67.666C38.7698 67.3565 38.9555 67.0827 39.1952 66.8446C39.4319 66.6065 39.7075 66.4249 40.0191 66.297C40.3337 66.169 40.6572 66.1035 40.9958 66.1035H122.5C122.839 66.1035 123.163 66.169 123.474 66.297C123.786 66.4249 124.061 66.6065 124.301 66.8446C124.541 67.0827 124.723 67.3565 124.852 67.666C124.984 67.9755 125.047 68.2999 125.047 68.6333C125.047 68.9696 124.984 69.294 124.852 69.6035C124.723 69.913 124.541 70.1868 124.301 70.4249C124.061 70.6601 123.786 70.8446 123.474 70.9726C123.163 71.1005 122.839 71.166 122.5 71.166Z" fill="#FFCD32"/>
<path d="M122.5 101.529H40.9958C40.6572 101.529 40.3337 101.464 40.0191 101.336C39.7075 101.208 39.4319 101.023 39.1952 100.788C38.9555 100.55 38.7698 100.276 38.641 99.9668C38.5121 99.6573 38.4492 99.3329 38.4492 98.9966C38.4492 98.6632 38.5121 98.3388 38.641 98.0293C38.7698 97.7198 38.9555 97.446 39.1952 97.2079C39.4319 96.9698 39.7075 96.7882 40.0191 96.6602C40.3337 96.5323 40.6572 96.4668 40.9958 96.4668H122.5C122.839 96.4668 123.163 96.5323 123.474 96.6602C123.786 96.7882 124.061 96.9698 124.301 97.2079C124.541 97.446 124.723 97.7198 124.852 98.0293C124.984 98.3388 125.047 98.6632 125.047 98.9966C125.047 99.3329 124.984 99.6573 124.852 99.9668C124.723 100.276 124.541 100.55 124.301 100.788C124.061 101.023 123.786 101.208 123.474 101.336C123.163 101.464 122.839 101.529 122.5 101.529Z" fill="#FFCD32"/>
<path d="M76.6537 40.8027H66.4645C66.129 40.8027 65.8024 40.7373 65.4908 40.6093C65.1793 40.4813 64.9036 40.2968 64.664 40.0617C64.4243 39.8236 64.2415 39.5498 64.1127 39.2402C63.9839 38.9307 63.918 38.6063 63.918 38.27C63.918 37.9367 63.9839 37.6123 64.1127 37.3027C64.2415 36.9932 64.4243 36.7194 64.664 36.4813C64.9036 36.2462 65.1793 36.0617 65.4908 35.9337C65.8024 35.8057 66.129 35.7402 66.4645 35.7402H76.6537C76.9923 35.7402 77.3158 35.8057 77.6274 35.9337C77.942 36.0617 78.2146 36.2462 78.4543 36.4813C78.694 36.7194 78.8767 36.9932 79.0055 37.3027C79.1374 37.6123 79.2003 37.9367 79.2003 38.27C79.2003 38.6063 79.1374 38.9307 79.0055 39.2402C78.8767 39.5498 78.694 39.8236 78.4543 40.0617C78.2146 40.2968 77.942 40.4813 77.6274 40.6093C77.3158 40.7373 76.9923 40.8027 76.6537 40.8027Z" fill="#FFCD32"/>
<path d="M99.5795 40.8027H89.3903C89.0518 40.8027 88.7282 40.7373 88.4136 40.6093C88.102 40.4813 87.8264 40.2968 87.5897 40.0617C87.3501 39.8236 87.1673 39.5498 87.0355 39.2402C86.9067 38.9307 86.8438 38.6063 86.8438 38.27C86.8438 37.9367 86.9067 37.6123 87.0355 37.3027C87.1673 36.9932 87.3501 36.7194 87.5897 36.4813C87.8264 36.2462 88.102 36.0617 88.4136 35.9337C88.7282 35.8057 89.0518 35.7402 89.3903 35.7402H99.5795C99.9151 35.7402 100.242 35.8057 100.553 35.9337C100.865 36.0617 101.14 36.2462 101.38 36.4813C101.617 36.7194 101.802 36.9932 101.931 37.3027C102.06 37.6123 102.126 37.9367 102.126 38.27C102.126 38.6063 102.06 38.9307 101.931 39.2402C101.802 39.5498 101.617 39.8236 101.38 40.0617C101.14 40.2968 100.865 40.4813 100.553 40.6093C100.242 40.7373 99.9151 40.8027 99.5795 40.8027Z" fill="#FFCD32"/>
<path d="M122.501 40.8027H112.312C111.977 40.8027 111.65 40.7373 111.338 40.6093C111.027 40.4813 110.751 40.2968 110.512 40.0617C110.272 39.8236 110.089 39.5498 109.96 39.2402C109.832 38.9307 109.766 38.6063 109.766 38.27C109.766 37.9367 109.832 37.6123 109.96 37.3027C110.089 36.9932 110.272 36.7194 110.512 36.4813C110.751 36.2462 111.027 36.0617 111.338 35.9337C111.65 35.8057 111.977 35.7402 112.312 35.7402H122.501C122.84 35.7402 123.163 35.8057 123.475 35.9337C123.787 36.0617 124.062 36.2462 124.302 36.4813C124.542 36.7194 124.724 36.9932 124.853 37.3027C124.985 37.6123 125.048 37.9367 125.048 38.27C125.048 38.6063 124.985 38.9307 124.853 39.2402C124.724 39.5498 124.542 39.8236 124.302 40.0617C124.062 40.2968 123.787 40.4813 123.475 40.6093C123.163 40.7373 122.84 40.8027 122.501 40.8027Z" fill="#FFCD32"/>
<mask id="mask2_2540_3202" style="mask-type:luminance" maskUnits="userSpaceOnUse" x="29" y="59" width="101" height="101">
<path d="M29.9121 59.9551H129.617V159.529H29.9121V59.9551Z" fill="white"/>
</mask>
<g mask="url(#mask2_2540_3202)">
<mask id="mask3_2540_3202" style="mask-type:luminance" maskUnits="userSpaceOnUse" x="-13" y="-17" width="156" height="193">
<path d="M143 -16.2344H-13V175.766H143V-16.2344Z" fill="black" fill-opacity="0.46"/>
</mask>
<g mask="url(#mask3_2540_3202)">
<mask id="mask4_2540_3202" style="mask-type:luminance" maskUnits="userSpaceOnUse" x="30" y="59" width="100" height="101">
<path d="M129.705 59.7656H30V159.575H129.705V59.7656Z" fill="white"/>
</mask>
<g mask="url(#mask4_2540_3202)">
<mask id="mask5_2540_3202" style="mask-type:luminance" maskUnits="userSpaceOnUse" x="30" y="61" width="100" height="99">
<path d="M30.9941 61.334H129.642V159.331H30.9941V61.334Z" fill="white"/>
</mask>
<g mask="url(#mask5_2540_3202)">
<path d="M129.643 61.2363V159.332H30.8965L129.643 61.2363Z" fill="#6297C6" fill-opacity="0.63"/>
</g>
<mask id="mask6_2540_3202" style="mask-type:luminance" maskUnits="userSpaceOnUse" x="30" y="61" width="100" height="99">
<path d="M30.9941 61.334H129.642V159.331H30.9941V61.334Z" fill="white"/>
</mask>
<g mask="url(#mask6_2540_3202)">
<mask id="mask7_2540_3202" style="mask-type:luminance" maskUnits="userSpaceOnUse" x="30" y="61" width="100" height="99">
<path d="M32.5263 158.662L128.966 62.8554V158.662H32.5263ZM30.8965 159.332H129.643V61.2363L30.8965 159.332Z" fill="white"/>
</mask>
<g mask="url(#mask7_2540_3202)">
<path d="M129.642 159.331V61.334H30.9941V159.331H129.642Z" fill="url(#paint0_linear_2540_3202)"/>
</g>
</g>
</g>
</g>
</g>
<mask id="mask8_2540_3202" style="mask-type:luminance" maskUnits="userSpaceOnUse" x="0" y="0" width="32" height="148">
<path d="M0 0H31.4454V147.574H0V0Z" fill="white"/>
</mask>
<g mask="url(#mask8_2540_3202)">
<mask id="mask9_2540_3202" style="mask-type:luminance" maskUnits="userSpaceOnUse" x="-13" y="-17" width="156" height="193">
<path d="M143 -16.2344H-13V175.766H143V-16.2344Z" fill="black" fill-opacity="0.67"/>
</mask>
<g mask="url(#mask9_2540_3202)">
<mask id="mask10_2540_3202" style="mask-type:luminance" maskUnits="userSpaceOnUse" x="0" y="-1" width="32" height="149">
<path d="M31.4454 -0.234375H0V147.575H31.4454V-0.234375Z" fill="white"/>
</mask>
<g mask="url(#mask10_2540_3202)">
<mask id="mask11_2540_3202" style="mask-type:luminance" maskUnits="userSpaceOnUse" x="0" y="0" width="31" height="147">
<path d="M0.253906 0.320312H30.8065V146.877H0.253906V0.320312Z" fill="white"/>
</mask>
<g mask="url(#mask11_2540_3202)">
<path d="M0.253906 0.320312H30.8065V146.859H0.253906V0.320312Z" fill="#32849F"/>
</g>
</g>
</g>
</g>
<defs>
<linearGradient id="paint0_linear_2540_3202" x1="129.641" y1="110.284" x2="30.994" y2="110.284" gradientUnits="userSpaceOnUse">
<stop stop-color="#F4F4F4"/>
<stop offset="0.00390625" stop-color="#396272"/>
<stop offset="0.0078125" stop-color="#396272"/>
<stop offset="0.0117188" stop-color="#3A6272"/>
<stop offset="0.015625" stop-color="#3A6272"/>
<stop offset="0.0195312" stop-color="#3B6372"/>
<stop offset="0.0234375" stop-color="#3B6372"/>
<stop offset="0.03125" stop-color="#3C6372"/>
<stop offset="0.0351563" stop-color="#3D6372"/>
<stop offset="0.0390625" stop-color="#3D6372"/>
<stop offset="0.0429688" stop-color="#3E6372"/>
<stop offset="0.046875" stop-color="#3E6372"/>
<stop offset="0.0507812" stop-color="#3F6472"/>
<stop offset="0.0546875" stop-color="#3F6472"/>
<stop offset="0.0585938" stop-color="#406472"/>
<stop offset="0.0625" stop-color="#406472"/>
<stop offset="0.0703125" stop-color="#416472"/>
<stop offset="0.0742188" stop-color="#426472"/>
<stop offset="0.078125" stop-color="#426572"/>
<stop offset="0.0820313" stop-color="#436572"/>
<stop offset="0.0859375" stop-color="#436572"/>
<stop offset="0.0898438" stop-color="#446572"/>
<stop offset="0.09375" stop-color="#446572"/>
<stop offset="0.101562" stop-color="#456572"/>
<stop offset="0.105469" stop-color="#466573"/>
<stop offset="0.109375" stop-color="#466673"/>
<stop offset="0.113281" stop-color="#476673"/>
<stop offset="0.117188" stop-color="#476673"/>
<stop offset="0.121094" stop-color="#486673"/>
<stop offset="0.125" stop-color="#486673"/>
<stop offset="0.132812" stop-color="#496673"/>
<stop offset="0.136719" stop-color="#4A6673"/>
<stop offset="0.140625" stop-color="#4A6773"/>
<stop offset="0.144531" stop-color="#4B6773"/>
<stop offset="0.148438" stop-color="#4B6773"/>
<stop offset="0.152344" stop-color="#4C6773"/>
<stop offset="0.15625" stop-color="#4C6773"/>
<stop offset="0.160156" stop-color="#4D6773"/>
<stop offset="0.164063" stop-color="#4D6773"/>
<stop offset="0.171875" stop-color="#4E6773"/>
<stop offset="0.175781" stop-color="#4F6873"/>
<stop offset="0.179688" stop-color="#4F6873"/>
<stop offset="0.183594" stop-color="#506873"/>
<stop offset="0.1875" stop-color="#506873"/>
<stop offset="0.191406" stop-color="#516873"/>
<stop offset="0.195313" stop-color="#516873"/>
<stop offset="0.203125" stop-color="#526973"/>
<stop offset="0.207031" stop-color="#536973"/>
<stop offset="0.210938" stop-color="#536973"/>
<stop offset="0.214844" stop-color="#546973"/>
<stop offset="0.21875" stop-color="#546973"/>
<stop offset="0.222656" stop-color="#556973"/>
<stop offset="0.226563" stop-color="#556973"/>
<stop offset="0.234375" stop-color="#566A73"/>
<stop offset="0.238281" stop-color="#576A73"/>
<stop offset="0.242188" stop-color="#576A73"/>
<stop offset="0.246094" stop-color="#586A73"/>
<stop offset="0.25" stop-color="#586A73"/>
<stop offset="0.253906" stop-color="#596A73"/>
<stop offset="0.257813" stop-color="#596A73"/>
<stop offset="0.261719" stop-color="#5A6B73"/>
<stop offset="0.265625" stop-color="#5A6B73"/>
<stop offset="0.273438" stop-color="#5B6B73"/>
<stop offset="0.277344" stop-color="#5C6B73"/>
<stop offset="0.28125" stop-color="#5C6B73"/>
<stop offset="0.285156" stop-color="#5D6B73"/>
<stop offset="0.289062" stop-color="#5D6B73"/>
<stop offset="0.292969" stop-color="#5E6C73"/>
<stop offset="0.296875" stop-color="#5E6C73"/>
<stop offset="0.304688" stop-color="#5F6C74"/>
<stop offset="0.308594" stop-color="#606C74"/>
<stop offset="0.3125" stop-color="#606C74"/>
<stop offset="0.316406" stop-color="#616C74"/>
<stop offset="0.320312" stop-color="#616D74"/>
<stop offset="0.324219" stop-color="#626D74"/>
<stop offset="0.328125" stop-color="#626D74"/>
<stop offset="0.335937" stop-color="#636D74"/>
<stop offset="0.339844" stop-color="#646D74"/>
<stop offset="0.34375" stop-color="#646D74"/>
<stop offset="0.347656" stop-color="#656D74"/>
<stop offset="0.351563" stop-color="#656E74"/>
<stop offset="0.355469" stop-color="#666E74"/>
<stop offset="0.359375" stop-color="#666E74"/>
<stop offset="0.367188" stop-color="#676E74"/>
<stop offset="0.371094" stop-color="#686E74"/>
<stop offset="0.375" stop-color="#686E74"/>
<stop offset="0.378906" stop-color="#696E74"/>
<stop offset="0.382812" stop-color="#696F74"/>
<stop offset="0.386719" stop-color="#6A6F74"/>
<stop offset="0.390625" stop-color="#6A6F74"/>
<stop offset="0.394531" stop-color="#6B6F74"/>
<stop offset="0.398438" stop-color="#6B6F74"/>
<stop offset="0.40625" stop-color="#6C6F74"/>
<stop offset="0.410156" stop-color="#6D7074"/>
<stop offset="0.414062" stop-color="#6D7074"/>
<stop offset="0.417969" stop-color="#6E7074"/>
<stop offset="0.421875" stop-color="#6E7074"/>
<stop offset="0.425781" stop-color="#6F7074"/>
<stop offset="0.429687" stop-color="#6F7074"/>
<stop offset="0.4375" stop-color="#707074"/>
<stop offset="0.441406" stop-color="#717174"/>
<stop offset="0.445312" stop-color="#717174"/>
<stop offset="0.449219" stop-color="#727174"/>
<stop offset="0.453125" stop-color="#727174"/>
<stop offset="0.457031" stop-color="#737174"/>
<stop offset="0.460938" stop-color="#737174"/>
<stop offset="0.46875" stop-color="#747174"/>
<stop offset="0.472656" stop-color="#757274"/>
<stop offset="0.476562" stop-color="#757274"/>
<stop offset="0.480469" stop-color="#767274"/>
<stop offset="0.484375" stop-color="#767274"/>
<stop offset="0.488281" stop-color="#777274"/>
<stop offset="0.492188" stop-color="#777274"/>
<stop offset="0.496094" stop-color="#787275"/>
<stop offset="0.5" stop-color="#787275"/>
<stop offset="0.507813" stop-color="#797375"/>
<stop offset="0.511719" stop-color="#7A7375"/>
<stop offset="0.515625" stop-color="#7A7375"/>
<stop offset="0.519531" stop-color="#7B7375"/>
<stop offset="0.523438" stop-color="#7B7375"/>
<stop offset="0.527344" stop-color="#7C7375"/>
<stop offset="0.53125" stop-color="#7C7475"/>
<stop offset="0.539062" stop-color="#7D7475"/>
<stop offset="0.542969" stop-color="#7E7475"/>
<stop offset="0.546875" stop-color="#7E7475"/>
<stop offset="0.550781" stop-color="#7F7475"/>
<stop offset="0.554688" stop-color="#7F7475"/>
<stop offset="0.558594" stop-color="#807475"/>
<stop offset="0.5625" stop-color="#807575"/>
<stop offset="0.570312" stop-color="#817575"/>
<stop offset="0.574219" stop-color="#827575"/>
<stop offset="0.578125" stop-color="#827575"/>
<stop offset="0.582031" stop-color="#837575"/>
<stop offset="0.585937" stop-color="#837575"/>
<stop offset="0.589844" stop-color="#847575"/>
<stop offset="0.59375" stop-color="#847675"/>
<stop offset="0.597656" stop-color="#857675"/>
<stop offset="0.601563" stop-color="#857675"/>
<stop offset="0.609375" stop-color="#867675"/>
<stop offset="0.613281" stop-color="#877675"/>
<stop offset="0.617188" stop-color="#877675"/>
<stop offset="0.621094" stop-color="#887675"/>
<stop offset="0.625" stop-color="#887775"/>
<stop offset="0.628906" stop-color="#897775"/>
<stop offset="0.632812" stop-color="#897775"/>
<stop offset="0.640625" stop-color="#8A7775"/>
<stop offset="0.644531" stop-color="#8B7775"/>
<stop offset="0.648438" stop-color="#8B7775"/>
<stop offset="0.652344" stop-color="#8C7875"/>
<stop offset="0.65625" stop-color="#8C7875"/>
<stop offset="0.660156" stop-color="#8D7875"/>
<stop offset="0.664062" stop-color="#8D7875"/>
<stop offset="0.671875" stop-color="#8E7875"/>
<stop offset="0.675781" stop-color="#8F7875"/>
<stop offset="0.679687" stop-color="#8F7875"/>
<stop offset="0.683594" stop-color="#907975"/>
<stop offset="0.6875" stop-color="#907975"/>
<stop offset="0.691406" stop-color="#917976"/>
<stop offset="0.695313" stop-color="#917976"/>
<stop offset="0.703125" stop-color="#927976"/>
<stop offset="0.707031" stop-color="#937976"/>
<stop offset="0.710938" stop-color="#937976"/>
<stop offset="0.714844" stop-color="#947A76"/>
<stop offset="0.71875" stop-color="#947A76"/>
<stop offset="0.722656" stop-color="#957A76"/>
<stop offset="0.726562" stop-color="#957A76"/>
<stop offset="0.730469" stop-color="#967A76"/>
<stop offset="0.734375" stop-color="#967A76"/>
<stop offset="0.742188" stop-color="#977A76"/>
<stop offset="0.746094" stop-color="#987B76"/>
<stop offset="0.75" stop-color="#987B76"/>
<stop offset="0.753906" stop-color="#997B76"/>
<stop offset="0.757812" stop-color="#997B76"/>
<stop offset="0.761719" stop-color="#9A7B76"/>
<stop offset="0.765625" stop-color="#9A7B76"/>
<stop offset="0.773437" stop-color="#9B7B76"/>
<stop offset="0.777344" stop-color="#9C7C76"/>
<stop offset="0.78125" stop-color="#9C7C76"/>
<stop offset="0.785156" stop-color="#9D7C76"/>
<stop offset="0.789063" stop-color="#9D7C76"/>
<stop offset="0.792969" stop-color="#9E7C76"/>
<stop offset="0.796875" stop-color="#9E7C76"/>
<stop offset="0.804688" stop-color="#9F7C76"/>
<stop offset="0.808594" stop-color="#9F7D76"/>
<stop offset="0.8125" stop-color="#A07D76"/>
<stop offset="0.816406" stop-color="#A07D76"/>
<stop offset="0.820312" stop-color="#A17D76"/>
<stop offset="0.824219" stop-color="#A17D76"/>
<stop offset="0.828125" stop-color="#A27D76"/>
<stop offset="0.832031" stop-color="#A27D76"/>
<stop offset="0.835938" stop-color="#A37E76"/>
<stop offset="0.84375" stop-color="#A37E76"/>
<stop offset="0.847656" stop-color="#A47E76"/>
<stop offset="0.851562" stop-color="#A57E76"/>
<stop offset="0.855469" stop-color="#A57E76"/>
<stop offset="0.859375" stop-color="#A67E76"/>
<stop offset="0.863281" stop-color="#A67F76"/>
<stop offset="0.867187" stop-color="#A77F76"/>
<stop offset="0.875" stop-color="#A77F76"/>
<stop offset="0.878906" stop-color="#A87F76"/>
<stop offset="0.882813" stop-color="#A97F76"/>
<stop offset="0.886719" stop-color="#A97F77"/>
<stop offset="0.890625" stop-color="#AA7F77"/>
<stop offset="0.894531" stop-color="#AA8077"/>
<stop offset="0.898438" stop-color="#AB8077"/>
<stop offset="0.90625" stop-color="#AB8077"/>
<stop offset="0.910156" stop-color="#AC8077"/>
<stop offset="0.914062" stop-color="#AD8077"/>
<stop offset="0.917969" stop-color="#AD8077"/>
<stop offset="0.921875" stop-color="#AE8077"/>
<stop offset="0.925781" stop-color="#AE8177"/>
<stop offset="0.929688" stop-color="#AF8177"/>
<stop offset="0.933594" stop-color="#AF8177"/>
<stop offset="0.9375" stop-color="#B08177"/>
<stop offset="0.945312" stop-color="#B08177"/>
<stop offset="0.949219" stop-color="#B18177"/>
<stop offset="0.953125" stop-color="#B28177"/>
<stop offset="0.957031" stop-color="#B28277"/>
<stop offset="0.960937" stop-color="#B38277"/>
<stop offset="0.964844" stop-color="#B38277"/>
<stop offset="0.96875" stop-color="#B48277"/>
<stop offset="0.976563" stop-color="#B48277"/>
<stop offset="0.980469" stop-color="#B58277"/>
<stop offset="0.984375" stop-color="#B68377"/>
<stop offset="0.988281" stop-color="#B68377"/>
<stop offset="0.992188" stop-color="#B78377"/>
<stop offset="0.996094" stop-color="#B78377"/>
<stop offset="1" stop-color="#F4F4F4"/>
</linearGradient>
</defs>
</svg>
