<?xml version="1.0" encoding="UTF-8"?>
<svg id="Layer_2" data-name="Layer 2" xmlns="http://www.w3.org/2000/svg" viewBox="0 0 331.49 227.79">
  <defs>
    <style>
      .cls-1 {
        fill: #d75c47;
      }

      .cls-1, .cls-2, .cls-3, .cls-4, .cls-5, .cls-6, .cls-7, .cls-8, .cls-9, .cls-10, .cls-11, .cls-12 {
        stroke-width: 0px;
      }

      .cls-2 {
        fill: #825f40;
      }

      .cls-3 {
        fill: #4aa4b6;
      }

      .cls-4 {
        fill: #404041;
      }

      .cls-5 {
        fill: #fcf3e5;
      }

      .cls-6 {
        fill: #bc9b72;
      }

      .cls-7, .cls-8 {
        fill: #c7ab87;
      }

      .cls-13 {
        stroke-width: 5.91px;
      }

      .cls-13, .cls-14 {
        stroke: #4aa4b6;
      }

      .cls-13, .cls-14, .cls-15, .cls-16, .cls-17 {
        fill: none;
        stroke-miterlimit: 10;
      }

      .cls-13, .cls-15 {
        stroke-linecap: round;
      }

      .cls-14 {
        stroke-dasharray: 0 0 0 0 0 0 7.92 5.94 7.92 5.94 7.92 5.94;
      }

      .cls-14, .cls-15 {
        stroke-width: 2.97px;
      }

      .cls-14, .cls-15, .cls-8 {
        fill-rule: evenodd;
      }

      .cls-15 {
        stroke: #aed6de;
      }

      .cls-16 {
        stroke: #404041;
        stroke-width: 1.29px;
      }

      .cls-9 {
        fill: #a78966;
      }

      .cls-17 {
        stroke: #ccc;
        stroke-width: 14.43px;
      }

      .cls-10 {
        fill: #ccc;
      }

      .cls-11 {
        fill: #fff;
      }

      .cls-12 {
        fill: #efeff0;
      }
    </style>
  </defs>
  <g id="Layer_1-2" data-name="Layer 1">
    <g>
      <g>
        <path class="cls-17" d="M168.21,213.96c-50.2,0-90.89-40.69-90.89-90.89,0-39.45,25.14-73.04,60.27-85.6"/>
        <polygon class="cls-10" points="135.8 60.68 168.21 32.18 127.33 18.35 135.8 60.68"/>
      </g>
      <g>
        <path class="cls-17" d="M182.64,32.18c50.2,0,90.89,40.69,90.89,90.89,0,39.45-25.14,73.04-60.27,85.6"/>
        <polygon class="cls-10" points="215.05 185.46 182.64 213.96 223.52 227.79 215.05 185.46"/>
      </g>
      <g>
        <g>
          <path class="cls-6" d="M265.39,29.09c0-1.62-.14-3.22-.39-4.77,0-.01,0-.02,0-.03h0c-2.27-13.78-14.12-24.29-28.41-24.29-15.91,0-28.81,13.03-28.81,29.11,0,2.45.3,4.82.87,7.09.02.4.12.81.33,1.23,0,0,0,.02.01.02.88,2.98,2.22,5.76,3.94,8.26,3.21,7.36,4.59,13.57.5,18.01-3.13,3.21-5.05,7.53-5.05,12.3,0,9.88,8.24,17.89,18.4,17.89,3.95,0,7.61-1.21,10.61-3.28,27.26-14.73,29.23-43.01,28-61.55Z"/>
          <path class="cls-2" d="M230.63,56.67c-2.17.23-3.74,2.17-3.51,4.33.23,2.17,2.17,3.74,4.33,3.51,6.49-.68,11.22-6.51,10.54-13-.53-5.11-4.27-9.13-9.01-10.28l-1.3-12.45c-.38-3.61,2.25-6.85,5.86-7.22,3.61-.38,6.85,2.25,7.22,5.86.23,2.17,2.17,3.74,4.33,3.51,2.17-.23,3.74-2.17,3.51-4.33-.83-7.93-7.96-13.71-15.89-12.88-7.93.83-13.71,7.96-12.88,15.89l1.64,15.69c.23,2.17,2.17,3.74,4.33,3.51,2.16-.23,4.11,1.35,4.33,3.51.23,2.16-1.35,4.11-3.51,4.33Z"/>
        </g>
        <path class="cls-13" d="M276.22,33.68c8.45,8.45,8.45,22.16,0,30.61"/>
        <g>
          <path class="cls-6" d="M228.94,93.8c3.12-.36,6.01-1.47,8.45-3.15,2.63-1.42,5.03-2.97,7.21-4.63,0,0-3.49-3.01-7.88-.86-3.45,1.69-8.09,8.67-7.78,8.64Z"/>
          <path class="cls-2" d="M230.63,56.67c-2.17.23-3.74,2.17-3.51,4.33.23,2.17,2.17,3.74,4.33,3.51,6.49-.68,11.22-6.51,10.54-13-.53-5.11-4.27-9.13-9.01-10.28l-1.3-12.45c-.38-3.61,2.25-6.85,5.86-7.22,3.61-.38,6.85,2.25,7.22,5.86.23,2.17,2.17,3.74,4.33,3.51,2.17-.23,3.74-2.17,3.51-4.33-.83-7.93-7.96-13.71-15.89-12.88-7.93.83-13.71,7.96-12.88,15.89l1.64,15.69c.23,2.17,2.17,3.74,4.33,3.51,2.16-.23,4.11,1.35,4.33,3.51.23,2.16-1.35,4.11-3.51,4.33Z"/>
        </g>
        <path class="cls-13" d="M287.33,22.57c14.59,14.59,14.59,38.24,0,52.83"/>
      </g>
      <g>
        <path class="cls-11" d="M199.08,120.3c-13.84,0-24.64,9.81-37.86,25.71,11.41,13.6,20.97,25.73,37.86,25.73s29.33-15.35,37.88-25.44c-8.75-11.8-21.18-25.99-37.88-25.99Z"/>
        <path class="cls-12" d="M161.57,146.42c11.25,13.43,20.79,25.31,37.51,25.31s29.22-15.22,37.77-25.31h-75.28Z"/>
        <path class="cls-3" d="M199.09,131.03c-8.28,0-14.99,6.71-14.99,14.99s6.71,14.98,14.99,14.98,14.98-6.71,14.98-14.98-6.71-14.99-14.98-14.99Z"/>
        <path class="cls-4" d="M199.09,139.14c-3.8,0-6.87,3.08-6.87,6.87s3.07,6.86,6.87,6.86,6.87-3.07,6.87-6.86-3.08-6.87-6.87-6.87Z"/>
        <path class="cls-5" d="M194.23,139.13c-1.12,0-2.03.91-2.03,2.03s.91,2.02,2.03,2.02,2.03-.91,2.03-2.02-.91-2.03-2.03-2.03Z"/>
        <path class="cls-11" d="M293.14,120.3c13.84,0,24.64,9.81,37.86,25.71-11.41,13.6-20.97,25.73-37.86,25.73-16.91,0-29.33-15.35-37.88-25.44,8.75-11.8,21.18-25.99,37.88-25.99Z"/>
        <path class="cls-12" d="M330.65,146.42c-11.25,13.43-20.79,25.31-37.51,25.31-16.83,0-29.22-15.22-37.77-25.31h75.28Z"/>
        <path class="cls-3" d="M293.52,131.03c-8.28,0-14.99,6.71-14.99,14.99s6.71,14.98,14.99,14.98,14.98-6.71,14.98-14.98-6.71-14.99-14.98-14.99Z"/>
        <path class="cls-4" d="M293.52,139.14c-3.8,0-6.87,3.08-6.87,6.87s3.07,6.86,6.87,6.86,6.87-3.07,6.87-6.86-3.08-6.87-6.87-6.87Z"/>
        <path class="cls-5" d="M288.67,139.13c-1.12,0-2.03.91-2.03,2.03s.91,2.02,2.03,2.02,2.03-.91,2.03-2.02-.91-2.03-2.03-2.03Z"/>
        <path class="cls-16" d="M236.96,146.29c-8.75-11.8-21.18-25.99-37.88-25.99-13.84,0-24.64,9.81-37.86,25.71"/>
        <path class="cls-16" d="M255.26,146.29c8.75-11.8,21.18-25.99,37.88-25.99,13.84,0,24.64,9.81,37.86,25.71"/>
      </g>
      <g>
        <path class="cls-15" d="M6.37,145.19c-2.17,12.13,2.05,20.67,12.7,26.96"/>
        <g>
          <path class="cls-14" d="M5.2,99.38c14.47-34.56,64.69-52.08,104.74-23.98"/>
          <path class="cls-15" d="M122.72,114.09c3.63,15.47-1.32,26.53-14.84,34.92"/>
          <path class="cls-15" d="M112.07,156.27c11.79-3.59,17.47-11.24,18.22-23.59"/>
          <path class="cls-15" d="M33.23,171.05c-14.43-6.64-20.11-17.36-18.41-33.18"/>
          <path class="cls-3" d="M112.3,71.11c.04-.11.16-.19.29-.19.13,0,.23.09.26.21l1.83,8.14c.02.08,0,.17-.06.23-.06.07-.14.1-.23.1l-8.81-.22c-.06,0-.12-.02-.17-.06-.05-.04-.08-.09-.09-.14-.03-.12.03-.24.14-.3l6.84-7.77Z"/>
          <path class="cls-3" d="M10.12,100.78c.13,0,.24.09.26.2.03.12-.03.24-.14.3l-7.75,4.16c-.08.04-.17.05-.25.01-.08-.03-.14-.1-.16-.18L0,97.19c-.01-.06,0-.12.02-.17.02-.05.07-.1.12-.13.11-.06.25-.05.34.04l9.63,3.85Z"/>
          <path class="cls-8" d="M78.83,126.28l-14.12-5.32-15.28.21-6.18,1.69c1.17,9.5-.12,11.12-1.64,12.78-1.52,1.66-4.64,1.56-7.22-4.87-2.58-6.43,2.25,16.89,2.25,16.89l10.87,45.35,4.68,19.77c10.46,1.58,21.37,1.32,32.31-1.11,4.03-.89,7.92-2.07,11.69-3.46l-12.16-39.08,5.58-35.88-10.78-6.96Z"/>
          <path class="cls-1" d="M102.99,109.87c1.14-2.42,3.7-3.59,5.7-2.63,2.01.96,2.71,3.7,1.57,6.12-1.14,2.42-2.83,1.76-4.84.8-2.01-.96-3.58-1.87-2.43-4.29Z"/>
          <path class="cls-1" d="M86.33,88.79c.62-2.6,2.88-4.28,5.04-3.75,2.16.53,3.41,3.07,2.79,5.66-.63,2.6-2.41,2.3-4.57,1.78-2.16-.53-3.89-1.1-3.26-3.7Z"/>
          <path class="cls-1" d="M64.05,76.85c.62-2.6,2.88-4.27,5.04-3.75,2.16.53,3.41,3.07,2.79,5.66-.63,2.6-2.41,2.3-4.57,1.78-2.16-.53-3.89-1.1-3.26-3.7Z"/>
          <path class="cls-1" d="M40.38,84.74c-.28-2.66,1.29-4.99,3.51-5.21,2.22-.22,4.24,1.76,4.52,4.41.28,2.66-1.5,2.97-3.72,3.2-2.22.22-4.03.26-4.31-2.4Z"/>
          <path class="cls-7" d="M78.66,137.13c-1.07.24-2.21.2-3.33-.15-3.4-1.07-5.28-4.69-4.21-8.09l11.96-37.98c1.07-3.4,4.69-5.28,8.09-4.22,3.4,1.07,5.28,4.69,4.21,8.09l-11.96,37.98c-.72,2.28-2.59,3.88-4.76,4.36Z"/>
          <path class="cls-7" d="M65.83,130.77c-.61.13-1.25.18-1.9.13-3.55-.28-6.2-3.38-5.92-6.94l3.39-43.13c.28-3.55,3.39-6.2,6.94-5.92,3.55.28,6.2,3.38,5.92,6.94l-3.39,43.13c-.23,2.9-2.34,5.2-5.03,5.79Z"/>
          <path class="cls-7" d="M51.57,132.77c-.17.04-.33.07-.5.09-3.53.5-6.79-1.96-7.28-5.49l-5.46-38.85c-.5-3.53,1.98-6.78,5.49-7.29,3.53-.5,6.79,1.96,7.28,5.49l5.46,38.85c.47,3.36-1.73,6.47-4.98,7.2Z"/>
          <path class="cls-7" d="M70.26,202.9c-11,2.44-18.42-2.52-21.08-5.86-.54-.68-.94-1.46-1.17-2.3l-5.81-20.93-12.44-19.65c-.24-.37-.44-.77-.59-1.19l-11.67-31.18c-1.25-3.34.44-7.05,3.78-8.3,3.33-1.24,7.05.44,8.3,3.78l11.43,30.55,12.6,19.89c.34.53.6,1.12.77,1.72l5.56,20.03c1.17.75,3.7,1.72,7.7.8,4.41-1.02,6.79-4.04,7.85-5.88l-4-14.7c-.35-1.27-.29-2.62.15-3.86l7.77-21.8c.16-.44.36-.86.61-1.25l19.62-31.4c1.89-3.02,5.87-3.94,8.89-2.05,3.02,1.89,3.94,5.87,2.05,8.89l-19.25,30.81-6.85,19.24,4.08,15c.33,1.22.3,2.52-.1,3.72-1.56,4.71-7.09,13.35-17.9,15.85-.09.02-.18.04-.27.06Z"/>
          <path class="cls-1" d="M15.99,117.03s.56,2.4,1.06,3.78l1.06,2.89,1.89-.95c-1.13-4.07-2.76-6.08-4.01-5.72Z"/>
          <path class="cls-9" d="M68.37,160.54c-.33.07-.67-.08-.82-.4-.09-.18-8.91-17.86-22.48-19.65-.41-.05-.69-.43-.64-.83.05-.41.42-.69.83-.64,14.35,1.9,23.24,19.71,23.61,20.47.18.37.03.81-.34.99-.05.03-.11.05-.17.06Z"/>
          <path class="cls-9" d="M83.38,149.85c-.09.02-.19.02-.29,0-1-.18-24.53-4.56-36.16-17.2-.28-.3-.26-.77.04-1.05.3-.27.77-.26,1.04.04,11.3,12.27,35.1,16.7,35.34,16.75.4.07.67.46.6.86-.05.3-.29.53-.57.59Z"/>
        </g>
      </g>
    </g>
  </g>
</svg>