<?xml version="1.0" encoding="UTF-8"?>
<svg id="Layer_2" data-name="Layer 2" xmlns="http://www.w3.org/2000/svg" viewBox="0 0 330.43 228.18">
  <defs>
    <style>
      .cls-1 {
        stroke-width: 5.25px;
      }

      .cls-1, .cls-2 {
        fill: #c9e4e9;
        stroke: #fff;
      }

      .cls-1, .cls-2, .cls-3 {
        stroke-miterlimit: 10;
      }

      .cls-4 {
        fill: #404041;
      }

      .cls-4, .cls-5, .cls-6, .cls-7, .cls-8 {
        stroke-width: 0px;
      }

      .cls-2 {
        stroke-width: 5.5px;
      }

      .cls-9 {
        stroke: #e6953e;
      }

      .cls-9, .cls-3, .cls-10 {
        fill: none;
        stroke-linecap: round;
      }

      .cls-9, .cls-10 {
        stroke-linejoin: round;
        stroke-width: 1.49px;
      }

      .cls-5 {
        fill: #ebedee;
      }

      .cls-6 {
        fill: #babcbf;
      }

      .cls-7 {
        fill: #97569b;
      }

      .cls-8 {
        fill: #f5c345;
      }

      .cls-3 {
        stroke: #f5c345;
        stroke-width: 4.84px;
      }

      .cls-10 {
        stroke: #b9bbbd;
      }
    </style>
  </defs>
  <g id="Layer_1-2" data-name="Layer 1">
    <g>
      <g>
        <path class="cls-1" d="M327.8,101.25c0,8.08-6.61,14.69-14.69,14.69h-24.68v39.37l-39.22-39.37h-73.74c-8.08,0-14.69-6.61-14.69-14.69V23.11c0-8.08,6.61-14.69,14.69-14.69h137.63c8.08,0,14.69,6.61,14.69,14.69v78.15Z"/>
        <g id="Layer_1-2" data-name="Layer 1-2">
          <g>
            <path class="cls-7" d="M228.22,36.86c-2.47-2.7-7.49-6.65-11.51-9.29-1.19,1.1-2.37,2.2-3.44,3.28,4.05,2.87,8.98,7.07,11.21,9.8,1.17-1.22,2.46-2.45,3.74-3.79ZM226.51,75.96c-.31-9.66-.73-19.3-1.03-28.84-5.13.13-10.35.51-15.47.76.2,1.65.16,3.33.34,4.87,3.33-.16,6.78-.33,10.23-.5.36,8.1.71,16.07,1.06,24.05.14,3.21-2.17,5.88-3.49,6.88,1.06.83,2.61,2.8,3.22,3.93,1.14-1.45,2.73-3.2,14.54-12.61-.72-.99-1.66-2.91-2.18-4.29-2.41,1.84-4.82,3.8-7.22,5.76h0ZM266.72,81c-7.8-.15-15.58-.19-23.35-.1-.06-4.54-.12-9.08-.16-13.5,7.89-.1,15.91-.09,23.84.17-.06,4.55-.25,9.01-.31,13.56h0v-.12ZM277.34,51.5c.04-1.68.09-3.24.13-4.92-6.5-.31-12.97-.38-19.56-.43.07-4.44.14-8.87.1-13.3,5.87-.94,11.51-1.84,16.04-2.98-1.24-1.41-2.62-2.92-3.86-4.33-8.7,2.35-24.13,4.42-37.11,5.96.61,1.12,1.56,3.05,1.82,4.21,5.55-.66,11.57-1.37,17.59-2.08.02,4.19.02,8.26-.08,12.46-6.22.02-12.56.05-18.89.2.08,1.67.04,3.35.1,4.89,6.21-.14,12.41-.27,18.65-.18-.02,3.83-.05,7.67-.07,11.5-4.91-.02-9.82-.03-14.71.07.18,8.6.36,17.19.54,25.79,1.67-.08,3.46-.05,5.14-.01-.11-.94.03-1.8-.09-2.74,7.77-.08,15.43-.03,23.11.13-.02.84-.04,1.68-.06,2.52,1.8.03,3.6.05,5.41.2.3-8.53.51-16.93.81-25.47-4.92-.13-9.96-.25-14.89-.39.02-3.83.05-7.67.07-11.5,6.47.07,12.96.26,19.32.46l.47-.06Z"/>
            <path class="cls-7" d="M228.22,36.86c-2.47-2.7-7.49-6.65-11.51-9.29-1.19,1.1-2.37,2.2-3.44,3.28,4.05,2.87,8.98,7.07,11.21,9.8,1.17-1.22,2.46-2.45,3.74-3.79ZM226.51,75.96c-.31-9.66-.73-19.3-1.03-28.84-5.13.13-10.35.51-15.47.76.2,1.65.16,3.33.34,4.87,3.33-.16,6.78-.33,10.23-.5.36,8.1.71,16.07,1.06,24.05.14,3.21-2.17,5.88-3.49,6.88,1.06.83,2.61,2.8,3.22,3.93,1.14-1.45,2.73-3.2,14.54-12.61-.72-.99-1.66-2.91-2.18-4.29-2.41,1.84-4.82,3.8-7.22,5.76h0ZM266.72,81c-7.8-.15-15.58-.19-23.35-.1-.06-4.54-.12-9.08-.16-13.5,7.89-.1,15.91-.09,23.84.17-.06,4.55-.25,9.01-.31,13.56h0v-.12ZM277.34,51.5c.04-1.68.09-3.24.13-4.92-6.5-.31-12.97-.38-19.56-.43.07-4.44.14-8.87.1-13.3,5.87-.94,11.51-1.84,16.04-2.98-1.24-1.41-2.62-2.92-3.86-4.33-8.71,2.23-24.13,4.42-37.11,5.96.61,1.12,1.56,3.05,1.82,4.21,5.55-.66,11.57-1.37,17.59-2.08.02,4.19.02,8.26-.08,12.46-6.22.02-12.56.05-18.89.2.08,1.67.04,3.35.1,4.89,6.21-.14,12.41-.27,18.65-.18-.02,3.83-.05,7.67-.07,11.5-4.91-.02-9.8.09-14.71.07.18,8.6.36,17.19.54,25.79,1.67-.08,3.46-.05,5.14-.01-.11-.94.03-1.8-.09-2.74,7.77-.08,15.43-.03,23.11.13-.02.84-.04,1.68-.06,2.52,1.8.03,3.6.05,5.41.2.3-8.53.51-16.93.81-25.47-4.92-.13-9.96-.25-14.89-.39.02-3.83.05-7.67.07-11.5,6.47.07,12.96.26,19.32.46h0l.47-.06Z"/>
          </g>
        </g>
      </g>
      <g>
        <path class="cls-2" d="M28.83,164.89c0,8.46,6.93,15.39,15.39,15.39h25.85v41.24s41.08-41.24,41.08-41.24h77.25c8.46,0,15.39-6.92,15.39-15.39v-81.86c0-8.46-6.93-15.39-15.39-15.39H44.22c-8.46,0-15.39,6.92-15.39,15.39v81.86Z"/>
        <path class="cls-7" d="M129.43,102.65h12.96v51.73h-12.96v-5.46c-5.07,4.77-10.04,6.82-15.98,6.82-6.72,0-12.47-2.63-17.34-7.79-4.87-5.16-7.31-11.69-7.31-19.39s2.34-14.52,7.01-19.58c4.77-5.16,10.52-7.7,17.24-7.7,6.24,0,11.69,2.34,16.37,7.01v-5.65ZM115.79,113.27c-3.99,0-7.4,1.46-10.04,4.29-2.63,2.83-3.99,6.53-3.99,10.91s1.36,8.18,3.99,11.11c2.73,2.82,6.04,4.29,10.04,4.29s7.5-1.46,10.13-4.29c2.73-2.83,4.09-6.63,4.09-11.2,0-8.96-6.04-15.1-14.22-15.1Z"/>
      </g>
      <g>
        <polygon class="cls-4" points="52.2 119.9 52.2 119.9 53.45 119.97 54.71 120.04 55.96 120.25 57.08 120.45 58.19 120.81 59.24 121.15 60.21 121.57 61.12 121.99 61.89 122.55 62.65 123.1 63.28 123.73 63.84 124.36 64.26 124.99 64.54 125.68 64.74 126.45 64.81 127.15 64.81 127.15 64.74 127.92 64.54 128.61 64.26 129.31 63.84 130.01 63.28 130.64 62.65 131.19 61.89 131.82 61.12 132.31 60.21 132.8 59.24 133.22 58.19 133.56 57.08 133.84 55.96 134.12 54.71 134.26 53.45 134.4 52.2 134.4 52.2 134.4 50.94 134.4 49.68 134.26 48.43 134.12 47.31 133.84 46.2 133.56 45.15 133.22 44.18 132.8 43.27 132.31 42.5 131.82 41.74 131.19 41.11 130.64 40.55 130.01 40.13 129.31 39.85 128.61 39.65 127.92 39.58 127.15 39.58 127.15 39.65 126.45 39.85 125.68 40.13 124.99 40.55 124.36 41.11 123.73 41.74 123.1 42.5 122.55 43.27 121.99 44.18 121.57 45.15 121.15 46.2 120.81 47.31 120.45 48.43 120.25 49.68 120.04 50.94 119.97 52.2 119.9 52.2 119.9 52.2 119.9"/>
        <polygon class="cls-5" points="37.07 121.08 66.49 121.08 66.49 124.15 37.07 124.15 37.07 121.08 37.07 121.08"/>
        <polygon class="cls-6" points="37.07 125.83 37.07 125.83 37.14 126.52 37.27 127.15 66.28 127.15 66.28 127.15 66.42 126.52 66.49 125.83 66.49 124.08 37.07 124.08 37.07 125.83 37.07 125.83 37.07 125.83"/>
        <polygon class="cls-5" points="42.29 131.05 61.33 131.05 61.33 131.05 62.23 130.98 63.07 130.7 63.84 130.36 64.54 129.94 65.09 129.38 65.65 128.68 66.07 127.99 66.35 127.15 37.34 127.15 37.34 127.15 37.62 127.99 37.97 128.68 38.46 129.38 39.09 129.94 39.78 130.36 40.55 130.7 41.39 130.98 42.29 131.05 42.29 131.05 42.29 131.05"/>
        <polygon class="cls-6" points="37.07 118.02 66.49 118.02 66.49 121.08 37.07 121.08 37.07 118.02 37.07 118.02"/>
        <polygon class="cls-6" points="37.07 108.81 66.49 108.81 66.49 115.02 37.07 115.02 37.07 108.81 37.07 108.81"/>
        <polygon class="cls-5" points="37.07 115.02 66.49 115.02 66.49 118.09 37.07 118.09 37.07 115.02 37.07 115.02"/>
        <polygon class="cls-8" points="86.15 59.94 86.15 59.94 86.08 58.2 85.94 56.52 85.73 54.78 85.45 53.1 85.03 51.5 84.62 49.9 84.06 48.3 83.43 46.76 82.8 45.23 82.04 43.76 81.2 42.37 80.36 40.98 79.39 39.65 78.41 38.39 77.29 37.14 76.18 35.95 74.99 34.84 73.81 33.79 72.48 32.75 71.16 31.84 69.76 30.93 68.37 30.1 66.91 29.4 65.37 28.7 63.84 28.08 62.3 27.52 60.7 27.1 59.03 26.68 57.35 26.4 55.68 26.19 53.94 26.05 52.2 26.05 52.2 26.05 50.45 26.05 48.71 26.19 47.04 26.4 45.36 26.68 43.69 27.1 42.09 27.52 40.55 28.08 39.02 28.7 37.48 29.4 36.02 30.1 34.63 30.93 33.23 31.84 31.91 32.75 30.58 33.79 29.4 34.84 28.21 35.95 27.1 37.14 25.98 38.39 25 39.65 24.03 40.98 23.19 42.37 22.35 43.76 21.59 45.23 20.96 46.76 20.33 48.3 19.77 49.9 19.36 51.5 18.94 53.1 18.66 54.78 18.45 56.52 18.31 58.2 18.24 59.94 18.24 59.94 18.31 62.17 18.52 64.26 18.87 66.21 19.36 68.09 19.91 69.91 20.61 71.72 21.31 73.39 22.15 75.07 23.05 76.74 23.96 78.35 25.98 81.62 28 85.04 29.05 86.78 30.09 88.59 30.09 88.59 30.44 89.43 30.86 90.41 31.21 91.59 31.56 92.92 32.25 95.84 32.81 98.84 33.3 101.63 33.65 103.93 33.93 106.16 33.93 106.16 33.93 106.79 34.07 107.35 34.21 107.91 34.42 108.46 34.63 108.95 34.97 109.51 35.25 109.93 35.67 110.35 36.09 110.77 36.58 111.11 37.07 111.39 37.55 111.6 38.11 111.81 38.67 111.95 39.23 112.09 39.85 112.09 64.61 112.09 64.61 112.09 65.23 112.09 65.79 111.95 66.35 111.81 66.91 111.6 67.39 111.39 67.88 111.11 68.37 110.77 68.79 110.35 69.14 109.93 69.49 109.51 69.83 108.95 70.04 108.46 70.25 107.91 70.39 107.35 70.53 106.79 70.53 106.16 70.53 106.16 70.81 103.93 71.16 101.63 71.65 98.84 72.2 95.84 72.9 92.92 73.25 91.59 73.6 90.41 74.02 89.43 74.37 88.59 74.37 88.59 75.41 86.78 76.39 85.04 78.48 81.62 80.43 78.35 81.34 76.74 82.24 75.07 83.08 73.39 83.78 71.72 84.48 69.91 85.03 68.09 85.52 66.21 85.87 64.26 86.08 62.17 86.15 59.94 86.15 59.94 86.15 59.94"/>
        <path class="cls-10" d="M45.86,112.09c0-35.6-8.16-55.78-8.16-55.78"/>
        <path class="cls-10" d="M57.7,112.09c0-35.6,8.16-55.78,8.16-55.78"/>
        <path class="cls-9" d="M54.34,57.16c0,3.71-3,6.71-6.71,6.71s-6.71-3-6.71-6.71c0-1.14.38-4.19,2.5-4.19s2.66,2.95,2.66,4.2c0,4.25-3.52,6.36-7.63,6.95"/>
        <path class="cls-9" d="M62.6,57.16c0,3.71-3,6.71-6.71,6.71s-6.71-3-6.71-6.71c0-1.14.38-4.19,2.5-4.19s2.66,2.95,2.66,4.21"/>
        <path class="cls-9" d="M64.14,63.87c-3.71,0-6.71-3-6.71-6.71,0-1.14.38-4.19,2.5-4.19s2.66,2.95,2.66,4.21"/>
        <line class="cls-3" x1="51.78" y1="14.54" x2="51.78" y2="2.42"/>
        <line class="cls-3" x1="68.93" y1="17.8" x2="73.15" y2="6.43"/>
        <line class="cls-3" x1="82.85" y1="27.26" x2="92.28" y2="19.64"/>
        <line class="cls-3" x1="91.85" y1="40.31" x2="103.79" y2="38.22"/>
        <line class="cls-3" x1="14.36" y1="40.42" x2="2.42" y2="38.33"/>
        <line class="cls-3" x1="22.06" y1="27.26" x2="12.63" y2="19.64"/>
        <line class="cls-3" x1="34.39" y1="17.8" x2="30.18" y2="6.43"/>
      </g>
    </g>
  </g>
</svg>