<svg width="201" height="137" viewBox="0 0 201 137" fill="none" xmlns="http://www.w3.org/2000/svg">
<path d="M60.9353 30.5024L0.0102539 44.4399L13.9478 105.365L74.8728 91.4274L60.9353 30.5024Z" fill="#F5C445"/>
<path d="M74.8 91.3951L0 44.3951L60.9 30.4951L74.8 91.3951Z" fill="#F8CE65"/>
<path d="M38.6809 47.14L44.5975 45.7865L50.0015 69.4087L44.0848 70.7622L43.5149 68.271C41.7003 70.98 39.6452 72.4332 36.9315 73.054C33.862 73.7562 30.9625 73.1555 28.1988 71.3066C25.4351 69.4577 23.6411 66.7315 22.8371 63.2171C22.0026 59.5692 22.3885 56.3444 23.9946 53.5426C25.6351 50.6862 27.9951 48.9291 31.0647 48.2269C33.9118 47.5756 36.6473 48.0734 39.2711 49.7202L38.6809 47.14ZM33.5621 53.4138C31.7381 53.831 30.3338 54.8545 29.4278 56.4194C28.5218 57.9843 28.2857 59.8172 28.7436 61.8191C29.2118 63.8655 30.2213 65.4135 31.7277 66.4733C33.2685 67.4784 34.9337 67.7997 36.7576 67.3825C38.626 66.955 40.0304 65.9315 40.9364 64.3667C41.8869 62.7916 42.1128 60.9142 41.6345 58.8233C40.6982 54.7306 37.2989 52.5589 33.5621 53.4138Z" fill="black"/>
<path d="M140 1.39502H75.6001V65.795H140V1.39502Z" fill="#3370B9"/>
<path d="M75.6001 65.795V1.39502H140L75.6001 65.795Z" fill="#004CA8"/>
<path d="M120.974 27.3172H100.785C101.397 30.8938 104.032 33.1057 107.986 33.1057C110.292 33.1057 112.315 32.3056 114.009 30.6585L119.28 33.1527C116.645 36.9176 113.068 38.6589 108.033 38.6589C104.127 38.6589 100.926 37.4353 98.4322 34.941C95.9379 32.4468 94.7144 29.3408 94.7144 25.623C94.7144 21.811 95.9379 18.6579 98.3851 16.1637C100.879 13.6224 103.938 12.3518 107.656 12.3518C111.609 12.3518 114.809 13.6224 117.257 16.1637C119.751 18.6579 120.974 21.9993 120.974 26.1406V27.3172ZM114.668 22.3757C113.868 19.5991 111.186 17.6696 107.986 17.6696C106.244 17.6696 104.691 18.1403 103.374 19.1285C102.574 19.7403 101.774 20.8227 101.068 22.3757H114.668Z" fill="white"/>
<path d="M101.289 84.594L55.749 91.0708L62.2258 136.611L107.766 130.134L101.289 84.594Z" fill="#A2499C"/>
<path d="M107.8 130.095L62.3003 136.595L101.3 84.5947L107.8 130.095Z" fill="#AB5BA6"/>
<path d="M79.516 95.3889C84.4855 94.5465 89.6753 98.3548 90.2138 103.334C91.023 108.308 87.3382 113.412 82.1599 113.979C79.6325 114.338 77.3431 113.748 75.2919 112.208C73.2692 110.629 72.0592 108.562 71.695 106.001C71.3024 103.241 71.969 100.771 73.7375 98.6536C75.273 96.8067 77.2214 95.7153 79.516 95.3889ZM80.1785 99.5697C78.815 99.7636 77.7172 100.395 76.9232 101.492C76.1625 102.584 75.8672 103.847 76.08 105.344C76.3023 106.907 76.9429 108.071 77.978 108.908C79.013 109.744 80.2432 110.044 81.6067 109.851C84.4002 109.453 86.1594 107.032 85.7242 103.972C85.2938 100.946 82.972 99.1724 80.1785 99.5697Z" fill="white"/>
<path d="M174 74.5947H115V133.595H174V74.5947Z" fill="#D85C47"/>
<path d="M173.9 133.595H115V74.5947L173.9 133.595Z" fill="#DB6C54"/>
<path d="M134.414 85.42H140.23V96.4489C140.23 98.5599 140.359 100.068 140.661 100.886C141.221 102.567 142.599 103.557 144.495 103.557C146.391 103.557 147.726 102.61 148.415 100.843C148.631 100.197 148.76 98.7753 148.76 96.6212V85.42H154.533V95.1134C154.533 99.12 154.231 101.834 153.585 103.299C152.034 106.918 149.062 108.9 144.452 108.9C139.411 108.9 136.309 106.53 135.103 102.523C134.629 101.102 134.414 98.603 134.414 94.941V85.42Z" fill="white"/>
<path d="M200.424 40.2111L155.063 32.5659L147.418 77.9265L192.779 85.5717L200.424 40.2111Z" fill="#2BAAB7"/>
<path d="M192.8 85.4948L155.1 32.5947L200.4 40.1947L192.8 85.4948Z" fill="#0099A8"/>
<path d="M177.669 40.6017C179.225 40.8641 180.266 42.3682 179.998 43.9582C179.73 45.5482 178.226 46.5892 176.736 46.338C175.146 46.07 174.105 44.5659 174.378 42.9428C174.641 41.3859 176.079 40.3337 177.669 40.6017ZM174.226 47.4821L178.665 48.2302L175.701 65.8196L171.262 65.0715L174.226 47.4821Z" fill="white"/>
</svg>
