<?xml version="1.0" encoding="UTF-8"?>
<svg id="Layer_2" data-name="Layer 2" xmlns="http://www.w3.org/2000/svg" xmlns:xlink="http://www.w3.org/1999/xlink" viewBox="0 0 125.28 93.36">
  <defs>
    <style>
      .cls-1 {
        fill: #939598;
      }

      .cls-1, .cls-2 {
        stroke-width: 0px;
      }

      .cls-3 {
        filter: url(#drop-shadow-8);
      }

      .cls-3, .cls-4, .cls-5, .cls-6 {
        stroke: #939598;
      }

      .cls-3, .cls-4, .cls-5, .cls-6, .cls-7, .cls-8, .cls-9, .cls-10, .cls-11, .cls-12 {
        stroke-miterlimit: 10;
      }

      .cls-3, .cls-4, .cls-5, .cls-7, .cls-8, .cls-9, .cls-10, .cls-11 {
        fill: #fff;
      }

      .cls-4 {
        filter: url(#drop-shadow-1);
      }

      .cls-5 {
        filter: url(#drop-shadow-4);
      }

      .cls-6, .cls-12 {
        fill: none;
      }

      .cls-7 {
        filter: url(#drop-shadow-5);
      }

      .cls-7, .cls-8, .cls-9, .cls-10, .cls-11 {
        stroke: #595a5c;
      }

      .cls-8 {
        filter: url(#drop-shadow-7);
      }

      .cls-9 {
        filter: url(#drop-shadow-3);
      }

      .cls-10 {
        filter: url(#drop-shadow-2);
      }

      .cls-11 {
        filter: url(#drop-shadow-6);
      }

      .cls-12 {
        stroke: #c4202e;
      }

      .cls-13 {
        isolation: isolate;
      }

      .cls-2 {
        fill: #c4202e;
      }
    </style>
    <filter id="drop-shadow-1" filterUnits="userSpaceOnUse">
      <feOffset dx="3" dy="3"/>
      <feGaussianBlur result="blur" stdDeviation="2"/>
      <feFlood flood-color="#231f20" flood-opacity=".1"/>
      <feComposite in2="blur" operator="in"/>
      <feComposite in="SourceGraphic"/>
    </filter>
    <filter id="drop-shadow-2" filterUnits="userSpaceOnUse">
      <feOffset dx="3" dy="3"/>
      <feGaussianBlur result="blur-2" stdDeviation="2"/>
      <feFlood flood-color="#231f20" flood-opacity=".1"/>
      <feComposite in2="blur-2" operator="in"/>
      <feComposite in="SourceGraphic"/>
    </filter>
    <filter id="drop-shadow-3" filterUnits="userSpaceOnUse">
      <feOffset dx="3" dy="3"/>
      <feGaussianBlur result="blur-3" stdDeviation="2"/>
      <feFlood flood-color="#231f20" flood-opacity=".1"/>
      <feComposite in2="blur-3" operator="in"/>
      <feComposite in="SourceGraphic"/>
    </filter>
    <filter id="drop-shadow-4" filterUnits="userSpaceOnUse">
      <feOffset dx="3" dy="3"/>
      <feGaussianBlur result="blur-4" stdDeviation="2"/>
      <feFlood flood-color="#231f20" flood-opacity=".1"/>
      <feComposite in2="blur-4" operator="in"/>
      <feComposite in="SourceGraphic"/>
    </filter>
    <filter id="drop-shadow-5" filterUnits="userSpaceOnUse">
      <feOffset dx="3" dy="3"/>
      <feGaussianBlur result="blur-5" stdDeviation="2"/>
      <feFlood flood-color="#231f20" flood-opacity=".1"/>
      <feComposite in2="blur-5" operator="in"/>
      <feComposite in="SourceGraphic"/>
    </filter>
    <filter id="drop-shadow-6" filterUnits="userSpaceOnUse">
      <feOffset dx="3" dy="3"/>
      <feGaussianBlur result="blur-6" stdDeviation="2"/>
      <feFlood flood-color="#231f20" flood-opacity=".1"/>
      <feComposite in2="blur-6" operator="in"/>
      <feComposite in="SourceGraphic"/>
    </filter>
    <filter id="drop-shadow-7" filterUnits="userSpaceOnUse">
      <feOffset dx="3" dy="3"/>
      <feGaussianBlur result="blur-7" stdDeviation="2"/>
      <feFlood flood-color="#231f20" flood-opacity=".1"/>
      <feComposite in2="blur-7" operator="in"/>
      <feComposite in="SourceGraphic"/>
    </filter>
    <filter id="drop-shadow-8" filterUnits="userSpaceOnUse">
      <feOffset dx="3" dy="3"/>
      <feGaussianBlur result="blur-8" stdDeviation="2"/>
      <feFlood flood-color="#231f20" flood-opacity=".1"/>
      <feComposite in2="blur-8" operator="in"/>
      <feComposite in="SourceGraphic"/>
    </filter>
  </defs>
  <g id="Layer_1-2" data-name="Layer 1">
    <g>
      <g>
        <path class="cls-4" d="M103.54,48.28l-15.05-2.34c-.48-.07-.8-.51-.72-.99l2.85-18.37c.07-.48.51-.8.99-.72l15.05,2.34c.48.07.8.51.72.99l-2.85,18.37c-.07.48-.51.8-.99.72Z"/>
        <line class="cls-6" x1="88.23" y1="41.96" x2="104.99" y2="44.56"/>
        <g class="cls-13">
          <path class="cls-1" d="M96.39,33.39l3,.47-2.88,3.26,2.24.35-.07.47-3.15-.49,2.88-3.27-2.1-.33.07-.46Z"/>
        </g>
      </g>
      <g>
        <path class="cls-10" d="M51.76,33.67l-22.4,5.27c-.71.17-1.41-.27-1.57-.97l-6.43-27.35c-.17-.71.27-1.41.97-1.57l22.4-5.27c.71-.17,1.41.27,1.57.97l6.43,27.35c.17.71-.27,1.41-.97,1.57Z"/>
        <line class="cls-12" x1="26.74" y1="33.5" x2="51.69" y2="27.64"/>
        <g class="cls-13">
          <path class="cls-2" d="M38.81,19.73l.74.19c-.32,1.39-1.15,2.2-2.48,2.52-1,.23-1.84.09-2.55-.43-.71-.52-1.16-1.2-1.36-2.01-.18-.77-.1-1.51.23-2.23.42-.91,1.12-1.49,2.13-1.72,1.04-.24,1.96-.05,2.76.6.58.46.96,1.09,1.17,1.92l-5.47,1.29c.18.71.54,1.24,1.08,1.58.54.34,1.13.45,1.77.3.31-.07.61-.2.87-.37.26-.17.48-.38.64-.6.16-.23.31-.57.46-1.03ZM38.42,18.09c-.53-1.16-1.56-1.51-2.71-1.3-.6.14-1.07.45-1.4.93-.24.35-.38.83-.41,1.43l4.53-1.06Z"/>
        </g>
      </g>
      <g>
        <path class="cls-9" d="M70.26,45.4l-22.95-1.69c-.73-.05-1.26-.68-1.21-1.4l2.06-28.02c.05-.73.68-1.26,1.4-1.21l22.95,1.69c.73.05,1.26.68,1.21,1.4l-2.06,28.02c-.05.73-.68,1.26-1.4,1.21Z"/>
        <line class="cls-12" x1="46.43" y1="37.75" x2="71.99" y2="39.63"/>
        <g class="cls-13">
          <path class="cls-2" d="M60.08,23.65l.81.06-.46,6.23-.81-.06.46-6.23ZM60.67,21.11c.38.03.65.34.62.72-.03.36-.34.63-.72.61-.36-.03-.64-.34-.61-.71.03-.38.34-.65.71-.62Z"/>
        </g>
      </g>
      <path class="cls-5" d="M94.52,31.73l-14.57-4.44c-.46-.14-.72-.62-.58-1.08l5.42-17.78c.14-.46.62-.72,1.08-.58l14.57,4.44c.46.14.72.62.58,1.08l-5.42,17.78c-.14.46-.62.72-1.08.58Z"/>
      <line class="cls-6" x1="80.26" y1="23.3" x2="96.48" y2="28.25"/>
      <g class="cls-13">
        <path class="cls-1" d="M93.47,17.96l-.48.13c-.21-.57-.62-.95-1.22-1.13-.48-.15-.94-.11-1.35.1-.41.21-.69.54-.82.98-.28.87.23,1.88,1.19,2.13.58.18,1.13.09,1.64-.26l.32.39c-.55.45-1.32.58-2.13.33-.63-.19-1.09-.55-1.38-1.07-.29-.52-.35-1.07-.18-1.64.33-1.16,1.63-1.86,2.87-1.44.8.26,1.38.81,1.53,1.48Z"/>
      </g>
      <g>
        <path class="cls-7" d="M34.09,57.72l-22.4,5.27c-.71.17-1.41-.27-1.57-.97l-6.43-27.35c-.17-.71.27-1.41.97-1.57l22.4-5.27c.71-.17,1.41.27,1.57.97l6.43,27.35c.17.71-.27,1.41-.97,1.57Z"/>
        <line class="cls-12" x1="9.06" y1="57.56" x2="34.01" y2="51.69"/>
        <g class="cls-13">
          <path class="cls-2" d="M21.03,39.81l1.43,6.08-.77.18-.25-1.04c-.47.94-1.19,1.55-2.16,1.78-.86.2-1.68.07-2.43-.42-.75-.49-1.24-1.17-1.45-2.06-.21-.88-.07-1.7.39-2.46.47-.78,1.14-1.26,2.01-1.46,1-.23,1.91,0,2.72.7l-.26-1.11.77-.18ZM18.05,41.14c-1.31.25-2.17,1.73-1.84,3.02.29,1.32,1.74,2.25,3,1.91,1.3-.29,2.21-1.64,1.83-3.02-.16-.7-.53-1.24-1.11-1.6-.57-.36-1.2-.47-1.87-.31Z"/>
        </g>
      </g>
      <g>
        <path class="cls-11" d="M83.62,69.1l-22.01-6.71c-.7-.21-1.08-.94-.87-1.63l8.2-26.87c.21-.7.94-1.08,1.63-.87l22.01,6.71c.7.21,1.08.94.87,1.63l-8.2,26.87c-.21.7-.94,1.08-1.63.87Z"/>
        <line class="cls-12" x1="62.08" y1="56.37" x2="86.59" y2="63.85"/>
        <g class="cls-13">
          <path class="cls-2" d="M78.53,45.72c.91.28,1.57.85,1.98,1.7.37.78.42,1.58.16,2.41-.25.83-.77,1.47-1.55,1.93-.76.44-1.6.53-2.51.25-.91-.28-1.57-.82-1.97-1.62-.38-.8-.45-1.62-.2-2.46.25-.83.74-1.47,1.48-1.91.81-.48,1.68-.58,2.6-.3ZM78.3,46.48c-.64-.2-1.25-.12-1.86.21-.61.33-1.01.84-1.21,1.5-.42,1.31.32,2.75,1.6,3.1,1.24.43,2.68-.35,3.06-1.68.2-.66.14-1.31-.18-1.92-.32-.62-.79-1.02-1.42-1.21Z"/>
        </g>
      </g>
      <g>
        <path class="cls-8" d="M114.6,78.41l-22.4,5.25c-.71.17-1.41-.27-1.57-.98l-6.41-27.35c-.17-.71.27-1.41.98-1.57l22.4-5.25c.71-.17,1.41.27,1.57.98l6.41,27.35c.17.71-.27,1.41-.98,1.57Z"/>
        <line class="cls-12" x1="89.58" y1="78.23" x2="114.53" y2="72.38"/>
        <g class="cls-13">
          <path class="cls-2" d="M95.49,61.61l.79-.19.67,2.84c.16.7.31,1.16.45,1.41.4.69,1.18.99,2.05.79.87-.2,1.4-.81,1.47-1.55.02-.26-.06-.76-.24-1.52l-.67-2.84.8-.19.7,2.98c.2.84.24,1.5.15,1.97-.18.95-.85,1.64-2.04,1.92-.58.14-1.1.14-1.56,0-.46-.15-.84-.42-1.13-.8-.3-.39-.55-1.02-.75-1.88l-.69-2.93Z"/>
        </g>
      </g>
      <g>
        <path class="cls-3" d="M42.64,73.98l-15.13-1.72c-.48-.05-.82-.48-.76-.96l2.1-18.47c.05-.48.48-.82.96-.76l15.13,1.72c.48.05.82.48.76.96l-2.1,18.47c-.05.48-.48.82-.96.76Z"/>
        <line class="cls-6" x1="27.09" y1="68.29" x2="43.94" y2="70.21"/>
        <g class="cls-13">
          <path class="cls-1" d="M34.83,63.45l.65-5.7.52.06-.26,2.29c.5-.5,1.09-.7,1.74-.63.58.07,1.06.33,1.42.8s.51,1.01.45,1.6c-.07.6-.34,1.08-.8,1.46-.46.37-.99.52-1.57.46-.67-.08-1.18-.42-1.54-1.05l-.09.76-.52-.06ZM36.99,63.29c.87.14,1.74-.59,1.82-1.48.12-.87-.59-1.8-1.44-1.86-.88-.11-1.76.54-1.82,1.47-.05.48.05.9.33,1.25.28.35.65.56,1.11.61Z"/>
        </g>
      </g>
    </g>
  </g>
</svg>