<?xml version="1.0" encoding="UTF-8"?>
<svg id="Layer_1" xmlns="http://www.w3.org/2000/svg" version="1.1" viewBox="0 0 279.7 283.8">
  <!-- Generator: Adobe Illustrator 29.5.1, SVG Export Plug-In . SVG Version: 2.1.0 Build 141)  -->
  <defs>
    <style>
      .st0 {
        fill: #9b4e95;
      }
    </style>
  </defs>
  <path class="st0" d="M215.5,26.9c-2.6,9-5.4,9.5-15,9.9-6.6-2.6-24.6,31.5-31.5,29.2-21.7-7.8-28.6,17.7-51,23C50.1,104.2,4.2,111.3,26.6,176.8c16.1,50.3,66.6,59.9,119.4,56.7,81.4-3,106-33.7,76-108.8-2.6-7.6,21.5-46.3,23.8-52,1.2-2.6,4.6-4,9.7-5.3,4.6-1.2,10.4-2.5,15.7-5,12.4-5.7,20.6-18.7,21.2-32.2,1.4-30.3-31.1-49.3-57-34.3-12.3,7-16.6,18.8-19.7,30.9h-.2Z"/>
  <rect class="st0" x="-211.9" y="37.7" width="455.5" height="231.2" rx="33.3" ry="33.3"/>
</svg>