<?xml version="1.0" encoding="UTF-8"?>
<svg id="bookOpen" xmlns="http://www.w3.org/2000/svg" viewBox="0 0 321.38 321.38">
  <defs>
    <style>
      .cls-1 {
        fill: #fff;
        stroke-width: 0px;
      }
    </style>
  </defs>
  <path class="cls-1" d="m259.81,95.24h-8.88v-8.88c0-5.28-3.33-8.88-8.88-8.88h-31.09c-17.76,0-33.13,3.46-48.85,17.76-15.72-14.3-31.09-17.76-48.85-17.76h-31.09c-5.55,0-8.88,3.6-8.88,8.88v8.88h-8.88c-4.88,0-8.88,3.95-8.88,8.88v124.34c0,4.93,4,8.88,8.88,8.88h84.38c0,4.93,4,8.88,8.88,8.88h8.88c4.88,0,8.88-3.95,8.88-8.88h84.38c4.88,0,8.88-3.95,8.88-8.88v-124.34c0-4.93-4-8.88-8.88-8.88Zm-195.39,124.34v-115.46h8.88v97.7c0,5.28,3.33,8.88,8.88,8.88h31.09c8.88,0,19.23,1.07,29.98,8.88h-78.82Zm93.26,0c-15.72-14.3-26.64-17.76-44.41-17.76h-31.09v-115.46h31.09c26.64,0,34.59,8.84,44.41,17.76v115.46Zm8.88,0v-115.46c9.81-8.93,17.76-17.76,44.41-17.76h31.09v115.46h-31.09c-17.76,0-28.69,3.46-44.41,17.76Zm93.26,0h-78.82c10.7-7.82,21.09-8.88,29.98-8.88h31.09c5.55,0,8.88-3.6,8.88-8.88v-97.7h8.88v115.46Z"/>
</svg>