<?xml version="1.0" encoding="UTF-8"?>
<svg id="computer" xmlns="http://www.w3.org/2000/svg" viewBox="0 0 321.38 321.38">
  <defs>
    <style>
      .cls-1 {
        fill: #fff;
        stroke-width: 0px;
      }
    </style>
  </defs>
  <path class="cls-1" d="m141.69,111.19v49.5l10.44-17.41,15.98,27.81,9.58-5.89-15.48-27h19.98l-40.5-27Zm108-22.5c0-9.95-8.06-18-18-18H87.69c-9.94,0-18,8.05-18,18v117h180v-117Zm-18,94.5c0,2.48-2.02,4.5-4.5,4.5H92.19c-2.48,0-4.5-2.02-4.5-4.5v-90c0-2.48,2.02-4.5,4.5-4.5h135c2.48,0,4.5,2.02,4.5,4.5v90Zm-54,31.5v4.5c0,2.48-2.02,4.5-4.5,4.5h-27c-2.48,0-4.5-2.02-4.5-4.5v-4.5H51.69v9c0,5,4.05,9,9,9h198c4.95,0,9-4,9-9v-9h-90Zm67.5,14.62c-3.11,0-5.62-2.52-5.62-5.62s2.52-5.62,5.62-5.62,5.62,2.52,5.62,5.62-2.52,5.62-5.62,5.62Z"/>
</svg>