<svg width="60" height="60" viewBox="0 0 60 60" fill="none" xmlns="http://www.w3.org/2000/svg">
<path d="M8 2.5H20.6125C23.6501 2.5 26.1125 4.96243 26.1125 8V19.3552C26.1125 22.3927 23.6501 24.8552 20.6125 24.8552H8C4.96243 24.8552 2.5 22.3927 2.5 19.3552V8C2.5 4.96243 4.96243 2.5 8 2.5Z" stroke="black" stroke-width="5" stroke-linejoin="round"/>
<path d="M39.3877 2.5H52.0002C55.0377 2.5 57.5002 4.96243 57.5002 8V19.3552C57.5002 22.3927 55.0377 24.8552 52.0002 24.8552H39.3877C36.3501 24.8552 33.8877 22.3927 33.8877 19.3552V8C33.8877 4.96243 36.3501 2.5 39.3877 2.5Z" stroke="black" stroke-width="5" stroke-linejoin="round"/>
<path d="M8 35.145H20.6125C23.6501 35.145 26.1125 37.6075 26.1125 40.645V52.0002C26.1125 55.0378 23.6501 57.5002 20.6125 57.5002H8C4.96243 57.5002 2.5 55.0378 2.5 52.0002V40.645C2.5 37.6075 4.96243 35.145 8 35.145Z" stroke="black" stroke-width="5" stroke-linejoin="round"/>
<path d="M39.3877 35.145H52.0002C55.0377 35.145 57.5002 37.6075 57.5002 40.645V52.0002C57.5002 55.0378 55.0377 57.5002 52.0002 57.5002H39.3877C36.3501 57.5002 33.8877 55.0378 33.8877 52.0002V40.645C33.8877 37.6075 36.3501 35.145 39.3877 35.145Z" stroke="black" stroke-width="5" stroke-linejoin="round"/>
</svg>
