<?xml version="1.0" encoding="UTF-8"?>
<svg id="headphones" xmlns="http://www.w3.org/2000/svg" viewBox="0 0 321.38 321.38">
  <defs>
    <style>
      .cls-1 {
        fill: #fff;
        stroke-width: 0px;
      }
    </style>
  </defs>
  <path class="cls-1" d="m60.57,234.15v-53.25c-5.59,7.72-8.88,16.82-8.88,26.62s3.28,18.9,8.88,26.62Zm195.25-53.25v53.25c5.59-7.72,8.87-16.82,8.87-26.62s-3.28-18.9-8.87-26.62Zm-17.75,62.12c4.93,0,8.88-3.95,8.88-8.88v-79.88c0-48.99-39.76-88.75-88.75-88.75s-88.75,39.76-88.75,88.75v79.88c0,4.93,3.95,8.88,8.87,8.88h8.88c9.81,0,17.75-7.94,17.75-17.75v-35.5c0-9.81-7.94-17.75-17.75-17.75v-22.19c0-35.5,31.06-67.67,71-67.67s71,32.17,71,67.67v22.19c-9.81,0-17.75,7.94-17.75,17.75v35.5c0,9.54,7.59,17.31,17.04,17.66v.09h9.59Z"/>
</svg>