<?xml version="1.0" encoding="UTF-8"?>
<svg id="micOn" xmlns="http://www.w3.org/2000/svg" viewBox="0 0 321.38 321.38">
  <defs>
    <style>
      .cls-1 {
        fill: #fff;
        stroke-width: 0px;
      }
    </style>
  </defs>
  <path class="cls-1" d="m206.06,65.69c-11.83,0-22.7,4.18-31.22,11.08l69.77,69.77c6.91-8.52,11.08-19.4,11.08-31.22,0-27.42-22.21-49.63-49.63-49.63h0Zm-49.63,49.63c0,3.56.41,7.03,1.12,10.34l38.13,38.13c3.35.7,6.78,1.12,10.34,1.12,11.83,0,22.7-4.18,31.22-11.08l-69.77-69.77c-6.91,8.52-11.08,19.4-11.08,31.22l.04.04Zm-82.71,113.73l18.61,18.61,92.64-79.94-31.35-31.35-79.94,92.64.04.04Z"/>
</svg>