<?xml version="1.0" encoding="UTF-8"?>
<svg id="micOff" xmlns="http://www.w3.org/2000/svg" viewBox="0 0 321.38 321.38">
  <defs>
    <style>
      .cls-1 {
        fill: #fff;
        stroke-width: 0px;
      }
    </style>
  </defs>
  <path class="cls-1" d="m206.06,65.69c-11.83,0-22.7,4.18-31.22,11.08l69.77,69.77c6.91-8.52,11.08-19.4,11.08-31.22,0-27.42-22.21-49.63-49.63-49.63h0Zm-49.63,49.63c0,3.56.41,7.03,1.12,10.34l38.13,38.13c3.35.7,6.78,1.12,10.34,1.12,11.83,0,22.7-4.18,31.22-11.08l-69.77-69.77c-6.91,8.52-11.08,19.4-11.08,31.22l.04.04Zm-82.71,113.73l18.61,18.61,92.64-79.94-31.35-31.35-79.94,92.64.04.04Z"/>
  <g>
    <path class="cls-1" d="m239.69,161.02c0-43.56-35.44-79-79-79s-79,35.44-79,79,35.44,79,79,79c19.46,0,37.28-7.09,51.06-18.79l.36.36,14.14-14.14-1-1c9.08-12.86,14.43-28.53,14.43-45.43Zm-20,0c0,11.37-3.24,22-8.84,31.02l-81.18-81.18c9.02-5.6,19.64-8.84,31.02-8.84,32.53,0,59,26.47,59,59Zm-59,59c-32.53,0-59-26.47-59-59,0-13.94,4.87-26.76,12.99-36.87l82.88,82.88c-10.11,8.12-22.93,12.99-36.87,12.99Z"/>
    <path class="cls-1" d="m160.69,250.02c-49.07,0-89-39.92-89-89s39.93-89,89-89,89,39.93,89,89c0,15.57-4.02,30.63-11.69,44.03l2.4,2.4-28.29,28.29-1.26-1.26c-14.73,10.08-32.23,15.55-50.17,15.55Zm-69-89c0,38.05,30.95,69,69,69-38.05,0-69-30.95-69-69Zm69.06,69h-.02.02Zm.06,0h-.03.03Zm.06,0h-.04.04Zm28.42-6.24c-8.88,4.05-18.59,6.22-28.42,6.24,9.86-.03,19.55-2.19,28.42-6.24Zm-72.88-83.75c-3.11,6.5-4.72,13.61-4.72,20.99,0,27.02,21.98,49,49,49,7.39,0,14.49-1.61,20.99-4.72l-65.27-65.27Zm-1.93-30.21l97.63,97.63-97.63-97.63h0Zm115.2,51.36c-.02,9.32-1.93,18.48-5.57,26.97,3.65-8.47,5.55-17.6,5.57-26.97Zm-82.74-47.18l60.77,60.77c1.3-4.44,1.97-9.06,1.97-13.74,0-27.02-21.98-49-49-49-4.68,0-9.3.67-13.74,1.97Zm82.74,47.14v.03-.03Zm0-.04v.02-.02Zm0-.04v.02-.02Zm-138-.11v.02-.02Zm0-.06v.04-.04Zm15.91-43.9c-9.91,11.92-15.88,27.22-15.91,43.89.03-15.56,5.42-30.83,15.19-42.99l.72-.9Zm52.89-24.97c-13.6.04-26.29,4.03-36.97,10.89l.87-.54c10.85-6.73,23.33-10.31,36.1-10.34Zm.04,0s-.02,0-.03,0c0,0,.02,0,.03,0Zm.05,0h-.02.02Zm.05,0h-.01.01Z"/>
  </g>
  <path class="cls-1" d="m239.69,161.02c0-43.56-35.44-79-79-79s-79,35.44-79,79,35.44,79,79,79c19.46,0,37.28-7.09,51.06-18.79l.36.36,14.14-14.14-1-1c9.08-12.86,14.43-28.53,14.43-45.43Zm-20,0c0,11.37-3.24,22-8.84,31.02l-81.18-81.18c9.02-5.6,19.64-8.84,31.02-8.84,32.53,0,59,26.47,59,59Zm-59,59c-32.53,0-59-26.47-59-59,0-13.94,4.87-26.76,12.99-36.87l82.88,82.88c-10.11,8.12-22.93,12.99-36.87,12.99Z"/>
</svg>