<?xml version="1.0" encoding="UTF-8"?>
<svg id="pause" xmlns="http://www.w3.org/2000/svg" viewBox="0 0 321.38 321.38">
  <defs>
    <style>
      .cls-1 {
        fill: #fff;
        stroke-width: 0px;
      }
    </style>
  </defs>
  <path class="cls-1" d="m102.18,87.79h26.86c7.95,0,14.4,6.45,14.4,14.4v117.01c0,7.95-6.45,14.4-14.4,14.4h-26.86c-7.95,0-14.4-6.45-14.4-14.4v-117.01c0-7.95,6.45-14.4,14.4-14.4Z"/>
  <path class="cls-1" d="m192.33,87.79h26.86c7.95,0,14.4,6.45,14.4,14.4v117.01c0,7.95-6.45,14.4-14.4,14.4h-26.86c-7.95,0-14.4-6.45-14.4-14.4v-117.01c0-7.95,6.45-14.4,14.4-14.4Z"/>
</svg>