<?xml version="1.0" encoding="iso-8859-1"?>
<!-- Generator: Adobe Illustrator 28.0.0, SVG Export Plug-In . SVG Version: 6.00 Build 0)  -->
<svg version="1.1" xmlns="http://www.w3.org/2000/svg" xmlns:xlink="http://www.w3.org/1999/xlink" x="0px" y="0px"
	 viewBox="0 0 321.38 321.38" style="enable-background:new 0 0 321.38 321.38;" xml:space="preserve">
<g id="baseRing" style="display:none;">
	<g style="display:inline;">
		<circle style="fill:none;stroke:#434343;stroke-width:25;stroke-linejoin:round;" cx="160.69" cy="160.69" r="148.19"/>
	</g>
</g>
<g id="love" style="display:none;">
	<g style="display:inline;">
		<path style="fill:#FFFFFF;" d="M227.84,85c-39.01-18.61-67.02,25.19-67.15,25.4c-0.14-0.21-28.14-44.01-67.15-25.4
			c-39.11,18.65-33.04,63.31-25.35,80.56c10.63,23.84,58.18,70.8,80.66,92.21c6.65,6.33,17.04,6.33,23.69,0
			c22.48-21.41,70.03-68.37,80.66-92.21c7.69-17.25,13.76-61.91-25.35-80.56H227.84z"/>
	</g>
</g>
<g id="bookOpen" style="display:none;">
	<path style="display:inline;fill:#FFFFFF;" d="M259.808,95.245h-8.882v-8.882c0-5.285-3.331-8.882-8.882-8.882l0,0H210.96
		c-17.763,0-33.128,3.464-48.849,17.763c-15.72-14.299-31.086-17.763-48.849-17.763H82.177l0,0c-5.551,0-8.882,3.597-8.882,8.882
		v8.882h-8.882c-4.885,0-8.882,3.952-8.882,8.882v124.342c0,4.929,3.997,8.882,8.882,8.882h84.375c0,4.929,3.997,8.882,8.882,8.882
		h8.882c4.885,0,8.882-3.952,8.882-8.882h84.375c4.885,0,8.882-3.952,8.882-8.882V104.126
		C268.69,99.197,264.693,95.245,259.808,95.245z M64.414,219.587V104.126h8.882v97.697c0,5.285,3.331,8.882,8.882,8.882h31.086
		c8.882,0,19.229,1.066,29.975,8.882H64.414z M157.67,219.587c-15.72-14.299-26.645-17.763-44.408-17.763H82.177V86.363l0,0
		c0,0,13.322,0,31.086,0c26.645,0,34.594,8.837,44.408,17.763V219.587z M166.552,219.587V104.126
		c9.814-8.926,17.763-17.763,44.408-17.763h31.086v115.461H210.96C193.197,201.824,182.272,205.288,166.552,219.587z
		 M259.808,219.587h-78.824c10.702-7.816,21.094-8.882,29.975-8.882h31.086c5.551,0,8.882-3.597,8.882-8.882v-97.697h8.882V219.587z
		"/>
</g>
<g id="computer" style="display:none;">
	<path style="display:inline;fill:#FFFFFF;" d="M141.69,111.19v49.5l10.44-17.415l15.975,27.81l9.585-5.895l-15.48-27h19.98
		L141.69,111.19z M249.69,88.69c0-9.945-8.055-18-18-18h-144c-9.945,0-18,8.055-18,18v117h180V88.69z M231.69,183.19
		c0,2.475-2.025,4.5-4.5,4.5h-135c-2.475,0-4.5-2.025-4.5-4.5v-90c0-2.475,2.025-4.5,4.5-4.5h135c2.475,0,4.5,2.025,4.5,4.5V183.19z
		 M177.69,214.69v4.5c0,2.475-2.025,4.5-4.5,4.5h-27c-2.475,0-4.5-2.025-4.5-4.5v-4.5h-90v9c0,4.995,4.05,9,9,9h198
		c4.95,0,9-4.005,9-9v-9H177.69z M245.19,229.315c-3.105,0-5.625-2.52-5.625-5.625s2.52-5.625,5.625-5.625s5.625,2.52,5.625,5.625
		S248.295,229.315,245.19,229.315z"/>
</g>
<g id="video" style="display:none;">
	<path style="display:inline;fill:#FFFFFF;" d="M240.32,84.69H78.838c-8.922,0-16.148,7.226-16.148,16.148v113.037
		c0,8.922,7.226,16.148,16.148,16.148H240.32c8.922,0,16.148-7.226,16.148-16.148V100.838
		C256.468,91.916,249.242,84.69,240.32,84.69z M86.912,213.875H70.764v-16.148h16.148V213.875z M86.912,181.579H70.764v-16.148
		h16.148V181.579z M86.912,149.283H70.764v-16.148h16.148V149.283z M86.912,116.986H70.764v-16.148h16.148V116.986z
		 M224.172,213.875H94.986V100.838h129.185V213.875z M248.394,213.875h-16.148v-16.148h16.148V213.875z M248.394,181.579h-16.148
		v-16.148h16.148V181.579z M248.394,149.283h-16.148v-16.148h16.148V149.283z M248.394,116.986h-16.148v-16.148h16.148V116.986z
		 M143.431,125.06v64.593l50.463-32.296L143.431,125.06z"/>
</g>
<g id="headphones" style="display:none;">
	<path style="display:inline;fill:#FFFFFF;" d="M60.565,234.148v-53.25c-5.591,7.721-8.875,16.818-8.875,26.625
		C51.69,217.33,54.974,226.427,60.565,234.148z M255.815,180.898v53.25c5.591-7.721,8.875-16.818,8.875-26.625
		C264.69,197.716,261.406,188.62,255.815,180.898z M238.065,243.023c4.926,0,8.875-3.949,8.875-8.875v-79.875
		c0-48.99-39.76-88.75-88.75-88.75s-88.75,39.76-88.75,88.75v79.875c0,4.926,3.949,8.875,8.875,8.875h8.875
		c9.807,0,17.75-7.943,17.75-17.75v-35.5c0-9.807-7.943-17.75-17.75-17.75v-22.188c0-35.5,31.062-67.672,71-67.672
		s71,32.172,71,67.672v22.188c-9.807,0-17.75,7.943-17.75,17.75v35.5c0,9.541,7.588,17.306,17.04,17.661v0.089H238.065z"/>
</g>
<g id="micOff" style="display:none;">
	<path style="display:inline;fill:#FFFFFF;" d="M206.064,65.69c-11.828,0-22.704,4.177-31.223,11.083l69.767,69.767
		c6.906-8.519,11.083-19.396,11.083-31.223C255.69,87.898,233.482,65.69,206.064,65.69L206.064,65.69z M156.437,115.317
		c0,3.557,0.414,7.03,1.117,10.339l38.13,38.13c3.35,0.703,6.782,1.117,10.339,1.117c11.828,0,22.704-4.177,31.223-11.083
		l-69.767-69.767c-6.906,8.519-11.083,19.396-11.083,31.223L156.437,115.317z M73.726,229.044l18.61,18.61l92.636-79.94
		l-31.347-31.347l-79.94,92.636L73.726,229.044z"/>
	<g style="display:inline;">
		<path style="fill:#FFFFFF;" d="M239.69,161.023c0-43.561-35.439-79-79-79s-79,35.439-79,79s35.439,79,79,79
			c19.458,0,37.283-7.085,51.065-18.792l0.364,0.364l14.143-14.143l-1-1C234.337,193.591,239.69,177.925,239.69,161.023z
			 M219.69,161.023c0,11.373-3.243,21.998-8.84,31.017l-81.177-81.177c9.019-5.597,19.644-8.84,31.017-8.84
			C193.222,102.023,219.69,128.491,219.69,161.023z M160.69,220.023c-32.533,0-59-26.468-59-59c0-13.942,4.872-26.761,12.988-36.87
			l82.882,82.882C187.451,215.152,174.632,220.023,160.69,220.023z"/>
		<path style="fill:#FFFFFF;" d="M160.69,250.023c-49.075,0-89-39.925-89-89c0-49.075,39.925-89,89-89c49.075,0,89,39.925,89,89
			c0,15.572-4.02,30.635-11.689,44.026l2.403,2.402l-28.285,28.285l-1.259-1.26C196.129,244.555,178.627,250.023,160.69,250.023z
			 M91.69,161.023c0,38.047,30.953,69,69,69C122.643,230.023,91.69,199.07,91.69,161.023z M160.755,230.023
			c-0.006,0-0.011,0-0.018,0C160.743,230.023,160.749,230.023,160.755,230.023z M160.812,230.023c-0.009,0-0.02,0-0.029,0
			C160.793,230.023,160.802,230.023,160.812,230.023z M160.87,230.023c-0.014,0-0.028,0-0.042,0
			C160.842,230.023,160.856,230.023,160.87,230.023z M189.289,223.781c-8.881,4.052-18.588,6.216-28.416,6.242
			C170.733,229.997,180.42,227.837,189.289,223.781z M116.412,140.03c-3.11,6.499-4.722,13.605-4.722,20.993
			c0,27.019,21.981,49,49,49c7.388,0,14.493-1.612,20.993-4.723L116.412,140.03z M114.486,109.82l97.633,97.632L114.486,109.82
			L114.486,109.82z M229.69,161.176c-0.021,9.318-1.926,18.481-5.566,26.969C227.769,179.677,229.67,170.547,229.69,161.176z
			 M146.946,113.995l60.772,60.771c1.302-4.439,1.972-9.064,1.972-13.743c0-27.019-21.981-49-49-49
			C156.011,112.023,151.386,112.693,146.946,113.995z M229.69,161.14c0,0.01,0,0.02,0,0.03
			C229.69,161.159,229.69,161.15,229.69,161.14z M229.69,161.102c0,0.008,0,0.016,0,0.024
			C229.69,161.118,229.69,161.11,229.69,161.102z M229.69,161.063c0,0.005,0,0.012,0,0.017
			C229.69,161.074,229.69,161.069,229.69,161.063z M91.69,160.95c0,0.009,0,0.014,0,0.023C91.69,160.965,91.69,160.957,91.69,160.95
			z M91.69,160.89c0,0.012,0,0.024,0,0.036C91.69,160.913,91.69,160.902,91.69,160.89z M107.603,116.994
			c-9.906,11.922-15.879,27.222-15.913,43.89c0.032-15.564,5.424-30.827,15.19-42.99L107.603,116.994z M160.495,92.024
			c-13.599,0.038-26.288,4.031-36.97,10.886l0.875-0.543C135.248,95.634,147.725,92.059,160.495,92.024z M160.534,92.023
			c-0.009,0-0.019,0-0.028,0C160.516,92.023,160.525,92.023,160.534,92.023z M160.589,92.023c-0.007,0-0.016,0-0.022,0
			C160.574,92.023,160.581,92.023,160.589,92.023z M160.641,92.023c-0.005,0-0.01,0-0.014,0
			C160.631,92.023,160.636,92.023,160.641,92.023z"/>
	</g>
	<path style="display:inline;fill:#FFFFFF;" d="M239.69,161.023c0-43.561-35.439-79-79-79s-79,35.439-79,79s35.439,79,79,79
		c19.458,0,37.283-7.085,51.065-18.792l0.364,0.364l14.143-14.143l-1-1C234.337,193.591,239.69,177.925,239.69,161.023z
		 M219.69,161.023c0,11.373-3.243,21.998-8.84,31.017l-81.177-81.177c9.019-5.597,19.644-8.84,31.017-8.84
		C193.222,102.023,219.69,128.491,219.69,161.023z M160.69,220.023c-32.533,0-59-26.468-59-59c0-13.942,4.872-26.761,12.988-36.87
		l82.882,82.882C187.451,215.152,174.632,220.023,160.69,220.023z"/>
</g>
<g id="micOn" style="display:none;">
	<path style="display:inline;fill:#FFFFFF;" d="M206.064,65.69c-11.828,0-22.704,4.177-31.223,11.083l69.767,69.767
		c6.906-8.519,11.083-19.396,11.083-31.223C255.69,87.898,233.482,65.69,206.064,65.69L206.064,65.69z M156.437,115.317
		c0,3.557,0.414,7.03,1.117,10.339l38.13,38.13c3.35,0.703,6.782,1.117,10.339,1.117c11.828,0,22.704-4.177,31.223-11.083
		l-69.767-69.767c-6.906,8.519-11.083,19.396-11.083,31.223L156.437,115.317z M73.726,229.044l18.61,18.61l92.636-79.94
		l-31.347-31.347l-79.94,92.636L73.726,229.044z"/>
</g>
<g id="pause" style="display:none;">
	<g style="display:inline;">
		<path style="fill:#FFFFFF;" d="M102.18,87.79h26.86c7.95,0,14.4,6.45,14.4,14.4V219.2c0,7.95-6.45,14.4-14.4,14.4h-26.86
			c-7.95,0-14.4-6.45-14.4-14.4V102.19C87.78,94.24,94.23,87.79,102.18,87.79z"/>
		<path style="fill:#FFFFFF;" d="M192.33,87.79h26.86c7.95,0,14.4,6.45,14.4,14.4V219.2c0,7.95-6.45,14.4-14.4,14.4h-26.86
			c-7.95,0-14.4-6.45-14.4-14.4V102.19C177.93,94.24,184.38,87.79,192.33,87.79z"/>
	</g>
</g>
<g id="play" style="display:none;">
	<path style="display:inline;fill:#FFFFFF;" d="M232.38,172.16l-100.59,59.33c-8.75,5.16-19.68-1.29-19.68-11.61V101.22
		c0-10.32,10.94-16.77,19.68-11.61l100.59,59.33C241.13,154.1,241.13,167,232.38,172.16L232.38,172.16z"/>
</g>
<g id="stop" style="display:none;">
	<path style="display:inline;fill:#FFFFFF;" d="M108.14,87.79h105.1c11.239,0,20.35,9.111,20.35,20.35v105.1
		c0,11.239-9.111,20.35-20.35,20.35h-105.1c-11.239,0-20.35-9.111-20.35-20.35v-105.1C87.79,96.901,96.901,87.79,108.14,87.79z"/>
</g>
<g id="record" style="display:none;">
	<circle style="display:inline;fill:#FFFFFF;" cx="160.69" cy="161.023" r="83"/>
</g>
<g id="muted" style="display:none;">
	<path style="display:inline;fill:#FFFFFF;" d="M169.66,248.37L169.66,248.37c-2.03,0-3.99-0.71-5.55-2l-54.89-45.5v-80.42
		l54.89-45.43c1.56-1.29,3.52-2,5.55-2l0,0c4.81,0,8.7,3.9,8.7,8.7v157.95C178.36,244.48,174.46,248.37,169.66,248.37L169.66,248.37
		z"/>
	<path style="display:inline;fill:#FFFFFF;" d="M94.38,120.48H68.27c-10.53,0-19.06,8.54-19.06,19.06v42.29
		c0,10.53,8.53,19.06,19.06,19.06h26.12v-80.41L94.38,120.48z"/>
	
		<line style="display:inline;fill:none;stroke:#FFFFFF;stroke-width:20;stroke-linecap:round;stroke-linejoin:round;" x1="201.55" y1="133.25" x2="256.33" y2="188.04"/>
	
		<line style="display:inline;fill:none;stroke:#FFFFFF;stroke-width:20;stroke-linecap:round;stroke-linejoin:round;" x1="256.33" y1="133.25" x2="201.55" y2="188.04"/>
</g>
<g id="unmuted" style="display:none;">
	<path style="display:inline;fill:none;stroke:#FFFFFF;stroke-width:20;stroke-linecap:round;stroke-linejoin:round;" d="
		M232.15,91.72c21.06,16.8,34.26,41.48,34.26,68.83s-13.4,52.22-34.67,69.11"/>
	<path style="display:inline;fill:none;stroke:#FFFFFF;stroke-width:20;stroke-linecap:round;stroke-linejoin:round;" d="
		M210.08,118.89c13.3,9.91,21.67,24.87,21.67,41.67s-8.67,32.12-22.17,42.03"/>
	<path style="display:inline;fill:#FFFFFF;" d="M169.66,248.37L169.66,248.37c-2.03,0-3.99-0.71-5.55-2l-54.89-45.5v-80.42
		l54.89-45.43c1.56-1.29,3.52-2,5.55-2l0,0c4.81,0,8.7,3.9,8.7,8.7v157.95C178.36,244.48,174.46,248.37,169.66,248.37L169.66,248.37
		z"/>
	<path style="display:inline;fill:#FFFFFF;" d="M94.38,120.49H68.27c-10.53,0-19.06,8.54-19.06,19.06v42.29
		c0,10.53,8.53,19.06,19.06,19.06h26.12v-80.41L94.38,120.49z"/>
</g>
<g id="end" style="display:none;">
	<path style="display:inline;fill:#FFFFFF;" d="M256.38,172.16l-100.59,59.33c-8.75,5.16-19.68-1.29-19.68-11.61V101.22
		c0-10.32,10.94-16.77,19.68-11.61l100.59,59.33C265.13,154.1,265.13,167,256.38,172.16L256.38,172.16z"/>
	<path style="display:inline;fill:#FFFFFF;" d="M83.78,87.79h15.03c6.683,0,12.1,5.417,12.1,12.1v121.6
		c0,6.683-5.417,12.1-12.1,12.1H83.78c-6.683,0-12.1-5.417-12.1-12.1V99.89C71.68,93.207,77.097,87.79,83.78,87.79z"/>
</g>
<g id="forward" style="display:none;">
	<g style="display:inline;">
		<path style="fill:#FFFFFF;" d="M261.327,168.416c6.032-3.573,6.014-12.313-0.034-15.86l-96.06-56.386
			c-6.138-3.607-13.878,0.84-13.863,7.96l0.06,28.05l-61.066-35.85c-6.138-3.607-13.878,0.84-13.863,7.96l0.241,113.17
			c0.015,7.13,7.765,11.534,13.897,7.901l60.913-36.11l0.06,28.05c0.015,7.13,7.765,11.534,13.897,7.901l95.819-56.794
			L261.327,168.416z"/>
	</g>
</g>
<g id="back" style="display:none;">
	<path style="display:inline;fill:#FFFFFF;" d="M60.07,168.62l95.94,56.59c6.14,3.62,13.88-0.8,13.88-7.93v-28.05l60.99,35.98
		c6.14,3.62,13.88-0.8,13.88-7.93V104.11c0-7.12-7.75-11.55-13.88-7.93l-60.99,35.98v-28.05c0-7.12-7.75-11.55-13.88-7.93
		l-95.94,56.59c-6.04,3.56-6.04,12.3,0,15.86V168.62z"/>
</g>
<g id="rewind" style="display:none;">
	<path style="display:inline;fill:#FFFFFF;" d="M65,172.16c-8.75-5.16-8.75-18.06,0-23.22l100.59-59.33
		c8.74-5.16,19.68,1.29,19.68,11.61v118.66c0,10.32-10.93,16.77-19.68,11.61L65,172.16L65,172.16z"/>
	<path style="display:inline;fill:#FFFFFF;" d="M249.7,99.89v121.6c0,6.683-5.417,12.1-12.1,12.1h-15.03
		c-6.683,0-12.1-5.417-12.1-12.1V99.89c0-6.683,5.417-12.1,12.1-12.1h15.03C244.283,87.79,249.7,93.207,249.7,99.89z"/>
</g>
<g id="replay" style="display:none;">
	<g style="display:inline;">
		<path style="fill:#FFFFFF;" d="M140.995,274.576c-32.954-5.689-62.101-26.728-77.941-56.178
			C37.365,170.666,49.701,115.937,85.424,83.053c5.023-4.614,13.002-3.762,17.02,1.752l7.617,10.479
			c6.787,9.345,5.934,21.752-0.981,30.992c-14.193,18.96-17.745,45.337-5.42,68.911c8.843,16.927,25.221,29.356,43.947,33.059
			c41.295,8.154,77.626-23.375,77.626-63.257c0-13.726-4.427-26.985-12.324-37.884c-7.173-9.918-8.014-23.025-0.818-32.931
			l6.834-9.38c4.03-5.537,12.032-6.355,17.067-1.706c22.709,20.945,35.957,50.722,35.957,81.913
			c0,67.813-60.967,121.643-130.965,109.575H140.995z"/>
	</g>
	<g style="display:inline;">
		<path style="fill:#FFFFFF;" d="M148.74,45.099h23.878c6.309,0,11.425,5.115,11.425,11.425v106.41
			c0,6.309-5.115,11.425-11.425,11.425H148.74c-6.309,0-11.425-5.115-11.425-11.425V56.523
			C137.315,50.214,142.43,45.099,148.74,45.099z"/>
	</g>
</g>
<g id="ai" style="display:none;">
	<g style="display:inline;">
		<path style="fill:#FFFFFF;stroke:#FFFFFF;stroke-width:10.5954;" d="M174.48,70.178c0,6.741-5.983,12.835-14.168,12.835
			c-8.185,0-14.168-6.094-14.168-12.835c0-6.741,5.983-12.835,14.168-12.835C168.497,57.343,174.48,63.437,174.48,70.178z"/>
		<line style="fill:none;stroke:#FFFFFF;stroke-width:10.5954;" x1="161.263" y1="85.72" x2="161.263" y2="98.672"/>
		<defs>
			<filter id="Adobe_OpacityMaskFilter" filterUnits="userSpaceOnUse" x="38.027" y="119.161" width="48.782" height="79.66">
				<feColorMatrix  type="matrix" values="1 0 0 0 0  0 1 0 0 0  0 0 1 0 0  0 0 0 1 0"/>
			</filter>
		</defs>
		
			<mask maskUnits="userSpaceOnUse" x="38.027" y="119.161" width="48.782" height="79.66" id="path-3-inside-1_864_571_00000136398670768401176040000014860033000997709954_">
			<path style="fill:#FFFFFF;filter:url(#Adobe_OpacityMaskFilter);" d="M48.623,132.784c0-1.672,1.355-3.027,3.027-3.027h24.564
				v58.469H51.65c-1.672,0-3.027-1.355-3.027-3.027V132.784z"/>
		</mask>
		
			<path style="mask:url(#path-3-inside-1_864_571_00000136398670768401176040000014860033000997709954_);fill:#FFFFFF;stroke:#FFFFFF;stroke-width:21.1908;" d="
			M48.623,132.784c0-1.672,1.355-3.027,3.027-3.027h24.564v58.469H51.65c-1.672,0-3.027-1.355-3.027-3.027V132.784z"/>
		<defs>
			
				<filter id="Adobe_OpacityMaskFilter_00000019636578880628590780000014656831357021286079_" filterUnits="userSpaceOnUse" x="234.57" y="119.161" width="48.782" height="79.66">
				<feColorMatrix  type="matrix" values="1 0 0 0 0  0 1 0 0 0  0 0 1 0 0  0 0 0 1 0"/>
			</filter>
		</defs>
		
			<mask maskUnits="userSpaceOnUse" x="234.57" y="119.161" width="48.782" height="79.66" id="path-4-inside-2_864_571_00000146499628791916690020000016632571834595166368_">
			<path style="fill:#FFFFFF;filter:url(#Adobe_OpacityMaskFilter_00000019636578880628590780000014656831357021286079_);" d="
				M272.757,132.784c0-1.672-1.355-3.027-3.027-3.027h-24.564v58.469h24.564c1.672,0,3.027-1.355,3.027-3.027V132.784z"/>
		</mask>
		
			<path style="mask:url(#path-4-inside-2_864_571_00000146499628791916690020000016632571834595166368_);fill:#FFFFFF;stroke:#FFFFFF;stroke-width:21.1908;" d="
			M272.757,132.784c0-1.672-1.355-3.027-3.027-3.027h-24.564v58.469h24.564c1.672,0,3.027-1.355,3.027-3.027V132.784z"/>
		<path style="fill:none;stroke:#FFFFFF;stroke-width:10.5954;stroke-linecap:round;" d="M120.066,151.557l0.904-1.859
			c1.248-2.57,3.361-4.64,5.972-5.85l0.433-0.201c3.259-1.512,7.026-1.422,10.159,0.242l0.632,0.336
			c1.825,0.969,3.256,2.525,4.06,4.415l0,0l1.241,2.918"/>
		<path style="fill:none;stroke:#FFFFFF;stroke-width:10.5954;stroke-linecap:round;" d="M175.162,151.859l0.904-1.859
			c1.248-2.57,3.361-4.64,5.972-5.85l0.433-0.201c3.259-1.512,7.026-1.422,10.159,0.242l0.632,0.336
			c1.825,0.969,3.256,2.525,4.06,4.415l0,0l1.241,2.918"/>
		<path style="fill:none;stroke:#FFFFFF;stroke-width:10.5954;stroke-linecap:round;" d="M183.761,189.115l-5.32,3.092l-0.969,0.574
			c-3.571,2.115-7.53,3.491-11.634,4.044l-2.253,0.304c-2.846,0.384-5.727,0.368-8.558-0.049l-2.825-0.416
			c-3.054-0.449-6.015-1.359-8.779-2.699l-1.372-0.664c-1.502-0.728-2.939-1.579-4.296-2.544l-2.57-1.829"/>
		<defs>
			
				<filter id="Adobe_OpacityMaskFilter_00000023999264338666688770000001143767707339515835_" filterUnits="userSpaceOnUse" x="59.194" y="85.486" width="202.237" height="151.82">
				<feColorMatrix  type="matrix" values="1 0 0 0 0  0 1 0 0 0  0 0 1 0 0  0 0 0 1 0"/>
			</filter>
		</defs>
		
			<mask maskUnits="userSpaceOnUse" x="59.194" y="85.486" width="202.237" height="151.82" id="path-8-inside-3_864_571_00000042018083053886293100000016491316931117160101_">
			<path style="fill:#FFFFFF;filter:url(#Adobe_OpacityMaskFilter_00000023999264338666688770000001143767707339515835_);" d="
				M78.871,96.082h162.883c5.016,0,9.082,4.066,9.082,9.082V217.63c0,5.016-4.066,9.082-9.082,9.082H78.871
				c-5.016,0-9.082-4.066-9.082-9.082V105.164C69.789,100.148,73.855,96.082,78.871,96.082z"/>
		</mask>
		
			<path style="mask:url(#path-8-inside-3_864_571_00000042018083053886293100000016491316931117160101_);fill:none;stroke:#FFFFFF;stroke-width:21.1908;" d="
			M78.871,96.082h162.883c5.016,0,9.082,4.066,9.082,9.082V217.63c0,5.016-4.066,9.082-9.082,9.082H78.871
			c-5.016,0-9.082-4.066-9.082-9.082V105.164C69.789,100.148,73.855,96.082,78.871,96.082z"/>
		<path style="fill:none;stroke:#FFFFFF;stroke-width:10.5954;" d="M220.354,220.62l0.002,40.414c0,2.868-3.767,4.101-5.536,1.813
			l-30.705-39.717"/>
	</g>
</g>
<g id="remote">
	<g>
		<path style="fill:#FFFFFF;" d="M190.461,158.504l43.304-25.143l-43.304-25.143l-43.304,25.143L190.461,158.504z M190.461,191.845
			l29.771-17.491v-22.957l-29.771,17.491l-29.771-17.491v22.957L190.461,191.845z M247.297,248.143h-54.13
			c0-3.644-0.135-7.288-0.406-10.931c-0.271-3.644-0.677-7.288-1.218-10.932h55.753V95.1H74.083v12.571
			c-3.609-0.546-7.217-0.956-10.826-1.23s-7.217-0.41-10.826-0.41V95.1c0-6.012,2.12-11.159,6.36-15.441
			c4.24-4.282,9.337-6.422,15.292-6.422h173.214c5.954,0,11.052,2.141,15.292,6.422c4.24,4.282,6.36,9.429,6.36,15.441v131.18
			c0,6.012-2.12,11.159-6.36,15.441C258.349,246.002,253.252,248.143,247.297,248.143z M52.431,248.143v-32.795
			c9.022,0,16.69,3.188,23.005,9.565s9.473,14.12,9.473,23.23H52.431z M106.561,248.143c0-15.122-5.278-28.012-15.833-38.67
			c-10.555-10.658-23.321-15.987-38.297-15.987v-21.863c21.111,0,39.018,7.424,53.724,22.273
			c14.705,14.849,22.058,32.932,22.058,54.248H106.561z M149.864,248.143c0-13.665-2.571-26.464-7.713-38.397
			c-5.142-11.934-12.089-22.319-20.84-31.155c-8.751-8.837-19.036-15.851-30.854-21.044c-11.818-5.192-24.494-7.789-38.026-7.789
			v-21.863c16.419,0,31.846,3.143,46.281,9.428c14.435,6.286,27.065,14.894,37.891,25.826
			c10.826,10.932,19.351,23.685,25.576,38.261c6.225,14.575,9.337,30.153,9.337,46.733H149.864z"/>
	</g>
</g>
<g id="resources" style="display:none;">
	<g style="display:inline;">
		<path style="fill:#FFFFFF;" d="M129.809,222.452h61.762c2.916,0,5.361-0.986,7.334-2.959c1.973-1.973,2.959-4.418,2.959-7.334
			s-0.986-5.361-2.959-7.334c-1.973-1.973-4.418-2.959-7.334-2.959h-61.762c-2.917,0-5.361,0.986-7.334,2.959
			c-1.973,1.973-2.96,4.418-2.96,7.334s0.987,5.361,2.96,7.334C124.448,221.466,126.892,222.452,129.809,222.452z M129.809,181.277
			h61.762c2.916,0,5.361-0.986,7.334-2.959c1.973-1.973,2.959-4.418,2.959-7.334c0-2.917-0.986-5.361-2.959-7.334
			c-1.973-1.973-4.418-2.96-7.334-2.96h-61.762c-2.917,0-5.361,0.987-7.334,2.96c-1.973,1.973-2.96,4.418-2.96,7.334
			c0,2.916,0.987,5.361,2.96,7.334C124.448,180.291,126.892,181.277,129.809,181.277z M98.928,263.628
			c-5.662,0-10.508-2.016-14.54-6.048c-4.032-4.032-6.048-8.878-6.048-14.54V78.34c0-5.662,2.016-10.508,6.048-14.54
			c4.032-4.032,8.878-6.048,14.54-6.048h73.858c2.745,0,5.361,0.515,7.849,1.544c2.488,1.029,4.675,2.488,6.562,4.375l49.925,49.925
			c1.887,1.887,3.345,4.075,4.375,6.562c1.03,2.488,1.544,5.104,1.544,7.849V243.04c0,5.661-2.016,10.508-6.047,14.54
			c-4.032,4.032-8.878,6.048-14.54,6.048H98.928z M170.984,119.515V78.34H98.928v164.7h123.525V129.809h-41.175
			c-2.916,0-5.361-0.986-7.334-2.959C171.97,124.876,170.984,122.431,170.984,119.515z"/>
	</g>
</g>
<g id="seatingchart" style="display:none;">
	<g style="display:inline;">
		<path style="fill:#FFFFFF;" d="M68.318,113.906c0-9.696,7.86-17.556,17.556-17.556h52.296c9.696,0,17.556,7.86,17.556,17.556
			v41.716H72.707c-2.424,0-4.389-1.965-4.389-4.389V113.906z"/>
		<path style="fill:#FFFFFF;" d="M209.858,56.011L209.858,56.011c11.121,0,20.136,9.015,20.136,20.136v0.208
			c0,11.121-9.015,20.136-20.136,20.136l0,0c-11.121,0-20.136-9.015-20.136-20.136v-0.208
			C189.722,65.026,198.737,56.011,209.858,56.011z"/>
		<path style="fill:#FFFFFF;" d="M111.103,56.011L111.103,56.011c11.121,0,20.136,9.015,20.136,20.136v0.208
			c0,11.121-9.015,20.136-20.136,20.136l0,0c-11.121,0-20.136-9.015-20.136-20.136v-0.208
			C90.966,65.026,99.982,56.011,111.103,56.011z"/>
		<path style="fill:#FFFFFF;" d="M165.322,113.906c0-9.696,7.86-17.556,17.556-17.556h52.296c9.696,0,17.556,7.86,17.556,17.556
			v37.327c0,2.424-1.965,4.389-4.389,4.389h-83.019V113.906z"/>
		<path style="fill:#FFFFFF;" d="M253.062,207.33c0.025,9.696-7.814,17.569-17.51,17.586l-52.433,0.089
			c-9.696,0.017-17.577-7.83-17.602-17.526l-0.11-41.842l83.157-0.142c2.424-0.004,4.394,1.958,4.4,4.382L253.062,207.33z"/>
		<path style="fill:#FFFFFF;" d="M111.541,224.888L111.541,224.888c11.121,0,20.136,9.015,20.136,20.136v0.208
			c0,11.121-9.015,20.136-20.136,20.136l0,0c-11.121,0-20.136-9.015-20.136-20.136v-0.208
			C91.405,233.904,100.421,224.888,111.541,224.888z"/>
		<path style="fill:#FFFFFF;" d="M209.858,224.536L209.858,224.536c11.121,0,20.136,9.015,20.136,20.136v0.208
			c0,11.121-9.015,20.136-20.136,20.136l0,0c-11.121,0-20.136-9.015-20.136-20.136v-0.208
			C189.722,233.552,198.737,224.536,209.858,224.536z"/>
		<path style="fill:#FFFFFF;" d="M156.125,207.489c0.025,9.696-7.814,17.569-17.51,17.586l-52.433,0.09
			c-9.696,0.016-17.577-7.831-17.602-17.526l-0.098-37.453c-0.006-2.424,1.954-4.392,4.378-4.397l83.156-0.142L156.125,207.489z"/>
	</g>
</g>
</svg>
