<?xml version="1.0" encoding="UTF-8"?>
<svg id="Layer_1" xmlns="http://www.w3.org/2000/svg" version="1.1" viewBox="0 0 24 24">
  <!-- Generator: Adobe Illustrator 29.7.1, SVG Export Plug-In . SVG Version: 2.1.1 Build 8)  -->
  <defs>
    <style>
      .st0 {
        fill: #fff;
      }
    </style>
  </defs>
  <path class="st0" d="M7.5,18c-.9,0-1.5-.2-2-.7-.5-.5-.8-1.1-.8-1.8s.3-1.3.9-1.8,1.3-.7,2.2-.7.8,0,1.1.1.7.2,1,.3v-.3c0-.5-.2-.9-.5-1.2s-.8-.5-1.4-.5-.7,0-1.1.2-.6.4-.8.7l-1.2-.9c.4-.5.9-.8,1.4-1.1.5-.2,1.1-.4,1.7-.4,1.2,0,2,.3,2.6.8.6.5.9,1.4.9,2.4v4.5h-1.6v-.9h-.1c-.2.4-.6.7-1,.9s-.8.3-1.3.3ZM7.8,16.6c.6,0,1.1-.2,1.5-.6s.6-.9.6-1.4c-.2-.1-.5-.2-.8-.3s-.6-.1-1-.1c-.5,0-1,.1-1.3.4s-.5.5-.5.9.1.6.4.8.6.3,1,.3ZM17.5,18l-4-4,1.4-1.4,1.6,1.6v-6.2h2v6.2l1.6-1.6,1.4,1.4-4,4Z"/>
</svg>