<?xml version="1.0" encoding="UTF-8"?>
<svg id="Layer_1" xmlns="http://www.w3.org/2000/svg" version="1.1" viewBox="0 0 250.1 86">
  <!-- Generator: Adobe Illustrator 29.6.1, SVG Export Plug-In . SVG Version: 2.1.1 Build 9)  -->
  <defs>
    <style>
      .st0 {
        fill: #fff;
      }

      .st1 {
        opacity: .5;
      }
    </style>
  </defs>
  <path class="st0" d="M0,.9v59.2h59.2V.9H0ZM51.8,31.9h-15.1l13.9,5.8-1.1,2.6-13.9-5.8,10.7,10.7-2,2-10.7-10.7,5.8,13.9-2.6,1.1-5.8-13.9v15.1h-2.8v-15.1l-5.8,13.9-2.6-1.1,5.8-13.9-10.7,10.7-2-2,10.7-10.7-13.9,5.8-1.1-2.6,13.9-5.8H7.6v-2.8h15.1l-13.9-5.8,1.1-2.6,13.9,5.8-10.7-10.7,2-2,10.7,10.7-5.8-13.9,2.6-1.1,5.8,13.9v-15.1h2.8v15.1l5.8-13.9,2.6,1.1-5.8,13.9,10.7-10.7,2,2-10.7,10.7,13.9-5.8,1.1,2.6-13.9,5.8h15.1v2.8Z"/>
  <g>
    <path class="st0" d="M0,85.8v-12.2h5.9c.8,0,1.6.2,2.2.5.6.3,1.2.8,1.5,1.4s.5,1.3.5,2-.2,1.5-.6,2.1-1,1-1.6,1.4l2.6,4.9h-3.4l-2.2-4.5h-2v4.5H0ZM3,78.9h2.6c.5,0,.8-.1,1.1-.4.3-.3.4-.6.4-1s-.1-.8-.4-1.1c-.3-.3-.7-.4-1.1-.4h-2.6v2.9Z"/>
    <path class="st0" d="M13.9,85.8v-12.2h9.2v2.5h-6.2v2.3h4.4v2.4h-4.4v2.4h6.3v2.5h-9.3Z"/>
    <path class="st0" d="M26,85.8l4.8-12.2h3.4l4.7,12.2h-3.2l-1-2.9h-4.5l-1,2.9h-3.1ZM30.9,80.5h2.8l-1.4-4-1.4,4Z"/>
    <path class="st0" d="M41.8,85.8v-12.2h3v9.6h6v2.6h-9Z"/>
    <path class="st0" d="M54.8,85.8v-12.2h3v9.6h6v2.6h-9Z"/>
    <path class="st0" d="M69,85.8v-4.6l-5-7.6h3.5l3.1,5,3.1-5h3.3l-5,7.6v4.6h-3Z"/>
    <path class="st0" d="M91.1,86c-.9,0-1.8-.2-2.5-.5s-1.5-.8-2-1.3c-.6-.6-1-1.2-1.4-2-.3-.8-.5-1.6-.5-2.5s.2-1.7.5-2.5.8-1.4,1.4-2c.6-.6,1.2-1,2-1.3s1.6-.5,2.5-.5,2,.2,2.9.6,1.6,1,2.2,1.8l-2.1,1.8c-.4-.5-.8-.9-1.3-1.1s-1.1-.4-1.7-.4-.9,0-1.3.3-.8.4-1,.8-.5.7-.7,1.1-.2.9-.2,1.4,0,1,.2,1.5c.2.5.4.8.7,1.2.3.3.7.6,1.1.8.4.2.9.3,1.3.3s.9,0,1.3-.3c.4-.2.7-.4,1-.7.3-.3.5-.7.6-1.1h-3v-2.5h6.3v.9c0,.9-.1,1.8-.5,2.5-.3.8-.7,1.5-1.3,2-.5.6-1.2,1-1.9,1.3-.7.3-1.5.5-2.4.5Z"/>
    <path class="st0" d="M100.9,85.8v-12.2h5.9c.8,0,1.6.2,2.2.5.6.3,1.2.8,1.5,1.4s.5,1.3.5,2-.2,1.5-.6,2.1-1,1-1.6,1.4l2.6,4.9h-3.4l-2.2-4.5h-2v4.5h-3ZM103.9,78.9h2.6c.5,0,.8-.1,1.1-.4.3-.3.4-.6.4-1s-.1-.8-.4-1.1c-.3-.3-.7-.4-1.1-.4h-2.6v2.9Z"/>
    <path class="st0" d="M114.8,85.8v-12.2h9.2v2.5h-6.2v2.3h4.4v2.4h-4.4v2.4h6.3v2.5h-9.3Z"/>
    <path class="st0" d="M126.9,85.8l4.8-12.2h3.4l4.7,12.2h-3.2l-1-2.9h-4.5l-1,2.9h-3.1ZM131.9,80.5h2.8l-1.4-4-1.4,4Z"/>
    <path class="st0" d="M143.6,85.8v-9.6h-3.9v-2.6h10.9v2.6h-3.9v9.6h-3Z"/>
    <path class="st0" d="M159.2,85.8v-12.2h5.9c.8,0,1.6.2,2.2.5.6.3,1.2.8,1.5,1.4s.5,1.3.5,2-.2,1.5-.6,2.1-1,1-1.6,1.4l2.6,4.9h-3.4l-2.2-4.5h-2v4.5h-3ZM162.2,78.9h2.6c.5,0,.8-.1,1.1-.4.3-.3.4-.6.4-1s-.1-.8-.4-1.1c-.3-.3-.7-.4-1.1-.4h-2.6v2.9Z"/>
    <path class="st0" d="M173.1,85.8v-12.2h9.2v2.5h-6.2v2.3h4.4v2.4h-4.4v2.4h6.3v2.5h-9.3Z"/>
    <path class="st0" d="M185.2,85.8l4.8-12.2h3.4l4.7,12.2h-3.2l-1-2.9h-4.5l-1,2.9h-3.1ZM190.1,80.5h2.8l-1.4-4-1.4,4Z"/>
    <path class="st0" d="M201.1,85.8v-12.2h5c.9,0,1.7.2,2.4.5s1.4.8,2,1.3,1,1.2,1.3,1.9c.3.7.5,1.5.5,2.4s-.2,1.6-.5,2.4-.8,1.4-1.3,1.9-1.2,1-2,1.3c-.7.3-1.5.5-2.4.5h-5ZM204.1,83.2h2c.6,0,1.1-.2,1.5-.5.5-.3.8-.7,1.1-1.3s.4-1.1.4-1.8-.1-1.3-.4-1.8c-.3-.5-.6-1-1.1-1.3s-1-.5-1.5-.5h-2v7.1Z"/>
    <path class="st0" d="M215.7,85.8v-12.2h3v12.2h-3Z"/>
    <path class="st0" d="M222.9,85.8v-12.2h2.8l5.4,7.4v-7.4s2.8,0,2.8,0v12.2h-2.6l-5.6-7.6v7.6s-2.8,0-2.8,0Z"/>
    <path class="st0" d="M244.1,86c-.9,0-1.8-.2-2.5-.5s-1.5-.8-2-1.3c-.6-.6-1-1.2-1.4-2-.3-.8-.5-1.6-.5-2.5s.2-1.7.5-2.5.8-1.4,1.4-2c.6-.6,1.2-1,2-1.3.8-.3,1.6-.5,2.5-.5s2,.2,2.9.6c.9.4,1.7,1,2.2,1.8l-2.1,1.8c-.4-.5-.8-.9-1.3-1.1-.5-.3-1.1-.4-1.7-.4s-.9,0-1.3.3-.8.4-1,.8c-.3.3-.5.7-.7,1.1s-.2.9-.2,1.4,0,1,.2,1.5c.2.5.4.8.7,1.2.3.3.7.6,1.1.8.4.2.9.3,1.3.3s.9,0,1.3-.3c.4-.2.7-.4,1-.7s.5-.7.6-1.1h-3v-2.5h6.3v.9c0,.9-.2,1.8-.4,2.5-.3.8-.7,1.5-1.3,2-.5.6-1.2,1-1.9,1.3-.7.3-1.5.5-2.4.5Z"/>
  </g>
  <g>
    <path class="st0" d="M72.4,60.2V.9h28.8c4.1,0,7.7.8,10.8,2.4,3.2,1.6,5.6,3.8,7.4,6.7s2.7,6.1,2.7,9.8-1,7.1-3,10c-2,2.9-4.7,5.1-8,6.6l12.4,23.8h-16.2l-10.8-21.8h-9.6v21.8h-14.6ZM87,27h12.9c2.3,0,4.1-.6,5.5-2,1.4-1.3,2.1-3,2.1-5.1s-.7-3.9-2.1-5.1-3.2-1.9-5.5-1.9h-12.9v14Z"/>
    <path class="st0" d="M160.3,61.1c-4.4,0-8.5-.8-12.2-2.3s-7.1-3.7-9.9-6.5c-2.9-2.8-5.1-6-6.6-9.7-1.6-3.7-2.4-7.7-2.4-12s.8-8.3,2.4-12,3.8-6.9,6.6-9.7c2.8-2.8,6.1-5,9.8-6.5s7.8-2.3,12.1-2.3,9.7,1,14.1,3c4.4,2,8,4.8,10.8,8.5l-10.2,8.9c-1.9-2.5-4-4.3-6.5-5.6-2.5-1.2-5.2-1.9-8.1-1.9s-4.4.4-6.3,1.3c-2,.9-3.6,2.1-5,3.7-1.4,1.6-2.5,3.5-3.3,5.6-.8,2.1-1.2,4.4-1.2,7s.4,4.9,1.2,7.1,2,4,3.4,5.6c1.5,1.6,3.2,2.8,5.2,3.7s4.1,1.4,6.5,1.4,4.3-.4,6.1-1.3c1.8-.9,3.4-2,4.7-3.5,1.3-1.5,2.2-3.2,2.7-5.1h-14.8v-12.3h30.5v4.1c0,4.5-.7,8.6-2.2,12.3-1.4,3.8-3.5,7-6.1,9.8-2.6,2.8-5.8,4.9-9.4,6.4-3.6,1.5-7.5,2.3-11.8,2.3Z"/>
    <path class="st0" d="M198.5,60.2V.9h28.8c4.1,0,7.7.8,10.8,2.4,3.2,1.6,5.6,3.8,7.4,6.7s2.7,6.1,2.7,9.8-1,7.1-3,10c-2,2.9-4.7,5.1-8,6.6l12.4,23.8h-16.2l-10.8-21.8h-9.6v21.8h-14.6ZM213.1,27h12.9c2.3,0,4.1-.6,5.5-2,1.4-1.3,2.1-3,2.1-5.1s-.7-3.9-2.1-5.1-3.2-1.9-5.5-1.9h-12.9v14Z"/>
  </g>
  <g class="st1">
    <polygon class="st0" points="28.3 23.5 22.5 9.5 19.9 10.6 25.7 24.5 28.3 27.1 28.3 23.5"/>
    <polygon class="st0" points="36.7 29.1 50.6 23.3 49.6 20.8 35.6 26.5 33.1 29.1 36.7 29.1"/>
    <polygon class="st0" points="33.6 24.5 39.4 10.6 36.8 9.5 31.1 23.5 31.1 27.1 33.6 24.5"/>
    <polygon class="st0" points="31.1 37.6 36.8 51.5 39.4 50.4 33.6 36.5 31.1 33.9 31.1 37.6"/>
    <polygon class="st0" points="35.6 34.5 49.6 40.3 50.6 37.7 36.7 31.9 33.1 31.9 35.6 34.5"/>
    <polygon class="st0" points="25.7 36.5 19.9 50.4 22.5 51.5 28.3 37.6 28.3 33.9 25.7 36.5"/>
    <polygon class="st0" points="23.7 26.5 9.8 20.8 8.7 23.3 22.6 29.1 26.3 29.1 23.7 26.5"/>
    <polygon class="st0" points="22.6 31.9 8.7 37.7 9.8 40.3 23.7 34.5 26.3 31.9 22.6 31.9"/>
  </g>
</svg>