<?xml version="1.0" encoding="UTF-8"?>
<svg id="unmuted" xmlns="http://www.w3.org/2000/svg" version="1.1" viewBox="0 0 321.4 321.4">
  <!-- Generator: Adobe Illustrator 29.6.0, SVG Export Plug-In . SVG Version: 2.1.1 Build 207)  -->
  <defs>
    <style>
      .st0 {
        fill: none;
        stroke: #000;
        stroke-miterlimit: 10;
        stroke-width: 20px;
      }
    </style>
  </defs>
  <path class="st0" d="M232.1,91.7c21.1,16.8,34.3,41.5,34.3,68.8s-13.4,52.2-34.7,69.1"/>
  <path class="st0" d="M210.1,118.9c13.3,9.9,21.7,24.9,21.7,41.7s-8.7,32.1-22.2,42"/>
  <path d="M169.7,248.4h0c-2,0-4-.7-5.6-2l-54.9-45.5v-80.4l54.9-45.4c1.6-1.3,3.5-2,5.6-2h0c4.8,0,8.7,3.9,8.7,8.7v157.9c0,4.8-3.9,8.7-8.7,8.7h0Z"/>
  <path d="M94.4,120.5h-26.1c-10.5,0-19.1,8.5-19.1,19.1v42.3c0,10.5,8.5,19.1,19.1,19.1h26.1v-80.4s0,0,0,0Z"/>
</svg>