<?xml version="1.0" encoding="UTF-8"?>
<svg xmlns="http://www.w3.org/2000/svg" version="1.1" xmlns:xlink="http://www.w3.org/1999/xlink" viewBox="0 0 1920 1080">
  <!-- Generator: Adobe Illustrator 29.3.1, SVG Export Plug-In . SVG Version: 2.1.0 Build 151)  -->
  <defs>
    <style>
      .st0, .st1 {
        fill: #99c138;
      }

      .st2 {
        fill: #004ca8;
      }

      .st3 {
        fill: #fff;
      }

      .st4 {
        fill: #7db40a;
      }

      .st5, .st1, .st6 {
        display: none;
      }

      .st7, .st6 {
        fill: #185f9e;
      }
    </style>
  </defs>
  <g id="Layer_1" class="st5">
    <g>
      <path class="st2" d="M1920,0H0v1080h1920V0Z"/>
      <g class="st5">
        <path class="st3" d="M95.6,204.3l-27-99.3,23.9-6.5,4,14.6h2c3.1-13,11.6-21.3,25.5-25.1,11.5-3.1,20.7-2.3,27.8,2.5s12.2,13.1,15.5,25.1l17.5,64.5-25,6.8-16.7-61.5c-1.8-6.6-4.4-11-7.8-13.2-3.4-2.2-8-2.5-13.9-.9-7.1,1.9-12.1,5.8-14.8,11.5-2.7,5.7-2.8,13.5,0,23.4l14,51.4-24.9,6.7ZM81,85.4c-2.3-8.4-2.5-15-.6-19.8s5.3-7.9,10.4-9.3c2.5-.7,4.8-.9,7-.6,2.2.3,4.6,1,7.2,2.1l4.1,2c1.8.8,3.1,1.3,3.8,1.6.7.2,1.4.2,2,0,1-.3,1.6-1,1.8-2.3.2-1.2-.2-3.4-1-6.6l-.8-2.8,15-4.1.7,2.5c2.3,8.5,2.5,15.1.7,19.9-1.8,4.8-5.3,7.9-10.4,9.3-2.5.7-4.9.9-7.2.7-2.2-.2-4.6-1-7.2-2.2l-4-2c-1.6-.8-2.8-1.3-3.6-1.5-.8-.2-1.5-.2-2.1,0-1,.3-1.6,1-1.8,2.3-.2,1.2.2,3.4,1,6.5l.8,2.8-15,4.1-.8-2.6Z"/>
        <path class="st3" d="M1839.6,654.6l-18.3-67.5,16.3-4.4,2.7,9.9h1.4c2.1-8.8,7.9-14.5,17.3-17.1,7.8-2.1,14.1-1.5,18.9,1.7s8.3,8.9,10.5,17l11.9,43.9-17,4.6-11.4-41.8c-1.2-4.5-3-7.5-5.3-9s-5.5-1.7-9.4-.6c-4.9,1.3-8.2,3.9-10.1,7.8s-1.9,9.2,0,15.9l9.5,34.9-17,4.7ZM1829.7,573.8c-1.6-5.7-1.7-10.2-.4-13.5,1.3-3.3,3.6-5.4,7-6.3,1.7-.5,3.3-.6,4.8-.4s3.1.7,4.9,1.4l2.8,1.3c1.2.5,2.1.9,2.6,1.1.5,0,.9.2,1.4,0,.7-.2,1.1-.7,1.2-1.5s0-2.3-.7-4.5l-.5-1.9,10.2-2.8.5,1.7c1.6,5.8,1.7,10.3.5,13.5-1.2,3.3-3.6,5.3-7.1,6.3-1.7.5-3.3.6-4.9.5-1.5-.2-3.1-.7-4.9-1.5l-2.7-1.4c-1.1-.5-1.9-.9-2.4-1s-1-.2-1.5,0c-.7.2-1.1.7-1.2,1.6,0,.8,0,2.3.7,4.4l.5,1.9-10.2,2.8-.6-1.7Z"/>
        <path class="st3" d="M1498.4,289.8l15.9-68.1,16.4,3.8-2.3,10,1.2.6c6-6.8,13.8-9,23.3-6.8,7.9,1.8,13.1,5.3,15.8,10.5,2.7,5.1,3.1,11.8,1.2,20l-10.3,44.3-17.1-4,9.8-42.2c1.1-4.5.9-8-.4-10.4s-4-4.1-8-5c-4.9-1.1-9.1-.4-12.6,2.1s-6,7.2-7.6,14l-8.2,35.3-17.1-4.1ZM1528.1,213.9c1.3-5.8,3.3-9.8,6-12.1s5.7-3,9.2-2.2c1.7.4,3.2,1,4.4,1.9,1.2.9,2.5,2.1,3.6,3.6l1.8,2.5c.8,1.1,1.4,1.8,1.7,2.2.3.4.7.6,1.2.7.7.2,1.3-.1,1.8-.8s1-2.1,1.5-4.3l.4-1.9,10.3,2.4-.4,1.7c-1.4,5.8-3.4,9.8-6,12.1s-5.7,3-9.2,2.2c-1.7-.4-3.2-1-4.5-1.9s-2.5-2.1-3.6-3.6l-1.8-2.5c-.7-1-1.3-1.7-1.7-2-.4-.4-.8-.6-1.3-.7-.7-.2-1.3.1-1.8.8s-1,2.1-1.5,4.2l-.4,1.9-10.3-2.4.6-1.8Z"/>
        <path class="st3" d="M304.8,195.9l-5.6,23.9c-1.3,5.6.7,9.1,5.9,10.3,3.4.8,6.7,1.2,9.8,1.1s6.3-.4,9.5-1l6.6-28.2,17.8,4.1-15.2,65.2-17.8-4.1,6-25.9c-3.1.9-6.6,1.5-10.5,1.9s-8.1.1-12.6-1c-6.8-1.6-11.8-4.6-15-9-3.3-4.4-4.1-10.2-2.4-17.2l5.6-24.2,17.9,4.1Z"/>
        <path class="st3" d="M394.5,215.4c8.8,2,15,5.5,18.8,10.4s4.8,11.2,3,19l-10.2,43.4-12.4-2.9-1.4-9.6h-.5c-3.6,2.7-7.1,4.6-10.6,5.5s-7.9.7-13.3-.6c-5.8-1.4-10.3-4.2-13.3-8.4-3-4.2-3.7-9.9-2.1-17,1.6-6.9,5.2-11.5,10.8-13.6,5.6-2.1,13.3-2.3,23.1-.4l11.4,2.3.7-2.9c.8-3.4.5-6.1-1-8.1-1.4-2-3.7-3.4-6.9-4.1-3.2-.7-6.4-1-9.6-.8s-6.5.6-9.9,1.3l-3-13.4c3.8-.9,8-1.5,12.5-1.5,4.7,0,9.3.3,13.9,1.4ZM395.5,253.9l-7-1.4c-5.8-1.2-10-1.1-12.7.3-2.7,1.4-4.4,3.6-5.1,6.7-.6,2.7-.3,4.8,1,6.4,1.3,1.5,3.3,2.6,5.8,3.2,3.8.9,7.3.5,10.5-1.2s5.2-4.6,6.2-8.7l1.3-5.3Z"/>
        <path class="st3" d="M450.6,299.8c-9.7-2.2-16.6-6.7-20.7-13.2-4.1-6.6-4.7-15.6-2-27.3,1.9-8,4.7-14.1,8.6-18.5s8.5-7.2,13.8-8.5c5.4-1.3,11.2-1.2,17.5.3,4.4,1,8.2,2.4,11.3,4,3.1,1.6,5.8,3.3,7.9,5.1l-8.5,12.5c-2.5-1.8-4.9-3.3-7.2-4.6-2.3-1.3-4.6-2.2-7-2.8-9.2-2.1-15.4,3.3-18.4,16.5-1.5,6.5-1.4,11.6.3,15.3,1.7,3.7,4.8,6,9.1,7,3.7.9,7.2,1.1,10.2.8,3.1-.3,6.2-1.1,9.3-2.2l-3.5,15.2c-3.1,1.1-6.3,1.7-9.4,1.8-2.9.2-6.8-.3-11.3-1.4Z"/>
        <path class="st3" d="M1690.6,703.3l-8.4,36.1c-2,8.5,1,13.7,9,15.6,5.2,1.2,10.1,1.8,14.8,1.7,4.7,0,9.5-.6,14.4-1.5l9.9-42.6,26.9,6.3-22.9,98.5-26.9-6.3,9.1-39.1c-4.7,1.3-10,2.3-15.9,2.9-5.9.6-12.2,0-19.1-1.5-10.2-2.4-17.8-6.9-22.7-13.6-4.9-6.7-6.1-15.3-3.6-26.1l8.5-36.6,26.9,6.2Z"/>
        <path class="st3" d="M1826.3,732.8c13.2,3.1,22.7,8.3,28.4,15.7,5.7,7.3,7.2,16.9,4.5,28.7l-15.3,65.7-18.8-4.4-2.1-14.6-.7-.2c-5.5,4.3-10.8,7.1-16.1,8.5-5.2,1.3-12,1-20.1-.9-8.8-2-15.5-6.3-20.1-12.7s-5.6-14.9-3.1-25.7c2.4-10.5,7.9-17.3,16.4-20.5s20.1-3.4,34.9-.6l17.3,3.4,1-4.3c1.2-5.2.7-9.3-1.4-12.3s-5.6-5.1-10.4-6.2c-4.8-1.1-9.7-1.5-14.6-1.2s-9.9,1-14.9,1.9l-4.6-20.3c5.8-1.4,12.1-2.2,19-2.3,6.8-.1,13.7.6,20.7,2.3ZM1827.8,790.9l-10.5-2.1c-8.7-1.8-15.1-1.6-19.2.5-4,2.1-6.6,5.5-7.7,10.2-1,4.1-.4,7.3,1.5,9.6,2,2.3,4.9,3.9,8.8,4.8,5.8,1.3,11.1.8,15.8-1.7,4.8-2.5,7.9-6.9,9.3-13.1l2-8.2Z"/>
        <path class="st3" d="M1911.1,860.4c-14.7-3.4-25.1-10.1-31.2-20s-7.1-23.7-3-41.2c2.8-12,7.1-21.3,13-28,5.9-6.6,12.8-10.9,20.9-12.8,8.1-1.9,16.9-1.8,26.5.4,6.7,1.6,12.4,3.6,17.1,6.1s8.7,5.1,12,7.7l-12.8,18.9c-3.8-2.7-7.4-5-10.8-6.9s-6.9-3.3-10.5-4.2c-14-3.2-23.2,5.1-27.9,24.9-2.3,9.9-2.2,17.6.4,23.1s7.2,9.1,13.8,10.6c5.7,1.3,10.8,1.7,15.5,1.2s9.4-1.6,14.1-3.3l-5.3,22.9c-4.7,1.7-9.5,2.6-14.2,2.7-5,.2-10.8-.5-17.6-2.1Z"/>
        <path class="st3" d="M1229-92.2l-8.4,36.1c-2,8.5,1,13.7,9,15.6,5.2,1.2,10.1,1.8,14.8,1.7,4.7,0,9.5-.6,14.4-1.5l9.9-42.6,26.9,6.3-22.9,98.5-26.9-6.3,9.1-39.1c-4.7,1.3-10,2.3-15.9,2.9s-12.2.1-19.1-1.5c-10.2-2.4-17.8-6.9-22.7-13.6-4.9-6.7-6.1-15.3-3.6-26.1l8.5-36.6,26.9,6.2Z"/>
        <path class="st3" d="M1364.6-62.7c13.2,3.1,22.7,8.3,28.4,15.7,5.7,7.3,7.2,16.9,4.5,28.7l-15.3,65.7-18.8-4.4-2.1-14.6-.7-.2c-5.5,4.3-10.8,7.1-16.1,8.5-5.2,1.3-12,1-20.1-.9-8.8-2-15.5-6.3-20.1-12.7-4.6-6.4-5.6-14.9-3.1-25.7,2.4-10.5,7.9-17.3,16.4-20.5s20.1-3.4,34.9-.6l17.3,3.4,1-4.3c1.2-5.2.7-9.3-1.4-12.3s-5.6-5.1-10.4-6.2c-4.8-1.1-9.7-1.5-14.6-1.2s-9.9,1-14.9,1.9l-4.6-20.3c5.8-1.4,12.1-2.2,19-2.3,6.8,0,13.7.7,20.7,2.3ZM1366.1-4.5l-10.5-2.1c-8.7-1.8-15.1-1.6-19.2.5-4,2.1-6.6,5.5-7.7,10.2-1,4.1-.4,7.3,1.5,9.6,2,2.3,4.9,3.9,8.8,4.8,5.8,1.3,11.1.8,15.8-1.7,4.8-2.5,7.9-6.9,9.3-13.1l2-8.2Z"/>
        <path class="st3" d="M1449.4,64.9c-14.7-3.4-25.1-10.1-31.2-20s-7.1-23.7-3-41.2c2.8-12,7.1-21.3,13-28,5.9-6.6,12.8-10.9,20.9-12.8s16.9-1.8,26.5.4c6.7,1.6,12.4,3.6,17.1,6.1,4.7,2.5,8.7,5.1,12,7.7l-12.8,18.9c-3.8-2.7-7.4-5-10.8-6.9s-6.9-3.3-10.5-4.2c-14-3.2-23.2,5.1-27.9,24.9-2.3,9.9-2.2,17.6.4,23.1s7.2,9.1,13.8,10.6c5.7,1.3,10.8,1.7,15.5,1.2s9.4-1.6,14.1-3.3l-5.3,22.9c-4.7,1.7-9.5,2.6-14.2,2.7-4.9.2-10.8-.5-17.6-2.1Z"/>
        <path class="st3" d="M273.4,612.3c-2.6-7.9-10.1-19.8-16.3-28.4l-15.3,5.9c6.3,8.9,12.9,21.4,15.2,29l16.4-6.5ZM246.3,643.4c-5.5,6.1-11.8,11.6-18.6,16.7.1-7.9.6-16.7,1.5-25.8l38.1,8.9,3.9-16.6-39.9-9.3c1.8-13.2,4.4-26.9,7.9-40.5l-18.3-4.2c-3,13.4-5.7,27.1-7.6,40.6l-28.1-6.6,4.6-19.8c8.9.2,17.4.2,25.3-.3l-8.3-17.5c-16.1,1.4-39.9.8-61.1-1.2,1,4.4,1.8,11.4,1.6,15.8,7.7.9,16,1.7,24.2,2.2l-3.9,16.7-27.7-6.5-3.9,16.6,27.7,6.5-4.6,19.6c-12.1-.6-23-1.5-31.7-2.1l.2,18.6c8.1.3,17.6.6,27.5.8l-4.9,21.3c-.5,2.3-1.6,2.9-4.2,2.3-2.7-.5-11.2-2.3-19.3-4.7,1.4,5.4,2.5,14,2.1,19,11.8,2.9,20.8,4.2,27.2,2.8,6.5-1.4,9.7-5.6,11.9-15.2l5.8-25.1,25,.7,2.4-16.1c-7.8-.4-15.7-.7-23.5-1.1l3.9-16.7,29.8,6.9c-1.6,14.8-2.2,28.7-1.7,41-12.1,6-25,10.6-37.5,13.1,3.3,4.9,6.8,12.1,8.3,16.8,10.5-2.7,21.1-6.5,31.3-11.6,3,15.8,9.1,26.5,19.8,29,13.3,3.1,20.3-2.1,29-27.1-4.2-3-9.2-8.3-12-13.3-4.8,17.1-8.2,23.8-11.2,23-4.4-1-7.4-8.8-8.7-21,11.7-7.3,22.4-16.1,31.8-26.4l-14.1-10.2Z"/>
        <path class="st3" d="M1769.4,36.2c-2.6-7.9-10.1-19.8-16.3-28.4l-15.3,5.9c6.3,8.9,12.9,21.4,15.2,29l16.4-6.5ZM1742.3,67.4c-5.5,6.1-11.8,11.6-18.6,16.7,0-7.9.6-16.7,1.5-25.8l38.1,8.9,3.9-16.6-39.9-9.3c1.8-13.2,4.4-26.9,7.9-40.5l-18.3-4.3c-3,13.4-5.7,27.1-7.6,40.6l-28.1-6.6,4.6-19.8c8.9.2,17.4.2,25.3-.3l-8.3-17.5c-16.1,1.4-39.9.8-61.1-1.2,1,4.4,1.8,11.4,1.6,15.8,7.7.9,16,1.7,24.2,2.2l-3.9,16.7-27.7-6.5-3.9,16.6,27.7,6.5-4.6,19.6c-12.1-.6-23-1.5-31.7-2.1l.2,18.6c8.1.3,17.6.6,27.5.8l-4.9,21.3c-.5,2.3-1.6,2.9-4.2,2.3-2.7-.5-11.2-2.3-19.3-4.7,1.4,5.4,2.5,14,2.1,19,11.8,2.9,20.8,4.2,27.2,2.8,6.5-1.4,9.7-5.6,11.9-15.2l5.8-25.1,25,.7,2.4-16.1c-7.8-.4-15.7-.7-23.5-1.1l3.9-16.7,29.8,6.9c-1.6,14.8-2.2,28.7-1.7,41-12.1,6-25,10.6-37.5,13.1,3.3,4.9,6.8,12.1,8.3,16.8,10.5-2.7,21.1-6.5,31.3-11.6,3,15.8,9.1,26.5,19.8,29,13.3,3.1,20.3-2.1,29-27.1-4.2-3-9.2-8.3-12-13.3-4.8,17.1-8.2,23.8-11.2,23-4.4-1-7.4-8.8-8.7-21,11.7-7.3,22.4-16.1,31.8-26.4l-14.1-10.1Z"/>
        <path class="st3" d="M646.8-2.9c-7.9-6.8-23.6-14.9-35.7-20.2l-12.7,16.1c12.5,5.6,27.7,14.8,35,21.6l13.4-17.5ZM637.6,48c-1.9,10.1-5.3,20.1-9.3,29.9-4.9-8.6-10-18.4-14.9-28.8l46.8-14.9-6.5-20.3-49,15.5c-6.5-15.4-12.5-31.9-17.5-48.8l-22.5,7.1c5.4,16.3,11.2,32.9,17.8,48.6l-34.6,11-7.7-24.3c9.8-5.5,18.9-11,27.1-16.5l-20.2-13.6c-16.5,11.8-42.6,26.4-66.7,37.8,3.9,4.1,9.3,11.1,11.8,16.1,8.8-4,18.3-8.4,27.5-13.1l6.5,20.5-34,10.8,6.5,20.3,34-10.8,7.7,24.1c-13.4,7-25.8,13.1-35.5,18l12.1,19.9c9-4.8,19.4-10.7,30.2-16.7l8.3,26.1c.9,2.9,0,4.1-3.1,5.2-3.2,1.2-13.6,4.7-23.8,7.4,4.9,5,11.6,13.5,14.4,19.2,14.6-4.4,25.1-8.8,31.1-14.4,6.1-5.7,6.8-12.3,3.1-24l-9.8-30.8,27.5-15.3-7.8-18.9c-8.7,4.5-17.4,9.3-26.1,13.8l-6.5-20.5,36.5-11.6c7.8,17,16,32.4,24.5,45.3-9.2,14.2-20.2,27.4-32.1,38.1,6.8,3.2,15,8.7,19.7,12.8,9.6-9.6,18.6-20.6,26.3-32.5,13.3,15.2,26.8,22.8,40,18.6,16.4-5.2,20.5-15.2,14-47.8-6.5-.5-15.2-3.1-21.5-6.6,5.8,21.5,6.4,30.9,2.6,32.1-5.4,1.7-13.6-4.8-22.9-17.1,8-15.4,13.9-31.8,17.4-48.9l-21.4-2Z"/>
        <path class="st3" d="M1798.9,967.4l-13.3,3,16.6,72.5-19,4.3-4-17.7c-2.9,2.5-6,4.6-9.3,6.3-3.3,1.6-7.5,3.1-12.7,4.3-5.3,1.2-10.3,1.4-15.1.5-4.8-.9-9-2.9-12.5-6.2-3.5-3.2-5.9-7.7-7.2-13.3-1.2-5.2-.9-10,.8-14.5s4.6-8.3,8.6-11.4c4-3.2,9.1-5.4,15.1-6.8,3.9-.9,7.4-1.6,10.5-2.1s5.5-.8,7.2-.8l2.1,15.5c-3.7,0-7.6.6-11.9,1.5-.7.2-1.3.3-1.8.4l16.9,13.5c.9-1,1.8-2.1,2.6-3.1.8-1.1,1.6-2.2,2.3-3.5l-8-35.1-57.5,13.1-3.6-15.6,89.7-20.5,3.5,15.7ZM1740.7,1016.9c.9,4.1,2.8,6.6,5.6,7.5s6.1,1,9.9,0c1.8-.4,3.5-1,5.1-1.8l-18.4-14.7c-2.2,2.5-3.1,5.4-2.2,8.9Z"/>
        <path class="st3" d="M1761.2,960.7c-2.4-2.9-4.3-5.6-5.6-8.2-1.3-2.5-2.2-5.1-2.8-7.6-1.6-7-.5-13.1,3.4-18.3,3.9-5.3,10-8.8,18.4-10.8,7.6-1.7,14.2-1.4,20.1.9,5.8,2.3,11,6.1,15.5,11.2,4.5,5.1,8.5,11.1,12.1,17.8l14.8-3.4,3.6,15.6-13.4,3.1,16.6,72.5-18.9,4.3-16.6-72.5-11.3,2.6-3.6-15.6,12-2.8c-4.1-7-8.2-12.1-12.3-15.4-4.1-3.2-8.4-4.3-13-3.3-3.4.8-5.7,2.3-6.9,4.6s-1.5,4.9-.8,7.8c.6,2.8,1.6,5.3,2.9,7.5,1.3,2.1,2.7,4.1,4.2,6l-18.4,4Z"/>
        <path class="st3" d="M21,755.6c-2.8.4-5.3,0-7.3-1.6s-3.2-3.6-3.6-6.3.2-5,1.7-7,3.7-3.2,6.6-3.6c1.9-.3,3.6,0,5.2.5s2.9,1.5,3.9,2.8,1.6,2.8,1.9,4.6.1,3.4-.5,5c-.6,1.5-1.6,2.8-3,3.8-1.4.9-3,1.5-4.9,1.8ZM22.8,854c-4.6.7-8.4.6-11.4-.2l.2-12.7,1-.5c1.6.5,3.4.6,5.5.3,4.6-.7,6.5-3.7,5.8-9.2l-9.6-67.6,15.7-2.2,9.6,67.2c1,7.3,0,13-2.7,17.2-2.9,4.3-7.6,6.8-14.1,7.7Z"/>
        <path class="st3" d="M105.9,787.3l-40.3,5.7c1.2,5.4,3.3,9.2,6.4,11.3,3,2.1,6.8,2.8,11.4,2.2,3.6-.5,6.4-1.6,8.5-3.3,2-1.7,3.6-4,4.5-6.9l1.2-.2,11.4,5.2c-1.4,4.7-4,8.7-7.7,12s-9.1,5.5-16,6.4c-6.5.9-12.3.5-17.3-1.3-5.1-1.8-9.2-4.9-12.5-9.4s-5.4-10.3-6.4-17.3c-1-7.1-.5-13.3,1.5-18.6s5.1-9.4,9.4-12.5c4.2-3.1,9.2-5,14.9-5.8,8.9-1.3,16,0,21.4,4.2,5.4,4,8.7,10.6,10,19.7.5,3.3.7,5.9.7,7.7l-1.1.9ZM90.9,779c-.8-4.7-2.4-8.1-4.8-9.9-2.4-1.9-5.6-2.6-9.5-2-8,1.1-12,6.4-12.1,15.7l26.4-3.8Z"/>
        <path class="st3" d="M1211.2,111.3c-3.9.6-7.2-.2-9.9-2.2-2.8-2-4.4-4.9-4.9-8.6s.3-6.8,2.3-9.5c2.1-2.7,5.1-4.3,8.9-4.9,2.6-.4,5,0,7.1.7,2.2.8,4,2.1,5.3,3.8,1.4,1.7,2.2,3.8,2.6,6.2.3,2.4,0,4.7-.7,6.8-.8,2.1-2.2,3.8-4.1,5.2-1.8,1.3-4,2.1-6.6,2.5ZM1213.7,245.5c-6.3.9-11.5.8-15.5-.3l.2-17.3,1.4-.7c2.2.7,4.7.8,7.5.4,6.3-.9,8.9-5.1,7.9-12.5l-13.1-92.2,21.5-3.1,13,91.5c1.4,10,.2,17.8-3.7,23.5-4,5.9-10.4,9.4-19.2,10.7Z"/>
        <path class="st3" d="M1326.9,153.8l-54.9,7.8c1.7,7.4,4.6,12.5,8.7,15.3,4.1,2.9,9.3,3.8,15.5,3,4.9-.7,8.8-2.2,11.5-4.5,2.8-2.3,4.9-5.4,6.2-9.4l1.6-.2,15.6,7.1c-1.9,6.4-5.5,11.8-10.6,16.4-5.1,4.5-12.4,7.4-21.8,8.8-8.8,1.3-16.7.7-23.6-1.8-6.9-2.4-12.5-6.7-17-12.9s-7.3-14-8.7-23.5c-1.4-9.7-.7-18.1,2-25.3s7-12.9,12.7-17c5.8-4.2,12.6-6.8,20.4-7.9,12.1-1.7,21.8.2,29.1,5.7,7.3,5.5,11.9,14.4,13.7,26.8.6,4.5,1,8,1,10.5l-1.4,1.1ZM1306.5,142.5c-1.1-6.5-3.3-11-6.6-13.6-3.2-2.6-7.6-3.5-13-2.7-10.8,1.5-16.3,8.7-16.5,21.4l36.1-5.1Z"/>
        <path class="st3" d="M190.3,472.8v-47.7h18.4v33.1l-9.2,14.6h-9.2Z"/>
        <path class="st3" d="M219.6,498.9v-15.5h22.9v-36.5c0-2-.4-3.6-1.2-4.6-.8-1.1-2.3-1.6-4.4-1.6h-13.2v-15.4h18.6c6,0,10.6,1.7,13.8,5,3.2,3.3,4.8,8.1,4.8,14.3v54.4h-41.3q0-.1,0-.1Z"/>
        <path class="st3" d="M278,498.9v-20.5c0-6.7,1.1-12.8,3.4-18.3s5.7-9.5,10.3-12.1l-16.7-22.8h21.1l25.9,37.6c1.6-1.7,2.7-4.1,3.4-7.1.7-3,1.1-6.6,1.1-10.7v-19.9h18.4v19.1c0,6.9-1.2,13.1-3.6,18.6s-5.9,9.5-10.6,12.1l18.1,24h-21.1l-27.1-38.5c-2.9,3.7-4.3,9.4-4.3,17.2v21.3h-18.3Z"/>
        <path class="st3" d="M195.8,2.5v-47.7h18.4V-12.1l-9.2,14.6h-9.2Z"/>
        <path class="st3" d="M225.1,28.6v-15.6h22.9V-23.5c0-2-.4-3.6-1.2-4.6-.8-1.1-2.3-1.6-4.4-1.6h-13.2v-15.4h18.6c6,0,10.6,1.7,13.8,5,3.2,3.3,4.8,8.1,4.8,14.3V28.6s-41.3,0-41.3,0Z"/>
        <path class="st3" d="M283.5,28.6V8c0-6.7,1.1-12.8,3.4-18.3,2.3-5.5,5.7-9.5,10.3-12.1l-16.7-22.8h21.1l25.9,37.6c1.6-1.7,2.7-4.1,3.4-7.1.7-3,1.1-6.6,1.1-10.7v-19.9h18.4v19.1c0,6.9-1.2,13.1-3.6,18.6s-5.9,9.5-10.6,12.1l18.1,24h-21.1l-27.1-38.5c-2.9,3.7-4.3,9.4-4.3,17.2v21.3h-18.3Z"/>
        <path class="st3" d="M1696.1,322.5l-20.8-70.6,27.2-8,14.5,49-7.2,25.6-13.7,4Z"/>
        <path class="st3" d="M1751.1,348.4l-6.8-23.1,34-10-16-54.1c-.9-3-2.2-5.1-3.9-6.3-1.7-1.2-4.1-1.4-7.2-.4l-19.6,5.8-6.8-22.9,27.6-8.1c8.8-2.6,16.4-2.1,22.6,1.4,6.2,3.6,10.7,9.9,13.4,19.1l23.8,80.6-61.1,18Z"/>
        <path class="st3" d="M1837.5,322.9l-9-30.5c-2.9-9.9-3.9-19.5-2.9-28.6s4.3-16.6,10-22.5l-34.7-26.5,31.2-9.2,54.8,44.5c1.5-3.2,2.2-7.2,2-12s-1.2-10.2-3-16.3l-8.7-29.4,27.2-8,8.4,28.3c3,10.2,3.9,19.9,2.8,29.1-1.1,9.2-4.6,16.7-10.5,22.5l37.4,27.7-31.2,9.2-57-45.2c-2.6,6.7-2.2,15.8,1.1,27.3l9.3,31.6-27.2,8Z"/>
        <path class="st3" d="M30.4,986.2l18.3-78.4,30.2,7-12.7,54.4-20.7,20.5-15.1-3.5Z"/>
        <path class="st3" d="M68.7,1040.4l6-25.6,37.7,8.8,14-60.1c.8-3.4.7-6.1-.2-8.1-.9-2.1-3.2-3.5-6.7-4.3l-21.8-5.1,5.9-25.4,30.6,7.1c9.8,2.3,16.7,6.8,20.8,13.5,4,6.7,4.8,15.2,2.5,25.4l-20.8,89.5-68-15.7Z"/>
        <path class="st3" d="M164.6,1062.7l7.9-33.9c2.6-11,6.8-20.6,12.7-28.7,5.9-8.1,13.1-13.5,21.6-16l-18.7-43.9,34.7,8.1,28.1,71.8c3.2-2.2,6-5.7,8.4-10.4s4.3-10.4,5.9-17.1l7.6-32.7,30.2,7-7.3,31.5c-2.6,11.3-7,21-13,29.2-6,8.2-13.4,13.4-22.1,15.8l20.6,46.5-34.6-8.1-29.8-73.7c-6.1,5-10.7,13.8-13.6,26.6l-8.2,35.1-30.4-7.1Z"/>
        <path class="st3" d="M92.6,293.5l-30.6,2.6,9.8,115.2,30.6-2.6-9.8-115.2ZM-65,367.2c-1.3-15.7,7.2-25.3,20.5-26.4,13.7-1.2,23.8,6.9,25.1,22.5,1.4,15.9-7.2,26-20.9,27.2-13.3,1.1-23.4-7.4-24.7-23.3ZM23.3,372.5l3.5,41.4,30.1-2.6-9.4-109.8-30.1,2.6,3.6,42.7-14.5,1.2c-7.3-22.1-27.9-34.9-53.4-32.7-29.9,2.5-49.7,25-47.2,54.4,2.5,29.9,25.9,48.7,55.8,46.1,25.7-2.2,43.8-18.5,47-42l14.6-1.3ZM-11.1,501.8l-1.2-13.7,120.6-10.3-5.2-60.8-153.4,13.1,2.1,25,121.1-10.3,1,12.3-120.6,10.3,5.3,62.3,160-13.6-2.1-25-127.6,10.7Z"/>
        <path class="st3" d="M1787,454.1l-16.8-6.4-24.2,63.1,16.8,6.4,24.2-63.1ZM1685.3,452.6c3.3-8.6,10.3-11.5,17.5-8.7,7.5,2.9,10.8,9.7,7.5,18.3-3.3,8.7-10.4,11.9-17.9,9-7.3-2.8-10.4-9.9-7.1-18.6ZM1730.4,477.9l-8.7,22.7,16.5,6.3,23.1-60.1-16.5-6.3-9,23.4-7.9-3c1.8-13.5-5.8-25.5-19.7-30.8-16.4-6.3-32.5.5-38.7,16.6-6.3,16.4,1.2,32.2,17.6,38.5,14.1,5.4,27.8,1.4,35.4-10.1l7.9,2.8ZM1679.3,537.2l2.9-7.5,66,25.4,12.8-33.3-84-32.3-5.3,13.7,66.3,25.5-2.6,6.7-66-25.4-13.1,34.1,87.6,33.6,5.3-13.7-69.9-26.8Z"/>
        <path class="st3" d="M1037.8,33l-17.7,3.2,12.2,66.5,17.7-3.2-12.2-66.5ZM950.2,84.6c-1.7-9.1,2.8-15.1,10.4-16.5,7.9-1.4,14.2,2.7,15.9,11.7,1.7,9.2-2.7,15.5-10.6,17-7.6,1.4-14-3-15.7-12.2ZM1001.8,82.8l4.4,23.9,17.4-3.2-11.6-63.4-17.4,3.2,4.5,24.6-8.3,1.5c-5.4-12.4-18.1-18.7-32.8-16.1-17.3,3.2-27.5,17.3-24.4,34.3,3.2,17.3,17.8,26.9,35,23.7,14.8-2.7,24.5-13.2,25-27.1l8.2-1.4ZM989.1,160l-1.4-7.9,69.6-12.7-6.4-35.1-88.5,16.2,2.6,14.4,69.9-12.8,1.3,7.1-69.6,12.7,6.6,35.9,92.3-16.9-2.6-14.4-73.8,13.5Z"/>
        <path class="st3" d="M1880.9,99.1c-6-1.4-10.9-3.8-14.9-7.3-3.9-3.5-6.6-7.9-8-13.2s-1.3-11.3.3-18c1.6-6.7,4.1-12.1,7.7-16.3s7.9-7,13-8.4c5.1-1.4,10.6-1.4,16.6,0s10.9,3.8,14.9,7.3c3.9,3.5,6.6,7.9,8,13.3,1.4,5.3,1.3,11.3-.2,18-1.6,6.7-4.2,12.1-7.8,16.3-3.6,4.1-7.9,6.9-13,8.3-5.1,1.3-10.6,1.3-16.6,0ZM1883.9,86.1c9.5,2.2,15.6-2.9,18.5-15.3,1.5-6.4,1.4-11.4-.4-15-1.7-3.6-4.9-5.9-9.5-7-9.5-2.2-15.6,2.9-18.5,15.4-2.8,12.4.5,19.7,9.9,21.9ZM1901.5,32l-10.4-2.4.3-1.2,12-15.4,17.1,4-.3,1.2-18.7,13.8Z"/>
        <path class="st3" d="M730.2,273.3c-8-1.9-14.6-5.1-19.9-9.8-5.3-4.7-8.9-10.6-10.7-17.7-1.9-7.1-1.7-15.2.4-24.1,2.1-9,5.5-16.2,10.3-21.8s10.6-9.3,17.4-11.2c6.8-1.9,14.2-1.9,22.2,0s14.6,5.1,19.9,9.8c5.3,4.7,8.9,10.6,10.7,17.8,1.9,7.1,1.8,15.2-.3,24.2s-5.6,16.3-10.4,21.8c-4.8,5.6-10.6,9.3-17.5,11.1-6.7,1.7-14.1,1.7-22.1-.1ZM734.3,255.9c12.7,3,20.9-3.9,24.8-20.5,2-8.6,1.8-15.3-.5-20.1s-6.6-7.9-12.7-9.3c-12.7-3-21,3.9-24.8,20.6-3.9,16.5.5,26.3,13.2,29.3ZM757.9,183.4l-13.9-3.2.4-1.5,16-20.6,23,5.3-.4,1.5-25.1,18.5Z"/>
      </g>
    </g>
  </g>
  <g id="Layer_2" class="st5">
    <g>
      <path class="st6" d="M1920,0H0v1080h1920V0Z"/>
      <path class="st7" d="M95.6,204.3l-27-99.3,23.9-6.5,4,14.6h2c3.1-13,11.6-21.3,25.5-25.1,11.5-3.1,20.7-2.3,27.8,2.5s12.2,13.1,15.5,25.1l17.5,64.5-25,6.8-16.7-61.5c-1.8-6.6-4.4-11-7.8-13.2-3.4-2.2-8-2.5-13.9-.9-7.1,1.9-12.1,5.8-14.8,11.5-2.7,5.7-2.8,13.5,0,23.4l14,51.4-24.9,6.7ZM81,85.4c-2.3-8.4-2.5-15-.6-19.8s5.3-7.9,10.4-9.3c2.5-.7,4.8-.9,7-.6,2.2.3,4.6,1,7.2,2.1l4.1,2c1.8.8,3.1,1.3,3.8,1.6.7.2,1.4.2,2,0,1-.3,1.6-1,1.8-2.3.2-1.2-.2-3.4-1-6.6l-.8-2.8,15-4.1.7,2.5c2.3,8.5,2.5,15.1.7,19.9-1.8,4.8-5.3,7.9-10.4,9.3-2.5.7-4.9.9-7.2.7-2.2-.2-4.6-1-7.2-2.2l-4-2c-1.6-.8-2.8-1.3-3.6-1.5-.8-.2-1.5-.2-2.1,0-1,.3-1.6,1-1.8,2.3-.2,1.2.2,3.4,1,6.5l.8,2.8-15,4.1-.8-2.6Z"/>
      <path class="st7" d="M1839.6,654.6l-18.3-67.5,16.3-4.4,2.7,9.9h1.4c2.1-8.8,7.9-14.5,17.3-17.1,7.8-2.1,14.1-1.5,18.9,1.7s8.3,8.9,10.5,17l11.9,43.9-17,4.6-11.4-41.8c-1.2-4.5-3-7.5-5.3-9s-5.5-1.7-9.4-.6c-4.9,1.3-8.2,3.9-10.1,7.8s-1.9,9.2,0,15.9l9.5,34.9-17,4.7ZM1829.7,573.8c-1.6-5.7-1.7-10.2-.4-13.5,1.3-3.3,3.6-5.4,7-6.3,1.7-.5,3.3-.6,4.8-.4s3.1.7,4.9,1.4l2.8,1.3c1.2.5,2.1.9,2.6,1.1.5,0,.9.2,1.4,0,.7-.2,1.1-.7,1.2-1.5s0-2.3-.7-4.5l-.5-1.9,10.2-2.8.5,1.7c1.6,5.8,1.7,10.3.5,13.5-1.2,3.3-3.6,5.3-7.1,6.3-1.7.5-3.3.6-4.9.5-1.5-.2-3.1-.7-4.9-1.5l-2.7-1.4c-1.1-.5-1.9-.9-2.4-1s-1-.2-1.5,0c-.7.2-1.1.7-1.2,1.6,0,.8,0,2.3.7,4.4l.5,1.9-10.2,2.8-.6-1.7Z"/>
      <path class="st7" d="M1498.4,289.8l15.9-68.1,16.4,3.8-2.3,10,1.2.6c6-6.8,13.8-9,23.3-6.8,7.9,1.8,13.1,5.3,15.8,10.5,2.7,5.1,3.1,11.8,1.2,20l-10.3,44.3-17.1-4,9.8-42.2c1.1-4.5.9-8-.4-10.4s-4-4.1-8-5c-4.9-1.1-9.1-.4-12.6,2.1s-6,7.2-7.6,14l-8.2,35.3-17.1-4.1ZM1528.1,213.9c1.3-5.8,3.3-9.8,6-12.1s5.7-3,9.2-2.2c1.7.4,3.2,1,4.4,1.9,1.2.9,2.5,2.1,3.6,3.6l1.8,2.5c.8,1.1,1.4,1.8,1.7,2.2.3.4.7.6,1.2.7.7.2,1.3-.1,1.8-.8s1-2.1,1.5-4.3l.4-1.9,10.3,2.4-.4,1.7c-1.4,5.8-3.4,9.8-6,12.1s-5.7,3-9.2,2.2c-1.7-.4-3.2-1-4.5-1.9s-2.5-2.1-3.6-3.6l-1.8-2.5c-.7-1-1.3-1.7-1.7-2-.4-.4-.8-.6-1.3-.7-.7-.2-1.3.1-1.8.8s-1,2.1-1.5,4.2l-.4,1.9-10.3-2.4.6-1.8Z"/>
      <path class="st7" d="M304.8,195.9l-5.6,23.9c-1.3,5.6.7,9.1,5.9,10.3,3.4.8,6.7,1.2,9.8,1.1s6.3-.4,9.5-1l6.6-28.2,17.8,4.1-15.2,65.2-17.8-4.1,6-25.9c-3.1.9-6.6,1.5-10.5,1.9s-8.1.1-12.6-1c-6.8-1.6-11.8-4.6-15-9-3.3-4.4-4.1-10.2-2.4-17.2l5.6-24.2,17.9,4.1Z"/>
      <path class="st7" d="M394.5,215.4c8.8,2,15,5.5,18.8,10.4s4.8,11.2,3,19l-10.2,43.4-12.4-2.9-1.4-9.6h-.5c-3.6,2.7-7.1,4.6-10.6,5.5s-7.9.7-13.3-.6c-5.8-1.4-10.3-4.2-13.3-8.4-3-4.2-3.7-9.9-2.1-17,1.6-6.9,5.2-11.5,10.8-13.6,5.6-2.1,13.3-2.3,23.1-.4l11.4,2.3.7-2.9c.8-3.4.5-6.1-1-8.1-1.4-2-3.7-3.4-6.9-4.1-3.2-.7-6.4-1-9.6-.8s-6.5.6-9.9,1.3l-3-13.4c3.8-.9,8-1.5,12.5-1.5,4.7,0,9.3.3,13.9,1.4ZM395.5,253.9l-7-1.4c-5.8-1.2-10-1.1-12.7.3-2.7,1.4-4.4,3.6-5.1,6.7-.6,2.7-.3,4.8,1,6.4,1.3,1.5,3.3,2.6,5.8,3.2,3.8.9,7.3.5,10.5-1.2s5.2-4.6,6.2-8.7l1.3-5.3Z"/>
      <path class="st7" d="M450.6,299.8c-9.7-2.2-16.6-6.7-20.7-13.2-4.1-6.6-4.7-15.6-2-27.3,1.9-8,4.7-14.1,8.6-18.5s8.5-7.2,13.8-8.5c5.4-1.3,11.2-1.2,17.5.3,4.4,1,8.2,2.4,11.3,4,3.1,1.6,5.8,3.3,7.9,5.1l-8.5,12.5c-2.5-1.8-4.9-3.3-7.2-4.6-2.3-1.3-4.6-2.2-7-2.8-9.2-2.1-15.4,3.3-18.4,16.5-1.5,6.5-1.4,11.6.3,15.3,1.7,3.7,4.8,6,9.1,7,3.7.9,7.2,1.1,10.2.8,3.1-.3,6.2-1.1,9.3-2.2l-3.5,15.2c-3.1,1.1-6.3,1.7-9.4,1.8-2.9.2-6.8-.3-11.3-1.4Z"/>
      <path class="st7" d="M1690.6,703.3l-8.4,36.1c-2,8.5,1,13.7,9,15.6,5.2,1.2,10.1,1.8,14.8,1.7,4.7,0,9.5-.6,14.4-1.5l9.9-42.6,26.9,6.3-22.9,98.5-26.9-6.3,9.1-39.1c-4.7,1.3-10,2.3-15.9,2.9-5.9.6-12.2,0-19.1-1.5-10.2-2.4-17.8-6.9-22.7-13.6-4.9-6.7-6.1-15.3-3.6-26.1l8.5-36.6,26.9,6.2Z"/>
      <path class="st7" d="M1826.3,732.8c13.2,3.1,22.7,8.3,28.4,15.7,5.7,7.3,7.2,16.9,4.5,28.7l-15.3,65.7-18.8-4.4-2.1-14.6-.7-.2c-5.5,4.3-10.8,7.1-16.1,8.5-5.2,1.3-12,1-20.1-.9-8.8-2-15.5-6.3-20.1-12.7s-5.6-14.9-3.1-25.7c2.4-10.5,7.9-17.3,16.4-20.5s20.1-3.4,34.9-.6l17.3,3.4,1-4.3c1.2-5.2.7-9.3-1.4-12.3s-5.6-5.1-10.4-6.2c-4.8-1.1-9.7-1.5-14.6-1.2s-9.9,1-14.9,1.9l-4.6-20.3c5.8-1.4,12.1-2.2,19-2.3,6.8-.1,13.7.6,20.7,2.3ZM1827.8,790.9l-10.5-2.1c-8.7-1.8-15.1-1.6-19.2.5-4,2.1-6.6,5.5-7.7,10.2-1,4.1-.4,7.3,1.5,9.6,2,2.3,4.9,3.9,8.8,4.8,5.8,1.3,11.1.8,15.8-1.7,4.8-2.5,7.9-6.9,9.3-13.1l2-8.2Z"/>
      <path class="st7" d="M1911.1,860.4c-14.7-3.4-25.1-10.1-31.2-20s-7.1-23.7-3-41.2c2.8-12,7.1-21.3,13-28,5.9-6.6,12.8-10.9,20.9-12.8,8.1-1.9,16.9-1.8,26.5.4,6.7,1.6,12.4,3.6,17.1,6.1s8.7,5.1,12,7.7l-12.8,18.9c-3.8-2.7-7.4-5-10.8-6.9s-6.9-3.3-10.5-4.2c-14-3.2-23.2,5.1-27.9,24.9-2.3,9.9-2.2,17.6.4,23.1s7.2,9.1,13.8,10.6c5.7,1.3,10.8,1.7,15.5,1.2s9.4-1.6,14.1-3.3l-5.3,22.9c-4.7,1.7-9.5,2.6-14.2,2.7-5,.2-10.8-.5-17.6-2.1Z"/>
      <path class="st7" d="M1229-92.2l-8.4,36.1c-2,8.5,1,13.7,9,15.6,5.2,1.2,10.1,1.8,14.8,1.7,4.7,0,9.5-.6,14.4-1.5l9.9-42.6,26.9,6.3-22.9,98.5-26.9-6.3,9.1-39.1c-4.7,1.3-10,2.3-15.9,2.9s-12.2.1-19.1-1.5c-10.2-2.4-17.8-6.9-22.7-13.6-4.9-6.7-6.1-15.3-3.6-26.1l8.5-36.6,26.9,6.2Z"/>
      <path class="st7" d="M1364.6-62.7c13.2,3.1,22.7,8.3,28.4,15.7,5.7,7.3,7.2,16.9,4.5,28.7l-15.3,65.7-18.8-4.4-2.1-14.6-.7-.2c-5.5,4.3-10.8,7.1-16.1,8.5-5.2,1.3-12,1-20.1-.9-8.8-2-15.5-6.3-20.1-12.7-4.6-6.4-5.6-14.9-3.1-25.7,2.4-10.5,7.9-17.3,16.4-20.5s20.1-3.4,34.9-.6l17.3,3.4,1-4.3c1.2-5.2.7-9.3-1.4-12.3s-5.6-5.1-10.4-6.2c-4.8-1.1-9.7-1.5-14.6-1.2s-9.9,1-14.9,1.9l-4.6-20.3c5.8-1.4,12.1-2.2,19-2.3,6.8,0,13.7.7,20.7,2.3ZM1366.1-4.5l-10.5-2.1c-8.7-1.8-15.1-1.6-19.2.5-4,2.1-6.6,5.5-7.7,10.2-1,4.1-.4,7.3,1.5,9.6,2,2.3,4.9,3.9,8.8,4.8,5.8,1.3,11.1.8,15.8-1.7,4.8-2.5,7.9-6.9,9.3-13.1l2-8.2Z"/>
      <path class="st7" d="M1449.4,64.9c-14.7-3.4-25.1-10.1-31.2-20s-7.1-23.7-3-41.2c2.8-12,7.1-21.3,13-28,5.9-6.6,12.8-10.9,20.9-12.8s16.9-1.8,26.5.4c6.7,1.6,12.4,3.6,17.1,6.1,4.7,2.5,8.7,5.1,12,7.7l-12.8,18.9c-3.8-2.7-7.4-5-10.8-6.9s-6.9-3.3-10.5-4.2c-14-3.2-23.2,5.1-27.9,24.9-2.3,9.9-2.2,17.6.4,23.1s7.2,9.1,13.8,10.6c5.7,1.3,10.8,1.7,15.5,1.2s9.4-1.6,14.1-3.3l-5.3,22.9c-4.7,1.7-9.5,2.6-14.2,2.7-4.9.2-10.8-.5-17.6-2.1Z"/>
      <path class="st7" d="M273.4,612.3c-2.6-7.9-10.1-19.8-16.3-28.4l-15.3,5.9c6.3,8.9,12.9,21.4,15.2,29l16.4-6.5ZM246.3,643.4c-5.5,6.1-11.8,11.6-18.6,16.7.1-7.9.6-16.7,1.5-25.8l38.1,8.9,3.9-16.6-39.9-9.3c1.8-13.2,4.4-26.9,7.9-40.5l-18.3-4.2c-3,13.4-5.7,27.1-7.6,40.6l-28.1-6.6,4.6-19.8c8.9.2,17.4.2,25.3-.3l-8.3-17.5c-16.1,1.4-39.9.8-61.1-1.2,1,4.4,1.8,11.4,1.6,15.8,7.7.9,16,1.7,24.2,2.2l-3.9,16.7-27.7-6.5-3.9,16.6,27.7,6.5-4.6,19.6c-12.1-.6-23-1.5-31.7-2.1l.2,18.6c8.1.3,17.6.6,27.5.8l-4.9,21.3c-.5,2.3-1.6,2.9-4.2,2.3-2.7-.5-11.2-2.3-19.3-4.7,1.4,5.4,2.5,14,2.1,19,11.8,2.9,20.8,4.2,27.2,2.8,6.5-1.4,9.7-5.6,11.9-15.2l5.8-25.1,25,.7,2.4-16.1c-7.8-.4-15.7-.7-23.5-1.1l3.9-16.7,29.8,6.9c-1.6,14.8-2.2,28.7-1.7,41-12.1,6-25,10.6-37.5,13.1,3.3,4.9,6.8,12.1,8.3,16.8,10.5-2.7,21.1-6.5,31.3-11.6,3,15.8,9.1,26.5,19.8,29,13.3,3.1,20.3-2.1,29-27.1-4.2-3-9.2-8.3-12-13.3-4.8,17.1-8.2,23.8-11.2,23-4.4-1-7.4-8.8-8.7-21,11.7-7.3,22.4-16.1,31.8-26.4l-14.1-10.2Z"/>
      <path class="st7" d="M1769.4,36.2c-2.6-7.9-10.1-19.8-16.3-28.4l-15.3,5.9c6.3,8.9,12.9,21.4,15.2,29l16.4-6.5ZM1742.3,67.4c-5.5,6.1-11.8,11.6-18.6,16.7,0-7.9.6-16.7,1.5-25.8l38.1,8.9,3.9-16.6-39.9-9.3c1.8-13.2,4.4-26.9,7.9-40.5l-18.3-4.3c-3,13.4-5.7,27.1-7.6,40.6l-28.1-6.6,4.6-19.8c8.9.2,17.4.2,25.3-.3l-8.3-17.5c-16.1,1.4-39.9.8-61.1-1.2,1,4.4,1.8,11.4,1.6,15.8,7.7.9,16,1.7,24.2,2.2l-3.9,16.7-27.7-6.5-3.9,16.6,27.7,6.5-4.6,19.6c-12.1-.6-23-1.5-31.7-2.1l.2,18.6c8.1.3,17.6.6,27.5.8l-4.9,21.3c-.5,2.3-1.6,2.9-4.2,2.3-2.7-.5-11.2-2.3-19.3-4.7,1.4,5.4,2.5,14,2.1,19,11.8,2.9,20.8,4.2,27.2,2.8,6.5-1.4,9.7-5.6,11.9-15.2l5.8-25.1,25,.7,2.4-16.1c-7.8-.4-15.7-.7-23.5-1.1l3.9-16.7,29.8,6.9c-1.6,14.8-2.2,28.7-1.7,41-12.1,6-25,10.6-37.5,13.1,3.3,4.9,6.8,12.1,8.3,16.8,10.5-2.7,21.1-6.5,31.3-11.6,3,15.8,9.1,26.5,19.8,29,13.3,3.1,20.3-2.1,29-27.1-4.2-3-9.2-8.3-12-13.3-4.8,17.1-8.2,23.8-11.2,23-4.4-1-7.4-8.8-8.7-21,11.7-7.3,22.4-16.1,31.8-26.4l-14.1-10.1Z"/>
      <path class="st7" d="M646.8-2.9c-7.9-6.8-23.6-14.9-35.7-20.2l-12.7,16.1c12.5,5.6,27.7,14.8,35,21.6l13.4-17.5ZM637.6,48c-1.9,10.1-5.3,20.1-9.3,29.9-4.9-8.6-10-18.4-14.9-28.8l46.8-14.9-6.5-20.3-49,15.5c-6.5-15.4-12.5-31.9-17.5-48.8l-22.5,7.1c5.4,16.3,11.2,32.9,17.8,48.6l-34.6,11-7.7-24.3c9.8-5.5,18.9-11,27.1-16.5l-20.2-13.6c-16.5,11.8-42.6,26.4-66.7,37.8,3.9,4.1,9.3,11.1,11.8,16.1,8.8-4,18.3-8.4,27.5-13.1l6.5,20.5-34,10.8,6.5,20.3,34-10.8,7.7,24.1c-13.4,7-25.8,13.1-35.5,18l12.1,19.9c9-4.8,19.4-10.7,30.2-16.7l8.3,26.1c.9,2.9,0,4.1-3.1,5.2-3.2,1.2-13.6,4.7-23.8,7.4,4.9,5,11.6,13.5,14.4,19.2,14.6-4.4,25.1-8.8,31.1-14.4,6.1-5.7,6.8-12.3,3.1-24l-9.8-30.8,27.5-15.3-7.8-18.9c-8.7,4.5-17.4,9.3-26.1,13.8l-6.5-20.5,36.5-11.6c7.8,17,16,32.4,24.5,45.3-9.2,14.2-20.2,27.4-32.1,38.1,6.8,3.2,15,8.7,19.7,12.8,9.6-9.6,18.6-20.6,26.3-32.5,13.3,15.2,26.8,22.8,40,18.6,16.4-5.2,20.5-15.2,14-47.8-6.5-.5-15.2-3.1-21.5-6.6,5.8,21.5,6.4,30.9,2.6,32.1-5.4,1.7-13.6-4.8-22.9-17.1,8-15.4,13.9-31.8,17.4-48.9l-21.4-2Z"/>
      <path class="st7" d="M1798.9,967.4l-13.3,3,16.6,72.5-19,4.3-4-17.7c-2.9,2.5-6,4.6-9.3,6.3-3.3,1.6-7.5,3.1-12.7,4.3-5.3,1.2-10.3,1.4-15.1.5-4.8-.9-9-2.9-12.5-6.2-3.5-3.2-5.9-7.7-7.2-13.3-1.2-5.2-.9-10,.8-14.5s4.6-8.3,8.6-11.4c4-3.2,9.1-5.4,15.1-6.8,3.9-.9,7.4-1.6,10.5-2.1s5.5-.8,7.2-.8l2.1,15.5c-3.7,0-7.6.6-11.9,1.5-.7.2-1.3.3-1.8.4l16.9,13.5c.9-1,1.8-2.1,2.6-3.1.8-1.1,1.6-2.2,2.3-3.5l-8-35.1-57.5,13.1-3.6-15.6,89.7-20.5,3.5,15.7ZM1740.7,1016.9c.9,4.1,2.8,6.6,5.6,7.5s6.1,1,9.9,0c1.8-.4,3.5-1,5.1-1.8l-18.4-14.7c-2.2,2.5-3.1,5.4-2.2,8.9Z"/>
      <path class="st7" d="M1761.2,960.7c-2.4-2.9-4.3-5.6-5.6-8.2-1.3-2.5-2.2-5.1-2.8-7.6-1.6-7-.5-13.1,3.4-18.3,3.9-5.3,10-8.8,18.4-10.8,7.6-1.7,14.2-1.4,20.1.9,5.8,2.3,11,6.1,15.5,11.2,4.5,5.1,8.5,11.1,12.1,17.8l14.8-3.4,3.6,15.6-13.4,3.1,16.6,72.5-18.9,4.3-16.6-72.5-11.3,2.6-3.6-15.6,12-2.8c-4.1-7-8.2-12.1-12.3-15.4-4.1-3.2-8.4-4.3-13-3.3-3.4.8-5.7,2.3-6.9,4.6s-1.5,4.9-.8,7.8c.6,2.8,1.6,5.3,2.9,7.5,1.3,2.1,2.7,4.1,4.2,6l-18.4,4Z"/>
      <path class="st7" d="M21,755.6c-2.8.4-5.3,0-7.3-1.6s-3.2-3.6-3.6-6.3.2-5,1.7-7,3.7-3.2,6.6-3.6c1.9-.3,3.6,0,5.2.5s2.9,1.5,3.9,2.8,1.6,2.8,1.9,4.6.1,3.4-.5,5c-.6,1.5-1.6,2.8-3,3.8-1.4.9-3,1.5-4.9,1.8ZM22.8,854c-4.6.7-8.4.6-11.4-.2l.2-12.7,1-.5c1.6.5,3.4.6,5.5.3,4.6-.7,6.5-3.7,5.8-9.2l-9.6-67.6,15.7-2.2,9.6,67.2c1,7.3,0,13-2.7,17.2-2.9,4.3-7.6,6.8-14.1,7.7Z"/>
      <path class="st7" d="M105.9,787.3l-40.3,5.7c1.2,5.4,3.3,9.2,6.4,11.3,3,2.1,6.8,2.8,11.4,2.2,3.6-.5,6.4-1.6,8.5-3.3,2-1.7,3.6-4,4.5-6.9l1.2-.2,11.4,5.2c-1.4,4.7-4,8.7-7.7,12s-9.1,5.5-16,6.4c-6.5.9-12.3.5-17.3-1.3-5.1-1.8-9.2-4.9-12.5-9.4s-5.4-10.3-6.4-17.3c-1-7.1-.5-13.3,1.5-18.6s5.1-9.4,9.4-12.5c4.2-3.1,9.2-5,14.9-5.8,8.9-1.3,16,0,21.4,4.2,5.4,4,8.7,10.6,10,19.7.5,3.3.7,5.9.7,7.7l-1.1.9ZM90.9,779c-.8-4.7-2.4-8.1-4.8-9.9-2.4-1.9-5.6-2.6-9.5-2-8,1.1-12,6.4-12.1,15.7l26.4-3.8Z"/>
      <path class="st7" d="M1211.2,111.3c-3.9.6-7.2-.2-9.9-2.2-2.8-2-4.4-4.9-4.9-8.6s.3-6.8,2.3-9.5c2.1-2.7,5.1-4.3,8.9-4.9,2.6-.4,5,0,7.1.7,2.2.8,4,2.1,5.3,3.8,1.4,1.7,2.2,3.8,2.6,6.2.3,2.4,0,4.7-.7,6.8-.8,2.1-2.2,3.8-4.1,5.2-1.8,1.3-4,2.1-6.6,2.5ZM1213.7,245.5c-6.3.9-11.5.8-15.5-.3l.2-17.3,1.4-.7c2.2.7,4.7.8,7.5.4,6.3-.9,8.9-5.1,7.9-12.5l-13.1-92.2,21.5-3.1,13,91.5c1.4,10,.2,17.8-3.7,23.5-4,5.9-10.4,9.4-19.2,10.7Z"/>
      <path class="st7" d="M1326.9,153.8l-54.9,7.8c1.7,7.4,4.6,12.5,8.7,15.3,4.1,2.9,9.3,3.8,15.5,3,4.9-.7,8.8-2.2,11.5-4.5,2.8-2.3,4.9-5.4,6.2-9.4l1.6-.2,15.6,7.1c-1.9,6.4-5.5,11.8-10.6,16.4-5.1,4.5-12.4,7.4-21.8,8.8-8.8,1.3-16.7.7-23.6-1.8-6.9-2.4-12.5-6.7-17-12.9s-7.3-14-8.7-23.5c-1.4-9.7-.7-18.1,2-25.3s7-12.9,12.7-17c5.8-4.2,12.6-6.8,20.4-7.9,12.1-1.7,21.8.2,29.1,5.7,7.3,5.5,11.9,14.4,13.7,26.8.6,4.5,1,8,1,10.5l-1.4,1.1ZM1306.5,142.5c-1.1-6.5-3.3-11-6.6-13.6-3.2-2.6-7.6-3.5-13-2.7-10.8,1.5-16.3,8.7-16.5,21.4l36.1-5.1Z"/>
      <path class="st7" d="M190.3,472.8v-47.7h18.4v33.1l-9.2,14.6h-9.2Z"/>
      <path class="st7" d="M219.6,498.9v-15.5h22.9v-36.5c0-2-.4-3.6-1.2-4.6-.8-1.1-2.3-1.6-4.4-1.6h-13.2v-15.4h18.6c6,0,10.6,1.7,13.8,5,3.2,3.3,4.8,8.1,4.8,14.3v54.4h-41.3q0-.1,0-.1Z"/>
      <path class="st7" d="M278,498.9v-20.5c0-6.7,1.1-12.8,3.4-18.3s5.7-9.5,10.3-12.1l-16.7-22.8h21.1l25.9,37.6c1.6-1.7,2.7-4.1,3.4-7.1.7-3,1.1-6.6,1.1-10.7v-19.9h18.4v19.1c0,6.9-1.2,13.1-3.6,18.6s-5.9,9.5-10.6,12.1l18.1,24h-21.1l-27.1-38.5c-2.9,3.7-4.3,9.4-4.3,17.2v21.3h-18.3Z"/>
      <path class="st7" d="M195.8,2.5v-47.7h18.4V-12.1l-9.2,14.6h-9.2Z"/>
      <path class="st7" d="M225.1,28.6v-15.6h22.9V-23.5c0-2-.4-3.6-1.2-4.6-.8-1.1-2.3-1.6-4.4-1.6h-13.2v-15.4h18.6c6,0,10.6,1.7,13.8,5,3.2,3.3,4.8,8.1,4.8,14.3V28.6s-41.3,0-41.3,0Z"/>
      <path class="st7" d="M283.5,28.6V8c0-6.7,1.1-12.8,3.4-18.3,2.3-5.5,5.7-9.5,10.3-12.1l-16.7-22.8h21.1l25.9,37.6c1.6-1.7,2.7-4.1,3.4-7.1.7-3,1.1-6.6,1.1-10.7v-19.9h18.4v19.1c0,6.9-1.2,13.1-3.6,18.6s-5.9,9.5-10.6,12.1l18.1,24h-21.1l-27.1-38.5c-2.9,3.7-4.3,9.4-4.3,17.2v21.3h-18.3Z"/>
      <path class="st7" d="M1696.1,322.5l-20.8-70.6,27.2-8,14.5,49-7.2,25.6-13.7,4Z"/>
      <path class="st7" d="M1751.1,348.4l-6.8-23.1,34-10-16-54.1c-.9-3-2.2-5.1-3.9-6.3-1.7-1.2-4.1-1.4-7.2-.4l-19.6,5.8-6.8-22.9,27.6-8.1c8.8-2.6,16.4-2.1,22.6,1.4,6.2,3.6,10.7,9.9,13.4,19.1l23.8,80.6-61.1,18Z"/>
      <path class="st7" d="M1837.5,322.9l-9-30.5c-2.9-9.9-3.9-19.5-2.9-28.6s4.3-16.6,10-22.5l-34.7-26.5,31.2-9.2,54.8,44.5c1.5-3.2,2.2-7.2,2-12s-1.2-10.2-3-16.3l-8.7-29.4,27.2-8,8.4,28.3c3,10.2,3.9,19.9,2.8,29.1-1.1,9.2-4.6,16.7-10.5,22.5l37.4,27.7-31.2,9.2-57-45.2c-2.6,6.7-2.2,15.8,1.1,27.3l9.3,31.6-27.2,8Z"/>
      <path class="st7" d="M30.4,986.2l18.3-78.4,30.2,7-12.7,54.4-20.7,20.5-15.1-3.5Z"/>
      <path class="st7" d="M68.7,1040.4l6-25.6,37.7,8.8,14-60.1c.8-3.4.7-6.1-.2-8.1-.9-2.1-3.2-3.5-6.7-4.3l-21.8-5.1,5.9-25.4,30.6,7.1c9.8,2.3,16.7,6.8,20.8,13.5,4,6.7,4.8,15.2,2.5,25.4l-20.8,89.5-68-15.7Z"/>
      <path class="st7" d="M164.6,1062.7l7.9-33.9c2.6-11,6.8-20.6,12.7-28.7,5.9-8.1,13.1-13.5,21.6-16l-18.7-43.9,34.7,8.1,28.1,71.8c3.2-2.2,6-5.7,8.4-10.4s4.3-10.4,5.9-17.1l7.6-32.7,30.2,7-7.3,31.5c-2.6,11.3-7,21-13,29.2-6,8.2-13.4,13.4-22.1,15.8l20.6,46.5-34.6-8.1-29.8-73.7c-6.1,5-10.7,13.8-13.6,26.6l-8.2,35.1-30.4-7.1Z"/>
      <path class="st7" d="M92.6,293.5l-30.6,2.6,9.8,115.2,30.6-2.6-9.8-115.2ZM-65,367.2c-1.3-15.7,7.2-25.3,20.5-26.4,13.7-1.2,23.8,6.9,25.1,22.5,1.4,15.9-7.2,26-20.9,27.2-13.3,1.1-23.4-7.4-24.7-23.3ZM23.3,372.5l3.5,41.4,30.1-2.6-9.4-109.8-30.1,2.6,3.6,42.7-14.5,1.2c-7.3-22.1-27.9-34.9-53.4-32.7-29.9,2.5-49.7,25-47.2,54.4,2.5,29.9,25.9,48.7,55.8,46.1,25.7-2.2,43.8-18.5,47-42l14.6-1.3ZM-11.1,501.8l-1.2-13.7,120.6-10.3-5.2-60.8-153.4,13.1,2.1,25,121.1-10.3,1,12.3-120.6,10.3,5.3,62.3,160-13.6-2.1-25-127.6,10.7Z"/>
      <path class="st7" d="M1787,454.1l-16.8-6.4-24.2,63.1,16.8,6.4,24.2-63.1ZM1685.3,452.6c3.3-8.6,10.3-11.5,17.5-8.7,7.5,2.9,10.8,9.7,7.5,18.3-3.3,8.7-10.4,11.9-17.9,9-7.3-2.8-10.4-9.9-7.1-18.6ZM1730.4,477.9l-8.7,22.7,16.5,6.3,23.1-60.1-16.5-6.3-9,23.4-7.9-3c1.8-13.5-5.8-25.5-19.7-30.8-16.4-6.3-32.5.5-38.7,16.6-6.3,16.4,1.2,32.2,17.6,38.5,14.1,5.4,27.8,1.4,35.4-10.1l7.9,2.8ZM1679.3,537.2l2.9-7.5,66,25.4,12.8-33.3-84-32.3-5.3,13.7,66.3,25.5-2.6,6.7-66-25.4-13.1,34.1,87.6,33.6,5.3-13.7-69.9-26.8Z"/>
      <path class="st7" d="M1037.8,33l-17.7,3.2,12.2,66.5,17.7-3.2-12.2-66.5ZM950.2,84.6c-1.7-9.1,2.8-15.1,10.4-16.5,7.9-1.4,14.2,2.7,15.9,11.7,1.7,9.2-2.7,15.5-10.6,17-7.6,1.4-14-3-15.7-12.2ZM1001.8,82.8l4.4,23.9,17.4-3.2-11.6-63.4-17.4,3.2,4.5,24.6-8.3,1.5c-5.4-12.4-18.1-18.7-32.8-16.1-17.3,3.2-27.5,17.3-24.4,34.3,3.2,17.3,17.8,26.9,35,23.7,14.8-2.7,24.5-13.2,25-27.1l8.2-1.4ZM989.1,160l-1.4-7.9,69.6-12.7-6.4-35.1-88.5,16.2,2.6,14.4,69.9-12.8,1.3,7.1-69.6,12.7,6.6,35.9,92.3-16.9-2.6-14.4-73.8,13.5Z"/>
      <path class="st7" d="M1880.9,99.1c-6-1.4-10.9-3.8-14.9-7.3-3.9-3.5-6.6-7.9-8-13.2s-1.3-11.3.3-18c1.6-6.7,4.1-12.1,7.7-16.3s7.9-7,13-8.4c5.1-1.4,10.6-1.4,16.6,0s10.9,3.8,14.9,7.3c3.9,3.5,6.6,7.9,8,13.3,1.4,5.3,1.3,11.3-.2,18-1.6,6.7-4.2,12.1-7.8,16.3-3.6,4.1-7.9,6.9-13,8.3-5.1,1.3-10.6,1.3-16.6,0ZM1883.9,86.1c9.5,2.2,15.6-2.9,18.5-15.3,1.5-6.4,1.4-11.4-.4-15-1.7-3.6-4.9-5.9-9.5-7-9.5-2.2-15.6,2.9-18.5,15.4-2.8,12.4.5,19.7,9.9,21.9ZM1901.5,32l-10.4-2.4.3-1.2,12-15.4,17.1,4-.3,1.2-18.7,13.8Z"/>
      <path class="st7" d="M730.2,273.3c-8-1.9-14.6-5.1-19.9-9.8-5.3-4.7-8.9-10.6-10.7-17.7-1.9-7.1-1.7-15.2.4-24.1,2.1-9,5.5-16.2,10.3-21.8s10.6-9.3,17.4-11.2c6.8-1.9,14.2-1.9,22.2,0s14.6,5.1,19.9,9.8c5.3,4.7,8.9,10.6,10.7,17.8,1.9,7.1,1.8,15.2-.3,24.2s-5.6,16.3-10.4,21.8c-4.8,5.6-10.6,9.3-17.5,11.1-6.7,1.7-14.1,1.7-22.1-.1ZM734.3,255.9c12.7,3,20.9-3.9,24.8-20.5,2-8.6,1.8-15.3-.5-20.1s-6.6-7.9-12.7-9.3c-12.7-3-21,3.9-24.8,20.6-3.9,16.5.5,26.3,13.2,29.3ZM757.9,183.4l-13.9-3.2.4-1.5,16-20.6,23,5.3-.4,1.5-25.1,18.5Z"/>
    </g>
  </g>
  <g id="Layer_1_copy">
    <g>
      <path class="st4" d="M1920,0H0v1080h1920V0Z"/>
      <g class="st5">
        <path class="st3" d="M95.6,204.3l-27-99.3,23.9-6.5,4,14.6h2c3.1-13,11.6-21.3,25.5-25.1,11.5-3.1,20.7-2.3,27.8,2.5s12.2,13.1,15.5,25.1l17.5,64.5-25,6.8-16.7-61.5c-1.8-6.6-4.4-11-7.8-13.2-3.4-2.2-8-2.5-13.9-.9-7.1,1.9-12.1,5.8-14.8,11.5-2.7,5.7-2.8,13.5,0,23.4l14,51.4-24.9,6.7ZM81,85.4c-2.3-8.4-2.5-15-.6-19.8s5.3-7.9,10.4-9.3c2.5-.7,4.8-.9,7-.6,2.2.3,4.6,1,7.2,2.1l4.1,2c1.8.8,3.1,1.3,3.8,1.6.7.2,1.4.2,2,0,1-.3,1.6-1,1.8-2.3.2-1.2-.2-3.4-1-6.6l-.8-2.8,15-4.1.7,2.5c2.3,8.5,2.5,15.1.7,19.9-1.8,4.8-5.3,7.9-10.4,9.3-2.5.7-4.9.9-7.2.7-2.2-.2-4.6-1-7.2-2.2l-4-2c-1.6-.8-2.8-1.3-3.6-1.5-.8-.2-1.5-.2-2.1,0-1,.3-1.6,1-1.8,2.3-.2,1.2.2,3.4,1,6.5l.8,2.8-15,4.1-.8-2.6Z"/>
        <path class="st3" d="M1839.6,654.6l-18.3-67.5,16.3-4.4,2.7,9.9h1.4c2.1-8.8,7.9-14.5,17.3-17.1,7.8-2.1,14.1-1.5,18.9,1.7s8.3,8.9,10.5,17l11.9,43.9-17,4.6-11.4-41.8c-1.2-4.5-3-7.5-5.3-9s-5.5-1.7-9.4-.6c-4.9,1.3-8.2,3.9-10.1,7.8s-1.9,9.2,0,15.9l9.5,34.9-17,4.7ZM1829.7,573.8c-1.6-5.7-1.7-10.2-.4-13.5,1.3-3.3,3.6-5.4,7-6.3,1.7-.5,3.3-.6,4.8-.4s3.1.7,4.9,1.4l2.8,1.3c1.2.5,2.1.9,2.6,1.1.5,0,.9.2,1.4,0,.7-.2,1.1-.7,1.2-1.5s0-2.3-.7-4.5l-.5-1.9,10.2-2.8.5,1.7c1.6,5.8,1.7,10.3.5,13.5-1.2,3.3-3.6,5.3-7.1,6.3-1.7.5-3.3.6-4.9.5-1.5-.2-3.1-.7-4.9-1.5l-2.7-1.4c-1.1-.5-1.9-.9-2.4-1s-1-.2-1.5,0c-.7.2-1.1.7-1.2,1.6,0,.8,0,2.3.7,4.4l.5,1.9-10.2,2.8-.6-1.7Z"/>
        <path class="st3" d="M1498.4,289.8l15.9-68.1,16.4,3.8-2.3,10,1.2.6c6-6.8,13.8-9,23.3-6.8,7.9,1.8,13.1,5.3,15.8,10.5,2.7,5.1,3.1,11.8,1.2,20l-10.3,44.3-17.1-4,9.8-42.2c1.1-4.5.9-8-.4-10.4s-4-4.1-8-5c-4.9-1.1-9.1-.4-12.6,2.1s-6,7.2-7.6,14l-8.2,35.3-17.1-4.1ZM1528.1,213.9c1.3-5.8,3.3-9.8,6-12.1s5.7-3,9.2-2.2c1.7.4,3.2,1,4.4,1.9,1.2.9,2.5,2.1,3.6,3.6l1.8,2.5c.8,1.1,1.4,1.8,1.7,2.2.3.4.7.6,1.2.7.7.2,1.3-.1,1.8-.8s1-2.1,1.5-4.3l.4-1.9,10.3,2.4-.4,1.7c-1.4,5.8-3.4,9.8-6,12.1s-5.7,3-9.2,2.2c-1.7-.4-3.2-1-4.5-1.9s-2.5-2.1-3.6-3.6l-1.8-2.5c-.7-1-1.3-1.7-1.7-2-.4-.4-.8-.6-1.3-.7-.7-.2-1.3.1-1.8.8s-1,2.1-1.5,4.2l-.4,1.9-10.3-2.4.6-1.8Z"/>
        <path class="st3" d="M304.8,195.9l-5.6,23.9c-1.3,5.6.7,9.1,5.9,10.3,3.4.8,6.7,1.2,9.8,1.1s6.3-.4,9.5-1l6.6-28.2,17.8,4.1-15.2,65.2-17.8-4.1,6-25.9c-3.1.9-6.6,1.5-10.5,1.9s-8.1.1-12.6-1c-6.8-1.6-11.8-4.6-15-9-3.3-4.4-4.1-10.2-2.4-17.2l5.6-24.2,17.9,4.1Z"/>
        <path class="st3" d="M394.5,215.4c8.8,2,15,5.5,18.8,10.4s4.8,11.2,3,19l-10.2,43.4-12.4-2.9-1.4-9.6h-.5c-3.6,2.7-7.1,4.6-10.6,5.5s-7.9.7-13.3-.6c-5.8-1.4-10.3-4.2-13.3-8.4-3-4.2-3.7-9.9-2.1-17,1.6-6.9,5.2-11.5,10.8-13.6,5.6-2.1,13.3-2.3,23.1-.4l11.4,2.3.7-2.9c.8-3.4.5-6.1-1-8.1-1.4-2-3.7-3.4-6.9-4.1-3.2-.7-6.4-1-9.6-.8s-6.5.6-9.9,1.3l-3-13.4c3.8-.9,8-1.5,12.5-1.5,4.7,0,9.3.3,13.9,1.4ZM395.5,253.9l-7-1.4c-5.8-1.2-10-1.1-12.7.3-2.7,1.4-4.4,3.6-5.1,6.7-.6,2.7-.3,4.8,1,6.4,1.3,1.5,3.3,2.6,5.8,3.2,3.8.9,7.3.5,10.5-1.2s5.2-4.6,6.2-8.7l1.3-5.3Z"/>
        <path class="st3" d="M450.6,299.8c-9.7-2.2-16.6-6.7-20.7-13.2-4.1-6.6-4.7-15.6-2-27.3,1.9-8,4.7-14.1,8.6-18.5s8.5-7.2,13.8-8.5c5.4-1.3,11.2-1.2,17.5.3,4.4,1,8.2,2.4,11.3,4,3.1,1.6,5.8,3.3,7.9,5.1l-8.5,12.5c-2.5-1.8-4.9-3.3-7.2-4.6-2.3-1.3-4.6-2.2-7-2.8-9.2-2.1-15.4,3.3-18.4,16.5-1.5,6.5-1.4,11.6.3,15.3,1.7,3.7,4.8,6,9.1,7,3.7.9,7.2,1.1,10.2.8,3.1-.3,6.2-1.1,9.3-2.2l-3.5,15.2c-3.1,1.1-6.3,1.7-9.4,1.8-2.9.2-6.8-.3-11.3-1.4Z"/>
        <path class="st3" d="M1690.6,703.3l-8.4,36.1c-2,8.5,1,13.7,9,15.6,5.2,1.2,10.1,1.8,14.8,1.7,4.7,0,9.5-.6,14.4-1.5l9.9-42.6,26.9,6.3-22.9,98.5-26.9-6.3,9.1-39.1c-4.7,1.3-10,2.3-15.9,2.9-5.9.6-12.2,0-19.1-1.5-10.2-2.4-17.8-6.9-22.7-13.6-4.9-6.7-6.1-15.3-3.6-26.1l8.5-36.6,26.9,6.2Z"/>
        <path class="st3" d="M1826.3,732.8c13.2,3.1,22.7,8.3,28.4,15.7,5.7,7.3,7.2,16.9,4.5,28.7l-15.3,65.7-18.8-4.4-2.1-14.6-.7-.2c-5.5,4.3-10.8,7.1-16.1,8.5-5.2,1.3-12,1-20.1-.9-8.8-2-15.5-6.3-20.1-12.7s-5.6-14.9-3.1-25.7c2.4-10.5,7.9-17.3,16.4-20.5s20.1-3.4,34.9-.6l17.3,3.4,1-4.3c1.2-5.2.7-9.3-1.4-12.3s-5.6-5.1-10.4-6.2c-4.8-1.1-9.7-1.5-14.6-1.2s-9.9,1-14.9,1.9l-4.6-20.3c5.8-1.4,12.1-2.2,19-2.3,6.8-.1,13.7.6,20.7,2.3ZM1827.8,790.9l-10.5-2.1c-8.7-1.8-15.1-1.6-19.2.5-4,2.1-6.6,5.5-7.7,10.2-1,4.1-.4,7.3,1.5,9.6,2,2.3,4.9,3.9,8.8,4.8,5.8,1.3,11.1.8,15.8-1.7,4.8-2.5,7.9-6.9,9.3-13.1l2-8.2Z"/>
        <path class="st3" d="M1911.1,860.4c-14.7-3.4-25.1-10.1-31.2-20s-7.1-23.7-3-41.2c2.8-12,7.1-21.3,13-28,5.9-6.6,12.8-10.9,20.9-12.8,8.1-1.9,16.9-1.8,26.5.4,6.7,1.6,12.4,3.6,17.1,6.1s8.7,5.1,12,7.7l-12.8,18.9c-3.8-2.7-7.4-5-10.8-6.9s-6.9-3.3-10.5-4.2c-14-3.2-23.2,5.1-27.9,24.9-2.3,9.9-2.2,17.6.4,23.1s7.2,9.1,13.8,10.6c5.7,1.3,10.8,1.7,15.5,1.2s9.4-1.6,14.1-3.3l-5.3,22.9c-4.7,1.7-9.5,2.6-14.2,2.7-5,.2-10.8-.5-17.6-2.1Z"/>
        <path class="st3" d="M1229-92.2l-8.4,36.1c-2,8.5,1,13.7,9,15.6,5.2,1.2,10.1,1.8,14.8,1.7,4.7,0,9.5-.6,14.4-1.5l9.9-42.6,26.9,6.3-22.9,98.5-26.9-6.3,9.1-39.1c-4.7,1.3-10,2.3-15.9,2.9s-12.2.1-19.1-1.5c-10.2-2.4-17.8-6.9-22.7-13.6-4.9-6.7-6.1-15.3-3.6-26.1l8.5-36.6,26.9,6.2Z"/>
        <path class="st3" d="M1364.6-62.7c13.2,3.1,22.7,8.3,28.4,15.7,5.7,7.3,7.2,16.9,4.5,28.7l-15.3,65.7-18.8-4.4-2.1-14.6-.7-.2c-5.5,4.3-10.8,7.1-16.1,8.5-5.2,1.3-12,1-20.1-.9-8.8-2-15.5-6.3-20.1-12.7-4.6-6.4-5.6-14.9-3.1-25.7,2.4-10.5,7.9-17.3,16.4-20.5s20.1-3.4,34.9-.6l17.3,3.4,1-4.3c1.2-5.2.7-9.3-1.4-12.3s-5.6-5.1-10.4-6.2c-4.8-1.1-9.7-1.5-14.6-1.2s-9.9,1-14.9,1.9l-4.6-20.3c5.8-1.4,12.1-2.2,19-2.3,6.8,0,13.7.7,20.7,2.3ZM1366.1-4.5l-10.5-2.1c-8.7-1.8-15.1-1.6-19.2.5-4,2.1-6.6,5.5-7.7,10.2-1,4.1-.4,7.3,1.5,9.6,2,2.3,4.9,3.9,8.8,4.8,5.8,1.3,11.1.8,15.8-1.7,4.8-2.5,7.9-6.9,9.3-13.1l2-8.2Z"/>
        <path class="st3" d="M1449.4,64.9c-14.7-3.4-25.1-10.1-31.2-20s-7.1-23.7-3-41.2c2.8-12,7.1-21.3,13-28,5.9-6.6,12.8-10.9,20.9-12.8s16.9-1.8,26.5.4c6.7,1.6,12.4,3.6,17.1,6.1,4.7,2.5,8.7,5.1,12,7.7l-12.8,18.9c-3.8-2.7-7.4-5-10.8-6.9s-6.9-3.3-10.5-4.2c-14-3.2-23.2,5.1-27.9,24.9-2.3,9.9-2.2,17.6.4,23.1s7.2,9.1,13.8,10.6c5.7,1.3,10.8,1.7,15.5,1.2s9.4-1.6,14.1-3.3l-5.3,22.9c-4.7,1.7-9.5,2.6-14.2,2.7-4.9.2-10.8-.5-17.6-2.1Z"/>
        <path class="st3" d="M273.4,612.3c-2.6-7.9-10.1-19.8-16.3-28.4l-15.3,5.9c6.3,8.9,12.9,21.4,15.2,29l16.4-6.5ZM246.3,643.4c-5.5,6.1-11.8,11.6-18.6,16.7.1-7.9.6-16.7,1.5-25.8l38.1,8.9,3.9-16.6-39.9-9.3c1.8-13.2,4.4-26.9,7.9-40.5l-18.3-4.2c-3,13.4-5.7,27.1-7.6,40.6l-28.1-6.6,4.6-19.8c8.9.2,17.4.2,25.3-.3l-8.3-17.5c-16.1,1.4-39.9.8-61.1-1.2,1,4.4,1.8,11.4,1.6,15.8,7.7.9,16,1.7,24.2,2.2l-3.9,16.7-27.7-6.5-3.9,16.6,27.7,6.5-4.6,19.6c-12.1-.6-23-1.5-31.7-2.1l.2,18.6c8.1.3,17.6.6,27.5.8l-4.9,21.3c-.5,2.3-1.6,2.9-4.2,2.3-2.7-.5-11.2-2.3-19.3-4.7,1.4,5.4,2.5,14,2.1,19,11.8,2.9,20.8,4.2,27.2,2.8,6.5-1.4,9.7-5.6,11.9-15.2l5.8-25.1,25,.7,2.4-16.1c-7.8-.4-15.7-.7-23.5-1.1l3.9-16.7,29.8,6.9c-1.6,14.8-2.2,28.7-1.7,41-12.1,6-25,10.6-37.5,13.1,3.3,4.9,6.8,12.1,8.3,16.8,10.5-2.7,21.1-6.5,31.3-11.6,3,15.8,9.1,26.5,19.8,29,13.3,3.1,20.3-2.1,29-27.1-4.2-3-9.2-8.3-12-13.3-4.8,17.1-8.2,23.8-11.2,23-4.4-1-7.4-8.8-8.7-21,11.7-7.3,22.4-16.1,31.8-26.4l-14.1-10.2Z"/>
        <path class="st3" d="M1769.4,36.2c-2.6-7.9-10.1-19.8-16.3-28.4l-15.3,5.9c6.3,8.9,12.9,21.4,15.2,29l16.4-6.5ZM1742.3,67.4c-5.5,6.1-11.8,11.6-18.6,16.7,0-7.9.6-16.7,1.5-25.8l38.1,8.9,3.9-16.6-39.9-9.3c1.8-13.2,4.4-26.9,7.9-40.5l-18.3-4.3c-3,13.4-5.7,27.1-7.6,40.6l-28.1-6.6,4.6-19.8c8.9.2,17.4.2,25.3-.3l-8.3-17.5c-16.1,1.4-39.9.8-61.1-1.2,1,4.4,1.8,11.4,1.6,15.8,7.7.9,16,1.7,24.2,2.2l-3.9,16.7-27.7-6.5-3.9,16.6,27.7,6.5-4.6,19.6c-12.1-.6-23-1.5-31.7-2.1l.2,18.6c8.1.3,17.6.6,27.5.8l-4.9,21.3c-.5,2.3-1.6,2.9-4.2,2.3-2.7-.5-11.2-2.3-19.3-4.7,1.4,5.4,2.5,14,2.1,19,11.8,2.9,20.8,4.2,27.2,2.8,6.5-1.4,9.7-5.6,11.9-15.2l5.8-25.1,25,.7,2.4-16.1c-7.8-.4-15.7-.7-23.5-1.1l3.9-16.7,29.8,6.9c-1.6,14.8-2.2,28.7-1.7,41-12.1,6-25,10.6-37.5,13.1,3.3,4.9,6.8,12.1,8.3,16.8,10.5-2.7,21.1-6.5,31.3-11.6,3,15.8,9.1,26.5,19.8,29,13.3,3.1,20.3-2.1,29-27.1-4.2-3-9.2-8.3-12-13.3-4.8,17.1-8.2,23.8-11.2,23-4.4-1-7.4-8.8-8.7-21,11.7-7.3,22.4-16.1,31.8-26.4l-14.1-10.1Z"/>
        <path class="st3" d="M646.8-2.9c-7.9-6.8-23.6-14.9-35.7-20.2l-12.7,16.1c12.5,5.6,27.7,14.8,35,21.6l13.4-17.5ZM637.6,48c-1.9,10.1-5.3,20.1-9.3,29.9-4.9-8.6-10-18.4-14.9-28.8l46.8-14.9-6.5-20.3-49,15.5c-6.5-15.4-12.5-31.9-17.5-48.8l-22.5,7.1c5.4,16.3,11.2,32.9,17.8,48.6l-34.6,11-7.7-24.3c9.8-5.5,18.9-11,27.1-16.5l-20.2-13.6c-16.5,11.8-42.6,26.4-66.7,37.8,3.9,4.1,9.3,11.1,11.8,16.1,8.8-4,18.3-8.4,27.5-13.1l6.5,20.5-34,10.8,6.5,20.3,34-10.8,7.7,24.1c-13.4,7-25.8,13.1-35.5,18l12.1,19.9c9-4.8,19.4-10.7,30.2-16.7l8.3,26.1c.9,2.9,0,4.1-3.1,5.2-3.2,1.2-13.6,4.7-23.8,7.4,4.9,5,11.6,13.5,14.4,19.2,14.6-4.4,25.1-8.8,31.1-14.4,6.1-5.7,6.8-12.3,3.1-24l-9.8-30.8,27.5-15.3-7.8-18.9c-8.7,4.5-17.4,9.3-26.1,13.8l-6.5-20.5,36.5-11.6c7.8,17,16,32.4,24.5,45.3-9.2,14.2-20.2,27.4-32.1,38.1,6.8,3.2,15,8.7,19.7,12.8,9.6-9.6,18.6-20.6,26.3-32.5,13.3,15.2,26.8,22.8,40,18.6,16.4-5.2,20.5-15.2,14-47.8-6.5-.5-15.2-3.1-21.5-6.6,5.8,21.5,6.4,30.9,2.6,32.1-5.4,1.7-13.6-4.8-22.9-17.1,8-15.4,13.9-31.8,17.4-48.9l-21.4-2Z"/>
        <path class="st3" d="M1798.9,967.4l-13.3,3,16.6,72.5-19,4.3-4-17.7c-2.9,2.5-6,4.6-9.3,6.3-3.3,1.6-7.5,3.1-12.7,4.3-5.3,1.2-10.3,1.4-15.1.5-4.8-.9-9-2.9-12.5-6.2-3.5-3.2-5.9-7.7-7.2-13.3-1.2-5.2-.9-10,.8-14.5s4.6-8.3,8.6-11.4c4-3.2,9.1-5.4,15.1-6.8,3.9-.9,7.4-1.6,10.5-2.1s5.5-.8,7.2-.8l2.1,15.5c-3.7,0-7.6.6-11.9,1.5-.7.2-1.3.3-1.8.4l16.9,13.5c.9-1,1.8-2.1,2.6-3.1.8-1.1,1.6-2.2,2.3-3.5l-8-35.1-57.5,13.1-3.6-15.6,89.7-20.5,3.5,15.7ZM1740.7,1016.9c.9,4.1,2.8,6.6,5.6,7.5s6.1,1,9.9,0c1.8-.4,3.5-1,5.1-1.8l-18.4-14.7c-2.2,2.5-3.1,5.4-2.2,8.9Z"/>
        <path class="st3" d="M1761.2,960.7c-2.4-2.9-4.3-5.6-5.6-8.2-1.3-2.5-2.2-5.1-2.8-7.6-1.6-7-.5-13.1,3.4-18.3,3.9-5.3,10-8.8,18.4-10.8,7.6-1.7,14.2-1.4,20.1.9,5.8,2.3,11,6.1,15.5,11.2,4.5,5.1,8.5,11.1,12.1,17.8l14.8-3.4,3.6,15.6-13.4,3.1,16.6,72.5-18.9,4.3-16.6-72.5-11.3,2.6-3.6-15.6,12-2.8c-4.1-7-8.2-12.1-12.3-15.4-4.1-3.2-8.4-4.3-13-3.3-3.4.8-5.7,2.3-6.9,4.6s-1.5,4.9-.8,7.8c.6,2.8,1.6,5.3,2.9,7.5,1.3,2.1,2.7,4.1,4.2,6l-18.4,4Z"/>
        <path class="st3" d="M21,755.6c-2.8.4-5.3,0-7.3-1.6s-3.2-3.6-3.6-6.3.2-5,1.7-7,3.7-3.2,6.6-3.6c1.9-.3,3.6,0,5.2.5s2.9,1.5,3.9,2.8,1.6,2.8,1.9,4.6.1,3.4-.5,5c-.6,1.5-1.6,2.8-3,3.8-1.4.9-3,1.5-4.9,1.8ZM22.8,854c-4.6.7-8.4.6-11.4-.2l.2-12.7,1-.5c1.6.5,3.4.6,5.5.3,4.6-.7,6.5-3.7,5.8-9.2l-9.6-67.6,15.7-2.2,9.6,67.2c1,7.3,0,13-2.7,17.2-2.9,4.3-7.6,6.8-14.1,7.7Z"/>
        <path class="st3" d="M105.9,787.3l-40.3,5.7c1.2,5.4,3.3,9.2,6.4,11.3,3,2.1,6.8,2.8,11.4,2.2,3.6-.5,6.4-1.6,8.5-3.3,2-1.7,3.6-4,4.5-6.9l1.2-.2,11.4,5.2c-1.4,4.7-4,8.7-7.7,12s-9.1,5.5-16,6.4c-6.5.9-12.3.5-17.3-1.3-5.1-1.8-9.2-4.9-12.5-9.4s-5.4-10.3-6.4-17.3c-1-7.1-.5-13.3,1.5-18.6s5.1-9.4,9.4-12.5c4.2-3.1,9.2-5,14.9-5.8,8.9-1.3,16,0,21.4,4.2,5.4,4,8.7,10.6,10,19.7.5,3.3.7,5.9.7,7.7l-1.1.9ZM90.9,779c-.8-4.7-2.4-8.1-4.8-9.9-2.4-1.9-5.6-2.6-9.5-2-8,1.1-12,6.4-12.1,15.7l26.4-3.8Z"/>
        <path class="st3" d="M1211.2,111.3c-3.9.6-7.2-.2-9.9-2.2-2.8-2-4.4-4.9-4.9-8.6s.3-6.8,2.3-9.5c2.1-2.7,5.1-4.3,8.9-4.9,2.6-.4,5,0,7.1.7,2.2.8,4,2.1,5.3,3.8,1.4,1.7,2.2,3.8,2.6,6.2.3,2.4,0,4.7-.7,6.8-.8,2.1-2.2,3.8-4.1,5.2-1.8,1.3-4,2.1-6.6,2.5ZM1213.7,245.5c-6.3.9-11.5.8-15.5-.3l.2-17.3,1.4-.7c2.2.7,4.7.8,7.5.4,6.3-.9,8.9-5.1,7.9-12.5l-13.1-92.2,21.5-3.1,13,91.5c1.4,10,.2,17.8-3.7,23.5-4,5.9-10.4,9.4-19.2,10.7Z"/>
        <path class="st3" d="M1326.9,153.8l-54.9,7.8c1.7,7.4,4.6,12.5,8.7,15.3,4.1,2.9,9.3,3.8,15.5,3,4.9-.7,8.8-2.2,11.5-4.5,2.8-2.3,4.9-5.4,6.2-9.4l1.6-.2,15.6,7.1c-1.9,6.4-5.5,11.8-10.6,16.4-5.1,4.5-12.4,7.4-21.8,8.8-8.8,1.3-16.7.7-23.6-1.8-6.9-2.4-12.5-6.7-17-12.9s-7.3-14-8.7-23.5c-1.4-9.7-.7-18.1,2-25.3s7-12.9,12.7-17c5.8-4.2,12.6-6.8,20.4-7.9,12.1-1.7,21.8.2,29.1,5.7,7.3,5.5,11.9,14.4,13.7,26.8.6,4.5,1,8,1,10.5l-1.4,1.1ZM1306.5,142.5c-1.1-6.5-3.3-11-6.6-13.6-3.2-2.6-7.6-3.5-13-2.7-10.8,1.5-16.3,8.7-16.5,21.4l36.1-5.1Z"/>
        <path class="st3" d="M190.3,472.8v-47.7h18.4v33.1l-9.2,14.6h-9.2Z"/>
        <path class="st3" d="M219.6,498.9v-15.5h22.9v-36.5c0-2-.4-3.6-1.2-4.6-.8-1.1-2.3-1.6-4.4-1.6h-13.2v-15.4h18.6c6,0,10.6,1.7,13.8,5,3.2,3.3,4.8,8.1,4.8,14.3v54.4h-41.3q0-.1,0-.1Z"/>
        <path class="st3" d="M278,498.9v-20.5c0-6.7,1.1-12.8,3.4-18.3s5.7-9.5,10.3-12.1l-16.7-22.8h21.1l25.9,37.6c1.6-1.7,2.7-4.1,3.4-7.1.7-3,1.1-6.6,1.1-10.7v-19.9h18.4v19.1c0,6.9-1.2,13.1-3.6,18.6s-5.9,9.5-10.6,12.1l18.1,24h-21.1l-27.1-38.5c-2.9,3.7-4.3,9.4-4.3,17.2v21.3h-18.3Z"/>
        <path class="st3" d="M195.8,2.5v-47.7h18.4V-12.1l-9.2,14.6h-9.2Z"/>
        <path class="st3" d="M225.1,28.6v-15.6h22.9V-23.5c0-2-.4-3.6-1.2-4.6-.8-1.1-2.3-1.6-4.4-1.6h-13.2v-15.4h18.6c6,0,10.6,1.7,13.8,5,3.2,3.3,4.8,8.1,4.8,14.3V28.6s-41.3,0-41.3,0Z"/>
        <path class="st3" d="M283.5,28.6V8c0-6.7,1.1-12.8,3.4-18.3,2.3-5.5,5.7-9.5,10.3-12.1l-16.7-22.8h21.1l25.9,37.6c1.6-1.7,2.7-4.1,3.4-7.1.7-3,1.1-6.6,1.1-10.7v-19.9h18.4v19.1c0,6.9-1.2,13.1-3.6,18.6s-5.9,9.5-10.6,12.1l18.1,24h-21.1l-27.1-38.5c-2.9,3.7-4.3,9.4-4.3,17.2v21.3h-18.3Z"/>
        <path class="st3" d="M1696.1,322.5l-20.8-70.6,27.2-8,14.5,49-7.2,25.6-13.7,4Z"/>
        <path class="st3" d="M1751.1,348.4l-6.8-23.1,34-10-16-54.1c-.9-3-2.2-5.1-3.9-6.3-1.7-1.2-4.1-1.4-7.2-.4l-19.6,5.8-6.8-22.9,27.6-8.1c8.8-2.6,16.4-2.1,22.6,1.4,6.2,3.6,10.7,9.9,13.4,19.1l23.8,80.6-61.1,18Z"/>
        <path class="st3" d="M1837.5,322.9l-9-30.5c-2.9-9.9-3.9-19.5-2.9-28.6s4.3-16.6,10-22.5l-34.7-26.5,31.2-9.2,54.8,44.5c1.5-3.2,2.2-7.2,2-12s-1.2-10.2-3-16.3l-8.7-29.4,27.2-8,8.4,28.3c3,10.2,3.9,19.9,2.8,29.1-1.1,9.2-4.6,16.7-10.5,22.5l37.4,27.7-31.2,9.2-57-45.2c-2.6,6.7-2.2,15.8,1.1,27.3l9.3,31.6-27.2,8Z"/>
        <path class="st3" d="M30.4,986.2l18.3-78.4,30.2,7-12.7,54.4-20.7,20.5-15.1-3.5Z"/>
        <path class="st3" d="M68.7,1040.4l6-25.6,37.7,8.8,14-60.1c.8-3.4.7-6.1-.2-8.1-.9-2.1-3.2-3.5-6.7-4.3l-21.8-5.1,5.9-25.4,30.6,7.1c9.8,2.3,16.7,6.8,20.8,13.5,4,6.7,4.8,15.2,2.5,25.4l-20.8,89.5-68-15.7Z"/>
        <path class="st3" d="M164.6,1062.7l7.9-33.9c2.6-11,6.8-20.6,12.7-28.7,5.9-8.1,13.1-13.5,21.6-16l-18.7-43.9,34.7,8.1,28.1,71.8c3.2-2.2,6-5.7,8.4-10.4s4.3-10.4,5.9-17.1l7.6-32.7,30.2,7-7.3,31.5c-2.6,11.3-7,21-13,29.2-6,8.2-13.4,13.4-22.1,15.8l20.6,46.5-34.6-8.1-29.8-73.7c-6.1,5-10.7,13.8-13.6,26.6l-8.2,35.1-30.4-7.1Z"/>
        <path class="st3" d="M92.6,293.5l-30.6,2.6,9.8,115.2,30.6-2.6-9.8-115.2ZM-65,367.2c-1.3-15.7,7.2-25.3,20.5-26.4,13.7-1.2,23.8,6.9,25.1,22.5,1.4,15.9-7.2,26-20.9,27.2-13.3,1.1-23.4-7.4-24.7-23.3ZM23.3,372.5l3.5,41.4,30.1-2.6-9.4-109.8-30.1,2.6,3.6,42.7-14.5,1.2c-7.3-22.1-27.9-34.9-53.4-32.7-29.9,2.5-49.7,25-47.2,54.4,2.5,29.9,25.9,48.7,55.8,46.1,25.7-2.2,43.8-18.5,47-42l14.6-1.3ZM-11.1,501.8l-1.2-13.7,120.6-10.3-5.2-60.8-153.4,13.1,2.1,25,121.1-10.3,1,12.3-120.6,10.3,5.3,62.3,160-13.6-2.1-25-127.6,10.7Z"/>
        <path class="st3" d="M1787,454.1l-16.8-6.4-24.2,63.1,16.8,6.4,24.2-63.1ZM1685.3,452.6c3.3-8.6,10.3-11.5,17.5-8.7,7.5,2.9,10.8,9.7,7.5,18.3-3.3,8.7-10.4,11.9-17.9,9-7.3-2.8-10.4-9.9-7.1-18.6ZM1730.4,477.9l-8.7,22.7,16.5,6.3,23.1-60.1-16.5-6.3-9,23.4-7.9-3c1.8-13.5-5.8-25.5-19.7-30.8-16.4-6.3-32.5.5-38.7,16.6-6.3,16.4,1.2,32.2,17.6,38.5,14.1,5.4,27.8,1.4,35.4-10.1l7.9,2.8ZM1679.3,537.2l2.9-7.5,66,25.4,12.8-33.3-84-32.3-5.3,13.7,66.3,25.5-2.6,6.7-66-25.4-13.1,34.1,87.6,33.6,5.3-13.7-69.9-26.8Z"/>
        <path class="st3" d="M1037.8,33l-17.7,3.2,12.2,66.5,17.7-3.2-12.2-66.5ZM950.2,84.6c-1.7-9.1,2.8-15.1,10.4-16.5,7.9-1.4,14.2,2.7,15.9,11.7,1.7,9.2-2.7,15.5-10.6,17-7.6,1.4-14-3-15.7-12.2ZM1001.8,82.8l4.4,23.9,17.4-3.2-11.6-63.4-17.4,3.2,4.5,24.6-8.3,1.5c-5.4-12.4-18.1-18.7-32.8-16.1-17.3,3.2-27.5,17.3-24.4,34.3,3.2,17.3,17.8,26.9,35,23.7,14.8-2.7,24.5-13.2,25-27.1l8.2-1.4ZM989.1,160l-1.4-7.9,69.6-12.7-6.4-35.1-88.5,16.2,2.6,14.4,69.9-12.8,1.3,7.1-69.6,12.7,6.6,35.9,92.3-16.9-2.6-14.4-73.8,13.5Z"/>
        <path class="st3" d="M1880.9,99.1c-6-1.4-10.9-3.8-14.9-7.3-3.9-3.5-6.6-7.9-8-13.2s-1.3-11.3.3-18c1.6-6.7,4.1-12.1,7.7-16.3s7.9-7,13-8.4c5.1-1.4,10.6-1.4,16.6,0s10.9,3.8,14.9,7.3c3.9,3.5,6.6,7.9,8,13.3,1.4,5.3,1.3,11.3-.2,18-1.6,6.7-4.2,12.1-7.8,16.3-3.6,4.1-7.9,6.9-13,8.3-5.1,1.3-10.6,1.3-16.6,0ZM1883.9,86.1c9.5,2.2,15.6-2.9,18.5-15.3,1.5-6.4,1.4-11.4-.4-15-1.7-3.6-4.9-5.9-9.5-7-9.5-2.2-15.6,2.9-18.5,15.4-2.8,12.4.5,19.7,9.9,21.9ZM1901.5,32l-10.4-2.4.3-1.2,12-15.4,17.1,4-.3,1.2-18.7,13.8Z"/>
        <path class="st3" d="M730.2,273.3c-8-1.9-14.6-5.1-19.9-9.8-5.3-4.7-8.9-10.6-10.7-17.7-1.9-7.1-1.7-15.2.4-24.1,2.1-9,5.5-16.2,10.3-21.8s10.6-9.3,17.4-11.2c6.8-1.9,14.2-1.9,22.2,0s14.6,5.1,19.9,9.8c5.3,4.7,8.9,10.6,10.7,17.8,1.9,7.1,1.8,15.2-.3,24.2s-5.6,16.3-10.4,21.8c-4.8,5.6-10.6,9.3-17.5,11.1-6.7,1.7-14.1,1.7-22.1-.1ZM734.3,255.9c12.7,3,20.9-3.9,24.8-20.5,2-8.6,1.8-15.3-.5-20.1s-6.6-7.9-12.7-9.3c-12.7-3-21,3.9-24.8,20.6-3.9,16.5.5,26.3,13.2,29.3ZM757.9,183.4l-13.9-3.2.4-1.5,16-20.6,23,5.3-.4,1.5-25.1,18.5Z"/>
      </g>
    </g>
  </g>
  <g id="Layer_2_copy">
    <g>
      <path class="st1" d="M1920,0H0v1080h1920V0Z"/>
      <path class="st0" d="M95.6,204.3l-27-99.3,23.9-6.5,4,14.6h2c3.1-13,11.6-21.3,25.5-25.1,11.5-3.1,20.7-2.3,27.8,2.5s12.2,13.1,15.5,25.1l17.5,64.5-25,6.8-16.7-61.5c-1.8-6.6-4.4-11-7.8-13.2-3.4-2.2-8-2.5-13.9-.9-7.1,1.9-12.1,5.8-14.8,11.5-2.7,5.7-2.8,13.5,0,23.4l14,51.4-24.9,6.7ZM81,85.4c-2.3-8.4-2.5-15-.6-19.8s5.3-7.9,10.4-9.3c2.5-.7,4.8-.9,7-.6,2.2.3,4.6,1,7.2,2.1l4.1,2c1.8.8,3.1,1.3,3.8,1.6.7.2,1.4.2,2,0,1-.3,1.6-1,1.8-2.3.2-1.2-.2-3.4-1-6.6l-.8-2.8,15-4.1.7,2.5c2.3,8.5,2.5,15.1.7,19.9-1.8,4.8-5.3,7.9-10.4,9.3-2.5.7-4.9.9-7.2.7-2.2-.2-4.6-1-7.2-2.2l-4-2c-1.6-.8-2.8-1.3-3.6-1.5-.8-.2-1.5-.2-2.1,0-1,.3-1.6,1-1.8,2.3-.2,1.2.2,3.4,1,6.5l.8,2.8-15,4.1-.8-2.6Z"/>
      <path class="st0" d="M1839.6,654.6l-18.3-67.5,16.3-4.4,2.7,9.9h1.4c2.1-8.8,7.9-14.5,17.3-17.1,7.8-2.1,14.1-1.5,18.9,1.7s8.3,8.9,10.5,17l11.9,43.9-17,4.6-11.4-41.8c-1.2-4.5-3-7.5-5.3-9s-5.5-1.7-9.4-.6c-4.9,1.3-8.2,3.9-10.1,7.8s-1.9,9.2,0,15.9l9.5,34.9-17,4.7ZM1829.7,573.8c-1.6-5.7-1.7-10.2-.4-13.5,1.3-3.3,3.6-5.4,7-6.3,1.7-.5,3.3-.6,4.8-.4s3.1.7,4.9,1.4l2.8,1.3c1.2.5,2.1.9,2.6,1.1.5,0,.9.2,1.4,0,.7-.2,1.1-.7,1.2-1.5s0-2.3-.7-4.5l-.5-1.9,10.2-2.8.5,1.7c1.6,5.8,1.7,10.3.5,13.5-1.2,3.3-3.6,5.3-7.1,6.3-1.7.5-3.3.6-4.9.5-1.5-.2-3.1-.7-4.9-1.5l-2.7-1.4c-1.1-.5-1.9-.9-2.4-1s-1-.2-1.5,0c-.7.2-1.1.7-1.2,1.6,0,.8,0,2.3.7,4.4l.5,1.9-10.2,2.8-.6-1.7Z"/>
      <path class="st0" d="M1498.4,289.8l15.9-68.1,16.4,3.8-2.3,10,1.2.6c6-6.8,13.8-9,23.3-6.8,7.9,1.8,13.1,5.3,15.8,10.5,2.7,5.1,3.1,11.8,1.2,20l-10.3,44.3-17.1-4,9.8-42.2c1.1-4.5.9-8-.4-10.4s-4-4.1-8-5c-4.9-1.1-9.1-.4-12.6,2.1s-6,7.2-7.6,14l-8.2,35.3-17.1-4.1ZM1528.1,213.9c1.3-5.8,3.3-9.8,6-12.1s5.7-3,9.2-2.2c1.7.4,3.2,1,4.4,1.9,1.2.9,2.5,2.1,3.6,3.6l1.8,2.5c.8,1.1,1.4,1.8,1.7,2.2.3.4.7.6,1.2.7.7.2,1.3-.1,1.8-.8s1-2.1,1.5-4.3l.4-1.9,10.3,2.4-.4,1.7c-1.4,5.8-3.4,9.8-6,12.1s-5.7,3-9.2,2.2c-1.7-.4-3.2-1-4.5-1.9s-2.5-2.1-3.6-3.6l-1.8-2.5c-.7-1-1.3-1.7-1.7-2-.4-.4-.8-.6-1.3-.7-.7-.2-1.3.1-1.8.8s-1,2.1-1.5,4.2l-.4,1.9-10.3-2.4.6-1.8Z"/>
      <path class="st0" d="M304.8,195.9l-5.6,23.9c-1.3,5.6.7,9.1,5.9,10.3,3.4.8,6.7,1.2,9.8,1.1s6.3-.4,9.5-1l6.6-28.2,17.8,4.1-15.2,65.2-17.8-4.1,6-25.9c-3.1.9-6.6,1.5-10.5,1.9s-8.1.1-12.6-1c-6.8-1.6-11.8-4.6-15-9-3.3-4.4-4.1-10.2-2.4-17.2l5.6-24.2,17.9,4.1Z"/>
      <path class="st0" d="M394.5,215.4c8.8,2,15,5.5,18.8,10.4s4.8,11.2,3,19l-10.2,43.4-12.4-2.9-1.4-9.6h-.5c-3.6,2.7-7.1,4.6-10.6,5.5s-7.9.7-13.3-.6c-5.8-1.4-10.3-4.2-13.3-8.4-3-4.2-3.7-9.9-2.1-17,1.6-6.9,5.2-11.5,10.8-13.6,5.6-2.1,13.3-2.3,23.1-.4l11.4,2.3.7-2.9c.8-3.4.5-6.1-1-8.1-1.4-2-3.7-3.4-6.9-4.1-3.2-.7-6.4-1-9.6-.8s-6.5.6-9.9,1.3l-3-13.4c3.8-.9,8-1.5,12.5-1.5,4.7,0,9.3.3,13.9,1.4ZM395.5,253.9l-7-1.4c-5.8-1.2-10-1.1-12.7.3-2.7,1.4-4.4,3.6-5.1,6.7-.6,2.7-.3,4.8,1,6.4,1.3,1.5,3.3,2.6,5.8,3.2,3.8.9,7.3.5,10.5-1.2s5.2-4.6,6.2-8.7l1.3-5.3Z"/>
      <path class="st0" d="M450.6,299.8c-9.7-2.2-16.6-6.7-20.7-13.2-4.1-6.6-4.7-15.6-2-27.3,1.9-8,4.7-14.1,8.6-18.5s8.5-7.2,13.8-8.5c5.4-1.3,11.2-1.2,17.5.3,4.4,1,8.2,2.4,11.3,4,3.1,1.6,5.8,3.3,7.9,5.1l-8.5,12.5c-2.5-1.8-4.9-3.3-7.2-4.6-2.3-1.3-4.6-2.2-7-2.8-9.2-2.1-15.4,3.3-18.4,16.5-1.5,6.5-1.4,11.6.3,15.3,1.7,3.7,4.8,6,9.1,7,3.7.9,7.2,1.1,10.2.8,3.1-.3,6.2-1.1,9.3-2.2l-3.5,15.2c-3.1,1.1-6.3,1.7-9.4,1.8-2.9.2-6.8-.3-11.3-1.4Z"/>
      <path class="st0" d="M1690.6,703.3l-8.4,36.1c-2,8.5,1,13.7,9,15.6,5.2,1.2,10.1,1.8,14.8,1.7,4.7,0,9.5-.6,14.4-1.5l9.9-42.6,26.9,6.3-22.9,98.5-26.9-6.3,9.1-39.1c-4.7,1.3-10,2.3-15.9,2.9-5.9.6-12.2,0-19.1-1.5-10.2-2.4-17.8-6.9-22.7-13.6-4.9-6.7-6.1-15.3-3.6-26.1l8.5-36.6,26.9,6.2Z"/>
      <path class="st0" d="M1826.3,732.8c13.2,3.1,22.7,8.3,28.4,15.7,5.7,7.3,7.2,16.9,4.5,28.7l-15.3,65.7-18.8-4.4-2.1-14.6-.7-.2c-5.5,4.3-10.8,7.1-16.1,8.5-5.2,1.3-12,1-20.1-.9-8.8-2-15.5-6.3-20.1-12.7s-5.6-14.9-3.1-25.7c2.4-10.5,7.9-17.3,16.4-20.5s20.1-3.4,34.9-.6l17.3,3.4,1-4.3c1.2-5.2.7-9.3-1.4-12.3s-5.6-5.1-10.4-6.2c-4.8-1.1-9.7-1.5-14.6-1.2s-9.9,1-14.9,1.9l-4.6-20.3c5.8-1.4,12.1-2.2,19-2.3,6.8-.1,13.7.6,20.7,2.3ZM1827.8,790.9l-10.5-2.1c-8.7-1.8-15.1-1.6-19.2.5-4,2.1-6.6,5.5-7.7,10.2-1,4.1-.4,7.3,1.5,9.6,2,2.3,4.9,3.9,8.8,4.8,5.8,1.3,11.1.8,15.8-1.7,4.8-2.5,7.9-6.9,9.3-13.1l2-8.2Z"/>
      <path class="st0" d="M1911.1,860.4c-14.7-3.4-25.1-10.1-31.2-20s-7.1-23.7-3-41.2c2.8-12,7.1-21.3,13-28,5.9-6.6,12.8-10.9,20.9-12.8,8.1-1.9,16.9-1.8,26.5.4,6.7,1.6,12.4,3.6,17.1,6.1s8.7,5.1,12,7.7l-12.8,18.9c-3.8-2.7-7.4-5-10.8-6.9s-6.9-3.3-10.5-4.2c-14-3.2-23.2,5.1-27.9,24.9-2.3,9.9-2.2,17.6.4,23.1s7.2,9.1,13.8,10.6c5.7,1.3,10.8,1.7,15.5,1.2s9.4-1.6,14.1-3.3l-5.3,22.9c-4.7,1.7-9.5,2.6-14.2,2.7-5,.2-10.8-.5-17.6-2.1Z"/>
      <path class="st0" d="M1229-92.2l-8.4,36.1c-2,8.5,1,13.7,9,15.6,5.2,1.2,10.1,1.8,14.8,1.7,4.7,0,9.5-.6,14.4-1.5l9.9-42.6,26.9,6.3-22.9,98.5-26.9-6.3,9.1-39.1c-4.7,1.3-10,2.3-15.9,2.9s-12.2.1-19.1-1.5c-10.2-2.4-17.8-6.9-22.7-13.6-4.9-6.7-6.1-15.3-3.6-26.1l8.5-36.6,26.9,6.2Z"/>
      <path class="st0" d="M1364.6-62.7c13.2,3.1,22.7,8.3,28.4,15.7,5.7,7.3,7.2,16.9,4.5,28.7l-15.3,65.7-18.8-4.4-2.1-14.6-.7-.2c-5.5,4.3-10.8,7.1-16.1,8.5-5.2,1.3-12,1-20.1-.9-8.8-2-15.5-6.3-20.1-12.7-4.6-6.4-5.6-14.9-3.1-25.7,2.4-10.5,7.9-17.3,16.4-20.5s20.1-3.4,34.9-.6l17.3,3.4,1-4.3c1.2-5.2.7-9.3-1.4-12.3s-5.6-5.1-10.4-6.2c-4.8-1.1-9.7-1.5-14.6-1.2s-9.9,1-14.9,1.9l-4.6-20.3c5.8-1.4,12.1-2.2,19-2.3,6.8,0,13.7.7,20.7,2.3ZM1366.1-4.5l-10.5-2.1c-8.7-1.8-15.1-1.6-19.2.5-4,2.1-6.6,5.5-7.7,10.2-1,4.1-.4,7.3,1.5,9.6,2,2.3,4.9,3.9,8.8,4.8,5.8,1.3,11.1.8,15.8-1.7,4.8-2.5,7.9-6.9,9.3-13.1l2-8.2Z"/>
      <path class="st0" d="M1449.4,64.9c-14.7-3.4-25.1-10.1-31.2-20s-7.1-23.7-3-41.2c2.8-12,7.1-21.3,13-28,5.9-6.6,12.8-10.9,20.9-12.8s16.9-1.8,26.5.4c6.7,1.6,12.4,3.6,17.1,6.1,4.7,2.5,8.7,5.1,12,7.7l-12.8,18.9c-3.8-2.7-7.4-5-10.8-6.9s-6.9-3.3-10.5-4.2c-14-3.2-23.2,5.1-27.9,24.9-2.3,9.9-2.2,17.6.4,23.1s7.2,9.1,13.8,10.6c5.7,1.3,10.8,1.7,15.5,1.2s9.4-1.6,14.1-3.3l-5.3,22.9c-4.7,1.7-9.5,2.6-14.2,2.7-4.9.2-10.8-.5-17.6-2.1Z"/>
      <path class="st0" d="M273.4,612.3c-2.6-7.9-10.1-19.8-16.3-28.4l-15.3,5.9c6.3,8.9,12.9,21.4,15.2,29l16.4-6.5ZM246.3,643.4c-5.5,6.1-11.8,11.6-18.6,16.7.1-7.9.6-16.7,1.5-25.8l38.1,8.9,3.9-16.6-39.9-9.3c1.8-13.2,4.4-26.9,7.9-40.5l-18.3-4.2c-3,13.4-5.7,27.1-7.6,40.6l-28.1-6.6,4.6-19.8c8.9.2,17.4.2,25.3-.3l-8.3-17.5c-16.1,1.4-39.9.8-61.1-1.2,1,4.4,1.8,11.4,1.6,15.8,7.7.9,16,1.7,24.2,2.2l-3.9,16.7-27.7-6.5-3.9,16.6,27.7,6.5-4.6,19.6c-12.1-.6-23-1.5-31.7-2.1l.2,18.6c8.1.3,17.6.6,27.5.8l-4.9,21.3c-.5,2.3-1.6,2.9-4.2,2.3-2.7-.5-11.2-2.3-19.3-4.7,1.4,5.4,2.5,14,2.1,19,11.8,2.9,20.8,4.2,27.2,2.8,6.5-1.4,9.7-5.6,11.9-15.2l5.8-25.1,25,.7,2.4-16.1c-7.8-.4-15.7-.7-23.5-1.1l3.9-16.7,29.8,6.9c-1.6,14.8-2.2,28.7-1.7,41-12.1,6-25,10.6-37.5,13.1,3.3,4.9,6.8,12.1,8.3,16.8,10.5-2.7,21.1-6.5,31.3-11.6,3,15.8,9.1,26.5,19.8,29,13.3,3.1,20.3-2.1,29-27.1-4.2-3-9.2-8.3-12-13.3-4.8,17.1-8.2,23.8-11.2,23-4.4-1-7.4-8.8-8.7-21,11.7-7.3,22.4-16.1,31.8-26.4l-14.1-10.2Z"/>
      <path class="st0" d="M1769.4,36.2c-2.6-7.9-10.1-19.8-16.3-28.4l-15.3,5.9c6.3,8.9,12.9,21.4,15.2,29l16.4-6.5ZM1742.3,67.4c-5.5,6.1-11.8,11.6-18.6,16.7,0-7.9.6-16.7,1.5-25.8l38.1,8.9,3.9-16.6-39.9-9.3c1.8-13.2,4.4-26.9,7.9-40.5l-18.3-4.3c-3,13.4-5.7,27.1-7.6,40.6l-28.1-6.6,4.6-19.8c8.9.2,17.4.2,25.3-.3l-8.3-17.5c-16.1,1.4-39.9.8-61.1-1.2,1,4.4,1.8,11.4,1.6,15.8,7.7.9,16,1.7,24.2,2.2l-3.9,16.7-27.7-6.5-3.9,16.6,27.7,6.5-4.6,19.6c-12.1-.6-23-1.5-31.7-2.1l.2,18.6c8.1.3,17.6.6,27.5.8l-4.9,21.3c-.5,2.3-1.6,2.9-4.2,2.3-2.7-.5-11.2-2.3-19.3-4.7,1.4,5.4,2.5,14,2.1,19,11.8,2.9,20.8,4.2,27.2,2.8,6.5-1.4,9.7-5.6,11.9-15.2l5.8-25.1,25,.7,2.4-16.1c-7.8-.4-15.7-.7-23.5-1.1l3.9-16.7,29.8,6.9c-1.6,14.8-2.2,28.7-1.7,41-12.1,6-25,10.6-37.5,13.1,3.3,4.9,6.8,12.1,8.3,16.8,10.5-2.7,21.1-6.5,31.3-11.6,3,15.8,9.1,26.5,19.8,29,13.3,3.1,20.3-2.1,29-27.1-4.2-3-9.2-8.3-12-13.3-4.8,17.1-8.2,23.8-11.2,23-4.4-1-7.4-8.8-8.7-21,11.7-7.3,22.4-16.1,31.8-26.4l-14.1-10.1Z"/>
      <path class="st0" d="M646.8-2.9c-7.9-6.8-23.6-14.9-35.7-20.2l-12.7,16.1c12.5,5.6,27.7,14.8,35,21.6l13.4-17.5ZM637.6,48c-1.9,10.1-5.3,20.1-9.3,29.9-4.9-8.6-10-18.4-14.9-28.8l46.8-14.9-6.5-20.3-49,15.5c-6.5-15.4-12.5-31.9-17.5-48.8l-22.5,7.1c5.4,16.3,11.2,32.9,17.8,48.6l-34.6,11-7.7-24.3c9.8-5.5,18.9-11,27.1-16.5l-20.2-13.6c-16.5,11.8-42.6,26.4-66.7,37.8,3.9,4.1,9.3,11.1,11.8,16.1,8.8-4,18.3-8.4,27.5-13.1l6.5,20.5-34,10.8,6.5,20.3,34-10.8,7.7,24.1c-13.4,7-25.8,13.1-35.5,18l12.1,19.9c9-4.8,19.4-10.7,30.2-16.7l8.3,26.1c.9,2.9,0,4.1-3.1,5.2-3.2,1.2-13.6,4.7-23.8,7.4,4.9,5,11.6,13.5,14.4,19.2,14.6-4.4,25.1-8.8,31.1-14.4,6.1-5.7,6.8-12.3,3.1-24l-9.8-30.8,27.5-15.3-7.8-18.9c-8.7,4.5-17.4,9.3-26.1,13.8l-6.5-20.5,36.5-11.6c7.8,17,16,32.4,24.5,45.3-9.2,14.2-20.2,27.4-32.1,38.1,6.8,3.2,15,8.7,19.7,12.8,9.6-9.6,18.6-20.6,26.3-32.5,13.3,15.2,26.8,22.8,40,18.6,16.4-5.2,20.5-15.2,14-47.8-6.5-.5-15.2-3.1-21.5-6.6,5.8,21.5,6.4,30.9,2.6,32.1-5.4,1.7-13.6-4.8-22.9-17.1,8-15.4,13.9-31.8,17.4-48.9l-21.4-2Z"/>
      <path class="st0" d="M1798.9,967.4l-13.3,3,16.6,72.5-19,4.3-4-17.7c-2.9,2.5-6,4.6-9.3,6.3-3.3,1.6-7.5,3.1-12.7,4.3-5.3,1.2-10.3,1.4-15.1.5-4.8-.9-9-2.9-12.5-6.2-3.5-3.2-5.9-7.7-7.2-13.3-1.2-5.2-.9-10,.8-14.5s4.6-8.3,8.6-11.4c4-3.2,9.1-5.4,15.1-6.8,3.9-.9,7.4-1.6,10.5-2.1s5.5-.8,7.2-.8l2.1,15.5c-3.7,0-7.6.6-11.9,1.5-.7.2-1.3.3-1.8.4l16.9,13.5c.9-1,1.8-2.1,2.6-3.1.8-1.1,1.6-2.2,2.3-3.5l-8-35.1-57.5,13.1-3.6-15.6,89.7-20.5,3.5,15.7ZM1740.7,1016.9c.9,4.1,2.8,6.6,5.6,7.5s6.1,1,9.9,0c1.8-.4,3.5-1,5.1-1.8l-18.4-14.7c-2.2,2.5-3.1,5.4-2.2,8.9Z"/>
      <path class="st0" d="M1761.2,960.7c-2.4-2.9-4.3-5.6-5.6-8.2-1.3-2.5-2.2-5.1-2.8-7.6-1.6-7-.5-13.1,3.4-18.3,3.9-5.3,10-8.8,18.4-10.8,7.6-1.7,14.2-1.4,20.1.9,5.8,2.3,11,6.1,15.5,11.2,4.5,5.1,8.5,11.1,12.1,17.8l14.8-3.4,3.6,15.6-13.4,3.1,16.6,72.5-18.9,4.3-16.6-72.5-11.3,2.6-3.6-15.6,12-2.8c-4.1-7-8.2-12.1-12.3-15.4-4.1-3.2-8.4-4.3-13-3.3-3.4.8-5.7,2.3-6.9,4.6s-1.5,4.9-.8,7.8c.6,2.8,1.6,5.3,2.9,7.5,1.3,2.1,2.7,4.1,4.2,6l-18.4,4Z"/>
      <path class="st0" d="M21,755.6c-2.8.4-5.3,0-7.3-1.6s-3.2-3.6-3.6-6.3.2-5,1.7-7,3.7-3.2,6.6-3.6c1.9-.3,3.6,0,5.2.5s2.9,1.5,3.9,2.8,1.6,2.8,1.9,4.6.1,3.4-.5,5c-.6,1.5-1.6,2.8-3,3.8-1.4.9-3,1.5-4.9,1.8ZM22.8,854c-4.6.7-8.4.6-11.4-.2l.2-12.7,1-.5c1.6.5,3.4.6,5.5.3,4.6-.7,6.5-3.7,5.8-9.2l-9.6-67.6,15.7-2.2,9.6,67.2c1,7.3,0,13-2.7,17.2-2.9,4.3-7.6,6.8-14.1,7.7Z"/>
      <path class="st0" d="M105.9,787.3l-40.3,5.7c1.2,5.4,3.3,9.2,6.4,11.3,3,2.1,6.8,2.8,11.4,2.2,3.6-.5,6.4-1.6,8.5-3.3,2-1.7,3.6-4,4.5-6.9l1.2-.2,11.4,5.2c-1.4,4.7-4,8.7-7.7,12s-9.1,5.5-16,6.4c-6.5.9-12.3.5-17.3-1.3-5.1-1.8-9.2-4.9-12.5-9.4s-5.4-10.3-6.4-17.3c-1-7.1-.5-13.3,1.5-18.6s5.1-9.4,9.4-12.5c4.2-3.1,9.2-5,14.9-5.8,8.9-1.3,16,0,21.4,4.2,5.4,4,8.7,10.6,10,19.7.5,3.3.7,5.9.7,7.7l-1.1.9ZM90.9,779c-.8-4.7-2.4-8.1-4.8-9.9-2.4-1.9-5.6-2.6-9.5-2-8,1.1-12,6.4-12.1,15.7l26.4-3.8Z"/>
      <path class="st0" d="M1211.2,111.3c-3.9.6-7.2-.2-9.9-2.2-2.8-2-4.4-4.9-4.9-8.6s.3-6.8,2.3-9.5c2.1-2.7,5.1-4.3,8.9-4.9,2.6-.4,5,0,7.1.7,2.2.8,4,2.1,5.3,3.8,1.4,1.7,2.2,3.8,2.6,6.2.3,2.4,0,4.7-.7,6.8-.8,2.1-2.2,3.8-4.1,5.2-1.8,1.3-4,2.1-6.6,2.5ZM1213.7,245.5c-6.3.9-11.5.8-15.5-.3l.2-17.3,1.4-.7c2.2.7,4.7.8,7.5.4,6.3-.9,8.9-5.1,7.9-12.5l-13.1-92.2,21.5-3.1,13,91.5c1.4,10,.2,17.8-3.7,23.5-4,5.9-10.4,9.4-19.2,10.7Z"/>
      <path class="st0" d="M1326.9,153.8l-54.9,7.8c1.7,7.4,4.6,12.5,8.7,15.3,4.1,2.9,9.3,3.8,15.5,3,4.9-.7,8.8-2.2,11.5-4.5,2.8-2.3,4.9-5.4,6.2-9.4l1.6-.2,15.6,7.1c-1.9,6.4-5.5,11.8-10.6,16.4-5.1,4.5-12.4,7.4-21.8,8.8-8.8,1.3-16.7.7-23.6-1.8-6.9-2.4-12.5-6.7-17-12.9s-7.3-14-8.7-23.5c-1.4-9.7-.7-18.1,2-25.3s7-12.9,12.7-17c5.8-4.2,12.6-6.8,20.4-7.9,12.1-1.7,21.8.2,29.1,5.7,7.3,5.5,11.9,14.4,13.7,26.8.6,4.5,1,8,1,10.5l-1.4,1.1ZM1306.5,142.5c-1.1-6.5-3.3-11-6.6-13.6-3.2-2.6-7.6-3.5-13-2.7-10.8,1.5-16.3,8.7-16.5,21.4l36.1-5.1Z"/>
      <path class="st0" d="M190.3,472.8v-47.7h18.4v33.1l-9.2,14.6h-9.2Z"/>
      <path class="st0" d="M219.6,498.9v-15.5h22.9v-36.5c0-2-.4-3.6-1.2-4.6-.8-1.1-2.3-1.6-4.4-1.6h-13.2v-15.4h18.6c6,0,10.6,1.7,13.8,5,3.2,3.3,4.8,8.1,4.8,14.3v54.4h-41.3q0-.1,0-.1Z"/>
      <path class="st0" d="M278,498.9v-20.5c0-6.7,1.1-12.8,3.4-18.3s5.7-9.5,10.3-12.1l-16.7-22.8h21.1l25.9,37.6c1.6-1.7,2.7-4.1,3.4-7.1.7-3,1.1-6.6,1.1-10.7v-19.9h18.4v19.1c0,6.9-1.2,13.1-3.6,18.6s-5.9,9.5-10.6,12.1l18.1,24h-21.1l-27.1-38.5c-2.9,3.7-4.3,9.4-4.3,17.2v21.3h-18.3Z"/>
      <path class="st0" d="M195.8,2.5v-47.7h18.4V-12.1l-9.2,14.6h-9.2Z"/>
      <path class="st0" d="M225.1,28.6v-15.6h22.9V-23.5c0-2-.4-3.6-1.2-4.6-.8-1.1-2.3-1.6-4.4-1.6h-13.2v-15.4h18.6c6,0,10.6,1.7,13.8,5,3.2,3.3,4.8,8.1,4.8,14.3V28.6s-41.3,0-41.3,0Z"/>
      <path class="st0" d="M283.5,28.6V8c0-6.7,1.1-12.8,3.4-18.3,2.3-5.5,5.7-9.5,10.3-12.1l-16.7-22.8h21.1l25.9,37.6c1.6-1.7,2.7-4.1,3.4-7.1.7-3,1.1-6.6,1.1-10.7v-19.9h18.4v19.1c0,6.9-1.2,13.1-3.6,18.6s-5.9,9.5-10.6,12.1l18.1,24h-21.1l-27.1-38.5c-2.9,3.7-4.3,9.4-4.3,17.2v21.3h-18.3Z"/>
      <path class="st0" d="M1696.1,322.5l-20.8-70.6,27.2-8,14.5,49-7.2,25.6-13.7,4Z"/>
      <path class="st0" d="M1751.1,348.4l-6.8-23.1,34-10-16-54.1c-.9-3-2.2-5.1-3.9-6.3-1.7-1.2-4.1-1.4-7.2-.4l-19.6,5.8-6.8-22.9,27.6-8.1c8.8-2.6,16.4-2.1,22.6,1.4,6.2,3.6,10.7,9.9,13.4,19.1l23.8,80.6-61.1,18Z"/>
      <path class="st0" d="M1837.5,322.9l-9-30.5c-2.9-9.9-3.9-19.5-2.9-28.6s4.3-16.6,10-22.5l-34.7-26.5,31.2-9.2,54.8,44.5c1.5-3.2,2.2-7.2,2-12s-1.2-10.2-3-16.3l-8.7-29.4,27.2-8,8.4,28.3c3,10.2,3.9,19.9,2.8,29.1-1.1,9.2-4.6,16.7-10.5,22.5l37.4,27.7-31.2,9.2-57-45.2c-2.6,6.7-2.2,15.8,1.1,27.3l9.3,31.6-27.2,8Z"/>
      <path class="st0" d="M30.4,986.2l18.3-78.4,30.2,7-12.7,54.4-20.7,20.5-15.1-3.5Z"/>
      <path class="st0" d="M68.7,1040.4l6-25.6,37.7,8.8,14-60.1c.8-3.4.7-6.1-.2-8.1-.9-2.1-3.2-3.5-6.7-4.3l-21.8-5.1,5.9-25.4,30.6,7.1c9.8,2.3,16.7,6.8,20.8,13.5,4,6.7,4.8,15.2,2.5,25.4l-20.8,89.5-68-15.7Z"/>
      <path class="st0" d="M164.6,1062.7l7.9-33.9c2.6-11,6.8-20.6,12.7-28.7,5.9-8.1,13.1-13.5,21.6-16l-18.7-43.9,34.7,8.1,28.1,71.8c3.2-2.2,6-5.7,8.4-10.4s4.3-10.4,5.9-17.1l7.6-32.7,30.2,7-7.3,31.5c-2.6,11.3-7,21-13,29.2-6,8.2-13.4,13.4-22.1,15.8l20.6,46.5-34.6-8.1-29.8-73.7c-6.1,5-10.7,13.8-13.6,26.6l-8.2,35.1-30.4-7.1Z"/>
      <path class="st0" d="M92.6,293.5l-30.6,2.6,9.8,115.2,30.6-2.6-9.8-115.2ZM-65,367.2c-1.3-15.7,7.2-25.3,20.5-26.4,13.7-1.2,23.8,6.9,25.1,22.5,1.4,15.9-7.2,26-20.9,27.2-13.3,1.1-23.4-7.4-24.7-23.3ZM23.3,372.5l3.5,41.4,30.1-2.6-9.4-109.8-30.1,2.6,3.6,42.7-14.5,1.2c-7.3-22.1-27.9-34.9-53.4-32.7-29.9,2.5-49.7,25-47.2,54.4,2.5,29.9,25.9,48.7,55.8,46.1,25.7-2.2,43.8-18.5,47-42l14.6-1.3ZM-11.1,501.8l-1.2-13.7,120.6-10.3-5.2-60.8-153.4,13.1,2.1,25,121.1-10.3,1,12.3-120.6,10.3,5.3,62.3,160-13.6-2.1-25-127.6,10.7Z"/>
      <path class="st0" d="M1787,454.1l-16.8-6.4-24.2,63.1,16.8,6.4,24.2-63.1ZM1685.3,452.6c3.3-8.6,10.3-11.5,17.5-8.7,7.5,2.9,10.8,9.7,7.5,18.3-3.3,8.7-10.4,11.9-17.9,9-7.3-2.8-10.4-9.9-7.1-18.6ZM1730.4,477.9l-8.7,22.7,16.5,6.3,23.1-60.1-16.5-6.3-9,23.4-7.9-3c1.8-13.5-5.8-25.5-19.7-30.8-16.4-6.3-32.5.5-38.7,16.6-6.3,16.4,1.2,32.2,17.6,38.5,14.1,5.4,27.8,1.4,35.4-10.1l7.9,2.8ZM1679.3,537.2l2.9-7.5,66,25.4,12.8-33.3-84-32.3-5.3,13.7,66.3,25.5-2.6,6.7-66-25.4-13.1,34.1,87.6,33.6,5.3-13.7-69.9-26.8Z"/>
      <path class="st0" d="M1037.8,33l-17.7,3.2,12.2,66.5,17.7-3.2-12.2-66.5ZM950.2,84.6c-1.7-9.1,2.8-15.1,10.4-16.5,7.9-1.4,14.2,2.7,15.9,11.7,1.7,9.2-2.7,15.5-10.6,17-7.6,1.4-14-3-15.7-12.2ZM1001.8,82.8l4.4,23.9,17.4-3.2-11.6-63.4-17.4,3.2,4.5,24.6-8.3,1.5c-5.4-12.4-18.1-18.7-32.8-16.1-17.3,3.2-27.5,17.3-24.4,34.3,3.2,17.3,17.8,26.9,35,23.7,14.8-2.7,24.5-13.2,25-27.1l8.2-1.4ZM989.1,160l-1.4-7.9,69.6-12.7-6.4-35.1-88.5,16.2,2.6,14.4,69.9-12.8,1.3,7.1-69.6,12.7,6.6,35.9,92.3-16.9-2.6-14.4-73.8,13.5Z"/>
      <path class="st0" d="M1880.9,99.1c-6-1.4-10.9-3.8-14.9-7.3-3.9-3.5-6.6-7.9-8-13.2s-1.3-11.3.3-18c1.6-6.7,4.1-12.1,7.7-16.3s7.9-7,13-8.4c5.1-1.4,10.6-1.4,16.6,0s10.9,3.8,14.9,7.3c3.9,3.5,6.6,7.9,8,13.3,1.4,5.3,1.3,11.3-.2,18-1.6,6.7-4.2,12.1-7.8,16.3-3.6,4.1-7.9,6.9-13,8.3-5.1,1.3-10.6,1.3-16.6,0ZM1883.9,86.1c9.5,2.2,15.6-2.9,18.5-15.3,1.5-6.4,1.4-11.4-.4-15-1.7-3.6-4.9-5.9-9.5-7-9.5-2.2-15.6,2.9-18.5,15.4-2.8,12.4.5,19.7,9.9,21.9ZM1901.5,32l-10.4-2.4.3-1.2,12-15.4,17.1,4-.3,1.2-18.7,13.8Z"/>
      <path class="st0" d="M730.2,273.3c-8-1.9-14.6-5.1-19.9-9.8-5.3-4.7-8.9-10.6-10.7-17.7-1.9-7.1-1.7-15.2.4-24.1,2.1-9,5.5-16.2,10.3-21.8s10.6-9.3,17.4-11.2c6.8-1.9,14.2-1.9,22.2,0s14.6,5.1,19.9,9.8c5.3,4.7,8.9,10.6,10.7,17.8,1.9,7.1,1.8,15.2-.3,24.2s-5.6,16.3-10.4,21.8c-4.8,5.6-10.6,9.3-17.5,11.1-6.7,1.7-14.1,1.7-22.1-.1ZM734.3,255.9c12.7,3,20.9-3.9,24.8-20.5,2-8.6,1.8-15.3-.5-20.1s-6.6-7.9-12.7-9.3c-12.7-3-21,3.9-24.8,20.6-3.9,16.5.5,26.3,13.2,29.3ZM757.9,183.4l-13.9-3.2.4-1.5,16-20.6,23,5.3-.4,1.5-25.1,18.5Z"/>
    </g>
  </g>
</svg>