<?xml version="1.0" encoding="UTF-8"?>
<svg xmlns="http://www.w3.org/2000/svg" version="1.1" viewBox="0 0 321.4 321.4">
  <defs>
    <style>
      .cls-1 {
        fill: #fff;
        opacity: .2;
      }
    </style>
  </defs>
  <!-- Generator: Adobe Illustrator 28.6.0, SVG Export Plug-In . SVG Version: 1.2.0 Build 709)  -->
  <g>
    <g id="pause">
      <path class="cls-1" d="M102.2,87.8h26.9c7.9,0,14.4,6.4,14.4,14.4v117c0,7.9-6.4,14.4-14.4,14.4h-26.9c-7.9,0-14.4-6.4-14.4-14.4v-117c0-7.9,6.4-14.4,14.4-14.4Z"/>
      <path class="cls-1" d="M192.3,87.8h26.9c7.9,0,14.4,6.4,14.4,14.4v117c0,7.9-6.4,14.4-14.4,14.4h-26.9c-7.9,0-14.4-6.4-14.4-14.4v-117c0-7.9,6.4-14.4,14.4-14.4Z"/>
    </g>
  </g>
</svg>