<?xml version="1.0" encoding="UTF-8"?>
<svg id="video" xmlns="http://www.w3.org/2000/svg" viewBox="0 0 321.38 321.38">
  <defs>
    <style>
      .cls-1 {
        fill: #fff;
        stroke-width: 0px;
      }
    </style>
  </defs>
  <path class="cls-1" d="m240.32,84.69H78.84c-8.92,0-16.15,7.23-16.15,16.15v113.04c0,8.92,7.23,16.15,16.15,16.15h161.48c8.92,0,16.15-7.23,16.15-16.15v-113.04c0-8.92-7.23-16.15-16.15-16.15ZM86.91,213.88h-16.15v-16.15h16.15v16.15Zm0-32.3h-16.15v-16.15h16.15v16.15Zm0-32.3h-16.15v-16.15h16.15v16.15Zm0-32.3h-16.15v-16.15h16.15v16.15Zm137.26,96.89H94.99v-113.04h129.19v113.04Zm24.22,0h-16.15v-16.15h16.15v16.15Zm0-32.3h-16.15v-16.15h16.15v16.15Zm0-32.3h-16.15v-16.15h16.15v16.15Zm0-32.3h-16.15v-16.15h16.15v16.15Zm-104.96,8.07v64.59l50.46-32.3-50.46-32.3Z"/>
</svg>