<?xml version="1.0" encoding="UTF-8"?>
<svg id="Layer_3" data-name="Layer 3" xmlns="http://www.w3.org/2000/svg" viewBox="0 0 185.45 186.67">
  <defs>
    <style>
      .cls-1 {
        fill: #fff;
        fill-rule: evenodd;
        stroke-width: 0px;
      }
    </style>
  </defs>
  <path class="cls-1" d="m152.86,77.03h-72.92c-5.2,6.61-7.42,13.11-7.21,19.51.22,6.47,2.89,13.1,7.46,19.83h72.16v10.46H10.91c-14.08-15.84-13.38-44.18,0-60.87l66.25.61h75.7v10.46h0Zm-4.76,25.89v-3.78h-68.28l.52,3.78h67.76Zm0,7.74v-3.78h-66.73l1.57,3.78h65.16Zm0-19.59h-67.76l-.52,3.78h68.28v-3.78h0Zm0-7.73h-65.17l-1.56,3.78h66.73v-3.78Z"/>
  <g>
    <path class="cls-1" d="m98.72,126.41l-66.15-.6c-13.38,16.69-14.06,45.03,0,60.86h141.44v-10.46h-72.16c-4.57-6.74-7.24-13.36-7.46-19.83-.2-6.41,2.01-12.9,7.21-19.51h72.92v-10.46h-75.8Zm-33.87,51.75c-6.71-13.68-7.51-27.93,0-42.98h6.24c-6.57,14.55-6.51,28.89,0,42.98h-6.24Zm15.86,0h-6.23c-6.71-13.68-7.51-27.93,0-42.98h6.23c-6.56,14.55-6.5,28.89,0,42.98Z"/>
    <polygon class="cls-1" points="169.76 143.18 104.6 143.18 103.04 146.96 169.76 146.96 169.76 143.18"/>
    <polygon class="cls-1" points="101.48 154.69 169.76 154.69 169.76 150.91 102 150.91 101.48 154.69"/>
    <polygon class="cls-1" points="169.76 170.49 169.76 166.72 103.04 166.72 104.61 170.49 169.76 170.49"/>
    <polygon class="cls-1" points="169.76 158.98 101.48 158.98 102 162.76 169.76 162.76 169.76 158.98"/>
    <path class="cls-1" d="m105,31.17c-.21,6.48-2.88,13.1-7.45,19.83H25.38v10.46h141.43c14.08-15.83,13.39-44.18,0-60.86l-66.14.61H24.89v10.45h72.91c5.2,6.61,7.42,13.11,7.2,19.51Zm29.55-21.2c7.51,15.05,6.71,29.3,0,42.98h-6.23c6.5-14.1,6.57-28.42,0-42.98h6.23Zm-15.86,0h6.23c7.51,15.05,6.72,29.3,0,42.98h-6.23c6.5-14.1,6.57-28.42,0-42.98Z"/>
    <polygon class="cls-1" points="29.63 17.97 29.63 21.76 96.35 21.76 94.79 17.97 29.63 17.97"/>
    <polygon class="cls-1" points="29.63 29.5 97.91 29.5 97.4 25.71 29.63 25.71 29.63 29.5"/>
    <polygon class="cls-1" points="29.63 45.3 94.79 45.3 96.35 41.51 29.63 41.51 29.63 45.3"/>
    <polygon class="cls-1" points="29.63 37.56 97.39 37.56 97.91 33.78 29.63 33.78 29.63 37.56"/>
  </g>
</svg>