<?xml version="1.0" encoding="UTF-8"?><svg id="Layer_2" xmlns="http://www.w3.org/2000/svg" viewBox="0 0 65.02 38.98"><defs><style>.cls-1{stroke-width:0px;}</style></defs><g id="Icons"><path class="cls-1" d="m29.95,23.7c0,8.24-5.33,15.29-14.94,15.29S0,32.2,0,23.76s5.42-15.4,15.12-15.4,14.83,6.82,14.83,15.34Zm-14.94-11.52c-6.62,0-10.07,5.53-10.07,11.64s3.42,11.41,10.18,11.41,9.87-5.42,9.87-11.46-3.14-11.58-9.98-11.58ZM58.26,3.65H7.1V0h51.16v3.65Zm6.76,20.05c0,8.24-5.33,15.29-14.94,15.29s-15-6.79-15-15.23,5.42-15.4,15.12-15.4,14.83,6.82,14.83,15.34Zm-14.94-11.52c-6.62,0-10.07,5.53-10.07,11.64s3.42,11.41,10.18,11.41,9.87-5.42,9.87-11.46-3.14-11.58-9.98-11.58Z"/></g></svg>