<?xml version="1.0" encoding="UTF-8"?><svg id="Layer_2" xmlns="http://www.w3.org/2000/svg" viewBox="0 0 61.09 41.84"><defs><style>.cls-1{stroke-width:0px;}</style></defs><g id="Icons"><path class="cls-1" d="m29.89,26.64c0,8.21-5.33,15.2-14.92,15.2S0,35.11,0,26.69s5.39-15.31,15.06-15.31,14.83,6.79,14.83,15.26ZM54.87,6.64H6.27V0h48.6v6.64ZM14.97,18.17c-4.71,0-7.19,4.05-7.19,8.58s2.45,8.36,7.27,8.36,7.02-3.99,7.02-8.41-2.25-8.53-7.1-8.53Zm46.12,8.47c0,8.21-5.33,15.2-14.92,15.2s-14.97-6.73-14.97-15.14,5.39-15.31,15.06-15.31,14.83,6.79,14.83,15.26Zm-14.92-8.47c-4.71,0-7.19,4.05-7.19,8.58s2.45,8.36,7.27,8.36,7.02-3.99,7.02-8.41-2.25-8.53-7.1-8.53Z"/></g></svg>