<?xml version="1.0" encoding="utf-8"?>
<!-- Generator: Adobe Illustrator 27.9.0, SVG Export Plug-In . SVG Version: 6.00 Build 0)  -->
<svg version="1.1" id="Layer_1" xmlns="http://www.w3.org/2000/svg" xmlns:xlink="http://www.w3.org/1999/xlink" x="0px" y="0px"
	 viewBox="0 0 100 40" style="enable-background:new 0 0 100 40;" xml:space="preserve">
<style type="text/css">
	.st0{fill:none;}
	.st1{fill:#231F20;}
</style>
<g id="Layer_1_00000127017410464487951020000014227099093595698620_">
	<g>
		<path d="M49.77,19.64c0.11,5.4-4.57,10.26-10.15,10.08c-5.62,0-9.9-4.5-9.9-10.04S34.04,9.6,39.62,9.6
			C45.01,9.45,49.95,14.28,49.77,19.64z M34.47,19.64c0,3.1,1.94,5.62,5.18,5.62c3.02,0,5.26-2.3,5.26-5.62
			c0-3.28-2.2-5.51-5.22-5.51C36.52,14.13,34.47,16.58,34.47,19.64z"/>
		<path d="M72.81,19.64c0.11,5.4-4.57,10.26-10.15,10.08c-5.62,0-9.9-4.5-9.9-10.04S57.08,9.6,62.66,9.6
			C68.05,9.45,72.99,14.28,72.81,19.64z M57.51,19.64c0,3.1,1.94,5.62,5.18,5.62c3.02,0,5.26-2.3,5.26-5.62
			c0-3.28-2.2-5.51-5.22-5.51C59.56,14.13,57.51,16.58,57.51,19.64z"/>
	</g>
	<g>
		<line class="st0" x1="30.72" y1="2.72" x2="70.72" y2="2.72"/>
		<rect x="30.72" y="1.22" class="st1" width="40" height="3"/>
	</g>
</g>
<g id="Layer_2_00000101798308022299091290000015800514096299435909_">
</g>
<g>
	<path d="M8.7,32.93L20.33,1.72h3.42L12.12,32.93H8.7z"/>
	<path d="M75.66,32.93L87.29,1.72h3.42L79.08,32.93H75.66z"/>
</g>
</svg>
