<?xml version="1.0" encoding="UTF-8"?><svg id="Layer_2" xmlns="http://www.w3.org/2000/svg" viewBox="0 0 65.02 43.41"><defs><style>.cls-1{stroke-width:0px;}</style></defs><g id="Icons"><path class="cls-1" d="m29.95,28.12c0,8.24-5.33,15.29-14.94,15.29S0,36.62,0,28.18s5.42-15.4,15.12-15.4,14.83,6.82,14.83,15.34Zm-14.94-11.52c-6.62,0-10.07,5.53-10.07,11.64s3.42,11.41,10.18,11.41,9.87-5.42,9.87-11.46-3.14-11.58-9.98-11.58ZM53.9,0l-.17.23c-.66.88-1.94,2.2-4.31,3.22-4.65,2.02-10.98,3.25-16.94,3.25s-12.26-1.23-16.88-3.25c-2.4-1.06-3.68-2.34-4.31-3.22l-.17-.23h-4.19l.34.83c.57,1.34,1.65,2.62,3.22,3.79,1.51,1.11,3.39,2.08,5.65,2.91,4.56,1.68,10.38,2.62,16.37,2.62s11.78-.94,16.34-2.62c2.28-.83,4.16-1.8,5.68-2.91,1.57-1.17,2.65-2.45,3.22-3.79l.37-.83h-4.22Zm11.12,28.12c0,8.24-5.33,15.29-14.94,15.29s-15-6.79-15-15.23,5.42-15.4,15.12-15.4,14.83,6.82,14.83,15.34Zm-14.94-11.52c-6.62,0-10.07,5.53-10.07,11.64s3.42,11.41,10.18,11.41,9.87-5.42,9.87-11.46-3.14-11.58-9.98-11.58Z"/></g></svg>