<?xml version="1.0" encoding="utf-8"?>
<!-- Generator: Adobe Illustrator 27.9.0, SVG Export Plug-In . SVG Version: 6.00 Build 0)  -->
<svg version="1.1" id="Layer_1" xmlns="http://www.w3.org/2000/svg" xmlns:xlink="http://www.w3.org/1999/xlink" x="0px" y="0px"
	 viewBox="0 0 100 40" style="enable-background:new 0 0 100 40;" xml:space="preserve">
<style type="text/css">
	.st0{fill:none;}
	.st1{fill:#231F20;}
</style>
<g id="Layer_1_00000034781192050956310850000005486019780841185448_">
	<g>
		<path d="M17.61,10.1h4.93l4.97,11.99l5.47-11.99h4.93L25.93,36.2h-4.97l3.92-8.42L17.61,10.1z"/>
		<path d="M59.77,19.64c0.11,5.4-4.57,10.26-10.15,10.08c-5.62,0-9.9-4.5-9.9-10.04S44.04,9.6,49.62,9.6
			C55.01,9.45,59.95,14.28,59.77,19.64z M44.47,19.64c0,3.1,1.94,5.62,5.18,5.62c3.02,0,5.26-2.3,5.26-5.62
			c0-3.28-2.2-5.51-5.22-5.51C46.52,14.13,44.47,16.58,44.47,19.64z"/>
		<path d="M82.81,19.64c0.11,5.4-4.57,10.26-10.15,10.08c-5.62,0-9.9-4.5-9.9-10.04S67.08,9.6,72.66,9.6
			C78.05,9.45,82.99,14.28,82.81,19.64z M67.51,19.64c0,3.1,1.94,5.62,5.18,5.62c3.02,0,5.26-2.3,5.26-5.62
			c0-3.28-2.2-5.51-5.22-5.51C69.56,14.13,67.51,16.58,67.51,19.64z"/>
	</g>
	<g>
		<line class="st0" x1="40.72" y1="2.72" x2="80.72" y2="2.72"/>
		<rect x="40.72" y="1.22" class="st1" width="40" height="3"/>
	</g>
</g>
<g id="Layer_2_00000073001901418875899230000010784785898975001017_">
</g>
<g>
	<path d="M0.59,37.45L12.21,6.24h3.42L4.01,37.45H0.59z"/>
	<path d="M84.63,37.45L96.25,6.24h3.42L88.05,37.45H84.63z"/>
</g>
</svg>
