<?xml version="1.0" encoding="UTF-8"?><svg id="Layer_2" xmlns="http://www.w3.org/2000/svg" viewBox="0 0 89.38 56.47"><defs><style>.cls-1{stroke-width:0px;}</style></defs><g id="Icons"><path class="cls-1" d="m5.05,56.47l6.53-16.48L0,12.06h8.3l7.21,18.57,7.42-18.57h8.13l-11.07,26.72-6.99,17.68h-7.96Zm53.13-29.83c0,8.21-5.33,15.2-14.92,15.2s-14.97-6.73-14.97-15.14,5.39-15.31,15.06-15.31,14.83,6.79,14.83,15.26Zm24.95-19.99h-48.6V0h48.6v6.64Zm-39.87,11.52c-4.71,0-7.19,4.05-7.19,8.58s2.45,8.36,7.27,8.36,7.02-3.99,7.02-8.41-2.25-8.53-7.1-8.53Zm46.11,8.47c0,8.21-5.33,15.2-14.92,15.2s-14.97-6.73-14.97-15.14,5.39-15.31,15.06-15.31,14.83,6.79,14.83,15.26Zm-14.92-8.47c-4.71,0-7.19,4.05-7.19,8.58s2.45,8.36,7.27,8.36,7.02-3.99,7.02-8.41-2.25-8.53-7.1-8.53Z"/></g></svg>