<?xml version="1.0" encoding="UTF-8"?><svg id="Layer_2" xmlns="http://www.w3.org/2000/svg" viewBox="0 0 95.51 55.47"><defs><style>.cls-1{stroke-width:0px;}</style></defs><g id="Icons"><path class="cls-1" d="m5.67,55.47l6.62-16.74L0,9.07h5.16l9.47,24.38,9.72-24.38h4.99l-11.41,27.61-7.44,18.79h-4.82ZM45.6,8.36c-9.7,0-15.12,6.93-15.12,15.4s5.3,15.23,15,15.23,14.94-7.04,14.94-15.29-5.02-15.34-14.83-15.34Zm9.87,15.4c0,6.05-3.17,11.46-9.87,11.46s-10.18-5.36-10.18-11.41,3.45-11.64,10.07-11.64,9.98,5.3,9.98,11.58ZM88.75,0h-51.16v3.65h51.16V0Zm-8.07,8.36c-9.7,0-15.12,6.93-15.12,15.4s5.3,15.23,15,15.23,14.94-7.04,14.94-15.29-5.02-15.34-14.83-15.34Zm9.87,15.4c0,6.05-3.17,11.46-9.87,11.46s-10.18-5.36-10.18-11.41,3.45-11.64,10.07-11.64,9.98,5.3,9.98,11.58Z"/></g></svg>