<?xml version="1.0" encoding="UTF-8"?>
<svg id="Layer_2" data-name="Layer 2" xmlns="http://www.w3.org/2000/svg" version="1.1" viewBox="0 0 184.5 80.6">
  <defs>
    <style>
      .cls-1 {
        fill: #417b3a;
        stroke-width: 0px;
      }
    </style>
  </defs>
  <g id="Layer_1-2" data-name="Layer 1-2">
    <g>
      <path class="cls-1" d="M1.9,44.4c-.3-2.1-.4-4.6-.2-7.3.2-2.7.8-5.8,1.8-9.2,2.5.5,5,1,7.5,1.5-.7,2.7-1.2,5.1-1.4,7.2-.2,2.2-.2,4.2,0,6,.5,3.4,1.9,5.9,4.3,7.7,2.4,1.8,5.3,2.9,8.8,3.5,3.5.5,7.3.6,11.3.2,4.9-.5,9.3-1.4,13.2-2.8,3.9-1.4,7.1-3,9.4-5,2.3-2,3.5-4,3.3-6.2,0-1.6-1.5-2.8-4.1-3.8-2.7-1-6.4-1.9-11.2-2.8.4-2.5.8-5.1,1.3-7.6,7,2,12.4,3.3,16.3,4,3.9.7,6.9,1,8.9.9,1.4,0,2.4.3,3,.9.7.7,1,1.5,1,2.5,0,1-.4,1.9-1.3,2.7-.9.8-2,1.3-3.5,1.3-1.2,0-2.4,0-3.6.1,0,.5.2,1,.3,1.3.1.3.2.8.2,1.3.1,3-1.2,5.9-3.9,8.8-2.7,2.9-6.7,5.4-11.8,7.5-5.2,2.1-11.4,3.5-18.8,4.3-5,.5-9.6.3-14-.6-4.4-1-8.1-2.7-11.1-5.4-3-2.7-5-6.3-5.7-11ZM41.1,77.8c-1.3.1-2.4-.2-3.4-1-1-.8-1.5-1.8-1.6-3-.1-1.2.2-2.3,1-3.3.8-1,1.9-1.6,3.1-1.7,1.2-.1,2.3.2,3.3,1.1,1,.8,1.5,1.8,1.6,3s-.2,2.3-1,3.2c-.8,1-1.8,1.5-3,1.6ZM28.7,79.1c-1.3.2-2.4-.2-3.4-.9-1-.8-1.6-1.7-1.7-2.9s.1-2.3.9-3.3c.8-1,1.8-1.6,3.1-1.7,1.2-.2,2.3.2,3.3,1,1,.8,1.5,1.8,1.7,3s-.2,2.3-1,3.2c-.8,1-1.8,1.5-3,1.7h0Z"/>
      <path class="cls-1" d="M70.4,38.1c.2-2.5.5-5,.7-7.5,3.1-.1,5.7-.4,7.6-.8,1.9-.4,3.3-1.2,4.2-2.3.8-1.1,1.3-2.8,1.2-5.1,0-2.2-.7-5.1-1.9-8.6-1.2-3.5-2.7-6.9-4.2-10.4,2.8-1,5.6-1.9,8.3-2.9.9,2,1.8,4.2,2.6,6.7.8,2.5,1.5,4.9,2,7.3.5,2.4.8,4.5.8,6.3,0,6.1-1.8,10.4-5.2,13-3.5,2.5-8.8,3.8-16.1,4.1h0ZM81.1,54.7c-1.3,0-2.5-.4-3.4-1.2-.9-.9-1.4-1.9-1.5-3.1,0-1.2.4-2.3,1.3-3.2.9-.9,2-1.4,3.4-1.4,1.3,0,2.4.4,3.3,1.3.9.9,1.4,2,1.4,3.2,0,1.2-.4,2.2-1.3,3.1-.9.9-2,1.3-3.2,1.4h0Z"/>
      <path class="cls-1" d="M96.8,58.3c-.9-2.3-1.8-4.6-2.7-6.9,6.2-1.9,11-4.1,14.6-6.6,3.6-2.5,6.2-5.2,7.8-8.1,1.6-2.9,2.5-5.7,2.6-8.5.1-3-.4-6-1.7-9.1-1.3-3.1-2.8-6.1-4.5-8.9,2.5-1,5.1-2,7.6-3,1.8,3.3,3.2,6.5,4.4,9.5,1.1,3,2,5.7,2.6,8,.8,2.6,1.9,4.5,3.3,5.5,1.4,1,3.4,1.6,6,1.8,1.4.1,2.3.5,2.9,1.3.6.8.8,1.6.7,2.6,0,1-.6,1.8-1.6,2.5-1,.7-2.2,1-3.6,1-2.5-.2-4.5-.7-6.1-1.5-1.6-.8-2.9-1.9-3.9-3.2-.8,3.3-2.4,6.3-4.6,9-2.2,2.7-4.7,5-7.5,7-2.8,2-5.6,3.6-8.5,4.9-2.9,1.3-5.4,2.2-7.8,2.8h0Z"/>
      <path class="cls-1" d="M135.1,39.4c.5-2.5,1-4.9,1.6-7.3,4.1.3,7.3.6,9.6.8,2.3.1,3.9.2,5,.3,1.1,0,1.8,0,2.2,0-1.1-.7-2.4-1.8-3.9-3.3-1.4-1.5-2.7-3.2-3.7-5.4-1-2.1-1.4-4.6-1.1-7.3.3-3.4,1.5-6.3,3.5-8.7,2.1-2.5,4.8-4.2,8.1-5.3,3.4-1.1,7.1-1.4,11.3-.9,3.3.4,6.7,1.4,10.1,2.8-.9,2.2-1.8,4.4-2.7,6.7-2.8-1.1-5.5-1.8-8.2-2.1-3.8-.5-6.9,0-9.5,1.6-2.5,1.5-3.9,3.8-4.3,6.8-.2,2,.2,3.8,1.1,5.4,1,1.6,2.2,3.1,3.8,4.4,1.6,1.2,3.2,2.2,5,3s3.3,1.2,4.8,1.4c1.1-.2,2.1-.3,3-.5.9-.1,2.1-.4,3.5-.7,1.4-.3,3.5-.8,6.2-1.5.6,2.3,1.2,4.6,1.7,7-4.6.9-9.3,1.7-14,2.4-4.7.7-9.7,1-15,1.1-5.3.1-11.4-.1-18.1-.6h0Z"/>
      <path class="cls-1" d="M1.9,44.4c-.3-2.1-.4-4.6-.2-7.3.2-2.7.8-5.8,1.8-9.2,2.5.5,5,1,7.5,1.5-.7,2.7-1.2,5.1-1.4,7.2-.2,2.2-.2,4.2,0,6,.5,3.3,1.9,5.9,4.3,7.7,2.4,1.8,5.3,2.9,8.8,3.5,3.5.5,7.2.6,11.3.2,4.9-.5,9.3-1.4,13.2-2.8,3.9-1.4,7.1-3,9.4-5,2.3-2,3.5-4,3.3-6.2,0-1.6-1.5-2.8-4.1-3.8-2.7-1-6.4-1.9-11.2-2.8.4-2.5.8-5.1,1.3-7.6,7,2,12.4,3.3,16.3,4,3.9.7,6.9,1,8.9.9,1.4,0,2.4.3,3,.9.7.7,1,1.5,1,2.5,0,1-.4,1.9-1.3,2.7-.9.8-2,1.3-3.5,1.3-1.2,0-2.4,0-3.6.1,0,.5.2,1,.3,1.3.1.3.2.8.2,1.3.1,3-1.2,5.9-3.9,8.8-2.7,2.9-6.7,5.4-11.8,7.5-5.2,2.1-11.4,3.5-18.8,4.3-5,.5-9.6.3-14-.6-4.4-1-8.1-2.8-11.1-5.4-3-2.7-5-6.3-5.7-11h0ZM41.1,77.8c-1.3.1-2.4-.2-3.4-1-1-.8-1.5-1.8-1.6-3-.1-1.2.2-2.3,1-3.3.8-1,1.9-1.6,3.2-1.7,1.2-.1,2.3.2,3.3,1.1,1,.8,1.5,1.8,1.6,3s-.2,2.3-1,3.2c-.8,1-1.8,1.5-3,1.6h0ZM28.7,79.2c-1.3.2-2.4-.2-3.4-.9-1-.8-1.6-1.7-1.7-2.9-.1-1.2.2-2.3.9-3.3.8-1,1.8-1.6,3.1-1.7,1.2-.2,2.3.2,3.3,1,1,.8,1.5,1.8,1.7,3,.1,1.2-.2,2.3-1,3.2-.8,1-1.8,1.5-3,1.7h0Z"/>
      <path class="cls-1" d="M70.4,38.1c.2-2.5.5-5,.7-7.5,3.1-.1,5.7-.4,7.6-.8,1.9-.4,3.3-1.2,4.2-2.3.8-1.1,1.3-2.8,1.2-5.1,0-2.2-.7-5.1-1.9-8.6-1.2-3.5-2.6-6.9-4.2-10.4,2.8-1,5.6-1.9,8.3-2.9.9,2,1.8,4.2,2.6,6.7.8,2.5,1.5,4.9,2,7.3.5,2.4.8,4.5.8,6.3,0,6.1-1.8,10.4-5.2,13-3.5,2.5-8.8,3.8-16.1,4.1h0ZM81.1,54.7c-1.3,0-2.5-.4-3.4-1.2-.9-.8-1.4-1.9-1.5-3.1,0-1.2.4-2.3,1.3-3.2s2-1.4,3.4-1.4c1.3,0,2.4.4,3.3,1.3.9.9,1.4,2,1.4,3.2,0,1.2-.4,2.3-1.3,3.1-.9.9-2,1.3-3.2,1.4h0Z"/>
      <path class="cls-1" d="M96.8,58.4c-.9-2.3-1.8-4.6-2.7-6.9,6.2-1.9,11-4.1,14.6-6.6,3.6-2.5,6.2-5.2,7.8-8.1,1.6-2.9,2.5-5.7,2.6-8.5.1-3-.4-6-1.7-9.1-1.3-3.1-2.8-6.1-4.5-8.9,2.5-1,5.1-2,7.6-3,1.8,3.3,3.2,6.5,4.4,9.5s2,5.7,2.6,8c.8,2.6,1.9,4.5,3.3,5.5,1.4,1,3.4,1.6,6,1.8,1.4.1,2.3.5,2.9,1.3.6.8.8,1.6.7,2.6,0,1-.6,1.8-1.6,2.5-1,.7-2.2,1-3.6,1-2.5-.2-4.5-.7-6.1-1.5-1.6-.8-2.9-1.9-3.9-3.2-.8,3.3-2.4,6.3-4.6,9-2.2,2.7-4.7,5-7.5,7-2.8,2-5.6,3.6-8.5,4.9-2.9,1.3-5.4,2.2-7.8,2.8h0Z"/>
      <path class="cls-1" d="M135.1,39.4c.5-2.5,1-4.9,1.6-7.3,4.1.3,7.3.6,9.6.8,2.3.1,3.9.2,5,.3,1.1,0,1.8,0,2.2,0-1.1-.7-2.4-1.8-3.9-3.3-1.4-1.5-2.7-3.2-3.7-5.4-1-2.1-1.4-4.6-1.1-7.3.3-3.4,1.5-6.3,3.5-8.7,2.1-2.5,4.8-4.2,8.1-5.3,3.4-1.1,7.1-1.4,11.3-.9,3.3.4,6.7,1.4,10.1,2.8-.9,2.2-1.8,4.4-2.7,6.7-2.8-1.1-5.5-1.8-8.2-2.1-3.8-.5-6.9,0-9.5,1.6-2.5,1.5-3.9,3.8-4.3,6.8-.2,2,.2,3.8,1.1,5.4,1,1.7,2.2,3.1,3.8,4.4,1.6,1.2,3.2,2.2,5,3s3.3,1.2,4.8,1.4c1.1-.2,2.1-.3,3-.5.9-.1,2.1-.4,3.5-.7,1.4-.3,3.5-.8,6.2-1.5.6,2.3,1.2,4.6,1.7,7-4.6.9-9.3,1.7-14,2.4-4.7.7-9.7,1-15,1.1-5.3.1-11.4-.1-18.1-.6h0Z"/>
    </g>
  </g>
</svg>