<?xml version="1.0" encoding="UTF-8"?>
<svg id="Layer_2" data-name="Layer 2" xmlns="http://www.w3.org/2000/svg" viewBox="0 0 150.16 95.06">
  <defs>
    <style>
      .cls-1 {
        fill: #a14a9c;
        stroke-width: 0px;
      }
    </style>
  </defs>
  <g id="Layer_1-2" data-name="Layer 1">
    <g>
      <g>
        <path class="cls-1" d="M23.37,28.25c-2.44-1.04-4.1-1-6.29-.09-3.78,1.57-5.63,5.19-4.01,9.09,1.51,3.62,5.14,5.05,8.96,3.46,2.39-.99,3.92-2.57,4.56-4.75l5.37,1.12c-1.04,3.89-3.65,6.7-7.79,8.43-3.7,1.54-7.07,1.64-10.09.33-3.02-1.31-5.13-3.46-6.37-6.45-2.71-6.06.45-13.49,7.28-16.15,4.18-1.74,8.37-1.43,11.75.75l-3.37,4.25Z"/>
        <path class="cls-1" d="M32.28,17.96l4.78-1.12.66,2.81c.53-2.47,2.05-4.07,4.11-4.55.71-.17,1.52-.14,2.4.05l-.6,5.19c-.74-.14-1.32-.18-1.74-.08-.88.21-1.47.92-1.81,2.1-.34,1.19-.14,3.35.59,6.46l2.37,10.11-5.54,1.3-5.22-22.27Z"/>
        <path class="cls-1" d="M74.27,25.11l-18.42,1.5c.82,3.22,3.39,5.04,7,4.74,2.1-.17,3.89-1.05,5.31-2.68l4.99,1.88c-2.12,3.63-5.26,5.48-9.85,5.86-6.95.57-12.54-3.86-13.12-10.9-.56-6.83,3.91-12.5,10.82-13.07,7.43-.61,12.58,4.29,13.18,11.59l.09,1.07ZM68.15,21.07c-.94-2.47-3.53-4.03-6.45-3.8-3.22.26-4.9,1.91-5.96,4.81l12.41-1.01ZM61.16.55l6.78-.55-7.01,8.87-4.08.33L61.16.55Z"/>
        <path class="cls-1" d="M103.46,26.03c-.55,6.44-6.74,11.63-13.36,10.72-6.68-.71-11.21-6.61-10.52-13.21.7-6.6,6.41-11.45,13.06-10.75,6.45.51,11.71,6.88,10.82,13.24ZM85.25,24.1c-.39,3.68,1.61,6.93,5.46,7.34,3.6.38,6.55-2.08,6.97-6.02.41-3.9-1.92-6.83-5.52-7.21-3.77-.4-6.52,2.25-6.91,5.9Z"/>
        <path class="cls-1" d="M113.87,7.98l5.6,1.4-7.67,30.77-5.6-1.4,7.67-30.77Z"/>
        <path class="cls-1" d="M141.83,41l-17.05-7.13c-.75,3.24.7,6.04,4.04,7.43,1.95.81,3.94.85,5.95.06l3.57,3.97c-3.56,2.25-7.19,2.46-11.44.68-6.44-2.69-9.37-9.2-6.64-15.71,2.64-6.32,9.22-9.32,15.62-6.64,6.88,2.88,9.2,9.59,6.38,16.35l-.42.99ZM138.25,34.6c.31-2.63-1.28-5.2-3.98-6.33-2.98-1.25-5.23-.55-7.51,1.53l11.49,4.81Z"/>
      </g>
      <g>
        <path class="cls-1" d="M0,66.01l5.17-2.37,4.63,10.1c1.25-2.66,2.87-4.49,5.03-5.47,2.08-.95,4.12-1.04,6.19-.23,1.77.66,3.24,2.21,4.33,4.6l6.3,13.75-5.17,2.37-4.18-9.13c-1.09-2.39-1.96-3.98-2.59-4.73-1.22-1.52-2.77-1.81-4.38-1.07-2.15.99-3.02,3.23-2.51,5.89.13.7.72,2.18,1.74,4.41l3.82,8.34-5.17,2.37L0,66.01Z"/>
        <path class="cls-1" d="M44.48,59.49l5.57-1.35,5.41,22.23-5.57,1.35-.57-2.35c-1.68,2.58-3.6,3.98-6.15,4.6-2.89.7-5.63.17-8.27-1.53-2.63-1.71-4.36-4.26-5.17-7.57-.83-3.43-.51-6.48.97-9.15,1.51-2.72,3.72-4.41,6.61-5.11,2.68-.65,5.27-.22,7.77,1.3l-.59-2.43ZM35.86,68.37c-.83,1.49-1.03,3.22-.58,5.11.47,1.92,1.44,3.37,2.88,4.35,1.47.93,3.04,1.21,4.76.79,1.76-.43,3.07-1.41,3.91-2.9.88-1.5,1.06-3.27.59-5.24-.94-3.85-4.17-5.86-7.69-5-1.72.42-3.03,1.4-3.86,2.89Z"/>
        <path class="cls-1" d="M60.28,49.91c.15,1.67-1.06,3.12-2.73,3.27-1.67.15-3.12-1.06-3.27-2.73s1.06-3.12,2.73-3.27c1.67-.15,3.12,1.06,3.27,2.73ZM59.69,57.19l5.75-.52,2.06,22.78-5.75.52-2.06-22.78ZM69.55,49.07c.15,1.67-1.06,3.12-2.73,3.27-1.67.15-3.12-1.06-3.27-2.73-.15-1.67,1.06-3.12,2.73-3.27,1.67-.15,3.12,1.06,3.27,2.73Z"/>
        <path class="cls-1" d="M76.14,47.78l5.73.07-.09,8.44,3.4.04-.05,4.91-3.4-.04-.2,17.96-5.73-.07.2-17.96-2.93-.03.05-4.91,2.93.03.09-8.44Z"/>
        <path class="cls-1" d="M91.22,56.75l5.75.56-2.21,22.77-5.74-.56,2.21-22.77ZM98.28,51.72c-.2,2.06-2.03,3.53-3.96,3.34-2.06-.2-3.52-2.03-3.32-4.13.2-2.02,1.94-3.49,4-3.29,2.02.2,3.48,2.03,3.28,4.08Z"/>
        <path class="cls-1" d="M123.58,75.87l-18-4.16c-.19,3.32,1.7,5.83,5.23,6.65,2.06.48,4.03.18,5.88-.94l4.19,3.31c-3.13,2.81-6.68,3.63-11.17,2.59-6.8-1.57-10.78-7.49-9.19-14.37,1.54-6.67,7.52-10.73,14.28-9.17,7.26,1.68,10.68,7.91,9.03,15.04l-.24,1.05ZM118.98,70.17c-.14-2.64-2.14-4.91-4.99-5.58-3.15-.73-5.25.33-7.14,2.77l12.13,2.8Z"/>
        <path class="cls-1" d="M133.9,65.78l5.2,2.4-.97,2.11c3.31-.9,5.37-.75,7.41.18,2.07.95,3.47,2.45,4.25,4.57.65,1.77.43,3.9-.67,6.29l-6.32,13.74-5.17-2.38,4.2-9.12c1.14-2.47,1.77-4.16,1.92-5.09.34-1.88-.45-3.24-2.06-3.98-2.15-.99-4.4-.22-6.14,2.01-.46.59-1.19,1.97-2.18,4.12l-3.84,8.33-5.2-2.4,9.57-20.78Z"/>
      </g>
    </g>
  </g>
</svg>