<?xml version="1.0" encoding="UTF-8"?>
<svg id="Layer_2" data-name="Layer 2" xmlns="http://www.w3.org/2000/svg" version="1.1" viewBox="0 0 172 81.6">
  <defs>
    <style>
      .cls-1 {
        fill: #067c82;
        stroke-width: 0px;
      }
    </style>
  </defs>
  <g id="Layer_1-2" data-name="Layer 1-2">
    <g>
      <path class="cls-1" d="M31.7,30.3c-4.6,1.7-9.1,3.5-13.6,5.4-.8-1.8-1.6-3.6-2.4-5.5-1.7.7-3.4,1.5-5,2.2.8,1.8,1.6,3.6,2.4,5.4C8.7,39.9,4.3,42,0,44.2c.6,1.1,1.1,2.1,1.6,3.2,10.2-5.2,20.6-9.8,31.3-13.8-.4-1.1-.8-2.2-1.2-3.4h0ZM14.2,54.4c-1.5-3,.7-6.5,5.4-8.6,4.7-2.1,8.8-1.3,10.1,1.8,1.3,3.2-1.1,6.5-5.5,8.4-4.5,2-8.4,1.5-9.9-1.6h0ZM34.1,45.8c-1.9-5.1-8.5-6.5-15.9-3.2-7.5,3.3-10.8,9.1-8.4,13.9,2.5,4.9,8.8,5.7,15.7,2.7,6.9-3,10.6-8.2,8.6-13.4ZM24.3,63.4c-1.5.7-2.9,1.3-4.4,2,2,4.2,4,8.4,6,12.7,10.1-4.8,20.4-8.9,31-12.2-.4-1.2-.7-2.3-1.1-3.5-9.2,2.9-18.3,6.4-27.2,10.4-1.4-3.2-2.9-6.3-4.3-9.4h0ZM44.9,36.4c-1.7-5.1-3.3-10.2-5-15.3-1.7.6-3.5,1.2-5.2,1.8,4,11.5,8,23.1,12.1,34.6,1.5-.5,3-1,4.5-1.5-1.8-5.3-3.5-10.7-5.2-16,2.6-.9,5.2-1.7,7.9-2.5-.3-1.2-.7-2.4-1.1-3.6-2.7.8-5.3,1.6-8,2.5Z"/>
      <path class="cls-1" d="M111.3,27.7c.1-1.2.2-2.4.4-3.6-2.6-.3-5.2-.5-7.8-.7,1.8-5.7,2.1-10.1,2.4-13.8,0-1.2.2-2.4.3-3.5-13.2-1-26.6-1.1-39.8-.2,0,1.2.2,2.4.2,3.6,11.3-.7,22.7-.8,34-.1-.2,3.7-.5,7.9-2.3,13.8-12.4-.6-24.9-.4-37.3.7.1,1.2.2,2.4.3,3.6,7.4-.6,14.8-1,22.2-1,0,3,0,6,0,9-5.5,0-11,.2-16.4.6,0,1.2.2,2.4.2,3.6,10.6-.7,21.2-.8,31.7-.2-.2,4.3-.5,8.6-.7,12.9,1.5,0,3,.2,4.5.3.4-5.5.8-11,1.2-16.4-5.2-.4-10.5-.6-15.7-.7,0-3,0-6,.1-8.9,7.5.1,14.9.5,22.4,1.3h0Z"/>
      <path class="cls-1" d="M172,36.4c-1.6-.8-3.3-1.6-4.9-2.5-5.2,10.7-10.5,21.4-15.7,32.1,1.4.7,2.9,1.4,4.3,2.2,5.4-10.6,10.9-21.2,16.3-31.8h0ZM128.1,34.5c1.5-4.5,6.6-6.4,12-4.4,5.4,2.1,8.1,6.9,6.2,11.2-1.9,4.5-6.9,6-12,4.1-4.9-1.9-7.7-6.4-6.2-11h0ZM150.9,43.4c2.9-6.4-1.2-13.7-9.5-16.9-8.2-3.1-16-.3-18.1,6.4-2.1,6.8,2.1,13.3,9.6,16.2,7.5,2.8,15.1.8,18-5.7h0ZM126.3,64.4c1.4-3.8,2.8-7.5,4.2-11.3-1.5-.6-3-1.1-4.6-1.7-1.8,4.9-3.5,9.9-5.2,14.8,10.6,3.7,20.9,8.2,30.9,13.4.6-1.1,1.1-2.2,1.7-3.2-8.8-4.6-17.8-8.6-27-12h0Z"/>
    </g>
  </g>
</svg>