<?xml version="1.0" encoding="UTF-8"?>
<svg id="Layer_2" data-name="Layer 2" xmlns="http://www.w3.org/2000/svg" viewBox="0 0 191.14 93.09">
  <defs>
    <style>
      .cls-1 {
        fill: #ed1d24;
        stroke-width: 0px;
      }
    </style>
  </defs>
  <g id="Layer_1-2" data-name="Layer 1">
    <g>
      <path class="cls-1" d="M46.13,59.68c.69,1.78,1.38,3.57,2.06,5.35-8.91,3.44-17.74,7.11-26.48,11.01-.78-1.74-1.56-3.49-2.34-5.23,8.83-3.94,17.74-7.65,26.75-11.12ZM25.51,84.53c-.8-1.8-1.61-3.6-2.41-5.4,8.68-3.88,17.46-7.52,26.31-10.94.71,1.84,1.42,3.68,2.13,5.51-8.76,3.38-17.44,6.99-26.03,10.83ZM23.84,91.32c1.3-.59,2.61-1.18,3.91-1.77-.27-.6-.54-1.21-.81-1.82,8.53-3.81,17.16-7.4,25.87-10.76.21.55.42,1.09.63,1.64,1.37-.53,2.74-1.05,4.12-1.57-2.8-7.43-5.59-14.85-8.39-22.28-11.92,4.49-23.69,9.38-35.3,14.68,3.32,7.29,6.65,14.58,9.97,21.88ZM20.31,46.28c2.47-1.05,4.95-2.08,7.43-3.09,1.44,3.52,2.87,7.04,4.31,10.56-2.44.99-4.87,2.01-7.29,3.03-1.49-3.5-2.97-7-4.46-10.5ZM36.09,52.12c-1.41-3.53-2.82-7.06-4.23-10.59,5.18-2.07,10.38-4.06,15.62-5.98-.42-1.13-.83-2.27-1.25-3.4-3.93,1.44-7.84,2.92-11.74,4.45.69-2.09,1.24-4.56,1.68-6.86-1.63.12-3.26.26-4.9.4-.17,2.39-.83,5.79-1.58,8.36-5.7,2.29-11.37,4.66-17,7.13.69-.71,1.38-1.41,2.08-2.11-1.48-1.33-4.11-2.87-6.73-3.69-1.04.99-2.08,1.99-3.12,2.99,2.2.81,4.64,2.35,6.02,3.59-3.66,1.62-7.3,3.27-10.93,4.96.51,1.1,1.02,2.19,1.53,3.29,4.87-2.27,9.77-4.48,14.69-6.61,1.51,3.49,3.02,6.98,4.54,10.47-5.9,2.56-11.75,5.21-17.56,7.96.52,1.09,1.04,2.18,1.55,3.28,16.6-7.87,33.56-14.92,50.8-21.13-.41-1.14-.82-2.28-1.23-3.41-6.11,2.2-12.19,4.51-18.23,6.92ZM5,55.35c3.06,1.49,6.36,3.92,7.93,5.9,1.04-1.03,2.09-2.05,3.14-3.07-1.74-1.92-4.97-4.26-8.11-5.66-.99.94-1.97,1.88-2.96,2.83ZM42.7,48.9c.81-2.75,1.61-6.81,2.14-10.44-1.45.08-2.9.17-4.36.27-.15,3-.82,7.52-1.57,10.39,1.26-.08,2.53-.15,3.79-.22Z"/>
      <path class="cls-1" d="M101.34,15.83c-.02,1.72-.04,3.43-.05,5.15-3.45-.04-6.9-.04-10.35-.02-.01-1.72-.03-3.43-.04-5.15,3.48-.03,6.96-.02,10.44.02ZM116.41,16.18c-.06,1.71-.12,3.43-.19,5.14-3.59-.13-7.19-.23-10.78-.29.03-1.72.06-3.43.09-5.15,3.63.06,7.25.16,10.88.3ZM105.29,29.57c.03-1.77.06-3.55.09-5.32,3.57.06,7.15.16,10.72.29-.06,1.77-.13,3.55-.19,5.32-3.54-.13-7.08-.23-10.62-.29ZM91.01,29.5c-.01-1.77-.03-3.55-.04-5.32,3.43-.03,6.86-.02,10.29.02-.02,1.77-.04,3.55-.06,5.32-3.4-.04-6.8-.04-10.19-.01ZM91.03,32.83c3.38-.03,6.76-.02,10.13.01-.03,3.18-.07,6.36-.1,9.54,1.33.01,2.66.03,3.99.06.06-3.18.11-6.36.17-9.53,3.52.06,7.04.16,10.56.29-.06,1.77-.13,3.55-.19,5.32-.03.76-.28.98-1.06.96-.72-.03-3.24-.05-6.06-.23.52,1.06.96,2.54,1.11,3.66,3.99.11,6.5.14,8.07-.44,1.57-.58,2.1-1.55,2.19-3.71.38-8.57.76-17.14,1.14-25.71-2.74-.12-5.49-.22-8.23-.31-1.23-.74-2.85-1.61-4.6-2.4,4.71-2.12,9.65-4.99,13.24-7.93-.93-.73-1.86-1.45-2.8-2.17-.32.06-.65.13-.97.2C107.18.03,96.73-.09,86.28.07c.02,1.15.03,2.3.05,3.45,8.94-.13,17.88-.07,26.82.2-2.67,1.68-5.95,3.47-9.08,4.77-3.08-1.27-6.38-2.53-9.18-3.46-.98.82-1.95,1.64-2.91,2.46,3.87,1.32,8.42,3.22,12.23,5.03-5.93-.09-11.86-.09-17.8,0,.15,10.04.31,20.08.46,30.12,1.41-.02,2.82-.04,4.23-.05-.02-3.26-.05-6.51-.07-9.77ZM81.76,9.93c-2.33-2.58-7.35-6.53-11.26-9.23-1.08.86-2.15,1.73-3.22,2.6,3.99,2.86,8.89,6.96,11.16,9.58,1.1-.99,2.21-1.97,3.33-2.95ZM79.94,19.86c-4.39.12-8.77.29-13.16.5.07,1.36.14,2.73.2,4.09,2.87-.14,5.75-.26,8.62-.36.19,5.49.38,10.99.57,16.48-2.54,1.14-5.42,3.9-8.27,7.2.98,1.14,1.96,2.29,2.93,3.43,2.76-4.04,5.57-7.49,7.59-7.54,1.37-.04,3.51,1.83,5.84,3.19,4.19,2.44,9.06,3.07,16.24,3.13,6.29.03,16.54.02,20.61,0,.17-1.22.92-3.12,1.45-4.2-6.08.27-14.97.51-21.9.46-6.58-.06-11.54-.47-15.57-2.8-2.11-1.19-3.39-2.27-4.6-2.88-.18-6.9-.37-13.8-.55-20.7Z"/>
      <path class="cls-1" d="M153.7,38.01c-.86-2.88-3.2-7.74-5.26-11.28-1.29.4-2.58.82-3.86,1.23,2,3.69,4.21,8.66,4.95,11.54,1.39-.5,2.78-.99,4.18-1.48ZM138.13,67c3.26-7.43,6.52-14.85,9.78-22.28-3.97-1.74-7.96-3.44-11.96-5.09-.53,1.28-1.06,2.56-1.58,3.84,2.64,1.09,5.27,2.2,7.89,3.32-2.67,6.22-5.35,12.43-8.02,18.65-1.09,2.52-3.77,3.66-5.13,3.98.49.96.95,3.07.99,4.17,1.37-.72,3.27-1.4,15.67-4.26-.15-.97-.24-2.81-.09-4.02-2.52.55-5.04,1.11-7.54,1.7ZM166.7,85.59c-5.82-2.99-11.69-5.88-17.61-8.66,1.62-3.44,3.23-6.88,4.85-10.32,6.04,2.84,12.04,5.79,17.98,8.84-1.74,3.38-3.48,6.76-5.22,10.14ZM185.57,67.15c.65-1.22,1.3-2.44,1.95-3.67-4.83-2.58-9.7-5.08-14.6-7.52,1.66-3.34,3.32-6.67,4.97-10.01,4.82,1.48,9.38,2.84,13.25,3.62-.44-1.55-.89-3.11-1.34-4.66-7.48-1.47-19.92-5.54-30.29-9.12.06,1.12.04,2.85-.2,3.83,4.45,1.58,9.22,3.24,14.03,4.87-1.53,3.14-3.06,6.28-4.58,9.41-4.75-2.31-9.53-4.56-14.33-6.74-.57,1.26-1.14,2.52-1.72,3.78,4.77,2.16,9.52,4.39,14.23,6.69-1.42,2.91-2.83,5.82-4.25,8.73-3.7-1.8-7.42-3.56-11.16-5.28-3.02,6.57-6.05,13.14-9.07,19.72,1.32.6,2.63,1.22,3.94,1.83.33-.71.66-1.41,1-2.12,5.88,2.76,11.7,5.63,17.48,8.6-.32.62-.64,1.25-.96,1.87,1.34.69,2.68,1.39,4.02,2.09,3.33-6.34,6.65-12.67,9.98-19.01-3.7-1.94-7.42-3.85-11.17-5.71,1.44-2.9,2.88-5.8,4.32-8.69,4.86,2.42,9.7,4.91,14.5,7.46Z"/>
    </g>
  </g>
</svg>