<?xml version="1.0" encoding="UTF-8"?>
<svg id="Layer_2" data-name="Layer 2" xmlns="http://www.w3.org/2000/svg" viewBox="0 0 170.72 50.66">
  <defs>
    <style>
      .cls-1 {
        fill: #c73e83;
        stroke-width: 0px;
      }
    </style>
  </defs>
  <g id="Layer_1-2" data-name="Layer 1">
    <g>
      <path class="cls-1" d="M23.32,30.47l-16.05,9.01c2.08,2.57,5.16,3.15,8.31,1.39,1.83-1.03,3.08-2.57,3.7-4.63l5.3-.37c-.42,4.17-2.48,7.15-6.49,9.4-6.06,3.4-12.96,1.71-16.4-4.42C-1.65,34.89.04,27.89,6.06,24.51c6.47-3.63,13.17-1.34,16.74,5.02l.52.94ZM16.11,29.35c-1.87-1.85-4.87-2.19-7.41-.76-2.81,1.57-3.64,3.77-3.4,6.83l10.81-6.07Z"/>
      <path class="cls-1" d="M36.14,19.62c-1.79-.9-3.27-1.13-4.37-.77-1.26.42-1.77,1.22-1.51,1.99.2.61.53.91,2.55,1.14l2.33.36c4.88.69,6.79,2.22,7.75,5.11,1.47,4.44-1.42,7.98-5.54,9.34-3.14,1.04-6.07.66-8.8-1.19l2.12-4.77c1.8,1.07,4.05,1.46,5.36,1.03,1.47-.49,2.12-1.65,1.84-2.51s-1.33-1.41-3.19-1.7l-2.13-.29c-4.08-.59-6.58-2.25-7.46-4.9-1.28-3.87,1.37-7.32,4.99-8.53,2.81-.93,5.79-.52,8.32,1.22l-2.27,4.46Z"/>
      <path class="cls-1" d="M50.3,9.26l.37,2.46c1.73-2.34,3.95-3.72,6.66-4.14,2.93-.44,5.6.28,7.97,2.22,2.41,1.89,3.86,4.58,4.39,8.06.93,6.15-2.53,12.49-8.94,13.46-2.59.39-4.89-.17-7.41-1.91l1.61,10.6-5.64.86-4.67-30.75,5.64-.86ZM51.74,20.49c.56,3.69,3.31,6.4,7.22,5.8,3.78-.57,5.63-4.07,5.09-7.63-.55-3.61-3.34-6.26-7.11-5.69-3.56.54-5.79,3.61-5.19,7.51Z"/>
      <path class="cls-1" d="M92.51,6.88l5.7.21-.83,22.77-5.7-.21.09-2.4c-2.31,2.02-4.53,2.84-7.14,2.74-2.96-.11-5.45-1.36-7.51-3.71-2.06-2.35-3.03-5.26-2.9-8.65.13-3.52,1.26-6.35,3.4-8.5,2.18-2.2,4.75-3.22,7.71-3.11,2.74.1,5.11,1.22,7.09,3.35l.09-2.49ZM81.85,13.05c-1.2,1.2-1.86,2.81-1.93,4.74-.07,1.97.47,3.62,1.58,4.95,1.15,1.29,2.59,1.98,4.35,2.05,1.8.07,3.32-.52,4.53-1.72,1.25-1.2,1.91-2.85,1.98-4.87.14-3.94-2.41-6.74-6.02-6.88-1.76-.06-3.28.52-4.49,1.72Z"/>
      <path class="cls-1" d="M106.73,8.26l5.57,1.25-.51,2.26c3.03-1.56,5.08-1.85,7.25-1.37,2.22.5,3.89,1.66,5.1,3.56,1.01,1.59,1.24,3.71.67,6.26l-3.29,14.7-5.53-1.24,2.18-9.76c.59-2.64.86-4.42.8-5.36-.06-1.9-1.12-3.06-2.83-3.45-2.3-.51-4.33.7-5.56,3.24-.33.67-.75,2.16-1.26,4.47l-2,8.92-5.57-1.25,4.98-22.23ZM109.67,1.01c2.02-.96,3.92-1.23,5.73-.83.67.15,1.75.61,3.28,1.44,1.06.55,1.91.91,2.53,1.05,1.13.25,2.42.19,3.79-.25l1.42,3.66c-2.04,1.08-3.89,1.46-5.48,1.1-.88-.2-1.84-.63-2.97-1.28-.9-.51-1.49-.82-1.73-.92-.37-.13-.78-.26-1.28-.37-1.21-.27-2.47-.16-3.84.28l-1.46-3.89Z"/>
      <path class="cls-1" d="M150.9,35.04c-2.52,5.92-9.99,8.91-15.96,5.99-6.1-2.75-8.56-9.73-5.85-15.76,2.71-6.03,9.62-8.84,15.69-6.11,5.94,2.48,8.94,10.14,6.12,15.88ZM134.27,27.55c-1.51,3.36-.63,7.05,2.89,8.64,3.29,1.48,6.84.07,8.46-3.53,1.6-3.56.31-7.06-2.98-8.54-3.44-1.55-6.87.11-8.37,3.43Z"/>
      <path class="cls-1" d="M165.95,21.25l4.77,3.21-17.62,26.2-4.77-3.21,17.62-26.2Z"/>
    </g>
  </g>
</svg>