<?xml version="1.0" encoding="UTF-8"?>
<svg id="Layer_2" data-name="Layer 2" xmlns="http://www.w3.org/2000/svg" version="1.1" viewBox="0 0 132.9 67.5">
  <defs>
    <style>
      .cls-1 {
        fill: #d74326;
        stroke-width: 0px;
      }
    </style>
  </defs>
  <g id="Layer_1-2" data-name="Layer 1-2">
    <g>
      <path class="cls-1" d="M2.2,7.9c4.2-.7,8.4-1.3,12.6-1.8.2,1.2.3,2.4.5,3.7-1.4.2-2.8.4-4.1.5.7,5.2,1.4,10.5,2.2,15.7-1.4.2-2.8.4-4.2.6-.8-5.2-1.5-10.5-2.3-15.7-1.3.2-2.7.4-4,.6-.2-1.2-.4-2.4-.6-3.6h0Z"/>
      <path class="cls-1" d="M31.1,9.5c1.4-.1,2.8-.2,4.2-.3.4,4.8.7,9.6,1.1,14.4-1.4.1-2.7.2-4,.3,0-.5,0-1-.1-1.5-1.5,1.5-3,2.2-4.8,2.4-2.1.2-4-.3-5.6-1.6-1.7-1.3-2.7-3-2.9-5.1-.3-2.2.3-4.1,1.6-5.7,1.4-1.6,3.2-2.5,5.3-2.7,2-.2,3.9.3,5.5,1.5,0-.5,0-1-.1-1.6ZM27,12.9c-1.3.1-2.3.6-3.1,1.5-.8.9-1.1,2-.9,3.2.1,1.2.7,2.2,1.6,2.9.9.7,2,1,3.3.9,1.3-.1,2.3-.6,3.1-1.5.8-.9,1.1-2,1-3.2-.2-2.5-2.3-4-4.9-3.8h0Z"/>
      <path class="cls-1" d="M52.8,8.2c1.4,0,2.8,0,4.2-.1,0,4.1.2,8.3.3,12.4,0,2.5-.5,4.3-1.5,5.4-1.4,1.6-3.6,2.5-6.5,2.6-4.6.2-7.3-1.2-8.6-4.1,1.5-.1,3-.2,4.5-.3.8.8,2.1,1.1,3.8,1,1.1,0,2-.2,2.6-.6.7-.3,1.1-.7,1.4-1.2.3-.5.4-1.3.3-2.5-1.4,1.3-2.9,1.9-4.8,2-2.2.1-4.1-.5-5.6-1.8-1.6-1.3-2.5-3-2.6-5.2-.1-2.3.5-4.2,2.1-5.7,1.4-1.3,3.1-2.1,5.2-2.2,1.9,0,3.6.4,5.4,1.8,0-.5,0-1,0-1.6h0ZM48.5,11.4c-1.3,0-2.4.5-3.2,1.3-.8.8-1.2,1.8-1.1,2.9,0,1.2.5,2.2,1.5,2.9.9.7,2,1.1,3.3,1,1.3,0,2.3-.5,3.1-1.2.8-.8,1.2-1.8,1.2-3,0-2.4-2-4-4.7-3.9h0Z"/>
      <path class="cls-1" d="M74.4,8c1.4,0,2.8,0,4.2.1-.2,4.8-.3,9.6-.4,14.5-1.3,0-2.7,0-4.1-.1,0-.5,0-1,0-1.5-1.6,1.3-3.2,1.9-5,1.8-2.1,0-3.9-.7-5.4-2.2-1.5-1.4-2.3-3.2-2.4-5.4,0-2.2.7-4.1,2.2-5.5,1.5-1.5,3.4-2.2,5.6-2.2,2,0,3.8.7,5.3,2,0-.5,0-1,0-1.6h0ZM70,11c-1.3,0-2.4.4-3.2,1.2-.8.8-1.3,1.8-1.3,3.1s.4,2.3,1.3,3.1c.9.8,1.9,1.2,3.2,1.2,1.3,0,2.4-.4,3.2-1.1.9-.8,1.3-1.8,1.4-3.1,0-2.5-1.8-4.3-4.5-4.3Z"/>
      <path class="cls-1" d="M83.5,2.7c1.4,0,2.9.1,4.3.2-.3,6.7-.7,13.3-1.1,20-1.4,0-2.7-.1-4.1-.2.3-6.7.6-13.4.8-20Z"/>
      <path class="cls-1" d="M100,9c4.8.3,8.7,4.4,8.1,8.4-.4,4.1-4.7,7.3-9.4,6.8-2.3-.2-4.2-1.1-5.8-2.6-1.5-1.6-2.2-3.4-2.1-5.5.1-2.3,1.2-4.1,3.2-5.5,1.8-1.2,3.8-1.7,5.9-1.5h0ZM99.7,12.4c-1.3-.1-2.4.2-3.3.9-.9.7-1.4,1.7-1.5,2.9,0,1.3.3,2.3,1,3.2.8.9,1.8,1.3,3.1,1.4,2.6.2,4.6-1.3,4.9-3.8.2-2.5-1.5-4.3-4.1-4.5Z"/>
      <path class="cls-1" d="M125.4,12.3c1.4.2,2.8.4,4.2.6-.7,4.1-1.3,8.2-1.9,12.2-.4,2.4-1.2,4.1-2.5,5.1-1.7,1.3-4,1.8-6.9,1.4-4.5-.6-6.9-2.5-7.7-5.6,1.5.2,3,.4,4.4.5.7.9,1.9,1.5,3.6,1.7,1.1.1,2,.1,2.7-.1.7-.2,1.2-.5,1.6-.9.3-.4.6-1.2.8-2.4-1.6,1-3.2,1.4-5.1,1.1-2.2-.3-3.9-1.2-5.2-2.8-1.3-1.6-1.9-3.4-1.7-5.5.3-2.3,1.3-4.1,3.1-5.2,1.6-1.1,3.5-1.5,5.5-1.2,1.9.2,3.5,1.1,5,2.7,0-.5.2-1,.2-1.6h0ZM120.6,14.7c-1.3-.2-2.4,0-3.4.7-.9.6-1.5,1.5-1.6,2.7-.2,1.2.2,2.2.9,3.1.8.9,1.8,1.4,3.1,1.6,1.2.2,2.3,0,3.3-.7.9-.6,1.5-1.5,1.7-2.8.3-2.4-1.3-4.3-3.9-4.7h0Z"/>
      <path class="cls-1" d="M63.4,31.3c2.5,0,4.9,0,7.4,0,0,1.1,0,2.2,0,3.4-2.4,0-4.9,0-7.3,0,0-1.1,0-2.2,0-3.4h0Z"/>
      <path class="cls-1" d="M18.2,41.5c3.4-.5,6.9-.8,10.4-1.2.1,1.2.2,2.4.4,3.6-2.1.2-4.2.5-6.4.7.1,1.2.3,2.3.4,3.5,2.1-.2,4.2-.5,6.3-.7.1,1.2.2,2.4.4,3.6-2.1.2-4.2.4-6.2.7.4,2.9.7,5.8,1,8.7-1.2.2-2.5.3-3.7.5-.8-6.5-1.7-12.9-2.5-19.4Z"/>
      <path class="cls-1" d="M33.9,38.9c1.4-.1,2.6.8,2.7,2.2.1,1.3-.9,2.4-2.2,2.5-1.4.1-2.6-.8-2.7-2.2-.1-1.3.9-2.4,2.3-2.5ZM32.5,45c1.3-.1,2.6-.2,3.9-.3.4,4.8.8,9.6,1.2,14.4-1.2,0-2.5.2-3.7.3-.4-4.8-.9-9.6-1.3-14.4h0Z"/>
      <path class="cls-1" d="M39.7,38.8c1.3,0,2.6-.2,3.9-.3.4,6.7.8,13.3,1.2,20-1.2,0-2.5.2-3.7.2-.5-6.7-1-13.3-1.4-20Z"/>
      <path class="cls-1" d="M49.4,37.9c1.4,0,2.5,1,2.6,2.3s-1,2.4-2.3,2.4c-1.4,0-2.5-.9-2.6-2.3,0-1.3,1-2.4,2.4-2.4ZM47.8,43.9c1.3,0,2.6-.1,3.9-.2.2,4.8.4,9.6.6,14.4-1.2,0-2.5,0-3.7.2-.2-4.8-.5-9.6-.7-14.4h0Z"/>
      <path class="cls-1" d="M59.7,43.5c0,.5,0,1,0,1.6,1.3-1.3,3-2,4.8-2s3.7.7,5.1,2.2c1.4,1.4,2,3.3,2,5.5,0,2.2-.8,4-2.2,5.4-1.4,1.4-3,2.2-5,2.2-1.7,0-3.1-.5-4.6-1.8,0,2.3,0,4.5.1,6.8-1.2,0-2.4,0-3.6,0l-.6-19.7c1.3,0,2.6,0,3.8,0ZM63.7,46.4c-2.4,0-4.2,1.8-4.1,4.3,0,1.3.4,2.3,1.2,3.1.8.8,1.8,1.2,3,1.2,1.2,0,2.1-.4,2.8-1.2.8-.8,1.2-1.8,1.2-3.1,0-1.2-.4-2.3-1.2-3s-1.8-1.2-3-1.2h0Z"/>
      <path class="cls-1" d="M77.3,37.7c1.4,0,2.4,1.1,2.4,2.4,0,1.3-1.2,2.3-2.5,2.3-1.4,0-2.5-1.1-2.4-2.5,0-1.3,1.1-2.3,2.5-2.2h0ZM75.2,43.6c1.3,0,2.6,0,3.9.1-.2,4.8-.3,9.6-.5,14.5-1.2,0-2.5,0-3.7-.1.1-4.8.2-9.6.4-14.5Z"/>
      <path class="cls-1" d="M83.2,43.8c1.3,0,2.6.1,3.8.2,0,.5,0,1,0,1.5,1.8-1.3,3.2-1.7,4.7-1.6,1.5.1,2.8.7,3.7,1.8.8.9,1.2,2.2,1,3.9-.3,3.2-.5,6.3-.8,9.5-1.2,0-2.4-.2-3.7-.3.2-2.1.3-4.2.5-6.3.1-1.7.1-2.9,0-3.4-.2-1.2-1.1-1.8-2.2-1.9-1.6,0-2.8.9-3.3,2.6-.1.5-.2,1.4-.3,2.9l-.3,5.8c-1.2,0-2.5-.1-3.7-.2.2-4.8.4-9.6.7-14.4h0Z"/>
      <path class="cls-1" d="M108.4,45.5c4.3.4,7.8,4.5,7.1,8.5-.5,4-4.6,7.2-8.8,6.6-2.1-.2-3.8-1.2-5.2-2.8-1.3-1.6-1.9-3.5-1.7-5.6.2-2.2,1.2-4.1,3.1-5.4,1.7-1.2,3.5-1.6,5.5-1.4h0ZM108.1,48.9c-1.2-.1-2.2.1-3.1.8-.8.7-1.3,1.6-1.5,2.9-.1,1.3.2,2.3.8,3.2.7.9,1.6,1.3,2.7,1.5,2.3.3,4.3-1.2,4.6-3.7.3-2.5-1.2-4.3-3.6-4.6h0Z"/>
    </g>
  </g>
</svg>