<?xml version="1.0" encoding="UTF-8"?>
<svg id="Layer_2" data-name="Layer 2" xmlns="http://www.w3.org/2000/svg" version="1.1" viewBox="0 0 144.7 125.2">
  <defs>
    <style>
      .cls-1 {
        fill: #2e3192;
        stroke-width: 0px;
      }
    </style>
  </defs>
  <g id="Layer_1-2" data-name="Layer 1-2">
    <g>
      <g>
        <path class="cls-1" d="M14.7,80.3l7.5-1.1,13.4,25.6,5.8-28.4,7.4-1.1-8.2,39.9-7,1-18.9-36.1h0Z"/>
        <path class="cls-1" d="M64.8,78.3c0,2.6-2,4.7-4.4,4.7-2.6,0-4.7-2-4.7-4.6,0-2.5,1.8-4.6,4.4-4.7,2.5,0,4.6,2,4.7,4.5h0ZM56.9,85.6l7.2-.2.8,28.4-7.2.2-.8-28.4Z"/>
        <path class="cls-1" d="M99.6,103.5l-22.9-1.8c.4,4.1,3.2,6.8,7.7,7.2,2.6.2,5-.5,7-2.2l5.8,3.3c-3.3,4-7.5,5.7-13.2,5.3-8.6-.7-14.6-7.2-13.9-15.9.7-8.5,7.2-14.6,15.8-13.9,9.2.7,14.6,7.7,13.9,16.8v1.3c0,0,0,0,0,0ZM75.7,80.1l8.4-6.8,5.7.4,7.2,8-7.7-.6-2.6-3.6-3.1,3.2-7.8-.6h0ZM92.9,97.3c-.7-3.2-3.5-5.6-7.2-5.9-4-.3-6.4,1.4-8.2,4.7l15.4,1.2Z"/>
        <path class="cls-1" d="M111.5,78.8l7,1.4-2,10.3,4.1.8-1.2,6-4.1-.8-4.3,21.9-7-1.4,4.3-21.9-3.6-.7,1.2-6,3.6.7,2-10.3Z"/>
      </g>
      <ellipse class="cls-1" cx="82.9" cy="121.2" rx="3.1" ry="2.8" transform="translate(-47.3 189.2) rotate(-83.2)"/>
      <g>
        <g>
          <path class="cls-1" d="M.8,23.3l20.5-5.5,1.9,7-6.8,1.8,8.1,30.1-7.1,1.9-8.1-30.1-6.6,1.8-1.9-7h0Z"/>
          <path class="cls-1" d="M35.7,18.2c.5,2.5-1.2,4.9-3.6,5.3-2.5.5-4.9-1.2-5.4-3.8-.5-2.5,1.1-4.8,3.7-5.3,2.5-.4,4.8,1.2,5.3,3.8ZM29,26.5l7-1.3,5,27.9-7,1.3-5-27.9Z"/>
          <path class="cls-1" d="M73.9,37.9l-22.9,1.6c1,4,4.1,6.3,8.6,6,2.6-.2,4.8-1.2,6.6-3.3l6.2,2.4c-2.7,4.5-6.6,6.7-12.3,7.1-8.6.6-15.5-5-16.1-13.7-.6-8.5,5-15.5,13.6-16.1,9.2-.7,15.5,5.5,16.2,14.5v1.3c0,0,.1,0,.1,0ZM46.8,18.3l7.3-8,5.7-.4,8.2,6.9-7.7.6-3.1-3.2-2.6,3.6-7.8.6h0ZM66.4,32.8c-1.1-3.1-4.3-5-8-4.8-4,.3-6.1,2.3-7.5,5.9l15.4-1.1h0Z"/>
          <path class="cls-1" d="M81.4,21.9l7.1.5-.2,2.9c3.5-2.5,5.9-3.2,8.7-3,2.8.2,5.1,1.4,6.9,3.5,1.5,1.8,2.2,4.4,1.9,7.6l-1.4,18.7-7-.5.9-12.4c.3-3.4.3-5.6,0-6.8-.4-2.3-1.9-3.6-4.1-3.7-2.9-.2-5.2,1.6-6.3,5-.3.9-.5,2.8-.8,5.7l-.9,11.3-7.1-.5,2.2-28.3h0Z"/>
          <path class="cls-1" d="M136.7,30.1l6.9,1.6-5.6,23.6c-1.1,4.7-2.9,7.9-5.3,9.6-3.2,2.4-7.4,3-12.5,1.7-7.9-1.9-11.7-6.1-12.2-12.2l7.6,1.8c.9,1.9,2.9,3.2,5.8,3.9,1.9.5,3.4.5,4.7.2,3.3-.8,4-3.1,4.8-6.2-3,1.9-5.8,2.2-9.2,1.4-7.9-1.9-11.7-9.6-9.9-17.3,1.1-4.4,3.2-7.6,6.6-9.6,3-1.8,6.2-2.3,9.6-1.5,3.1.7,5.6,2.5,7.8,5.8l.7-3h0ZM118.8,40c-1.1,4.5,1.2,8.6,5.8,9.7,4.5,1.1,8.2-1.6,9.3-6,1.1-4.6-1.3-8.5-5.7-9.5-4.5-1.1-8.3,1.5-9.4,5.9h0Z"/>
        </g>
        <polygon class="cls-1" points="71.3 2.3 78.2 2.3 70.4 10.7 66.2 10.7 71.3 2.3"/>
      </g>
    </g>
  </g>
</svg>