<?xml version="1.0" encoding="iso-8859-1"?>
<!-- Generator: Adobe Illustrator 28.0.0, SVG Export Plug-In . SVG Version: 6.00 Build 0)  -->
<svg version="1.1" xmlns="http://www.w3.org/2000/svg" xmlns:xlink="http://www.w3.org/1999/xlink" x="0px" y="0px"
	 viewBox="0 0 321.38 321.38" style="enable-background:new 0 0 321.38 321.38;" xml:space="preserve">
<g id="baseRing" style="display:none;">
	<g style="display:inline;">
		<circle style="fill:none;stroke:#434343;stroke-width:25;stroke-linejoin:round;" cx="160.69" cy="160.69" r="148.19"/>
	</g>
</g>
<g id="love" style="display:none;">
	<g style="display:inline;">
		<path d="M227.84,85c-39.01-18.61-67.02,25.19-67.15,25.4c-0.14-0.21-28.14-44.01-67.15-25.4c-39.11,18.65-33.04,63.31-25.35,80.56
			c10.63,23.84,58.18,70.8,80.66,92.21c6.65,6.33,17.04,6.33,23.69,0c22.48-21.41,70.03-68.37,80.66-92.21
			c7.69-17.25,13.76-61.91-25.35-80.56H227.84z"/>
	</g>
</g>
<g id="bookOpen" style="display:none;">
	<path style="display:inline;fill:#1E2832;" d="M259.808,95.245h-8.882v-8.882c0-5.285-3.331-8.882-8.882-8.882l0,0H210.96
		c-17.763,0-33.128,3.464-48.849,17.763c-15.72-14.299-31.086-17.763-48.849-17.763H82.177l0,0c-5.551,0-8.882,3.597-8.882,8.882
		v8.882h-8.882c-4.885,0-8.882,3.952-8.882,8.882v124.342c0,4.929,3.997,8.882,8.882,8.882h84.375c0,4.929,3.997,8.882,8.882,8.882
		h8.882c4.885,0,8.882-3.952,8.882-8.882h84.375c4.885,0,8.882-3.952,8.882-8.882V104.126
		C268.69,99.197,264.693,95.245,259.808,95.245z M64.414,219.587V104.126h8.882v97.697c0,5.285,3.331,8.882,8.882,8.882h31.086
		c8.882,0,19.229,1.066,29.975,8.882H64.414z M157.67,219.587c-15.72-14.299-26.645-17.763-44.408-17.763H82.177V86.363l0,0
		c0,0,13.322,0,31.086,0c26.645,0,34.594,8.837,44.408,17.763V219.587z M166.552,219.587V104.126
		c9.814-8.926,17.763-17.763,44.408-17.763h31.086v115.461H210.96C193.197,201.824,182.272,205.288,166.552,219.587z
		 M259.808,219.587h-78.824c10.702-7.816,21.094-8.882,29.975-8.882h31.086c5.551,0,8.882-3.597,8.882-8.882v-97.697h8.882V219.587z
		"/>
</g>
<g id="computer" style="display:none;">
	<path style="display:inline;fill:#1E2832;" d="M141.69,111.19v49.5l10.44-17.415l15.975,27.81l9.585-5.895l-15.48-27h19.98
		L141.69,111.19z M249.69,88.69c0-9.945-8.055-18-18-18h-144c-9.945,0-18,8.055-18,18v117h180V88.69z M231.69,183.19
		c0,2.475-2.025,4.5-4.5,4.5h-135c-2.475,0-4.5-2.025-4.5-4.5v-90c0-2.475,2.025-4.5,4.5-4.5h135c2.475,0,4.5,2.025,4.5,4.5V183.19z
		 M177.69,214.69v4.5c0,2.475-2.025,4.5-4.5,4.5h-27c-2.475,0-4.5-2.025-4.5-4.5v-4.5h-90v9c0,4.995,4.05,9,9,9h198
		c4.95,0,9-4.005,9-9v-9H177.69z M245.19,229.315c-3.105,0-5.625-2.52-5.625-5.625s2.52-5.625,5.625-5.625s5.625,2.52,5.625,5.625
		S248.295,229.315,245.19,229.315z"/>
</g>
<g id="video" style="display:none;">
	<path style="display:inline;fill:#1E2832;" d="M240.32,84.69H78.838c-8.922,0-16.148,7.226-16.148,16.148v113.037
		c0,8.922,7.226,16.148,16.148,16.148H240.32c8.922,0,16.148-7.226,16.148-16.148V100.838
		C256.468,91.916,249.242,84.69,240.32,84.69z M86.912,213.875H70.764v-16.148h16.148V213.875z M86.912,181.579H70.764v-16.148
		h16.148V181.579z M86.912,149.283H70.764v-16.148h16.148V149.283z M86.912,116.986H70.764v-16.148h16.148V116.986z
		 M224.172,213.875H94.986V100.838h129.185V213.875z M248.394,213.875h-16.148v-16.148h16.148V213.875z M248.394,181.579h-16.148
		v-16.148h16.148V181.579z M248.394,149.283h-16.148v-16.148h16.148V149.283z M248.394,116.986h-16.148v-16.148h16.148V116.986z
		 M143.431,125.06v64.593l50.463-32.296L143.431,125.06z"/>
</g>
<g id="headphones" style="display:none;">
	<path style="display:inline;" d="M60.565,234.148v-53.25c-5.591,7.721-8.875,16.818-8.875,26.625
		C51.69,217.33,54.974,226.427,60.565,234.148z M255.815,180.898v53.25c5.591-7.721,8.875-16.818,8.875-26.625
		C264.69,197.716,261.406,188.62,255.815,180.898z M238.065,243.023c4.926,0,8.875-3.949,8.875-8.875v-79.875
		c0-48.99-39.76-88.75-88.75-88.75s-88.75,39.76-88.75,88.75v79.875c0,4.926,3.949,8.875,8.875,8.875h8.875
		c9.807,0,17.75-7.943,17.75-17.75v-35.5c0-9.807-7.943-17.75-17.75-17.75v-22.188c0-35.5,31.062-67.672,71-67.672
		s71,32.172,71,67.672v22.188c-9.807,0-17.75,7.943-17.75,17.75v35.5c0,9.541,7.588,17.306,17.04,17.661v0.089H238.065z"/>
</g>
<g id="mic" style="display:none;">
	<path style="display:inline;fill:#1E2832;" d="M205.064,72.69c-11.828,0-22.704,4.177-31.223,11.083l69.767,69.767
		c6.906-8.519,11.083-19.396,11.083-31.223C254.69,94.898,232.482,72.69,205.064,72.69L205.064,72.69z M155.437,122.317
		c0,3.557,0.414,7.03,1.117,10.339l38.13,38.13c3.35,0.703,6.782,1.117,10.339,1.117c11.828,0,22.704-4.177,31.223-11.083
		l-69.767-69.767c-6.906,8.519-11.083,19.396-11.083,31.223L155.437,122.317z M72.726,236.044l18.61,18.61l92.636-79.94
		l-31.347-31.347l-79.94,92.636L72.726,236.044z"/>
</g>
<g id="pause" style="display:none;">
	<g style="display:inline;">
		<path d="M102.18,87.79h26.86c7.95,0,14.4,6.45,14.4,14.4V219.2c0,7.95-6.45,14.4-14.4,14.4h-26.86c-7.95,0-14.4-6.45-14.4-14.4
			V102.19C87.78,94.24,94.23,87.79,102.18,87.79z"/>
		<path d="M192.33,87.79h26.86c7.95,0,14.4,6.45,14.4,14.4V219.2c0,7.95-6.45,14.4-14.4,14.4h-26.86c-7.95,0-14.4-6.45-14.4-14.4
			V102.19C177.93,94.24,184.38,87.79,192.33,87.79z"/>
	</g>
</g>
<g id="play" style="display:none;">
	<path style="display:inline;" d="M232.38,172.16l-100.59,59.33c-8.75,5.16-19.68-1.29-19.68-11.61V101.22
		c0-10.32,10.94-16.77,19.68-11.61l100.59,59.33C241.13,154.1,241.13,167,232.38,172.16L232.38,172.16z"/>
</g>
<g id="stop" style="display:none;">
	<path style="display:inline;" d="M108.14,87.79h105.1c11.239,0,20.35,9.111,20.35,20.35v105.1c0,11.239-9.111,20.35-20.35,20.35
		h-105.1c-11.239,0-20.35-9.111-20.35-20.35v-105.1C87.79,96.901,96.901,87.79,108.14,87.79z"/>
</g>
<g id="record" style="display:none;">
	<circle style="display:inline;" cx="160.69" cy="161.023" r="83"/>
</g>
<g id="muted" style="display:none;">
	<path style="display:inline;" d="M169.66,248.37L169.66,248.37c-2.03,0-3.99-0.71-5.55-2l-54.89-45.5v-80.42l54.89-45.43
		c1.56-1.29,3.52-2,5.55-2l0,0c4.81,0,8.7,3.9,8.7,8.7v157.95C178.36,244.48,174.46,248.37,169.66,248.37L169.66,248.37z"/>
	<path style="display:inline;" d="M94.38,120.48H68.27c-10.53,0-19.06,8.54-19.06,19.06v42.29c0,10.53,8.53,19.06,19.06,19.06h26.12
		v-80.41L94.38,120.48z"/>
	
		<line style="display:inline;fill:none;stroke:#000000;stroke-width:20;stroke-linecap:round;stroke-linejoin:round;" x1="201.55" y1="133.25" x2="256.33" y2="188.04"/>
	
		<line style="display:inline;fill:none;stroke:#000000;stroke-width:20;stroke-linecap:round;stroke-linejoin:round;" x1="256.33" y1="133.25" x2="201.55" y2="188.04"/>
</g>
<g id="unmuted" style="display:none;">
	<path style="display:inline;fill:none;stroke:#000000;stroke-width:20;stroke-linecap:round;stroke-linejoin:round;" d="
		M232.15,91.72c21.06,16.8,34.26,41.48,34.26,68.83s-13.4,52.22-34.67,69.11"/>
	<path style="display:inline;fill:none;stroke:#000000;stroke-width:20;stroke-linecap:round;stroke-linejoin:round;" d="
		M210.08,118.89c13.3,9.91,21.67,24.87,21.67,41.67s-8.67,32.12-22.17,42.03"/>
	<path style="display:inline;" d="M169.66,248.37L169.66,248.37c-2.03,0-3.99-0.71-5.55-2l-54.89-45.5v-80.42l54.89-45.43
		c1.56-1.29,3.52-2,5.55-2l0,0c4.81,0,8.7,3.9,8.7,8.7v157.95C178.36,244.48,174.46,248.37,169.66,248.37L169.66,248.37z"/>
	<path style="display:inline;" d="M94.38,120.49H68.27c-10.53,0-19.06,8.54-19.06,19.06v42.29c0,10.53,8.53,19.06,19.06,19.06h26.12
		v-80.41L94.38,120.49z"/>
</g>
<g id="end" style="display:none;">
	<path style="display:inline;" d="M256.38,172.16l-100.59,59.33c-8.75,5.16-19.68-1.29-19.68-11.61V101.22
		c0-10.32,10.94-16.77,19.68-11.61l100.59,59.33C265.13,154.1,265.13,167,256.38,172.16L256.38,172.16z"/>
	<path style="display:inline;" d="M83.78,87.79h15.03c6.683,0,12.1,5.417,12.1,12.1v121.6c0,6.683-5.417,12.1-12.1,12.1H83.78
		c-6.683,0-12.1-5.417-12.1-12.1V99.89C71.68,93.207,77.097,87.79,83.78,87.79z"/>
</g>
<g id="forward" style="display:none;">
	<g style="display:inline;">
		<path d="M261.327,168.416c6.032-3.573,6.014-12.313-0.034-15.86l-96.06-56.386c-6.138-3.607-13.878,0.84-13.863,7.96l0.06,28.05
			l-61.066-35.85c-6.138-3.607-13.878,0.84-13.863,7.96l0.241,113.17c0.015,7.13,7.765,11.534,13.897,7.901l60.913-36.11l0.06,28.05
			c0.015,7.13,7.765,11.534,13.897,7.901l95.819-56.794L261.327,168.416z"/>
	</g>
</g>
<g id="back" style="display:none;">
	<path style="display:inline;" d="M60.07,168.62l95.94,56.59c6.14,3.62,13.88-0.8,13.88-7.93v-28.05l60.99,35.98
		c6.14,3.62,13.88-0.8,13.88-7.93V104.11c0-7.12-7.75-11.55-13.88-7.93l-60.99,35.98v-28.05c0-7.12-7.75-11.55-13.88-7.93
		l-95.94,56.59c-6.04,3.56-6.04,12.3,0,15.86V168.62z"/>
</g>
<g id="rewind" style="display:none;">
	<g style="display:inline;">
		<path d="M65,172.16c-8.75-5.16-8.75-18.06,0-23.22l100.59-59.33c8.74-5.16,19.68,1.29,19.68,11.61v118.66
			c0,10.32-10.93,16.77-19.68,11.61L65,172.16L65,172.16z"/>
		<path d="M249.7,99.89v121.6c0,6.683-5.417,12.1-12.1,12.1h-15.03c-6.683,0-12.1-5.417-12.1-12.1V99.89
			c0-6.683,5.417-12.1,12.1-12.1h15.03C244.283,87.79,249.7,93.207,249.7,99.89z"/>
	</g>
</g>
<g id="captions" style="display:none;">
	<g style="display:inline;">
		<path d="M131.652,135.032c-10.528-11.176-22.352-16.845-35.472-16.845c-22.352,0-39.521,17.169-39.521,39.521
			c0,23.162,16.683,40.007,39.845,40.007c12.958,0,22.353-4.211,35.148-16.684l15.063,15.55
			c-15.387,15.063-28.831,22.352-50.535,22.352c-36.12,0-61.711-24.943-61.711-61.225c0-11.662,2.592-22.028,7.937-30.937
			C53.582,107.82,74.8,96.806,96.504,96.806c19.275,0,37.902,8.422,50.697,23.324L131.652,135.032z"/>
		<path d="M257.988,135.032c-10.528-11.176-22.352-16.845-35.472-16.845c-22.353,0-39.521,17.169-39.521,39.521
			c0,23.162,16.684,40.007,39.846,40.007c12.957,0,22.352-4.211,35.147-16.684l15.063,15.55
			c-15.388,15.063-28.831,22.352-50.535,22.352c-36.12,0-61.711-24.943-61.711-61.225c0-11.662,2.591-22.028,7.937-30.937
			c11.176-18.951,32.395-29.965,54.099-29.965c19.274,0,37.901,8.422,50.697,23.324L257.988,135.032z"/>
	</g>
</g>
<g id="Layer_19" style="display:none;">
</g>
<g id="Layer_20" style="display:none;">
	<path style="display:inline;" d="M258.734,102.023c0,13.739,0.521,37.497-14.802,55.947
		c-53.198,64.053-83.198,159.053-83.198,159.053s-25-96-81.002-156.499c-18.057-19.507-17.267-45.87-16.998-58.501
		c1.151-54.112,43.876-98,98-98S258.734,47.899,258.734,102.023z"/>
</g>
<g id="replay">
	<path style="fill:#FFFFFF;" d="M283.69,54.023h-112v112l40.295-40.295c0.299,0.463,0.597,0.926,0.923,1.377
		c7.897,10.899,12.324,24.158,12.324,37.884c0,39.882-36.33,71.411-77.626,63.257c-18.726-3.703-35.104-16.133-43.947-33.06
		c-12.324-23.574-8.773-49.951,5.42-68.911c6.916-9.24,7.768-21.646,0.981-30.992l-7.617-10.479
		c-4.018-5.514-11.997-6.367-17.02-1.752c-35.723,32.884-48.059,87.614-22.371,135.345c15.84,29.45,44.987,50.489,77.941,56.178
		h-0.012c69.997,12.067,130.965-41.762,130.965-109.575c0-26.735-9.74-52.426-26.822-72.412L283.69,54.023z"/>
</g>
</svg>
