<svg xmlns="http://www.w3.org/2000/svg" xmlns:xlink="http://www.w3.org/1999/xlink" width="899" zoomAndPan="magnify" viewBox="0 0 674.25 422.99999" height="564" preserveAspectRatio="xMidYMid meet" version="1.0"><defs><g/><clipPath id="2b29508cd7"><path d="M 329 0.234375 L 345 0.234375 L 345 137 L 329 137 Z M 329 0.234375 " clip-rule="nonzero"/></clipPath><clipPath id="be02b60f23"><path d="M 536 329 L 673.5 329 L 673.5 344 L 536 344 Z M 536 329 " clip-rule="nonzero"/></clipPath><clipPath id="7c0ca25c19"><path d="M 232.476562 228 L 281 228 L 281 255.878906 L 232.476562 255.878906 Z M 232.476562 228 " clip-rule="nonzero"/></clipPath><clipPath id="510b0deed3"><path d="M 382.851562 228 L 431.550781 228 L 431.550781 255.878906 L 382.851562 255.878906 Z M 382.851562 228 " clip-rule="nonzero"/></clipPath><clipPath id="24870b43ac"><path d="M 307.664062 228 L 356 228 L 356 255.878906 L 307.664062 255.878906 Z M 307.664062 228 " clip-rule="nonzero"/></clipPath></defs><path fill="#f9b233" d="M 336.75 187.386719 C 251.542969 187.386719 182.46875 256.367188 182.46875 341.464844 L 491.035156 341.464844 C 491.035156 256.367188 421.960938 187.386719 336.75 187.386719 " fill-opacity="1" fill-rule="nonzero"/><path fill="#f9b233" d="M 478.308594 195.292969 C 479.734375 196.710938 481.597656 197.421875 483.460938 197.421875 C 485.324219 197.421875 487.183594 196.710938 488.605469 195.292969 L 532.363281 151.59375 C 535.203125 148.757812 535.203125 144.152344 532.363281 141.3125 C 529.515625 138.472656 524.90625 138.472656 522.066406 141.3125 L 478.308594 185.007812 C 475.46875 187.851562 475.46875 192.453125 478.308594 195.292969 " fill-opacity="1" fill-rule="nonzero"/><path fill="#f9b233" d="M 388.566406 143.546875 C 389.199219 143.714844 389.832031 143.796875 390.453125 143.796875 C 393.667969 143.796875 396.609375 141.652344 397.480469 138.40625 L 413.496094 78.714844 C 414.539062 74.832031 412.234375 70.847656 408.351562 69.808594 C 404.460938 68.769531 400.472656 71.074219 399.433594 74.949219 L 383.417969 134.640625 C 382.375 138.519531 384.679688 142.507812 388.566406 143.546875 " fill-opacity="1" fill-rule="nonzero"/><path fill="#f9b233" d="M 276.019531 138.40625 C 276.894531 141.652344 279.835938 143.796875 283.046875 143.796875 C 283.671875 143.796875 284.308594 143.714844 284.9375 143.546875 C 288.820312 142.507812 291.125 138.519531 290.082031 134.640625 L 274.070312 74.949219 C 273.027344 71.074219 269.035156 68.765625 265.15625 69.808594 C 261.269531 70.847656 258.964844 74.832031 260.003906 78.714844 L 276.019531 138.40625 " fill-opacity="1" fill-rule="nonzero"/><path fill="#f9b233" d="M 184.894531 195.292969 C 186.316406 196.710938 188.183594 197.421875 190.042969 197.421875 C 191.90625 197.421875 193.769531 196.710938 195.191406 195.292969 C 198.035156 192.453125 198.035156 187.851562 195.191406 185.007812 L 151.4375 141.3125 C 148.59375 138.472656 143.984375 138.472656 141.140625 141.3125 C 138.296875 144.152344 138.296875 148.757812 141.140625 151.59375 L 184.894531 195.292969 " fill-opacity="1" fill-rule="nonzero"/><path fill="#f9b233" d="M 138.230469 276.011719 L 78.460938 260.019531 C 74.574219 258.984375 70.585938 261.28125 69.542969 265.160156 C 68.503906 269.039062 70.808594 273.027344 74.691406 274.0625 L 134.460938 290.058594 C 135.09375 290.226562 135.726562 290.308594 136.347656 290.308594 C 139.5625 290.308594 142.507812 288.167969 143.375 284.917969 C 144.417969 281.039062 142.113281 277.054688 138.230469 276.011719 " fill-opacity="1" fill-rule="nonzero"/><path fill="#f9b233" d="M 539.039062 290.058594 L 598.8125 274.0625 C 602.695312 273.027344 605 269.039062 603.957031 265.160156 C 602.917969 261.28125 598.925781 258.980469 595.042969 260.019531 L 535.273438 276.011719 C 531.390625 277.054688 529.085938 281.039062 530.125 284.917969 C 530.996094 288.167969 533.9375 290.308594 537.152344 290.308594 C 537.777344 290.308594 538.410156 290.226562 539.039062 290.058594 " fill-opacity="1" fill-rule="nonzero"/><path fill="#f9b233" d="M 436.847656 163.519531 C 437.996094 164.179688 439.246094 164.496094 440.480469 164.496094 C 440.796875 164.496094 441.109375 164.472656 441.417969 164.433594 C 443.59375 164.152344 445.613281 162.898438 446.792969 160.859375 L 507.792969 55.34375 C 509.804688 51.863281 508.613281 47.417969 505.128906 45.410156 C 501.644531 43.402344 497.195312 44.597656 495.183594 48.070312 L 465.125 100.070312 L 434.183594 153.585938 C 432.171875 157.066406 433.363281 161.511719 436.847656 163.519531 " fill-opacity="1" fill-rule="nonzero"/><g clip-path="url(#2b29508cd7)"><path fill="#f9b233" d="M 336.75 136.734375 C 340.769531 136.734375 344.03125 133.476562 344.03125 129.460938 L 344.03125 7.621094 C 344.03125 3.609375 340.769531 0.351562 336.75 0.351562 C 332.730469 0.351562 329.472656 3.609375 329.472656 7.621094 L 329.472656 129.460938 C 329.472656 133.476562 332.730469 136.734375 336.75 136.734375 " fill-opacity="1" fill-rule="nonzero"/></g><path fill="#f9b233" d="M 226.710938 160.859375 C 228.058594 163.191406 230.503906 164.496094 233.019531 164.496094 C 234.253906 164.496094 235.507812 164.179688 236.652344 163.519531 C 240.132812 161.511719 241.328125 157.066406 239.316406 153.585938 L 178.316406 48.070312 C 176.308594 44.597656 171.855469 43.402344 168.375 45.410156 C 164.890625 47.417969 163.699219 51.863281 165.707031 55.34375 L 226.710938 160.859375 " fill-opacity="1" fill-rule="nonzero"/><path fill="#f9b233" d="M 160.714844 226.769531 L 55.054688 165.851562 C 51.574219 163.839844 47.125 165.035156 45.109375 168.507812 C 43.101562 171.988281 44.292969 176.433594 47.777344 178.441406 L 153.429688 239.359375 C 154.578125 240.019531 155.828125 240.335938 157.066406 240.335938 C 159.578125 240.335938 162.027344 239.03125 163.375 236.699219 C 165.386719 233.222656 164.191406 228.777344 160.714844 226.769531 " fill-opacity="1" fill-rule="nonzero"/><path fill="#f9b233" d="M 129.277344 329.394531 L 7.273438 329.394531 C 3.253906 329.394531 -0.00390625 332.648438 -0.00390625 336.664062 C -0.00390625 340.679688 3.253906 343.933594 7.273438 343.933594 L 129.277344 343.933594 C 133.296875 343.933594 136.554688 340.679688 136.554688 336.664062 C 136.554688 332.648438 133.296875 329.394531 129.277344 329.394531 " fill-opacity="1" fill-rule="nonzero"/><g clip-path="url(#be02b60f23)"><path fill="#f9b233" d="M 666.226562 329.394531 L 544.226562 329.394531 C 540.203125 329.394531 536.945312 332.648438 536.945312 336.664062 C 536.945312 340.679688 540.203125 343.933594 544.226562 343.933594 L 666.226562 343.933594 C 670.246094 343.933594 673.507812 340.679688 673.507812 336.664062 C 673.507812 332.648438 670.246094 329.394531 666.226562 329.394531 " fill-opacity="1" fill-rule="nonzero"/></g><path fill="#f9b233" d="M 628.386719 168.507812 C 626.378906 165.03125 621.929688 163.839844 618.445312 165.851562 L 512.789062 226.769531 C 509.304688 228.777344 508.113281 233.222656 510.125 236.699219 C 511.472656 239.03125 513.917969 240.335938 516.4375 240.335938 C 517.671875 240.335938 518.921875 240.019531 520.070312 239.359375 L 625.726562 178.441406 C 629.207031 176.433594 630.402344 171.988281 628.386719 168.507812 " fill-opacity="1" fill-rule="nonzero"/><g fill="#000000" fill-opacity="1"><g transform="translate(225.404443, 336.593621)"><g><path d="M 53.28125 -61.96875 L 42.03125 -50.84375 C 37.601562 -55.269531 33.488281 -57.484375 29.6875 -57.484375 C 27.613281 -57.484375 26.007812 -57.054688 24.875 -56.203125 C 23.75 -55.347656 23.1875 -54.285156 23.1875 -53.015625 C 23.1875 -52.023438 23.546875 -51.117188 24.265625 -50.296875 C 24.992188 -49.484375 26.800781 -48.398438 29.6875 -47.046875 L 36.34375 -43.65625 C 43.300781 -40.226562 48.066406 -36.726562 50.640625 -33.15625 C 53.222656 -29.582031 54.515625 -25.398438 54.515625 -20.609375 C 54.515625 -15.722656 53.316406 -11.609375 50.921875 -8.265625 C 48.523438 -4.921875 45.359375 -2.390625 41.421875 -0.671875 C 37.492188 1.035156 33.222656 1.890625 28.609375 1.890625 C 18.117188 1.890625 9.710938 -2.21875 3.390625 -10.4375 L 14.515625 -22.640625 C 16.679688 -20.109375 19.1875 -18.070312 22.03125 -16.53125 C 24.882812 -15 27.394531 -14.234375 29.5625 -14.234375 C 32 -14.234375 33.941406 -14.820312 35.390625 -16 C 36.835938 -17.175781 37.5625 -18.488281 37.5625 -19.9375 C 37.5625 -22.738281 34.9375 -25.492188 29.6875 -28.203125 L 23.59375 -31.1875 C 11.9375 -37.0625 6.109375 -44.425781 6.109375 -53.28125 C 6.109375 -57.625 7.210938 -61.332031 9.421875 -64.40625 C 11.640625 -67.476562 14.554688 -69.828125 18.171875 -71.453125 C 21.785156 -73.085938 25.582031 -73.90625 29.5625 -73.90625 C 34.257812 -73.90625 38.664062 -72.882812 42.78125 -70.84375 C 46.894531 -68.8125 50.394531 -65.851562 53.28125 -61.96875 Z M 53.28125 -61.96875 "/></g></g></g><g fill="#000000" fill-opacity="1"><g transform="translate(285.062884, 336.593621)"><g><path d="M 73.078125 -72 L 73.078125 0 L 55.046875 0 L 55.046875 -7.328125 C 50.890625 -3.890625 47.160156 -1.492188 43.859375 -0.140625 C 40.566406 1.210938 37.15625 1.890625 33.625 1.890625 C 26.488281 1.890625 20.429688 -0.59375 15.453125 -5.5625 C 11.203125 -9.8125 9.078125 -16.09375 9.078125 -24.40625 L 9.078125 -72 L 26.984375 -72 L 26.984375 -40.40625 C 26.984375 -31.90625 27.390625 -26.210938 28.203125 -23.328125 C 28.921875 -20.429688 30.253906 -18.257812 32.203125 -16.8125 C 34.148438 -15.363281 36.523438 -14.640625 39.328125 -14.640625 C 43.023438 -14.640625 46.1875 -15.859375 48.8125 -18.296875 C 51.4375 -20.742188 53.242188 -24.132812 54.234375 -28.46875 C 54.773438 -30.820312 55.046875 -35.707031 55.046875 -43.125 L 55.046875 -72 Z M 73.078125 -72 "/></g></g></g><g fill="#000000" fill-opacity="1"><g transform="translate(366.415309, 336.593621)"><g><path d="M 9.078125 0 L 9.078125 -72 L 27.125 -72 L 27.125 -64.671875 C 31.28125 -68.109375 35.003906 -70.503906 38.296875 -71.859375 C 41.597656 -73.222656 45.015625 -73.90625 48.546875 -73.90625 C 55.679688 -73.90625 61.738281 -71.414062 66.71875 -66.4375 C 70.957031 -62.1875 73.078125 -55.90625 73.078125 -47.59375 L 73.078125 0 L 55.1875 0 L 55.1875 -31.59375 C 55.1875 -40.175781 54.78125 -45.867188 53.96875 -48.671875 C 53.238281 -51.566406 51.898438 -53.738281 49.953125 -55.1875 C 48.015625 -56.632812 45.644531 -57.359375 42.84375 -57.359375 C 39.132812 -57.359375 35.96875 -56.132812 33.34375 -53.6875 C 30.726562 -51.25 28.925781 -47.863281 27.9375 -43.53125 C 27.394531 -41.269531 27.125 -36.382812 27.125 -28.875 L 27.125 0 Z M 9.078125 0 "/></g></g></g><g clip-path="url(#7c0ca25c19)"><path fill="#a13cad" d="M 269.417969 253.269531 L 268.125 254.859375 C 262.949219 250.648438 257.449219 249.539062 251.78125 251.550781 C 247.511719 253.074219 244.773438 255.851562 244.746094 255.878906 L 243.28125 254.453125 C 243.40625 254.328125 246.394531 251.3125 251.097656 249.636719 C 255.480469 248.0625 262.226562 247.429688 269.417969 253.269531 Z M 248.089844 239.929688 C 241.535156 242.398438 237.613281 246.90625 237.449219 247.101562 L 239.570312 248.921875 C 239.609375 248.882812 243.261719 244.699219 249.179688 242.503906 C 257.003906 239.59375 264.964844 241.347656 272.847656 247.71875 L 274.601562 245.546875 C 263.710938 236.75 254.171875 237.636719 248.089844 239.929688 Z M 247.144531 230.175781 C 238.394531 232.855469 232.773438 238.195312 232.542969 238.417969 L 235.125 241.097656 C 235.175781 241.046875 240.332031 236.152344 248.234375 233.734375 C 258.75 230.511719 268.859375 233.097656 278.265625 241.421875 L 280.730469 238.636719 C 267.722656 227.128906 255.289062 227.679688 247.144531 230.175781 Z M 247.144531 230.175781 " fill-opacity="1" fill-rule="nonzero"/></g><g clip-path="url(#510b0deed3)"><path fill="#a13cad" d="M 419.792969 253.269531 L 418.503906 254.859375 C 413.328125 250.648438 407.824219 249.539062 402.15625 251.550781 C 397.886719 253.074219 395.148438 255.851562 395.121094 255.878906 L 393.65625 254.453125 C 393.78125 254.328125 396.769531 251.3125 401.472656 249.636719 C 405.859375 248.0625 412.605469 247.429688 419.792969 253.269531 Z M 398.464844 239.929688 C 391.910156 242.398438 387.988281 246.90625 387.824219 247.101562 L 389.945312 248.921875 C 389.984375 248.882812 393.636719 244.699219 399.554688 242.503906 C 407.378906 239.59375 415.339844 241.347656 423.226562 247.71875 L 424.980469 245.546875 C 414.089844 236.75 404.546875 237.636719 398.464844 239.929688 Z M 397.519531 230.175781 C 388.769531 232.855469 383.152344 238.195312 382.917969 238.417969 L 385.503906 241.097656 C 385.550781 241.046875 390.707031 236.152344 398.609375 233.734375 C 409.125 230.511719 419.234375 233.097656 428.640625 241.421875 L 431.109375 238.636719 C 418.097656 227.128906 405.664062 227.679688 397.519531 230.175781 Z M 397.519531 230.175781 " fill-opacity="1" fill-rule="nonzero"/></g><g clip-path="url(#24870b43ac)"><path fill="#a13cad" d="M 344.605469 253.269531 L 343.3125 254.859375 C 338.136719 250.648438 332.636719 249.539062 326.96875 251.550781 C 322.699219 253.074219 319.960938 255.851562 319.933594 255.878906 L 318.46875 254.453125 C 318.59375 254.328125 321.582031 251.3125 326.285156 249.636719 C 330.667969 248.0625 337.414062 247.429688 344.605469 253.269531 Z M 323.277344 239.929688 C 316.722656 242.398438 312.800781 246.90625 312.636719 247.101562 L 314.757812 248.921875 C 314.796875 248.882812 318.449219 244.699219 324.367188 242.503906 C 332.191406 239.59375 340.152344 241.347656 348.035156 247.71875 L 349.789062 245.546875 C 338.898438 236.75 329.359375 237.636719 323.277344 239.929688 Z M 322.332031 230.175781 C 313.582031 232.855469 307.964844 238.195312 307.730469 238.417969 L 310.316406 241.097656 C 310.363281 241.046875 315.519531 236.152344 323.421875 233.734375 C 333.9375 230.511719 344.046875 233.097656 353.453125 241.421875 L 355.921875 238.636719 C 342.910156 227.128906 330.476562 227.679688 322.332031 230.175781 Z M 322.332031 230.175781 " fill-opacity="1" fill-rule="nonzero"/></g></svg>