<?xml version="1.0" encoding="UTF-8"?>
<svg id="Layer_2" data-name="Layer 2" xmlns="http://www.w3.org/2000/svg" xmlns:xlink="http://www.w3.org/1999/xlink" viewBox="0 0 360.24 284.17">
  <defs>
    <style>
      .cls-1 {
        fill: #c9e4e9;
        stroke: #fff;
        stroke-width: 2.37px;
      }

      .cls-1, .cls-2, .cls-3, .cls-4, .cls-5, .cls-6, .cls-7, .cls-8 {
        stroke-miterlimit: 10;
      }

      .cls-9 {
        fill: #b3b3b3;
      }

      .cls-9, .cls-10, .cls-11, .cls-12, .cls-13, .cls-14, .cls-15, .cls-16, .cls-17, .cls-18, .cls-19, .cls-20, .cls-21, .cls-22, .cls-23, .cls-24, .cls-25, .cls-26, .cls-27, .cls-28, .cls-29 {
        stroke-width: 0px;
      }

      .cls-10 {
        fill: #d75c47;
      }

      .cls-2 {
        stroke: #ccc;
        stroke-width: 5.79px;
      }

      .cls-2, .cls-12, .cls-3, .cls-4, .cls-5, .cls-30, .cls-6, .cls-31, .cls-8 {
        fill: none;
      }

      .cls-11 {
        fill: #825f40;
      }

      .cls-32 {
        clip-path: url(#clippath);
      }

      .cls-3 {
        stroke: #f5c345;
        stroke-width: 7.48px;
      }

      .cls-3, .cls-4, .cls-30, .cls-6, .cls-7, .cls-31 {
        stroke-linecap: round;
      }

      .cls-13 {
        fill: #4aa4b6;
      }

      .cls-14 {
        fill: #404041;
      }

      .cls-4 {
        stroke-width: 2.38px;
      }

      .cls-4, .cls-8 {
        stroke: #4aa4b6;
      }

      .cls-15 {
        fill: #903992;
      }

      .cls-5 {
        stroke: #404041;
        stroke-width: .5px;
      }

      .cls-33 {
        clip-path: url(#clippath-1);
      }

      .cls-34 {
        clip-path: url(#clippath-3);
      }

      .cls-35 {
        clip-path: url(#clippath-2);
      }

      .cls-16 {
        fill: #ebedee;
      }

      .cls-30 {
        stroke: #e6953e;
      }

      .cls-30, .cls-31 {
        stroke-linejoin: round;
        stroke-width: 2.31px;
      }

      .cls-17 {
        fill: #fcf3e5;
      }

      .cls-18 {
        fill: #88b238;
      }

      .cls-19 {
        fill: #bc9b72;
      }

      .cls-20, .cls-23 {
        fill: #c7ab87;
      }

      .cls-6 {
        stroke: #aed6de;
      }

      .cls-6, .cls-23, .cls-8 {
        fill-rule: evenodd;
      }

      .cls-6, .cls-8 {
        stroke-width: 1.11px;
      }

      .cls-21 {
        fill: #babcbf;
      }

      .cls-7 {
        fill: #e7a690;
        stroke: #dd7c62;
        stroke-width: 3.73px;
      }

      .cls-22 {
        fill: #97569b;
      }

      .cls-24 {
        fill: #f5c345;
      }

      .cls-25 {
        fill: #a78966;
      }

      .cls-26 {
        fill: #4497a3;
      }

      .cls-27 {
        fill: #ccc;
      }

      .cls-31 {
        stroke: #b9bbbd;
      }

      .cls-28 {
        fill: #fff;
      }

      .cls-29 {
        fill: #efeff0;
      }

      .cls-8 {
        stroke-dasharray: 0 0 0 0 0 0 2.95 2.21 2.95 2.21 2.95 2.21;
      }
    </style>
    <clipPath id="clippath">
      <rect class="cls-12" x="1.08" y="123.31" width="26.75" height="27.31"/>
    </clipPath>
    <clipPath id="clippath-1">
      <rect class="cls-12" x="27.85" y="123.31" width="26.75" height="27.31"/>
    </clipPath>
    <clipPath id="clippath-2">
      <rect class="cls-12" x="54.62" y="123.31" width="26.75" height="27.31"/>
    </clipPath>
    <clipPath id="clippath-3">
      <rect class="cls-12" x="92.37" y="104.17" width="73" height="180" transform="translate(257.75 388.34) rotate(180)"/>
    </clipPath>
  </defs>
  <g id="Layer_1-2" data-name="Layer 1">
    <g>
      <g>
        <polygon class="cls-14" points="167 257.66 167 257.66 168.94 257.78 170.88 257.89 172.82 258.23 174.54 258.56 176.27 259.11 177.88 259.66 179.38 260.31 180.78 260.97 181.96 261.83 183.14 262.7 184.11 263.68 184.96 264.65 185.61 265.63 186.03 266.71 186.35 267.89 186.45 268.97 186.45 268.97 186.34 270.16 186.01 271.23 185.57 272.31 184.92 273.38 184.05 274.35 183.07 275.2 181.88 276.17 180.69 276.92 179.29 277.67 177.78 278.3 176.16 278.83 174.43 279.25 172.7 279.67 170.76 279.88 168.82 280.09 166.88 280.07 166.88 280.07 164.94 280.06 163 279.84 161.07 279.61 159.34 279.17 157.62 278.73 156.01 278.18 154.5 277.53 153.11 276.77 151.92 276.01 150.75 275.03 149.78 274.16 148.92 273.19 148.28 272.11 147.86 271.03 147.54 269.95 147.44 268.76 147.44 268.76 147.55 267.68 147.88 266.5 148.32 265.43 148.97 264.46 149.84 263.49 150.81 262.53 152 261.67 153.19 260.82 154.6 260.18 156.11 259.54 157.73 259.01 159.46 258.48 161.18 258.17 163.12 257.85 165.06 257.76 167 257.66 167 257.66 167 257.66"/>
        <polygon class="cls-16" points="143.61 259.36 189.09 259.61 189.06 264.35 143.58 264.11 143.61 259.36 143.61 259.36"/>
        <polygon class="cls-21" points="143.57 266.69 143.57 266.69 143.67 267.77 143.88 268.74 188.71 268.99 188.71 268.99 188.93 268.02 189.05 266.94 189.06 264.25 143.58 264 143.57 266.69 143.57 266.69 143.57 266.69"/>
        <polygon class="cls-16" points="151.61 274.82 181.03 274.98 181.03 274.98 182.43 274.88 183.73 274.45 184.91 273.92 186 273.28 186.86 272.42 187.73 271.35 188.38 270.28 188.82 268.99 143.99 268.74 143.99 268.74 144.41 270.04 144.95 271.12 145.69 272.2 146.66 273.07 147.73 273.72 148.92 274.26 150.21 274.7 151.61 274.82 151.61 274.82 151.61 274.82"/>
        <polygon class="cls-21" points="143.64 254.62 189.11 254.87 189.09 259.61 143.61 259.36 143.64 254.62 143.64 254.62"/>
        <polygon class="cls-21" points="189.19 240.65 189.17 245.19 189.14 250.24 167.44 250.12 143.66 249.99 143.7 244.39 143.72 240.4 157.28 240.47 167.44 240.52 175.64 240.57 189.19 240.65"/>
        <polygon class="cls-16" points="143.66 249.99 189.14 250.24 189.11 254.98 143.63 254.73 143.66 249.99 143.66 249.99"/>
        <path class="cls-24" d="M219.99,165.26l-.12,3.45-.34,3.23-.56,3.01-.77,2.91-.88,2.8-1.09,2.79-1.09,2.58-1.31,2.58-1.41,2.58-1.42,2.47-3.04,5.05-3.26,5.26-1.53,2.69-1.63,2.79-.55,1.3-.65,1.5-.55,1.83-.55,2.04-1.1,4.52-.89,4.63-.78,4.31-.55,3.55-.45,3.45v.97s-.23.86-.23.86l-.22.86-.33.86-.33.75-.54.86-.54.65-.54.64-.65.64-.76.54-.76.43-.75.31-.65.24.02-4.55-13.55-.07c.65-32.74,5.66-56.44,9.27-69.48-2-.21-3.83-.99-5.33-2.17-1.77,1.37-3.98,2.17-6.39,2.16-1.33-.01-2.59-.26-3.76-.72v-4.45c.9-1.53,1.42-3.3,1.43-5.2.01-1.24-.33-3.56-1.43-5.07-.5-.68-1.15-1.19-1.99-1.38v-41.66h3.05s2.69.24,2.69.24l2.59.34,2.58.45,2.59.66,2.47.66,2.37.87,2.36.99,2.37,1.09,2.25,1.09,2.15,1.3,2.15,1.41,2.04,1.42,2.04,1.62,1.82,1.63,1.82,1.73,1.72,1.85,1.71,1.95,1.5,1.94,1.5,2.06,1.28,2.16,1.28,2.16,1.18,2.27.95,2.38.96,2.38.85,2.48,1.26,4.96.42,2.59.31,2.7.2,2.59.09,2.69Z"/>
        <path class="cls-24" d="M170.86,160.72c-.01,1.9-.53,3.67-1.43,5.2v-10.27c1.1,1.51,1.44,3.83,1.43,5.07Z"/>
        <path class="cls-24" d="M189.19,240.65l-.02,4.55-.22.08-.86.21-.86.21h-.97l-10.68-.06-8.14-.04-10.16-.06-9.28-.05h-.97l-.86-.23-.86-.22-.86-.32-.75-.33h-.01l-.75-.44-.75-.54-.64-.65-.65-.65-.42-.65-.54-.86-.32-.76-.32-.86-.21-.87-.21-.86v-.97s-.4-3.45-.4-3.45l-.26-1.81-.26-1.75-.53-3.14h0s-.2-1.17-.2-1.17l-.84-4.64-1.05-4.53-.53-2.05-.53-1.84-.64-1.51-.53-1.3-1.6-2.81-1.6-2.7-3.1-5.3-3.1-5.08-1.39-2.49-1.38-2.59-.43-.87h0s-.85-1.73-.85-1.73l-1.07-2.59-1.06-2.81-.85-2.8-.08-.24v-.06l-.65-2.62-.53-3.02-.3-3.23-.09-3.45.08-1.77.04-.92.23-2.59.34-2.69.44-2.59.39-1.45s0,0,0,0l.27-1.01.66-2.48.88-2.47.98-2.37.99-2.36,1.19-2.26,1.31-2.15,1.3-2.14,1.52-2.04,1.52-1.94,1.74-1.92,1.73-1.83,1.84-1.71,1.84-1.61,2.06-1.6,2.06-1.39,2.16-1.39,2.16-1.28,2.27-1.07,2.38-1.07,2.37-.95,1.39-.5.99-.35,2.48-.63,2.59-.64,2.59-.41,2.59-.31,2.69-.21,2.34.02v68.88c.42-.27.83-.56,1.23-.88l.76-.6v-9.64c1.17.46,2.43.71,3.76.72,2.41.01,4.62-.79,6.39-2.16,1.5,1.18,3.33,1.96,5.33,2.17-3.61,13.04-8.62,36.74-9.27,69.48l13.55.07Z"/>
        <path class="cls-31" d="M157.27,245.54c.3-55.03-12.14-86.28-12.14-86.28"/>
        <path class="cls-31" d="M188.65,159.5s-1.63,3.98-3.74,11.6"/>
        <path class="cls-31" d="M175.64,240.58c-.03,1.66-.05,3.35-.06,5.06"/>
        <path class="cls-30" d="M167.44,168.35c-.2.18-.4.35-.61.51-.43.34-.89.64-1.38.91-1.22.67-2.6,1.1-4.06,1.22-.32.03-.64.04-.96.04-.35,0-.69-.02-1.03-.06-.68-.07-1.35-.21-1.99-.41-.12-.03-.24-.07-.35-.11-1.18-.41-2.27-1.03-3.21-1.82-.02-.02-.05-.04-.07-.06-2.26-1.91-3.69-4.78-3.67-7.97.01-1.76.62-6.48,3.9-6.46,1.76.01,2.81,1.34,3.4,2.86.51,1.31.68,2.77.68,3.66-.01,1.36-.25,2.57-.68,3.64-.12.32-.27.63-.43.93-.74,1.38-1.81,2.51-3.13,3.4-.06.05-.12.09-.19.13-1.41.94-3.09,1.63-4.91,2.09-.81.21-1.66.37-2.52.49"/>
        <path class="cls-30" d="M167.44,169.31c-.21-.14-.41-.29-.61-.45-.5-.39-.96-.83-1.38-1.31-1.61-1.84-2.58-4.25-2.57-6.89,0-.51.06-1.27.21-2.09.12-.63.3-1.29.56-1.91.27-.65.64-1.25,1.13-1.7.2-.18.42-.34.67-.46.38-.2.82-.3,1.32-.3.24,0,.46.03.67.07"/>
        <path class="cls-30" d="M183.62,160.77c-.02,3.32-1.6,6.27-4.04,8.16"/>
        <path class="cls-30" d="M179.58,168.93c-2.42-1.91-3.97-4.88-3.95-8.2.01-1.76.62-6.48,3.89-6.46,3.28.02,4.1,4.59,4.09,6.52"/>
        <path class="cls-30" d="M185.95,171.16c-.35,0-.7-.02-1.04-.06"/>
        <line class="cls-3" x1="193.73" y1="99.98" x2="200.34" y2="82.45"/>
        <line class="cls-3" x1="215.17" y1="114.73" x2="229.8" y2="103.03"/>
        <line class="cls-3" x1="228.96" y1="134.97" x2="247.44" y2="131.85"/>
      </g>
      <g>
        <polygon class="cls-14" points="167.56 258.12 167.56 258.12 169.5 258.23 171.44 258.35 173.38 258.69 175.1 259.02 176.82 259.57 178.44 260.12 179.94 260.77 181.34 261.43 182.52 262.29 183.7 263.16 184.67 264.14 185.52 265.11 186.16 266.09 186.59 267.16 186.91 268.35 187.01 269.43 187.01 269.43 186.89 270.62 186.57 271.69 186.13 272.77 185.48 273.84 184.61 274.81 183.63 275.66 182.44 276.63 181.25 277.37 179.85 278.12 178.34 278.76 176.72 279.29 174.99 279.71 173.26 280.13 171.32 280.34 169.38 280.54 167.44 280.53 167.44 280.53 165.5 280.52 163.56 280.29 161.62 280.07 159.9 279.63 158.18 279.19 156.57 278.64 155.06 277.99 153.66 277.22 152.48 276.46 151.3 275.49 150.34 274.62 149.48 273.65 148.84 272.57 148.42 271.48 148.1 270.41 148 269.22 148 269.22 148.11 268.14 148.44 266.96 148.88 265.88 149.53 264.91 150.4 263.95 151.37 262.98 152.56 262.13 153.75 261.28 155.16 260.64 156.67 260 158.29 259.47 160.01 258.94 161.74 258.62 163.68 258.31 165.62 258.21 167.56 258.12 167.56 258.12 167.56 258.12"/>
        <polygon class="cls-16" points="144.17 259.82 189.65 260.07 189.62 264.81 144.14 264.56 144.17 259.82 144.17 259.82"/>
        <polygon class="cls-21" points="144.13 267.15 144.13 267.15 144.23 268.23 144.44 269.2 189.27 269.44 189.27 269.44 189.49 268.47 189.61 267.4 189.62 264.7 144.14 264.46 144.13 267.15 144.13 267.15 144.13 267.15"/>
        <polygon class="cls-16" points="152.17 275.28 181.59 275.44 181.59 275.44 182.99 275.34 184.28 274.91 185.47 274.38 186.55 273.74 187.42 272.88 188.29 271.81 188.94 270.73 189.38 269.44 144.55 269.2 144.55 269.2 144.97 270.5 145.51 271.57 146.25 272.66 147.22 273.52 148.29 274.18 149.48 274.72 150.77 275.16 152.17 275.28 152.17 275.28 152.17 275.28"/>
        <polygon class="cls-21" points="144.19 255.08 189.67 255.33 189.65 260.07 144.17 259.82 144.19 255.08 144.19 255.08"/>
        <polygon class="cls-21" points="144.27 240.85 189.75 241.1 189.7 250.69 144.22 250.45 144.27 240.85 144.27 240.85"/>
        <polygon class="cls-16" points="144.22 250.45 189.7 250.69 189.67 255.44 144.19 255.19 144.22 250.45 144.22 250.45"/>
        <polygon class="cls-24" points="220.55 165.72 220.55 165.72 220.46 163.03 220.25 160.44 219.95 157.74 219.53 155.15 218.9 152.67 218.26 150.19 217.41 147.71 216.46 145.33 215.5 142.96 214.33 140.69 213.05 138.52 211.76 136.36 210.27 134.31 208.77 132.36 207.06 130.41 205.34 128.57 203.52 126.83 201.69 125.2 199.66 123.58 197.62 122.17 195.47 120.75 193.32 119.45 191.06 118.36 188.7 117.27 186.33 116.29 183.97 115.41 181.49 114.75 178.91 114.09 176.32 113.64 173.74 113.31 171.05 113.08 168.35 113.06 168.35 113.06 165.66 113.05 162.96 113.25 160.37 113.56 157.79 113.98 155.2 114.61 152.71 115.24 150.34 116.09 147.96 117.05 145.59 118.11 143.32 119.18 141.15 120.46 138.99 121.85 136.94 123.24 134.88 124.84 133.04 126.45 131.2 128.16 129.46 129.99 127.73 131.92 126.21 133.85 124.69 135.89 123.38 138.04 122.08 140.18 120.88 142.44 119.9 144.81 118.92 147.17 118.04 149.65 117.38 152.12 116.72 154.6 116.28 157.18 115.94 159.87 115.71 162.46 115.59 165.15 115.59 165.15 115.67 168.6 115.98 171.83 116.5 174.86 117.24 177.77 118.09 180.58 119.15 183.38 120.21 185.98 121.49 188.57 122.88 191.16 124.27 193.65 127.37 198.73 130.46 204.03 132.06 206.73 133.66 209.54 133.66 209.54 134.2 210.84 134.83 212.35 135.36 214.19 135.89 216.24 136.94 220.77 137.78 225.41 138.51 229.72 139.03 233.28 139.44 236.73 139.44 236.73 139.44 237.7 139.65 238.57 139.86 239.43 140.18 240.29 140.5 241.05 141.03 241.92 141.46 242.56 142.1 243.21 142.75 243.86 143.5 244.41 144.25 244.84 145 245.17 145.86 245.5 146.72 245.72 147.58 245.94 148.55 245.94 186.81 246.15 186.81 246.15 187.78 246.16 188.64 245.94 189.51 245.73 190.37 245.42 191.13 245.1 191.88 244.67 192.64 244.14 193.29 243.49 193.83 242.85 194.38 242.21 194.92 241.34 195.25 240.59 195.58 239.73 195.8 238.87 196.02 238.01 196.02 237.04 196.02 237.04 196.47 233.59 197.03 230.04 197.81 225.74 198.69 221.11 199.8 216.59 200.35 214.54 200.9 212.71 201.55 211.21 202.1 209.92 202.1 209.92 203.73 207.12 205.25 204.44 208.51 199.17 211.56 194.13 212.97 191.65 214.39 189.07 215.7 186.5 216.79 183.92 217.88 181.12 218.76 178.32 219.53 175.42 220.08 172.4 220.42 169.17 220.55 165.72 220.55 165.72 220.55 165.72"/>
        <path class="cls-31" d="M157.83,245.99c.3-55.03-12.14-86.28-12.14-86.28"/>
        <path class="cls-24" d="M171.41,161.17c-.03,5.73-4.7,10.35-10.43,10.32-5.73-.03-10.35-4.7-10.31-10.43,0-1.77.62-6.48,3.89-6.46,3.28.02,4.09,4.59,4.08,6.52-.04,6.57-5.49,9.8-11.86,10.68"/>
        <path class="cls-24" d="M184.18,161.23c-.03,5.73-4.7,10.35-10.43,10.32-5.73-.03-10.35-4.7-10.32-10.43,0-1.77.62-6.48,3.89-6.46s4.09,4.59,4.08,6.52"/>
        <path class="cls-24" d="M186.5,171.61c-5.73-.03-10.35-4.7-10.32-10.43,0-1.77.62-6.48,3.89-6.46,3.28.02,4.09,4.59,4.08,6.52"/>
        <path class="cls-31" d="M176.13,246.09c.3-55.03,13.08-86.14,13.08-86.14"/>
      </g>
      <g>
        <path class="cls-1" d="M233.44,43c0,3.64-2.98,6.62-6.62,6.62h-11.12v17.73l-17.67-17.73h-33.22c-3.64,0-6.62-2.98-6.62-6.62V7.8c0-3.64,2.98-6.62,6.62-6.62h62c3.64,0,6.62,2.98,6.62,6.62v35.2Z"/>
        <g>
          <path class="cls-1" d="M89.39,66.96c0,3.64,2.98,6.62,6.62,6.62h11.12v17.73s17.67-17.73,17.67-17.73h33.22c3.64,0,6.62-2.98,6.62-6.62V31.76c0-3.64-2.98-6.62-6.62-6.62h-62c-3.64,0-6.62,2.98-6.62,6.62v35.2Z"/>
          <path class="cls-22" d="M132.66,40.19h5.57v22.25h-5.57v-2.35c-2.18,2.05-4.32,2.93-6.87,2.93-2.89,0-5.36-1.13-7.46-3.35-2.09-2.22-3.14-5.03-3.14-8.34s1.01-6.24,3.02-8.42c2.05-2.22,4.52-3.31,7.42-3.31,2.68,0,5.03,1.01,7.04,3.02v-2.43ZM126.79,44.76c-1.72,0-3.18.63-4.32,1.84-1.13,1.22-1.72,2.81-1.72,4.69s.59,3.52,1.72,4.78c1.17,1.21,2.6,1.84,4.32,1.84s3.23-.63,4.36-1.84c1.17-1.22,1.76-2.85,1.76-4.82,0-3.85-2.6-6.49-6.12-6.49Z"/>
        </g>
        <g id="Layer_1-2" data-name="Layer 1-2">
          <g>
            <path class="cls-22" d="M188.57,15.99c-1.11-1.22-3.37-3-5.19-4.18-.53.49-1.07.99-1.55,1.48,1.82,1.29,4.04,3.19,5.05,4.42.53-.55,1.11-1.1,1.68-1.71ZM187.81,33.61c-.14-4.35-.33-8.7-.46-12.99-2.31.06-4.66.23-6.97.34.09.74.07,1.5.15,2.19,1.5-.07,3.06-.15,4.61-.22.16,3.65.32,7.24.48,10.83.06,1.45-.98,2.65-1.57,3.1.48.37,1.17,1.26,1.45,1.77.52-.65,1.23-1.44,6.55-5.68-.32-.45-.75-1.31-.98-1.93-1.09.83-2.17,1.71-3.25,2.6h0ZM205.92,35.88c-3.51-.07-7.02-.08-10.52-.05-.03-2.05-.05-4.09-.07-6.08,3.55-.04,7.17-.04,10.74.07-.03,2.05-.11,4.06-.14,6.11h0v-.05ZM210.71,22.59c.02-.76.04-1.46.06-2.22-2.93-.14-5.84-.17-8.81-.2.03-2,.07-4,.04-5.99,2.65-.42,5.19-.83,7.23-1.34-.56-.63-1.18-1.32-1.74-1.95-3.92,1.06-10.87,1.99-16.72,2.68.28.51.7,1.37.82,1.9l7.92-.94c0,1.89,0,3.72-.04,5.61-2.8,0-5.66.02-8.51.09.04.75.02,1.51.05,2.21,2.8-.06,5.59-.12,8.4-.08-.01,1.73-.02,3.45-.03,5.18-2.21,0-4.42-.01-6.63.03.08,3.87.16,7.74.24,11.62.75-.04,1.56-.02,2.32,0-.05-.43.01-.81-.04-1.24,3.5-.04,6.95-.02,10.41.06,0,.38-.02.76-.03,1.14.81.01,1.62.02,2.44.09.14-3.84.23-7.63.37-11.47-2.22-.06-4.49-.11-6.71-.18.01-1.73.02-3.45.03-5.18,2.92.03,5.84.12,8.71.21l.21-.03Z"/>
            <path class="cls-22" d="M188.57,15.99c-1.11-1.22-3.37-3-5.19-4.18-.53.49-1.07.99-1.55,1.48,1.82,1.29,4.04,3.19,5.05,4.42.53-.55,1.11-1.1,1.68-1.71ZM187.81,33.61c-.14-4.35-.33-8.7-.46-12.99-2.31.06-4.66.23-6.97.34.09.74.07,1.5.15,2.19,1.5-.07,3.06-.15,4.61-.22.16,3.65.32,7.24.48,10.83.06,1.45-.98,2.65-1.57,3.1.48.37,1.17,1.26,1.45,1.77.52-.65,1.23-1.44,6.55-5.68-.32-.45-.75-1.31-.98-1.93-1.09.83-2.17,1.71-3.25,2.6h0ZM205.92,35.88c-3.51-.07-7.02-.08-10.52-.05-.03-2.05-.05-4.09-.07-6.08,3.55-.04,7.17-.04,10.74.07-.03,2.05-.11,4.06-.14,6.11h0v-.05ZM210.71,22.59c.02-.76.04-1.46.06-2.22-2.93-.14-5.84-.17-8.81-.2.03-2,.07-4,.04-5.99,2.65-.42,5.19-.83,7.23-1.34-.56-.63-1.18-1.32-1.74-1.95-3.92,1-10.87,1.99-16.72,2.68.28.51.7,1.37.82,1.9l7.92-.94c0,1.89,0,3.72-.04,5.61-2.8,0-5.66.02-8.51.09.04.75.02,1.51.05,2.21,2.8-.06,5.59-.12,8.4-.08-.01,1.73-.02,3.45-.03,5.18-2.21,0-4.42.04-6.63.03.08,3.87.16,7.74.24,11.62.75-.04,1.56-.02,2.32,0-.05-.43.01-.81-.04-1.24,3.5-.04,6.95-.02,10.41.06,0,.38-.02.76-.03,1.14.81.01,1.62.02,2.44.09.14-3.84.23-7.63.37-11.47-2.22-.06-4.49-.11-6.71-.18.01-1.73.02-3.45.03-5.18,2.92.03,5.84.12,8.71.21h0l.21-.03Z"/>
          </g>
        </g>
      </g>
      <g>
        <g>
          <path class="cls-27" d="M81.37,154.78v10.63c0,.69-.37,1.32-.96,1.66l-28.94,16.62c-.59.34-.96.97-.96,1.66v35.14c0,.7-.38,1.34-.99,1.68l-16.21,8.92c-1.28.71-2.85-.23-2.84-1.69l.37-44.04c0-.69-.36-1.33-.96-1.68L.96,167.07c-.59-.34-.96-.97-.96-1.66v-10.63c0-1.06.86-1.91,1.91-1.91h77.55c1.06,0,1.91.86,1.91,1.91Z"/>
          <path class="cls-9" d="M81.37,163.18v10.63c0,.69-.37,1.32-.96,1.66l-28.94,16.62c-.59.34-.96.97-.96,1.66v35.14c0,.7-.38,1.34-.99,1.68l-16.21,8.92c-1.28.71-2.85-.23-2.84-1.69l.37-44.04c0-.69-.36-1.33-.96-1.68L.96,175.47c-.59-.34-.96-.97-.96-1.66v-10.63c0-1.06.86-1.91,1.91-1.91h77.55c1.06,0,1.91.86,1.91,1.91Z"/>
        </g>
        <g class="cls-32">
          <path class="cls-15" d="M27.75,137.45c.12-.12.12-.3,0-.42l-4.11-4.11c-.12-.12-.3-.12-.42,0l-5.05,5.05c-.19.19-.5.05-.5-.21v-14.16c0-.16-.13-.3-.3-.3h-5.82c-.16,0-.3.13-.3.3v14.16c0,.26-.32.39-.5.21l-5.05-5.05c-.12-.12-.3-.12-.42,0l-4.11,4.11c-.12.12-.12.3,0,.42l13.08,13.08c.12.12.3.12.42,0l13.08-13.08"/>
        </g>
        <g class="cls-33">
          <path class="cls-26" d="M54.52,137.45c.12-.12.12-.3,0-.42l-4.11-4.11c-.12-.12-.3-.12-.42,0l-5.05,5.05c-.19.19-.5.05-.5-.21v-14.16c0-.16-.13-.3-.3-.3h-5.82c-.16,0-.3.13-.3.3v14.16c0,.26-.32.39-.5.21l-5.05-5.05c-.12-.12-.3-.12-.42,0l-4.11,4.11c-.12.12-.12.3,0,.42l13.08,13.08c.12.12.3.12.42,0l13.08-13.08"/>
        </g>
        <g class="cls-35">
          <path class="cls-18" d="M81.29,137.45c.12-.12.12-.3,0-.42l-4.11-4.11c-.12-.12-.3-.12-.42,0l-5.05,5.05c-.19.19-.5.05-.5-.21v-14.16c0-.16-.13-.3-.29-.3h-5.82c-.16,0-.3.13-.3.3v14.16c0,.26-.32.39-.5.21l-5.05-5.05c-.12-.12-.3-.12-.42,0l-4.11,4.11c-.12.12-.12.3,0,.42l13.08,13.08c.12.12.3.12.42,0l13.08-13.08"/>
        </g>
      </g>
      <g>
        <g>
          <path class="cls-2" d="M297.8,214.07c-20.13,0-36.46-16.32-36.46-36.46,0-15.82,10.08-29.29,24.17-34.34"/>
          <polygon class="cls-27" points="284.8 152.59 297.8 141.15 281.4 135.61 284.8 152.59"/>
        </g>
        <g>
          <path class="cls-2" d="M303.59,141.15c20.13,0,36.46,16.32,36.46,36.46,0,15.82-10.08,29.29-24.17,34.34"/>
          <polygon class="cls-27" points="316.58 202.63 303.59 214.07 319.98 219.61 316.58 202.63"/>
        </g>
        <g>
          <g>
            <path class="cls-19" d="M337.2,139.91c0-.66-.06-1.3-.16-1.92,0,0,0,0,0-.01h0c-.92-5.56-5.7-9.8-11.46-9.8-6.42,0-11.62,5.26-11.62,11.74,0,.99.12,1.95.35,2.86,0,.16.05.32.13.49,0,0,0,0,0,0,.36,1.2.9,2.32,1.59,3.33,1.29,2.97,1.85,5.47.2,7.27-1.26,1.29-2.04,3.04-2.04,4.96,0,3.99,3.32,7.22,7.42,7.22,1.59,0,3.07-.49,4.28-1.32,11-5.94,11.79-17.35,11.29-24.83Z"/>
            <path class="cls-11" d="M323.17,151.03c-.87.09-1.51.87-1.42,1.75.09.87.87,1.51,1.75,1.42,2.62-.27,4.53-2.63,4.25-5.24-.22-2.06-1.72-3.68-3.63-4.15l-.52-5.02c-.15-1.45.91-2.76,2.36-2.91,1.45-.15,2.76.91,2.91,2.36.09.87.87,1.51,1.75,1.42.87-.09,1.51-.87,1.42-1.75-.33-3.2-3.21-5.53-6.41-5.2-3.2.33-5.53,3.21-5.2,6.41l.66,6.33c.09.87.87,1.51,1.75,1.42.87-.09,1.66.54,1.75,1.42.09.87-.54,1.66-1.42,1.75Z"/>
          </g>
          <path class="cls-4" d="M341.56,141.76c3.41,3.41,3.41,8.94,0,12.35"/>
          <g>
            <path class="cls-19" d="M322.49,166.01c1.26-.14,2.42-.59,3.41-1.27,1.06-.57,2.03-1.2,2.91-1.87,0,0-1.41-1.22-3.18-.35-1.39.68-3.26,3.5-3.14,3.48Z"/>
            <path class="cls-11" d="M323.17,151.03c-.87.09-1.51.87-1.42,1.75.09.87.87,1.51,1.75,1.42,2.62-.27,4.53-2.63,4.25-5.24-.22-2.06-1.72-3.68-3.63-4.15l-.52-5.02c-.15-1.45.91-2.76,2.36-2.91,1.45-.15,2.76.91,2.91,2.36.09.87.87,1.51,1.75,1.42.87-.09,1.51-.87,1.42-1.75-.33-3.2-3.21-5.53-6.41-5.2-3.2.33-5.53,3.21-5.2,6.41l.66,6.33c.09.87.87,1.51,1.75,1.42.87-.09,1.66.54,1.75,1.42.09.87-.54,1.66-1.42,1.75Z"/>
          </g>
          <path class="cls-4" d="M346.04,137.28c5.88,5.88,5.88,15.43,0,21.31"/>
        </g>
        <g>
          <path class="cls-28" d="M308.39,178.09c-5.42,0-9.65,3.84-14.82,10.06,4.47,5.32,8.21,10.07,14.82,10.07s11.48-6.01,14.83-9.96c-3.43-4.62-8.29-10.18-14.83-10.18Z"/>
          <path class="cls-29" d="M293.7,188.31c4.4,5.26,8.14,9.91,14.69,9.91s11.44-5.96,14.79-9.91h-29.47Z"/>
          <path class="cls-13" d="M308.39,182.29c-3.24,0-5.87,2.63-5.87,5.87s2.63,5.87,5.87,5.87,5.87-2.63,5.87-5.87-2.63-5.87-5.87-5.87Z"/>
          <path class="cls-14" d="M308.39,185.47c-1.49,0-2.69,1.2-2.69,2.69s1.2,2.69,2.69,2.69,2.69-1.2,2.69-2.69-1.2-2.69-2.69-2.69Z"/>
          <path class="cls-17" d="M306.49,185.46c-.44,0-.79.35-.79.79s.35.79.79.79.79-.35.79-.79-.36-.79-.79-.79Z"/>
          <path class="cls-28" d="M345.22,178.09c5.42,0,9.65,3.84,14.82,10.06-4.47,5.32-8.21,10.07-14.82,10.07-6.62,0-11.48-6.01-14.83-9.96,3.43-4.62,8.29-10.18,14.83-10.18Z"/>
          <path class="cls-29" d="M359.91,188.31c-4.4,5.26-8.14,9.91-14.69,9.91-6.59,0-11.44-5.96-14.79-9.91h29.47Z"/>
          <path class="cls-13" d="M345.37,182.29c-3.24,0-5.87,2.63-5.87,5.87s2.63,5.87,5.87,5.87,5.87-2.63,5.87-5.87-2.63-5.87-5.87-5.87Z"/>
          <path class="cls-14" d="M345.37,185.47c-1.49,0-2.69,1.2-2.69,2.69s1.2,2.69,2.69,2.69,2.69-1.2,2.69-2.69-1.2-2.69-2.69-2.69Z"/>
          <path class="cls-17" d="M343.47,185.46c-.44,0-.79.35-.79.79s.35.79.79.79.79-.35.79-.79-.36-.79-.79-.79Z"/>
          <path class="cls-5" d="M323.22,188.26c-3.43-4.62-8.29-10.18-14.83-10.18-5.42,0-9.65,3.84-14.82,10.06"/>
          <path class="cls-5" d="M330.39,188.26c3.43-4.62,8.29-10.18,14.83-10.18,5.42,0,9.65,3.84,14.82,10.06"/>
        </g>
        <g>
          <path class="cls-6" d="M236.16,184.03c-.81,4.52.76,7.7,4.73,10.04"/>
          <g>
            <path class="cls-8" d="M235.72,166.97c5.39-12.87,24.09-19.39,39-8.93"/>
            <path class="cls-6" d="M279.48,172.45c1.35,5.76-.49,9.88-5.53,13"/>
            <path class="cls-6" d="M275.52,188.16c4.39-1.34,6.51-4.18,6.78-8.78"/>
            <path class="cls-6" d="M246.16,193.66c-5.37-2.47-7.49-6.46-6.86-12.36"/>
            <path class="cls-13" d="M275.6,156.44s.06-.07.11-.07c.05,0,.09.03.1.08l.68,3.03s0,.06-.02.09c-.02.02-.05.04-.09.04l-3.28-.08s-.05,0-.06-.02c-.02-.01-.03-.03-.03-.05-.01-.04.01-.09.05-.11l2.55-2.89Z"/>
            <path class="cls-13" d="M237.55,167.49s.09.03.1.08c.01.04-.01.09-.05.11l-2.89,1.55s-.06.02-.09,0c-.03-.01-.05-.04-.06-.07l-.77-3.01s0-.04,0-.06c0-.02.02-.04.05-.05.04-.02.09-.02.13.01l3.59,1.43Z"/>
            <path class="cls-23" d="M263.14,176.99l-5.26-1.98-5.69.08-2.3.63c.44,3.54-.05,4.14-.61,4.76-.56.62-1.73.58-2.69-1.81-.96-2.39.84,6.29.84,6.29l4.05,16.89,1.74,7.36c3.89.59,7.96.49,12.03-.41,1.5-.33,2.95-.77,4.35-1.29l-4.53-14.55,2.08-13.36-4.01-2.59Z"/>
            <path class="cls-10" d="M272.14,170.88c.43-.9,1.38-1.34,2.12-.98.75.36,1.01,1.38.58,2.28-.43.9-1.05.66-1.8.3-.75-.36-1.33-.7-.91-1.6Z"/>
            <path class="cls-10" d="M265.93,163.03c.23-.97,1.07-1.59,1.88-1.4.81.2,1.27,1.14,1.04,2.11-.23.97-.9.86-1.7.66-.81-.2-1.45-.41-1.21-1.38Z"/>
            <path class="cls-10" d="M257.64,158.58c.23-.97,1.07-1.59,1.88-1.4.81.2,1.27,1.14,1.04,2.11-.23.97-.9.86-1.7.66-.81-.2-1.45-.41-1.21-1.38Z"/>
            <path class="cls-10" d="M248.82,161.52c-.1-.99.48-1.86,1.31-1.94.83-.08,1.58.65,1.68,1.64.1.99-.56,1.11-1.38,1.19-.83.08-1.5.1-1.6-.89Z"/>
            <path class="cls-20" d="M263.08,181.03c-.4.09-.82.08-1.24-.05-1.27-.4-1.97-1.75-1.57-3.01l4.45-14.14c.4-1.27,1.75-1.97,3.01-1.57,1.27.4,1.97,1.75,1.57,3.01l-4.45,14.14c-.27.85-.96,1.45-1.77,1.62Z"/>
            <path class="cls-20" d="M258.3,178.66c-.23.05-.46.07-.71.05-1.32-.1-2.31-1.26-2.21-2.58l1.26-16.06c.1-1.32,1.26-2.31,2.58-2.21,1.32.1,2.31,1.26,2.21,2.58l-1.26,16.06c-.08,1.08-.87,1.93-1.87,2.16Z"/>
            <path class="cls-20" d="M252.99,179.4c-.06.01-.12.02-.19.03-1.31.18-2.53-.73-2.71-2.04l-2.03-14.47c-.18-1.31.74-2.53,2.04-2.71,1.31-.18,2.53.73,2.71,2.04l2.03,14.47c.18,1.25-.64,2.41-1.86,2.68Z"/>
            <path class="cls-20" d="M259.95,205.52c-4.1.91-6.86-.94-7.85-2.18-.2-.25-.35-.54-.44-.86l-2.16-7.79-4.63-7.32c-.09-.14-.16-.29-.22-.44l-4.35-11.61c-.46-1.24.17-2.63,1.41-3.09,1.24-.46,2.63.17,3.09,1.41l4.26,11.38,4.69,7.41c.13.2.22.42.29.64l2.07,7.46c.43.28,1.38.64,2.87.3,1.64-.38,2.53-1.51,2.92-2.19l-1.49-5.47c-.13-.47-.11-.97.06-1.44l2.89-8.12c.06-.16.13-.32.23-.47l7.31-11.69c.7-1.13,2.19-1.47,3.31-.76,1.13.7,1.47,2.19.76,3.31l-7.17,11.47-2.55,7.16,1.52,5.59c.12.46.11.94-.04,1.39-.58,1.75-2.64,4.97-6.67,5.9-.03,0-.07.02-.1.02Z"/>
            <path class="cls-10" d="M239.74,173.54s.21.89.4,1.41l.39,1.08.7-.35c-.42-1.52-1.03-2.26-1.49-2.13Z"/>
            <path class="cls-25" d="M259.24,189.74c-.12.03-.25-.03-.31-.15-.03-.07-3.32-6.65-8.37-7.32-.15-.02-.26-.16-.24-.31.02-.15.16-.26.31-.24,5.34.71,8.65,7.34,8.79,7.62.07.14.01.3-.13.37-.02.01-.04.02-.06.02Z"/>
            <path class="cls-25" d="M264.83,185.77s-.07,0-.11,0c-.37-.07-9.13-1.7-13.47-6.41-.1-.11-.1-.29.02-.39.11-.1.29-.1.39.02,4.21,4.57,13.07,6.22,13.16,6.24.15.03.25.17.22.32-.02.11-.11.2-.21.22Z"/>
          </g>
        </g>
      </g>
      <g class="cls-34">
        <g>
          <path class="cls-7" d="M145.97,121.76c9.83-4.34,26.49-4.01,23.69,21.06-.83,7.44-.75,9.32-5.78,21.3-4.99,11.88,2.35,21.58,4.02,38.04,1.81,17.82-13.39,45.1-32.12,34.84-10.4-5.7-17.44-18.72-21.72-32.51-10.36-33.35,3.93-70.38,31.91-82.73Z"/>
          <path class="cls-7" d="M124.1,144.87c-4.25-5.42-5.57-13.57-2.81-20.73,3.64-9.45,13.02-13.59,20.95-9.24s11.4,15.52,7.76,24.97"/>
          <path class="cls-7" d="M162.88,134.48c7.93,4.34,11.4,15.52,7.76,24.97s-13.02,13.59-20.95,9.24"/>
          <path class="cls-7" d="M139.16,177.7c3.64-9.45,13.02-13.59,20.95-9.24s11.4,15.52,7.76,24.97"/>
          <path class="cls-7" d="M162.69,190.59c7.93,4.34,11.4,15.52,7.76,24.97-3.64,9.45-13.02,13.59-20.95,9.24"/>
          <path class="cls-7" d="M154.35,209.9c2.63,1.25,5.01,3.35,6.82,6.25,5.21,8.34,3.76,20.13-3.24,26.34-7,6.21-16.89,4.48-22.1-3.86"/>
          <path class="cls-7" d="M112.08,172.39c-1.69,1.72-3.1,3.89-4.08,6.45-3.46,8.97-.5,19.51,6.6,24.27.73.49,1.31,1.22,1.6,2.15l.2.64c.28.93.24,1.95-.05,2.88-2.79,9.12.72,19.41,8.25,23.54,7.93,4.34,17.31.2,20.95-9.24"/>
          <path class="cls-7" d="M116.16,208.9c2.69-9.89,11.59-15.32,19.89-12.12"/>
          <path class="cls-7" d="M160.72,201.34c-8.57-1.97-14.17-11.84-12.52-22.05"/>
          <path class="cls-7" d="M114.83,179.54c-2.24-1.23-4.13-3.01-5.6-5.14-3.72-5.4-4.77-13.06-2.16-19.83,3.64-9.45,13.02-13.59,20.95-9.24"/>
          <path class="cls-7" d="M106.95,161.07c5.18,4.4,11.82,4.56,17.01,1.04"/>
          <path class="cls-7" d="M121.56,202.18c1.59,7.34,6.61,12.54,12.48,13.81"/>
          <path class="cls-7" d="M141.68,122.07c3.64-9.45,13.02-13.59,20.95-9.24s11.4,15.52,7.76,24.97-13.02,13.59-20.95,9.24"/>
          <path class="cls-7" d="M170.97,127.62c-6.28-1.2-12.29,2.19-15.62,8.09"/>
          <path class="cls-7" d="M127.31,189.63c2.47-6.98,1.13-14.75-2.88-20"/>
          <path class="cls-7" d="M143.64,139.05c-5.36,4.07-7.97,11.36-7.17,18.41"/>
        </g>
      </g>
    </g>
  </g>
</svg>