<?xml version="1.0" encoding="UTF-8"?>
<svg id="Layer_2" data-name="Layer 2" xmlns="http://www.w3.org/2000/svg" viewBox="0 0 299.54 203">
  <defs>
    <style>
      .cls-1 {
        fill: #3c889e;
      }

      .cls-1, .cls-2 {
        stroke-width: 0px;
      }

      .cls-2 {
        fill: #fff;
      }
    </style>
  </defs>
  <g id="Layer_1-2" data-name="Layer 1">
    <g>
      <g>
        <path class="cls-2" d="M149.4,74.01c-16.19-17.18-34.36-25.9-54.53-25.9-34.36,0-60.76,26.39-60.76,60.76s25.65,61.5,61.25,61.5c19.92,0,34.36-6.47,54.03-25.65l23.16,23.9c-23.66,23.16-44.32,34.36-77.69,34.36C39.34,203,0,164.65,0,108.87c0-17.93,3.98-33.86,12.2-47.56C29.38,32.18,62,15.25,95.37,15.25c29.63,0,58.27,12.95,77.94,35.86l-23.9,22.91Z"/>
        <path class="cls-2" d="M232.56,164.9V53.35h-31.87V19.73h98.85v33.61h-33.12v111.55h33.12v33.62h-98.85v-33.62h31.87Z"/>
      </g>
      <g>
        <path class="cls-1" d="M149.4,58.76c-16.19-17.18-34.36-25.9-54.53-25.9-34.36,0-60.76,26.39-60.76,60.76s25.65,61.5,61.25,61.5c19.92,0,34.36-6.47,54.03-25.65l23.16,23.9c-23.66,23.16-44.32,34.36-77.69,34.36C39.34,187.75,0,149.4,0,93.62c0-17.93,3.98-33.86,12.2-47.56C29.38,16.93,62,0,95.37,0c29.63,0,58.27,12.95,77.94,35.86l-23.9,22.91Z"/>
        <path class="cls-1" d="M232.56,149.65V38.1h-31.87V4.48h98.85v33.61h-33.12v111.55h33.12v33.62h-98.85v-33.62h31.87Z"/>
      </g>
    </g>
  </g>
</svg>