<?xml version="1.0" encoding="UTF-8"?>
<svg id="Layer_2" data-name="Layer 2" xmlns="http://www.w3.org/2000/svg" viewBox="0 0 437.04 316.04">
  <defs>
    <style>
      .cls-1 {
        stroke-width: 8.24px;
      }

      .cls-1, .cls-2, .cls-3, .cls-4, .cls-5 {
        fill: none;
        stroke-miterlimit: 10;
      }

      .cls-1, .cls-4 {
        stroke-linecap: round;
      }

      .cls-1, .cls-5 {
        stroke: #4aa4b6;
      }

      .cls-6 {
        fill: #d75c47;
      }

      .cls-6, .cls-7, .cls-8, .cls-9, .cls-10, .cls-11, .cls-12, .cls-13, .cls-14, .cls-15, .cls-16, .cls-17 {
        stroke-width: 0px;
      }

      .cls-7 {
        fill: #825f40;
      }

      .cls-8 {
        fill: #4aa4b6;
      }

      .cls-9 {
        fill: #404041;
      }

      .cls-2 {
        stroke: #404041;
        stroke-width: 1.74px;
      }

      .cls-3 {
        stroke: #ccc;
        stroke-width: 20px;
      }

      .cls-10 {
        fill: #fcf3e5;
      }

      .cls-11 {
        fill: #bc9b72;
      }

      .cls-12, .cls-13 {
        fill: #c7ab87;
      }

      .cls-13, .cls-4, .cls-5 {
        fill-rule: evenodd;
      }

      .cls-14 {
        fill: #a78966;
      }

      .cls-4 {
        stroke: #aed6de;
      }

      .cls-4, .cls-5 {
        stroke-width: 3.82px;
      }

      .cls-15 {
        fill: #ccc;
      }

      .cls-16 {
        fill: #fff;
      }

      .cls-17 {
        fill: #efeff0;
      }

      .cls-5 {
        stroke-dasharray: 0 0 0 0 0 0 10.2 7.65 10.2 7.65 10.2 7.65;
      }
    </style>
  </defs>
  <g id="Layer_1-2" data-name="Layer 1">
    <g>
      <g>
        <path class="cls-3" d="M221.24,296.86c-69.59,0-126-56.41-126-126,0-54.7,34.86-101.26,83.57-118.68"/>
        <polygon class="cls-15" points="176.31 84.36 221.24 44.86 164.57 25.69 176.31 84.36"/>
      </g>
      <g>
        <path class="cls-3" d="M241.24,44.86c69.59,0,126,56.41,126,126,0,54.7-34.86,101.26-83.57,118.68"/>
        <polygon class="cls-15" points="286.18 257.36 241.24 296.86 297.92 316.04 286.18 257.36"/>
      </g>
      <g>
        <g>
          <path class="cls-11" d="M357.41,40.56c0-2.27-.19-4.48-.55-6.64,0-.02,0-.03,0-.05h0c-3.17-19.21-19.69-33.86-39.6-33.86-22.18,0-40.16,18.17-40.16,40.58,0,3.41.42,6.72,1.21,9.89.03.55.17,1.12.46,1.71,0,.01.01.02.02.03,1.23,4.16,3.1,8.03,5.5,11.52,4.47,10.26,6.41,18.92.7,25.11-4.36,4.47-7.04,10.5-7.04,17.15,0,13.78,11.49,24.94,25.65,24.94,5.51,0,10.61-1.69,14.79-4.57,38-20.54,40.74-59.96,39.04-85.81Z"/>
          <path class="cls-7" d="M308.95,79c-3.02.32-5.21,3.02-4.9,6.04.32,3.02,3.02,5.21,6.04,4.9,9.05-.95,15.64-9.07,14.7-18.12-.74-7.13-5.95-12.73-12.55-14.33l-1.81-17.35c-.53-5.03,3.14-9.54,8.16-10.07,5.03-.52,9.54,3.14,10.07,8.16.32,3.02,3.02,5.22,6.04,4.9,3.02-.32,5.21-3.02,4.9-6.04-1.15-11.06-11.09-19.11-22.15-17.96-11.06,1.15-19.12,11.09-17.96,22.15l2.28,21.88c.31,3.02,3.02,5.21,6.04,4.9,3.02-.31,5.73,1.88,6.04,4.9.31,3.02-1.88,5.73-4.9,6.04Z"/>
        </g>
        <path class="cls-1" d="M372.5,46.95c11.78,11.78,11.78,30.89,0,42.68"/>
        <g>
          <path class="cls-11" d="M306.59,130.76c4.35-.5,8.37-2.05,11.78-4.4,3.67-1.98,7.01-4.14,10.05-6.45,0,0-4.86-4.2-10.99-1.2-4.81,2.36-11.28,12.09-10.84,12.04Z"/>
          <path class="cls-7" d="M308.95,79c-3.02.32-5.21,3.02-4.9,6.04.32,3.02,3.02,5.21,6.04,4.9,9.05-.95,15.64-9.07,14.7-18.12-.74-7.13-5.95-12.73-12.55-14.33l-1.81-17.35c-.53-5.03,3.14-9.54,8.16-10.07,5.03-.52,9.54,3.14,10.07,8.16.32,3.02,3.02,5.22,6.04,4.9,3.02-.32,5.21-3.02,4.9-6.04-1.15-11.06-11.09-19.11-22.15-17.96-11.06,1.15-19.12,11.09-17.96,22.15l2.28,21.88c.31,3.02,3.02,5.21,6.04,4.9,3.02-.31,5.73,1.88,6.04,4.9.31,3.02-1.88,5.73-4.9,6.04Z"/>
        </g>
        <path class="cls-1" d="M387.99,31.46c20.34,20.34,20.34,53.31,0,73.65"/>
      </g>
      <g>
        <path class="cls-16" d="M257.85,172.52c-18.73,0-33.34,13.27-51.23,34.79,15.43,18.4,28.38,34.81,51.23,34.81s39.69-20.78,51.26-34.43c-11.84-15.97-28.66-35.17-51.26-35.17Z"/>
        <path class="cls-17" d="M207.09,207.86c15.22,18.17,28.13,34.25,50.76,34.25s39.55-20.6,51.11-34.25h-101.87Z"/>
        <path class="cls-8" d="M257.86,187.04c-11.2,0-20.28,9.08-20.28,20.28s9.08,20.28,20.28,20.28,20.27-9.08,20.27-20.28-9.08-20.28-20.27-20.28Z"/>
        <path class="cls-9" d="M257.86,198.02c-5.14,0-9.29,4.16-9.29,9.3s4.15,9.29,9.29,9.29,9.3-4.16,9.3-9.29-4.16-9.3-9.3-9.3Z"/>
        <path class="cls-10" d="M251.29,198c-1.52,0-2.74,1.23-2.74,2.74s1.23,2.74,2.74,2.74,2.74-1.23,2.74-2.74-1.23-2.74-2.74-2.74Z"/>
        <path class="cls-16" d="M385.14,172.52c18.73,0,33.34,13.27,51.23,34.79-15.43,18.4-28.38,34.81-51.23,34.81-22.88,0-39.69-20.78-51.26-34.43,11.84-15.97,28.66-35.17,51.26-35.17Z"/>
        <path class="cls-17" d="M435.9,207.86c-15.22,18.17-28.13,34.25-50.76,34.25-22.78,0-39.55-20.6-51.11-34.25h101.87Z"/>
        <path class="cls-8" d="M385.65,187.04c-11.2,0-20.28,9.08-20.28,20.28s9.08,20.28,20.28,20.28,20.27-9.08,20.27-20.28-9.08-20.28-20.27-20.28Z"/>
        <path class="cls-9" d="M385.65,198.02c-5.14,0-9.29,4.16-9.29,9.3s4.15,9.29,9.29,9.29,9.3-4.16,9.3-9.29-4.16-9.3-9.3-9.3Z"/>
        <path class="cls-10" d="M379.08,198c-1.52,0-2.74,1.23-2.74,2.74s1.23,2.74,2.74,2.74,2.74-1.23,2.74-2.74-1.23-2.74-2.74-2.74Z"/>
        <path class="cls-2" d="M309.11,207.69c-11.84-15.97-28.66-35.17-51.26-35.17-18.73,0-33.34,13.27-51.23,34.79"/>
        <path class="cls-2" d="M333.88,207.69c11.84-15.97,28.66-35.17,51.26-35.17,18.73,0,33.34,13.27,51.23,34.79"/>
      </g>
      <g>
        <path class="cls-4" d="M8.2,193.05c-2.79,15.62,2.63,26.61,16.35,34.7"/>
        <g>
          <path class="cls-5" d="M6.69,134.09c18.62-44.48,83.26-67.03,134.8-30.86"/>
          <path class="cls-4" d="M157.94,153.02c4.67,19.9-1.7,34.15-19.11,44.94"/>
          <path class="cls-4" d="M144.24,207.31c15.18-4.62,22.49-14.46,23.45-30.36"/>
          <path class="cls-4" d="M42.77,226.33c-18.57-8.55-25.89-22.34-23.7-42.7"/>
          <path class="cls-8" d="M144.53,97.71c.05-.15.2-.25.37-.24.16,0,.3.11.34.27l2.36,10.48c.02.1,0,.21-.08.3-.07.09-.18.13-.3.13l-11.33-.28c-.08,0-.16-.03-.22-.08-.06-.05-.1-.11-.12-.19-.04-.15.04-.31.18-.39l8.8-10Z"/>
          <path class="cls-8" d="M13.02,135.89c.16,0,.3.11.34.26.04.15-.04.31-.18.39l-9.98,5.36c-.1.05-.22.06-.32.02-.11-.04-.18-.13-.21-.23L.01,131.28c-.02-.08-.01-.15.02-.22.03-.07.09-.13.16-.17.14-.08.32-.06.44.05l12.39,4.95Z"/>
          <path class="cls-13" d="M101.45,168.71l-18.18-6.85-19.66.26-7.95,2.17c1.51,12.23-.16,14.32-2.12,16.45-1.95,2.14-5.97,2.01-9.3-6.27-3.32-8.27,2.9,21.73,2.9,21.73l13.99,58.36,6.02,25.45c13.46,2.03,27.5,1.7,41.59-1.42,5.19-1.15,10.2-2.66,15.04-4.46l-15.65-50.3,7.18-46.17-13.87-8.96Z"/>
          <path class="cls-6" d="M132.55,147.59c1.47-3.11,4.76-4.62,7.34-3.39,2.59,1.24,3.49,4.77,2.02,7.87-1.47,3.11-3.64,2.27-6.23,1.04-2.59-1.24-4.61-2.4-3.13-5.52Z"/>
          <path class="cls-6" d="M111.11,120.46c.8-3.34,3.71-5.5,6.49-4.82,2.78.68,4.39,3.95,3.59,7.29-.8,3.34-3.1,2.96-5.88,2.29-2.78-.68-5-1.41-4.2-4.76Z"/>
          <path class="cls-6" d="M82.44,105.1c.8-3.34,3.71-5.5,6.49-4.82,2.79.68,4.39,3.95,3.59,7.29-.81,3.34-3.1,2.96-5.88,2.29-2.79-.69-5-1.41-4.2-4.76Z"/>
          <path class="cls-6" d="M51.97,115.25c-.36-3.42,1.66-6.42,4.51-6.71,2.86-.29,5.46,2.26,5.81,5.68.35,3.42-1.93,3.83-4.78,4.12-2.85.28-5.19.34-5.54-3.09Z"/>
          <path class="cls-12" d="M101.23,182.68c-1.37.3-2.84.26-4.28-.19-4.37-1.38-6.8-6.04-5.42-10.41l15.39-48.88c1.38-4.38,6.04-6.8,10.41-5.43,4.37,1.38,6.8,6.04,5.42,10.41l-15.39,48.88c-.92,2.94-3.33,4.99-6.13,5.62Z"/>
          <path class="cls-12" d="M84.72,174.49c-.78.17-1.61.24-2.45.17-4.57-.36-7.98-4.36-7.62-8.93l4.37-55.51c.36-4.57,4.36-7.98,8.93-7.62,4.57.36,7.98,4.36,7.62,8.93l-4.37,55.51c-.29,3.73-3.01,6.69-6.48,7.46Z"/>
          <path class="cls-12" d="M66.37,177.07c-.21.05-.43.09-.65.12-4.54.64-8.74-2.53-9.37-7.07l-7.03-50c-.64-4.54,2.55-8.73,7.06-9.38,4.54-.64,8.74,2.53,9.37,7.07l7.03,50c.61,4.32-2.23,8.33-6.42,9.26Z"/>
          <path class="cls-12" d="M90.42,267.33c-14.16,3.13-23.71-3.24-27.14-7.54-.7-.87-1.21-1.88-1.51-2.96l-7.48-26.93-16.02-25.29c-.31-.48-.56-1-.76-1.53l-15.02-40.12c-1.61-4.29.57-9.08,4.87-10.68,4.28-1.6,9.08.57,10.68,4.86l14.72,39.32,16.21,25.6c.43.69.77,1.44.99,2.22l7.16,25.78c1.5.97,4.76,2.21,9.91,1.02,5.68-1.31,8.73-5.2,10.11-7.56l-5.15-18.91c-.44-1.63-.38-3.37.19-4.96l10-28.06c.2-.56.46-1.1.78-1.61l25.25-40.42c2.43-3.89,7.55-5.07,11.44-2.64,3.89,2.43,5.07,7.55,2.64,11.44l-24.77,39.65-8.82,24.76,5.25,19.31c.43,1.57.38,3.24-.13,4.79-2.01,6.06-9.13,17.18-23.04,20.4-.12.03-.24.05-.35.08Z"/>
          <path class="cls-6" d="M20.58,156.81s.72,3.09,1.37,4.86l1.36,3.72,2.43-1.22c-1.46-5.24-3.55-7.82-5.16-7.36Z"/>
          <path class="cls-14" d="M87.99,212.8c-.42.09-.86-.11-1.06-.51-.11-.23-11.47-22.99-28.93-25.29-.52-.07-.89-.55-.82-1.07.07-.52.54-.89,1.07-.82,18.47,2.44,29.91,25.36,30.39,26.34.23.47.04,1.04-.44,1.27-.07.03-.14.06-.21.08Z"/>
          <path class="cls-14" d="M107.31,199.05c-.12.03-.25.03-.38,0-1.28-.23-31.56-5.87-46.54-22.14-.36-.39-.33-.99.06-1.35.38-.35.99-.33,1.34.06,14.54,15.79,45.17,21.5,45.48,21.55.52.09.86.59.77,1.11-.07.39-.37.68-.73.76Z"/>
        </g>
      </g>
    </g>
  </g>
</svg>