<?xml version="1.0" encoding="UTF-8"?>
<svg id="Layer_2" data-name="Layer 2" xmlns="http://www.w3.org/2000/svg" viewBox="0 0 277.78 322.8">
  <defs>
    <style>
      .cls-1 {
        fill: #404041;
      }

      .cls-1, .cls-2, .cls-3, .cls-4, .cls-5 {
        stroke-width: 0px;
      }

      .cls-6 {
        stroke: #b9bbbd;
      }

      .cls-6, .cls-7, .cls-8 {
        fill: none;
        stroke-linecap: round;
      }

      .cls-6, .cls-8 {
        stroke-linejoin: round;
        stroke-width: 1.74px;
      }

      .cls-2 {
        fill: #ebedee;
      }

      .cls-7 {
        stroke: #f5c345;
        stroke-width: 5.62px;
      }

      .cls-7, .cls-9 {
        stroke-miterlimit: 10;
      }

      .cls-8 {
        stroke: #e6953e;
      }

      .cls-3 {
        fill: #babcbf;
      }

      .cls-4 {
        fill: #97569b;
      }

      .cls-5 {
        fill: #f5c345;
      }

      .cls-9 {
        fill: #c9e4e9;
        stroke: #fff;
        stroke-width: 5px;
      }
    </style>
  </defs>
  <g id="Layer_1-2" data-name="Layer 1">
    <g>
      <g>
        <polygon class="cls-1" points="60.65 139.31 60.65 139.31 62.11 139.39 63.56 139.47 65.02 139.72 66.32 139.96 67.61 140.37 68.83 140.77 69.96 141.26 71.02 141.74 71.91 142.39 72.8 143.04 73.53 143.77 74.18 144.5 74.66 145.23 74.99 146.04 75.23 146.93 75.31 147.74 75.31 147.74 75.23 148.63 74.99 149.44 74.66 150.25 74.18 151.06 73.53 151.79 72.8 152.44 71.91 153.17 71.02 153.73 69.96 154.3 68.83 154.79 67.61 155.19 66.32 155.52 65.02 155.84 63.56 156 62.11 156.16 60.65 156.16 60.65 156.16 59.19 156.16 57.73 156 56.27 155.84 54.98 155.52 53.68 155.19 52.47 154.79 51.33 154.3 50.28 153.73 49.39 153.17 48.5 152.44 47.77 151.79 47.12 151.06 46.63 150.25 46.31 149.44 46.07 148.63 45.98 147.74 45.98 147.74 46.07 146.93 46.31 146.04 46.63 145.23 47.12 144.5 47.77 143.77 48.5 143.04 49.39 142.39 50.28 141.74 51.33 141.26 52.47 140.77 53.68 140.37 54.98 139.96 56.27 139.72 57.73 139.47 59.19 139.39 60.65 139.31 60.65 139.31 60.65 139.31"/>
        <polygon class="cls-2" points="43.07 140.69 77.25 140.69 77.25 144.26 43.07 144.26 43.07 140.69 43.07 140.69"/>
        <polygon class="cls-3" points="43.07 146.2 43.07 146.2 43.15 147.01 43.31 147.74 77.01 147.74 77.01 147.74 77.17 147.01 77.25 146.2 77.25 144.17 43.07 144.17 43.07 146.2 43.07 146.2 43.07 146.2"/>
        <polygon class="cls-2" points="49.14 152.28 71.26 152.28 71.26 152.28 72.31 152.2 73.28 151.87 74.18 151.46 74.99 150.98 75.63 150.33 76.28 149.52 76.77 148.71 77.09 147.74 43.39 147.74 43.39 147.74 43.72 148.71 44.12 149.52 44.69 150.33 45.42 150.98 46.23 151.46 47.12 151.87 48.09 152.2 49.14 152.28 49.14 152.28 49.14 152.28"/>
        <polygon class="cls-3" points="43.07 137.13 77.25 137.13 77.25 140.69 43.07 140.69 43.07 137.13 43.07 137.13"/>
        <polygon class="cls-3" points="43.07 126.43 77.25 126.43 77.25 133.64 43.07 133.64 43.07 126.43 43.07 126.43"/>
        <polygon class="cls-2" points="43.07 133.64 77.25 133.64 77.25 137.21 43.07 137.21 43.07 133.64 43.07 133.64"/>
        <polygon class="cls-5" points="100.1 69.64 100.1 69.64 100.02 67.62 99.86 65.67 99.61 63.65 99.29 61.7 98.8 59.84 98.32 57.98 97.67 56.12 96.94 54.33 96.21 52.55 95.32 50.85 94.35 49.23 93.38 47.61 92.24 46.07 91.11 44.61 89.81 43.15 88.51 41.78 87.14 40.48 85.76 39.26 84.22 38.05 82.68 37 81.06 35.94 79.44 34.97 77.74 34.16 75.96 33.35 74.18 32.62 72.39 31.97 70.53 31.49 68.59 31 66.64 30.68 64.7 30.43 62.67 30.27 60.65 30.27 60.65 30.27 58.62 30.27 56.6 30.43 54.65 30.68 52.71 31 50.76 31.49 48.9 31.97 47.12 32.62 45.34 33.35 43.55 34.16 41.85 34.97 40.23 35.94 38.61 37 37.07 38.05 35.53 39.26 34.16 40.48 32.78 41.78 31.48 43.15 30.19 44.61 29.05 46.07 27.92 47.61 26.95 49.23 25.97 50.85 25.08 52.55 24.35 54.33 23.62 56.12 22.98 57.98 22.49 59.84 22 61.7 21.68 63.65 21.44 65.67 21.28 67.62 21.19 69.64 21.19 69.64 21.28 72.24 21.52 74.67 21.92 76.94 22.49 79.12 23.14 81.23 23.95 83.34 24.76 85.28 25.73 87.22 26.78 89.17 27.84 91.03 30.19 94.84 32.54 98.81 33.75 100.83 34.97 102.94 34.97 102.94 35.37 103.91 35.86 105.04 36.26 106.42 36.67 107.96 37.48 111.36 38.13 114.85 38.69 118.09 39.1 120.76 39.42 123.36 39.42 123.36 39.42 124.08 39.58 124.73 39.75 125.38 39.99 126.03 40.23 126.59 40.64 127.24 40.96 127.73 41.45 128.22 41.93 128.7 42.5 129.11 43.07 129.43 43.64 129.67 44.28 129.92 44.93 130.08 45.58 130.24 46.31 130.24 75.07 130.24 75.07 130.24 75.8 130.24 76.44 130.08 77.09 129.92 77.74 129.67 78.31 129.43 78.87 129.11 79.44 128.7 79.93 128.22 80.33 127.73 80.74 127.24 81.14 126.59 81.39 126.03 81.63 125.38 81.79 124.73 81.95 124.08 81.95 123.36 81.95 123.36 82.28 120.76 82.68 118.09 83.25 114.85 83.9 111.36 84.71 107.96 85.11 106.42 85.52 105.04 86 103.91 86.41 102.94 86.41 102.94 87.62 100.83 88.76 98.81 91.19 94.84 93.46 91.03 94.51 89.17 95.56 87.22 96.53 85.28 97.34 83.34 98.16 81.23 98.8 79.12 99.37 76.94 99.78 74.67 100.02 72.24 100.1 69.64 100.1 69.64 100.1 69.64"/>
        <path class="cls-6" d="M53.28,130.24c0-41.36-9.48-64.81-9.48-64.81"/>
        <path class="cls-6" d="M67.04,130.24c0-41.36,9.48-64.81,9.48-64.81"/>
        <path class="cls-8" d="M63.14,66.42c0,4.31-3.49,7.8-7.8,7.8s-7.8-3.49-7.8-7.8c0-1.33.44-4.87,2.9-4.87s3.1,3.43,3.1,4.88c0,4.94-4.09,7.39-8.87,8.08"/>
        <path class="cls-8" d="M72.74,66.41c0,4.31-3.49,7.8-7.8,7.8s-7.8-3.49-7.8-7.8c0-1.33.44-4.87,2.9-4.87s3.1,3.43,3.1,4.89"/>
        <path class="cls-8" d="M74.53,74.21c-4.31,0-7.8-3.49-7.8-7.8,0-1.33.44-4.87,2.9-4.87s3.1,3.43,3.1,4.89"/>
        <line class="cls-7" x1="60.16" y1="16.9" x2="60.16" y2="2.81"/>
        <line class="cls-7" x1="80.09" y1="20.68" x2="84.99" y2="7.47"/>
        <line class="cls-7" x1="96.27" y1="31.68" x2="107.22" y2="22.82"/>
        <line class="cls-7" x1="106.72" y1="46.83" x2="120.59" y2="44.41"/>
        <line class="cls-7" x1="16.69" y1="46.96" x2="2.81" y2="44.54"/>
        <line class="cls-7" x1="25.63" y1="31.68" x2="14.68" y2="22.82"/>
        <line class="cls-7" x1="39.96" y1="20.68" x2="35.06" y2="7.47"/>
      </g>
      <path class="cls-9" d="M275.28,178.71c0,7.69-6.3,13.99-13.99,13.99h-23.5v37.49l-37.35-37.49h-70.22c-7.69,0-13.99-6.29-13.99-13.99v-74.41c0-7.69,6.29-13.99,13.99-13.99h131.06c7.69,0,13.99,6.29,13.99,13.99v74.41Z"/>
      <g>
        <path class="cls-9" d="M2.51,265.28c0,7.69,6.3,13.99,13.99,13.99h23.5v37.49s37.35-37.49,37.35-37.49h70.22c7.69,0,13.99-6.29,13.99-13.99v-74.41c0-7.69-6.29-13.99-13.99-13.99H16.49c-7.69,0-13.99,6.29-13.99,13.99v74.41Z"/>
        <path class="cls-4" d="M93.95,208.7h11.78v47.03h-11.78v-4.96c-4.61,4.34-9.12,6.2-14.52,6.2-6.11,0-11.34-2.39-15.76-7.08-4.43-4.69-6.64-10.63-6.64-17.62s2.13-13.2,6.38-17.8c4.34-4.69,9.56-7,15.68-7,5.67,0,10.63,2.12,14.88,6.38v-5.14ZM81.55,218.35c-3.63,0-6.73,1.33-9.12,3.9-2.39,2.57-3.63,5.93-3.63,9.92s1.24,7.44,3.63,10.1c2.48,2.57,5.49,3.9,9.12,3.9s6.82-1.33,9.21-3.9c2.48-2.57,3.72-6.02,3.72-10.18,0-8.15-5.49-13.73-12.93-13.73Z"/>
      </g>
      <g id="Layer_1-2" data-name="Layer 1-2">
        <g>
          <path class="cls-4" d="M180.45,117.39c-2.36-2.57-7.13-6.33-10.96-8.84-1.13,1.05-2.26,2.09-3.28,3.12,3.86,2.73,8.55,6.74,10.68,9.33,1.12-1.16,2.35-2.33,3.56-3.61ZM178.82,154.62c-.29-9.2-.7-18.38-.98-27.46-4.89.12-9.86.48-14.73.72.19,1.57.15,3.17.32,4.63,3.17-.15,6.46-.31,9.75-.47.34,7.71.67,15.31,1.01,22.9.13,3.06-2.07,5.6-3.33,6.55,1.01.79,2.48,2.67,3.06,3.74,1.09-1.38,2.6-3.04,13.85-12.01-.68-.94-1.58-2.78-2.08-4.08-2.3,1.75-4.59,3.62-6.87,5.49h0ZM217.11,159.42c-7.42-.15-14.84-.18-22.23-.1-.06-4.32-.11-8.65-.16-12.86,7.51-.09,15.15-.09,22.7.16-.06,4.34-.24,8.58-.29,12.91h0v-.11ZM227.23,131.33c.04-1.6.09-3.09.13-4.69-6.19-.29-12.35-.36-18.63-.41.07-4.22.14-8.45.09-12.66,5.59-.89,10.96-1.76,15.28-2.84-1.18-1.34-2.5-2.78-3.68-4.12-8.28,2.24-22.98,4.21-35.34,5.67.58,1.07,1.48,2.9,1.73,4.01,5.28-.63,11.01-1.31,16.75-1.99.02,3.99.02,7.86-.08,11.86-5.92.02-11.96.05-17.98.19.07,1.59.04,3.19.1,4.66,5.91-.13,11.82-.26,17.76-.17-.02,3.65-.05,7.3-.07,10.95-4.67-.02-9.35-.03-14.01.07.17,8.19.35,16.37.52,24.56,1.59-.07,3.3-.05,4.9-.01-.11-.9.02-1.71-.08-2.61,7.4-.08,14.7-.03,22.01.13-.02.8-.04,1.6-.06,2.4,1.71.02,3.42.05,5.15.19.29-8.13.48-16.13.77-24.25-4.69-.13-9.49-.24-14.18-.37.02-3.65.05-7.3.07-10.95,6.16.07,12.34.25,18.4.44l.45-.05Z"/>
          <path class="cls-4" d="M180.45,117.39c-2.36-2.57-7.13-6.33-10.96-8.84-1.13,1.05-2.26,2.09-3.28,3.12,3.86,2.73,8.55,6.74,10.68,9.33,1.12-1.16,2.35-2.33,3.56-3.61ZM178.82,154.62c-.29-9.2-.7-18.38-.98-27.46-4.89.12-9.86.48-14.73.72.19,1.57.15,3.17.32,4.63,3.17-.15,6.46-.31,9.75-.47.34,7.71.67,15.31,1.01,22.9.13,3.06-2.07,5.6-3.33,6.55,1.01.79,2.48,2.67,3.06,3.74,1.09-1.38,2.6-3.04,13.85-12.01-.68-.94-1.58-2.78-2.08-4.08-2.3,1.75-4.59,3.62-6.87,5.49h0ZM217.11,159.42c-7.42-.15-14.84-.18-22.23-.1-.06-4.32-.11-8.65-.16-12.86,7.51-.09,15.15-.09,22.7.16-.06,4.34-.24,8.58-.29,12.91h0v-.11ZM227.23,131.33c.04-1.6.09-3.09.13-4.69-6.19-.29-12.35-.36-18.63-.41.07-4.22.14-8.45.09-12.66,5.59-.89,10.96-1.76,15.28-2.84-1.18-1.34-2.5-2.78-3.68-4.12-8.3,2.12-22.98,4.21-35.34,5.67.58,1.07,1.48,2.9,1.73,4.01,5.28-.63,11.01-1.31,16.75-1.99.02,3.99.02,7.86-.08,11.86-5.92.02-11.96.05-17.98.19.07,1.59.04,3.19.1,4.66,5.91-.13,11.82-.26,17.76-.17-.02,3.65-.05,7.3-.07,10.95-4.67-.02-9.34.08-14.01.07.17,8.19.35,16.37.52,24.56,1.59-.07,3.3-.05,4.9-.01-.11-.9.02-1.71-.08-2.61,7.4-.08,14.7-.03,22.01.13-.02.8-.04,1.6-.06,2.4,1.71.02,3.42.05,5.15.19.29-8.13.48-16.13.77-24.25-4.69-.13-9.49-.24-14.18-.37.02-3.65.05-7.3.07-10.95,6.16.07,12.34.25,18.4.44h0l.45-.05Z"/>
        </g>
      </g>
    </g>
  </g>
</svg>