<?xml version="1.0" encoding="UTF-8"?>
<svg id="Layer_2" data-name="Layer 2" xmlns="http://www.w3.org/2000/svg" viewBox="0 0 116.31 59.16">
  <defs>
    <style>
      .cls-1 {
        stroke-width: 2px;
      }

      .cls-1, .cls-2, .cls-3 {
        fill: none;
        stroke: #fff;
        stroke-miterlimit: 10;
      }

      .cls-4 {
        fill: #231f20;
      }

      .cls-4, .cls-5, .cls-6 {
        stroke-width: 0px;
      }

      .cls-3 {
        stroke-width: 1.5px;
      }

      .cls-5 {
        fill: #fff;
      }

      .cls-6 {
        fill: #c4202e;
      }
    </style>
  </defs>
  <g id="Layer_1-2" data-name="Layer 1">
    <g>
      <g>
        <path class="cls-4" d="M0,43.69h3.46l2.83,7.98,3.04-7.98h2.09l2.99,7.9,2.83-7.9h3.49l-5.13,14.03h-2.25l-2.99-8.01-3.09,8.01h-2.19L0,43.69Z"/>
        <path class="cls-6" d="M24.1,37.9c1.24,0,2.25,1.03,2.25,2.3s-1.03,2.27-2.22,2.27c-1.27,0-2.27-1.03-2.27-2.33s.98-2.25,2.25-2.25ZM22.33,43.69h3.54v14.03h-3.54v-14.03Z"/>
        <path class="cls-4" d="M37.66,45.64l-2.19,2.17c-.87-.87-1.69-1.29-2.4-1.29-.82,0-1.27.37-1.27.87,0,.4.13.63,1.27,1.16l1.29.66c2.72,1.35,3.54,2.62,3.54,4.49,0,1.24-.45,2.3-1.37,3.15-.92.82-2.14,1.24-3.67,1.24-2.04,0-3.67-.79-4.92-2.41l2.17-2.38c.85.98,2.09,1.64,2.93,1.64.95,0,1.56-.56,1.56-1.11s-.5-1.08-1.53-1.61l-1.19-.58c-2.27-1.14-3.41-2.59-3.41-4.31,0-1.11.42-2.06,1.27-2.83.87-.79,1.96-1.19,3.3-1.19,1.82,0,3.49.82,4.62,2.33Z"/>
        <path class="cls-4" d="M40.7,38.27h3.49v6.82c1.38-1.16,2.75-1.77,4.2-1.77s2.56.48,3.52,1.45c.82.82,1.24,2.06,1.24,3.67v9.28h-3.49v-6.16c0-1.61-.08-2.72-.24-3.3-.29-1.16-1.08-1.72-2.17-1.72-1.45,0-2.51,1.03-2.91,2.64-.11.42-.16,1.4-.16,2.91v5.63h-3.49v-19.45Z"/>
      </g>
      <g>
        <path class="cls-6" d="M74.05,38.97c1.24,0,2.25,1.03,2.25,2.3s-1.03,2.27-2.22,2.27c-1.27,0-2.27-1.03-2.27-2.33s.98-2.25,2.25-2.25ZM72.28,44.76h3.54v14.03h-3.54v-14.03Z"/>
        <path class="cls-4" d="M79.42,39.58h3.51v5.18h2.09v3.01h-2.09v11.02h-3.51v-11.02h-1.8v-3.01h1.8v-5.18Z"/>
        <path class="cls-4" d="M100.67,47.59l-2.91,1.61c-1.14-1.16-2.09-1.53-3.54-1.53-1.29,0-2.38.4-3.2,1.19-.82.77-1.22,1.77-1.22,3.01,0,2.41,1.72,4.07,4.25,4.07,1.59,0,2.83-.53,3.7-1.61l2.77,1.9c-1.51,1.96-3.65,2.93-6.4,2.93-2.46,0-4.39-.74-5.79-2.19-1.4-1.45-2.09-3.17-2.09-5.15-.11-4.07,3.44-7.53,7.93-7.43,2.78,0,5.07,1.16,6.48,3.2Z"/>
        <path class="cls-4" d="M103.86,39.34h3.49v6.82c1.37-1.16,2.75-1.77,4.2-1.77s2.56.48,3.52,1.45c.82.82,1.24,2.06,1.24,3.67v9.28h-3.49v-6.16c0-1.61-.08-2.72-.24-3.3-.29-1.16-1.08-1.72-2.17-1.72-1.45,0-2.51,1.03-2.91,2.64-.11.42-.16,1.4-.16,2.91v5.63h-3.49v-19.45Z"/>
      </g>
      <g>
        <g>
          <path class="cls-6" d="M50.36,9.21c3.96-.11,7.58,3.44,7.45,7.37.08,3.96-3.36,7.53-7.45,7.4-2.01,0-3.73-.71-5.15-2.14-1.4-1.45-2.11-3.2-2.11-5.23,0-2.19.79-4.04,2.4-5.5,1.4-1.27,3.04-1.9,4.86-1.9ZM50.42,12.54c-1.08,0-2.01.37-2.75,1.14-.71.77-1.08,1.72-1.08,2.91s.37,2.22,1.08,2.99c.71.77,1.64,1.14,2.72,1.14,2.22,0,3.86-1.69,3.86-4.12s-1.61-4.04-3.83-4.04Z"/>
          <path class="cls-4" d="M59.43,9.58h4.07l2.75,3.83,2.8-3.83h4.04l-4.81,6.63,5.42,7.4h-4.1l-3.36-4.6-3.3,4.6h-4.04l5.34-7.4-4.81-6.63Z"/>
        </g>
        <g>
          <path class="cls-1" d="M45.17,6.16c5.01-4.56,10.8-5.3,15.93-2.41"/>
          <polygon class="cls-5" points="57.65 6.33 65.56 7.37 62.51 0 57.65 6.33"/>
        </g>
      </g>
      <g>
        <path class="cls-1" d="M23.65,34.78c4.92-7.75,11.09-8.86,16.81-3.28"/>
        <polygon class="cls-5" points="36.55 33.25 44.04 35.99 42.67 28.13 36.55 33.25"/>
      </g>
      <g>
        <path class="cls-2" d="M24.23,34.77c4.81-2.24,7.24-1.67,9.3,1.23"/>
        <polygon class="cls-5" points="31.48 36.57 34.98 38.48 34.88 34.49 31.48 36.57"/>
      </g>
      <g>
        <path class="cls-3" d="M73.7,37.04c4.65-9.23,15.36-8.98,19.17-1.07"/>
        <polygon class="cls-5" points="89.62 36.13 94.09 40.11 95.31 34.26 89.62 36.13"/>
      </g>
      <g>
        <path class="cls-2" d="M74.28,37.03c2.75-2.56,4.83-2.41,6.29-.9"/>
        <polygon class="cls-5" points="78.48 36.8 82.05 38.59 81.81 34.61 78.48 36.8"/>
      </g>
      <g>
        <path class="cls-1" d="M73.7,37.04c5.37-17.41,21.07-20.01,28.94-5.32"/>
        <polygon class="cls-5" points="98.42 32.32 104.87 37.01 105.71 29.08 98.42 32.32"/>
      </g>
    </g>
  </g>
</svg>