<?xml version="1.0" encoding="UTF-8"?>
<svg id="Layer_2" data-name="Layer 2" xmlns="http://www.w3.org/2000/svg" viewBox="0 0 126.83 96.9">
  <defs>
    <style>
      .cls-1 {
        fill: #fbc69f;
      }

      .cls-1, .cls-2, .cls-3, .cls-4, .cls-5, .cls-6, .cls-7, .cls-8 {
        stroke-width: 0px;
      }

      .cls-2 {
        fill: #414142;
      }

      .cls-3 {
        fill: #e2ac85;
      }

      .cls-9 {
        fill: none;
        stroke: #414142;
        stroke-linecap: round;
        stroke-miterlimit: 10;
        stroke-width: .65px;
      }

      .cls-4 {
        fill: #998575;
      }

      .cls-5 {
        fill: #a2d075;
      }

      .cls-6 {
        fill: #736458;
      }

      .cls-7 {
        fill: #85c446;
      }

      .cls-8 {
        fill: #fff;
      }
    </style>
  </defs>
  <g id="Layer_1-2" data-name="Layer 1">
    <g>
      <path class="cls-8" d="M118.33,0h-43.61c-4.7,0-8.51,3.87-8.51,8.64v18.85c0,4.77,3.81,8.64,8.51,8.64h3.24l-3.13,8.64c-.52,1.43.06,1.88,1.29,1.01l13.53-9.64h28.68c4.7,0,8.51-3.87,8.51-8.64V8.64c0-4.77-3.81-8.64-8.51-8.64Z"/>
      <g>
        <g>
          <path class="cls-1" d="M28.69,68.71h0s-.07,0-.05,0h.05Z"/>
          <path class="cls-1" d="M69.61,68.71h.05s-.01-.01-.06-.01h0Z"/>
          <path class="cls-1" d="M59.6,54.6l-3.91-1.37c-.1-.27-.15-4.91-.15-5.21,0-2.58-1.19-.81-3.47-2-2.28-1.2-5.36-.84-7.47.64-2.15,1.52-1.86,3.18-1.86,5.72,0,.3-.05.59-.15.86l-3.79,1.53s7.32,7,10.24,7c3.19,0,10.55-7.17,10.55-7.17Z"/>
        </g>
        <path class="cls-3" d="M55.55,49.35h-12.79l-.15,3.88c9.45.86,12.94-3.88,12.94-3.88"/>
        <path class="cls-1" d="M63.01,72.3c-2.51-.63.43-2.01,2.95-1.37l6.51-1.36,12.08-12.36.9-3.14c.02-.06.2-1.68.22-1.88l-.22-1.74c-.06-.49.29-.95.78-1.01.49-.06.95.29,1.01.78l.35,2.82c.19.48.68.54.91.54.28,0,.54,0,1.22-.73l3.41-4.02c.32-.38.9-.43,1.28-.11.38.32.43.9.11,1.28l-3.15,3.72.22.24,4.51-3.43c.4-.3.97-.23,1.27.17.3.4.23.97-.17,1.27l-4.66,3.54.09.24,4.44-2c.46-.21.99,0,1.2.45.21.46,0,.99-.45,1.2l-4.71,2.12.07.44,3.3-.56c.49-.08.96.25,1.05.74.08.49-.25.96-.74,1.05l-5.03.86-3.58,1.45-12.88,18.05c-1.91,2.67-5.91,2.58-7.69-.18l-4.57-7.07Z"/>
        <g>
          <path class="cls-4" d="M70.33,12.82c-1.09-5.99-7.03-6.45-7.03-6.45.92-2.14,1.1-5.53,1.1-5.53,0,0-29.24,1.98-32.08,8.42h0s-5.28-1.86-5.28,8.78c0,4.96,2.28,16.15,2.28,16.15l7.57,3.21,31.82-2.9s3.59-10.8,1.61-21.67Z"/>
          <path class="cls-6" d="M63.3,6.36c.92-2.14,1.1-5.53,1.1-5.53,0,0-29.24,1.98-32.08,8.42h0s-5.28-1.86-5.28,8.78c0,4.96,1.31,16.15,1.31,16.15"/>
          <path class="cls-1" d="M68.21,27.82v-2.96c0-4.09-2.27-7.41-6-7.41h-25.06c-3.73,0-6.75,3.32-6.75,7.41v2.96c-2.24,0-4.05,1.99-4.05,4.44s1.81,4.44,4.05,4.44v1.48c0,3.59,1.97,6.82,4.99,8.2l8.73,3.99c1.65.75,3.41,1.14,5.2,1.14s3.55-.39,5.19-1.14l8.73-3.99c3.02-1.38,4.99-4.62,4.99-8.2v-1.48c2.24,0,4.05-1.99,4.05-4.44s-1.81-4.44-4.05-4.44"/>
          <path class="cls-3" d="M37.48,43.32c-1.09-1.29-1.69-2.99-1.69-4.75v-17c4.75-.58,15.08-1.95,25.66-4.13h-24.31c-.47,0-.92.06-1.35.16h0c-3.08.67-5.4,3.66-5.4,7.24v2.96c-2.24,0-4.05,1.99-4.05,4.44s1.81,4.44,4.05,4.44v1.48c0,3.59,1.97,6.83,4.99,8.21l8.73,3.99c.43.2.86.36,1.3.51-3.86-3.09-6.42-5.8-7.93-7.57"/>
          <path class="cls-8" d="M41.81,30.08c1.84,0,3.33,1.49,3.33,3.33s-1.49,3.33-3.33,3.33-3.33-1.49-3.33-3.33,1.49-3.33,3.33-3.33Z"/>
          <path class="cls-1" d="M40.12,35.11c-1.19-.19-2.35,0-3.3.44-1.29.6,4.05,8.15,4.93,7.82,1.47-.56,2.56-1.72,2.79-3.2.37-2.36-1.62-4.62-4.42-5.06Z"/>
          <path class="cls-2" d="M41.81,31.65c.99,0,1.78.8,1.78,1.78s-.8,1.78-1.78,1.78-1.79-.8-1.79-1.78.8-1.78,1.79-1.78Z"/>
          <path class="cls-8" d="M42.37,32.34c.29,0,.53.24.53.54s-.24.53-.53.53-.53-.24-.53-.53.24-.54.53-.54Z"/>
          <path class="cls-8" d="M58.03,30.08c1.84,0,3.33,1.49,3.33,3.33s-1.49,3.33-3.33,3.33-3.33-1.49-3.33-3.33,1.49-3.33,3.33-3.33Z"/>
          <path class="cls-1" d="M59.55,35.11c2.81-.43,5.38,1.12,5.74,3.48.37,2.36-1.61,4.63-4.42,5.06-2.8.43-5.38-1.12-5.75-3.49-.36-2.36,1.62-4.62,4.42-5.06Z"/>
          <path class="cls-9" d="M59.12,25.52c1.84,0,3.33,1.49,3.33,3.33"/>
          <path class="cls-2" d="M58.03,31.65c.99,0,1.78.8,1.78,1.78s-.8,1.78-1.78,1.78-1.79-.8-1.79-1.78.8-1.78,1.79-1.78Z"/>
          <path class="cls-8" d="M58.59,32.34c.3,0,.53.24.53.54s-.24.53-.53.53-.53-.24-.53-.53.24-.54.53-.54Z"/>
          <path class="cls-9" d="M40.14,25.52c-1.84,0-3.33,1.49-3.33,3.33"/>
          <path class="cls-3" d="M52.49,40.73c-.58-.19-.48-.88-.77-.9-.28-.02.06.71-.87,1.21-.41.17-.81.34-1.15.34-.01,0-.03,0-.04,0s-.02,0-.04,0c-.31,0-.67-.14-1.04-.3h0c-1.03-.5-.65-1.28-.94-1.25-.29.02-.19.71-.77.9-.9-.03-1.41-.21-1.71-.51.1.93.52,1.46,2.32,1.42.69-.02,1.53.65,2.15.65.01,0,.02,0,.03,0s.02,0,.03,0c.61,0,1.45-.66,2.15-.65,1.79.04,2.22-.49,2.32-1.42-.29.3-.8.48-1.67.51Z"/>
          <path class="cls-2" d="M53.36,43.93c0,1.7-1.66,3.08-3.7,3.08s-3.7-1.38-3.7-3.08"/>
        </g>
        <path class="cls-1" d="M35.33,72.3c2.51-.63,4.86-.9,2.35-.26l-11.8-2.47-12.08-12.36-.9-3.14c-.02-.06-.2-1.68-.22-1.88l.22-1.74c.06-.49-.29-.95-.78-1.01-.49-.06-.95.29-1.01.78l-.35,2.82c-.19.48-.68.54-.91.54-.28,0-.54,0-1.22-.73l-3.41-4.02c-.32-.38-.9-.43-1.28-.11-.38.32-.43.9-.11,1.28l3.15,3.72-.22.24-4.51-3.43c-.4-.3-.97-.23-1.27.17-.3.4-.23.97.17,1.27l4.66,3.54-.09.24-4.44-2c-.46-.21-.99,0-1.2.45-.21.46,0,.99.45,1.2l4.71,2.12-.07.44-3.3-.56c-.49-.08-.96.25-1.05.74-.08.49.25.96.74,1.05l5.03.86,3.58,1.45,12.88,18.05c1.91,2.67,5.91,2.58,7.69-.18l4.57-7.07Z"/>
        <path class="cls-5" d="M35.46,66.65l-3.65-9.09c-.5.69-6.11,12.35-6.11,12.35,0,0,6.93,4.93,9.76,5.3v-8.57Z"/>
        <path class="cls-5" d="M62.93,66.65l3.65-9.09c.5.69,6.11,12.35,6.11,12.35,0,0-6.93,4.93-9.76,5.3v-8.57Z"/>
        <path class="cls-7" d="M66.59,57.56l-9.26-3.89c-1,2.47-8.03,5.41-8.12,5.45-.1-.04-7.13-2.99-8.12-5.45l-9.26,3.89,3.65,9.08-.12,28.75c3.72.98,9.69,1.5,13.71,1.5.05,0,.1-.03.14-.04.05.01.09.04.14.04,4.02,0,10-.52,13.71-1.5l-.12-28.75,3.65-9.08Z"/>
      </g>
    </g>
  </g>
</svg>