<?xml version="1.0" encoding="UTF-8"?>
<svg id="Layer_2" data-name="Layer 2" xmlns="http://www.w3.org/2000/svg" viewBox="0 0 81.93 61.82">
  <defs>
    <style>
      .cls-1 {
        fill: #9d4098;
        stroke-width: 0px;
      }

      .cls-2 {
        fill: none;
        stroke: #00a7b8;
        stroke-miterlimit: 10;
        stroke-width: 5px;
      }
    </style>
  </defs>
  <g id="Layer_1-2" data-name="Layer 1">
    <g>
      <path class="cls-1" d="M35.91,9.43l-8.28,7.38c-2.87-4.02-5.82-6.07-8.85-6.07s-5,1.8-5,3.77c0,.98.33,1.97.98,2.87.9,1.15,3.69,3.69,8.2,7.54,4.26,3.53,6.89,5.82,7.79,6.72,4.59,4.59,6.23,8.53,6.23,13.45s-1.64,8.85-5,12.05c-3.36,3.12-7.71,4.67-13.04,4.67-8.44,0-14.43-3.94-18.94-12.79l9.43-5.66c2.87,5.17,6.07,7.79,9.76,7.79s6.8-2.62,6.8-5.58c0-1.31-.49-2.62-1.48-3.93-.98-1.39-3.2-3.44-6.56-6.15-6.4-5.25-10.49-9.26-12.38-12.13-1.89-2.87-2.79-5.66-2.79-8.53,0-4.02,1.56-7.54,4.59-10.41C10.49,1.48,14.35,0,18.94,0c5.9,0,10.82,2.21,16.97,9.43Z"/>
      <g>
        <path class="cls-2" d="M58.3,16.52c8.07,8.07,8.07,21.14,0,29.22"/>
        <path class="cls-2" d="M68.95,5.86c13.96,13.96,13.96,36.56,0,50.53"/>
        <path class="cls-2" d="M49.3,25.51c3.1,3.1,3.1,8.13,0,11.23"/>
      </g>
    </g>
  </g>
</svg>