<svg xmlns="http://www.w3.org/2000/svg" xmlns:xlink="http://www.w3.org/1999/xlink" width="151" zoomAndPan="magnify" viewBox="0 0 113.25 131.249998" height="175" preserveAspectRatio="xMidYMid meet" version="1.0"><defs><clipPath id="1cb78a26be"><path d="M 0 0.0585938 L 112.238281 0.0585938 L 112.238281 98.125 L 0 98.125 Z M 0 0.0585938 " clip-rule="nonzero"/></clipPath><clipPath id="3278d069e1"><path d="M 73.128906 0.0585938 L 38.941406 0.0585938 C 17.433594 0.0585938 0 17.089844 0 38.097656 C 0 53.304688 9.140625 66.425781 22.34375 72.511719 L 22.34375 98.125 L 48.789062 76.136719 L 73.128906 76.136719 C 94.640625 76.136719 112.074219 59.105469 112.074219 38.097656 C 112.074219 17.089844 94.640625 0.0585938 73.128906 0.0585938 Z M 73.128906 0.0585938 " clip-rule="nonzero"/></clipPath><clipPath id="69e76f8464"><path d="M 46.59375 49 L 104.710938 49 L 104.710938 130.230469 L 46.59375 130.230469 Z M 46.59375 49 " clip-rule="nonzero"/></clipPath><clipPath id="ac60cd8abd"><path d="M 46.59375 37.097656 L 87 37.097656 L 87 68 L 46.59375 68 Z M 46.59375 37.097656 " clip-rule="nonzero"/></clipPath><clipPath id="09f6a9df66"><path d="M 74 82 L 104.710938 82 L 104.710938 130.230469 L 74 130.230469 Z M 74 82 " clip-rule="nonzero"/></clipPath><clipPath id="f4e340c79e"><path d="M 20 15 L 45 15 L 45 58 L 20 58 Z M 20 15 " clip-rule="nonzero"/></clipPath><clipPath id="cace254c2e"><path d="M 20.109375 15.507812 L 45.425781 14.695312 L 46.792969 57.140625 L 21.472656 57.957031 Z M 20.109375 15.507812 " clip-rule="nonzero"/></clipPath><clipPath id="dc47d73540"><path d="M 20.109375 15.507812 L 45.425781 14.695312 L 46.792969 57.140625 L 21.472656 57.957031 Z M 20.109375 15.507812 " clip-rule="nonzero"/></clipPath></defs><g clip-path="url(#1cb78a26be)"><g clip-path="url(#3278d069e1)"><path fill="#d9d9d9" d="M 0 0.0585938 L 112.238281 0.0585938 L 112.238281 98.125 L 0 98.125 Z M 0 0.0585938 " fill-opacity="1" fill-rule="nonzero"/></g></g><g clip-path="url(#69e76f8464)"><path fill="#fbbd80" d="M 59.984375 86.5625 L 59.984375 56.070312 C 59.984375 55.640625 60.027344 55.214844 60.113281 54.796875 C 60.195312 54.375 60.320312 53.96875 60.484375 53.574219 C 60.648438 53.175781 60.851562 52.800781 61.089844 52.445312 C 61.328125 52.089844 61.601562 51.757812 61.902344 51.457031 C 62.207031 51.152344 62.539062 50.882812 62.894531 50.644531 C 63.253906 50.40625 63.632812 50.207031 64.027344 50.042969 C 64.425781 49.878906 64.835938 49.753906 65.257812 49.671875 C 65.679688 49.585938 66.105469 49.546875 66.535156 49.546875 C 66.964844 49.546875 67.390625 49.585938 67.8125 49.671875 C 68.234375 49.753906 68.644531 49.878906 69.039062 50.042969 C 69.4375 50.207031 69.816406 50.40625 70.171875 50.644531 C 70.53125 50.882812 70.863281 51.152344 71.164062 51.457031 C 71.46875 51.757812 71.742188 52.089844 71.980469 52.445312 C 72.21875 52.800781 72.421875 53.175781 72.585938 53.574219 C 72.75 53.96875 72.875 54.375 72.957031 54.796875 C 73.042969 55.214844 73.082031 55.640625 73.082031 56.070312 L 73.082031 73.695312 C 73.550781 73.335938 74.0625 73.046875 74.609375 72.824219 C 75.15625 72.601562 75.722656 72.457031 76.3125 72.390625 C 76.898438 72.320312 77.484375 72.332031 78.070312 72.421875 C 78.652344 72.507812 79.214844 72.675781 79.753906 72.914062 C 80.292969 73.15625 80.792969 73.464844 81.246094 73.839844 C 81.703125 74.214844 82.101562 74.640625 82.441406 75.125 C 82.78125 75.605469 83.050781 76.125 83.246094 76.679688 C 83.445312 77.234375 83.566406 77.804688 83.613281 78.390625 C 84.09375 78.019531 84.621094 77.71875 85.1875 77.488281 C 85.757812 77.261719 86.347656 77.117188 86.953125 77.054688 C 87.5625 76.992188 88.171875 77.015625 88.773438 77.121094 C 89.375 77.226562 89.953125 77.414062 90.503906 77.683594 C 91.050781 77.953125 91.554688 78.289062 92.007812 78.699219 C 92.464844 79.105469 92.855469 79.570312 93.179688 80.085938 C 93.503906 80.605469 93.75 81.15625 93.917969 81.742188 C 94.085938 82.328125 94.171875 82.929688 94.171875 83.539062 L 94.171875 83.800781 C 95.347656 82.890625 96.679688 82.4375 98.167969 82.433594 C 98.191406 82.433594 98.214844 82.441406 98.375 82.445312 C 99.210938 82.472656 100.015625 82.648438 100.78125 82.980469 C 101.550781 83.308594 102.234375 83.769531 102.828125 84.355469 C 103.429688 84.941406 103.894531 85.621094 104.222656 86.390625 C 104.550781 87.164062 104.714844 87.96875 104.71875 88.808594 C 104.71875 88.832031 104.71875 88.84375 104.714844 89.003906 C 104.1875 105.625 99.332031 116.625 92.722656 123.023438 C 90.25 125.449219 87.402344 127.289062 84.171875 128.550781 C 81.183594 129.699219 78.09375 130.222656 74.894531 130.121094 C 68.449219 129.917969 62.195312 127.136719 57.53125 122.359375 C 51.535156 116.21875 48.113281 109.164062 47.140625 102.992188 C 46.601562 99.597656 46.808594 96.449219 47.730469 93.839844 C 48.691406 91.113281 50.425781 88.972656 52.902344 87.710938 C 54.839844 86.722656 57.203125 86.289062 59.984375 86.5625 Z M 59.984375 86.5625 " fill-opacity="1" fill-rule="nonzero"/></g><g clip-path="url(#ac60cd8abd)"><path fill="#39aaff" d="M 65.253906 38.375 C 65.253906 38.207031 65.289062 38.046875 65.351562 37.890625 C 65.417969 37.734375 65.507812 37.597656 65.628906 37.476562 C 65.75 37.359375 65.886719 37.265625 66.042969 37.199219 C 66.199219 37.136719 66.363281 37.105469 66.53125 37.105469 C 66.703125 37.105469 66.863281 37.136719 67.019531 37.199219 C 67.175781 37.265625 67.316406 37.359375 67.433594 37.476562 C 67.554688 37.597656 67.648438 37.734375 67.710938 37.890625 C 67.777344 38.046875 67.808594 38.207031 67.808594 38.375 L 67.808594 45.0625 C 67.808594 45.230469 67.777344 45.394531 67.710938 45.550781 C 67.648438 45.707031 67.554688 45.84375 67.433594 45.960938 C 67.316406 46.082031 67.175781 46.171875 67.019531 46.238281 C 66.863281 46.300781 66.703125 46.335938 66.53125 46.335938 C 66.363281 46.335938 66.199219 46.300781 66.042969 46.238281 C 65.886719 46.171875 65.75 46.082031 65.628906 45.960938 C 65.507812 45.84375 65.417969 45.707031 65.351562 45.550781 C 65.289062 45.394531 65.253906 45.230469 65.253906 45.0625 Z M 56.199219 41.472656 C 56.121094 41.328125 56.074219 41.171875 56.054688 41.007812 C 56.035156 40.84375 56.046875 40.679688 56.09375 40.519531 C 56.140625 40.363281 56.210938 40.21875 56.3125 40.085938 C 56.417969 39.957031 56.539062 39.847656 56.683594 39.765625 C 56.828125 39.683594 56.980469 39.628906 57.144531 39.609375 C 57.308594 39.585938 57.472656 39.59375 57.632812 39.632812 C 57.792969 39.675781 57.941406 39.742188 58.078125 39.839844 C 58.210938 39.941406 58.320312 40.058594 58.40625 40.199219 L 61.765625 45.988281 C 61.84375 46.136719 61.890625 46.289062 61.910156 46.453125 C 61.929688 46.617188 61.914062 46.78125 61.871094 46.941406 C 61.824219 47.097656 61.753906 47.246094 61.652344 47.375 C 61.546875 47.507812 61.425781 47.613281 61.28125 47.695312 C 61.136719 47.777344 60.984375 47.832031 60.820312 47.855469 C 60.65625 47.878906 60.492188 47.867188 60.332031 47.828125 C 60.167969 47.785156 60.023438 47.71875 59.886719 47.621094 C 59.753906 47.523438 59.644531 47.402344 59.558594 47.261719 Z M 49.914062 48.667969 C 49.769531 48.582031 49.652344 48.472656 49.550781 48.339844 C 49.453125 48.207031 49.382812 48.058594 49.339844 47.898438 C 49.300781 47.738281 49.289062 47.578125 49.3125 47.414062 C 49.335938 47.25 49.386719 47.097656 49.46875 46.953125 C 49.554688 46.808594 49.660156 46.6875 49.789062 46.585938 C 49.921875 46.484375 50.066406 46.410156 50.226562 46.363281 C 50.386719 46.320312 50.546875 46.304688 50.714844 46.324219 C 50.878906 46.339844 51.035156 46.390625 51.179688 46.46875 L 56.992188 49.8125 C 57.136719 49.894531 57.261719 50.003906 57.363281 50.136719 C 57.464844 50.269531 57.539062 50.417969 57.582031 50.578125 C 57.625 50.742188 57.636719 50.90625 57.613281 51.070312 C 57.59375 51.238281 57.539062 51.394531 57.457031 51.539062 C 57.371094 51.683594 57.265625 51.808594 57.132812 51.910156 C 57 52.011719 56.851562 52.085938 56.6875 52.132812 C 56.527344 52.175781 56.363281 52.1875 56.195312 52.167969 C 56.027344 52.144531 55.871094 52.09375 55.726562 52.011719 Z M 48.078125 58.027344 C 47.910156 58.023438 47.75 57.992188 47.59375 57.925781 C 47.441406 57.859375 47.304688 57.769531 47.1875 57.648438 C 47.070312 57.53125 46.980469 57.394531 46.914062 57.242188 C 46.851562 57.085938 46.820312 56.925781 46.820312 56.757812 C 46.820312 56.59375 46.851562 56.433594 46.914062 56.277344 C 46.980469 56.125 47.070312 55.988281 47.1875 55.867188 C 47.304688 55.75 47.441406 55.65625 47.59375 55.59375 C 47.75 55.527344 47.910156 55.492188 48.078125 55.492188 L 54.789062 55.492188 C 54.960938 55.488281 55.125 55.519531 55.28125 55.585938 C 55.4375 55.648438 55.578125 55.738281 55.699219 55.859375 C 55.820312 55.976562 55.914062 56.113281 55.980469 56.269531 C 56.042969 56.425781 56.078125 56.589844 56.078125 56.757812 C 56.078125 56.929688 56.042969 57.089844 55.980469 57.246094 C 55.914062 57.402344 55.820312 57.542969 55.699219 57.660156 C 55.578125 57.78125 55.4375 57.871094 55.28125 57.933594 C 55.125 57.996094 54.960938 58.027344 54.789062 58.027344 Z M 51.183594 67.054688 C 51.039062 67.132812 50.882812 67.183594 50.71875 67.203125 C 50.554688 67.21875 50.390625 67.207031 50.230469 67.160156 C 50.070312 67.117188 49.925781 67.042969 49.792969 66.941406 C 49.664062 66.839844 49.554688 66.71875 49.472656 66.574219 C 49.390625 66.433594 49.335938 66.277344 49.3125 66.113281 C 49.289062 65.949219 49.300781 65.789062 49.339844 65.628906 C 49.378906 65.46875 49.449219 65.320312 49.546875 65.1875 C 49.644531 65.054688 49.765625 64.945312 49.90625 64.855469 L 55.71875 61.511719 C 55.867188 61.433594 56.023438 61.386719 56.1875 61.367188 C 56.351562 61.347656 56.515625 61.363281 56.675781 61.40625 C 56.835938 61.453125 56.980469 61.523438 57.109375 61.625 C 57.242188 61.726562 57.347656 61.851562 57.433594 61.992188 C 57.515625 62.136719 57.570312 62.289062 57.589844 62.453125 C 57.613281 62.617188 57.605469 62.78125 57.566406 62.941406 C 57.523438 63.101562 57.453125 63.25 57.355469 63.382812 C 57.257812 63.515625 57.136719 63.625 56.996094 63.710938 Z M 83.152344 64.855469 C 83.296875 64.941406 83.425781 65.046875 83.527344 65.179688 C 83.632812 65.3125 83.707031 65.460938 83.753906 65.625 C 83.796875 65.789062 83.808594 65.953125 83.789062 66.121094 C 83.765625 66.285156 83.714844 66.445312 83.628906 66.589844 C 83.542969 66.738281 83.433594 66.859375 83.300781 66.964844 C 83.164062 67.066406 83.015625 67.140625 82.851562 67.183594 C 82.6875 67.226562 82.523438 67.234375 82.355469 67.214844 C 82.1875 67.191406 82.03125 67.136719 81.882812 67.050781 L 76.070312 63.710938 C 75.929688 63.625 75.808594 63.515625 75.710938 63.382812 C 75.613281 63.25 75.542969 63.105469 75.5 62.945312 C 75.460938 62.785156 75.449219 62.625 75.472656 62.460938 C 75.496094 62.296875 75.546875 62.140625 75.628906 62 C 75.710938 61.855469 75.820312 61.734375 75.949219 61.628906 C 76.082031 61.527344 76.226562 61.457031 76.386719 61.410156 C 76.546875 61.363281 76.707031 61.351562 76.871094 61.371094 C 77.039062 61.386719 77.191406 61.4375 77.339844 61.515625 Z M 84.992188 55.492188 C 85.160156 55.488281 85.324219 55.519531 85.484375 55.582031 C 85.640625 55.648438 85.78125 55.738281 85.902344 55.859375 C 86.023438 55.976562 86.117188 56.113281 86.179688 56.269531 C 86.246094 56.425781 86.277344 56.589844 86.277344 56.757812 C 86.277344 56.929688 86.246094 57.089844 86.179688 57.246094 C 86.117188 57.402344 86.023438 57.542969 85.902344 57.660156 C 85.78125 57.78125 85.640625 57.871094 85.484375 57.933594 C 85.324219 57.996094 85.160156 58.027344 84.992188 58.027344 L 78.277344 58.027344 C 78.113281 58.023438 77.953125 57.992188 77.796875 57.925781 C 77.644531 57.859375 77.507812 57.769531 77.390625 57.648438 C 77.273438 57.53125 77.179688 57.394531 77.117188 57.242188 C 77.054688 57.085938 77.023438 56.925781 77.023438 56.757812 C 77.023438 56.59375 77.054688 56.433594 77.117188 56.277344 C 77.179688 56.125 77.273438 55.988281 77.390625 55.867188 C 77.507812 55.75 77.644531 55.65625 77.796875 55.59375 C 77.953125 55.527344 78.113281 55.492188 78.277344 55.492188 Z M 81.878906 46.46875 C 82.027344 46.378906 82.183594 46.320312 82.355469 46.292969 C 82.523438 46.269531 82.691406 46.277344 82.859375 46.320312 C 83.027344 46.359375 83.179688 46.433594 83.316406 46.535156 C 83.453125 46.640625 83.566406 46.765625 83.652344 46.914062 C 83.738281 47.0625 83.792969 47.222656 83.8125 47.390625 C 83.835938 47.5625 83.820312 47.730469 83.773438 47.894531 C 83.726562 48.058594 83.652344 48.210938 83.542969 48.34375 C 83.4375 48.476562 83.308594 48.585938 83.15625 48.667969 L 77.34375 52.011719 C 77.199219 52.09375 77.042969 52.144531 76.875 52.164062 C 76.707031 52.183594 76.542969 52.171875 76.382812 52.128906 C 76.21875 52.085938 76.070312 52.011719 75.9375 51.910156 C 75.804688 51.808594 75.695312 51.683594 75.613281 51.539062 C 75.527344 51.394531 75.476562 51.238281 75.453125 51.074219 C 75.429688 50.90625 75.441406 50.742188 75.484375 50.582031 C 75.527344 50.421875 75.597656 50.273438 75.699219 50.140625 C 75.800781 50.003906 75.921875 49.894531 76.066406 49.808594 Z M 74.660156 40.203125 C 74.746094 40.058594 74.851562 39.933594 74.988281 39.832031 C 75.121094 39.730469 75.269531 39.65625 75.429688 39.613281 C 75.59375 39.570312 75.757812 39.558594 75.925781 39.582031 C 76.09375 39.601562 76.25 39.65625 76.394531 39.738281 C 76.542969 39.824219 76.664062 39.929688 76.769531 40.0625 C 76.871094 40.195312 76.945312 40.34375 76.988281 40.507812 C 77.03125 40.667969 77.042969 40.832031 77.023438 41 C 77 41.164062 76.949219 41.320312 76.863281 41.464844 L 73.511719 47.257812 C 73.429688 47.402344 73.320312 47.527344 73.1875 47.628906 C 73.050781 47.730469 72.902344 47.804688 72.742188 47.847656 C 72.578125 47.890625 72.414062 47.902344 72.246094 47.882812 C 72.078125 47.859375 71.921875 47.808594 71.777344 47.722656 C 71.628906 47.640625 71.503906 47.53125 71.402344 47.398438 C 71.300781 47.265625 71.226562 47.117188 71.179688 46.957031 C 71.136719 46.792969 71.125 46.628906 71.148438 46.464844 C 71.167969 46.296875 71.222656 46.140625 71.304688 45.996094 Z M 74.660156 40.203125 " fill-opacity="1" fill-rule="nonzero"/></g><path fill="#e2aa73" d="M 70.125 56.070312 L 70.125 87.015625 C 70.128906 87.207031 70.167969 87.394531 70.242188 87.574219 C 70.320312 87.753906 70.425781 87.910156 70.566406 88.046875 C 70.703125 88.183594 70.863281 88.289062 71.042969 88.359375 C 71.222656 88.433594 71.410156 88.472656 71.605469 88.472656 C 71.800781 88.472656 71.988281 88.433594 72.167969 88.359375 C 72.347656 88.289062 72.507812 88.183594 72.644531 88.046875 C 72.78125 87.910156 72.890625 87.753906 72.964844 87.574219 C 73.042969 87.394531 73.082031 87.207031 73.082031 87.015625 L 73.082031 56.070312 C 73.082031 55.640625 73.039062 55.21875 72.953125 54.796875 C 72.871094 54.378906 72.746094 53.96875 72.582031 53.574219 C 72.414062 53.179688 72.214844 52.804688 71.976562 52.445312 C 71.734375 52.089844 71.464844 51.761719 71.160156 51.460938 C 70.855469 51.15625 70.527344 50.886719 70.167969 50.648438 C 69.8125 50.410156 69.433594 50.207031 69.035156 50.042969 C 68.640625 49.878906 68.230469 49.753906 67.808594 49.671875 C 67.386719 49.585938 66.960938 49.542969 66.53125 49.542969 L 66.449219 49.542969 C 66.394531 49.542969 66.339844 49.542969 66.285156 49.546875 L 66.273438 49.546875 L 66.199219 49.554688 L 66.195312 49.554688 M 66.113281 49.558594 L 66.109375 49.558594 C 66.085938 49.558594 66.0625 49.558594 66.039062 49.5625 L 66.023438 49.5625 M 65.949219 49.570312 C 65.921875 49.570312 65.902344 49.574219 65.875 49.574219 L 65.863281 49.578125 M 65.78125 49.585938 C 65.753906 49.589844 65.730469 49.589844 65.703125 49.59375 L 65.6875 49.59375 C 65.667969 49.601562 65.644531 49.605469 65.621094 49.605469 C 65.570312 49.617188 65.519531 49.621094 65.464844 49.628906 L 65.449219 49.628906 L 65.21875 49.675781 L 65.214844 49.675781 C 65.160156 49.6875 65.117188 49.699219 65.070312 49.707031 L 65.058594 49.714844 C 65.777344 49.882812 66.449219 50.164062 67.074219 50.558594 C 67.699219 50.949219 68.242188 51.4375 68.703125 52.011719 C 69.164062 52.589844 69.515625 53.226562 69.757812 53.921875 C 70.003906 54.617188 70.125 55.332031 70.125 56.070312 M 77.25 72.335938 C 77.273438 72.339844 77.300781 72.339844 77.324219 72.339844 L 77.34375 72.339844 L 77.40625 72.34375 L 77.488281 72.34375 L 77.5 72.351562 C 77.527344 72.351562 77.550781 72.351562 77.578125 72.355469 L 77.59375 72.355469 L 77.65625 72.359375 L 77.671875 72.359375 L 77.75 72.371094 C 77.773438 72.371094 77.800781 72.375 77.820312 72.375 L 77.84375 72.382812 L 77.894531 72.386719 L 77.925781 72.390625 L 77.929688 72.390625 L 77.988281 72.398438 L 77.992188 72.398438 L 78.011719 72.402344 L 78.0625 72.40625 L 78.085938 72.414062 L 78.148438 72.421875 L 78.15625 72.421875 L 78.234375 72.4375 L 78.246094 72.4375 L 78.300781 72.449219 L 78.328125 72.453125 L 78.378906 72.464844 L 78.394531 72.46875 L 78.40625 72.46875 L 78.460938 72.484375 L 78.492188 72.488281 L 78.539062 72.5 L 78.5625 72.503906 L 78.617188 72.515625 L 78.660156 72.53125 L 78.695312 72.535156 L 78.730469 72.546875 L 78.773438 72.558594 L 78.800781 72.5625 L 78.800781 72.566406 L 78.855469 72.582031 L 78.859375 72.582031 L 78.890625 72.59375 L 78.929688 72.601562 L 78.964844 72.613281 L 78.996094 72.617188 L 79.027344 72.628906 L 79.085938 72.648438 L 79.089844 72.648438 L 79.125 72.664062 L 79.148438 72.671875 L 79.191406 72.6875 L 79.25 72.707031 L 79.28125 72.714844 L 79.3125 72.726562 L 79.347656 72.742188 L 79.375 72.753906 L 79.414062 72.761719 L 79.46875 72.785156 L 79.507812 72.804688 L 79.53125 72.808594 C 79.597656 72.835938 79.664062 72.867188 79.730469 72.898438 L 79.742188 72.902344 C 79.792969 72.921875 79.84375 72.949219 79.890625 72.96875 L 79.941406 72.996094 L 79.949219 72.996094 C 79.996094 73.019531 80.042969 73.039062 80.089844 73.066406 L 80.109375 73.078125 L 80.148438 73.097656 L 80.160156 73.101562 L 80.300781 73.179688 L 80.308594 73.1875 L 80.351562 73.210938 L 80.367188 73.222656 C 80.394531 73.238281 80.425781 73.253906 80.449219 73.269531 L 80.457031 73.273438 C 80.515625 73.308594 80.585938 73.351562 80.644531 73.390625 C 81.480469 73.9375 82.160156 74.636719 82.675781 75.488281 C 83.195312 76.335938 83.503906 77.257812 83.605469 78.25 L 83.605469 78.296875 L 83.609375 78.300781 L 83.609375 78.347656 L 83.613281 78.378906 L 83.613281 78.394531 L 83.605469 78.394531 L 83.605469 87.015625 C 83.601562 87.210938 83.5625 87.394531 83.488281 87.574219 C 83.410156 87.753906 83.304688 87.910156 83.164062 88.046875 C 83.027344 88.183594 82.867188 88.289062 82.6875 88.363281 C 82.507812 88.433594 82.320312 88.472656 82.125 88.472656 C 81.929688 88.472656 81.742188 88.433594 81.5625 88.363281 C 81.382812 88.289062 81.222656 88.183594 81.085938 88.046875 C 80.945312 87.910156 80.839844 87.753906 80.761719 87.574219 C 80.6875 87.394531 80.648438 87.210938 80.644531 87.015625 L 80.644531 78.289062 C 80.308594 76.804688 79.589844 75.085938 78.753906 74.25 C 77.871094 73.371094 76.820312 72.789062 75.605469 72.503906 L 75.625 72.5 L 75.671875 72.488281 L 75.691406 72.484375 L 75.738281 72.472656 L 75.761719 72.46875 L 75.804688 72.457031 L 75.828125 72.453125 L 75.867188 72.449219 L 75.875 72.449219 L 75.894531 72.441406 L 75.9375 72.4375 L 75.941406 72.433594 L 75.96875 72.433594 L 76.007812 72.421875 L 76.035156 72.417969 L 76.054688 72.417969 L 76.082031 72.414062 L 76.101562 72.40625 L 76.121094 72.40625 L 76.148438 72.402344 L 76.167969 72.398438 L 76.195312 72.398438 L 76.230469 72.390625 L 76.273438 72.386719 L 76.308594 72.382812 L 76.320312 72.382812 L 76.328125 72.375 L 76.375 72.371094 L 76.402344 72.371094 L 76.445312 72.367188 L 76.46875 72.367188 L 76.496094 72.359375 L 76.515625 72.359375 L 76.535156 72.355469 L 76.59375 72.355469 L 76.609375 72.351562 L 76.671875 72.351562 L 76.722656 72.34375 L 76.753906 72.34375 L 76.792969 72.339844 L 76.878906 72.339844 L 76.941406 72.335938 L 77.253906 72.335938 Z M 86.191406 77.171875 C 86.296875 77.152344 86.402344 77.128906 86.511719 77.109375 L 86.515625 77.109375 L 86.570312 77.101562 C 86.917969 77.042969 87.269531 77.015625 87.625 77.015625 L 87.871094 77.015625 L 87.886719 77.023438 L 87.96875 77.023438 C 87.996094 77.027344 88.019531 77.027344 88.042969 77.027344 L 88.046875 77.027344 C 88.070312 77.027344 88.09375 77.03125 88.117188 77.03125 L 88.140625 77.03125 L 88.199219 77.039062 L 88.214844 77.042969 L 88.285156 77.046875 L 88.300781 77.046875 L 88.363281 77.058594 L 88.386719 77.058594 L 88.441406 77.070312 L 88.460938 77.070312 L 88.523438 77.078125 L 88.550781 77.078125 L 88.613281 77.089844 L 88.621094 77.089844 L 88.699219 77.105469 L 88.773438 77.113281 L 88.792969 77.121094 L 88.851562 77.128906 L 88.867188 77.128906 L 88.933594 77.144531 L 88.9375 77.144531 L 88.953125 77.152344 L 89.007812 77.160156 L 89.03125 77.167969 L 89.097656 77.183594 L 89.105469 77.183594 L 89.171875 77.199219 L 89.191406 77.203125 L 89.25 77.21875 L 89.265625 77.222656 C 89.289062 77.226562 89.3125 77.234375 89.335938 77.242188 L 89.40625 77.257812 L 89.425781 77.265625 L 89.476562 77.28125 L 89.5 77.289062 L 89.554688 77.304688 L 89.558594 77.304688 L 89.585938 77.316406 L 89.632812 77.332031 L 89.652344 77.335938 L 89.710938 77.355469 L 89.71875 77.355469 L 89.734375 77.363281 L 89.789062 77.382812 L 89.808594 77.386719 L 89.851562 77.402344 L 89.878906 77.414062 L 89.886719 77.414062 L 89.9375 77.433594 L 89.949219 77.441406 L 89.964844 77.445312 L 90.011719 77.464844 L 90.035156 77.476562 L 90.074219 77.492188 L 90.117188 77.507812 L 90.160156 77.527344 L 90.21875 77.546875 L 90.257812 77.570312 L 90.308594 77.589844 L 90.351562 77.609375 L 90.367188 77.613281 L 90.414062 77.636719 L 90.425781 77.640625 L 90.464844 77.660156 L 90.515625 77.6875 L 90.554688 77.707031 L 90.578125 77.722656 L 90.617188 77.738281 L 90.621094 77.738281 L 90.671875 77.765625 L 90.671875 77.769531 L 90.6875 77.773438 L 90.734375 77.800781 L 90.761719 77.816406 L 90.824219 77.847656 L 90.871094 77.878906 L 90.910156 77.898438 L 90.925781 77.910156 L 90.96875 77.933594 L 90.984375 77.945312 L 91.019531 77.964844 L 91.066406 77.992188 L 91.070312 77.996094 L 91.109375 78.015625 L 91.128906 78.03125 L 91.164062 78.050781 C 91.558594 78.308594 91.921875 78.597656 92.257812 78.929688 C 93.300781 79.96875 93.921875 81.21875 94.117188 82.679688 L 94.125 82.695312 L 94.128906 82.730469 L 94.128906 82.753906 L 94.132812 82.769531 L 94.132812 82.785156 L 94.140625 82.808594 L 94.140625 82.851562 L 94.144531 82.863281 L 94.144531 82.890625 L 94.148438 82.929688 L 94.148438 82.957031 L 94.152344 82.972656 L 94.152344 83.011719 L 94.160156 83.023438 L 94.160156 83.066406 L 94.164062 83.089844 L 94.164062 83.132812 C 94.164062 83.152344 94.167969 83.179688 94.167969 83.199219 L 94.167969 83.28125 L 94.175781 83.285156 L 94.175781 83.800781 L 94.117188 83.8125 L 94.117188 87.015625 C 94.121094 87.210938 94.085938 87.398438 94.011719 87.582031 C 93.9375 87.765625 93.832031 87.925781 93.691406 88.066406 C 93.554688 88.203125 93.390625 88.3125 93.210938 88.386719 C 93.027344 88.464844 92.839844 88.5 92.640625 88.5 C 92.445312 88.5 92.253906 88.464844 92.074219 88.386719 C 91.890625 88.3125 91.730469 88.203125 91.59375 88.066406 C 91.453125 87.925781 91.347656 87.765625 91.273438 87.582031 C 91.199219 87.398438 91.164062 87.210938 91.164062 87.015625 L 91.164062 82.679688 C 91.074219 82.019531 90.890625 81.390625 90.609375 80.789062 C 90.328125 80.191406 89.960938 79.644531 89.515625 79.152344 C 89.066406 78.664062 88.554688 78.25 87.980469 77.914062 C 87.410156 77.578125 86.796875 77.332031 86.148438 77.183594 L 86.175781 77.175781 L 86.183594 77.175781 Z M 57.027344 86.546875 C 58.015625 86.457031 59 86.460938 59.988281 86.5625 L 59.988281 100.53125 C 59.984375 100.722656 59.945312 100.910156 59.871094 101.089844 C 59.792969 101.265625 59.6875 101.425781 59.546875 101.5625 C 59.410156 101.699219 59.25 101.800781 59.070312 101.875 C 58.890625 101.949219 58.703125 101.988281 58.507812 101.988281 C 58.3125 101.988281 58.125 101.949219 57.945312 101.875 C 57.765625 101.800781 57.605469 101.699219 57.46875 101.5625 C 57.328125 101.425781 57.222656 101.265625 57.144531 101.089844 C 57.070312 100.910156 57.03125 100.722656 57.027344 100.53125 Z M 77.25 72.335938 C 77.273438 72.339844 77.300781 72.339844 77.324219 72.339844 M 88.621094 77.089844 L 88.699219 77.105469 " fill-opacity="1" fill-rule="evenodd"/><g clip-path="url(#09f6a9df66)"><path fill="#e2aa73" d="M 96.683594 82.605469 C 97.914062 82.890625 98.976562 83.476562 99.875 84.355469 C 100.476562 84.941406 100.941406 85.621094 101.269531 86.390625 C 101.597656 87.164062 101.765625 87.96875 101.765625 88.808594 C 101.765625 100.277344 98.308594 114.757812 89.765625 123.023438 C 87.292969 125.445312 84.445312 127.289062 81.21875 128.550781 C 78.945312 129.425781 76.59375 129.9375 74.164062 130.085938 C 74.40625 130.101562 74.648438 130.109375 74.894531 130.121094 C 78.09375 130.222656 81.183594 129.699219 84.171875 128.550781 C 87.402344 127.289062 90.25 125.449219 92.722656 123.023438 C 99.332031 116.625 104.1875 105.625 104.714844 89.003906 C 104.71875 88.84375 104.71875 88.832031 104.71875 88.808594 C 104.714844 87.96875 104.550781 87.164062 104.222656 86.394531 C 103.894531 85.621094 103.429688 84.941406 102.828125 84.355469 C 102.234375 83.769531 101.550781 83.308594 100.785156 82.980469 C 100.015625 82.648438 99.210938 82.472656 98.375 82.445312 C 98.214844 82.441406 98.195312 82.4375 98.167969 82.4375 C 97.667969 82.4375 97.171875 82.492188 96.683594 82.605469 Z M 96.683594 82.605469 " fill-opacity="1" fill-rule="evenodd"/></g><g clip-path="url(#f4e340c79e)"><g clip-path="url(#cace254c2e)"><g clip-path="url(#dc47d73540)"><path fill="#39aaff" d="M 23.429688 47.714844 L 22.003906 46.632812 C 25.539062 41.992188 26.351562 37.152344 24.433594 32.253906 C 22.980469 28.566406 20.480469 26.253906 20.453125 26.230469 L 21.660156 24.910156 C 21.769531 25.015625 24.492188 27.542969 26.089844 31.605469 C 27.585938 35.390625 28.332031 41.269531 23.429688 47.714844 Z M 34.484375 28.703125 C 32.144531 23.046875 28.09375 19.746094 27.921875 19.609375 L 26.386719 21.511719 C 26.421875 21.542969 30.179688 24.617188 32.265625 29.726562 C 35.03125 36.484375 33.722656 43.488281 28.375 50.558594 L 30.320312 52.027344 C 37.703125 42.265625 36.660156 33.953125 34.484375 28.703125 Z M 42.980469 27.605469 C 40.394531 20.03125 35.570312 15.273438 35.371094 15.078125 L 33.101562 17.410156 C 33.144531 17.449219 37.566406 21.816406 39.902344 28.65625 C 43.011719 37.753906 41.039062 46.660156 34.027344 55.113281 L 36.53125 57.191406 C 46.222656 45.496094 45.390625 34.648438 42.980469 27.605469 Z M 42.980469 27.605469 " fill-opacity="1" fill-rule="nonzero"/></g></g></g></svg>