<?xml version="1.0" encoding="UTF-8"?>
<svg id="Layer_2" data-name="Layer 2" xmlns="http://www.w3.org/2000/svg" viewBox="0 0 103.02 87.05">
  <defs>
    <style>
      .cls-1 {
        fill: #b9dee5;
      }

      .cls-1, .cls-2, .cls-3, .cls-4, .cls-5, .cls-6, .cls-7, .cls-8, .cls-9, .cls-10 {
        stroke-width: 0px;
      }

      .cls-2 {
        fill: #9d4098;
      }

      .cls-3 {
        fill: #ffd162;
      }

      .cls-4 {
        fill: #104fa2;
      }

      .cls-11 {
        fill: none;
        stroke: #fed304;
        stroke-miterlimit: 10;
        stroke-width: .75px;
      }

      .cls-5 {
        fill: #231f20;
      }

      .cls-6 {
        fill: #f47c25;
      }

      .cls-7 {
        fill: #ffe9ba;
      }

      .cls-8 {
        fill: #ffc316;
      }

      .cls-9 {
        fill: #fff;
      }

      .cls-10 {
        fill: #f89521;
        opacity: .3;
      }
    </style>
  </defs>
  <g id="Layer_1-2" data-name="Layer 1">
    <g>
      <g>
        <path class="cls-8" d="M51.97,56.36c-1.99,0-3.45-4.5-5.31-4.93-1.92-.44-5.19,2.98-6.92,2.14-1.76-.85-1.12-5.54-2.64-6.75-1.52-1.21-5.95.45-7.17-1.07-1.21-1.51,1.39-5.46.54-7.22-.84-1.73-5.55-2.15-5.99-4.08-.42-1.86,3.63-4.28,3.63-6.27s-4.06-4.41-3.63-6.27c.44-1.92,5.15-2.34,5.99-4.08.85-1.76-1.75-5.71-.54-7.22,1.22-1.52,5.64.14,7.17-1.07,1.51-1.21.87-5.9,2.64-6.75,1.73-.84,5,2.58,6.92,2.14,1.86-.42,3.32-4.93,5.31-4.93s3.45,4.51,5.31,4.93c1.92.44,5.19-2.98,6.92-2.14,1.76.85,1.12,5.54,2.64,6.75,1.52,1.21,5.95-.45,7.17,1.07,1.21,1.51-1.39,5.46-.54,7.22.84,1.74,5.55,2.15,5.99,4.08.42,1.86-3.63,4.28-3.63,6.27s4.06,4.41,3.63,6.27c-.44,1.92-5.15,2.34-5.99,4.08-.85,1.76,1.75,5.71.54,7.22-1.22,1.52-5.64-.14-7.17,1.07-1.51,1.21-.87,5.9-2.64,6.75-1.73.84-5-2.58-6.92-2.14-1.86.42-3.32,4.93-5.31,4.93Z"/>
        <path class="cls-10" d="M51.97,56.36c1.99,0,3.45-4.5,5.31-4.93,1.92-.44,5.19,2.98,6.92,2.14,1.76-.85,1.12-5.54,2.64-6.75,1.52-1.22,5.95.45,7.17-1.07,1.21-1.51-1.39-5.46-.54-7.22.84-1.73,5.55-2.15,5.99-4.08.42-1.86-3.63-4.28-3.63-6.27H28.12c0,1.99-4.06,4.41-3.63,6.27.44,1.92,5.15,2.34,5.99,4.08.85,1.76-1.75,5.71-.54,7.22,1.22,1.52,5.64-.14,7.17,1.07,1.51,1.21.87,5.9,2.64,6.75,1.73.84,5-2.58,6.92-2.14,1.86.42,3.32,4.93,5.31,4.93Z"/>
        <path class="cls-7" d="M69.35,28.18c0,9.6-7.78,17.38-17.38,17.38s-17.38-7.78-17.38-17.38,7.78-17.38,17.38-17.38,17.38,7.78,17.38,17.38Z"/>
        <path class="cls-3" d="M69.35,28.18h-34.76c0,9.6,7.78,17.38,17.38,17.38s17.38-7.78,17.38-17.38Z"/>
      </g>
      <rect class="cls-1" x=".39" y="32.78" width="102.63" height="47.05" rx="7.6" ry="7.6"/>
      <rect class="cls-6" y="37.58" width="102.63" height="37.56" rx="8.15" ry="8.15"/>
      <rect class="cls-2" y="42.27" width="102.63" height="37.56" rx="8.15" ry="8.15"/>
      <rect class="cls-4" y="47.27" width="102.63" height="39.78" rx="8.15" ry="8.15"/>
      <g>
        <path class="cls-9" d="M40.06,54.52c-.39-.38-.78-.58-1.17-.58-.48,0-.87.37-.87.79,0,.6.64.93,1.1,1.16.73.37,1.43.82,1.43,1.73,0,1-.77,1.71-1.75,1.71-.66,0-1.31-.3-1.71-.83l.47-.52c.38.42.78.64,1.21.64.6,0,1.08-.45,1.08-.97,0-.21-.07-.4-.21-.57s-.45-.37-.94-.62c-.72-.37-1.35-.81-1.35-1.69s.69-1.54,1.59-1.54c.53,0,1.07.26,1.6.78l-.48.49Z"/>
        <path class="cls-9" d="M46.82,59.17h-.75v-1.04c-.6.8-1.31,1.2-2.17,1.2-.42,0-.81-.11-1.14-.35-.94-.6-.99-1.61-.99-2.63v-2.97h.74v2.76c0,1.13.01,2.49,1.55,2.49.93,0,1.69-.69,1.92-1.56.06-.28.1-.81.1-1.57v-2.12h.75v5.79Z"/>
        <path class="cls-9" d="M48.48,53.39h.75v1.04c.6-.8,1.31-1.19,2.17-1.19.42,0,.81.11,1.14.34.94.6.99,1.61.99,2.63v2.97h-.74v-2.76c0-1.13-.01-2.5-1.55-2.5-.93,0-1.69.69-1.92,1.56-.07.28-.1.81-.1,1.57v2.12h-.75v-5.79Z"/>
        <path class="cls-9" d="M57.55,54.52c-.39-.38-.78-.58-1.17-.58-.48,0-.87.37-.87.79,0,.6.64.93,1.1,1.16.73.37,1.43.82,1.43,1.73,0,1-.77,1.71-1.75,1.71-.66,0-1.31-.3-1.71-.83l.47-.52c.38.42.78.64,1.21.64.6,0,1.08-.45,1.08-.97,0-.21-.07-.4-.21-.57s-.45-.37-.94-.62c-.72-.37-1.35-.81-1.35-1.69s.69-1.54,1.59-1.54c.53,0,1.07.26,1.6.78l-.48.49Z"/>
        <path class="cls-9" d="M64.85,57.59c-.59,1.19-1.5,1.74-2.77,1.74-.95,0-1.68-.3-2.21-.93s-.79-1.33-.79-2.1c0-.73.23-1.38.67-1.96.57-.73,1.33-1.1,2.29-1.1,1.82,0,2.99,1.35,3.01,3.1h-5.21c.02,1.26.87,2.3,2.18,2.3.29,0,.59-.05.86-.15.68-.24.98-.63,1.34-1.23l.63.33ZM64.22,55.7c-.23-1.15-1.09-1.69-2.17-1.74-1.14,0-1.84.7-2.13,1.74h4.3Z"/>
        <path class="cls-9" d="M67.08,51.24h.75v2.16h1.18v.63h-1.18v5.15h-.75v-5.15h-1.02v-.63h1.02v-2.16Z"/>
      </g>
      <g>
        <rect class="cls-9" x="9.24" y="65.5" width="32.44" height="17.8" rx="3.54" ry="3.54"/>
        <g>
          <path class="cls-5" d="M19.97,72.78c-.39-.38-.78-.58-1.17-.58-.48,0-.87.37-.87.79,0,.6.64.93,1.1,1.16.73.37,1.43.82,1.43,1.73,0,1-.77,1.71-1.75,1.71-.67,0-1.31-.3-1.71-.83l.47-.52c.38.42.78.64,1.21.64.6,0,1.08-.45,1.08-.97,0-.21-.07-.4-.21-.57s-.45-.37-.94-.62c-.72-.37-1.35-.81-1.35-1.69s.69-1.54,1.59-1.54c.53,0,1.07.26,1.6.78l-.48.49Z"/>
          <path class="cls-5" d="M26.72,77.43h-.75v-1.04c-.6.8-1.31,1.2-2.17,1.2-.42,0-.81-.11-1.14-.35-.94-.6-.99-1.61-.99-2.63v-2.97h.74v2.76c0,1.13.01,2.49,1.55,2.49.93,0,1.69-.69,1.92-1.56.07-.28.1-.81.1-1.57v-2.12h.75v5.79Z"/>
          <path class="cls-5" d="M28.39,71.65h.75v1.04c.6-.8,1.31-1.19,2.17-1.19.43,0,.81.11,1.14.34.94.6.99,1.61.99,2.63v2.97h-.74v-2.76c0-1.13-.01-2.5-1.55-2.5-.93,0-1.69.69-1.92,1.56-.07.28-.1.81-.1,1.57v2.12h-.75v-5.79Z"/>
        </g>
      </g>
      <g>
        <rect class="cls-9" x="62.4" y="65.5" width="32.44" height="17.8" rx="3.54" ry="3.54"/>
        <g>
          <path class="cls-5" d="M74.38,72.78c-.39-.38-.78-.58-1.17-.58-.48,0-.87.37-.87.79,0,.6.64.93,1.1,1.16.73.37,1.43.82,1.43,1.73,0,1-.77,1.71-1.75,1.71-.66,0-1.31-.3-1.71-.83l.47-.52c.38.42.78.64,1.21.64.6,0,1.08-.45,1.08-.97,0-.21-.07-.4-.21-.57s-.45-.37-.94-.62c-.72-.37-1.35-.81-1.35-1.69s.69-1.54,1.59-1.54c.53,0,1.07.26,1.6.78l-.48.49Z"/>
          <path class="cls-5" d="M81.68,75.85c-.59,1.19-1.5,1.74-2.77,1.74-.95,0-1.68-.3-2.21-.93s-.79-1.33-.79-2.1c0-.73.23-1.38.67-1.96.57-.73,1.33-1.1,2.29-1.1,1.82,0,2.99,1.35,3.01,3.1h-5.21c.02,1.26.87,2.3,2.18,2.3.29,0,.59-.05.86-.15.68-.24.98-.63,1.34-1.23l.63.33ZM81.05,73.96c-.23-1.15-1.09-1.69-2.17-1.74-1.14,0-1.84.7-2.13,1.74h4.3Z"/>
          <path class="cls-5" d="M83.91,69.5h.75v2.16h1.18v.63h-1.18v5.15h-.75v-5.15h-1.02v-.63h1.02v-2.16Z"/>
        </g>
      </g>
      <line class="cls-11" x1="41.68" y1="61.05" x2="46.92" y2="61.05"/>
      <line class="cls-11" x1="59.41" y1="61.05" x2="64.65" y2="61.05"/>
    </g>
  </g>
</svg>