<?xml version="1.0" encoding="UTF-8"?>
<svg id="Layer_2" data-name="Layer 2" xmlns="http://www.w3.org/2000/svg" xmlns:xlink="http://www.w3.org/1999/xlink" viewBox="0 0 104.16 89.74">
  <defs>
    <style>
      .cls-1 {
        fill: #010101;
      }

      .cls-1, .cls-2, .cls-3, .cls-4 {
        stroke-width: 0px;
      }

      .cls-2 {
        fill: #fed307;
        filter: url(#drop-shadow-2);
      }

      .cls-3 {
        fill: #7db542;
        filter: url(#drop-shadow-1);
      }

      .cls-5 {
        filter: url(#drop-shadow-4);
      }

      .cls-6 {
        filter: url(#drop-shadow-5);
      }

      .cls-6, .cls-7 {
        fill: #fff;
      }

      .cls-6, .cls-7, .cls-8 {
        stroke: #010101;
        stroke-miterlimit: 10;
      }

      .cls-4 {
        fill: #a24a9c;
        filter: url(#drop-shadow-3);
      }

      .cls-9 {
        isolation: isolate;
      }

      .cls-8 {
        fill: none;
      }
    </style>
    <filter id="drop-shadow-1" filterUnits="userSpaceOnUse">
      <feOffset dx="3" dy="3"/>
      <feGaussianBlur result="blur" stdDeviation="2"/>
      <feFlood flood-color="#231f20" flood-opacity=".1"/>
      <feComposite in2="blur" operator="in"/>
      <feComposite in="SourceGraphic"/>
    </filter>
    <filter id="drop-shadow-2" filterUnits="userSpaceOnUse">
      <feOffset dx="3" dy="3"/>
      <feGaussianBlur result="blur-2" stdDeviation="2"/>
      <feFlood flood-color="#231f20" flood-opacity=".1"/>
      <feComposite in2="blur-2" operator="in"/>
      <feComposite in="SourceGraphic"/>
    </filter>
    <filter id="drop-shadow-3" filterUnits="userSpaceOnUse">
      <feOffset dx="3" dy="3"/>
      <feGaussianBlur result="blur-3" stdDeviation="2"/>
      <feFlood flood-color="#231f20" flood-opacity=".1"/>
      <feComposite in2="blur-3" operator="in"/>
      <feComposite in="SourceGraphic"/>
    </filter>
    <filter id="drop-shadow-4" filterUnits="userSpaceOnUse">
      <feOffset dx="3" dy="3"/>
      <feGaussianBlur result="blur-4" stdDeviation="2"/>
      <feFlood flood-color="#231f20" flood-opacity=".1"/>
      <feComposite in2="blur-4" operator="in"/>
      <feComposite in="SourceGraphic"/>
    </filter>
    <filter id="drop-shadow-5" filterUnits="userSpaceOnUse">
      <feOffset dx="3" dy="3"/>
      <feGaussianBlur result="blur-5" stdDeviation="2"/>
      <feFlood flood-color="#231f20" flood-opacity=".1"/>
      <feComposite in2="blur-5" operator="in"/>
      <feComposite in="SourceGraphic"/>
    </filter>
  </defs>
  <g id="Layer_1-2" data-name="Layer 1">
    <g>
      <path class="cls-3" d="M93.74,39.63h-23.01c-.73,0-1.31-.58-1.31-1.31V10.23c0-.73.58-1.31,1.31-1.31h23.01c.73,0,1.31.58,1.31,1.31v28.09c0,.73-.58,1.31-1.31,1.31Z"/>
      <path class="cls-2" d="M60.9,50.52h-23.01c-.73,0-1.31-.58-1.31-1.31v-28.09c0-.73.58-1.31,1.31-1.31h23.01c.73,0,1.31.58,1.31,1.31v28.09c0,.73-.58,1.31-1.31,1.31Z"/>
      <path class="cls-4" d="M27.42,33.72H4.4c-.73,0-1.31-.58-1.31-1.31V4.32c0-.73.58-1.31,1.31-1.31h23.01c.73,0,1.31.58,1.31,1.31v28.09c0,.73-.58,1.31-1.31,1.31Z"/>
      <path class="cls-7" d="M93.74,74.78h-23.01c-.73,0-1.31-.58-1.31-1.31v-28.09c0-.73.58-1.31,1.31-1.31h23.01c.73,0,1.31.58,1.31,1.31v28.09c0,.73-.58,1.31-1.31,1.31Z"/>
      <line class="cls-8" x1="69.41" y1="68.89" x2="95.04" y2="68.89"/>
      <g class="cls-9">
        <path class="cls-1" d="M85.63,55.2l-.64.4c-.55-.73-1.31-1.09-2.26-1.09-.76,0-1.4.25-1.91.74-.51.48-.75,1.08-.75,1.78-.02,1.38,1.16,2.61,2.66,2.55.92,0,1.67-.37,2.26-1.09l.64.42c-.6.89-1.65,1.41-2.93,1.41-.99,0-1.81-.32-2.46-.94-.65-.62-.98-1.39-.98-2.29-.04-1.82,1.54-3.4,3.51-3.34,1.27.02,2.35.55,2.86,1.46Z"/>
      </g>
      <g class="cls-5">
        <path class="cls-7" d="M60.9,89.24h-23.01c-.73,0-1.31-.58-1.31-1.31v-28.09c0-.73.58-1.31,1.31-1.31h23.01c.73,0,1.31.58,1.31,1.31v28.09c0,.73-.58,1.31-1.31,1.31Z"/>
        <line class="cls-8" x1="36.57" y1="83.35" x2="62.21" y2="83.35"/>
        <g class="cls-9">
          <path class="cls-1" d="M46.45,75.79v-8.66h.79v3.48c.67-.83,1.52-1.24,2.51-1.24.88,0,1.65.32,2.27.96.62.65.94,1.42.94,2.33s-.32,1.68-.95,2.33c-.62.63-1.39.95-2.28.95-1.02,0-1.83-.44-2.48-1.32v1.15h-.79ZM49.67,75.18c1.33.06,2.51-1.18,2.48-2.53.04-1.33-1.19-2.6-2.47-2.54-1.34-.01-2.54,1.12-2.48,2.52,0,.73.24,1.34.71,1.82.48.48,1.07.73,1.76.73Z"/>
        </g>
      </g>
      <g>
        <path class="cls-6" d="M28.06,69.87H5.05c-.73,0-1.31-.58-1.31-1.31v-28.09c0-.73.58-1.31,1.31-1.31h23.01c.73,0,1.31.58,1.31,1.31v28.09c0,.73-.58,1.31-1.31,1.31Z"/>
        <line class="cls-8" x1="3.74" y1="63.99" x2="29.37" y2="63.99"/>
        <g class="cls-9">
          <path class="cls-1" d="M19.65,49.18v6.25h-.79v-1.07c-.67.81-1.52,1.24-2.51,1.24-.88,0-1.65-.32-2.27-.96-.62-.65-.94-1.42-.94-2.34s.32-1.67.94-2.31c.64-.65,1.4-.96,2.29-.96,1.02,0,1.86.45,2.48,1.31v-1.14h.79ZM16.44,49.79c-1.33-.06-2.51,1.19-2.48,2.52-.02,1.35,1.18,2.59,2.48,2.54,1.33.01,2.53-1.09,2.47-2.52,0-.72-.24-1.33-.72-1.81-.47-.48-1.06-.73-1.75-.73Z"/>
        </g>
      </g>
    </g>
  </g>
</svg>