<?xml version="1.0" encoding="UTF-8"?>
<svg id="Layer_2" data-name="Layer 2" xmlns="http://www.w3.org/2000/svg" viewBox="0 0 52.16 49.47">
  <defs>
    <style>
      .cls-1 {
        fill: #e9523e;
      }

      .cls-1, .cls-2, .cls-3 {
        stroke-width: 0px;
      }

      .cls-2 {
        fill: #ee8267;
      }

      .cls-3 {
        fill: #fff;
      }
    </style>
  </defs>
  <g id="Layer_1-2" data-name="Layer 1">
    <g>
      <g>
        <path class="cls-1" d="M40.2.04c-4.8-.51-12.74,4.01-14.12,11.71C24.7,4.05,16.76-.47,11.96.04,6.09.66-1.65,4.83.31,16.86c1.97,12.02,25.87,32.61,25.87,32.61,0,0,23.7-20.59,25.66-32.61C53.82,4.83,46.07.66,40.2.04Z"/>
        <path class="cls-2" d="M29.66,40.79c-.32,0-.64-.11-.89-.35-.53-.49-.57-1.32-.08-1.86,12.85-13.97,16.86-19.34,16.91-25.68.02-3.13-2.4-5.44-4.81-6.11-1.16-.32-4.08-.72-6,2.53-.37.63-1.18.83-1.8.46-.63-.37-.83-1.18-.46-1.8,1.95-3.3,5.38-4.72,8.97-3.73,3.93,1.09,6.76,4.73,6.73,8.67-.05,7.22-4.23,12.9-17.61,27.44-.26.28-.61.42-.97.42Z"/>
      </g>
      <g>
        <path class="cls-3" d="M13.85,20.17h1.13l.92,2.6.99-2.6h.68l.97,2.57.92-2.57h1.14l-1.67,4.57h-.73l-.97-2.61-1.01,2.61h-.71l-1.65-4.57Z"/>
        <path class="cls-3" d="M25.82,22.45c.03,1.29-1.09,2.45-2.43,2.41-1.34,0-2.37-1.08-2.37-2.4s1.03-2.41,2.37-2.41c1.29-.03,2.47,1.12,2.43,2.4ZM22.16,22.45c0,.74.46,1.34,1.24,1.34.72,0,1.26-.55,1.26-1.34s-.53-1.32-1.25-1.32-1.25.58-1.25,1.32Z"/>
        <path class="cls-3" d="M26.48,20.17h.98v.58c.21-.46.58-.7,1.01-.7.15,0,.3.04.46.12l-.35.98c-.14-.06-.25-.09-.34-.09-.18,0-.33.11-.45.33-.12.21-.18.65-.18,1.28v2.07h-1.14v-4.57Z"/>
        <path class="cls-3" d="M32.88,18.4h1.14v6.33h-1.14v-.48c-.45.42-.89.6-1.41.6-1.3,0-2.18-1.15-2.18-2.4,0-.71.21-1.28.62-1.73.42-.46.93-.68,1.52-.68.55,0,1.03.21,1.45.62v-2.26ZM30.43,22.45c0,.73.46,1.36,1.24,1.36s1.26-.62,1.26-1.37c0-.79-.53-1.33-1.26-1.33-.77,0-1.24.61-1.24,1.34Z"/>
        <path class="cls-3" d="M37.26,21.51c-.28-.28-.55-.42-.78-.42-.27,0-.41.12-.41.28,0,.13.04.21.41.38l.42.21c.89.44,1.15.85,1.15,1.46,0,.94-.78,1.43-1.64,1.43-.66,0-1.2-.26-1.6-.78l.71-.77c.28.32.68.53.96.53.31,0,.51-.18.51-.36s-.16-.35-.5-.53l-.39-.19c-.74-.37-1.11-.84-1.11-1.4,0-.82.72-1.31,1.49-1.31.59,0,1.14.27,1.51.76l-.71.71Z"/>
      </g>
    </g>
  </g>
</svg>