<?xml version="1.0" encoding="UTF-8"?>
<svg id="Layer_2" data-name="Layer 2" xmlns="http://www.w3.org/2000/svg" viewBox="0 0 105.58 73.24">
  <defs>
    <style>
      .cls-1 {
        fill: #3fadbd;
      }

      .cls-1, .cls-2, .cls-3, .cls-4, .cls-5 {
        stroke-width: 0px;
      }

      .cls-2 {
        fill: #3980b2;
      }

      .cls-3 {
        fill: #a353a0;
      }

      .cls-4 {
        fill: #e9523e;
      }

      .cls-6 {
        fill: none;
        stroke: #9d4098;
        stroke-width: 4px;
      }

      .cls-6, .cls-7 {
        stroke-miterlimit: 10;
      }

      .cls-5 {
        fill: #85c446;
      }

      .cls-7 {
        fill: #7f4098;
        stroke: #fff;
        stroke-width: 2px;
      }
    </style>
  </defs>
  <g id="Layer_1-2" data-name="Layer 1">
    <g>
      <path class="cls-3" d="M16.43,6.85l5.85-1.09,4.37,23.35-5.85,1.09-.46-2.46c-1.88,2.58-3.95,3.93-6.63,4.43-3.03.57-5.85-.13-8.48-2.05S.94,25.45.29,21.98s-.17-6.75,1.51-9.43c1.72-2.73,4.1-4.36,7.13-4.93,2.81-.53,5.47.07,7.98,1.78l-.48-2.55ZM11.18,12.8c-1.8.34-3.22,1.28-4.17,2.78-.95,1.5-1.25,3.28-.88,5.26s1.31,3.58,2.74,4.67c1.47,1.05,3.09,1.42,4.89,1.09s3.26-1.29,4.21-2.79c.99-1.51,1.29-3.34.9-5.4-.76-4.04-4-6.3-7.69-5.61Z"/>
      <path class="cls-4" d="M76.99,16.01h-21.59c.65,3.83,3.47,6.19,7.7,6.19,2.47,0,4.63-.86,6.44-2.62l5.64,2.67c-2.82,4.03-6.64,5.89-12.03,5.89-4.18,0-7.6-1.31-10.27-3.98-2.67-2.67-3.98-5.99-3.98-9.97s1.31-7.45,3.93-10.12c2.67-2.72,5.94-4.08,9.92-4.08,4.23,0,7.65,1.36,10.27,4.08,2.67,2.67,3.98,6.24,3.98,10.67v1.26ZM70.25,10.72c-.86-2.97-3.72-5.03-7.15-5.03-1.86,0-3.52.5-4.93,1.56-.86.65-1.71,1.81-2.47,3.47h14.55Z"/>
      <path class="cls-1" d="M101.79,14.47c2.49.42,4.15,2.82,3.73,5.36s-2.83,4.21-5.21,3.81c-2.54-.43-4.21-2.83-3.77-5.42s2.71-4.17,5.25-3.75ZM96.3,25.48l7.09,1.19-4.71,28.11-7.09-1.19,4.71-28.11Z"/>
      <path class="cls-5" d="M24.49,57.36c4.26-.11,8.15,3.69,8.01,7.92.09,4.26-3.61,8.09-8.01,7.95-2.16,0-4-.77-5.54-2.3-1.51-1.56-2.27-3.44-2.27-5.62,0-2.36.85-4.35,2.58-5.91,1.51-1.36,3.27-2.04,5.23-2.04ZM24.55,60.94c-1.16,0-2.16.4-2.95,1.22-.77.82-1.16,1.85-1.16,3.12s.4,2.39,1.16,3.21c.77.82,1.76,1.22,2.93,1.22,2.39,0,4.15-1.82,4.15-4.43s-1.73-4.35-4.12-4.35Z"/>
      <path class="cls-2" d="M65.13,57.2l4.34-1.09,2.07,8.23c.4,1.58.78,2.68,1.15,3.23.73,1.15,1.95,1.63,3.36,1.27s2.23-1.31,2.42-2.76c.04-.52-.13-1.61-.53-3.22l-2.1-8.36,4.31-1.08,1.82,7.24c.75,2.99,1.04,5.07.83,6.29-.48,2.99-2.33,5.03-5.77,5.89-3.76.95-6.52-.24-8.17-3.01-.62-.97-1.25-2.8-1.94-5.53l-1.79-7.11Z"/>
      <line class="cls-6" x1="35.84" y1="41.62" x2="66.64" y2="41.62"/>
      <rect class="cls-7" x="24.01" y="35.74" width="58.64" height="11.43"/>
    </g>
  </g>
</svg>