<?xml version="1.0" encoding="UTF-8"?>
<svg id="Layer_2" data-name="Layer 2" xmlns="http://www.w3.org/2000/svg" xmlns:xlink="http://www.w3.org/1999/xlink" viewBox="0 0 156.24 114.48">
  <defs>
    <style>
      .cls-1 {
        fill: #939598;
      }

      .cls-1, .cls-2 {
        stroke-width: 0px;
      }

      .cls-3 {
        filter: url(#drop-shadow-9);
      }

      .cls-3, .cls-4, .cls-5, .cls-6, .cls-7 {
        stroke: #939598;
      }

      .cls-3, .cls-4, .cls-5, .cls-6, .cls-7, .cls-8, .cls-9, .cls-10, .cls-11, .cls-12, .cls-13 {
        stroke-miterlimit: 10;
      }

      .cls-3, .cls-4, .cls-5, .cls-6, .cls-8, .cls-9, .cls-10, .cls-11, .cls-12 {
        fill: #fff;
      }

      .cls-4 {
        filter: url(#drop-shadow-5);
      }

      .cls-5 {
        filter: url(#drop-shadow-2);
      }

      .cls-6 {
        filter: url(#drop-shadow-1);
      }

      .cls-7, .cls-13 {
        fill: none;
      }

      .cls-8 {
        filter: url(#drop-shadow-4);
      }

      .cls-8, .cls-9, .cls-10, .cls-11, .cls-12 {
        stroke: #595a5c;
      }

      .cls-9 {
        filter: url(#drop-shadow-7);
      }

      .cls-10 {
        filter: url(#drop-shadow-3);
      }

      .cls-11 {
        filter: url(#drop-shadow-8);
      }

      .cls-12 {
        filter: url(#drop-shadow-6);
      }

      .cls-13 {
        stroke: #c4202e;
      }

      .cls-14 {
        isolation: isolate;
      }

      .cls-2 {
        fill: #c4202e;
      }
    </style>
    <filter id="drop-shadow-1" filterUnits="userSpaceOnUse">
      <feOffset dx="3" dy="3"/>
      <feGaussianBlur result="blur" stdDeviation="2"/>
      <feFlood flood-color="#231f20" flood-opacity=".1"/>
      <feComposite in2="blur" operator="in"/>
      <feComposite in="SourceGraphic"/>
    </filter>
    <filter id="drop-shadow-2" filterUnits="userSpaceOnUse">
      <feOffset dx="3" dy="3"/>
      <feGaussianBlur result="blur-2" stdDeviation="2"/>
      <feFlood flood-color="#231f20" flood-opacity=".1"/>
      <feComposite in2="blur-2" operator="in"/>
      <feComposite in="SourceGraphic"/>
    </filter>
    <filter id="drop-shadow-3" filterUnits="userSpaceOnUse">
      <feOffset dx="3" dy="3"/>
      <feGaussianBlur result="blur-3" stdDeviation="2"/>
      <feFlood flood-color="#231f20" flood-opacity=".1"/>
      <feComposite in2="blur-3" operator="in"/>
      <feComposite in="SourceGraphic"/>
    </filter>
    <filter id="drop-shadow-4" filterUnits="userSpaceOnUse">
      <feOffset dx="3" dy="3"/>
      <feGaussianBlur result="blur-4" stdDeviation="2"/>
      <feFlood flood-color="#231f20" flood-opacity=".1"/>
      <feComposite in2="blur-4" operator="in"/>
      <feComposite in="SourceGraphic"/>
    </filter>
    <filter id="drop-shadow-5" filterUnits="userSpaceOnUse">
      <feOffset dx="3" dy="3"/>
      <feGaussianBlur result="blur-5" stdDeviation="2"/>
      <feFlood flood-color="#231f20" flood-opacity=".1"/>
      <feComposite in2="blur-5" operator="in"/>
      <feComposite in="SourceGraphic"/>
    </filter>
    <filter id="drop-shadow-6" filterUnits="userSpaceOnUse">
      <feOffset dx="3" dy="3"/>
      <feGaussianBlur result="blur-6" stdDeviation="2"/>
      <feFlood flood-color="#231f20" flood-opacity=".1"/>
      <feComposite in2="blur-6" operator="in"/>
      <feComposite in="SourceGraphic"/>
    </filter>
    <filter id="drop-shadow-7" filterUnits="userSpaceOnUse">
      <feOffset dx="3" dy="3"/>
      <feGaussianBlur result="blur-7" stdDeviation="2"/>
      <feFlood flood-color="#231f20" flood-opacity=".1"/>
      <feComposite in2="blur-7" operator="in"/>
      <feComposite in="SourceGraphic"/>
    </filter>
    <filter id="drop-shadow-8" filterUnits="userSpaceOnUse">
      <feOffset dx="3" dy="3"/>
      <feGaussianBlur result="blur-8" stdDeviation="2"/>
      <feFlood flood-color="#231f20" flood-opacity=".1"/>
      <feComposite in2="blur-8" operator="in"/>
      <feComposite in="SourceGraphic"/>
    </filter>
    <filter id="drop-shadow-9" filterUnits="userSpaceOnUse">
      <feOffset dx="3" dy="3"/>
      <feGaussianBlur result="blur-9" stdDeviation="2"/>
      <feFlood flood-color="#231f20" flood-opacity=".1"/>
      <feComposite in2="blur-9" operator="in"/>
      <feComposite in="SourceGraphic"/>
    </filter>
  </defs>
  <g id="Layer_1-2" data-name="Layer 1">
    <g>
      <g>
        <path class="cls-6" d="M78.56,101.11l-16.36,3.72c-.52.12-1.02-.2-1.14-.72l-4.54-19.97c-.12-.52.2-1.02.72-1.14l16.36-3.72c.52-.12,1.02.2,1.14.72l4.54,19.97c.12.52-.2,1.02-.72,1.14Z"/>
        <line class="cls-7" x1="60.33" y1="100.85" x2="78.54" y2="96.71"/>
        <path class="cls-1" d="M65.3,89.33l.78-.18,1.76,1.57.92-2.18.78-.18-1.19,2.8,2.56,2.21-.79.18-2.04-1.77-1.04,2.47-.77.18,1.31-3.09-2.28-2.01Z"/>
      </g>
      <g>
        <path class="cls-5" d="M125.48,48.75l-15.05-2.34c-.48-.07-.8-.51-.72-.99l2.85-18.37c.07-.48.51-.8.99-.72l15.05,2.34c.48.07.8.51.72.99l-2.85,18.37c-.07.48-.51.8-.99.72Z"/>
        <line class="cls-7" x1="110.17" y1="42.44" x2="126.93" y2="45.04"/>
        <g class="cls-14">
          <path class="cls-1" d="M118.34,33.86l3,.47-2.88,3.26,2.24.35-.07.47-3.15-.49,2.88-3.27-2.1-.33.07-.46Z"/>
        </g>
      </g>
      <g>
        <path class="cls-10" d="M72.6,36.59l-24.75,5.82c-.78.18-1.56-.29-1.74-1.08l-7.1-30.21c-.18-.78.29-1.56,1.08-1.74l24.75-5.82c.78-.18,1.56.29,1.74,1.08l7.1,30.21c.18.78-.29,1.56-1.08,1.74Z"/>
        <line class="cls-13" x1="44.96" y1="36.41" x2="72.52" y2="29.93"/>
        <g class="cls-14">
          <path class="cls-2" d="M58.29,21.19l.82.21c-.36,1.54-1.27,2.43-2.74,2.78-1.1.26-2.03.1-2.82-.47-.79-.58-1.29-1.33-1.5-2.22-.2-.85-.11-1.67.25-2.46.46-1,1.24-1.64,2.36-1.9,1.15-.27,2.16-.05,3.05.66.64.5,1.06,1.21,1.29,2.13l-6.05,1.42c.2.78.6,1.37,1.2,1.75.6.38,1.25.49,1.96.33.34-.08.67-.22.96-.41.29-.19.53-.42.71-.66.18-.26.35-.63.51-1.13ZM57.86,19.38c-.58-1.28-1.73-1.66-2.99-1.43-.66.15-1.18.5-1.55,1.03-.27.38-.43.91-.46,1.58l5-1.17Z"/>
        </g>
      </g>
      <g>
        <path class="cls-8" d="M93.2,46.88l-22.95-1.69c-.73-.05-1.26-.68-1.21-1.4l2.06-28.02c.05-.73.68-1.26,1.4-1.21l22.95,1.69c.73.05,1.26.68,1.21,1.4l-2.06,28.02c-.05.73-.68,1.26-1.4,1.21Z"/>
        <line class="cls-13" x1="69.37" y1="39.22" x2="94.94" y2="41.1"/>
        <g class="cls-14">
          <path class="cls-2" d="M83.02,25.12l.81.06-.46,6.23-.81-.06.46-6.23ZM83.61,22.58c.38.03.65.34.62.72-.03.36-.34.63-.72.61-.36-.03-.64-.34-.61-.71.03-.38.34-.65.71-.62Z"/>
        </g>
      </g>
      <path class="cls-4" d="M116.46,32.2l-14.57-4.44c-.46-.14-.72-.62-.58-1.08l5.42-17.78c.14-.46.62-.72,1.08-.58l14.57,4.44c.46.14.72.62.58,1.08l-5.42,17.78c-.14.46-.62.72-1.08.58Z"/>
      <line class="cls-7" x1="102.2" y1="23.78" x2="118.42" y2="28.73"/>
      <g class="cls-14">
        <path class="cls-1" d="M115.41,18.44l-.48.13c-.21-.57-.62-.95-1.22-1.13-.48-.15-.94-.11-1.35.1-.41.21-.69.54-.82.98-.28.87.23,1.88,1.19,2.13.58.18,1.13.09,1.64-.26l.32.39c-.55.45-1.32.58-2.13.33-.63-.19-1.09-.55-1.38-1.07-.29-.52-.35-1.07-.18-1.64.33-1.16,1.63-1.86,2.87-1.44.8.26,1.38.81,1.53,1.48Z"/>
      </g>
      <g>
        <path class="cls-12" d="M53.49,72.33l-36.75,8.64c-1.16.27-2.31-.44-2.58-1.6L3.62,34.51c-.27-1.16.44-2.31,1.6-2.58l36.75-8.64c1.16-.27,2.31.44,2.58,1.6l10.55,44.86c.27,1.16-.44,2.31-1.6,2.58Z"/>
        <line class="cls-13" x1="12.44" y1="72.06" x2="53.37" y2="62.44"/>
        <g class="cls-14">
          <path class="cls-2" d="M32.08,42.95l2.35,9.98-1.26.29-.4-1.71c-.77,1.55-1.96,2.54-3.54,2.91-1.41.33-2.75.11-3.99-.69-1.24-.8-2.04-1.92-2.38-3.39-.34-1.44-.12-2.79.64-4.03.77-1.27,1.87-2.07,3.3-2.4,1.63-.38,3.14.02,4.46,1.15l-.43-1.82,1.26-.3ZM27.18,45.13c-2.14.41-3.55,2.84-3.02,4.95.47,2.17,2.85,3.69,4.92,3.13,2.13-.48,3.63-2.7,3-4.95-.27-1.15-.88-2.04-1.83-2.63-.93-.59-1.96-.77-3.07-.5Z"/>
        </g>
      </g>
      <g>
        <path class="cls-9" d="M103.92,78.58l-25.67-7.83c-.81-.25-1.26-1.09-1.01-1.91l9.56-31.34c.25-.81,1.09-1.26,1.91-1.01l25.67,7.83c.81.25,1.26,1.09,1.01,1.91l-9.56,31.34c-.25.81-1.09,1.26-1.91,1.01Z"/>
        <line class="cls-13" x1="78.79" y1="63.74" x2="107.38" y2="72.46"/>
        <g class="cls-14">
          <path class="cls-2" d="M97.98,51.32c1.06.33,1.83.99,2.31,1.98.43.9.49,1.84.19,2.81-.3.97-.9,1.72-1.8,2.25-.89.52-1.87.62-2.93.3-1.06-.32-1.83-.96-2.29-1.89-.44-.94-.53-1.9-.23-2.87.3-.97.87-1.72,1.73-2.23.94-.56,1.96-.68,3.03-.35ZM97.71,52.2c-.75-.23-1.46-.15-2.17.24-.71.39-1.17.97-1.41,1.75-.49,1.53.37,3.21,1.87,3.61,1.44.5,3.12-.41,3.57-1.95.24-.77.16-1.53-.21-2.24-.37-.72-.92-1.18-1.65-1.41Z"/>
        </g>
      </g>
      <g>
        <path class="cls-11" d="M145.34,92.74l-30.8,7.22c-.97.23-1.94-.37-2.16-1.34l-8.82-37.6c-.23-.97.37-1.94,1.34-2.16l30.8-7.22c.97-.23,1.94.37,2.16,1.34l8.82,37.6c.23.97-.37,1.94-1.34,2.16Z"/>
        <line class="cls-13" x1="110.94" y1="92.5" x2="145.24" y2="84.45"/>
        <g class="cls-14">
          <path class="cls-2" d="M119.06,69.65l1.09-.26.92,3.91c.23.96.43,1.6.62,1.93.56.95,1.62,1.37,2.81,1.08,1.2-.28,1.93-1.12,2.02-2.14.03-.36-.08-1.04-.32-2.08l-.92-3.91,1.1-.26.96,4.09c.27,1.15.34,2.06.2,2.71-.24,1.3-1.17,2.25-2.8,2.64-.8.19-1.52.19-2.15-.01-.63-.2-1.15-.58-1.55-1.1-.41-.54-.76-1.4-1.04-2.58l-.95-4.03Z"/>
        </g>
      </g>
      <g>
        <path class="cls-3" d="M54.16,104.34l-22.1-5.88c-.7-.19-1.11-.89-.92-1.59l7.18-26.98c.19-.7.89-1.11,1.59-.92l22.1,5.88c.7.19,1.11.89.92,1.59l-7.18,26.98c-.19.7-.89,1.11-1.59.92Z"/>
        <line class="cls-7" x1="32.3" y1="92.47" x2="56.92" y2="99.02"/>
        <g class="cls-14">
          <path class="cls-1" d="M44.86,86.98l2.22-8.33.76.2-.89,3.35c.86-.63,1.78-.8,2.73-.55.85.23,1.5.73,1.94,1.51s.54,1.61.31,2.48c-.23.87-.74,1.54-1.51,2-.76.45-1.58.56-2.44.33-.98-.26-1.65-.89-2.05-1.9l-.3,1.11-.76-.2ZM48.11,87.22c1.26.4,2.71-.49,3.03-1.8.37-1.27-.48-2.8-1.73-3.08-1.29-.36-2.73.42-3.03,1.78-.19.7-.12,1.35.21,1.93.34.59.84.98,1.51,1.15Z"/>
        </g>
      </g>
    </g>
  </g>
</svg>