<svg xmlns="http://www.w3.org/2000/svg" xmlns:xlink="http://www.w3.org/1999/xlink" width="941" zoomAndPan="magnify" viewBox="0 0 705.75 635.999998" height="848" preserveAspectRatio="xMidYMid meet" version="1.0"><defs><clipPath id="02819f0e8e"><path d="M 0 123.148438 L 242.914062 123.148438 L 242.914062 366.0625 L 0 366.0625 Z M 0 123.148438 " clip-rule="nonzero"/></clipPath><clipPath id="f54035f085"><path d="M 25.492188 123.148438 L 217.421875 123.148438 C 224.183594 123.148438 230.667969 125.835938 235.449219 130.613281 C 240.226562 135.394531 242.914062 141.878906 242.914062 148.640625 L 242.914062 340.570312 C 242.914062 347.332031 240.226562 353.816406 235.449219 358.597656 C 230.667969 363.375 224.183594 366.0625 217.421875 366.0625 L 25.492188 366.0625 C 18.730469 366.0625 12.246094 363.375 7.464844 358.597656 C 2.6875 353.816406 0 347.332031 0 340.570312 L 0 148.640625 C 0 141.878906 2.6875 135.394531 7.464844 130.613281 C 12.246094 125.835938 18.730469 123.148438 25.492188 123.148438 Z M 25.492188 123.148438 " clip-rule="nonzero"/></clipPath><clipPath id="0f9568481f"><path d="M 462.414062 123.148438 L 705.328125 123.148438 L 705.328125 366.0625 L 462.414062 366.0625 Z M 462.414062 123.148438 " clip-rule="nonzero"/></clipPath><clipPath id="ecf5beecb7"><path d="M 487.90625 123.148438 L 679.835938 123.148438 C 686.597656 123.148438 693.082031 125.835938 697.863281 130.613281 C 702.644531 135.394531 705.328125 141.878906 705.328125 148.640625 L 705.328125 340.570312 C 705.328125 347.332031 702.644531 353.816406 697.863281 358.597656 C 693.082031 363.375 686.597656 366.0625 679.835938 366.0625 L 487.90625 366.0625 C 481.144531 366.0625 474.660156 363.375 469.882812 358.597656 C 465.101562 353.816406 462.414062 347.332031 462.414062 340.570312 L 462.414062 148.640625 C 462.414062 141.878906 465.101562 135.394531 469.882812 130.613281 C 474.660156 125.835938 481.144531 123.148438 487.90625 123.148438 Z M 487.90625 123.148438 " clip-rule="nonzero"/></clipPath><clipPath id="cbb340a15a"><path d="M 231.207031 123.148438 L 474.121094 123.148438 L 474.121094 366.0625 L 231.207031 366.0625 Z M 231.207031 123.148438 " clip-rule="nonzero"/></clipPath><clipPath id="e283f02045"><path d="M 256.699219 123.148438 L 448.628906 123.148438 C 455.390625 123.148438 461.875 125.835938 466.65625 130.613281 C 471.4375 135.394531 474.121094 141.878906 474.121094 148.640625 L 474.121094 340.570312 C 474.121094 347.332031 471.4375 353.816406 466.65625 358.597656 C 461.875 363.375 455.390625 366.0625 448.628906 366.0625 L 256.699219 366.0625 C 249.9375 366.0625 243.453125 363.375 238.671875 358.597656 C 233.894531 353.816406 231.207031 347.332031 231.207031 340.570312 L 231.207031 148.640625 C 231.207031 141.878906 233.894531 135.394531 238.671875 130.613281 C 243.453125 125.835938 249.9375 123.148438 256.699219 123.148438 Z M 256.699219 123.148438 " clip-rule="nonzero"/></clipPath><clipPath id="ede57b62dd"><path d="M 15.007812 145.640625 L 63.742188 145.640625 L 63.742188 194.375 L 15.007812 194.375 Z M 15.007812 145.640625 " clip-rule="nonzero"/></clipPath><clipPath id="09c6a49b26"><path d="M 39.433594 145.640625 C 25.945312 145.640625 15.007812 156.574219 15.007812 170.066406 C 15.007812 183.554688 25.945312 194.492188 39.433594 194.492188 C 52.921875 194.492188 63.859375 183.554688 63.859375 170.066406 C 63.859375 156.574219 52.921875 145.640625 39.433594 145.640625 Z M 39.433594 145.640625 " clip-rule="nonzero"/></clipPath><clipPath id="58ccd66771"><path d="M 259.183594 145.640625 L 307.917969 145.640625 L 307.917969 194.375 L 259.183594 194.375 Z M 259.183594 145.640625 " clip-rule="nonzero"/></clipPath><clipPath id="7933b49106"><path d="M 283.609375 145.640625 C 270.121094 145.640625 259.183594 156.574219 259.183594 170.066406 C 259.183594 183.554688 270.121094 194.492188 283.609375 194.492188 C 297.097656 194.492188 308.035156 183.554688 308.035156 170.066406 C 308.035156 156.574219 297.097656 145.640625 283.609375 145.640625 Z M 283.609375 145.640625 " clip-rule="nonzero"/></clipPath><clipPath id="1d9fe2a86b"><path d="M 501.863281 145.640625 L 550.59375 145.640625 L 550.59375 194.375 L 501.863281 194.375 Z M 501.863281 145.640625 " clip-rule="nonzero"/></clipPath><clipPath id="b94e30ff36"><path d="M 526.285156 145.640625 C 512.796875 145.640625 501.863281 156.574219 501.863281 170.066406 C 501.863281 183.554688 512.796875 194.492188 526.285156 194.492188 C 539.777344 194.492188 550.710938 183.554688 550.710938 170.066406 C 550.710938 156.574219 539.777344 145.640625 526.285156 145.640625 Z M 526.285156 145.640625 " clip-rule="nonzero"/></clipPath><clipPath id="49830c3f5a"><path d="M 232 226 L 544 226 L 544 443 L 232 443 Z M 232 226 " clip-rule="nonzero"/></clipPath><clipPath id="40282fd46b"><path d="M 568.113281 0.113281 L 699.398438 504.371094 L 195.144531 635.652344 L 63.859375 131.398438 Z M 568.113281 0.113281 " clip-rule="nonzero"/></clipPath><clipPath id="91ef0aae4e"><path d="M 568.113281 0.113281 L 699.398438 504.371094 L 195.144531 635.652344 L 63.859375 131.398438 Z M 568.113281 0.113281 " clip-rule="nonzero"/></clipPath><clipPath id="7af1ba03bf"><path d="M 568.113281 0.113281 L 699.398438 504.371094 L 195.144531 635.652344 L 63.859375 131.398438 Z M 568.113281 0.113281 " clip-rule="nonzero"/></clipPath><clipPath id="95df66197d"><path d="M 258 227 L 544 227 L 544 395 L 258 395 Z M 258 227 " clip-rule="nonzero"/></clipPath><clipPath id="fad8702362"><path d="M 568.113281 0.113281 L 699.398438 504.371094 L 195.144531 635.652344 L 63.859375 131.398438 Z M 568.113281 0.113281 " clip-rule="nonzero"/></clipPath><clipPath id="f9608c1d35"><path d="M 568.113281 0.113281 L 699.398438 504.371094 L 195.144531 635.652344 L 63.859375 131.398438 Z M 568.113281 0.113281 " clip-rule="nonzero"/></clipPath><clipPath id="aee4c3e392"><path d="M 568.113281 0.113281 L 699.398438 504.371094 L 195.144531 635.652344 L 63.859375 131.398438 Z M 568.113281 0.113281 " clip-rule="nonzero"/></clipPath><clipPath id="ab915a1b21"><path d="M 246 248 L 532 248 L 532 419 L 246 419 Z M 246 248 " clip-rule="nonzero"/></clipPath><clipPath id="fb541a816f"><path d="M 568.113281 0.113281 L 699.398438 504.371094 L 195.144531 635.652344 L 63.859375 131.398438 Z M 568.113281 0.113281 " clip-rule="nonzero"/></clipPath><clipPath id="563eecc420"><path d="M 568.113281 0.113281 L 699.398438 504.371094 L 195.144531 635.652344 L 63.859375 131.398438 Z M 568.113281 0.113281 " clip-rule="nonzero"/></clipPath><clipPath id="abc863f1df"><path d="M 568.113281 0.113281 L 699.398438 504.371094 L 195.144531 635.652344 L 63.859375 131.398438 Z M 568.113281 0.113281 " clip-rule="nonzero"/></clipPath><clipPath id="06071387d9"><path d="M 167 216 L 271 216 L 271 298 L 167 298 Z M 167 216 " clip-rule="nonzero"/></clipPath><clipPath id="f90c58cdce"><path d="M 568.113281 0.113281 L 699.398438 504.371094 L 195.144531 635.652344 L 63.859375 131.398438 Z M 568.113281 0.113281 " clip-rule="nonzero"/></clipPath><clipPath id="36fe59a1aa"><path d="M 568.113281 0.113281 L 699.398438 504.371094 L 195.144531 635.652344 L 63.859375 131.398438 Z M 568.113281 0.113281 " clip-rule="nonzero"/></clipPath><clipPath id="1e987cec5a"><path d="M 568.113281 0.113281 L 699.398438 504.371094 L 195.144531 635.652344 L 63.859375 131.398438 Z M 568.113281 0.113281 " clip-rule="nonzero"/></clipPath><clipPath id="dcc26c69d7"><path d="M 167 216 L 271 216 L 271 273 L 167 273 Z M 167 216 " clip-rule="nonzero"/></clipPath><clipPath id="2141173b9f"><path d="M 568.113281 0.113281 L 699.398438 504.371094 L 195.144531 635.652344 L 63.859375 131.398438 Z M 568.113281 0.113281 " clip-rule="nonzero"/></clipPath><clipPath id="da5bec251a"><path d="M 568.113281 0.113281 L 699.398438 504.371094 L 195.144531 635.652344 L 63.859375 131.398438 Z M 568.113281 0.113281 " clip-rule="nonzero"/></clipPath><clipPath id="74849bc018"><path d="M 568.113281 0.113281 L 699.398438 504.371094 L 195.144531 635.652344 L 63.859375 131.398438 Z M 568.113281 0.113281 " clip-rule="nonzero"/></clipPath><clipPath id="12822abcfc"><path d="M 167 216 L 271 216 L 271 249 L 167 249 Z M 167 216 " clip-rule="nonzero"/></clipPath><clipPath id="026530f2cd"><path d="M 568.113281 0.113281 L 699.398438 504.371094 L 195.144531 635.652344 L 63.859375 131.398438 Z M 568.113281 0.113281 " clip-rule="nonzero"/></clipPath><clipPath id="4b45da90a0"><path d="M 568.113281 0.113281 L 699.398438 504.371094 L 195.144531 635.652344 L 63.859375 131.398438 Z M 568.113281 0.113281 " clip-rule="nonzero"/></clipPath><clipPath id="e9d98aea2a"><path d="M 568.113281 0.113281 L 699.398438 504.371094 L 195.144531 635.652344 L 63.859375 131.398438 Z M 568.113281 0.113281 " clip-rule="nonzero"/></clipPath><clipPath id="b47c03d339"><path d="M 167 216 L 202 216 L 202 244 L 167 244 Z M 167 216 " clip-rule="nonzero"/></clipPath><clipPath id="ce3a5ca84b"><path d="M 568.113281 0.113281 L 699.398438 504.371094 L 195.144531 635.652344 L 63.859375 131.398438 Z M 568.113281 0.113281 " clip-rule="nonzero"/></clipPath><clipPath id="d451d0c7df"><path d="M 568.113281 0.113281 L 699.398438 504.371094 L 195.144531 635.652344 L 63.859375 131.398438 Z M 568.113281 0.113281 " clip-rule="nonzero"/></clipPath><clipPath id="34854bd42f"><path d="M 568.113281 0.113281 L 699.398438 504.371094 L 195.144531 635.652344 L 63.859375 131.398438 Z M 568.113281 0.113281 " clip-rule="nonzero"/></clipPath><clipPath id="8ad0a330f5"><path d="M 505 372 L 582 372 L 582 462 L 505 462 Z M 505 372 " clip-rule="nonzero"/></clipPath><clipPath id="7d134b133d"><path d="M 568.113281 0.113281 L 699.398438 504.371094 L 195.144531 635.652344 L 63.859375 131.398438 Z M 568.113281 0.113281 " clip-rule="nonzero"/></clipPath><clipPath id="3f088fd5ba"><path d="M 568.113281 0.113281 L 699.398438 504.371094 L 195.144531 635.652344 L 63.859375 131.398438 Z M 568.113281 0.113281 " clip-rule="nonzero"/></clipPath><clipPath id="79db348f25"><path d="M 568.113281 0.113281 L 699.398438 504.371094 L 195.144531 635.652344 L 63.859375 131.398438 Z M 568.113281 0.113281 " clip-rule="nonzero"/></clipPath><clipPath id="f842341002"><path d="M 505 394 L 575 394 L 575 462 L 505 462 Z M 505 394 " clip-rule="nonzero"/></clipPath><clipPath id="568d655d6d"><path d="M 568.113281 0.113281 L 699.398438 504.371094 L 195.144531 635.652344 L 63.859375 131.398438 Z M 568.113281 0.113281 " clip-rule="nonzero"/></clipPath><clipPath id="8edead0b8b"><path d="M 568.113281 0.113281 L 699.398438 504.371094 L 195.144531 635.652344 L 63.859375 131.398438 Z M 568.113281 0.113281 " clip-rule="nonzero"/></clipPath><clipPath id="6e8554899c"><path d="M 568.113281 0.113281 L 699.398438 504.371094 L 195.144531 635.652344 L 63.859375 131.398438 Z M 568.113281 0.113281 " clip-rule="nonzero"/></clipPath><clipPath id="607eeaf802"><path d="M 505 418 L 562 418 L 562 462 L 505 462 Z M 505 418 " clip-rule="nonzero"/></clipPath><clipPath id="fc0d9824f3"><path d="M 568.113281 0.113281 L 699.398438 504.371094 L 195.144531 635.652344 L 63.859375 131.398438 Z M 568.113281 0.113281 " clip-rule="nonzero"/></clipPath><clipPath id="54c58f7cd6"><path d="M 568.113281 0.113281 L 699.398438 504.371094 L 195.144531 635.652344 L 63.859375 131.398438 Z M 568.113281 0.113281 " clip-rule="nonzero"/></clipPath><clipPath id="eab78ef484"><path d="M 568.113281 0.113281 L 699.398438 504.371094 L 195.144531 635.652344 L 63.859375 131.398438 Z M 568.113281 0.113281 " clip-rule="nonzero"/></clipPath></defs><g clip-path="url(#02819f0e8e)"><g clip-path="url(#f54035f085)"><path fill="#ffffff" d="M 0 123.148438 L 242.914062 123.148438 L 242.914062 366.0625 L 0 366.0625 Z M 0 123.148438 " fill-opacity="1" fill-rule="nonzero"/><path stroke-linecap="butt" transform="matrix(0.749734, 0, 0, 0.749734, 0, 123.148534)" fill="none" stroke-linejoin="miter" d="M 34.001625 -0.000129122 L 289.998536 -0.000129122 C 299.017355 -0.000129122 307.666251 3.584474 314.04351 9.956522 C 320.415558 16.333781 324.000161 24.982677 324.000161 34.001496 L 324.000161 289.998407 C 324.000161 299.017226 320.415558 307.666122 314.04351 314.043381 C 307.666251 320.415429 299.017355 324.000032 289.998536 324.000032 L 34.001625 324.000032 C 24.982806 324.000032 16.33391 320.415429 9.956651 314.043381 C 3.584603 307.666122 0 299.017226 0 289.998407 L 0 34.001496 C 0 24.982677 3.584603 16.333781 9.956651 9.956522 C 16.33391 3.584474 24.982806 -0.000129122 34.001625 -0.000129122 Z M 34.001625 -0.000129122 " stroke="#a453a0" stroke-width="36" stroke-opacity="1" stroke-miterlimit="4"/></g></g><g clip-path="url(#0f9568481f)"><g clip-path="url(#ecf5beecb7)"><path fill="#ffffff" d="M 462.414062 123.148438 L 705.328125 123.148438 L 705.328125 366.0625 L 462.414062 366.0625 Z M 462.414062 123.148438 " fill-opacity="1" fill-rule="nonzero"/><path stroke-linecap="butt" transform="matrix(0.749734, 0, 0, 0.749734, 462.414794, 123.148534)" fill="none" stroke-linejoin="miter" d="M 34.000649 -0.000129122 L 289.99756 -0.000129122 C 299.016379 -0.000129122 307.665276 3.584474 314.042534 9.956522 C 320.419793 16.333781 323.999185 24.982677 323.999185 34.001496 L 323.999185 289.998407 C 323.999185 299.017226 320.419793 307.666122 314.042534 314.043381 C 307.665276 320.415429 299.016379 324.000032 289.99756 324.000032 L 34.000649 324.000032 C 24.98183 324.000032 16.332934 320.415429 9.960885 314.043381 C 3.583627 307.666122 -0.000975821 299.017226 -0.000975821 289.998407 L -0.000975821 34.001496 C -0.000975821 24.982677 3.583627 16.333781 9.960885 9.956522 C 16.332934 3.584474 24.98183 -0.000129122 34.000649 -0.000129122 Z M 34.000649 -0.000129122 " stroke="#a453a0" stroke-width="36" stroke-opacity="1" stroke-miterlimit="4"/></g></g><g clip-path="url(#cbb340a15a)"><g clip-path="url(#e283f02045)"><path fill="#ffffff" d="M 231.207031 123.148438 L 474.121094 123.148438 L 474.121094 366.0625 L 231.207031 366.0625 Z M 231.207031 123.148438 " fill-opacity="1" fill-rule="nonzero"/><path stroke-linecap="butt" transform="matrix(0.749734, 0, 0, 0.749734, 231.207395, 123.148534)" fill="none" stroke-linejoin="miter" d="M 34.00114 -0.000129122 L 289.998051 -0.000129122 C 299.01687 -0.000129122 307.665767 3.584474 314.043025 9.956522 C 320.420284 16.333781 323.999676 24.982677 323.999676 34.001496 L 323.999676 289.998407 C 323.999676 299.017226 320.420284 307.666122 314.043025 314.043381 C 307.665767 320.415429 299.01687 324.000032 289.998051 324.000032 L 34.00114 324.000032 C 24.982321 324.000032 16.333425 320.415429 9.956166 314.043381 C 3.584118 307.666122 -0.000484711 299.017226 -0.000484711 289.998407 L -0.000484711 34.001496 C -0.000484711 24.982677 3.584118 16.333781 9.956166 9.956522 C 16.333425 3.584474 24.982321 -0.000129122 34.00114 -0.000129122 Z M 34.00114 -0.000129122 " stroke="#a453a0" stroke-width="36" stroke-opacity="1" stroke-miterlimit="4"/></g></g><g clip-path="url(#ede57b62dd)"><g clip-path="url(#09c6a49b26)"><path stroke-linecap="butt" transform="matrix(0.749734, 0, 0, 0.749734, 15.008485, 145.640566)" fill="none" stroke-linejoin="miter" d="M 32.57835 0.000078764 C 14.587603 0.000078764 -0.000896388 14.583368 -0.000896388 32.579325 C -0.000896388 50.570071 14.587603 65.158571 32.57835 65.158571 C 50.569096 65.158571 65.157596 50.570071 65.157596 32.579325 C 65.157596 14.583368 50.569096 0.000078764 32.57835 0.000078764 Z M 32.57835 0.000078764 " stroke="#a453a0" stroke-width="20" stroke-opacity="1" stroke-miterlimit="4"/></g></g><g clip-path="url(#58ccd66771)"><g clip-path="url(#7933b49106)"><path stroke-linecap="butt" transform="matrix(0.749734, 0, 0, 0.749734, 259.18397, 145.640566)" fill="none" stroke-linejoin="miter" d="M 32.578745 0.000078764 C 14.587998 0.000078764 -0.00050139 14.583368 -0.00050139 32.579325 C -0.00050139 50.570071 14.587998 65.158571 32.578745 65.158571 C 50.569491 65.158571 65.157991 50.570071 65.157991 32.579325 C 65.157991 14.583368 50.569491 0.000078764 32.578745 0.000078764 Z M 32.578745 0.000078764 " stroke="#a453a0" stroke-width="20" stroke-opacity="1" stroke-miterlimit="4"/></g></g><g clip-path="url(#1d9fe2a86b)"><g clip-path="url(#b94e30ff36)"><path stroke-linecap="butt" transform="matrix(0.749734, 0, 0, 0.749734, 501.861547, 145.640566)" fill="none" stroke-linejoin="miter" d="M 32.576349 0.000078764 C 14.585603 0.000078764 0.002313 14.583368 0.002313 32.579325 C 0.002313 50.570071 14.585603 65.158571 32.576349 65.158571 C 50.572306 65.158571 65.155595 50.570071 65.155595 32.579325 C 65.155595 14.583368 50.572306 0.000078764 32.576349 0.000078764 Z M 32.576349 0.000078764 " stroke="#a453a0" stroke-width="20" stroke-opacity="1" stroke-miterlimit="4"/></g></g><g clip-path="url(#49830c3f5a)"><g clip-path="url(#40282fd46b)"><g clip-path="url(#91ef0aae4e)"><g clip-path="url(#7af1ba03bf)"><path fill="#cc9d0c" d="M 270.367188 226.945312 L 543.453125 372.390625 L 505.953125 442.804688 L 232.863281 297.355469 Z M 270.367188 226.945312 " fill-opacity="1" fill-rule="nonzero"/></g></g></g></g><g clip-path="url(#95df66197d)"><g clip-path="url(#fad8702362)"><g clip-path="url(#f9608c1d35)"><g clip-path="url(#aee4c3e392)"><path fill="#ffe4aa" d="M 270.347656 227.136719 L 543.503906 372.449219 L 531.859375 394.339844 L 258.703125 249.027344 Z M 270.347656 227.136719 " fill-opacity="1" fill-rule="nonzero"/></g></g></g></g><g clip-path="url(#ab915a1b21)"><g clip-path="url(#fb541a816f)"><g clip-path="url(#563eecc420)"><g clip-path="url(#abc863f1df)"><path fill="#ffc20e" d="M 258.753906 248.953125 L 531.757812 394.558594 L 519.074219 418.339844 L 246.070312 272.734375 Z M 258.753906 248.953125 " fill-opacity="1" fill-rule="nonzero"/></g></g></g></g><g clip-path="url(#06071387d9)"><g clip-path="url(#f90c58cdce)"><g clip-path="url(#36fe59a1aa)"><g clip-path="url(#1e987cec5a)"><path fill="#ddbda1" d="M 232.996094 297.539062 L 270.402344 227.269531 L 167.710938 216.503906 Z M 232.996094 297.539062 " fill-opacity="1" fill-rule="nonzero"/></g></g></g></g><g clip-path="url(#dcc26c69d7)"><g clip-path="url(#2141173b9f)"><g clip-path="url(#da5bec251a)"><g clip-path="url(#74849bc018)"><path fill="#f1d7b7" d="M 245.828125 272.660156 L 270.402344 227.269531 L 167.710938 216.503906 Z M 245.828125 272.660156 " fill-opacity="1" fill-rule="nonzero"/></g></g></g></g><g clip-path="url(#12822abcfc)"><g clip-path="url(#026530f2cd)"><g clip-path="url(#4b45da90a0)"><g clip-path="url(#e9d98aea2a)"><path fill="#f9f6c4" d="M 258.585938 248.914062 L 270.402344 227.269531 L 167.710938 216.503906 Z M 258.585938 248.914062 " fill-opacity="1" fill-rule="nonzero"/></g></g></g></g><g clip-path="url(#b47c03d339)"><g clip-path="url(#ce3a5ca84b)"><g clip-path="url(#d451d0c7df)"><g clip-path="url(#34854bd42f)"><path fill="#39454f" d="M 201.648438 219.921875 L 167.710938 216.503906 L 189.148438 243.226562 Z M 201.648438 219.921875 " fill-opacity="1" fill-rule="nonzero"/></g></g></g></g><g clip-path="url(#8ad0a330f5)"><g clip-path="url(#7d134b133d)"><g clip-path="url(#3f088fd5ba)"><g clip-path="url(#79db348f25)"><path fill="#f2987e" d="M 505.914062 442.972656 L 537.804688 459.917969 C 543.414062 462.914062 550.882812 460.226562 554.394531 453.742188 L 579.300781 406.785156 C 582.8125 400.300781 580.820312 392.648438 575.210938 389.652344 L 543.320312 372.703125 Z M 505.914062 442.972656 " fill-opacity="1" fill-rule="nonzero"/></g></g></g></g><g clip-path="url(#f842341002)"><g clip-path="url(#568d655d6d)"><g clip-path="url(#8edead0b8b)"><g clip-path="url(#6e8554899c)"><path fill="#e9513d" d="M 554.394531 453.742188 L 574.082031 416.683594 L 531.851562 394.257812 L 505.914062 442.972656 L 537.804688 459.917969 C 543.761719 462.824219 551.230469 460.136719 554.394531 453.742188 Z M 554.394531 453.742188 " fill-opacity="1" fill-rule="nonzero"/></g></g></g></g><g clip-path="url(#607eeaf802)"><g clip-path="url(#fc0d9824f3)"><g clip-path="url(#54c58f7cd6)"><g clip-path="url(#eab78ef484)"><path fill="#b63d2e" d="M 554.394531 453.742188 L 561.414062 440.777344 L 519.1875 418.351562 L 505.914062 442.972656 L 537.804688 459.917969 C 543.761719 462.824219 551.230469 460.136719 554.394531 453.742188 Z M 554.394531 453.742188 " fill-opacity="1" fill-rule="nonzero"/></g></g></g></g></svg>