<?xml version="1.0" encoding="UTF-8"?>
<svg id="Layer_2" data-name="Layer 2" xmlns="http://www.w3.org/2000/svg" xmlns:xlink="http://www.w3.org/1999/xlink" viewBox="0 0 101.06 79.94">
  <defs>
    <style>
      .cls-1 {
        fill: #383739;
      }

      .cls-1, .cls-2, .cls-3, .cls-4, .cls-5, .cls-6, .cls-7, .cls-8, .cls-9, .cls-10, .cls-11, .cls-12, .cls-13, .cls-14, .cls-15, .cls-16, .cls-17 {
        stroke-width: 0px;
      }

      .cls-2 {
        fill: #414142;
      }

      .cls-3 {
        fill: #e6e7e7;
      }

      .cls-4 {
        fill: #f48066;
      }

      .cls-5 {
        fill: #cdaad0;
      }

      .cls-18 {
        filter: url(#drop-shadow-2);
      }

      .cls-19 {
        filter: url(#drop-shadow-3);
      }

      .cls-20 {
        filter: url(#drop-shadow-1);
      }

      .cls-6 {
        fill: #f15e49;
      }

      .cls-7 {
        fill: #f69a97;
      }

      .cls-8 {
        fill: #eceeef;
      }

      .cls-21 {
        stroke: #babcbe;
      }

      .cls-21, .cls-22, .cls-23, .cls-24 {
        fill: none;
        stroke-linecap: round;
        stroke-linejoin: round;
      }

      .cls-21, .cls-24 {
        stroke-width: .65px;
      }

      .cls-9 {
        fill: #f38493;
      }

      .cls-22 {
        stroke-width: 1.15px;
      }

      .cls-22, .cls-23 {
        stroke: #b2b4b5;
      }

      .cls-23 {
        stroke-width: 1.13px;
      }

      .cls-10 {
        fill: #f68f76;
      }

      .cls-11 {
        fill: #bbbec0;
      }

      .cls-12 {
        fill: #ef4237;
      }

      .cls-13 {
        fill: #9d4198;
      }

      .cls-14 {
        fill: #a454a1;
      }

      .cls-15 {
        fill: #ffc316;
      }

      .cls-16 {
        fill: #fff;
      }

      .cls-24 {
        stroke: #f59220;
      }

      .cls-17 {
        fill: #003751;
      }
    </style>
    <filter id="drop-shadow-1" filterUnits="userSpaceOnUse">
      <feOffset dx="3" dy="3"/>
      <feGaussianBlur result="blur" stdDeviation="2"/>
      <feFlood flood-color="#231f20" flood-opacity=".1"/>
      <feComposite in2="blur" operator="in"/>
      <feComposite in="SourceGraphic"/>
    </filter>
    <filter id="drop-shadow-2" filterUnits="userSpaceOnUse">
      <feOffset dx="3" dy="3"/>
      <feGaussianBlur result="blur-2" stdDeviation="2"/>
      <feFlood flood-color="#231f20" flood-opacity=".1"/>
      <feComposite in2="blur-2" operator="in"/>
      <feComposite in="SourceGraphic"/>
    </filter>
    <filter id="drop-shadow-3" filterUnits="userSpaceOnUse">
      <feOffset dx="3" dy="3"/>
      <feGaussianBlur result="blur-3" stdDeviation="2"/>
      <feFlood flood-color="#231f20" flood-opacity=".1"/>
      <feComposite in2="blur-3" operator="in"/>
      <feComposite in="SourceGraphic"/>
    </filter>
  </defs>
  <g id="Layer_1-2" data-name="Layer 1">
    <g>
      <g class="cls-20">
        <polygon class="cls-2" points="47.4 33.48 47.4 33.48 47.86 33.5 48.32 33.53 48.78 33.6 49.19 33.68 49.6 33.8 49.99 33.93 50.35 34.08 50.68 34.22 50.96 34.42 51.24 34.62 51.47 34.85 51.68 35.07 51.83 35.29 51.93 35.54 52.01 35.82 52.04 36.06 52.04 36.06 52.01 36.34 51.93 36.59 51.83 36.84 51.68 37.08 51.47 37.31 51.24 37.51 50.96 37.73 50.68 37.91 50.35 38.08 49.99 38.23 49.6 38.35 49.19 38.45 48.78 38.55 48.32 38.6 47.86 38.65 47.4 38.65 47.4 38.65 46.94 38.65 46.48 38.6 46.02 38.55 45.61 38.45 45.2 38.35 44.82 38.23 44.46 38.08 44.13 37.91 43.84 37.73 43.56 37.51 43.33 37.31 43.13 37.08 42.97 36.84 42.87 36.59 42.8 36.34 42.77 36.06 42.77 36.06 42.8 35.82 42.87 35.54 42.97 35.29 43.13 35.07 43.33 34.85 43.56 34.62 43.84 34.42 44.13 34.22 44.46 34.08 44.82 33.93 45.2 33.8 45.61 33.68 46.02 33.6 46.48 33.53 46.94 33.5 47.4 33.48 47.4 33.48 47.4 33.48"/>
        <polygon class="cls-8" points="41.85 33.9 52.65 33.9 52.65 35 41.85 35 41.85 33.9 41.85 33.9"/>
        <polygon class="cls-11" points="41.85 35.59 41.85 35.59 41.87 35.84 41.93 36.06 52.57 36.06 52.57 36.06 52.62 35.84 52.65 35.59 52.65 34.97 41.85 34.97 41.85 35.59 41.85 35.59 41.85 35.59"/>
        <polygon class="cls-8" points="43.77 37.46 50.76 37.46 50.76 37.46 51.09 37.43 51.4 37.33 51.68 37.21 51.93 37.06 52.14 36.86 52.34 36.61 52.5 36.36 52.6 36.06 41.95 36.06 41.95 36.06 42.05 36.36 42.18 36.61 42.36 36.86 42.59 37.06 42.85 37.21 43.13 37.33 43.44 37.43 43.77 37.46 43.77 37.46 43.77 37.46"/>
        <polygon class="cls-11" points="41.85 32.81 52.65 32.81 52.65 33.9 41.85 33.9 41.85 32.81 41.85 32.81"/>
        <polygon class="cls-11" points="41.85 29.52 52.65 29.52 52.65 31.74 41.85 31.74 41.85 29.52 41.85 29.52"/>
        <polygon class="cls-8" points="41.85 31.74 52.65 31.74 52.65 32.83 41.85 32.83 41.85 31.74 41.85 31.74"/>
        <polygon class="cls-15" points="59.87 12.09 59.87 12.09 59.84 11.47 59.79 10.87 59.71 10.25 59.61 9.65 59.46 9.08 59.3 8.51 59.1 7.93 58.87 7.39 58.64 6.84 58.36 6.32 58.05 5.82 57.74 5.32 57.38 4.85 57.03 4.4 56.62 3.96 56.21 3.53 55.77 3.13 55.34 2.76 54.85 2.39 54.36 2.06 53.85 1.74 53.34 1.44 52.8 1.19 52.24 .95 51.68 .72 51.11 .52 50.53 .37 49.91 .22 49.3 .12 48.68 .05 48.04 0 47.4 0 47.4 0 46.76 0 46.12 .05 45.51 .12 44.89 .22 44.28 .37 43.69 .52 43.13 .72 42.57 .95 42 1.19 41.46 1.44 40.95 1.74 40.44 2.06 39.95 2.39 39.47 2.76 39.03 3.13 38.6 3.53 38.19 3.96 37.78 4.4 37.42 4.85 37.06 5.32 36.75 5.82 36.45 6.32 36.17 6.84 35.94 7.39 35.71 7.93 35.5 8.51 35.35 9.08 35.19 9.65 35.09 10.25 35.01 10.87 34.96 11.47 34.94 12.09 34.94 12.09 34.96 12.88 35.04 13.63 35.17 14.33 35.35 15 35.55 15.64 35.81 16.29 36.06 16.89 36.37 17.49 36.7 18.08 37.04 18.65 37.78 19.82 38.52 21.04 38.9 21.66 39.29 22.31 39.29 22.31 39.42 22.61 39.57 22.96 39.7 23.38 39.83 23.85 40.08 24.9 40.29 25.97 40.47 26.96 40.59 27.78 40.7 28.58 40.7 28.58 40.7 28.8 40.75 29 40.8 29.2 40.88 29.4 40.95 29.57 41.08 29.77 41.18 29.92 41.34 30.07 41.49 30.22 41.67 30.34 41.85 30.44 42.03 30.52 42.23 30.59 42.44 30.64 42.64 30.69 42.87 30.69 51.96 30.69 51.96 30.69 52.19 30.69 52.39 30.64 52.6 30.59 52.8 30.52 52.98 30.44 53.16 30.34 53.34 30.22 53.49 30.07 53.62 29.92 53.75 29.77 53.88 29.57 53.96 29.4 54.03 29.2 54.08 29 54.13 28.8 54.13 28.58 54.13 28.58 54.24 27.78 54.36 26.96 54.54 25.97 54.75 24.9 55 23.85 55.13 23.38 55.26 22.96 55.41 22.61 55.54 22.31 55.54 22.31 55.93 21.66 56.28 21.04 57.05 19.82 57.77 18.65 58.1 18.08 58.43 17.49 58.74 16.89 59 16.29 59.25 15.64 59.46 15 59.64 14.33 59.77 13.63 59.84 12.88 59.87 12.09 59.87 12.09 59.87 12.09"/>
        <path class="cls-21" d="M45.08,30.69c0-12.7-2.99-19.9-2.99-19.9"/>
        <path class="cls-21" d="M49.42,30.69c0-12.7,2.99-19.9,2.99-19.9"/>
        <path class="cls-24" d="M48.19,11.1c0,1.32-1.1,2.39-2.46,2.39s-2.46-1.07-2.46-2.39c0-.41.14-1.5.92-1.5s.98,1.05.98,1.5c0,1.52-1.29,2.27-2.8,2.48"/>
        <path class="cls-24" d="M51.22,11.1c0,1.32-1.1,2.39-2.46,2.39s-2.46-1.07-2.46-2.39c0-.41.14-1.5.92-1.5s.98,1.05.98,1.5"/>
        <path class="cls-24" d="M51.79,13.49c-1.36,0-2.46-1.07-2.46-2.39,0-.41.14-1.5.92-1.5s.98,1.05.98,1.5"/>
      </g>
      <g class="cls-18">
        <path class="cls-12" d="M38.93,66.35c.97,5.12-5.44,8.94-13.97,10.55s-15.85.55-16.85-4.74,2.61-12.61,1.27-19.73c-1.21-6.41,2.94-7.32,9.35-8.53s10.79-.94,11.82,4.53c1.27,6.4,7.41,12.79,8.37,17.91Z"/>
        <path class="cls-16" d="M33.4,64.78c.73,3.88-2.42,8.5-8.89,9.72s-11.06-1.81-11.82-5.81-1.53-7.14-.74-12.65c.71-4.95,2.68-7.45,7.56-8.37s7.83,1.14,10.03,5.05c2.45,4.29,3.13,8.18,3.86,12.06Z"/>
        <path class="cls-6" d="M30.16,76.35c-1.28-6.76-.35-14.43,2-18.1,1.83-2.9,4.69-4.54,8.06-2.8,2.97,1.51,3.5,5.61,1.13,10.51-1.79,3.75-3.43,5.7-5,7.4-1.72,1.85-3.19,3.1-4.33,3.86-.87.53-1.68.13-1.87-.87Z"/>
        <ellipse class="cls-7" cx="37.68" cy="59.37" rx="1.74" ry="1.38" transform="translate(-29.37 80.55) rotate(-75.13)"/>
        <ellipse class="cls-7" cx="40.29" cy="61.97" rx="1.62" ry="1.32" transform="translate(-32.7 73.63) rotate(-66.05)"/>
        <ellipse class="cls-7" cx="34.07" cy="59.96" rx="1.62" ry="1.32" transform="translate(-29.01 87.82) rotate(-84.22)"/>
        <path class="cls-7" d="M32.32,65.22c-.68,2.87-1.69,7.51.36,8.03s4.23-3.72,5.67-6.43c1.19-2.11-.19-4.23-1.72-4.61-1.54-.44-3.59,0-4.31,3Z"/>
        <path class="cls-6" d="M20.16,78.24c-1.28-6.76-4.93-13.56-8.46-16.13-2.76-2.04-6.02-2.52-8.53.33-2.21,2.49-1.21,6.5,2.78,10.2,3.03,2.84,5.27,4.06,7.35,5.07,2.28,1.09,4.1,1.72,5.44,2.02,1.01.18,1.61-.49,1.42-1.49Z"/>
        <ellipse class="cls-7" cx="6.92" cy="65.16" rx="1.38" ry="1.74" transform="translate(-37.18 16.69) rotate(-36.24)"/>
        <ellipse class="cls-7" cx="5.46" cy="68.52" rx="1.32" ry="1.62" transform="translate(-47.1 24.22) rotate(-45.32)"/>
        <ellipse class="cls-7" cx="10.55" cy="64.39" rx="1.32" ry="1.62" transform="translate(-28.22 11.91) rotate(-27.15)"/>
        <path class="cls-7" d="M14.09,68.66c1.68,2.42,4.31,6.37,2.59,7.61-1.72,1.24-5.3-1.92-7.62-3.92-1.87-1.53-1.36-4.01-.08-4.92,1.28-.97,3.35-1.3,5.1,1.23Z"/>
        <path class="cls-6" d="M28.5,43.65c3.98,3.33,6.1,5.85,5.1,7.02s-3.91-1.03-5.96-2.84c-1.45-1.25-3.4-2.83-5.81-4.32-.35-.24,2.26-1.58,4.06-1.38,1.07.16,1.66.72,2.6,1.52Z"/>
        <path class="cls-6" d="M9.74,47.19c-2.49,4.55-3.55,7.67-2.19,8.39s3.27-2.38,4.51-4.81c.9-1.69,2.13-3.87,3.83-6.14.24-.35-2.68-.65-4.29.2-.93.54-1.28,1.28-1.87,2.36Z"/>
        <path class="cls-6" d="M28.83,53.46c.24-1.63.71-3.36,1.36-4.4.76-1.12,3.44-.47,3.57.85.1,1.2-.03,2.75-.45,4.41-.88,3.39-2.73,5.87-4.07,5.52-1.28-.31-.86-2.64-.41-6.38Z"/>
        <path class="cls-6" d="M29.82,62.28c.53-1.07,2.16-3.7.47-4.6-1.42-.77-3.48.29-4.51,2.25-1.02,2.02-.72,4.28.76,4.97,1.47.7,2.66-1.41,3.28-2.63Z"/>
        <path class="cls-12" d="M26.12,64.63c-.12-.65-.19-1.67-.04-2.49.03-.19.24-.35.44-.27.19.03.35.24.27.44-.18,1.01.09,2.42.16,2.77-.13-.04-.26-.07-.39-.11-.15-.15-.29-.25-.43-.35Z"/>
        <path class="cls-12" d="M28.02,62.08c.19.03.35.24.27.44-.12.63-.09,1.48-.05,2.02-.2.22-.48.34-.71.44-.04-.54-.13-1.68.06-2.57.08-.2.24-.35.43-.32Z"/>
        <path class="cls-6" d="M12.97,56.27c-.82-1.43-1.88-2.87-2.87-3.6-1.12-.76-3.38.82-3.02,2.09.34,1.15,1.03,2.55,2.02,3.94,2.06,2.84,4.68,4.48,5.81,3.66,1.08-.75-.1-2.78-1.94-6.09Z"/>
        <path class="cls-6" d="M15.26,64.85c-.88-.81-3.36-2.65-2.12-4.11,1.05-1.23,3.34-1,5.02.45,1.69,1.51,2.22,3.72,1.11,4.91-1.13,1.13-3-.41-4.01-1.25Z"/>
        <path class="cls-12" d="M19.56,65.68c-.12-.65-.43-1.62-.87-2.33-.09-.17-.35-.24-.5-.09-.17.09-.24.35-.09.5.53.87.8,2.29.86,2.64.11-.08.21-.16.32-.24.08-.2.18-.34.28-.48Z"/>
        <path class="cls-12" d="M16.87,64c-.17.09-.24.35-.09.5.35.54.62,1.34.78,1.86.27.13.57.14.82.15-.16-.52-.49-1.61-1-2.37-.16-.21-.35-.24-.51-.15Z"/>
        <path class="cls-12" d="M31.81,26.34c-3.08-5.69-8.6-10.07-17.6-8.37h0c-8.94,1.69-12.49,7.72-13.35,14.15-.8,6.42,2.29,9.86,8.15,11.25,5.85,1.33,8.3,1.36,10.12,1.01h0c1.82-.34,4.1-1.2,9.05-4.63,5.03-3.38,6.69-7.78,3.62-13.41Z"/>
        <path class="cls-16" d="M28.46,34.4c-3.71,2.28-6.43.48-8.25-1.12-1.46-1.31-2.39-2.96-3.62-2.73-1.35.26-1.7,2.94-2.38,3.86-1.39,1.97-2.67,4.58-7.68,3.52-2.28-.48-3.61.25-3.93,1.78,1.42,1.74,3.6,2.92,6.46,3.59,5.85,1.33,8.3,1.36,10.12,1.01h0c1.82-.34,4.1-1.2,9.05-4.63,2.05-1.42,3.53-2.92,4.3-4.65-.44-1.38-1.62-2.13-4.08-.63Z"/>
        <line class="cls-23" x1="18.06" y1="38.37" x2="17.52" y2="35.49"/>
        <path class="cls-7" d="M14.22,34.47s.56-.9,2.86-1.33,3.14.2,3.14.2c0,0-.47.76-1.16,1.62s-1.38,1.42-1.38,1.42c0,0-.78-.28-1.74-.83-.96-.55-1.73-1.08-1.73-1.08Z"/>
        <path class="cls-4" d="M12.45,32.19c.04,3.46-1.93,3.65-4.2,4.2-2.67.69-4.65-1.74-4.11-4.34.56-2.54,2.57-6.09,4.83-6.03,2.33.11,3.46,3.49,3.48,6.17Z"/>
        <path class="cls-16" d="M12.48,32.36c-.05,3.3-2.02,3.49-4.22,4.09-2.67.69-4.27-1.63-3.64-4.12.64-2.43,2.38-5.44,4.64-5.44,2.19.01,3.22,2.86,3.23,5.48Z"/>
        <path class="cls-4" d="M20.74,30.62c1.22,3.24,3.13,2.7,5.44,2.38,2.74-.33,3.7-3.32,2.24-5.54-1.44-2.16-4.61-4.73-6.7-3.85-2.08.94-1.95,4.51-.99,7.01Z"/>
        <path class="cls-16" d="M20.71,30.81c1.25,3.05,3.15,2.51,5.42,2.27,2.74-.33,3.38-3.07,1.89-5.17-1.48-2.04-4.2-4.2-6.3-3.38-2.04.81-1.96,3.84-1.01,6.28Z"/>
        <circle class="cls-3" cx="14.41" cy="36.44" r=".36"/>
        <circle class="cls-3" cx="15.72" cy="37.9" r=".36"/>
        <circle class="cls-3" cx="13.72" cy="38.28" r=".36"/>
        <circle class="cls-3" cx="20.64" cy="35.27" r=".36"/>
        <circle class="cls-3" cx="21.89" cy="36.74" r=".36"/>
        <circle class="cls-3" cx="19.95" cy="37.1" r=".36"/>
        <circle class="cls-1" cx="9.36" cy="32.95" r="2.63"/>
        <circle class="cls-1" cx="23.83" cy="30.22" r="2.63"/>
        <circle class="cls-16" cx="24.64" cy="29.03" r=".54"/>
        <circle class="cls-16" cx="10.29" cy="31.74" r=".54"/>
        <path class="cls-23" d="M12.04,40.06c1.46.64,3.73.7,5.81-1.46l.2-.22c.07.05.2.08.27.13,2.66,1.2,4.82.37,5.95-.76"/>
        <path class="cls-12" d="M6.55,11.25c-2.33-2.97-4.3-4.06-5.47-3.17-1.6,1.22-1.62,5.6,1.32,8.28,3.59,3.22,7.4,9.2,7.4,9.2,0,0-.92-11.34-3.25-14.31Z"/>
        <path class="cls-7" d="M7.91,22.02s-.41-5.71-2.14-9.1c-1.78-3.32-4.13-4.15-4.82-2.32-.66,1.65,1.03,4.19,2.81,5.86,1.64,1.58,4.15,5.55,4.15,5.55Z"/>
        <path class="cls-12" d="M18.6,8.98c1.08-3.62,2.52-5.35,3.94-4.95,1.93.55,3.55,4.63,1.79,8.19-2.17,4.31-3.54,11.27-3.54,11.27,0,0-3.27-10.89-2.19-14.51Z"/>
        <path class="cls-7" d="M21.26,19.5s-1.7-5.47-1.32-9.25c.45-3.74,2.34-5.37,3.65-3.92,1.22,1.29.56,4.28-.48,6.49-.95,2.07-1.85,6.68-1.85,6.68Z"/>
        <path class="cls-10" d="M20.03,22.65s.55-1.26,2.12-1.37c1.56-.11,2.38,1.32,2.38,1.32,0,0-1.43-.46-2.22-.49-.85.04-2.27.55-2.27.55Z"/>
        <path class="cls-10" d="M9.59,24.14s-1.02-.9-2.5-.32-1.6,2.19-1.6,2.19c0,0,1.09-1,1.81-1.38.72-.38,2.28-.49,2.28-.49Z"/>
      </g>
      <g class="cls-19">
        <path class="cls-13" d="M77.62,23.88c-.99-8.92-5.35-8.93-8.65-8.07-.83.23-6.81,5.94-6.13,5.9,5.56-.14,8.14.98,8.99,4.89.56,2.57,6.2,1.16,5.79-2.72Z"/>
        <path class="cls-9" d="M74.3,24.57c1.17-.55.96-6.35-3.57-8.02-.63-.23-8.24,2.41-4.11,2.72,5.5.46,6.32,5.99,7.68,5.31Z"/>
        <path class="cls-14" d="M67.71,21.1c2.59-4.08,8.74-6.95-.33-5.15-2.22.46-5.91,1.64-6.49,7.17-.39,3.73.17,8.25,1.18,8.23,1.67.05,4.68-8.76,5.64-10.25Z"/>
        <path class="cls-13" d="M84.84,25.29c4.23-7.89,8.27-6.26,11.06-4.21.68.52,4.07,8.07,3.45,7.78-5.1-2.23-7.91-2.16-10.18,1.14-1.54,2.16-6.18-1.27-4.33-4.71Z"/>
        <path class="cls-9" d="M87.65,27.18c-.88-.95,1.5-6.25,6.34-6.08.67.02,6.73,5.34,2.78,4.07-5.27-1.65-8.11,3.16-9.12,2.02Z"/>
        <path class="cls-14" d="M95.06,26.46c-.86-4.75-5.2-9.69,2.25-4.65,1.88,1.26,4.86,3.75,3.31,9.09-1.04,3.6-3.27,7.58-4.2,7.17-1.62-.6-1.08-9.89-1.36-11.62Z"/>
        <path class="cls-13" d="M86.02,71.49c-1,5.12-6.99,6.57-14.91,5.02s-12.94-5-11.91-10.27,1.55-8.76,5.15-15.15c3.25-5.74,6.91-4.74,12.89-3.57,8.62,1.69,8.97,2.43,9.84,8.02,1.05,6.92-.05,10.84-1.06,15.95Z"/>
        <path class="cls-5" d="M82.03,70.76c-.76,3.88-5.14,7.1-11.17,5.92-6.03-1.18-8.9-5.66-8.11-9.7s5.13-19.07,13.4-17.34c8.33,1.74,6.64,17.18,5.87,21.11Z"/>
        <path class="cls-14" d="M83.86,60.27c.77-1.36,1.76-2.73,2.67-3.34,1.03-.69,3.15.78,2.81,1.95-.33,1.11-.97,2.38-1.89,3.66-1.92,2.64-4.34,4.18-5.42,3.41-.97-.75.18-2.65,1.84-5.68Z"/>
        <path class="cls-14" d="M81.74,68.24c.81-.74,3.16-2.46,1.98-3.81-1.01-1.15-3.11-.95-4.67.43-1.55,1.37-2.07,3.45-1,4.56,1.02,1.09,2.75-.36,3.7-1.18Z"/>
        <path class="cls-13" d="M77.73,69.02c.12-.59.36-1.55.77-2.2.09-.15.32-.22.47-.13s.22.32.13.47c-.49.8-.76,2.14-.82,2.47-.1-.07-.19-.15-.29-.22-.09-.13-.17-.26-.26-.39Z"/>
        <path class="cls-13" d="M80.27,67.45c.15.09.22.32.13.47-.33.55-.58,1.23-.74,1.76-.25.12-.53.12-.75.13.16-.53.46-1.48.94-2.22.03-.16.27-.23.42-.14Z"/>
        <path class="cls-14" d="M73.66,76.06c3.62-5.33,8.64-8.15,12.65-8.93,3.14-.62,6.1.24,7.06,3.62.87,2.97-1.5,5.97-6.34,7.54-3.64,1.19-8.27,2.24-12.05,1.27-1.7-.45-2.27-2.12-1.33-3.5Z"/>
        <ellipse class="cls-9" cx="88.97" cy="71.54" rx="1.65" ry="1.32" transform="translate(-23.5 51.91) rotate(-28.9)"/>
        <ellipse class="cls-9" cx="88.86" cy="75.01" rx="1.48" ry="1.21" transform="translate(-20.17 34.57) rotate(-19.82)"/>
        <ellipse class="cls-9" cx="86.2" cy="69.51" rx="1.48" ry="1.21" transform="translate(-24.52 67.79) rotate(-37.99)"/>
        <path class="cls-9" d="M81.5,71.72c-2.34,1.39-5.28,3.27-4.34,5.02s4.36.85,7.14.11c2.18-.58,2.73-2.82,1.99-4.14-.68-1.36-2.26-2.46-4.78-.99Z"/>
        <path class="cls-14" d="M69.09,75.16c-1.34-6.3-4.93-10.81-8.35-13.04-2.68-1.75-5.74-2.08-7.91.69-1.93,2.42-.86,6.09,3.03,9.37,2.93,2.47,6.81,5.19,10.68,5.73,1.74.23,2.96-1.1,2.55-2.74Z"/>
        <ellipse class="cls-9" cx="56.67" cy="65.23" rx="1.32" ry="1.65" transform="translate(-28.41 50.11) rotate(-38.94)"/>
        <ellipse class="cls-9" cx="55.44" cy="68.47" rx="1.21" ry="1.48" transform="translate(-32.54 63.89) rotate(-48.02)"/>
        <ellipse class="cls-9" cx="59.97" cy="64.39" rx="1.21" ry="1.48" transform="translate(-24.09 38.38) rotate(-29.84)"/>
        <path class="cls-9" d="M63.46,68.19c1.64,2.17,3.66,5.02,2.12,6.29s-4.36-.85-6.65-2.59c-1.8-1.36-1.47-3.64-.28-4.58,1.2-.99,3.07-1.41,4.8.88Z"/>
        <path class="cls-14" d="M87.54,51.15c1.99,4.42,2.69,7.4,1.09,8.15-1.54.71-3.24-2.31-4.18-4.62-.68-1.64-.9-3.98-2.49-6.13-.22-.32,2.2-.41,3.79.35,1.01.53,1.32,1.26,1.8,2.25Z"/>
        <path class="cls-14" d="M65.66,56.71c-.2-1.55-.6-3.19-1.21-4.1-.69-1.03-3.21-.46-3.33.75-.11,1.15,0,2.57.37,4.1.78,3.17,2.44,5.51,3.73,5.2,1.18-.33.83-2.52.44-5.95Z"/>
        <path class="cls-14" d="M64.61,64.89c-.48-.99-2-3.47-.39-4.27,1.36-.68,3.24.3,4.16,2.16s.62,3.98-.79,4.6c-1.35.63-2.42-1.37-2.98-2.48Z"/>
        <path class="cls-13" d="M68.03,67.12c.12-.59.25-1.57.12-2.32-.02-.17-.22-.32-.39-.3s-.32.22-.3.39c.15.92-.11,2.27-.17,2.59.12-.03.24-.07.35-.1.13-.09.26-.17.39-.26Z"/>
        <path class="cls-13" d="M66.27,64.71c-.17.02-.32.22-.3.39.1.63.07,1.36.02,1.9.18.2.44.31.65.41.05-.55.13-1.54-.03-2.41.03-.16-.11-.3-.33-.29Z"/>
        <path class="cls-14" d="M65.68,46.87c-3.51,3.34-5.28,5.84-4.08,7.14,1.16,1.23,3.87-.92,5.62-2.7,1.25-1.26,2.33-3.35,4.62-4.74.32-.22-1.89-1.21-3.64-1.1-1.14.11-1.7.67-2.51,1.41Z"/>
        <path class="cls-13" d="M92.89,37.27c-.72-6.01-3.07-11.45-11.42-13.08h0c-8.35-1.63-12.58,2.57-15.51,7.81-2.94,5.3-3.11,9.01,1.52,12.21,4.58,3.19,13.89,5.01,19.39,3.8s6.74-4.72,6.02-10.73Z"/>
        <path class="cls-5" d="M82.64,37.39c-.07,3.23,1.48,3.31,3.5,3.82,2.5.66,4.97-2.83,4.44-5.28-.48-2.39-2.63-4.26-4.71-4.22-2.07-.01-3.18,3.12-3.24,5.68Z"/>
        <path class="cls-16" d="M81.21,40.4c-.38-1.75-2.55-2.12-2.55-2.12-.05-.01-1.99-.39-3.11,1.01-1.9,2.26-4.17,2.15-7.07,1.58-1.78-.35-3.08.01-3.87.36.57,1.06,1.49,2.08,2.87,3.02,4.58,3.19,13.89,5.01,19.39,3.8,1.63-.35,2.92-.94,3.87-1.76-.55-.61-1.63-1.38-3.35-1.72-2.91-.57-5.54-1.42-6.17-4.17Z"/>
        <line class="cls-22" x1="77.65" y1="44.01" x2="78.17" y2="41.32"/>
        <path class="cls-5" d="M75.04,35.9c-1.15,3.02-2.62,2.51-4.68,2.21-2.56-.33-3.54-4.49-2.12-6.57,1.35-2.03,4.05-2.95,5.95-2.13,1.97.78,1.77,4.09.85,6.49Z"/>
        <path class="cls-16" d="M75.02,36.01c-1.17,2.85-3.15,2.96-5.05,2.09-2.05-.96-2.94-3.82-1.55-5.78,1.38-1.91,3.77-2.95,5.68-2.19,1.91.82,1.85,3.66.92,5.88Z"/>
        <path class="cls-16" d="M82.72,37.51c.01,3.08,1.78,3.76,3.89,3.84,3.17.06,4.17-2.43,3.62-4.77-.56-2.29-2.37-4.16-4.44-4.17-2.13.03-3.1,2.69-3.07,5.1Z"/>
        <circle class="cls-9" cx="75.1" cy="41.05" r=".33"/>
        <circle class="cls-9" cx="75.71" cy="42.79" r=".33"/>
        <circle class="cls-9" cx="73.87" cy="42.44" r=".33"/>
        <circle class="cls-9" cx="80.91" cy="42.19" r=".33"/>
        <circle class="cls-9" cx="81.47" cy="43.92" r=".33"/>
        <circle class="cls-9" cx="79.64" cy="43.56" r=".33"/>
        <circle class="cls-17" cx="72.16" cy="35.5" r="2.47"/>
        <circle class="cls-17" cx="85.57" cy="38.13" r="2.47"/>
        <circle class="cls-16" cx="86.71" cy="37.4" r=".49"/>
        <circle class="cls-16" cx="73.31" cy="34.78" r=".49"/>
        <path class="cls-22" d="M71.84,43.38c1.07,1.1,2.99,1.87,5.5.74l.25-.12c.04.06.14.14.18.2,1.9,1.99,4.03,1.96,5.38,1.39"/>
        <path class="cls-5" d="M86.6,30.56s.9-.89,2.32-.44c1.37.44,1.63,1.94,1.63,1.94,0,0-1.06-.88-1.78-1.19-.73-.26-2.18-.31-2.18-.31Z"/>
        <path class="cls-5" d="M74.41,27.72s-.62-1.13-2.07-1.13-2.17,1.36-2.17,1.36c0,0,1.28-.53,2.06-.55.81-.12,2.18.31,2.18.31Z"/>
        <path class="cls-13" d="M78.62,24.47s-.27-2.34,0-2.29c.77.65,1.19,1.91,1.19,1.91.2-1.3-.24-2.79-.24-2.79,1.22.91,2.33,2.97,2.33,2.97.69-.93,2.13-.87,2.13-.87l-.76,1.31-1.56,1.09-3.09-1.33Z"/>
        <path class="cls-9" d="M81.42,40.17c-.17.86-1.68,1.74-3.3,1.42s-2.69-1.7-2.52-2.56,1.61-1.36,3.22-1.05,2.77,1.27,2.59,2.19Z"/>
      </g>
    </g>
  </g>
</svg>