<?xml version="1.0" encoding="UTF-8"?>
<svg id="Layer_2" data-name="Layer 2" xmlns="http://www.w3.org/2000/svg" viewBox="0 0 105.86 78.26">
  <defs>
    <style>
      .cls-1 {
        fill: #c3996c;
      }

      .cls-1, .cls-2, .cls-3, .cls-4, .cls-5, .cls-6, .cls-7, .cls-8, .cls-9 {
        stroke-width: 0px;
      }

      .cls-10 {
        stroke: #8a5e3c;
        stroke-width: 3.16px;
      }

      .cls-10, .cls-11, .cls-12, .cls-13 {
        fill: none;
        stroke-linecap: round;
        stroke-linejoin: round;
      }

      .cls-2 {
        fill: #a87d50;
      }

      .cls-3 {
        fill: #603a17;
      }

      .cls-4 {
        fill: #00a44f;
      }

      .cls-5 {
        fill: #231f20;
      }

      .cls-11 {
        stroke: #603a17;
      }

      .cls-11, .cls-13 {
        stroke-width: 3.7px;
      }

      .cls-6 {
        fill: #e9523e;
      }

      .cls-12 {
        stroke: #fff;
        stroke-width: 2.63px;
      }

      .cls-14 {
        opacity: .19;
      }

      .cls-15 {
        opacity: .38;
      }

      .cls-13 {
        stroke: #231f20;
      }

      .cls-7 {
        fill: #8a5e3c;
      }

      .cls-8 {
        fill: #ea644c;
      }

      .cls-9 {
        fill: #13733d;
      }
    </style>
  </defs>
  <g id="Layer_1-2" data-name="Layer 1">
    <g>
      <g class="cls-14">
        <path class="cls-5" d="M56.48,25.33c-1.15-2.67-2.72-5.24-4.69-7.39-1.74-1.9-3.95-3.7-6.36-4.66-2.65-1.05-5.13-1.42-7.96-1.08-1.46.18-2.72.78-4.02,1.4-.07.04-.15.07-.22.11.19-.49.34-.99.46-1.51.19-.85.35-1.64.42-2.51.08-.94,0-1.84-.04-2.78-.03-.86-.2-1.74-.4-2.57-.07-.28-.09-.74-.23-1-.02-.02-.03-.04-.06-.04,0-.02,0-.04-.02-.06-.11-.2-.73.3-.87.37-1.12.56-2.17,1.38-3.12,2.25-.36.33-.7.67-1.04,1-1.91,1.92-3.48,4.28-4.12,6.95-.24.97-.35,2.07-.32,3.12,0,.39.03.77.08,1.14.02.2.05.4.08.6-1.78.44-3.63.56-5.48.45-3.92-.23-8.31.41-11.37,3.07C.78,27.75.15,37.06,2.37,44.74c.02.06.04.13.06.19.01.02.01.05.02.06,1.67,5.56,5.1,10.79,9.26,14.85,2.06,2.02,4.16,3.92,6.48,5.65,2.28,1.71,4.77,3.53,7.52,4.42,2.57.82,5.75,1.22,8.02-.56,1.1-.87,1.87-1.92,3.15-2.57.63-.32,1.24-.54,1.87-.71.73-.19,1.48-.32,2.27-.46,1.1-.18,2.25.18,3.34.37,1.42.24,2.91-.13,4.12-.87,2.45-1.51,3.95-3.9,5.29-6.36,1.42-2.6,2.23-5.44,3.08-8.26,2.44-8.05,3.03-17.28-.38-25.16Z"/>
        <path class="cls-5" d="M17.18,10.5l6.7,6.43c-1.56-3.4-3.76-5.51-6.7-6.43Z"/>
      </g>
      <g class="cls-15">
        <g>
          <path class="cls-2" d="M102.18,40.76v.02c-.07-.1-.14-.2-.21-.3.07.1.14.19.21.28Z"/>
          <path class="cls-5" d="M105.84,53.73c-.26,1.79,0,4.35-1.69,5.33h0c-.29.14-.64.26-1.05.32-2.52,11.55-17.5,19.58-27.81,18.83-8.34-6.02-15.09-21.27-9.92-31.88-.26-.28-.48-.55-.63-.79-.1-6.18,7.79-11.55,13.43-13.35.93-.25,1.87-.44,2.83-.55l-.02.02c5.25-.88,10.34,1.74,15.13,3.53.01,0,.02,0,.03.01,1.51.88,2.99,2.07,4.18,3.3h0c3.9,3.94,5.79,9.87,5.52,15.23Z"/>
          <path class="cls-7" d="M96.14,35.2s.01.01.02.02h0s-.01-.02-.02-.02ZM104.15,59.06h0s.05-.01.07-.03c-.02.02-.05.03-.07.03Z"/>
          <path class="cls-5" d="M101.97,40.48c.07.1.14.2.21.3v-.02c-.07-.09-.14-.18-.21-.28Z"/>
          <path class="cls-13" d="M91.02,34.03s.73-5.67,6.63-6.47"/>
        </g>
      </g>
      <g>
        <g>
          <path class="cls-3" d="M101.52,57.7c-2.04,5.78-6.86,11.72-12.87,14.46-4.26,1.94-6.57,2.39-8.47,2.75-1.9.36-6.14.56-6.14.56,0,0-2.47-2.35-3.84-3.78-1.37-1.43-3.43-3.96-5.44-7.97-2.96-5.91-2.98-13.56-.93-19.34,3.62-10.24,14.99-15.57,25.4-11.89,10.41,3.68,15.91,14.97,12.29,25.21Z"/>
          <path class="cls-2" d="M63.19,41.86c.15-2.06,7.28-14.17,20.71-13.04,1.92.16,3.81,1.04,5.98,1.8,2.02.71,3.93,1.13,5.44,2.1,11.57,7.39,9.55,21.05,8.3,23.03-1.41,2.24-11.36.64-21.6-2.9-10.26-3.54-19.01-8.64-18.84-10.99Z"/>
          <path class="cls-7" d="M89.22,32.49h0c-10.41-3.68-21.78,1.65-25.4,11.89-2.04,5.78-2.02,13.43.93,19.34,2.01,4.01,4.07,6.54,5.44,7.97,1.37,1.43,3.84,3.78,3.84,3.78h0l15.19-42.98Z"/>
          <path class="cls-1" d="M89.88,30.62c-2.17-.77-4.06-1.64-5.98-1.8-13.43-1.12-20.56,10.98-20.71,13.04-.17,2.35,8.58,7.45,18.84,10.99h0s7.85-22.23,7.85-22.23Z"/>
          <path class="cls-7" d="M104.59,50.99l-1.07.92-.74-3.96,1.56-1.33c-.08-.52-.18-1.06-.31-1.6l-1.55,1.32-.74-3.96,1.1-.94c-.19-.44-.4-.88-.63-1.32l-.77.66-.51-2.75c-.54-.77-1.16-1.53-1.86-2.25l.09.49-3.06,2.62-.74-3.96,1.39-1.19c-.38-.29-.78-.57-1.19-.84l-.5.43-.16-.83c-.49-.27-1.02-.5-1.57-.71l.48,2.6-3.06,2.62-.74-3.96,2-1.71c-.51-.16-1.04-.33-1.58-.51l-.72.61-.17-.92c-.53-.19-1.04-.39-1.55-.57l.48,2.56-3.07,2.62-.74-3.96,1.98-1.69c-.56-.19-1.1-.34-1.64-.46l-.64.54-.12-.67c-.12-.02-.23-.04-.35-.05-.38-.03-.74-.05-1.11-.06l.34,1.84-3.06,2.62-.74-3.96.42-.36c-.99.12-1.93.31-2.83.56l-2.19,1.87-.19-1.03c-.45.19-.9.4-1.32.62l.28,1.48-3.06,2.62-.39-2.08c-.44.33-.85.68-1.25,1.03l.39,2.12-3.06,2.62-.3-1.6c-.43.55-.81,1.09-1.14,1.6l.2,1.07-1.43,1.23c-.15.37-.23.68-.25.88-.02.28.09.59.3.94l1.68-1.44.69,3.72c.49.36,1.04.73,1.65,1.11l-.06-.32,3.06-2.62.74,3.96-.79.68c.82.44,1.69.87,2.6,1.31l-.27-1.44,3.06-2.62.74,3.96-1.31,1.12c.48.21.96.42,1.45.62l.15-.13.04.21c.51.21,1.03.42,1.56.63l-.35-1.9,3.07-2.62.74,3.96-1.51,1.29c.51.19,1.02.37,1.54.55l.27-.23.07.35c.51.17,1.02.35,1.53.51l-.36-1.92,3.06-2.62.74,3.96-1.42,1.21c.55.16,1.09.32,1.62.47l.09-.08.02.11c.51.14,1.02.28,1.52.41l-.29-1.58,3.06-2.62.74,3.96-.99.85c.93.21,1.83.39,2.69.55l-.16-.86,3.06-2.62.74,3.96-.03.02c.74.07,1.43.1,2.06.1l2.58-2.2.33,1.75c.33-.15.58-.34.73-.58.13-.21.28-.57.41-1.03l-.22-1.21.59-.5c.09-.61.16-1.28.19-2.02ZM99.46,37.86l.74,3.96-3.06,2.62-.74-3.96,3.06-2.62ZM94.12,35.97l.74,3.96-3.06,2.62-.74-3.96,3.06-2.62ZM88.78,34.09l.74,3.96-3.07,2.62-.74-3.96,3.07-2.62ZM83.43,32.2l.74,3.96-3.06,2.62-.74-3.96,3.06-2.62ZM78.09,30.31l.74,3.96-3.06,2.62-.74-3.96,3.06-2.62ZM67.15,44.26l-.74-3.96,3.06-2.62.74,3.96-3.06,2.62ZM70.72,36.61l3.06-2.62.74,3.96-3.06,2.62-.74-3.96ZM72.49,46.15l-.74-3.96,3.06-2.62.74,3.96-3.06,2.62ZM76.06,38.5l3.06-2.62.74,3.96-3.06,2.62-.74-3.96ZM77.84,48.04l-.74-3.96,3.06-2.62.74,3.96-3.07,2.62ZM81.41,40.39l3.06-2.62.74,3.96-3.06,2.62-.74-3.96ZM83.18,49.92l-.74-3.96,3.06-2.62.74,3.96-3.06,2.62ZM86.75,42.28l3.06-2.62.74,3.96-3.06,2.62-.74-3.96ZM88.52,51.81l-.74-3.96,3.06-2.62.74,3.96-3.06,2.62ZM92.09,44.16l3.06-2.62.74,3.96-3.06,2.62-.74-3.96ZM93.87,53.7l-.74-3.96,3.06-2.62.74,3.96-3.06,2.62ZM97.43,46.05l3.06-2.62.74,3.96-3.06,2.62-.74-3.96ZM99.21,55.59l-.74-3.96,3.06-2.62.74,3.96-3.06,2.62Z"/>
          <path class="cls-2" d="M83.14,49.7l-.7-3.74,2.89-2.47,1.07-3.03-.7-3.75,2.9-2.48,1.07-3.03-.13-.7c-.53-.19-1.04-.39-1.55-.57l.48,2.56-3.07,2.62-.74-3.96,1.98-1.69c-.56-.19-1.1-.34-1.64-.46l-.64.54-.12-.67c-.12-.02-.23-.04-.35-.05-.38-.03-.74-.05-1.11-.06l.34,1.84-3.06,2.62-.74-3.96.42-.36c-.99.12-1.93.31-2.83.56l-2.19,1.87-.19-1.03c-.45.19-.9.4-1.32.62l.28,1.48-3.06,2.62-.39-2.08c-.44.33-.85.68-1.25,1.03l.39,2.12-3.06,2.62-.3-1.6c-.43.55-.81,1.09-1.14,1.6l.2,1.07-1.43,1.23c-.15.37-.23.68-.25.88-.02.28.09.59.3.94l1.68-1.44.69,3.72c.49.36,1.04.73,1.65,1.11l-.06-.32,3.06-2.62.74,3.96-.79.68c.82.44,1.69.87,2.6,1.31l-.27-1.44,3.06-2.62.74,3.96-1.31,1.12c.48.21.96.42,1.45.62l.15-.13.04.21c.51.21,1.03.42,1.56.63l-.35-1.9,3.07-2.62.74,3.96-1.51,1.29c.51.19,1.02.37,1.54.55l.1-.09,1.07-3.03ZM83.43,32.2l.74,3.96-3.06,2.62-.74-3.96,3.06-2.62ZM78.09,30.31l.74,3.96-3.06,2.62-.74-3.96,3.06-2.62ZM67.15,44.26l-.74-3.96,3.06-2.62.74,3.96-3.06,2.62ZM70.72,36.61l3.06-2.62.74,3.96-3.06,2.62-.74-3.96ZM72.49,46.15l-.74-3.96,3.06-2.62.74,3.96-3.06,2.62ZM76.06,38.5l3.06-2.62.74,3.96-3.06,2.62-.74-3.96ZM77.84,48.04l-.74-3.96,3.06-2.62.74,3.96-3.07,2.62ZM81.41,40.39l3.06-2.62.74,3.96-3.06,2.62-.74-3.96Z"/>
          <path class="cls-11" d="M89.77,31.28s.73-5.67,6.63-6.47"/>
        </g>
        <g>
          <path class="cls-6" d="M1.22,41.73c.18.61-.3-1.02,0,0,1.67,5.58,5.1,10.85,9.28,14.91,2.07,2.01,4.17,3.92,6.48,5.64,2.29,1.71,4.77,3.53,7.53,4.42,2.57.83,5.74,1.22,8.01-.56,1.11-.87,1.87-1.91,3.15-2.56,1.36-.69,2.67-.92,4.15-1.17,1.1-.18,2.25.17,3.34.36,1.42.24,2.91-.13,4.12-.87,2.45-1.5,3.96-3.9,5.3-6.36,1.41-2.6,2.22-5.44,3.08-8.25,2.44-8.05,3.03-17.28-.38-25.17-1.15-2.67-2.72-5.24-4.69-7.39-1.74-1.9-3.95-3.7-6.35-4.65-2.66-1.05-5.13-1.42-7.96-1.08-1.46.18-2.72.78-4.02,1.4-.56.27-1.07.55-1.59.88-.61.38-1.19.8-1.8,1.18-1.6.99-3.14,2.16-4.95,2.73-2.1.66-4.33.86-6.53.73-3.92-.23-8.31.42-11.38,3.07C-.49,24.61-1.07,34.01,1.22,41.73Z"/>
          <path class="cls-8" d="M23.37,15.35c.17-.05.35-.09.52-.15,1.81-.57,3.35-1.74,4.95-2.73.61-.38,1.19-.8,1.8-1.18.53-.32,1.04-.61,1.59-.88,1.3-.62,2.57-1.22,4.02-1.4,2.83-.34,5.31.03,7.96,1.08,2.4.95,4.61,2.75,6.35,4.65,1.97,2.15,3.54,4.72,4.69,7.39,3.41,7.89,2.82,17.12.38,25.17-.85,2.82-1.66,5.66-3.08,8.25-1.34,2.46-2.85,4.86-5.3,6.36-1.21.74-2.7,1.11-4.12.87-1.09-.19-2.24-.55-3.34-.36-.79.13-1.54.26-2.27.46L23.37,15.35Z"/>
          <path class="cls-4" d="M28.16,2.67c-.36.33-.71.67-1.04,1-1.92,1.92-3.48,4.27-4.13,6.95-.32,1.33-.42,2.91-.24,4.26.09.67.21,1.36.39,2.01.47,1.64.52,2.13,2.18,1.09,1.87-1.17,3.65-2.53,4.91-4.37.99-1.44,1.78-3,2.16-4.71.19-.85.34-1.64.42-2.51.08-.94,0-1.84-.04-2.78-.03-.85-.21-1.74-.4-2.57-.07-.29-.08-.74-.22-1-.11-.2-.73.3-.87.37-1.12.55-2.17,1.37-3.12,2.25Z"/>
          <path class="cls-9" d="M25.34,17.46c.93-2.15,1.86-4.17,2.61-6.39.88-2.6,1.96-5.03,2.91-7.58.37-1.01.54-2.19.91-3.23.2-.12.4-.21.45-.11.14.26.16.72.22,1,.2.83.37,1.71.4,2.56.04.94.11,1.84.04,2.78-.07.87-.23,1.66-.42,2.51-.38,1.71-1.18,3.28-2.16,4.71-1.26,1.83-3.04,3.2-4.91,4.37-.18.12-.35.21-.49.29.18-.35.33-.67.43-.91Z"/>
          <path class="cls-10" d="M23.78,16.74c-1.55-5.19-4.08-8.26-7.8-9.43"/>
          <path class="cls-12" d="M41.76,15.12s1.45.17,2.78,1.12c1.33.95,1.92,2.19,1.92,2.19"/>
        </g>
      </g>
    </g>
  </g>
</svg>