<?xml version="1.0" encoding="UTF-8"?>
<svg id="Layer_1" xmlns="http://www.w3.org/2000/svg" version="1.1" viewBox="0 0 321.4 321.4">
  <!-- Generator: Adobe Illustrator 29.6.0, SVG Export Plug-In . SVG Version: 2.1.1 Build 207)  -->
  <defs>
    <style>
      .st0 {
        stroke: #434343;
        stroke-width: 25px;
      }

      .st0, .st1 {
        fill: none;
        stroke-linejoin: round;
      }

      .st2 {
        fill: #fff;
      }

      .st1 {
        stroke: #fff;
        stroke-linecap: round;
        stroke-width: 20px;
      }

      .st3 {
        display: none;
      }
    </style>
  </defs>
  <g id="baseRing" class="st3">
    <circle class="st0" cx="160.7" cy="160.7" r="148.2"/>
  </g>
  <g id="love" class="st3">
    <path class="st2" d="M227.8,85c-39-18.6-67,25.2-67.1,25.4-.1-.2-28.1-44-67.2-25.4-39.1,18.7-33,63.3-25.3,80.6,10.6,23.8,58.2,70.8,80.7,92.2,6.6,6.3,17,6.3,23.7,0,22.5-21.4,70-68.4,80.7-92.2,7.7-17.2,13.8-61.9-25.4-80.6h0Z"/>
  </g>
  <g id="bookOpen" class="st3">
    <path class="st2" d="M259.8,95.2h-8.9v-8.9c0-5.3-3.3-8.9-8.9-8.9h-31.1c-17.8,0-33.1,3.5-48.8,17.8-15.7-14.3-31.1-17.8-48.8-17.8h-31.1c-5.6,0-8.9,3.6-8.9,8.9v8.9h-8.9c-4.9,0-8.9,4-8.9,8.9v124.3c0,4.9,4,8.9,8.9,8.9h84.4c0,4.9,4,8.9,8.9,8.9h8.9c4.9,0,8.9-4,8.9-8.9h84.4c4.9,0,8.9-4,8.9-8.9v-124.3c0-4.9-4-8.9-8.9-8.9ZM64.4,219.6v-115.5h8.9v97.7c0,5.3,3.3,8.9,8.9,8.9h31.1c8.9,0,19.2,1.1,30,8.9h-78.8ZM157.7,219.6c-15.7-14.3-26.6-17.8-44.4-17.8h-31.1v-115.5h31.1c26.6,0,34.6,8.8,44.4,17.8v115.5h0ZM166.6,219.6v-115.5c9.8-8.9,17.8-17.8,44.4-17.8h31.1v115.5h-31.1c-17.8,0-28.7,3.5-44.4,17.8ZM259.8,219.6h-78.8c10.7-7.8,21.1-8.9,30-8.9h31.1c5.6,0,8.9-3.6,8.9-8.9v-97.7h8.9v115.5h0Z"/>
  </g>
  <g id="computer" class="st3">
    <path class="st2" d="M141.7,111.2v49.5l10.4-17.4,16,27.8,9.6-5.9-15.5-27h20l-40.5-27ZM249.7,88.7c0-9.9-8.1-18-18-18H87.7c-9.9,0-18,8.1-18,18v117h180v-117ZM231.7,183.2c0,2.5-2,4.5-4.5,4.5H92.2c-2.5,0-4.5-2-4.5-4.5v-90c0-2.5,2-4.5,4.5-4.5h135c2.5,0,4.5,2,4.5,4.5v90ZM177.7,214.7v4.5c0,2.5-2,4.5-4.5,4.5h-27c-2.5,0-4.5-2-4.5-4.5v-4.5H51.7v9c0,5,4,9,9,9h198c5,0,9-4,9-9v-9h-90ZM245.2,229.3c-3.1,0-5.6-2.5-5.6-5.6s2.5-5.6,5.6-5.6,5.6,2.5,5.6,5.6-2.5,5.6-5.6,5.6Z"/>
  </g>
  <g id="video" class="st3">
    <path class="st2" d="M240.3,84.7H78.8c-8.9,0-16.1,7.2-16.1,16.1v113c0,8.9,7.2,16.1,16.1,16.1h161.5c8.9,0,16.1-7.2,16.1-16.1v-113c0-8.9-7.2-16.1-16.1-16.1ZM86.9,213.9h-16.1v-16.1h16.1v16.1ZM86.9,181.6h-16.1v-16.1h16.1v16.1ZM86.9,149.3h-16.1v-16.1h16.1v16.1ZM86.9,117h-16.1v-16.1h16.1v16.1ZM224.2,213.9H95v-113h129.2v113h0ZM248.4,213.9h-16.1v-16.1h16.1v16.1ZM248.4,181.6h-16.1v-16.1h16.1v16.1ZM248.4,149.3h-16.1v-16.1h16.1v16.1ZM248.4,117h-16.1v-16.1h16.1v16.1ZM143.4,125.1v64.6l50.5-32.3-50.5-32.3Z"/>
  </g>
  <g id="headphones" class="st3">
    <path class="st2" d="M60.6,234.1v-53.2c-5.6,7.7-8.9,16.8-8.9,26.6s3.3,18.9,8.9,26.6ZM255.8,180.9v53.2c5.6-7.7,8.9-16.8,8.9-26.6s-3.3-18.9-8.9-26.6ZM238.1,243c4.9,0,8.9-3.9,8.9-8.9v-79.9c0-49-39.8-88.8-88.8-88.8s-88.8,39.8-88.8,88.8v79.9c0,4.9,3.9,8.9,8.9,8.9h8.9c9.8,0,17.8-7.9,17.8-17.8v-35.5c0-9.8-7.9-17.8-17.8-17.8v-22.2c0-35.5,31.1-67.7,71-67.7s71,32.2,71,67.7v22.2c-9.8,0-17.8,7.9-17.8,17.8v35.5c0,9.5,7.6,17.3,17,17.7h0c0,0,9.6,0,9.6,0Z"/>
  </g>
  <g id="micOff" class="st3">
    <path class="st2" d="M206.1,65.7c-11.8,0-22.7,4.2-31.2,11.1l69.8,69.8c6.9-8.5,11.1-19.4,11.1-31.2,0-27.4-22.2-49.6-49.6-49.6h0ZM156.4,115.3c0,3.6.4,7,1.1,10.3l38.1,38.1c3.4.7,6.8,1.1,10.3,1.1,11.8,0,22.7-4.2,31.2-11.1l-69.8-69.8c-6.9,8.5-11.1,19.4-11.1,31.2h0ZM73.7,229l18.6,18.6,92.6-79.9-31.3-31.3-79.9,92.6h0Z"/>
    <g>
      <path class="st2" d="M239.7,161c0-43.6-35.4-79-79-79s-79,35.4-79,79,35.4,79,79,79,37.3-7.1,51.1-18.8l.4.4,14.1-14.1-1-1c9.1-12.9,14.4-28.5,14.4-45.4ZM219.7,161c0,11.4-3.2,22-8.8,31l-81.2-81.2c9-5.6,19.6-8.8,31-8.8,32.5,0,59,26.5,59,59ZM160.7,220c-32.5,0-59-26.5-59-59s4.9-26.8,13-36.9l82.9,82.9c-10.1,8.1-22.9,13-36.9,13Z"/>
      <path class="st2" d="M160.7,250c-49.1,0-89-39.9-89-89s39.9-89,89-89,89,39.9,89,89-4,30.6-11.7,44l2.4,2.4-28.3,28.3-1.3-1.3c-14.7,10.1-32.2,15.5-50.2,15.5ZM91.7,161c0,38,31,69,69,69-38,0-69-31-69-69ZM160.8,230h0,0ZM160.8,230h0,0ZM160.9,230h0,0ZM189.3,223.8c-8.9,4.1-18.6,6.2-28.4,6.2,9.9,0,19.5-2.2,28.4-6.2ZM116.4,140c-3.1,6.5-4.7,13.6-4.7,21,0,27,22,49,49,49s14.5-1.6,21-4.7l-65.3-65.3ZM114.5,109.8l97.6,97.6-97.6-97.6h0ZM229.7,161.2c0,9.3-1.9,18.5-5.6,27,3.6-8.5,5.5-17.6,5.6-27ZM146.9,114l60.8,60.8c1.3-4.4,2-9.1,2-13.7,0-27-22-49-49-49-4.7,0-9.3.7-13.7,2ZM229.7,161.1h0s0,0,0,0ZM229.7,161.1h0s0,0,0,0ZM229.7,161.1h0s0,0,0,0ZM91.7,160.9h0s0,0,0,0ZM91.7,160.9h0s0,0,0,0ZM107.6,117c-9.9,11.9-15.9,27.2-15.9,43.9,0-15.6,5.4-30.8,15.2-43l.7-.9ZM160.5,92c-13.6,0-26.3,4-37,10.9l.9-.5c10.8-6.7,23.3-10.3,36.1-10.3ZM160.5,92h0,0ZM160.6,92h0,0ZM160.6,92h0,0Z"/>
    </g>
    <path class="st2" d="M239.7,161c0-43.6-35.4-79-79-79s-79,35.4-79,79,35.4,79,79,79,37.3-7.1,51.1-18.8l.4.4,14.1-14.1-1-1c9.1-12.9,14.4-28.5,14.4-45.4ZM219.7,161c0,11.4-3.2,22-8.8,31l-81.2-81.2c9-5.6,19.6-8.8,31-8.8,32.5,0,59,26.5,59,59ZM160.7,220c-32.5,0-59-26.5-59-59s4.9-26.8,13-36.9l82.9,82.9c-10.1,8.1-22.9,13-36.9,13Z"/>
  </g>
  <g id="micOn" class="st3">
    <path class="st2" d="M206.1,65.7c-11.8,0-22.7,4.2-31.2,11.1l69.8,69.8c6.9-8.5,11.1-19.4,11.1-31.2,0-27.4-22.2-49.6-49.6-49.6h0ZM156.4,115.3c0,3.6.4,7,1.1,10.3l38.1,38.1c3.4.7,6.8,1.1,10.3,1.1,11.8,0,22.7-4.2,31.2-11.1l-69.8-69.8c-6.9,8.5-11.1,19.4-11.1,31.2h0ZM73.7,229l18.6,18.6,92.6-79.9-31.3-31.3-79.9,92.6h0Z"/>
  </g>
  <g id="pause" class="st3">
    <g>
      <path class="st2" d="M102.2,87.8h26.9c7.9,0,14.4,6.4,14.4,14.4v117c0,7.9-6.4,14.4-14.4,14.4h-26.9c-7.9,0-14.4-6.4-14.4-14.4v-117c0-8,6.4-14.4,14.4-14.4Z"/>
      <path class="st2" d="M192.3,87.8h26.9c7.9,0,14.4,6.4,14.4,14.4v117c0,7.9-6.4,14.4-14.4,14.4h-26.9c-7.9,0-14.4-6.4-14.4-14.4v-117c0-8,6.4-14.4,14.4-14.4Z"/>
    </g>
  </g>
  <g id="play" class="st3">
    <path class="st2" d="M232.4,172.2l-100.6,59.3c-8.8,5.2-19.7-1.3-19.7-11.6v-118.7c0-10.3,10.9-16.8,19.7-11.6l100.6,59.3c8.8,5.2,8.8,18.1,0,23.2h0Z"/>
  </g>
  <g id="stop" class="st3">
    <path class="st2" d="M108.1,87.8h105.1c11.2,0,20.4,9.1,20.4,20.3v105.1c0,11.2-9.1,20.4-20.4,20.4h-105.1c-11.2,0-20.3-9.1-20.3-20.4v-105.1c0-11.2,9.1-20.3,20.4-20.3Z"/>
  </g>
  <g id="record" class="st3">
    <circle class="st2" cx="160.7" cy="161" r="83"/>
  </g>
  <g id="muted" class="st3">
    <path class="st2" d="M169.7,248.4h0c-2,0-4-.7-5.6-2l-54.9-45.5v-80.4l54.9-45.4c1.6-1.3,3.5-2,5.6-2h0c4.8,0,8.7,3.9,8.7,8.7v157.9c0,4.8-3.9,8.7-8.7,8.7h0Z"/>
    <path class="st2" d="M94.4,120.5h-26.1c-10.5,0-19.1,8.5-19.1,19.1v42.3c0,10.5,8.5,19.1,19.1,19.1h26.1v-80.4h0Z"/>
    <line class="st1" x1="201.6" y1="133.2" x2="256.3" y2="188"/>
    <line class="st1" x1="256.3" y1="133.2" x2="201.6" y2="188"/>
  </g>
  <g id="unmuted" class="st3">
    <path class="st1" d="M232.1,91.7c21.1,16.8,34.3,41.5,34.3,68.8s-13.4,52.2-34.7,69.1"/>
    <path class="st1" d="M210.1,118.9c13.3,9.9,21.7,24.9,21.7,41.7s-8.7,32.1-22.2,42"/>
    <path class="st2" d="M169.7,248.4h0c-2,0-4-.7-5.6-2l-54.9-45.5v-80.4l54.9-45.4c1.6-1.3,3.5-2,5.6-2h0c4.8,0,8.7,3.9,8.7,8.7v157.9c0,4.8-3.9,8.7-8.7,8.7h0Z"/>
    <path class="st2" d="M94.4,120.5h-26.1c-10.5,0-19.1,8.5-19.1,19.1v42.3c0,10.5,8.5,19.1,19.1,19.1h26.1v-80.4h0Z"/>
  </g>
  <g id="end" class="st3">
    <path class="st2" d="M256.4,172.2l-100.6,59.3c-8.8,5.2-19.7-1.3-19.7-11.6v-118.7c0-10.3,10.9-16.8,19.7-11.6l100.6,59.3c8.8,5.2,8.8,18.1,0,23.2h0Z"/>
    <path class="st2" d="M83.8,87.8h15c6.7,0,12.1,5.4,12.1,12.1v121.6c0,6.7-5.4,12.1-12.1,12.1h-15c-6.7,0-12.1-5.4-12.1-12.1v-121.6c0-6.7,5.4-12.1,12.1-12.1Z"/>
  </g>
  <g id="forward" class="st3">
    <path class="st2" d="M261.3,168.4c6-3.6,6-12.3,0-15.9l-96.1-56.4c-6.1-3.6-13.9.8-13.9,8v28c0,0-61-35.8-61-35.8-6.1-3.6-13.9.8-13.9,8l.2,113.2c0,7.1,7.8,11.5,13.9,7.9l60.9-36.1v28.1c0,7.1,7.8,11.5,14,7.9l95.8-56.8h0Z"/>
  </g>
  <g id="back" class="st3">
    <path class="st2" d="M60.1,168.6l95.9,56.6c6.1,3.6,13.9-.8,13.9-7.9v-28.1l61,36c6.1,3.6,13.9-.8,13.9-7.9v-113.2c0-7.1-7.8-11.6-13.9-7.9l-61,36v-28.1c0-7.1-7.8-11.6-13.9-7.9l-95.9,56.6c-6,3.6-6,12.3,0,15.9,0,0,0,0,0,0Z"/>
  </g>
  <g id="rewind" class="st3">
    <path class="st2" d="M65,172.2c-8.8-5.2-8.8-18.1,0-23.2l100.6-59.3c8.7-5.2,19.7,1.3,19.7,11.6v118.7c0,10.3-10.9,16.8-19.7,11.6l-100.6-59.3h0Z"/>
    <path class="st2" d="M249.7,99.9v121.6c0,6.7-5.4,12.1-12.1,12.1h-15c-6.7,0-12.1-5.4-12.1-12.1v-121.6c0-6.7,5.4-12.1,12.1-12.1h15c6.7,0,12.1,5.4,12.1,12.1Z"/>
  </g>
  <g id="Layer_19">
    <g>
      <path d="M131.7,135c-10.5-11.2-22.4-16.8-35.5-16.8-22.4,0-39.5,17.2-39.5,39.5s16.7,40,39.8,40,22.4-4.2,35.1-16.7l15.1,15.6c-15.4,15.1-28.8,22.4-50.5,22.4-36.1,0-61.7-24.9-61.7-61.2s2.6-22,7.9-30.9c11.2-19,32.4-30,54.1-30s37.9,8.4,50.7,23.3l-15.5,14.9Z"/>
      <path d="M258,135c-10.5-11.2-22.4-16.8-35.5-16.8-22.4,0-39.5,17.2-39.5,39.5s16.7,40,39.8,40,22.4-4.2,35.1-16.7l15.1,15.6c-15.4,15.1-28.8,22.4-50.5,22.4-36.1,0-61.7-24.9-61.7-61.2s2.6-22,7.9-30.9c11.2-19,32.4-30,54.1-30s37.9,8.4,50.7,23.3l-15.5,14.9Z"/>
    </g>
  </g>
</svg>