<?xml version="1.0" encoding="UTF-8"?>
<svg id="pause" xmlns="http://www.w3.org/2000/svg" version="1.1" viewBox="0 0 321.4 321.4">
  <!-- Generator: Adobe Illustrator 29.6.0, SVG Export Plug-In . SVG Version: 2.1.1 Build 207)  -->
  <path d="M102.2,87.8h26.9c7.9,0,14.4,6.4,14.4,14.4v117c0,7.9-6.4,14.4-14.4,14.4h-26.9c-7.9,0-14.4-6.4-14.4-14.4v-117c0-7.9,6.4-14.4,14.4-14.4Z"/>
  <path d="M192.3,87.8h26.9c7.9,0,14.4,6.4,14.4,14.4v117c0,7.9-6.4,14.4-14.4,14.4h-26.9c-7.9,0-14.4-6.4-14.4-14.4v-117c0-7.9,6.4-14.4,14.4-14.4Z"/>
</svg>