<?xml version="1.0" encoding="UTF-8"?>
<svg id="Layer_2" data-name="Layer 2" xmlns="http://www.w3.org/2000/svg" xmlns:xlink="http://www.w3.org/1999/xlink" viewBox="0 0 55.16 75.58">
  <defs>
    <style>
      .cls-1 {
        stroke: #414142;
      }

      .cls-1, .cls-2 {
        fill: none;
        stroke-miterlimit: 10;
      }

      .cls-2 {
        stroke: #fff;
        stroke-width: 4px;
      }

      .cls-3 {
        filter: url(#drop-shadow-1);
      }

      .cls-4 {
        fill: #231f20;
      }

      .cls-4, .cls-5, .cls-6 {
        stroke-width: 0px;
      }

      .cls-5 {
        fill: #fff;
      }

      .cls-6 {
        fill: #fed304;
      }
    </style>
    <filter id="drop-shadow-1" filterUnits="userSpaceOnUse">
      <feOffset dx="3" dy="3"/>
      <feGaussianBlur result="blur" stdDeviation="1"/>
      <feFlood flood-color="#231f20" flood-opacity=".1"/>
      <feComposite in2="blur" operator="in"/>
      <feComposite in="SourceGraphic"/>
    </filter>
  </defs>
  <g id="Layer_1-2" data-name="Layer 1">
    <g>
      <g>
        <path class="cls-4" d="M17.57,56.46l-1.75,1.1c-1.53-2.01-3.6-3.02-6.23-3.02-2.11,0-3.86.68-5.26,2.05-1.4,1.33-2.08,2.99-2.08,4.9-.06,3.8,3.21,7.21,7.34,7.05,2.53,0,4.61-1.01,6.23-3.02l1.75,1.17c-1.66,2.47-4.55,3.9-8.09,3.9-2.73,0-5-.88-6.79-2.6C.91,66.27,0,64.16,0,61.66c-.1-5.03,4.25-9.38,9.68-9.22,3.51.06,6.49,1.53,7.89,4.03Z"/>
        <path class="cls-4" d="M21.82,46.24h2.24v13.61l7.96-6.95h3.28l-9.48,8.21,10.03,9.03h-3.15l-8.64-7.76v7.76h-2.24v-23.9Z"/>
      </g>
      <g class="cls-3">
        <rect class="cls-6" x=".77" width="32.46" height="38.98"/>
      </g>
      <g>
        <line class="cls-1" x1="22.13" y1="75.08" x2="36.4" y2="75.08"/>
        <line class="cls-1" x1="1.18" y1="75.08" x2="17" y2="75.08"/>
      </g>
      <g>
        <path class="cls-2" d="M45.97,63.37c8.49-9.57,9.38-23.24,3.1-33.64"/>
        <polygon class="cls-5" points="54.67 27.53 43.56 23.11 45.28 34.95 54.67 27.53"/>
      </g>
    </g>
  </g>
</svg>