<?xml version="1.0" encoding="UTF-8"?>
<svg id="Layer_2" data-name="Layer 2" xmlns="http://www.w3.org/2000/svg" xmlns:xlink="http://www.w3.org/1999/xlink" viewBox="0 0 54.39 75.58">
  <defs>
    <style>
      .cls-1 {
        stroke: #414142;
      }

      .cls-1, .cls-2 {
        fill: none;
        stroke-miterlimit: 10;
      }

      .cls-2 {
        stroke: #fff;
        stroke-width: 4px;
      }

      .cls-3 {
        filter: url(#drop-shadow-1);
      }

      .cls-4 {
        fill: #231f20;
      }

      .cls-4, .cls-5, .cls-6 {
        stroke-width: 0px;
      }

      .cls-5 {
        fill: #7db442;
      }

      .cls-6 {
        fill: #fff;
      }
    </style>
    <filter id="drop-shadow-1" filterUnits="userSpaceOnUse">
      <feOffset dx="3" dy="3"/>
      <feGaussianBlur result="blur" stdDeviation="1"/>
      <feFlood flood-color="#231f20" flood-opacity=".1"/>
      <feComposite in2="blur" operator="in"/>
      <feComposite in="SourceGraphic"/>
    </filter>
  </defs>
  <g id="Layer_1-2" data-name="Layer 1">
    <g>
      <g>
        <path class="cls-4" d="M5.24,46.46h2.24v6.43h3.51v1.88h-3.51v15.36h-2.24v-15.36h-3.05v-1.88h3.05v-6.43Z"/>
        <path class="cls-4" d="M14.3,46.24h2.24v9.74c1.79-2.37,3.96-3.54,6.46-3.54,1.27,0,2.4.32,3.41,1.01,1.01.65,1.75,1.53,2.24,2.63.49,1.1.71,2.83.71,5.2v8.86h-2.24v-8.21c0-1.98-.06-3.31-.23-3.99-.55-2.31-2.01-3.44-4.35-3.44-1.33,0-2.53.45-3.6,1.33-1.07.88-1.75,1.98-2.11,3.31-.19.84-.29,2.4-.29,4.68v6.33h-2.24v-23.9Z"/>
      </g>
      <g class="cls-3">
        <rect class="cls-5" width="32.46" height="38.98"/>
      </g>
      <g>
        <line class="cls-1" x1="16.92" y1="75.08" x2="31.19" y2="75.08"/>
        <line class="cls-1" x1="1.08" y1="75.08" x2="11.57" y2="75.08"/>
      </g>
      <g>
        <path class="cls-2" d="M45.2,63.37c8.49-9.57,9.38-23.24,3.1-33.64"/>
        <polygon class="cls-6" points="53.9 27.53 42.79 23.11 44.51 34.95 53.9 27.53"/>
      </g>
    </g>
  </g>
</svg>