<svg width="1328" height="926" viewBox="0 0 1328 926" fill="none" xmlns="http://www.w3.org/2000/svg">
<rect x="61" width="1237" height="450" fill="#9DD4DC"/>
<path d="M787.667 355.909L853 290.455L830.133 267.545L804 293.727V225.409H771.333V293.727L745.2 267.545L722.333 290.455L787.667 355.909ZM722.333 405V372.273H853V405H722.333ZM591.667 339.545C582.683 339.545 574.993 336.341 568.596 329.932C562.199 323.523 559 315.818 559 306.818V77.7273C559 68.7273 562.199 61.0227 568.596 54.6136C574.993 48.2045 582.683 45 591.667 45H706L804 143.182V192.682H771.333V159.545H689.667V77.7273H591.667V306.818H689.667V339.545H591.667Z" fill="#2688C8"/>
<path d="M1258.5 307.6H1257.9C1258.1 307.2 1258.3 306.8 1258.4 306.3C1258.4 306.8 1258.5 307.2 1258.5 307.6ZM1153.1 307.6H1152.5C1152.5 307.2 1152.6 306.8 1152.6 306.3C1152.8 306.8 1152.9 307.2 1153.1 307.6ZM1328 306C1328 286.8 1312.4 271.2 1293.2 271.2C1280.3 271.2 1269.1 278.2 1263.1 288.6C1263.3 286.7 1263.4 284.8 1263.4 282.9C1263.4 250.9 1237.5 225 1205.5 225C1173.5 225 1147.6 250.9 1147.6 282.9C1147.6 284.8 1147.7 286.7 1147.9 288.6C1141.9 278.2 1130.7 271.2 1117.8 271.2C1098.6 271.2 1083 286.8 1083 306C1083 325.2 1098.6 340.8 1117.8 340.8C1118.2 340.8 1118.6 340.8 1119 340.7V340.8H1294.6C1313.2 340 1328 324.8 1328 306Z" fill="#C5E5E8"/>
<path d="M259.2 166.7H258.3C258.6 166.1 258.8 165.5 259.1 164.8C259.1 165.5 259.2 166.1 259.2 166.7ZM103.7 166.7H102.8C102.8 166.1 102.9 165.5 102.9 164.8C103.2 165.5 103.4 166.1 103.7 166.7ZM361.8 164.4C361.8 136 338.8 113.1 310.4 113.1C291.4 113.1 274.8 123.5 265.9 138.8C266.2 136 266.3 133.2 266.3 130.4C266.3 83.2 228.1 45 180.9 45C133.7 45 95.5 83.2 95.5 130.4C95.5 133.2 95.7 136.1 95.9 138.8C87 123.4 70.5 113.1 51.4 113.1C23 113.1 0 136.1 0 164.4C0 192.7 23 215.8 51.4 215.8C52 215.8 52.6 215.7 53.2 215.7V215.8H312.5V215.7C339.9 214.6 361.8 192.1 361.8 164.4Z" fill="#C5E5E8"/>
<path d="M1298.3 450H57V925.7H1298.3V450Z" fill="#7CB309"/>
</svg>
