<?xml version="1.0" encoding="UTF-8"?>
<svg id="Layer_2" data-name="Layer 2" xmlns="http://www.w3.org/2000/svg" viewBox="0 0 81.99 77.14">
  <defs>
    <style>
      .cls-1 {
        fill: #00a7b8;
      }

      .cls-1, .cls-2, .cls-3, .cls-4, .cls-5, .cls-6 {
        stroke-width: 0px;
      }

      .cls-2 {
        fill: #414142;
      }

      .cls-3 {
        fill: #eceeef;
      }

      .cls-7 {
        stroke: #babcbe;
      }

      .cls-7, .cls-8 {
        fill: none;
        stroke-linecap: round;
        stroke-linejoin: round;
        stroke-width: .65px;
      }

      .cls-4 {
        fill: #bbbec0;
      }

      .cls-5 {
        fill: #ffc316;
      }

      .cls-6 {
        fill: #fff;
      }

      .cls-8 {
        stroke: #f59220;
      }
    </style>
  </defs>
  <g id="Layer_1-2" data-name="Layer 1">
    <g>
      <g>
        <polygon class="cls-2" points="57.11 66.82 57.11 66.82 58.03 66.86 58.95 66.91 59.87 67.06 60.69 67.21 61.51 67.46 62.27 67.71 62.99 68.01 63.65 68.31 64.21 68.7 64.78 69.1 65.24 69.55 65.64 69.99 65.95 70.44 66.16 70.93 66.31 71.48 66.36 71.98 66.36 71.98 66.31 72.52 66.16 73.02 65.95 73.52 65.64 74.01 65.24 74.46 64.78 74.86 64.21 75.3 63.65 75.65 62.99 76 62.27 76.3 61.51 76.54 60.69 76.74 59.87 76.94 58.95 77.04 58.03 77.14 57.11 77.14 57.11 77.14 56.19 77.14 55.27 77.04 54.36 76.94 53.54 76.74 52.72 76.54 51.95 76.3 51.24 76 50.57 75.65 50.01 75.3 49.45 74.86 48.99 74.46 48.58 74.01 48.28 73.52 48.07 73.02 47.92 72.52 47.87 71.98 47.87 71.98 47.92 71.48 48.07 70.93 48.28 70.44 48.58 69.99 48.99 69.55 49.45 69.1 50.01 68.7 50.57 68.31 51.24 68.01 51.95 67.71 52.72 67.46 53.54 67.21 54.36 67.06 55.27 66.91 56.19 66.86 57.11 66.82 57.11 66.82 57.11 66.82"/>
        <polygon class="cls-3" points="46.03 67.66 67.59 67.66 67.59 69.84 46.03 69.84 46.03 67.66 46.03 67.66"/>
        <polygon class="cls-4" points="46.03 71.04 46.03 71.04 46.08 71.53 46.18 71.98 67.43 71.98 67.43 71.98 67.53 71.53 67.59 71.04 67.59 69.79 46.03 69.79 46.03 71.04 46.03 71.04 46.03 71.04"/>
        <polygon class="cls-3" points="49.86 74.76 63.81 74.76 63.81 74.76 64.47 74.71 65.08 74.51 65.64 74.26 66.16 73.96 66.56 73.57 66.97 73.07 67.28 72.57 67.48 71.98 46.23 71.98 46.23 71.98 46.44 72.57 46.69 73.07 47.05 73.57 47.51 73.96 48.02 74.26 48.58 74.51 49.2 74.71 49.86 74.76 49.86 74.76 49.86 74.76"/>
        <polygon class="cls-4" points="46.03 65.47 67.59 65.47 67.59 67.66 46.03 67.66 46.03 65.47 46.03 65.47"/>
        <polygon class="cls-4" points="46.03 58.92 67.59 58.92 67.59 63.34 46.03 63.34 46.03 58.92 46.03 58.92"/>
        <polygon class="cls-3" points="46.03 63.34 67.59 63.34 67.59 65.53 46.03 65.53 46.03 63.34 46.03 63.34"/>
        <polygon class="cls-5" points="81.99 24.12 81.99 24.12 81.94 22.89 81.84 21.69 81.69 20.45 81.48 19.26 81.17 18.12 80.87 16.98 80.46 15.84 80 14.74 79.54 13.65 78.98 12.61 78.37 11.62 77.75 10.62 77.04 9.68 76.32 8.79 75.5 7.89 74.69 7.05 73.82 6.26 72.95 5.51 71.98 4.77 71.01 4.12 69.99 3.47 68.97 2.88 67.89 2.38 66.77 1.89 65.64 1.44 64.52 1.04 63.35 .75 62.12 .45 60.89 .25 59.67 .1 58.39 0 57.11 0 57.11 0 55.84 0 54.56 .1 53.33 .25 52.11 .45 50.88 .75 49.71 1.04 48.58 1.44 47.46 1.89 46.34 2.38 45.26 2.88 44.24 3.47 43.22 4.12 42.25 4.77 41.28 5.51 40.41 6.26 39.54 7.05 38.72 7.89 37.91 8.79 37.19 9.68 36.48 10.62 35.86 11.62 35.25 12.61 34.69 13.65 34.23 14.74 33.77 15.84 33.36 16.98 33.05 18.12 32.75 19.26 32.54 20.45 32.39 21.69 32.29 22.89 32.24 24.12 32.24 24.12 32.29 25.71 32.44 27.2 32.7 28.59 33.05 29.93 33.46 31.22 33.97 32.51 34.48 33.71 35.1 34.9 35.76 36.09 36.42 37.23 37.91 39.56 39.39 42 40.15 43.24 40.92 44.53 40.92 44.53 41.18 45.12 41.48 45.82 41.74 46.66 41.99 47.61 42.5 49.69 42.91 51.82 43.27 53.81 43.53 55.45 43.73 57.04 43.73 57.04 43.73 57.48 43.83 57.88 43.93 58.28 44.09 58.67 44.24 59.02 44.5 59.42 44.7 59.72 45.01 60.01 45.31 60.31 45.67 60.56 46.03 60.76 46.39 60.91 46.79 61.06 47.2 61.16 47.61 61.26 48.07 61.26 66.21 61.26 66.21 61.26 66.67 61.26 67.08 61.16 67.48 61.06 67.89 60.91 68.25 60.76 68.61 60.56 68.97 60.31 69.27 60.01 69.53 59.72 69.78 59.42 70.04 59.02 70.19 58.67 70.34 58.28 70.45 57.88 70.55 57.48 70.55 57.04 70.55 57.04 70.75 55.45 71.01 53.81 71.37 51.82 71.77 49.69 72.29 47.61 72.54 46.66 72.8 45.82 73.1 45.12 73.36 44.53 73.36 44.53 74.12 43.24 74.84 42 76.37 39.56 77.8 37.23 78.47 36.09 79.13 34.9 79.74 33.71 80.25 32.51 80.77 31.22 81.17 29.93 81.53 28.59 81.79 27.2 81.94 25.71 81.99 24.12 81.99 24.12 81.99 24.12"/>
        <path class="cls-7" d="M52.47,61.26c0-25.35-5.98-39.71-5.98-39.71"/>
        <path class="cls-7" d="M61.14,61.26c0-25.35,5.98-39.71,5.98-39.71"/>
        <path class="cls-8" d="M58.69,22.15c0,2.64-2.2,4.78-4.92,4.78s-4.92-2.14-4.92-4.78c0-.81.28-2.99,1.83-2.99s1.95,2.1,1.95,2.99c0,3.03-2.58,4.53-5.59,4.95"/>
        <path class="cls-8" d="M64.74,22.15c0,2.64-2.2,4.78-4.92,4.78s-4.92-2.14-4.92-4.78c0-.81.28-2.99,1.83-2.99s1.95,2.1,1.95,2.99"/>
        <path class="cls-8" d="M65.87,26.92c-2.72,0-4.92-2.14-4.92-4.78,0-.81.28-2.99,1.83-2.99s1.95,2.1,1.95,2.99"/>
      </g>
      <g>
        <path class="cls-6" d="M38.9,27.91v32.8h11.2v7.26h-18.91V27.91h7.7M40.9,25.91h-11.7v44.05h22.91v-11.26h-11.2V25.91h0Z"/>
        <g>
          <polygon class="cls-6" points="1 68.96 1 26.91 25.05 26.91 25.05 36.38 10.59 36.38 10.59 41.59 25.05 41.59 25.05 50.95 10.59 50.95 10.59 59.48 25.05 59.48 25.05 68.96 1 68.96"/>
          <path class="cls-6" d="M24.05,27.91v7.47h-14.47v7.21h14.47v7.36h-14.47v10.53h14.47v7.48H2V27.91h22.05M26.05,25.91H0v44.05h26.05v-11.48h-14.47v-6.53h14.47v-11.36h-14.47v-3.21h14.47v-11.47h0Z"/>
        </g>
        <g>
          <polygon class="cls-1" points="1 68.96 1 26.91 25.05 26.91 25.05 36.38 10.59 36.38 10.59 41.59 25.05 41.59 25.05 50.95 10.59 50.95 10.59 59.48 25.05 59.48 25.05 68.96 1 68.96"/>
          <path class="cls-6" d="M24.05,27.91v7.47h-14.47v7.21h14.47v7.36h-14.47v10.53h14.47v7.48H2V27.91h22.05M26.05,25.91H0v44.05h26.05v-11.48h-14.47v-6.53h14.47v-11.36h-14.47v-3.21h14.47v-11.47h0Z"/>
        </g>
        <g>
          <polygon class="cls-6" points="30.19 68.96 30.19 26.91 39.9 26.91 39.9 59.71 51.1 59.71 51.1 68.96 30.19 68.96"/>
          <path class="cls-6" d="M38.9,27.91v32.8h11.2v7.26h-18.91V27.91h7.7M40.9,25.91h-11.7v44.05h22.91v-11.26h-11.2V25.91h0Z"/>
        </g>
        <g>
          <polygon class="cls-1" points="30.19 68.96 30.19 26.91 39.9 26.91 39.9 59.71 51.1 59.71 51.1 68.96 30.19 68.96"/>
          <path class="cls-6" d="M38.9,27.91v32.8h11.2v7.26h-18.91V27.91h7.7M40.9,25.91h-11.7v44.05h22.91v-11.26h-11.2V25.91h0Z"/>
        </g>
      </g>
    </g>
  </g>
</svg>