<svg width="173" height="125" viewBox="0 0 173 125" fill="none" xmlns="http://www.w3.org/2000/svg">
<g filter="url(#filter0_d_5850_9548)">
<path d="M54.4103 2H42.1729C39.8181 2 37.9092 3.90893 37.9092 6.26371V90.3198C37.9092 92.6746 39.8181 94.5835 42.1729 94.5835H54.4103C56.7651 94.5835 58.674 92.6746 58.674 90.3198V6.26371C58.674 3.90893 56.7651 2 54.4103 2Z" fill="#9D4098"/>
<path d="M90.3198 37.9094H6.26371C3.90893 37.9094 2 39.8184 2 42.1731V54.4105C2 56.7653 3.90893 58.6743 6.26371 58.6743H90.3198C92.6746 58.6743 94.5835 56.7653 94.5835 54.4105V42.1731C94.5835 39.8184 92.6746 37.9094 90.3198 37.9094Z" fill="#9D4098"/>
</g>
<g filter="url(#filter1_d_5850_9548)">
<path d="M152.821 65.604L74.1237 95.1372C71.9191 95.9645 70.8025 98.4225 71.6299 100.627L75.9295 112.084C76.7569 114.289 79.2148 115.405 81.4195 114.578L160.116 85.0449C162.321 84.2176 163.438 81.7596 162.61 79.555L158.311 68.0978C157.483 65.8931 155.025 64.7766 152.821 65.604Z" fill="#9D4098"/>
</g>
<defs>
<filter id="filter0_d_5850_9548" x="0.615677" y="0.615677" width="103.658" height="103.658" filterUnits="userSpaceOnUse" color-interpolation-filters="sRGB">
<feFlood flood-opacity="0" result="BackgroundImageFix"/>
<feColorMatrix in="SourceAlpha" type="matrix" values="0 0 0 0 0 0 0 0 0 0 0 0 0 0 0 0 0 0 127 0" result="hardAlpha"/>
<feOffset dx="4.15297" dy="4.15297"/>
<feGaussianBlur stdDeviation="2.76865"/>
<feColorMatrix type="matrix" values="0 0 0 0 0.137255 0 0 0 0 0.121569 0 0 0 0 0.12549 0 0 0 0.1 0"/>
<feBlend mode="normal" in2="BackgroundImageFix" result="effect1_dropShadow_5850_9548"/>
<feBlend mode="normal" in="SourceGraphic" in2="effect1_dropShadow_5850_9548" result="shape"/>
</filter>
<filter id="filter1_d_5850_9548" x="69.9726" y="63.9467" width="102.601" height="60.5946" filterUnits="userSpaceOnUse" color-interpolation-filters="sRGB">
<feFlood flood-opacity="0" result="BackgroundImageFix"/>
<feColorMatrix in="SourceAlpha" type="matrix" values="0 0 0 0 0 0 0 0 0 0 0 0 0 0 0 0 0 0 127 0" result="hardAlpha"/>
<feOffset dx="4.15297" dy="4.15297"/>
<feGaussianBlur stdDeviation="2.76865"/>
<feColorMatrix type="matrix" values="0 0 0 0 0.137255 0 0 0 0 0.121569 0 0 0 0 0.12549 0 0 0 0.1 0"/>
<feBlend mode="normal" in2="BackgroundImageFix" result="effect1_dropShadow_5850_9548"/>
<feBlend mode="normal" in="SourceGraphic" in2="effect1_dropShadow_5850_9548" result="shape"/>
</filter>
</defs>
</svg>
