<?xml version="1.0" encoding="UTF-8"?>
<svg id="Layer_2" data-name="Layer 2" xmlns="http://www.w3.org/2000/svg" viewBox="0 0 105.89 73.5">
  <defs>
    <style>
      .cls-1 {
        fill: #3fadbd;
      }

      .cls-1, .cls-2, .cls-3, .cls-4, .cls-5 {
        stroke-width: 0px;
      }

      .cls-2 {
        fill: #3980b2;
      }

      .cls-3 {
        fill: #a353a0;
      }

      .cls-4 {
        fill: #e9523e;
      }

      .cls-6 {
        fill: #9d4098;
        stroke: #fff;
        stroke-miterlimit: 10;
        stroke-width: 2px;
      }

      .cls-5 {
        fill: #85c446;
      }
    </style>
  </defs>
  <g id="Layer_1-2" data-name="Layer 1">
    <g>
      <path class="cls-3" d="M16.43,7.11l5.85-1.09,4.37,23.35-5.85,1.09-.46-2.46c-1.88,2.58-3.95,3.93-6.63,4.43-3.03.57-5.85-.13-8.48-2.05S.94,25.71.29,22.24s-.17-6.75,1.51-9.43c1.72-2.73,4.1-4.36,7.13-4.93,2.81-.53,5.47.07,7.98,1.78l-.48-2.55ZM11.18,13.05c-1.8.34-3.22,1.28-4.17,2.78-.95,1.5-1.25,3.28-.88,5.26s1.31,3.58,2.74,4.67c1.47,1.05,3.09,1.42,4.89,1.09s3.26-1.29,4.21-2.79c.99-1.51,1.29-3.34.9-5.4-.76-4.04-4-6.3-7.69-5.61Z"/>
      <path class="cls-4" d="M77.11,14.62h-19.73c.6,3.5,3.17,5.66,7.04,5.66,2.25,0,4.23-.78,5.89-2.39l5.15,2.44c-2.58,3.68-6.07,5.38-10.99,5.38-3.82,0-6.94-1.2-9.38-3.63-2.44-2.44-3.63-5.47-3.63-9.11s1.2-6.81,3.59-9.24c2.44-2.48,5.43-3.73,9.06-3.73,3.86,0,6.99,1.24,9.38,3.73,2.44,2.44,3.63,5.7,3.63,9.75v1.15ZM70.94,9.8c-.78-2.71-3.4-4.6-6.53-4.6-1.7,0-3.22.46-4.51,1.43-.78.6-1.56,1.66-2.25,3.17h13.29Z"/>
      <path class="cls-1" d="M102.1,3.63c2.49.42,4.15,2.82,3.73,5.36s-2.83,4.21-5.21,3.81c-2.54-.43-4.21-2.83-3.77-5.42s2.71-4.17,5.25-3.75ZM96.61,14.63l7.09,1.19-4.71,28.11-7.09-1.19,4.71-28.11Z"/>
      <path class="cls-5" d="M19.6,56.18c4.26-.11,8.15,3.69,8.01,7.92.09,4.26-3.61,8.09-8.01,7.95-2.16,0-4-.77-5.54-2.3-1.51-1.56-2.27-3.44-2.27-5.62,0-2.36.85-4.35,2.58-5.91,1.51-1.36,3.27-2.04,5.23-2.04ZM19.65,59.76c-1.16,0-2.16.4-2.95,1.22-.77.82-1.16,1.85-1.16,3.12s.4,2.39,1.16,3.21c.77.82,1.76,1.22,2.93,1.22,2.39,0,4.15-1.82,4.15-4.43s-1.73-4.35-4.12-4.35Z"/>
      <path class="cls-2" d="M88.46,53.6l4.3,1.23-2.34,8.16c-.45,1.56-.67,2.7-.62,3.37.06,1.36.87,2.39,2.27,2.79s2.59-.02,3.48-1.18c.3-.43.69-1.46,1.15-3.05l2.38-8.29,4.27,1.22-2.06,7.17c-.85,2.96-1.65,4.91-2.44,5.86-1.92,2.35-4.54,3.18-7.95,2.21-3.73-1.07-5.52-3.48-5.56-6.7-.05-1.15.32-3.05,1.1-5.76l2.02-7.04Z"/>
      <path class="cls-6" d="M53.32,59.38c-13.93,0-25.27-11.34-25.27-25.27h11.77c0,7.44,6.05,13.5,13.5,13.5s13.5-6.06,13.5-13.5h11.77c0,13.93-11.34,25.27-25.27,25.27Z"/>
    </g>
  </g>
</svg>