<?xml version="1.0" encoding="UTF-8"?>
<svg id="Layer_2" data-name="Layer 2" xmlns="http://www.w3.org/2000/svg" viewBox="0 0 208.73 61.14">
  <defs>
    <style>
      .cls-1 {
        fill: #0c73bb;
        stroke-width: 0px;
      }
    </style>
  </defs>
  <g id="Layer_1-2" data-name="Layer 1">
    <g>
      <path class="cls-1" d="M10.19,40.09c-2.13-.39-3.69-.13-4.64.8-.93.9-1.02,2.1-.42,2.72.3.31.71.52,1.19.6.64.08,2.29.03,4.89-.14,2.42-.2,3.95-.28,4.51-.27,2.85.04,4.57.78,6.08,2.32,3.21,3.3,2.62,7.7-.56,10.79-2.66,2.59-5.75,3.18-9.88,1.77l1.24-4.67c2.48.75,4.29.59,5.46-.54,1.21-1.18,1.34-2.91.43-3.84-.4-.41-.96-.67-1.67-.79-.74-.14-2.06-.11-3.95.07-3.62.31-6.14.3-7.61-.03-1.47-.33-2.61-.93-3.49-1.83-2.71-2.79-2.12-7.03.54-9.62,1.86-1.81,4.08-2.62,8.23-2.23l-.35,4.86Z"/>
      <path class="cls-1" d="M39.96,30.92c2.92,4.54,1.48,11.13-3.36,13.9-4.78,2.94-10.79,1.36-13.69-3.37-2.9-4.72-1.6-10.85,3.15-13.77,4.52-2.95,11.25-1.43,13.91,3.23ZM26.93,38.93c1.62,2.64,4.6,3.76,7.36,2.07,2.58-1.58,3.27-4.72,1.53-7.54-1.72-2.79-4.76-3.54-7.33-1.96-2.7,1.66-3.16,4.82-1.56,7.42Z"/>
      <path class="cls-1" d="M41.16,19.47l4.59-1.48.67,2.09c.98-2.25,2.66-3.7,4.89-4.42,2.3-.74,4.54-.22,6.34,1.58.78-2.63,2.6-4.47,5.07-5.27,1.3-.42,2.53-.48,3.72-.18,3.09.67,4.15,3.47,5.02,6.17l3.45,10.69-4.59,1.48-2.99-9.25c-1.33-4.11-2.73-4.94-4.79-4.28-.79.25-1.4.71-1.87,1.36-.96,1.25-1.12,2.75,0,6.2l2.65,8.22-4.62,1.49-2.84-8.8c-.74-2.29-1.92-5.7-5.03-4.69-.75.24-1.36.7-1.83,1.35-.93,1.32-1.13,2.82,0,6.35l2.61,8.08-4.59,1.48-5.87-18.19Z"/>
      <path class="cls-1" d="M90.38,8.03l4.76-.51,2.03,19.01-4.76.51-.21-2c-1.67,1.95-3.42,2.9-5.6,3.13-2.47.26-4.69-.48-6.68-2.18s-3.14-4.01-3.45-6.84c-.31-2.93.29-5.42,1.81-7.47,1.55-2.08,3.56-3.24,6.03-3.51,2.29-.25,4.39.4,6.29,1.93l-.22-2.08ZM82.27,14.44c-.86,1.14-1.21,2.56-1.04,4.17.18,1.65.82,2.95,1.9,3.92,1.11.93,2.39,1.34,3.86,1.18,1.5-.16,2.7-.83,3.55-1.97.89-1.14,1.24-2.59,1.06-4.28-.35-3.29-2.81-5.31-5.82-4.99-1.47.16-2.66.83-3.52,1.97Z"/>
      <path class="cls-1" d="M101.18.2l4.82.05-.3,26.49-4.82-.06.3-26.49Z"/>
      <path class="cls-1" d="M110.24,7.74l4.81.28-1.09,19.08-4.82-.28,1.09-19.08ZM115.97,3.31c-.1,1.72-1.58,3.01-3.2,2.92-1.72-.1-3.01-1.58-2.91-3.34.1-1.69,1.5-2.98,3.23-2.88,1.69.1,2.97,1.58,2.88,3.3Z"/>
      <path class="cls-1" d="M118.55,7.99l4.87.77,3.04,12.61,7.27-10.99,4.87.77-15.91,23.91-4.91-.77,5.19-7.71-4.42-18.59Z"/>
      <path class="cls-1" d="M158.11,28.71l-14.68-4.8c-.41,2.75.98,4.98,3.86,5.92,1.68.55,3.34.45,4.96-.35l3.24,3.07c-2.81,2.11-5.82,2.53-9.48,1.33-5.54-1.81-8.42-7.03-6.58-12.64,1.78-5.44,7.05-8.37,12.56-6.57,5.92,1.93,8.31,7.37,6.4,13.19l-.28.86ZM154.7,23.62c.08-2.21-1.41-4.25-3.74-5.01-2.57-.84-4.39-.11-6.15,1.78l9.89,3.23Z"/>
      <path class="cls-1" d="M178.81,39.76l-13.5-7.5c-.92,2.62.02,5.08,2.67,6.54,1.54.86,3.19,1.07,4.94.6l2.6,3.62c-3.16,1.54-6.2,1.38-9.57-.49-5.1-2.83-6.93-8.5-4.07-13.66,2.78-5,8.52-6.89,13.58-4.07,5.45,3.02,6.76,8.82,3.79,14.17l-.44.79ZM176.42,34.11c.5-2.15-.58-4.44-2.72-5.63-2.36-1.31-4.29-.94-6.37.58l9.1,5.05Z"/>
      <path class="cls-1" d="M205.21,38.41l3.52,3.24-17.95,19.48-3.52-3.24,1.37-1.48c-2.57.03-4.43-.66-6.05-2.15-4-3.68-3.43-9.72.1-13.55,2-2.17,4.27-3.36,6.81-3.57,2.59-.21,4.79.54,6.61,2.22,1.69,1.56,2.59,3.56,2.69,6l6.41-6.96ZM186.23,43.93c-2.07,2.25-2.42,5.5-.04,7.69,2.41,2.22,5.62,1.65,7.74-.65,2.24-2.44,2.14-5.62-.09-7.66-2.36-2.17-5.54-1.63-7.62.62Z"/>
    </g>
  </g>
</svg>