<?xml version="1.0" encoding="UTF-8"?>
<svg id="Layer_2" data-name="Layer 2" xmlns="http://www.w3.org/2000/svg" viewBox="0 0 107.32 75.3">
  <defs>
    <style>
      .cls-1 {
        fill: #00a7b8;
      }

      .cls-1, .cls-2, .cls-3, .cls-4 {
        stroke-width: 0px;
      }

      .cls-2 {
        fill: #0c73bb;
      }

      .cls-5, .cls-6, .cls-7, .cls-8, .cls-9, .cls-10, .cls-11, .cls-12 {
        stroke-miterlimit: 10;
      }

      .cls-5, .cls-6, .cls-7, .cls-10 {
        fill: none;
      }

      .cls-5, .cls-9 {
        stroke: #00a7b8;
      }

      .cls-6, .cls-12 {
        stroke: #0c73bb;
      }

      .cls-7, .cls-11 {
        stroke: #7db442;
      }

      .cls-8, .cls-9, .cls-11, .cls-12 {
        fill: #fff;
      }

      .cls-8, .cls-10 {
        stroke: #f47c25;
      }

      .cls-3 {
        fill: #7db442;
      }

      .cls-4 {
        fill: #f47c25;
      }
    </style>
  </defs>
  <g id="Layer_1-2" data-name="Layer 1">
    <g>
      <g>
        <g>
          <rect class="cls-3" x="3.98" y="3.81" width="21.73" height="26.7" transform="translate(3.04 -2.22) rotate(9.51)"/>
          <rect class="cls-11" x="2.63" y="2.19" width="21.73" height="26.7" transform="translate(2.75 -2.02) rotate(9.51)"/>
        </g>
        <g>
          <line class="cls-7" x1="1.36" y1="21.31" x2="22.79" y2="24.89"/>
          <g>
            <path class="cls-3" d="M15.8,14.55l-1.07,6.38-.81-.13.18-1.09c-.82.71-1.76,1-2.77.83-.9-.15-1.63-.61-2.16-1.38-.53-.77-.72-1.62-.56-2.55.15-.93.61-1.65,1.36-2.2.76-.55,1.6-.75,2.51-.59,1.05.17,1.82.78,2.31,1.76l.2-1.17.81.13ZM12.41,14.62c-1.35-.29-2.76.79-2.97,2.15-.25,1.38.76,2.85,2.1,3.02,1.36.24,2.77-.68,2.96-2.15.12-.73-.01-1.4-.42-1.97-.4-.57-.96-.93-1.67-1.05Z"/>
            <path class="cls-3" d="M17.53,14.84l.83.14-1.07,6.38-.83-.14,1.07-6.38ZM18.38,12.28c.38.06.64.41.57.8-.06.37-.41.62-.8.56-.37-.06-.62-.41-.56-.79.06-.38.42-.63.79-.57Z"/>
          </g>
        </g>
      </g>
      <g>
        <g>
          <rect class="cls-2" x="12.58" y="41.29" width="25.36" height="31.15" transform="translate(-14.46 8.97) rotate(-15.71)"/>
          <rect class="cls-12" x="10.36" y="40.25" width="25.36" height="31.15" transform="translate(-14.26 8.32) rotate(-15.71)"/>
        </g>
        <g>
          <line class="cls-6" x1="13.09" y1="67.95" x2="37.5" y2="61.08"/>
          <g>
            <path class="cls-2" d="M23.31,59.31l.91.19c-.32,1.7-1.27,2.72-2.86,3.17-1.19.34-2.22.21-3.11-.38-.89-.59-1.47-1.39-1.75-2.36-.26-.92-.2-1.82.16-2.71.45-1.12,1.28-1.85,2.49-2.19,1.25-.35,2.36-.16,3.37.57.72.52,1.21,1.27,1.51,2.27l-6.55,1.84c.25.85.72,1.47,1.4,1.86.67.39,1.39.48,2.16.27.37-.1.72-.28,1.03-.5.31-.22.56-.48.75-.76.18-.29.35-.7.5-1.27ZM22.76,57.35c-.7-1.37-1.97-1.74-3.34-1.43-.71.2-1.26.61-1.64,1.2-.28.43-.42,1.02-.43,1.75l5.41-1.52Z"/>
            <path class="cls-2" d="M23.94,53.88l.99-.28,4.08,4.9.85-6.29,1-.28-1.55,11.16-.99.28.5-3.6-4.88-5.89Z"/>
          </g>
        </g>
      </g>
      <g>
        <g>
          <rect class="cls-4" x="69.34" y="29.78" width="34.7" height="42.63" transform="translate(9.63 -13.62) rotate(9.51)"/>
          <rect class="cls-8" x="67.2" y="27.19" width="34.7" height="42.63" transform="translate(9.17 -13.3) rotate(9.51)"/>
        </g>
        <g>
          <line class="cls-10" x1="65.17" y1="57.72" x2="99.39" y2="63.45"/>
          <g>
            <path class="cls-4" d="M72.74,44.3l1.33.22-1.71,10.2-1.33-.22,1.71-10.2ZM74.1,40.21c.61.1,1.01.66.91,1.28-.1.6-.66,1-1.27.89-.6-.1-1-.66-.9-1.26.1-.61.66-1.01,1.26-.91Z"/>
            <path class="cls-4" d="M85.57,46.45l1.33.22-1.36,8.12c-.24,1.44-.55,2.45-.91,3.09-1,1.75-2.97,2.5-5.35,2.1-.86-.14-1.63-.41-2.3-.78-1.3-.71-1.99-1.58-2.43-3.29l1.42.24c.54,1.49,1.62,2.33,3.45,2.63.88.15,1.66.1,2.33-.14.69-.22,1.2-.57,1.54-1.05.35-.45.62-1.24.81-2.37l.09-.52c-1.21,1.08-2.8,1.52-4.41,1.25-.94-.16-1.79-.54-2.53-1.13-1.47-1.21-2.14-3.02-1.82-4.92.37-2.82,3.37-4.94,6.15-4.4,1.54.26,2.73,1.05,3.71,2.71l.3-1.77ZM81.52,46.8c-2.22-.43-4.5,1.16-4.79,3.4-.19,1.11.02,2.1.65,2.97.63.85,1.55,1.38,2.74,1.58,1.21.2,2.23,0,3.08-.61.87-.6,1.4-1.5,1.59-2.67.46-2.25-1.09-4.33-3.26-4.67Z"/>
            <path class="cls-4" d="M90.36,43.21l1.33.22-.96,5.76c1.29-1.23,2.69-1.7,4.17-1.45.75.13,1.39.43,1.92.93.53.48.89,1.08,1.07,1.78.18.7.14,1.74-.09,3.14l-.88,5.24-1.33-.22.81-4.86c.2-1.17.29-1.97.26-2.38-.1-1.42-.85-2.24-2.23-2.47-.79-.13-1.54.02-2.26.43-.72.41-1.23,1-1.58,1.75-.2.48-.41,1.39-.63,2.74l-.63,3.74-1.33-.22,2.37-14.13Z"/>
          </g>
        </g>
      </g>
      <g>
        <g>
          <rect class="cls-1" x="42.16" y="16.8" width="17.62" height="21.64" transform="translate(-2.35 4.87) rotate(-5.34)"/>
          <rect class="cls-9" x="40.77" y="15.81" width="17.62" height="21.64" transform="translate(-2.26 4.73) rotate(-5.34)"/>
        </g>
        <g>
          <line class="cls-5" x1="41.27" y1="33.68" x2="58.81" y2="32.04"/>
          <g>
            <path class="cls-1" d="M46.5,25.67c.8-.07,1.49.16,2.08.69.53.49.83,1.09.9,1.82.07.73-.13,1.39-.59,1.99-.45.59-1.08.92-1.87,1-.8.07-1.48-.14-2.05-.63-.55-.5-.87-1.12-.94-1.85-.07-.73.11-1.38.54-1.96.48-.63,1.12-.99,1.93-1.06ZM46.56,26.33c-.56.05-1.01.3-1.38.75-.36.45-.51.97-.46,1.55.09,1.15,1.12,2.04,2.23,1.9,1.1-.06,1.97-1.13,1.84-2.28-.05-.58-.31-1.06-.75-1.44-.44-.38-.93-.54-1.49-.49Z"/>
            <path class="cls-1" d="M55.68,24.95l.49,5.23-.66.06-.08-.9c-.5.73-1.17,1.15-2,1.23-.74.07-1.4-.14-1.98-.63-.57-.49-.9-1.12-.97-1.89-.07-.76.14-1.42.61-2,.48-.59,1.1-.92,1.84-.99.86-.08,1.59.23,2.18.9l-.09-.96.66-.06ZM53.05,25.71c-1.12.05-2,1.19-1.88,2.3.09,1.13,1.19,2.07,2.28,1.93,1.11-.09,2.03-1.11,1.87-2.3-.06-.6-.3-1.09-.74-1.46-.43-.37-.94-.53-1.52-.47Z"/>
          </g>
        </g>
      </g>
    </g>
  </g>
</svg>