<svg width="160" height="141" viewBox="0 0 160 141" fill="none" xmlns="http://www.w3.org/2000/svg">
<mask id="mask0_5865_6221" style="mask-type:luminance" maskUnits="userSpaceOnUse" x="0" y="41" width="159" height="59">
<path d="M0.0878906 41.0859H158.502V99.6249H0.0878906V41.0859Z" fill="white"/>
</mask>
<g mask="url(#mask0_5865_6221)">
<path fill-rule="evenodd" clip-rule="evenodd" d="M0.105469 43.9964C0.105469 43.9964 39.3989 41.4062 79.0244 41.4062C118.652 41.4062 158.612 43.9964 158.612 43.9964C158.612 43.9964 129.483 101.39 79.3586 99.0327C29.2342 101.39 0.105469 43.9964 0.105469 43.9964Z" fill="#191919"/>
</g>
<mask id="mask1_5865_6221" style="mask-type:luminance" maskUnits="userSpaceOnUse" x="0" y="43" width="159" height="52">
<path d="M0.0878906 43.9141H158.502V94.0099H0.0878906V43.9141Z" fill="white"/>
</mask>
<g mask="url(#mask1_5865_6221)">
<path fill-rule="evenodd" clip-rule="evenodd" d="M79.3586 72.1921C79.8555 71.2224 81.2275 69.8438 85.0181 69.4217C89.1319 68.96 96.5395 68.5136 99.1384 70.4529C99.1713 69.956 99.6023 67.3571 105.077 66.748C108.624 66.3501 114.613 65.9631 117.865 67.1042V66.3237C117.865 66.3237 117.748 63.2125 123.806 62.5353C128.68 61.99 138.172 61.4623 138.825 64.9033C138.988 65.7652 139.133 66.7392 139.263 67.7814C140.193 75.3363 111.796 89.949 111.796 89.949L101.168 90.9956C101.104 91.8025 101.001 92.117 100.867 91.7212L79.64 93.8144V93.8715L79.3586 93.843L79.0772 93.8715V93.8144L57.8507 91.7212C57.7165 92.117 57.6132 91.8025 57.5494 90.9956L47.4397 89.9996C47.4397 89.9996 18.5242 75.3363 19.4543 67.7814C19.584 66.7392 19.7291 65.7652 19.8918 64.9033C20.5448 61.4623 30.0367 61.99 34.9113 62.5353C40.9688 63.2125 40.8523 66.3237 40.8523 66.3237V67.1042C44.1042 65.9631 50.0935 66.3501 53.6401 66.748C59.1149 67.3571 59.5459 69.956 59.5789 70.4529C62.1777 68.5136 69.5853 68.96 73.6991 69.4217C77.4897 69.8438 78.8617 71.2224 79.3586 72.1921ZM158.612 44L151.607 53.1687C151.607 53.1687 145.802 54.6836 142.763 54.1119C142.763 54.1119 142.427 60.2508 122.953 58.9338C122.953 58.9338 123.801 64.6263 102.474 62.9201C102.474 62.9201 101.882 67.7792 92.2959 67.7814C82.7073 67.7836 80.5371 67.2911 79.6928 64.9803C79.6137 64.7648 79.4993 64.457 79.3586 64.0788C79.2179 64.457 79.1036 64.7648 79.0244 64.9803C78.1823 67.2911 76.0099 67.7836 66.4213 67.7814C56.8348 67.7792 56.2434 62.9201 56.2434 62.9201C34.9157 64.6263 35.7644 58.9338 35.7644 58.9338C16.2881 60.2508 15.9539 54.1119 15.9539 54.1119C12.9153 54.6836 7.11061 53.1687 7.11061 53.1687L0.105469 44H158.612Z" fill="white"/>
</g>
<path fill-rule="evenodd" clip-rule="evenodd" d="M79.1539 73.9029C79.1231 75.0375 79.0769 76.1632 79.0417 77.3C79.0176 78.0541 78.9978 78.8061 78.9802 79.5603C78.967 80.1891 78.9538 80.8179 78.9494 81.4446C78.9472 82.0734 78.9472 82.7022 78.9604 83.3289C78.9868 84.5888 79.0373 85.842 79.0857 87.0975C79.1583 88.9906 79.2572 90.8727 79.3364 92.7592C79.3364 92.8714 79.4265 92.9637 79.5387 92.9637C79.6508 92.9637 79.7431 92.8758 79.7453 92.7636C79.8487 90.8749 79.9674 88.995 80.0444 87.1019C80.0949 85.842 80.1389 84.5822 80.1499 83.3245C80.1543 82.6935 80.1455 82.0624 80.1279 81.4336C80.1103 80.8025 80.0817 80.1737 80.0466 79.5427C80.007 78.7885 79.9564 78.0343 79.897 77.2802C79.8091 76.1434 79.697 75.0177 79.5848 73.8875C79.5826 73.7666 79.4815 73.6743 79.3628 73.6765C79.2418 73.6831 79.1495 73.7842 79.1539 73.9029ZM59.1433 72.0494C59.0245 72.9971 58.908 73.9359 58.8156 74.8858C58.7563 75.519 58.7057 76.15 58.6661 76.7833C58.6332 77.311 58.6068 77.8409 58.5958 78.3686C58.5848 78.8984 58.5848 79.4261 58.6002 79.956C58.6332 81.0136 58.7101 82.0712 58.8113 83.1244C58.9608 84.7075 59.185 86.2752 59.4445 87.8407C59.4555 87.955 59.5566 88.0342 59.6688 88.0232C59.7809 88.0122 59.8622 87.911 59.8513 87.7989C59.7985 86.6644 59.7787 85.5342 59.7699 84.3997C59.7633 83.6433 59.7677 82.8913 59.7699 82.1372C59.7743 81.383 59.7875 80.631 59.7897 79.8769C59.7897 79.3734 59.7853 78.8721 59.7743 78.3708C59.7501 77.322 59.7149 76.2754 59.6841 75.2266C59.6512 74.1734 59.6006 73.1268 59.5764 72.0736C59.583 71.9527 59.4907 71.8515 59.3697 71.8449C59.251 71.8383 59.1499 71.9307 59.1433 72.0494ZM99.27 72.0736C99.2458 73.1268 99.1953 74.1734 99.1645 75.2266C99.1315 76.2754 99.0963 77.322 99.0721 78.3708C99.0612 78.8721 99.0568 79.3734 99.0568 79.8769C99.059 80.631 99.0743 81.383 99.0765 82.1372C99.0809 82.8913 99.0831 83.6433 99.0765 84.3997C99.0678 85.5342 99.0502 86.6644 98.9974 87.7989C98.9842 87.911 99.0656 88.0122 99.1777 88.0232C99.2898 88.0342 99.391 87.955 99.402 87.8407C99.6636 86.2752 99.8879 84.7075 100.037 83.1244C100.136 82.0712 100.215 81.0136 100.246 79.956C100.262 79.4261 100.262 78.8984 100.251 78.3686C100.24 77.8409 100.213 77.311 100.18 76.7833C100.143 76.15 100.092 75.519 100.031 74.8858C99.9406 73.9359 99.8219 72.9971 99.7032 72.0494C99.6988 71.9307 99.5954 71.8383 99.4767 71.8449C99.358 71.8515 99.2656 71.9527 99.27 72.0736ZM118.425 68.4809C118.357 69.2658 118.271 70.0376 118.21 70.8247C118.146 71.6053 118.082 72.3814 118.032 73.1598C118.01 73.5314 117.992 73.9029 117.981 74.2767C117.964 74.8352 117.959 75.3915 117.942 75.95C117.924 76.5106 117.906 77.0669 117.876 77.6276C117.832 78.4697 117.772 79.3008 117.669 80.1429C117.647 80.2529 117.717 80.3628 117.827 80.3848C117.937 80.409 118.047 80.3364 118.069 80.2265C118.401 79.0743 118.676 77.9244 118.872 76.7459C119.001 75.9631 119.107 75.176 119.166 74.3845C119.195 73.9887 119.208 73.5929 119.21 73.1971C119.212 72.8014 119.201 72.4078 119.182 72.012C119.16 71.5371 119.129 71.0644 119.087 70.5917C119.023 69.8793 118.938 69.1823 118.856 68.4743C118.856 68.3534 118.757 68.2588 118.639 68.261C118.518 68.261 118.423 68.3577 118.425 68.4809ZM39.9901 68.4743C39.9088 69.1823 39.823 69.8793 39.7615 70.5917C39.7197 71.0644 39.6867 71.5371 39.6647 72.012C39.6471 72.4078 39.634 72.8014 39.6361 73.1971C39.6383 73.5929 39.6515 73.9887 39.6801 74.3845C39.7395 75.176 39.845 75.9631 39.9748 76.7459C40.1726 77.9244 40.4475 79.0743 40.7773 80.2265C40.8015 80.3364 40.9092 80.409 41.0191 80.3848C41.1291 80.3628 41.2016 80.2529 41.1775 80.1429C41.0763 79.3008 41.017 78.4697 40.9708 77.6276C40.94 77.0669 40.9224 76.5106 40.9048 75.95C40.8894 75.3915 40.885 74.8352 40.8674 74.2767C40.8542 73.9029 40.8389 73.5314 40.8147 73.1598C40.7641 72.3814 40.7025 71.6053 40.6388 70.8247C40.575 70.0376 40.4893 69.2658 40.4233 68.4809C40.4255 68.3577 40.3287 68.261 40.21 68.261C40.0891 68.2588 39.9923 68.3534 39.9901 68.4743ZM79.3935 47.7645C79.3364 48.7297 79.266 49.6862 79.2088 50.6514C79.1715 51.2912 79.1363 51.9311 79.1055 52.5731C79.0813 53.1052 79.0571 53.6395 79.0439 54.1738C79.0308 54.708 79.0242 55.2401 79.0286 55.7766C79.0351 56.8452 79.0703 57.9138 79.1033 58.9824C79.1517 60.5918 79.2286 62.1903 79.2858 63.7976C79.2836 63.9097 79.3738 64.0021 79.4859 64.0043C79.598 64.0087 79.6926 63.9185 79.6948 63.8064C79.8201 62.2013 79.9608 60.605 80.0598 58.9978C80.1257 57.9248 80.1895 56.8606 80.2159 55.7876C80.2313 55.2511 80.2313 54.7168 80.2225 54.1804C80.2159 53.6439 80.1961 53.1074 80.1741 52.5753C80.1455 51.9311 80.1081 51.2912 80.0642 50.647C79.9982 49.6796 79.9124 48.7231 79.8267 47.7579C79.8245 47.6369 79.7277 47.5424 79.6068 47.5446C79.4881 47.5468 79.3913 47.6435 79.3935 47.7645ZM55.7814 48.9738C55.7198 49.7411 55.6451 50.5349 55.5835 51.3616C55.5461 51.8871 55.5132 52.417 55.4868 52.9557C55.4648 53.3976 55.4472 53.8396 55.4428 54.2859C55.4384 54.73 55.4406 55.1742 55.4582 55.6183C55.4934 56.5132 55.5681 57.4037 55.6561 58.281C55.7968 59.6728 55.9991 61.0096 56.2321 62.2497C56.2453 62.364 56.3465 62.4432 56.4586 62.43C56.5707 62.4146 56.6499 62.3134 56.6367 62.2013C56.5971 61.2932 56.5949 60.3368 56.6015 59.3474C56.6037 58.7207 56.6147 58.0875 56.6235 57.4455C56.6323 56.8144 56.6499 56.1768 56.6477 55.5436C56.6455 55.117 56.6389 54.6971 56.6213 54.2727C56.5839 53.3734 56.5268 52.4895 56.463 51.6254C56.3949 50.702 56.2981 49.8181 56.2146 48.9716C56.2124 48.8528 56.1156 48.7539 55.9947 48.7539C55.876 48.7583 55.7792 48.855 55.7814 48.9738ZM102.634 48.9716C102.551 49.8181 102.454 50.702 102.383 51.6254C102.32 52.4895 102.263 53.3734 102.225 54.2727C102.208 54.6927 102.201 55.117 102.199 55.5436C102.199 56.1768 102.214 56.8144 102.223 57.4455C102.232 58.0875 102.243 58.7207 102.247 59.3474C102.252 60.3368 102.252 61.2932 102.21 62.2013C102.197 62.3134 102.276 62.4146 102.388 62.43C102.5 62.4432 102.601 62.364 102.614 62.2497C102.847 61.0096 103.052 59.6728 103.19 58.281C103.278 57.4037 103.353 56.5132 103.388 55.6183C103.406 55.1742 103.408 54.73 103.404 54.2859C103.399 53.8396 103.382 53.3976 103.36 52.9557C103.335 52.417 103.3 51.8871 103.263 51.3616C103.204 50.5349 103.127 49.7411 103.067 48.9738C103.067 48.855 102.97 48.7583 102.852 48.7539C102.733 48.7539 102.634 48.8528 102.634 48.9716ZM35.6345 47.7271C35.5509 48.3669 35.4564 48.9936 35.3772 49.6356C35.3244 50.0621 35.2783 50.4843 35.2387 50.913C35.2057 51.2692 35.1771 51.6254 35.1617 51.9816C35.1463 52.34 35.1376 52.6984 35.1463 53.0568C35.1617 53.7758 35.2167 54.4904 35.2959 55.2094C35.4124 56.2845 35.5993 57.3399 35.8411 58.4041C35.8565 58.5162 35.9599 58.5932 36.072 58.5778C36.1819 58.5624 36.2611 58.4591 36.2457 58.3469C36.2083 57.5796 36.2127 56.8232 36.2281 56.0581C36.2369 55.548 36.2567 55.0445 36.2765 54.5365C36.2941 54.0308 36.3227 53.5251 36.3359 53.0172C36.3447 52.6786 36.3469 52.34 36.3403 52.0014C36.3249 51.2912 36.2919 50.5854 36.2501 49.873C36.2061 49.1519 36.1336 48.4505 36.0654 47.7315C36.0676 47.6106 35.9731 47.5138 35.8543 47.5116C35.7334 47.5094 35.6345 47.6062 35.6345 47.7271ZM122.781 47.7315C122.715 48.4505 122.64 49.1519 122.599 49.873C122.555 50.5854 122.522 51.2912 122.508 52.0014C122.502 52.34 122.504 52.6786 122.511 53.0172C122.524 53.5251 122.552 54.0308 122.572 54.5365C122.59 55.0445 122.61 55.548 122.621 56.0581C122.634 56.8232 122.64 57.5796 122.603 58.3469C122.588 58.4591 122.664 58.5624 122.777 58.5778C122.889 58.5932 122.992 58.5162 123.005 58.4041C123.247 57.3399 123.436 56.2845 123.553 55.2094C123.63 54.4904 123.687 53.7758 123.702 53.0568C123.709 52.6984 123.702 52.34 123.685 51.9816C123.669 51.6254 123.641 51.2692 123.608 50.913C123.568 50.4843 123.522 50.0621 123.469 49.6356C123.39 48.9936 123.296 48.3669 123.214 47.7271C123.212 47.6062 123.113 47.5094 122.994 47.5116C122.873 47.5138 122.779 47.6106 122.781 47.7315ZM15.4589 45.9043C15.3688 46.3749 15.272 46.8344 15.1929 47.3159C15.1401 47.6303 15.094 47.9426 15.0588 48.2614C15.028 48.5274 15.0016 48.7913 14.9884 49.0573C14.9752 49.3234 14.9708 49.5894 14.9818 49.8555C15.0038 50.3941 15.0654 50.924 15.1467 51.4539C15.2677 52.2587 15.4501 53.0326 15.6678 53.811C15.6854 53.9209 15.7909 53.9957 15.9031 53.9781C16.013 53.9605 16.09 53.8571 16.0724 53.745C16.0262 52.8083 16.0768 51.8805 16.123 50.9328C16.1405 50.5612 16.1647 50.1897 16.1713 49.8159C16.1779 49.5674 16.1757 49.319 16.1669 49.0683C16.1471 48.545 16.1076 48.0261 16.0636 47.5028C16.0174 46.9663 15.9471 46.4518 15.8921 45.9219C15.8965 45.8032 15.8041 45.7021 15.6854 45.6955C15.5667 45.6911 15.4655 45.7834 15.4589 45.9043ZM142.954 45.9219C142.899 46.4518 142.829 46.9663 142.783 47.5028C142.739 48.0261 142.702 48.545 142.68 49.0683C142.671 49.319 142.671 49.5674 142.675 49.8159C142.684 50.1897 142.706 50.5612 142.723 50.9328C142.77 51.8805 142.82 52.8083 142.776 53.745C142.756 53.8571 142.833 53.9605 142.946 53.9781C143.055 53.9957 143.161 53.9209 143.179 53.811C143.398 53.0326 143.579 52.2587 143.702 51.4539C143.781 50.924 143.843 50.3941 143.865 49.8555C143.876 49.5894 143.871 49.3234 143.858 49.0573C143.845 48.7913 143.821 48.5274 143.79 48.2614C143.752 47.9426 143.709 47.6303 143.656 47.3159C143.574 46.8344 143.478 46.3749 143.388 45.9043C143.383 45.7834 143.282 45.6911 143.161 45.6955C143.042 45.7021 142.95 45.8032 142.954 45.9219Z" fill="#F7D7CA"/>
<mask id="mask2_5865_6221" style="mask-type:luminance" maskUnits="userSpaceOnUse" x="0" y="31" width="159" height="15">
<path d="M0.0878906 31.6016H158.502V45.0292H0.0878906V31.6016Z" fill="white"/>
</mask>
<g mask="url(#mask2_5865_6221)">
<path fill-rule="evenodd" clip-rule="evenodd" d="M79.3586 38.0904C83.3339 35.4475 90.3566 31.6063 97.3706 31.8042C108.012 32.1055 158.612 43.9896 158.612 43.9896L86.4429 44.4469L86.5287 44.5371L79.3586 44.4909L72.1886 44.5371L72.2743 44.4469L0.105469 43.9896C0.105469 43.9896 50.7048 32.1055 61.3466 31.8042C68.3606 31.6063 75.3833 35.4475 79.3586 38.0904Z" fill="#BA9368"/>
</g>
<mask id="mask3_5865_6221" style="mask-type:luminance" maskUnits="userSpaceOnUse" x="0" y="43" width="159" height="67">
<path d="M0.0878906 43.9062H158.502V109.763H0.0878906V43.9062Z" fill="white"/>
</mask>
<g mask="url(#mask3_5865_6221)">
<path fill-rule="evenodd" clip-rule="evenodd" d="M79.3586 91.8871C85.5788 91.7288 95.5215 90.9064 104.932 87.6765C129.408 79.2752 158.612 43.9922 158.612 43.9922C158.612 43.9922 129.483 111.693 79.3586 109.336C29.2342 111.693 0.105469 43.9922 0.105469 43.9922C0.105469 43.9922 29.309 79.2752 53.7852 87.6765C63.1958 90.9064 73.1384 91.7288 79.3586 91.8871Z" fill="#BA9368"/>
</g>
<mask id="mask4_5865_6221" style="mask-type:luminance" maskUnits="userSpaceOnUse" x="25" y="14" width="108" height="15">
<path d="M25.8916 14.6172H132.838V28.8166H25.8916V14.6172Z" fill="white"/>
</mask>
<g mask="url(#mask4_5865_6221)">
<path d="M132.304 28.8339L129.571 33.7019C114.297 25.1444 96.9334 20.6238 79.3655 20.6238C61.7977 20.6238 44.4365 25.1444 29.1554 33.7019L26.4268 28.8339C42.5412 19.8081 60.8434 15.0391 79.3655 15.0391C97.8832 15.0391 116.19 19.8081 132.304 28.8339Z" fill="#50B41A"/>
</g>
<mask id="mask5_5865_6221" style="mask-type:luminance" maskUnits="userSpaceOnUse" x="19" y="0" width="120" height="21">
<path d="M19.9658 0.179688H138.776V20.2585H19.9658V0.179688Z" fill="white"/>
</mask>
<g mask="url(#mask5_5865_6221)">
<path d="M138.774 15.3568L136.083 20.2446C118.798 10.7395 99.1879 5.71318 79.3664 5.71318C59.5427 5.71318 39.93 10.7395 22.648 20.2446L19.959 15.3568C38.0655 5.39657 58.606 0.132812 79.3664 0.132812C100.127 0.132812 120.672 5.39657 138.774 15.3568Z" fill="#50B41A"/>
</g>
<mask id="mask6_5865_6221" style="mask-type:luminance" maskUnits="userSpaceOnUse" x="25" y="111" width="108" height="15">
<path d="M25.8916 111.664H132.838V125.512H25.8916V111.664Z" fill="white"/>
</mask>
<g mask="url(#mask6_5865_6221)">
<path d="M26.4268 111.673L29.1598 106.805C44.4365 115.36 61.7977 119.883 79.3677 119.883C96.9334 119.883 114.297 115.36 129.576 106.805L132.304 111.673C116.19 120.698 97.8876 125.465 79.3677 125.465C60.8478 125.465 42.5412 120.698 26.4268 111.673Z" fill="#50B41A"/>
</g>
<mask id="mask7_5865_6221" style="mask-type:luminance" maskUnits="userSpaceOnUse" x="19" y="119" width="120" height="22">
<path d="M19.958 119.891H138.768V140.321H19.958V119.891Z" fill="white"/>
</mask>
<g mask="url(#mask7_5865_6221)">
<path d="M19.958 125.148L22.6514 120.258C39.9334 129.765 59.5439 134.789 79.3676 134.789C99.1892 134.789 118.802 129.765 136.084 120.258L138.773 125.148C120.669 135.108 100.128 140.372 79.3676 140.372C58.6072 140.372 38.0601 135.108 19.958 125.148Z" fill="#50B41A"/>
</g>
</svg>
