<?xml version="1.0" encoding="UTF-8"?>
<svg id="Layer_2" data-name="Layer 2" xmlns="http://www.w3.org/2000/svg" xmlns:xlink="http://www.w3.org/1999/xlink" viewBox="0 0 60.55 83.09">
  <defs>
    <style>
      .cls-1 {
        fill: #00a7b8;
      }

      .cls-1, .cls-2, .cls-3, .cls-4, .cls-5, .cls-6, .cls-7, .cls-8 {
        stroke-width: 0px;
      }

      .cls-9 {
        fill: none;
        stroke: #414142;
        stroke-miterlimit: 10;
      }

      .cls-2 {
        fill: #9d4098;
      }

      .cls-10 {
        filter: url(#drop-shadow-5);
      }

      .cls-11 {
        filter: url(#drop-shadow-4);
      }

      .cls-12 {
        filter: url(#drop-shadow-6);
      }

      .cls-13 {
        filter: url(#drop-shadow-2);
      }

      .cls-14 {
        filter: url(#drop-shadow-3);
      }

      .cls-15 {
        filter: url(#drop-shadow-1);
      }

      .cls-3 {
        fill: #104fa2;
      }

      .cls-4 {
        fill: #231f20;
      }

      .cls-5 {
        fill: #7db442;
      }

      .cls-6 {
        fill: #f47c25;
      }

      .cls-7 {
        fill: #fff;
      }

      .cls-8 {
        fill: #fed304;
      }
    </style>
    <filter id="drop-shadow-1" filterUnits="userSpaceOnUse">
      <feOffset dx="3" dy="3"/>
      <feGaussianBlur result="blur" stdDeviation="2"/>
      <feFlood flood-color="#231f20" flood-opacity=".1"/>
      <feComposite in2="blur" operator="in"/>
      <feComposite in="SourceGraphic"/>
    </filter>
    <filter id="drop-shadow-2" filterUnits="userSpaceOnUse">
      <feOffset dx="3" dy="3"/>
      <feGaussianBlur result="blur-2" stdDeviation="2"/>
      <feFlood flood-color="#231f20" flood-opacity=".1"/>
      <feComposite in2="blur-2" operator="in"/>
      <feComposite in="SourceGraphic"/>
    </filter>
    <filter id="drop-shadow-3" filterUnits="userSpaceOnUse">
      <feOffset dx="3" dy="3"/>
      <feGaussianBlur result="blur-3" stdDeviation="2"/>
      <feFlood flood-color="#231f20" flood-opacity=".1"/>
      <feComposite in2="blur-3" operator="in"/>
      <feComposite in="SourceGraphic"/>
    </filter>
    <filter id="drop-shadow-4" filterUnits="userSpaceOnUse">
      <feOffset dx="3" dy="3"/>
      <feGaussianBlur result="blur-4" stdDeviation="2"/>
      <feFlood flood-color="#231f20" flood-opacity=".1"/>
      <feComposite in2="blur-4" operator="in"/>
      <feComposite in="SourceGraphic"/>
    </filter>
    <filter id="drop-shadow-5" filterUnits="userSpaceOnUse">
      <feOffset dx="3" dy="3"/>
      <feGaussianBlur result="blur-5" stdDeviation="2"/>
      <feFlood flood-color="#231f20" flood-opacity=".1"/>
      <feComposite in2="blur-5" operator="in"/>
      <feComposite in="SourceGraphic"/>
    </filter>
    <filter id="drop-shadow-6" filterUnits="userSpaceOnUse">
      <feOffset dx="3" dy="3"/>
      <feGaussianBlur result="blur-6" stdDeviation="2"/>
      <feFlood flood-color="#231f20" flood-opacity=".1"/>
      <feComposite in2="blur-6" operator="in"/>
      <feComposite in="SourceGraphic"/>
    </filter>
  </defs>
  <g id="Layer_1-2" data-name="Layer 1">
    <g>
      <g class="cls-15">
        <rect class="cls-2" x="21.72" width="18.05" height="16.88"/>
      </g>
      <g class="cls-13">
        <rect class="cls-8" x="42.5" width="18.05" height="16.88"/>
      </g>
      <g class="cls-14">
        <rect class="cls-5" y="43.21" width="18.05" height="16.88"/>
      </g>
      <g class="cls-11">
        <rect class="cls-6" x="21.25" y="43.21" width="18.05" height="16.88"/>
      </g>
      <g class="cls-10">
        <rect class="cls-3" x="42.5" y="43.21" width="18.05" height="16.88"/>
      </g>
      <g class="cls-12">
        <rect class="cls-1" x=".96" width="18.05" height="16.88"/>
      </g>
      <g>
        <g>
          <rect class="cls-7" x=".96" y="18.2" width="18.05" height="21.68"/>
          <line class="cls-9" x1=".96" y1="34.63" x2="19.02" y2="34.63"/>
        </g>
        <g>
          <path class="cls-4" d="M9.68,25.96l-.45.28c-.39-.52-.92-.77-1.6-.77-.54,0-.99.17-1.35.52-.36.34-.53.77-.53,1.26-.02.97.82,1.85,1.88,1.81.65,0,1.18-.26,1.6-.77l.45.3c-.42.63-1.17,1-2.07,1-.7,0-1.28-.22-1.74-.67-.46-.44-.69-.98-.69-1.62-.02-1.29,1.09-2.41,2.48-2.37.9.02,1.67.39,2.02,1.03Z"/>
          <path class="cls-4" d="M10.78,23.33h.57v2.5c.46-.61,1.02-.91,1.66-.91.33,0,.62.08.88.26.26.17.45.39.57.67s.18.72.18,1.33v2.27h-.58v-2.11c0-.51-.02-.85-.06-1.03-.14-.59-.52-.88-1.12-.88-.34,0-.65.12-.92.34-.27.22-.45.51-.54.85-.05.22-.08.62-.08,1.2v1.62h-.57v-6.13Z"/>
        </g>
      </g>
      <g>
        <g>
          <rect class="cls-7" x="21.72" y="18.2" width="18.05" height="21.68"/>
          <line class="cls-9" x1="21.72" y1="34.63" x2="39.77" y2="34.63"/>
        </g>
        <g>
          <path class="cls-4" d="M29.45,25.52l-.37.38c-.3-.29-.6-.44-.89-.44-.37,0-.67.28-.67.61,0,.14.05.28.16.42.11.13.34.29.68.47.42.22.72.42.87.63s.23.43.23.69c0,.37-.12.67-.38.93-.26.25-.58.37-.96.37-.51,0-1-.23-1.31-.63l.36-.4c.29.32.6.49.92.49.46,0,.82-.34.82-.74,0-.16-.05-.31-.16-.43s-.34-.28-.72-.47c-.4-.21-.67-.41-.82-.61s-.22-.42-.22-.68c0-.34.12-.62.34-.84.23-.23.52-.33.87-.33.41,0,.82.2,1.22.6Z"/>
          <path class="cls-4" d="M30.45,23.33h.57v2.5c.46-.61,1.02-.91,1.66-.91.33,0,.62.08.88.26.26.17.45.39.57.67s.18.72.18,1.33v2.27h-.58v-2.11c0-.51-.02-.85-.06-1.03-.14-.59-.52-.88-1.12-.88-.34,0-.65.12-.92.34-.27.22-.45.51-.54.85-.05.22-.08.62-.08,1.2v1.62h-.57v-6.13Z"/>
        </g>
      </g>
      <g>
        <g>
          <rect class="cls-7" x="42.5" y="18.2" width="18.05" height="21.68"/>
          <line class="cls-9" x1="42.5" y1="34.63" x2="60.55" y2="34.63"/>
        </g>
        <g>
          <path class="cls-4" d="M51.67,25.96l-.45.28c-.39-.52-.92-.77-1.6-.77-.54,0-.99.17-1.35.52-.36.34-.53.77-.53,1.26-.02.97.83,1.85,1.88,1.81.65,0,1.18-.26,1.6-.77l.45.3c-.42.63-1.17,1-2.07,1-.7,0-1.28-.22-1.74-.67-.46-.44-.69-.98-.69-1.62-.02-1.29,1.09-2.41,2.48-2.37.9.02,1.67.39,2.02,1.03Z"/>
          <path class="cls-4" d="M52.76,23.33h.57v3.49l2.04-1.78h.84l-2.43,2.11,2.57,2.32h-.81l-2.22-1.99v1.99h-.57v-6.13Z"/>
        </g>
      </g>
      <g>
        <g>
          <rect class="cls-7" x="0" y="61.41" width="18.05" height="21.68"/>
          <line class="cls-9" x1="0" y1="77.84" x2="18.05" y2="77.84"/>
        </g>
        <g>
          <path class="cls-4" d="M6.21,66.6h.57v1.65h.9v.48h-.9v3.94h-.57v-3.94h-.78v-.48h.78v-1.65Z"/>
          <path class="cls-4" d="M8.53,66.54h.57v2.5c.46-.61,1.02-.91,1.66-.91.32,0,.62.08.87.26.26.17.45.39.57.67s.18.72.18,1.33v2.27h-.58v-2.11c0-.51-.02-.85-.06-1.03-.14-.59-.52-.88-1.12-.88-.34,0-.65.12-.92.34-.27.22-.45.51-.54.85-.05.22-.08.62-.08,1.2v1.62h-.57v-6.13Z"/>
        </g>
      </g>
      <g>
        <g>
          <rect class="cls-7" x="21.25" y="61.41" width="18.05" height="21.68"/>
          <line class="cls-9" x1="21.25" y1="77.84" x2="39.3" y2="77.84"/>
        </g>
        <g>
          <path class="cls-4" d="M24.31,68.25h.59l1.35,3.21,1.42-3.21h.1l1.42,3.21,1.37-3.21h.6l-1.92,4.42h-.11l-1.41-3.17-1.42,3.17h-.11l-1.89-4.42Z"/>
          <path class="cls-4" d="M31.83,66.54h.57v2.5c.46-.61,1.02-.91,1.66-.91.32,0,.62.08.87.26.26.17.45.39.57.67s.18.72.18,1.33v2.27h-.58v-2.11c0-.51-.02-.85-.06-1.03-.14-.59-.52-.88-1.12-.88-.34,0-.65.12-.92.34-.27.22-.45.51-.54.85-.05.22-.08.62-.08,1.2v1.62h-.57v-6.13Z"/>
        </g>
      </g>
      <g>
        <g>
          <rect class="cls-7" x="42.5" y="61.41" width="18.05" height="21.68"/>
          <line class="cls-9" x1="42.5" y1="77.84" x2="60.55" y2="77.84"/>
        </g>
        <g>
          <path class="cls-4" d="M46.78,68.25h.57v.81c.46-.61,1.03-.92,1.76-.92.62,0,1.17.23,1.61.68.45.45.67.99.67,1.63s-.22,1.2-.67,1.66c-.44.46-.97.68-1.6.68-.71,0-1.3-.3-1.77-.87v2.37h-.57v-6.04ZM49.07,68.68c-.49,0-.91.17-1.25.52-.34.34-.51.78-.51,1.28-.04,1.01.8,1.79,1.77,1.78.91.03,1.77-.84,1.75-1.8.02-.94-.82-1.82-1.76-1.78Z"/>
          <path class="cls-4" d="M52.46,66.54h.57v2.5c.46-.61,1.02-.91,1.66-.91.32,0,.62.08.87.26.26.17.45.39.57.67s.18.72.18,1.33v2.27h-.58v-2.11c0-.51-.02-.85-.06-1.03-.14-.59-.52-.88-1.12-.88-.34,0-.65.12-.92.34-.27.22-.45.51-.54.85-.05.22-.08.62-.08,1.2v1.62h-.57v-6.13Z"/>
        </g>
      </g>
    </g>
  </g>
</svg>