<?xml version="1.0" encoding="UTF-8"?>
<svg xmlns="http://www.w3.org/2000/svg" version="1.1" viewBox="0 0 321.4 321.4">
  <defs>
    <style>
      .cls-1 {
        stroke: #434343;
        stroke-width: 25px;
      }

      .cls-1, .cls-2 {
        fill: none;
        stroke-linejoin: round;
      }

      .cls-3 {
        fill: #fff;
      }

      .cls-4 {
        opacity: .8;
      }

      .cls-5 {
        fill: #1e2832;
      }

      .cls-6 {
        display: none;
      }

      .cls-2 {
        stroke: #000;
        stroke-linecap: round;
        stroke-width: 20px;
      }
    </style>
  </defs>
  <!-- Generator: Adobe Illustrator 28.6.0, SVG Export Plug-In . SVG Version: 1.2.0 Build 709)  -->
  <g>
    <g id="Layer_1">
      <g id="baseRing" class="cls-6">
        <circle class="cls-1" cx="160.7" cy="160.7" r="148.2"/>
      </g>
      <g id="love" class="cls-6">
        <path d="M227.8,85c-39-18.6-67,25.2-67.1,25.4-.1-.2-28.1-44-67.2-25.4-39.1,18.7-33,63.3-25.3,80.6,10.6,23.8,58.2,70.8,80.7,92.2,6.6,6.3,17,6.3,23.7,0,22.5-21.4,70-68.4,80.7-92.2,7.7-17.2,13.8-61.9-25.4-80.6h0Z"/>
      </g>
      <g id="bookOpen" class="cls-6">
        <path class="cls-5" d="M259.8,95.2h-8.9v-8.9c0-5.3-3.3-8.9-8.9-8.9h-31.1c-17.8,0-33.1,3.5-48.8,17.8-15.7-14.3-31.1-17.8-48.8-17.8h-31.1c-5.6,0-8.9,3.6-8.9,8.9v8.9h-8.9c-4.9,0-8.9,4-8.9,8.9v124.3c0,4.9,4,8.9,8.9,8.9h84.4c0,4.9,4,8.9,8.9,8.9h8.9c4.9,0,8.9-4,8.9-8.9h84.4c4.9,0,8.9-4,8.9-8.9v-124.3c0-4.9-4-8.9-8.9-8.9ZM64.4,219.6v-115.5h8.9v97.7c0,5.3,3.3,8.9,8.9,8.9h31.1c8.9,0,19.2,1.1,30,8.9h-78.8ZM157.7,219.6c-15.7-14.3-26.6-17.8-44.4-17.8h-31.1v-115.5h31.1c26.6,0,34.6,8.8,44.4,17.8v115.5h0ZM166.6,219.6v-115.5c9.8-8.9,17.8-17.8,44.4-17.8h31.1v115.5h-31.1c-17.8,0-28.7,3.5-44.4,17.8ZM259.8,219.6h-78.8c10.7-7.8,21.1-8.9,30-8.9h31.1c5.6,0,8.9-3.6,8.9-8.9v-97.7h8.9v115.5h0Z"/>
      </g>
      <g id="computer" class="cls-6">
        <path class="cls-5" d="M141.7,111.2v49.5l10.4-17.4,16,27.8,9.6-5.9-15.5-27h20l-40.5-27ZM249.7,88.7c0-9.9-8.1-18-18-18H87.7c-9.9,0-18,8.1-18,18v117h180v-117ZM231.7,183.2c0,2.5-2,4.5-4.5,4.5H92.2c-2.5,0-4.5-2-4.5-4.5v-90c0-2.5,2-4.5,4.5-4.5h135c2.5,0,4.5,2,4.5,4.5v90ZM177.7,214.7v4.5c0,2.5-2,4.5-4.5,4.5h-27c-2.5,0-4.5-2-4.5-4.5v-4.5H51.7v9c0,5,4,9,9,9h198c5,0,9-4,9-9v-9h-90ZM245.2,229.3c-3.1,0-5.6-2.5-5.6-5.6s2.5-5.6,5.6-5.6,5.6,2.5,5.6,5.6-2.5,5.6-5.6,5.6Z"/>
      </g>
      <g id="video" class="cls-6">
        <path class="cls-5" d="M240.3,84.7H78.8c-8.9,0-16.1,7.2-16.1,16.1v113c0,8.9,7.2,16.1,16.1,16.1h161.5c8.9,0,16.1-7.2,16.1-16.1v-113c0-8.9-7.2-16.1-16.1-16.1ZM86.9,213.9h-16.1v-16.1h16.1v16.1ZM86.9,181.6h-16.1v-16.1h16.1v16.1ZM86.9,149.3h-16.1v-16.1h16.1v16.1ZM86.9,117h-16.1v-16.1h16.1v16.1ZM224.2,213.9H95v-113h129.2v113h0ZM248.4,213.9h-16.1v-16.1h16.1v16.1ZM248.4,181.6h-16.1v-16.1h16.1v16.1ZM248.4,149.3h-16.1v-16.1h16.1v16.1ZM248.4,117h-16.1v-16.1h16.1v16.1ZM143.4,125.1v64.6l50.5-32.3-50.5-32.3Z"/>
      </g>
      <g id="headphones" class="cls-6">
        <path d="M60.6,234.1v-53.2c-5.6,7.7-8.9,16.8-8.9,26.6s3.3,18.9,8.9,26.6ZM255.8,180.9v53.2c5.6-7.7,8.9-16.8,8.9-26.6s-3.3-18.9-8.9-26.6ZM238.1,243c4.9,0,8.9-3.9,8.9-8.9v-79.9c0-49-39.8-88.8-88.8-88.8s-88.8,39.8-88.8,88.8v79.9c0,4.9,3.9,8.9,8.9,8.9h8.9c9.8,0,17.8-7.9,17.8-17.8v-35.5c0-9.8-7.9-17.8-17.8-17.8v-22.2c0-35.5,31.1-67.7,71-67.7s71,32.2,71,67.7v22.2c-9.8,0-17.8,7.9-17.8,17.8v35.5c0,9.5,7.6,17.3,17,17.7h0c0,0,9.6,0,9.6,0Z"/>
      </g>
      <g id="mic" class="cls-6">
        <path class="cls-5" d="M205.1,72.7c-11.8,0-22.7,4.2-31.2,11.1l69.8,69.8c6.9-8.5,11.1-19.4,11.1-31.2,0-27.4-22.2-49.6-49.6-49.6h0ZM155.4,122.3c0,3.6.4,7,1.1,10.3l38.1,38.1c3.4.7,6.8,1.1,10.3,1.1,11.8,0,22.7-4.2,31.2-11.1l-69.8-69.8c-6.9,8.5-11.1,19.4-11.1,31.2h0ZM72.7,236l18.6,18.6,92.6-79.9-31.3-31.3-79.9,92.6h0Z"/>
      </g>
      <g id="pause" class="cls-6">
        <g>
          <path d="M102.2,87.8h26.9c7.9,0,14.4,6.4,14.4,14.4v117c0,7.9-6.4,14.4-14.4,14.4h-26.9c-7.9,0-14.4-6.4-14.4-14.4v-117c0-8,6.4-14.4,14.4-14.4Z"/>
          <path d="M192.3,87.8h26.9c7.9,0,14.4,6.4,14.4,14.4v117c0,7.9-6.4,14.4-14.4,14.4h-26.9c-7.9,0-14.4-6.4-14.4-14.4v-117c0-8,6.4-14.4,14.4-14.4Z"/>
        </g>
      </g>
      <g id="play" class="cls-6">
        <path d="M232.4,172.2l-100.6,59.3c-8.8,5.2-19.7-1.3-19.7-11.6v-118.7c0-10.3,10.9-16.8,19.7-11.6l100.6,59.3c8.8,5.2,8.8,18.1,0,23.2h0Z"/>
      </g>
      <g id="stop" class="cls-6">
        <path d="M108.1,87.8h105.1c11.2,0,20.4,9.1,20.4,20.3v105.1c0,11.2-9.1,20.4-20.4,20.4h-105.1c-11.2,0-20.3-9.1-20.3-20.4v-105.1c0-11.2,9.1-20.3,20.4-20.3Z"/>
      </g>
      <g id="record" class="cls-6">
        <circle cx="160.7" cy="161" r="83"/>
      </g>
      <g id="muted" class="cls-6">
        <path d="M169.7,248.4h0c-2,0-4-.7-5.6-2l-54.9-45.5v-80.4l54.9-45.4c1.6-1.3,3.5-2,5.6-2h0c4.8,0,8.7,3.9,8.7,8.7v157.9c0,4.8-3.9,8.7-8.7,8.7h0Z"/>
        <path d="M94.4,120.5h-26.1c-10.5,0-19.1,8.5-19.1,19.1v42.3c0,10.5,8.5,19.1,19.1,19.1h26.1v-80.4h0Z"/>
        <line class="cls-2" x1="201.6" y1="133.2" x2="256.3" y2="188"/>
        <line class="cls-2" x1="256.3" y1="133.2" x2="201.6" y2="188"/>
      </g>
      <g id="unmuted" class="cls-6">
        <path class="cls-2" d="M232.1,91.7c21.1,16.8,34.3,41.5,34.3,68.8s-13.4,52.2-34.7,69.1"/>
        <path class="cls-2" d="M210.1,118.9c13.3,9.9,21.7,24.9,21.7,41.7s-8.7,32.1-22.2,42"/>
        <path d="M169.7,248.4h0c-2,0-4-.7-5.6-2l-54.9-45.5v-80.4l54.9-45.4c1.6-1.3,3.5-2,5.6-2h0c4.8,0,8.7,3.9,8.7,8.7v157.9c0,4.8-3.9,8.7-8.7,8.7h0Z"/>
        <path d="M94.4,120.5h-26.1c-10.5,0-19.1,8.5-19.1,19.1v42.3c0,10.5,8.5,19.1,19.1,19.1h26.1v-80.4h0Z"/>
      </g>
      <g id="end" class="cls-6">
        <path d="M256.4,172.2l-100.6,59.3c-8.8,5.2-19.7-1.3-19.7-11.6v-118.7c0-10.3,10.9-16.8,19.7-11.6l100.6,59.3c8.8,5.2,8.8,18.1,0,23.2h0Z"/>
        <path d="M83.8,87.8h15c6.7,0,12.1,5.4,12.1,12.1v121.6c0,6.7-5.4,12.1-12.1,12.1h-15c-6.7,0-12.1-5.4-12.1-12.1v-121.6c0-6.7,5.4-12.1,12.1-12.1Z"/>
      </g>
      <g id="forward" class="cls-6">
        <path d="M261.3,168.4c6-3.6,6-12.3,0-15.9l-96.1-56.4c-6.1-3.6-13.9.8-13.9,8v28c0,0-61-35.8-61-35.8-6.1-3.6-13.9.8-13.9,8l.2,113.2c0,7.1,7.8,11.5,13.9,7.9l60.9-36.1v28.1c0,7.1,7.8,11.5,14,7.9l95.8-56.8h0Z"/>
      </g>
      <g id="back" class="cls-6">
        <path d="M60.1,168.6l95.9,56.6c6.1,3.6,13.9-.8,13.9-7.9v-28.1l61,36c6.1,3.6,13.9-.8,13.9-7.9v-113.2c0-7.1-7.8-11.6-13.9-7.9l-61,36v-28.1c0-7.1-7.8-11.6-13.9-7.9l-95.9,56.6c-6,3.6-6,12.3,0,15.9,0,0,0,0,0,0Z"/>
      </g>
      <g id="rewind" class="cls-6">
        <g>
          <path d="M65,172.2c-8.8-5.2-8.8-18.1,0-23.2l100.6-59.3c8.7-5.2,19.7,1.3,19.7,11.6v118.7c0,10.3-10.9,16.8-19.7,11.6l-100.6-59.3h0Z"/>
          <path d="M249.7,99.9v121.6c0,6.7-5.4,12.1-12.1,12.1h-15c-6.7,0-12.1-5.4-12.1-12.1v-121.6c0-6.7,5.4-12.1,12.1-12.1h15c6.7,0,12.1,5.4,12.1,12.1Z"/>
        </g>
      </g>
      <g id="captions" class="cls-6">
        <g>
          <path d="M131.7,135c-10.5-11.2-22.4-16.8-35.5-16.8-22.4,0-39.5,17.2-39.5,39.5s16.7,40,39.8,40,22.4-4.2,35.1-16.7l15.1,15.6c-15.4,15.1-28.8,22.4-50.5,22.4-36.1,0-61.7-24.9-61.7-61.2s2.6-22,7.9-30.9c11.2-19,32.4-30,54.1-30s37.9,8.4,50.7,23.3l-15.5,14.9Z"/>
          <path d="M258,135c-10.5-11.2-22.4-16.8-35.5-16.8-22.4,0-39.5,17.2-39.5,39.5s16.7,40,39.8,40,22.4-4.2,35.1-16.7l15.1,15.6c-15.4,15.1-28.8,22.4-50.5,22.4-36.1,0-61.7-24.9-61.7-61.2s2.6-22,7.9-30.9c11.2-19,32.4-30,54.1-30s37.9,8.4,50.7,23.3l-15.5,14.9Z"/>
        </g>
      </g>
      <g id="Layer_20" class="cls-6">
        <path d="M258.7,102c0,13.7.5,37.5-14.8,55.9-53.2,64.1-83.2,159.1-83.2,159.1,0,0-25-96-81-156.5-18.1-19.5-17.3-45.9-17-58.5C63.9,47.9,106.6,4,160.7,4s98,43.9,98,98Z"/>
      </g>
      <g id="replay" class="cls-4">
        <path class="cls-3" d="M283.7,54h-112v112l40.3-40.3c.3.5.6.9.9,1.4,7.9,10.9,12.3,24.2,12.3,37.9,0,39.9-36.3,71.4-77.6,63.3-18.7-3.7-35.1-16.1-43.9-33.1-12.3-23.6-8.8-50,5.4-68.9,6.9-9.2,7.8-21.6,1-31l-7.6-10.5c-4-5.5-12-6.4-17-1.8-35.7,32.9-48.1,87.6-22.4,135.3,15.8,29.4,45,50.5,77.9,56.2h0c70,12.1,131-41.8,131-109.6s-9.7-52.4-26.8-72.4l38.6-38.6Z"/>
      </g>
    </g>
  </g>
</svg>